  0
SECTION
  2
HEADER
  9
$ANGBASE
  50
0.0
  9
$ANGDIR
  70
1
  9
$MEASUREMENT
  70
0
  0
ENDSEC
  0
SECTION
  2
TABLES
  0
TABLE
  2
LTYPE
  70
4
  0
LTYPE
  5
40F
  2
CONTINUOUS
  70
0
  3
Solid line
  72
65
  73
0
  40
0.0
  0
LTYPE
  5
410
  2
DASHDOT
 70
0
  3
Dash Dot ____ _ ____ _
 72
65
 73
4
 40
2.0
 49
1.25
 49
-0.25
 49
0.25
 49
-0.25
  0
LTYPE
  5
411
  2
DASHED
 70
0
  3
Dashed __ __ __ __ __
 72
65
 73
2
 40
0.75
 49
0.5
 49
-0.25
  0
LTYPE
  5
43B
  2
DOTTED
 70
0
  3
Dotted .  .  .  .
 72
65
 73
2
 40
0.2
 49
0.0
 49
-0.2
  0
ENDTAB
  0
TABLE
  2
STYLE
  70
4
  0
STYLE
  2
KICAD
  70
0
  40
0
  41
1
  42
1
  50
0
  71
0
  3
isocp.shx
  0
STYLE
  2
KICADB
  70
0
  40
0
  41
1
  42
1
  50
0
  71
0
  3
isocp.shx
  0
STYLE
  2
KICADI
  70
0
  40
0
  41
1
  42
1
  50
15
  71
0
  3
isocp.shx
  0
STYLE
  2
KICADBI
  70
0
  40
0
  41
1
  42
1
  50
15
  71
0
  3
isocp.shx
  0
ENDTAB
  0
TABLE
  2
LAYER
  70
1
  0
LAYER
  2
BLACK
  70
0
  62
7
  6
CONTINUOUS
  0
ENDTAB
  0
ENDSEC
  0
SECTION
  2
ENTITIES
0
LINE
8
BLACK
6
CONTINUOUS
10
2.76409
20
-2.28935
11
2.72865
21
-2.28935
0
LINE
8
BLACK
6
CONTINUOUS
10
2.72865
20
-2.28935
11
2.72865
21
-2.25785
0
LINE
8
BLACK
6
CONTINUOUS
10
2.72865
20
-2.25785
11
2.76409
21
-2.25785
0
LINE
8
BLACK
6
CONTINUOUS
10
2.76409
20
-2.25785
11
2.76409
21
-2.28935
0
LINE
8
BLACK
6
CONTINUOUS
10
2.14166
20
-2.19669
11
2.14306
21
-2.19712
0
LINE
8
BLACK
6
CONTINUOUS
10
2.14306
20
-2.19712
11
2.14435
21
-2.19781
0
LINE
8
BLACK
6
CONTINUOUS
10
2.14435
20
-2.19781
11
2.14549
21
-2.19874
0
LINE
8
BLACK
6
CONTINUOUS
10
2.14549
20
-2.19874
11
2.14642
21
-2.19988
0
LINE
8
BLACK
6
CONTINUOUS
10
2.14642
20
-2.19988
11
2.14711
21
-2.20117
0
LINE
8
BLACK
6
CONTINUOUS
10
2.14711
20
-2.20117
11
2.14753
21
-2.20257
0
LINE
8
BLACK
6
CONTINUOUS
10
2.14753
20
-2.20257
11
2.14768
21
-2.20403
0
LINE
8
BLACK
6
CONTINUOUS
10
2.14768
20
-2.20403
11
2.14768
21
-2.25797
0
LINE
8
BLACK
6
CONTINUOUS
10
2.14768
20
-2.25797
11
2.14753
21
-2.25943
0
LINE
8
BLACK
6
CONTINUOUS
10
2.14753
20
-2.25943
11
2.14711
21
-2.26083
0
LINE
8
BLACK
6
CONTINUOUS
10
2.14711
20
-2.26083
11
2.14642
21
-2.26212
0
LINE
8
BLACK
6
CONTINUOUS
10
2.14642
20
-2.26212
11
2.14549
21
-2.26326
0
LINE
8
BLACK
6
CONTINUOUS
10
2.14549
20
-2.26326
11
2.14435
21
-2.26419
0
LINE
8
BLACK
6
CONTINUOUS
10
2.14435
20
-2.26419
11
2.14306
21
-2.26488
0
LINE
8
BLACK
6
CONTINUOUS
10
2.14306
20
-2.26488
11
2.14166
21
-2.26531
0
LINE
8
BLACK
6
CONTINUOUS
10
2.14166
20
-2.26531
11
2.1402
21
-2.26545
0
LINE
8
BLACK
6
CONTINUOUS
10
2.1402
20
-2.26545
11
2.11776
21
-2.26545
0
LINE
8
BLACK
6
CONTINUOUS
10
2.11776
20
-2.26545
11
2.1163
21
-2.26531
0
LINE
8
BLACK
6
CONTINUOUS
10
2.1163
20
-2.26531
11
2.11489
21
-2.26488
0
LINE
8
BLACK
6
CONTINUOUS
10
2.11489
20
-2.26488
11
2.1136
21
-2.26419
0
LINE
8
BLACK
6
CONTINUOUS
10
2.1136
20
-2.26419
11
2.11247
21
-2.26326
0
LINE
8
BLACK
6
CONTINUOUS
10
2.11247
20
-2.26326
11
2.11154
21
-2.26212
0
LINE
8
BLACK
6
CONTINUOUS
10
2.11154
20
-2.26212
11
2.11084
21
-2.26083
0
LINE
8
BLACK
6
CONTINUOUS
10
2.11084
20
-2.26083
11
2.11042
21
-2.25943
0
LINE
8
BLACK
6
CONTINUOUS
10
2.11042
20
-2.25943
11
2.11028
21
-2.25797
0
LINE
8
BLACK
6
CONTINUOUS
10
2.11028
20
-2.25797
11
2.11028
21
-2.20403
0
LINE
8
BLACK
6
CONTINUOUS
10
2.11028
20
-2.20403
11
2.11042
21
-2.20257
0
LINE
8
BLACK
6
CONTINUOUS
10
2.11042
20
-2.20257
11
2.11084
21
-2.20117
0
LINE
8
BLACK
6
CONTINUOUS
10
2.11084
20
-2.20117
11
2.11154
21
-2.19988
0
LINE
8
BLACK
6
CONTINUOUS
10
2.11154
20
-2.19988
11
2.11247
21
-2.19874
0
LINE
8
BLACK
6
CONTINUOUS
10
2.11247
20
-2.19874
11
2.1136
21
-2.19781
0
LINE
8
BLACK
6
CONTINUOUS
10
2.1136
20
-2.19781
11
2.11489
21
-2.19712
0
LINE
8
BLACK
6
CONTINUOUS
10
2.11489
20
-2.19712
11
2.1163
21
-2.19669
0
LINE
8
BLACK
6
CONTINUOUS
10
2.1163
20
-2.19669
11
2.11776
21
-2.19655
0
LINE
8
BLACK
6
CONTINUOUS
10
2.11776
20
-2.19655
11
2.1402
21
-2.19655
0
LINE
8
BLACK
6
CONTINUOUS
10
2.1402
20
-2.19655
11
2.14166
21
-2.19669
0
LINE
8
BLACK
6
CONTINUOUS
10
2.2637
20
-2.19669
11
2.26511
21
-2.19712
0
LINE
8
BLACK
6
CONTINUOUS
10
2.26511
20
-2.19712
11
2.2664
21
-2.19781
0
LINE
8
BLACK
6
CONTINUOUS
10
2.2664
20
-2.19781
11
2.26753
21
-2.19874
0
LINE
8
BLACK
6
CONTINUOUS
10
2.26753
20
-2.19874
11
2.26846
21
-2.19988
0
LINE
8
BLACK
6
CONTINUOUS
10
2.26846
20
-2.19988
11
2.26916
21
-2.20117
0
LINE
8
BLACK
6
CONTINUOUS
10
2.26916
20
-2.20117
11
2.26958
21
-2.20257
0
LINE
8
BLACK
6
CONTINUOUS
10
2.26958
20
-2.20257
11
2.26972
21
-2.20403
0
LINE
8
BLACK
6
CONTINUOUS
10
2.26972
20
-2.20403
11
2.26972
21
-2.25797
0
LINE
8
BLACK
6
CONTINUOUS
10
2.26972
20
-2.25797
11
2.26958
21
-2.25943
0
LINE
8
BLACK
6
CONTINUOUS
10
2.26958
20
-2.25943
11
2.26916
21
-2.26083
0
LINE
8
BLACK
6
CONTINUOUS
10
2.26916
20
-2.26083
11
2.26846
21
-2.26212
0
LINE
8
BLACK
6
CONTINUOUS
10
2.26846
20
-2.26212
11
2.26753
21
-2.26326
0
LINE
8
BLACK
6
CONTINUOUS
10
2.26753
20
-2.26326
11
2.2664
21
-2.26419
0
LINE
8
BLACK
6
CONTINUOUS
10
2.2664
20
-2.26419
11
2.26511
21
-2.26488
0
LINE
8
BLACK
6
CONTINUOUS
10
2.26511
20
-2.26488
11
2.2637
21
-2.26531
0
LINE
8
BLACK
6
CONTINUOUS
10
2.2637
20
-2.26531
11
2.26224
21
-2.26545
0
LINE
8
BLACK
6
CONTINUOUS
10
2.26224
20
-2.26545
11
2.2398
21
-2.26545
0
LINE
8
BLACK
6
CONTINUOUS
10
2.2398
20
-2.26545
11
2.23834
21
-2.26531
0
LINE
8
BLACK
6
CONTINUOUS
10
2.23834
20
-2.26531
11
2.23694
21
-2.26488
0
LINE
8
BLACK
6
CONTINUOUS
10
2.23694
20
-2.26488
11
2.23565
21
-2.26419
0
LINE
8
BLACK
6
CONTINUOUS
10
2.23565
20
-2.26419
11
2.23451
21
-2.26326
0
LINE
8
BLACK
6
CONTINUOUS
10
2.23451
20
-2.26326
11
2.23358
21
-2.26212
0
LINE
8
BLACK
6
CONTINUOUS
10
2.23358
20
-2.26212
11
2.23289
21
-2.26083
0
LINE
8
BLACK
6
CONTINUOUS
10
2.23289
20
-2.26083
11
2.23247
21
-2.25943
0
LINE
8
BLACK
6
CONTINUOUS
10
2.23247
20
-2.25943
11
2.23232
21
-2.25797
0
LINE
8
BLACK
6
CONTINUOUS
10
2.23232
20
-2.25797
11
2.23232
21
-2.20403
0
LINE
8
BLACK
6
CONTINUOUS
10
2.23232
20
-2.20403
11
2.23247
21
-2.20257
0
LINE
8
BLACK
6
CONTINUOUS
10
2.23247
20
-2.20257
11
2.23289
21
-2.20117
0
LINE
8
BLACK
6
CONTINUOUS
10
2.23289
20
-2.20117
11
2.23358
21
-2.19988
0
LINE
8
BLACK
6
CONTINUOUS
10
2.23358
20
-2.19988
11
2.23451
21
-2.19874
0
LINE
8
BLACK
6
CONTINUOUS
10
2.23451
20
-2.19874
11
2.23565
21
-2.19781
0
LINE
8
BLACK
6
CONTINUOUS
10
2.23565
20
-2.19781
11
2.23694
21
-2.19712
0
LINE
8
BLACK
6
CONTINUOUS
10
2.23694
20
-2.19712
11
2.23834
21
-2.19669
0
LINE
8
BLACK
6
CONTINUOUS
10
2.23834
20
-2.19669
11
2.2398
21
-2.19655
0
LINE
8
BLACK
6
CONTINUOUS
10
2.2398
20
-2.19655
11
2.26224
21
-2.19655
0
LINE
8
BLACK
6
CONTINUOUS
10
2.26224
20
-2.19655
11
2.2637
21
-2.19669
0
LINE
8
BLACK
6
CONTINUOUS
10
2.48546
20
-2.19649
11
2.48686
21
-2.19692
0
LINE
8
BLACK
6
CONTINUOUS
10
2.48686
20
-2.19692
11
2.48815
21
-2.19761
0
LINE
8
BLACK
6
CONTINUOUS
10
2.48815
20
-2.19761
11
2.48929
21
-2.19854
0
LINE
8
BLACK
6
CONTINUOUS
10
2.48929
20
-2.19854
11
2.49022
21
-2.19968
0
LINE
8
BLACK
6
CONTINUOUS
10
2.49022
20
-2.19968
11
2.49091
21
-2.20097
0
LINE
8
BLACK
6
CONTINUOUS
10
2.49091
20
-2.20097
11
2.49133
21
-2.20237
0
LINE
8
BLACK
6
CONTINUOUS
10
2.49133
20
-2.20237
11
2.49148
21
-2.20383
0
LINE
8
BLACK
6
CONTINUOUS
10
2.49148
20
-2.20383
11
2.49148
21
-2.25777
0
LINE
8
BLACK
6
CONTINUOUS
10
2.49148
20
-2.25777
11
2.49133
21
-2.25923
0
LINE
8
BLACK
6
CONTINUOUS
10
2.49133
20
-2.25923
11
2.49091
21
-2.26063
0
LINE
8
BLACK
6
CONTINUOUS
10
2.49091
20
-2.26063
11
2.49022
21
-2.26192
0
LINE
8
BLACK
6
CONTINUOUS
10
2.49022
20
-2.26192
11
2.48929
21
-2.26306
0
LINE
8
BLACK
6
CONTINUOUS
10
2.48929
20
-2.26306
11
2.48815
21
-2.26399
0
LINE
8
BLACK
6
CONTINUOUS
10
2.48815
20
-2.26399
11
2.48686
21
-2.26468
0
LINE
8
BLACK
6
CONTINUOUS
10
2.48686
20
-2.26468
11
2.48546
21
-2.26511
0
LINE
8
BLACK
6
CONTINUOUS
10
2.48546
20
-2.26511
11
2.484
21
-2.26525
0
LINE
8
BLACK
6
CONTINUOUS
10
2.484
20
-2.26525
11
2.46156
21
-2.26525
0
LINE
8
BLACK
6
CONTINUOUS
10
2.46156
20
-2.26525
11
2.4601
21
-2.26511
0
LINE
8
BLACK
6
CONTINUOUS
10
2.4601
20
-2.26511
11
2.45869
21
-2.26468
0
LINE
8
BLACK
6
CONTINUOUS
10
2.45869
20
-2.26468
11
2.4574
21
-2.26399
0
LINE
8
BLACK
6
CONTINUOUS
10
2.4574
20
-2.26399
11
2.45627
21
-2.26306
0
LINE
8
BLACK
6
CONTINUOUS
10
2.45627
20
-2.26306
11
2.45534
21
-2.26192
0
LINE
8
BLACK
6
CONTINUOUS
10
2.45534
20
-2.26192
11
2.45464
21
-2.26063
0
LINE
8
BLACK
6
CONTINUOUS
10
2.45464
20
-2.26063
11
2.45422
21
-2.25923
0
LINE
8
BLACK
6
CONTINUOUS
10
2.45422
20
-2.25923
11
2.45408
21
-2.25777
0
LINE
8
BLACK
6
CONTINUOUS
10
2.45408
20
-2.25777
11
2.45408
21
-2.20383
0
LINE
8
BLACK
6
CONTINUOUS
10
2.45408
20
-2.20383
11
2.45422
21
-2.20237
0
LINE
8
BLACK
6
CONTINUOUS
10
2.45422
20
-2.20237
11
2.45464
21
-2.20097
0
LINE
8
BLACK
6
CONTINUOUS
10
2.45464
20
-2.20097
11
2.45534
21
-2.19968
0
LINE
8
BLACK
6
CONTINUOUS
10
2.45534
20
-2.19968
11
2.45627
21
-2.19854
0
LINE
8
BLACK
6
CONTINUOUS
10
2.45627
20
-2.19854
11
2.4574
21
-2.19761
0
LINE
8
BLACK
6
CONTINUOUS
10
2.4574
20
-2.19761
11
2.45869
21
-2.19692
0
LINE
8
BLACK
6
CONTINUOUS
10
2.45869
20
-2.19692
11
2.4601
21
-2.19649
0
LINE
8
BLACK
6
CONTINUOUS
10
2.4601
20
-2.19649
11
2.46156
21
-2.19635
0
LINE
8
BLACK
6
CONTINUOUS
10
2.46156
20
-2.19635
11
2.484
21
-2.19635
0
LINE
8
BLACK
6
CONTINUOUS
10
2.484
20
-2.19635
11
2.48546
21
-2.19649
0
LINE
8
BLACK
6
CONTINUOUS
10
2.6075
20
-2.19649
11
2.60891
21
-2.19692
0
LINE
8
BLACK
6
CONTINUOUS
10
2.60891
20
-2.19692
11
2.6102
21
-2.19761
0
LINE
8
BLACK
6
CONTINUOUS
10
2.6102
20
-2.19761
11
2.61133
21
-2.19854
0
LINE
8
BLACK
6
CONTINUOUS
10
2.61133
20
-2.19854
11
2.61226
21
-2.19968
0
LINE
8
BLACK
6
CONTINUOUS
10
2.61226
20
-2.19968
11
2.61295
21
-2.20097
0
LINE
8
BLACK
6
CONTINUOUS
10
2.61295
20
-2.20097
11
2.61338
21
-2.20237
0
LINE
8
BLACK
6
CONTINUOUS
10
2.61338
20
-2.20237
11
2.61352
21
-2.20383
0
LINE
8
BLACK
6
CONTINUOUS
10
2.61352
20
-2.20383
11
2.61352
21
-2.25777
0
LINE
8
BLACK
6
CONTINUOUS
10
2.61352
20
-2.25777
11
2.61338
21
-2.25923
0
LINE
8
BLACK
6
CONTINUOUS
10
2.61338
20
-2.25923
11
2.61295
21
-2.26063
0
LINE
8
BLACK
6
CONTINUOUS
10
2.61295
20
-2.26063
11
2.61226
21
-2.26192
0
LINE
8
BLACK
6
CONTINUOUS
10
2.61226
20
-2.26192
11
2.61133
21
-2.26306
0
LINE
8
BLACK
6
CONTINUOUS
10
2.61133
20
-2.26306
11
2.6102
21
-2.26399
0
LINE
8
BLACK
6
CONTINUOUS
10
2.6102
20
-2.26399
11
2.60891
21
-2.26468
0
LINE
8
BLACK
6
CONTINUOUS
10
2.60891
20
-2.26468
11
2.6075
21
-2.26511
0
LINE
8
BLACK
6
CONTINUOUS
10
2.6075
20
-2.26511
11
2.60604
21
-2.26525
0
LINE
8
BLACK
6
CONTINUOUS
10
2.60604
20
-2.26525
11
2.5836
21
-2.26525
0
LINE
8
BLACK
6
CONTINUOUS
10
2.5836
20
-2.26525
11
2.58214
21
-2.26511
0
LINE
8
BLACK
6
CONTINUOUS
10
2.58214
20
-2.26511
11
2.58074
21
-2.26468
0
LINE
8
BLACK
6
CONTINUOUS
10
2.58074
20
-2.26468
11
2.57945
21
-2.26399
0
LINE
8
BLACK
6
CONTINUOUS
10
2.57945
20
-2.26399
11
2.57831
21
-2.26306
0
LINE
8
BLACK
6
CONTINUOUS
10
2.57831
20
-2.26306
11
2.57738
21
-2.26192
0
LINE
8
BLACK
6
CONTINUOUS
10
2.57738
20
-2.26192
11
2.57669
21
-2.26063
0
LINE
8
BLACK
6
CONTINUOUS
10
2.57669
20
-2.26063
11
2.57627
21
-2.25923
0
LINE
8
BLACK
6
CONTINUOUS
10
2.57627
20
-2.25923
11
2.57612
21
-2.25777
0
LINE
8
BLACK
6
CONTINUOUS
10
2.57612
20
-2.25777
11
2.57612
21
-2.20383
0
LINE
8
BLACK
6
CONTINUOUS
10
2.57612
20
-2.20383
11
2.57627
21
-2.20237
0
LINE
8
BLACK
6
CONTINUOUS
10
2.57627
20
-2.20237
11
2.57669
21
-2.20097
0
LINE
8
BLACK
6
CONTINUOUS
10
2.57669
20
-2.20097
11
2.57738
21
-2.19968
0
LINE
8
BLACK
6
CONTINUOUS
10
2.57738
20
-2.19968
11
2.57831
21
-2.19854
0
LINE
8
BLACK
6
CONTINUOUS
10
2.57831
20
-2.19854
11
2.57945
21
-2.19761
0
LINE
8
BLACK
6
CONTINUOUS
10
2.57945
20
-2.19761
11
2.58074
21
-2.19692
0
LINE
8
BLACK
6
CONTINUOUS
10
2.58074
20
-2.19692
11
2.58214
21
-2.19649
0
LINE
8
BLACK
6
CONTINUOUS
10
2.58214
20
-2.19649
11
2.5836
21
-2.19635
0
LINE
8
BLACK
6
CONTINUOUS
10
2.5836
20
-2.19635
11
2.60604
21
-2.19635
0
LINE
8
BLACK
6
CONTINUOUS
10
2.60604
20
-2.19635
11
2.6075
21
-2.19649
0
LINE
8
BLACK
6
CONTINUOUS
10
2.68535
20
-2.25195
11
2.64991
21
-2.25195
0
LINE
8
BLACK
6
CONTINUOUS
10
2.64991
20
-2.25195
11
2.64991
21
-2.22045
0
LINE
8
BLACK
6
CONTINUOUS
10
2.64991
20
-2.22045
11
2.68535
21
-2.22045
0
LINE
8
BLACK
6
CONTINUOUS
10
2.68535
20
-2.22045
11
2.68535
21
-2.25195
0
LINE
8
BLACK
6
CONTINUOUS
10
2.76409
20
-2.21455
11
2.72865
21
-2.21455
0
LINE
8
BLACK
6
CONTINUOUS
10
2.72865
20
-2.21455
11
2.72865
21
-2.18305
0
LINE
8
BLACK
6
CONTINUOUS
10
2.72865
20
-2.18305
11
2.76409
21
-2.18305
0
LINE
8
BLACK
6
CONTINUOUS
10
2.76409
20
-2.18305
11
2.76409
21
-2.21455
0
LINE
8
BLACK
6
CONTINUOUS
10
2.79084
20
-2.15572
11
2.77116
21
-2.15572
0
LINE
8
BLACK
6
CONTINUOUS
10
2.77116
20
-2.15572
11
2.77116
21
-2.12028
0
LINE
8
BLACK
6
CONTINUOUS
10
2.77116
20
-2.12028
11
2.79084
21
-2.12028
0
LINE
8
BLACK
6
CONTINUOUS
10
2.79084
20
-2.12028
11
2.79084
21
-2.15572
0
LINE
8
BLACK
6
CONTINUOUS
10
2.73179
20
-2.15572
11
2.7121
21
-2.15572
0
LINE
8
BLACK
6
CONTINUOUS
10
2.7121
20
-2.15572
11
2.7121
21
-2.12028
0
LINE
8
BLACK
6
CONTINUOUS
10
2.7121
20
-2.12028
11
2.73179
21
-2.12028
0
LINE
8
BLACK
6
CONTINUOUS
10
2.73179
20
-2.12028
11
2.73179
21
-2.15572
0
LINE
8
BLACK
6
CONTINUOUS
10
2.14552
20
-2.10817
11
2.11008
21
-2.10817
0
LINE
8
BLACK
6
CONTINUOUS
10
2.11008
20
-2.10817
11
2.11008
21
-2.08849
0
LINE
8
BLACK
6
CONTINUOUS
10
2.11008
20
-2.08849
11
2.14552
21
-2.08849
0
LINE
8
BLACK
6
CONTINUOUS
10
2.14552
20
-2.08849
11
2.14552
21
-2.10817
0
LINE
8
BLACK
6
CONTINUOUS
10
2.48852
20
-2.10817
11
2.45308
21
-2.10817
0
LINE
8
BLACK
6
CONTINUOUS
10
2.45308
20
-2.10817
11
2.45308
21
-2.08849
0
LINE
8
BLACK
6
CONTINUOUS
10
2.45308
20
-2.08849
11
2.48852
21
-2.08849
0
LINE
8
BLACK
6
CONTINUOUS
10
2.48852
20
-2.08849
11
2.48852
21
-2.10817
0
LINE
8
BLACK
6
CONTINUOUS
10
2.78972
20
-2.09837
11
2.75428
21
-2.09837
0
LINE
8
BLACK
6
CONTINUOUS
10
2.75428
20
-2.09837
11
2.75428
21
-2.07869
0
LINE
8
BLACK
6
CONTINUOUS
10
2.75428
20
-2.07869
11
2.78972
21
-2.07869
0
LINE
8
BLACK
6
CONTINUOUS
10
2.78972
20
-2.07869
11
2.78972
21
-2.09837
0
LINE
8
BLACK
6
CONTINUOUS
10
2.42143
20
-2.07859
11
2.42143
21
-2.08052
0
LINE
8
BLACK
6
CONTINUOUS
10
2.42143
20
-2.08052
11
2.42068
21
-2.0843
0
LINE
8
BLACK
6
CONTINUOUS
10
2.42068
20
-2.0843
11
2.4192
21
-2.08787
0
LINE
8
BLACK
6
CONTINUOUS
10
2.4192
20
-2.08787
11
2.41706
21
-2.09108
0
LINE
8
BLACK
6
CONTINUOUS
10
2.41706
20
-2.09108
11
2.41433
21
-2.09381
0
LINE
8
BLACK
6
CONTINUOUS
10
2.41433
20
-2.09381
11
2.41112
21
-2.09595
0
LINE
8
BLACK
6
CONTINUOUS
10
2.41112
20
-2.09595
11
2.40756
21
-2.09743
0
LINE
8
BLACK
6
CONTINUOUS
10
2.40756
20
-2.09743
11
2.40377
21
-2.09818
0
LINE
8
BLACK
6
CONTINUOUS
10
2.40377
20
-2.09818
11
2.40184
21
-2.09818
0
LINE
8
BLACK
6
CONTINUOUS
10
2.40184
20
-2.09818
11
2.40184
21
-2.09828
0
LINE
8
BLACK
6
CONTINUOUS
10
2.40184
20
-2.09828
11
2.38216
21
-2.09828
0
LINE
8
BLACK
6
CONTINUOUS
10
2.38216
20
-2.09828
11
2.38216
21
-2.09818
0
LINE
8
BLACK
6
CONTINUOUS
10
2.38216
20
-2.09818
11
2.38023
21
-2.09818
0
LINE
8
BLACK
6
CONTINUOUS
10
2.38023
20
-2.09818
11
2.37644
21
-2.09743
0
LINE
8
BLACK
6
CONTINUOUS
10
2.37644
20
-2.09743
11
2.37288
21
-2.09595
0
LINE
8
BLACK
6
CONTINUOUS
10
2.37288
20
-2.09595
11
2.36967
21
-2.09381
0
LINE
8
BLACK
6
CONTINUOUS
10
2.36967
20
-2.09381
11
2.36694
21
-2.09108
0
LINE
8
BLACK
6
CONTINUOUS
10
2.36694
20
-2.09108
11
2.3648
21
-2.08787
0
LINE
8
BLACK
6
CONTINUOUS
10
2.3648
20
-2.08787
11
2.36332
21
-2.0843
0
LINE
8
BLACK
6
CONTINUOUS
10
2.36332
20
-2.0843
11
2.36257
21
-2.08052
0
LINE
8
BLACK
6
CONTINUOUS
10
2.36257
20
-2.08052
11
2.36257
21
-2.07859
0
LINE
8
BLACK
6
CONTINUOUS
10
2.36257
20
-2.07859
11
2.36247
21
-2.07859
0
LINE
8
BLACK
6
CONTINUOUS
10
2.36247
20
-2.07859
11
2.36247
21
-2.02741
0
LINE
8
BLACK
6
CONTINUOUS
10
2.36247
20
-2.02741
11
2.36257
21
-2.02741
0
LINE
8
BLACK
6
CONTINUOUS
10
2.36257
20
-2.02741
11
2.36257
21
-2.02548
0
LINE
8
BLACK
6
CONTINUOUS
10
2.36257
20
-2.02548
11
2.36332
21
-2.0217
0
LINE
8
BLACK
6
CONTINUOUS
10
2.36332
20
-2.0217
11
2.3648
21
-2.01813
0
LINE
8
BLACK
6
CONTINUOUS
10
2.3648
20
-2.01813
11
2.36694
21
-2.01492
0
LINE
8
BLACK
6
CONTINUOUS
10
2.36694
20
-2.01492
11
2.36967
21
-2.01219
0
LINE
8
BLACK
6
CONTINUOUS
10
2.36967
20
-2.01219
11
2.37288
21
-2.01005
0
LINE
8
BLACK
6
CONTINUOUS
10
2.37288
20
-2.01005
11
2.37644
21
-2.00857
0
LINE
8
BLACK
6
CONTINUOUS
10
2.37644
20
-2.00857
11
2.38023
21
-2.00782
0
LINE
8
BLACK
6
CONTINUOUS
10
2.38023
20
-2.00782
11
2.38216
21
-2.00782
0
LINE
8
BLACK
6
CONTINUOUS
10
2.38216
20
-2.00782
11
2.38216
21
-2.00772
0
LINE
8
BLACK
6
CONTINUOUS
10
2.38216
20
-2.00772
11
2.40184
21
-2.00772
0
LINE
8
BLACK
6
CONTINUOUS
10
2.40184
20
-2.00772
11
2.40184
21
-2.00782
0
LINE
8
BLACK
6
CONTINUOUS
10
2.40184
20
-2.00782
11
2.40377
21
-2.00782
0
LINE
8
BLACK
6
CONTINUOUS
10
2.40377
20
-2.00782
11
2.40756
21
-2.00857
0
LINE
8
BLACK
6
CONTINUOUS
10
2.40756
20
-2.00857
11
2.41112
21
-2.01005
0
LINE
8
BLACK
6
CONTINUOUS
10
2.41112
20
-2.01005
11
2.41433
21
-2.01219
0
LINE
8
BLACK
6
CONTINUOUS
10
2.41433
20
-2.01219
11
2.41706
21
-2.01492
0
LINE
8
BLACK
6
CONTINUOUS
10
2.41706
20
-2.01492
11
2.4192
21
-2.01813
0
LINE
8
BLACK
6
CONTINUOUS
10
2.4192
20
-2.01813
11
2.42068
21
-2.0217
0
LINE
8
BLACK
6
CONTINUOUS
10
2.42068
20
-2.0217
11
2.42143
21
-2.02548
0
LINE
8
BLACK
6
CONTINUOUS
10
2.42143
20
-2.02548
11
2.42143
21
-2.02741
0
LINE
8
BLACK
6
CONTINUOUS
10
2.42143
20
-2.02741
11
2.42153
21
-2.02741
0
LINE
8
BLACK
6
CONTINUOUS
10
2.42153
20
-2.02741
11
2.42153
21
-2.07859
0
LINE
8
BLACK
6
CONTINUOUS
10
2.42153
20
-2.07859
11
2.42143
21
-2.07859
0
LINE
8
BLACK
6
CONTINUOUS
10
2.48852
20
-2.04911
11
2.45308
21
-2.04911
0
LINE
8
BLACK
6
CONTINUOUS
10
2.45308
20
-2.04911
11
2.45308
21
-2.02943
0
LINE
8
BLACK
6
CONTINUOUS
10
2.45308
20
-2.02943
11
2.48852
21
-2.02943
0
LINE
8
BLACK
6
CONTINUOUS
10
2.48852
20
-2.02943
11
2.48852
21
-2.04911
0
LINE
8
BLACK
6
CONTINUOUS
10
2.14552
20
-2.04911
11
2.11008
21
-2.04911
0
LINE
8
BLACK
6
CONTINUOUS
10
2.11008
20
-2.04911
11
2.11008
21
-2.02943
0
LINE
8
BLACK
6
CONTINUOUS
10
2.11008
20
-2.02943
11
2.14552
21
-2.02943
0
LINE
8
BLACK
6
CONTINUOUS
10
2.14552
20
-2.02943
11
2.14552
21
-2.04911
0
LINE
8
BLACK
6
CONTINUOUS
10
2.78972
20
-2.03931
11
2.75428
21
-2.03931
0
LINE
8
BLACK
6
CONTINUOUS
10
2.75428
20
-2.03931
11
2.75428
21
-2.01963
0
LINE
8
BLACK
6
CONTINUOUS
10
2.75428
20
-2.01963
11
2.78972
21
-2.01963
0
LINE
8
BLACK
6
CONTINUOUS
10
2.78972
20
-2.01963
11
2.78972
21
-2.03931
0
LINE
8
BLACK
6
CONTINUOUS
10
2.76429
20
-1.87655
11
2.72885
21
-1.87655
0
LINE
8
BLACK
6
CONTINUOUS
10
2.72885
20
-1.87655
11
2.72885
21
-1.84505
0
LINE
8
BLACK
6
CONTINUOUS
10
2.72885
20
-1.84505
11
2.76429
21
-1.84505
0
LINE
8
BLACK
6
CONTINUOUS
10
2.76429
20
-1.84505
11
2.76429
21
-1.87655
0
LINE
8
BLACK
6
CONTINUOUS
10
2.41969
20
-1.87495
11
2.38425
21
-1.87495
0
LINE
8
BLACK
6
CONTINUOUS
10
2.38425
20
-1.87495
11
2.38425
21
-1.84345
0
LINE
8
BLACK
6
CONTINUOUS
10
2.38425
20
-1.84345
11
2.41969
21
-1.84345
0
LINE
8
BLACK
6
CONTINUOUS
10
2.41969
20
-1.84345
11
2.41969
21
-1.87495
0
LINE
8
BLACK
6
CONTINUOUS
10
2.2635
20
-1.78249
11
2.26491
21
-1.78292
0
LINE
8
BLACK
6
CONTINUOUS
10
2.26491
20
-1.78292
11
2.2662
21
-1.78361
0
LINE
8
BLACK
6
CONTINUOUS
10
2.2662
20
-1.78361
11
2.26733
21
-1.78454
0
LINE
8
BLACK
6
CONTINUOUS
10
2.26733
20
-1.78454
11
2.26826
21
-1.78568
0
LINE
8
BLACK
6
CONTINUOUS
10
2.26826
20
-1.78568
11
2.26896
21
-1.78697
0
LINE
8
BLACK
6
CONTINUOUS
10
2.26896
20
-1.78697
11
2.26938
21
-1.78837
0
LINE
8
BLACK
6
CONTINUOUS
10
2.26938
20
-1.78837
11
2.26952
21
-1.78983
0
LINE
8
BLACK
6
CONTINUOUS
10
2.26952
20
-1.78983
11
2.26952
21
-1.84377
0
LINE
8
BLACK
6
CONTINUOUS
10
2.26952
20
-1.84377
11
2.26938
21
-1.84523
0
LINE
8
BLACK
6
CONTINUOUS
10
2.26938
20
-1.84523
11
2.26896
21
-1.84663
0
LINE
8
BLACK
6
CONTINUOUS
10
2.26896
20
-1.84663
11
2.26826
21
-1.84792
0
LINE
8
BLACK
6
CONTINUOUS
10
2.26826
20
-1.84792
11
2.26733
21
-1.84906
0
LINE
8
BLACK
6
CONTINUOUS
10
2.26733
20
-1.84906
11
2.2662
21
-1.84999
0
LINE
8
BLACK
6
CONTINUOUS
10
2.2662
20
-1.84999
11
2.26491
21
-1.85068
0
LINE
8
BLACK
6
CONTINUOUS
10
2.26491
20
-1.85068
11
2.2635
21
-1.85111
0
LINE
8
BLACK
6
CONTINUOUS
10
2.2635
20
-1.85111
11
2.26204
21
-1.85125
0
LINE
8
BLACK
6
CONTINUOUS
10
2.26204
20
-1.85125
11
2.2396
21
-1.85125
0
LINE
8
BLACK
6
CONTINUOUS
10
2.2396
20
-1.85125
11
2.23814
21
-1.85111
0
LINE
8
BLACK
6
CONTINUOUS
10
2.23814
20
-1.85111
11
2.23674
21
-1.85068
0
LINE
8
BLACK
6
CONTINUOUS
10
2.23674
20
-1.85068
11
2.23545
21
-1.84999
0
LINE
8
BLACK
6
CONTINUOUS
10
2.23545
20
-1.84999
11
2.23431
21
-1.84906
0
LINE
8
BLACK
6
CONTINUOUS
10
2.23431
20
-1.84906
11
2.23338
21
-1.84792
0
LINE
8
BLACK
6
CONTINUOUS
10
2.23338
20
-1.84792
11
2.23269
21
-1.84663
0
LINE
8
BLACK
6
CONTINUOUS
10
2.23269
20
-1.84663
11
2.23227
21
-1.84523
0
LINE
8
BLACK
6
CONTINUOUS
10
2.23227
20
-1.84523
11
2.23212
21
-1.84377
0
LINE
8
BLACK
6
CONTINUOUS
10
2.23212
20
-1.84377
11
2.23212
21
-1.78983
0
LINE
8
BLACK
6
CONTINUOUS
10
2.23212
20
-1.78983
11
2.23227
21
-1.78837
0
LINE
8
BLACK
6
CONTINUOUS
10
2.23227
20
-1.78837
11
2.23269
21
-1.78697
0
LINE
8
BLACK
6
CONTINUOUS
10
2.23269
20
-1.78697
11
2.23338
21
-1.78568
0
LINE
8
BLACK
6
CONTINUOUS
10
2.23338
20
-1.78568
11
2.23431
21
-1.78454
0
LINE
8
BLACK
6
CONTINUOUS
10
2.23431
20
-1.78454
11
2.23545
21
-1.78361
0
LINE
8
BLACK
6
CONTINUOUS
10
2.23545
20
-1.78361
11
2.23674
21
-1.78292
0
LINE
8
BLACK
6
CONTINUOUS
10
2.23674
20
-1.78292
11
2.23814
21
-1.78249
0
LINE
8
BLACK
6
CONTINUOUS
10
2.23814
20
-1.78249
11
2.2396
21
-1.78235
0
LINE
8
BLACK
6
CONTINUOUS
10
2.2396
20
-1.78235
11
2.26204
21
-1.78235
0
LINE
8
BLACK
6
CONTINUOUS
10
2.26204
20
-1.78235
11
2.2635
21
-1.78249
0
LINE
8
BLACK
6
CONTINUOUS
10
2.14146
20
-1.78249
11
2.14286
21
-1.78292
0
LINE
8
BLACK
6
CONTINUOUS
10
2.14286
20
-1.78292
11
2.14415
21
-1.78361
0
LINE
8
BLACK
6
CONTINUOUS
10
2.14415
20
-1.78361
11
2.14529
21
-1.78454
0
LINE
8
BLACK
6
CONTINUOUS
10
2.14529
20
-1.78454
11
2.14622
21
-1.78568
0
LINE
8
BLACK
6
CONTINUOUS
10
2.14622
20
-1.78568
11
2.14691
21
-1.78697
0
LINE
8
BLACK
6
CONTINUOUS
10
2.14691
20
-1.78697
11
2.14733
21
-1.78837
0
LINE
8
BLACK
6
CONTINUOUS
10
2.14733
20
-1.78837
11
2.14748
21
-1.78983
0
LINE
8
BLACK
6
CONTINUOUS
10
2.14748
20
-1.78983
11
2.14748
21
-1.84377
0
LINE
8
BLACK
6
CONTINUOUS
10
2.14748
20
-1.84377
11
2.14733
21
-1.84523
0
LINE
8
BLACK
6
CONTINUOUS
10
2.14733
20
-1.84523
11
2.14691
21
-1.84663
0
LINE
8
BLACK
6
CONTINUOUS
10
2.14691
20
-1.84663
11
2.14622
21
-1.84792
0
LINE
8
BLACK
6
CONTINUOUS
10
2.14622
20
-1.84792
11
2.14529
21
-1.84906
0
LINE
8
BLACK
6
CONTINUOUS
10
2.14529
20
-1.84906
11
2.14415
21
-1.84999
0
LINE
8
BLACK
6
CONTINUOUS
10
2.14415
20
-1.84999
11
2.14286
21
-1.85068
0
LINE
8
BLACK
6
CONTINUOUS
10
2.14286
20
-1.85068
11
2.14146
21
-1.85111
0
LINE
8
BLACK
6
CONTINUOUS
10
2.14146
20
-1.85111
11
2.14
21
-1.85125
0
LINE
8
BLACK
6
CONTINUOUS
10
2.14
20
-1.85125
11
2.11756
21
-1.85125
0
LINE
8
BLACK
6
CONTINUOUS
10
2.11756
20
-1.85125
11
2.1161
21
-1.85111
0
LINE
8
BLACK
6
CONTINUOUS
10
2.1161
20
-1.85111
11
2.11469
21
-1.85068
0
LINE
8
BLACK
6
CONTINUOUS
10
2.11469
20
-1.85068
11
2.1134
21
-1.84999
0
LINE
8
BLACK
6
CONTINUOUS
10
2.1134
20
-1.84999
11
2.11227
21
-1.84906
0
LINE
8
BLACK
6
CONTINUOUS
10
2.11227
20
-1.84906
11
2.11134
21
-1.84792
0
LINE
8
BLACK
6
CONTINUOUS
10
2.11134
20
-1.84792
11
2.11064
21
-1.84663
0
LINE
8
BLACK
6
CONTINUOUS
10
2.11064
20
-1.84663
11
2.11022
21
-1.84523
0
LINE
8
BLACK
6
CONTINUOUS
10
2.11022
20
-1.84523
11
2.11008
21
-1.84377
0
LINE
8
BLACK
6
CONTINUOUS
10
2.11008
20
-1.84377
11
2.11008
21
-1.78983
0
LINE
8
BLACK
6
CONTINUOUS
10
2.11008
20
-1.78983
11
2.11022
21
-1.78837
0
LINE
8
BLACK
6
CONTINUOUS
10
2.11022
20
-1.78837
11
2.11064
21
-1.78697
0
LINE
8
BLACK
6
CONTINUOUS
10
2.11064
20
-1.78697
11
2.11134
21
-1.78568
0
LINE
8
BLACK
6
CONTINUOUS
10
2.11134
20
-1.78568
11
2.11227
21
-1.78454
0
LINE
8
BLACK
6
CONTINUOUS
10
2.11227
20
-1.78454
11
2.1134
21
-1.78361
0
LINE
8
BLACK
6
CONTINUOUS
10
2.1134
20
-1.78361
11
2.11469
21
-1.78292
0
LINE
8
BLACK
6
CONTINUOUS
10
2.11469
20
-1.78292
11
2.1161
21
-1.78249
0
LINE
8
BLACK
6
CONTINUOUS
10
2.1161
20
-1.78249
11
2.11756
21
-1.78235
0
LINE
8
BLACK
6
CONTINUOUS
10
2.11756
20
-1.78235
11
2.14
21
-1.78235
0
LINE
8
BLACK
6
CONTINUOUS
10
2.14
20
-1.78235
11
2.14146
21
-1.78249
0
LINE
8
BLACK
6
CONTINUOUS
10
2.6065
20
-1.78249
11
2.60791
21
-1.78292
0
LINE
8
BLACK
6
CONTINUOUS
10
2.60791
20
-1.78292
11
2.6092
21
-1.78361
0
LINE
8
BLACK
6
CONTINUOUS
10
2.6092
20
-1.78361
11
2.61033
21
-1.78454
0
LINE
8
BLACK
6
CONTINUOUS
10
2.61033
20
-1.78454
11
2.61126
21
-1.78568
0
LINE
8
BLACK
6
CONTINUOUS
10
2.61126
20
-1.78568
11
2.61196
21
-1.78697
0
LINE
8
BLACK
6
CONTINUOUS
10
2.61196
20
-1.78697
11
2.61238
21
-1.78837
0
LINE
8
BLACK
6
CONTINUOUS
10
2.61238
20
-1.78837
11
2.61252
21
-1.78983
0
LINE
8
BLACK
6
CONTINUOUS
10
2.61252
20
-1.78983
11
2.61252
21
-1.84377
0
LINE
8
BLACK
6
CONTINUOUS
10
2.61252
20
-1.84377
11
2.61238
21
-1.84523
0
LINE
8
BLACK
6
CONTINUOUS
10
2.61238
20
-1.84523
11
2.61196
21
-1.84663
0
LINE
8
BLACK
6
CONTINUOUS
10
2.61196
20
-1.84663
11
2.61126
21
-1.84792
0
LINE
8
BLACK
6
CONTINUOUS
10
2.61126
20
-1.84792
11
2.61033
21
-1.84906
0
LINE
8
BLACK
6
CONTINUOUS
10
2.61033
20
-1.84906
11
2.6092
21
-1.84999
0
LINE
8
BLACK
6
CONTINUOUS
10
2.6092
20
-1.84999
11
2.60791
21
-1.85068
0
LINE
8
BLACK
6
CONTINUOUS
10
2.60791
20
-1.85068
11
2.6065
21
-1.85111
0
LINE
8
BLACK
6
CONTINUOUS
10
2.6065
20
-1.85111
11
2.60504
21
-1.85125
0
LINE
8
BLACK
6
CONTINUOUS
10
2.60504
20
-1.85125
11
2.5826
21
-1.85125
0
LINE
8
BLACK
6
CONTINUOUS
10
2.5826
20
-1.85125
11
2.58114
21
-1.85111
0
LINE
8
BLACK
6
CONTINUOUS
10
2.58114
20
-1.85111
11
2.57974
21
-1.85068
0
LINE
8
BLACK
6
CONTINUOUS
10
2.57974
20
-1.85068
11
2.57845
21
-1.84999
0
LINE
8
BLACK
6
CONTINUOUS
10
2.57845
20
-1.84999
11
2.57731
21
-1.84906
0
LINE
8
BLACK
6
CONTINUOUS
10
2.57731
20
-1.84906
11
2.57638
21
-1.84792
0
LINE
8
BLACK
6
CONTINUOUS
10
2.57638
20
-1.84792
11
2.57569
21
-1.84663
0
LINE
8
BLACK
6
CONTINUOUS
10
2.57569
20
-1.84663
11
2.57527
21
-1.84523
0
LINE
8
BLACK
6
CONTINUOUS
10
2.57527
20
-1.84523
11
2.57512
21
-1.84377
0
LINE
8
BLACK
6
CONTINUOUS
10
2.57512
20
-1.84377
11
2.57512
21
-1.78983
0
LINE
8
BLACK
6
CONTINUOUS
10
2.57512
20
-1.78983
11
2.57527
21
-1.78837
0
LINE
8
BLACK
6
CONTINUOUS
10
2.57527
20
-1.78837
11
2.57569
21
-1.78697
0
LINE
8
BLACK
6
CONTINUOUS
10
2.57569
20
-1.78697
11
2.57638
21
-1.78568
0
LINE
8
BLACK
6
CONTINUOUS
10
2.57638
20
-1.78568
11
2.57731
21
-1.78454
0
LINE
8
BLACK
6
CONTINUOUS
10
2.57731
20
-1.78454
11
2.57845
21
-1.78361
0
LINE
8
BLACK
6
CONTINUOUS
10
2.57845
20
-1.78361
11
2.57974
21
-1.78292
0
LINE
8
BLACK
6
CONTINUOUS
10
2.57974
20
-1.78292
11
2.58114
21
-1.78249
0
LINE
8
BLACK
6
CONTINUOUS
10
2.58114
20
-1.78249
11
2.5826
21
-1.78235
0
LINE
8
BLACK
6
CONTINUOUS
10
2.5826
20
-1.78235
11
2.60504
21
-1.78235
0
LINE
8
BLACK
6
CONTINUOUS
10
2.60504
20
-1.78235
11
2.6065
21
-1.78249
0
LINE
8
BLACK
6
CONTINUOUS
10
2.48446
20
-1.78249
11
2.48586
21
-1.78292
0
LINE
8
BLACK
6
CONTINUOUS
10
2.48586
20
-1.78292
11
2.48715
21
-1.78361
0
LINE
8
BLACK
6
CONTINUOUS
10
2.48715
20
-1.78361
11
2.48829
21
-1.78454
0
LINE
8
BLACK
6
CONTINUOUS
10
2.48829
20
-1.78454
11
2.48922
21
-1.78568
0
LINE
8
BLACK
6
CONTINUOUS
10
2.48922
20
-1.78568
11
2.48991
21
-1.78697
0
LINE
8
BLACK
6
CONTINUOUS
10
2.48991
20
-1.78697
11
2.49033
21
-1.78837
0
LINE
8
BLACK
6
CONTINUOUS
10
2.49033
20
-1.78837
11
2.49048
21
-1.78983
0
LINE
8
BLACK
6
CONTINUOUS
10
2.49048
20
-1.78983
11
2.49048
21
-1.84377
0
LINE
8
BLACK
6
CONTINUOUS
10
2.49048
20
-1.84377
11
2.49033
21
-1.84523
0
LINE
8
BLACK
6
CONTINUOUS
10
2.49033
20
-1.84523
11
2.48991
21
-1.84663
0
LINE
8
BLACK
6
CONTINUOUS
10
2.48991
20
-1.84663
11
2.48922
21
-1.84792
0
LINE
8
BLACK
6
CONTINUOUS
10
2.48922
20
-1.84792
11
2.48829
21
-1.84906
0
LINE
8
BLACK
6
CONTINUOUS
10
2.48829
20
-1.84906
11
2.48715
21
-1.84999
0
LINE
8
BLACK
6
CONTINUOUS
10
2.48715
20
-1.84999
11
2.48586
21
-1.85068
0
LINE
8
BLACK
6
CONTINUOUS
10
2.48586
20
-1.85068
11
2.48446
21
-1.85111
0
LINE
8
BLACK
6
CONTINUOUS
10
2.48446
20
-1.85111
11
2.483
21
-1.85125
0
LINE
8
BLACK
6
CONTINUOUS
10
2.483
20
-1.85125
11
2.46056
21
-1.85125
0
LINE
8
BLACK
6
CONTINUOUS
10
2.46056
20
-1.85125
11
2.4591
21
-1.85111
0
LINE
8
BLACK
6
CONTINUOUS
10
2.4591
20
-1.85111
11
2.45769
21
-1.85068
0
LINE
8
BLACK
6
CONTINUOUS
10
2.45769
20
-1.85068
11
2.4564
21
-1.84999
0
LINE
8
BLACK
6
CONTINUOUS
10
2.4564
20
-1.84999
11
2.45527
21
-1.84906
0
LINE
8
BLACK
6
CONTINUOUS
10
2.45527
20
-1.84906
11
2.45434
21
-1.84792
0
LINE
8
BLACK
6
CONTINUOUS
10
2.45434
20
-1.84792
11
2.45364
21
-1.84663
0
LINE
8
BLACK
6
CONTINUOUS
10
2.45364
20
-1.84663
11
2.45322
21
-1.84523
0
LINE
8
BLACK
6
CONTINUOUS
10
2.45322
20
-1.84523
11
2.45308
21
-1.84377
0
LINE
8
BLACK
6
CONTINUOUS
10
2.45308
20
-1.84377
11
2.45308
21
-1.78983
0
LINE
8
BLACK
6
CONTINUOUS
10
2.45308
20
-1.78983
11
2.45322
21
-1.78837
0
LINE
8
BLACK
6
CONTINUOUS
10
2.45322
20
-1.78837
11
2.45364
21
-1.78697
0
LINE
8
BLACK
6
CONTINUOUS
10
2.45364
20
-1.78697
11
2.45434
21
-1.78568
0
LINE
8
BLACK
6
CONTINUOUS
10
2.45434
20
-1.78568
11
2.45527
21
-1.78454
0
LINE
8
BLACK
6
CONTINUOUS
10
2.45527
20
-1.78454
11
2.4564
21
-1.78361
0
LINE
8
BLACK
6
CONTINUOUS
10
2.4564
20
-1.78361
11
2.45769
21
-1.78292
0
LINE
8
BLACK
6
CONTINUOUS
10
2.45769
20
-1.78292
11
2.4591
21
-1.78249
0
LINE
8
BLACK
6
CONTINUOUS
10
2.4591
20
-1.78249
11
2.46056
21
-1.78235
0
LINE
8
BLACK
6
CONTINUOUS
10
2.46056
20
-1.78235
11
2.483
21
-1.78235
0
LINE
8
BLACK
6
CONTINUOUS
10
2.483
20
-1.78235
11
2.48446
21
-1.78249
0
LINE
8
BLACK
6
CONTINUOUS
10
2.68555
20
-1.83915
11
2.65011
21
-1.83915
0
LINE
8
BLACK
6
CONTINUOUS
10
2.65011
20
-1.83915
11
2.65011
21
-1.80765
0
LINE
8
BLACK
6
CONTINUOUS
10
2.65011
20
-1.80765
11
2.68555
21
-1.80765
0
LINE
8
BLACK
6
CONTINUOUS
10
2.68555
20
-1.80765
11
2.68555
21
-1.83915
0
LINE
8
BLACK
6
CONTINUOUS
10
2.34095
20
-1.83755
11
2.30551
21
-1.83755
0
LINE
8
BLACK
6
CONTINUOUS
10
2.30551
20
-1.83755
11
2.30551
21
-1.80605
0
LINE
8
BLACK
6
CONTINUOUS
10
2.30551
20
-1.80605
11
2.34095
21
-1.80605
0
LINE
8
BLACK
6
CONTINUOUS
10
2.34095
20
-1.80605
11
2.34095
21
-1.83755
0
LINE
8
BLACK
6
CONTINUOUS
10
2.76429
20
-1.80175
11
2.72885
21
-1.80175
0
LINE
8
BLACK
6
CONTINUOUS
10
2.72885
20
-1.80175
11
2.72885
21
-1.77025
0
LINE
8
BLACK
6
CONTINUOUS
10
2.72885
20
-1.77025
11
2.76429
21
-1.77025
0
LINE
8
BLACK
6
CONTINUOUS
10
2.76429
20
-1.77025
11
2.76429
21
-1.80175
0
LINE
8
BLACK
6
CONTINUOUS
10
2.41969
20
-1.80015
11
2.38425
21
-1.80015
0
LINE
8
BLACK
6
CONTINUOUS
10
2.38425
20
-1.80015
11
2.38425
21
-1.76865
0
LINE
8
BLACK
6
CONTINUOUS
10
2.38425
20
-1.76865
11
2.41969
21
-1.76865
0
LINE
8
BLACK
6
CONTINUOUS
10
2.41969
20
-1.76865
11
2.41969
21
-1.80015
0
LINE
8
BLACK
6
CONTINUOUS
10
2.79037
20
-1.74272
11
2.77069
21
-1.74272
0
LINE
8
BLACK
6
CONTINUOUS
10
2.77069
20
-1.74272
11
2.77069
21
-1.70728
0
LINE
8
BLACK
6
CONTINUOUS
10
2.77069
20
-1.70728
11
2.79037
21
-1.70728
0
LINE
8
BLACK
6
CONTINUOUS
10
2.79037
20
-1.70728
11
2.79037
21
-1.74272
0
LINE
8
BLACK
6
CONTINUOUS
10
2.73131
20
-1.74272
11
2.71163
21
-1.74272
0
LINE
8
BLACK
6
CONTINUOUS
10
2.71163
20
-1.74272
11
2.71163
21
-1.70728
0
LINE
8
BLACK
6
CONTINUOUS
10
2.71163
20
-1.70728
11
2.73131
21
-1.70728
0
LINE
8
BLACK
6
CONTINUOUS
10
2.73131
20
-1.70728
11
2.73131
21
-1.74272
0
LINE
8
BLACK
6
CONTINUOUS
10
2.38684
20
-1.74172
11
2.36716
21
-1.74172
0
LINE
8
BLACK
6
CONTINUOUS
10
2.36716
20
-1.74172
11
2.36716
21
-1.70628
0
LINE
8
BLACK
6
CONTINUOUS
10
2.36716
20
-1.70628
11
2.38684
21
-1.70628
0
LINE
8
BLACK
6
CONTINUOUS
10
2.38684
20
-1.70628
11
2.38684
21
-1.74172
0
LINE
8
BLACK
6
CONTINUOUS
10
2.4459
20
-1.74172
11
2.42621
21
-1.74172
0
LINE
8
BLACK
6
CONTINUOUS
10
2.42621
20
-1.74172
11
2.42621
21
-1.70628
0
LINE
8
BLACK
6
CONTINUOUS
10
2.42621
20
-1.70628
11
2.4459
21
-1.70628
0
LINE
8
BLACK
6
CONTINUOUS
10
2.4459
20
-1.70628
11
2.4459
21
-1.74172
0
LINE
8
BLACK
6
CONTINUOUS
10
2.50472
20
-1.69417
11
2.46928
21
-1.69417
0
LINE
8
BLACK
6
CONTINUOUS
10
2.46928
20
-1.69417
11
2.46928
21
-1.67449
0
LINE
8
BLACK
6
CONTINUOUS
10
2.46928
20
-1.67449
11
2.50472
21
-1.67449
0
LINE
8
BLACK
6
CONTINUOUS
10
2.50472
20
-1.67449
11
2.50472
21
-1.69417
0
LINE
8
BLACK
6
CONTINUOUS
10
2.14552
20
-1.69417
11
2.11008
21
-1.69417
0
LINE
8
BLACK
6
CONTINUOUS
10
2.11008
20
-1.69417
11
2.11008
21
-1.67449
0
LINE
8
BLACK
6
CONTINUOUS
10
2.11008
20
-1.67449
11
2.14552
21
-1.67449
0
LINE
8
BLACK
6
CONTINUOUS
10
2.14552
20
-1.67449
11
2.14552
21
-1.69417
0
LINE
8
BLACK
6
CONTINUOUS
10
2.73184
20
-1.68472
11
2.71216
21
-1.68472
0
LINE
8
BLACK
6
CONTINUOUS
10
2.71216
20
-1.68472
11
2.71216
21
-1.64928
0
LINE
8
BLACK
6
CONTINUOUS
10
2.71216
20
-1.64928
11
2.73184
21
-1.64928
0
LINE
8
BLACK
6
CONTINUOUS
10
2.73184
20
-1.64928
11
2.73184
21
-1.68472
0
LINE
8
BLACK
6
CONTINUOUS
10
2.7909
20
-1.68472
11
2.77121
21
-1.68472
0
LINE
8
BLACK
6
CONTINUOUS
10
2.77121
20
-1.68472
11
2.77121
21
-1.64928
0
LINE
8
BLACK
6
CONTINUOUS
10
2.77121
20
-1.64928
11
2.7909
21
-1.64928
0
LINE
8
BLACK
6
CONTINUOUS
10
2.7909
20
-1.64928
11
2.7909
21
-1.68472
0
LINE
8
BLACK
6
CONTINUOUS
10
2.38631
20
-1.68372
11
2.36663
21
-1.68372
0
LINE
8
BLACK
6
CONTINUOUS
10
2.36663
20
-1.68372
11
2.36663
21
-1.64828
0
LINE
8
BLACK
6
CONTINUOUS
10
2.36663
20
-1.64828
11
2.38631
21
-1.64828
0
LINE
8
BLACK
6
CONTINUOUS
10
2.38631
20
-1.64828
11
2.38631
21
-1.68372
0
LINE
8
BLACK
6
CONTINUOUS
10
2.44537
20
-1.68372
11
2.42569
21
-1.68372
0
LINE
8
BLACK
6
CONTINUOUS
10
2.42569
20
-1.68372
11
2.42569
21
-1.64828
0
LINE
8
BLACK
6
CONTINUOUS
10
2.42569
20
-1.64828
11
2.44537
21
-1.64828
0
LINE
8
BLACK
6
CONTINUOUS
10
2.44537
20
-1.64828
11
2.44537
21
-1.68372
0
LINE
8
BLACK
6
CONTINUOUS
10
2.50472
20
-1.63511
11
2.46928
21
-1.63511
0
LINE
8
BLACK
6
CONTINUOUS
10
2.46928
20
-1.63511
11
2.46928
21
-1.61543
0
LINE
8
BLACK
6
CONTINUOUS
10
2.46928
20
-1.61543
11
2.50472
21
-1.61543
0
LINE
8
BLACK
6
CONTINUOUS
10
2.50472
20
-1.61543
11
2.50472
21
-1.63511
0
LINE
8
BLACK
6
CONTINUOUS
10
2.14552
20
-1.63511
11
2.11008
21
-1.63511
0
LINE
8
BLACK
6
CONTINUOUS
10
2.11008
20
-1.63511
11
2.11008
21
-1.61543
0
LINE
8
BLACK
6
CONTINUOUS
10
2.11008
20
-1.61543
11
2.14552
21
-1.61543
0
LINE
8
BLACK
6
CONTINUOUS
10
2.14552
20
-1.61543
11
2.14552
21
-1.63511
  0
ENDSEC
  0
EOF
