  0
SECTION
  2
HEADER
  9
$ANGBASE
  50
0.0
  9
$ANGDIR
  70
1
  9
$MEASUREMENT
  70
0
  0
ENDSEC
  0
SECTION
  2
TABLES
  0
TABLE
  2
LTYPE
  70
4
  0
LTYPE
  5
40F
  2
CONTINUOUS
  70
0
  3
Solid line
  72
65
  73
0
  40
0.0
  0
LTYPE
  5
410
  2
DASHDOT
 70
0
  3
Dash Dot ____ _ ____ _
 72
65
 73
4
 40
2.0
 49
1.25
 49
-0.25
 49
0.25
 49
-0.25
  0
LTYPE
  5
411
  2
DASHED
 70
0
  3
Dashed __ __ __ __ __
 72
65
 73
2
 40
0.75
 49
0.5
 49
-0.25
  0
LTYPE
  5
43B
  2
DOTTED
 70
0
  3
Dotted .  .  .  .
 72
65
 73
2
 40
0.2
 49
0.0
 49
-0.2
  0
ENDTAB
  0
TABLE
  2
STYLE
  70
4
  0
STYLE
  2
KICAD
  70
0
  40
0
  41
1
  42
1
  50
0
  71
0
  3
isocp.shx
  0
STYLE
  2
KICADB
  70
0
  40
0
  41
1
  42
1
  50
0
  71
0
  3
isocp.shx
  0
STYLE
  2
KICADI
  70
0
  40
0
  41
1
  42
1
  50
15
  71
0
  3
isocp.shx
  0
STYLE
  2
KICADBI
  70
0
  40
0
  41
1
  42
1
  50
15
  71
0
  3
isocp.shx
  0
ENDTAB
  0
TABLE
  2
LAYER
  70
1
  0
LAYER
  2
BLACK
  70
0
  62
7
  6
CONTINUOUS
  0
ENDTAB
  0
ENDSEC
  0
SECTION
  2
ENTITIES
0
LINE
8
BLACK
6
CONTINUOUS
10
2.7601
20
-1.60202
11
2.7601
21
-1.60202
0
LINE
8
BLACK
6
CONTINUOUS
10
2.7601
20
-1.60202
11
2.76825
21
-1.60282
0
LINE
8
BLACK
6
CONTINUOUS
10
2.76825
20
-1.60282
11
2.76827
21
-1.60282
0
LINE
8
BLACK
6
CONTINUOUS
10
2.76827
20
-1.60282
11
2.76836
21
-1.60284
0
LINE
8
BLACK
6
CONTINUOUS
10
2.76836
20
-1.60284
11
2.76844
21
-1.60286
0
LINE
8
BLACK
6
CONTINUOUS
10
2.76844
20
-1.60286
11
2.77629
21
-1.60523
0
LINE
8
BLACK
6
CONTINUOUS
10
2.77629
20
-1.60523
11
2.7763
21
-1.60523
0
LINE
8
BLACK
6
CONTINUOUS
10
2.7763
20
-1.60523
11
2.77638
21
-1.60527
0
LINE
8
BLACK
6
CONTINUOUS
10
2.77638
20
-1.60527
11
2.77647
21
-1.6053
0
LINE
8
BLACK
6
CONTINUOUS
10
2.77647
20
-1.6053
11
2.7837
21
-1.60915
0
LINE
8
BLACK
6
CONTINUOUS
10
2.7837
20
-1.60915
11
2.78372
21
-1.60915
0
LINE
8
BLACK
6
CONTINUOUS
10
2.78372
20
-1.60915
11
2.78379
21
-1.6092
0
LINE
8
BLACK
6
CONTINUOUS
10
2.78379
20
-1.6092
11
2.78386
21
-1.60925
0
LINE
8
BLACK
6
CONTINUOUS
10
2.78386
20
-1.60925
11
2.79022
21
-1.61444
0
LINE
8
BLACK
6
CONTINUOUS
10
2.79022
20
-1.61444
11
2.79023
21
-1.61444
0
LINE
8
BLACK
6
CONTINUOUS
10
2.79023
20
-1.61444
11
2.79029
21
-1.61451
0
LINE
8
BLACK
6
CONTINUOUS
10
2.79029
20
-1.61451
11
2.79035
21
-1.61457
0
LINE
8
BLACK
6
CONTINUOUS
10
2.79035
20
-1.61457
11
2.79558
21
-1.62089
0
LINE
8
BLACK
6
CONTINUOUS
10
2.79558
20
-1.62089
11
2.79559
21
-1.6209
0
LINE
8
BLACK
6
CONTINUOUS
10
2.79559
20
-1.6209
11
2.79564
21
-1.62097
0
LINE
8
BLACK
6
CONTINUOUS
10
2.79564
20
-1.62097
11
2.79569
21
-1.62105
0
LINE
8
BLACK
6
CONTINUOUS
10
2.79569
20
-1.62105
11
2.79958
21
-1.62826
0
LINE
8
BLACK
6
CONTINUOUS
10
2.79958
20
-1.62826
11
2.79959
21
-1.62827
0
LINE
8
BLACK
6
CONTINUOUS
10
2.79959
20
-1.62827
11
2.79962
21
-1.62835
0
LINE
8
BLACK
6
CONTINUOUS
10
2.79962
20
-1.62835
11
2.79966
21
-1.62843
0
LINE
8
BLACK
6
CONTINUOUS
10
2.79966
20
-1.62843
11
2.80208
21
-1.63626
0
LINE
8
BLACK
6
CONTINUOUS
10
2.80208
20
-1.63626
11
2.80209
21
-1.63628
0
LINE
8
BLACK
6
CONTINUOUS
10
2.80209
20
-1.63628
11
2.8021
21
-1.63636
0
LINE
8
BLACK
6
CONTINUOUS
10
2.8021
20
-1.63636
11
2.80212
21
-1.63645
0
LINE
8
BLACK
6
CONTINUOUS
10
2.80212
20
-1.63645
11
2.80298
21
-1.6446
0
LINE
8
BLACK
6
CONTINUOUS
10
2.80298
20
-1.6446
11
2.80298
21
-1.64462
0
LINE
8
BLACK
6
CONTINUOUS
10
2.80298
20
-1.64462
11
2.80298
21
-1.64466
0
LINE
8
BLACK
6
CONTINUOUS
10
2.80298
20
-1.64466
11
2.80298
21
-1.6447
0
LINE
8
BLACK
6
CONTINUOUS
10
2.80298
20
-1.6447
11
2.80298
21
-1.64495
0
LINE
8
BLACK
6
CONTINUOUS
10
2.80298
20
-1.64495
11
2.80298
21
-1.64495
0
LINE
8
BLACK
6
CONTINUOUS
10
2.80298
20
-1.64495
11
2.80298
21
-2.65805
0
LINE
8
BLACK
6
CONTINUOUS
10
2.80298
20
-2.65805
11
2.80298
21
-2.6581
0
LINE
8
BLACK
6
CONTINUOUS
10
2.80298
20
-2.6581
11
2.80298
21
-2.6581
0
LINE
8
BLACK
6
CONTINUOUS
10
2.80298
20
-2.6581
11
2.80218
21
-2.66625
0
LINE
8
BLACK
6
CONTINUOUS
10
2.80218
20
-2.66625
11
2.80218
21
-2.66627
0
LINE
8
BLACK
6
CONTINUOUS
10
2.80218
20
-2.66627
11
2.80216
21
-2.66636
0
LINE
8
BLACK
6
CONTINUOUS
10
2.80216
20
-2.66636
11
2.80214
21
-2.66644
0
LINE
8
BLACK
6
CONTINUOUS
10
2.80214
20
-2.66644
11
2.79977
21
-2.67429
0
LINE
8
BLACK
6
CONTINUOUS
10
2.79977
20
-2.67429
11
2.79977
21
-2.6743
0
LINE
8
BLACK
6
CONTINUOUS
10
2.79977
20
-2.6743
11
2.79973
21
-2.67438
0
LINE
8
BLACK
6
CONTINUOUS
10
2.79973
20
-2.67438
11
2.7997
21
-2.67447
0
LINE
8
BLACK
6
CONTINUOUS
10
2.7997
20
-2.67447
11
2.79585
21
-2.6817
0
LINE
8
BLACK
6
CONTINUOUS
10
2.79585
20
-2.6817
11
2.79585
21
-2.68172
0
LINE
8
BLACK
6
CONTINUOUS
10
2.79585
20
-2.68172
11
2.7958
21
-2.68179
0
LINE
8
BLACK
6
CONTINUOUS
10
2.7958
20
-2.68179
11
2.79575
21
-2.68186
0
LINE
8
BLACK
6
CONTINUOUS
10
2.79575
20
-2.68186
11
2.79056
21
-2.68822
0
LINE
8
BLACK
6
CONTINUOUS
10
2.79056
20
-2.68822
11
2.79056
21
-2.68823
0
LINE
8
BLACK
6
CONTINUOUS
10
2.79056
20
-2.68823
11
2.79049
21
-2.68829
0
LINE
8
BLACK
6
CONTINUOUS
10
2.79049
20
-2.68829
11
2.79043
21
-2.68835
0
LINE
8
BLACK
6
CONTINUOUS
10
2.79043
20
-2.68835
11
2.78411
21
-2.69358
0
LINE
8
BLACK
6
CONTINUOUS
10
2.78411
20
-2.69358
11
2.7841
21
-2.69359
0
LINE
8
BLACK
6
CONTINUOUS
10
2.7841
20
-2.69359
11
2.78403
21
-2.69364
0
LINE
8
BLACK
6
CONTINUOUS
10
2.78403
20
-2.69364
11
2.78395
21
-2.69369
0
LINE
8
BLACK
6
CONTINUOUS
10
2.78395
20
-2.69369
11
2.77674
21
-2.69758
0
LINE
8
BLACK
6
CONTINUOUS
10
2.77674
20
-2.69758
11
2.77673
21
-2.69759
0
LINE
8
BLACK
6
CONTINUOUS
10
2.77673
20
-2.69759
11
2.77665
21
-2.69762
0
LINE
8
BLACK
6
CONTINUOUS
10
2.77665
20
-2.69762
11
2.77657
21
-2.69766
0
LINE
8
BLACK
6
CONTINUOUS
10
2.77657
20
-2.69766
11
2.76874
21
-2.70008
0
LINE
8
BLACK
6
CONTINUOUS
10
2.76874
20
-2.70008
11
2.76872
21
-2.70009
0
LINE
8
BLACK
6
CONTINUOUS
10
2.76872
20
-2.70009
11
2.76864
21
-2.7001
0
LINE
8
BLACK
6
CONTINUOUS
10
2.76864
20
-2.7001
11
2.76855
21
-2.70012
0
LINE
8
BLACK
6
CONTINUOUS
10
2.76855
20
-2.70012
11
2.7604
21
-2.70098
0
LINE
8
BLACK
6
CONTINUOUS
10
2.7604
20
-2.70098
11
2.76038
21
-2.70098
0
LINE
8
BLACK
6
CONTINUOUS
10
2.76038
20
-2.70098
11
2.76034
21
-2.70098
0
LINE
8
BLACK
6
CONTINUOUS
10
2.76034
20
-2.70098
11
2.7603
21
-2.70098
0
LINE
8
BLACK
6
CONTINUOUS
10
2.7603
20
-2.70098
11
2.76005
21
-2.70098
0
LINE
8
BLACK
6
CONTINUOUS
10
2.76005
20
-2.70098
11
2.76005
21
-2.70098
0
LINE
8
BLACK
6
CONTINUOUS
10
2.76005
20
-2.70098
11
2.76
21
-2.70098
0
LINE
8
BLACK
6
CONTINUOUS
10
2.76
20
-2.70098
11
1.99995
21
-2.70098
0
LINE
8
BLACK
6
CONTINUOUS
10
1.99995
20
-2.70098
11
1.99992
21
-2.70098
0
LINE
8
BLACK
6
CONTINUOUS
10
1.99992
20
-2.70098
11
1.99175
21
-2.70038
0
LINE
8
BLACK
6
CONTINUOUS
10
1.99175
20
-2.70038
11
1.99174
21
-2.70037
0
LINE
8
BLACK
6
CONTINUOUS
10
1.99174
20
-2.70037
11
1.99165
21
-2.70036
0
LINE
8
BLACK
6
CONTINUOUS
10
1.99165
20
-2.70036
11
1.99156
21
-2.70034
0
LINE
8
BLACK
6
CONTINUOUS
10
1.99156
20
-2.70034
11
1.98366
21
-2.69816
0
LINE
8
BLACK
6
CONTINUOUS
10
1.98366
20
-2.69816
11
1.98364
21
-2.69816
0
LINE
8
BLACK
6
CONTINUOUS
10
1.98364
20
-2.69816
11
1.98356
21
-2.69812
0
LINE
8
BLACK
6
CONTINUOUS
10
1.98356
20
-2.69812
11
1.98348
21
-2.69809
0
LINE
8
BLACK
6
CONTINUOUS
10
1.98348
20
-2.69809
11
1.97615
21
-2.69442
0
LINE
8
BLACK
6
CONTINUOUS
10
1.97615
20
-2.69442
11
1.97614
21
-2.69441
0
LINE
8
BLACK
6
CONTINUOUS
10
1.97614
20
-2.69441
11
1.97606
21
-2.69436
0
LINE
8
BLACK
6
CONTINUOUS
10
1.97606
20
-2.69436
11
1.97599
21
-2.69431
0
LINE
8
BLACK
6
CONTINUOUS
10
1.97599
20
-2.69431
11
1.96951
21
-2.68928
0
LINE
8
BLACK
6
CONTINUOUS
10
1.96951
20
-2.68928
11
1.96951
21
-2.68928
0
LINE
8
BLACK
6
CONTINUOUS
10
1.96951
20
-2.68928
11
1.96951
21
-2.68928
0
LINE
8
BLACK
6
CONTINUOUS
10
1.96951
20
-2.68928
11
1.9695
21
-2.68928
0
LINE
8
BLACK
6
CONTINUOUS
10
1.9695
20
-2.68928
11
1.96944
21
-2.68921
0
LINE
8
BLACK
6
CONTINUOUS
10
1.96944
20
-2.68921
11
1.96937
21
-2.68915
0
LINE
8
BLACK
6
CONTINUOUS
10
1.96937
20
-2.68915
11
1.964
21
-2.68296
0
LINE
8
BLACK
6
CONTINUOUS
10
1.964
20
-2.68296
11
1.96399
21
-2.68295
0
LINE
8
BLACK
6
CONTINUOUS
10
1.96399
20
-2.68295
11
1.96394
21
-2.68288
0
LINE
8
BLACK
6
CONTINUOUS
10
1.96394
20
-2.68288
11
1.96389
21
-2.6828
0
LINE
8
BLACK
6
CONTINUOUS
10
1.96389
20
-2.6828
11
1.95981
21
-2.67569
0
LINE
8
BLACK
6
CONTINUOUS
10
1.95981
20
-2.67569
11
1.95981
21
-2.67567
0
LINE
8
BLACK
6
CONTINUOUS
10
1.95981
20
-2.67567
11
1.95977
21
-2.67559
0
LINE
8
BLACK
6
CONTINUOUS
10
1.95977
20
-2.67559
11
1.95974
21
-2.67551
0
LINE
8
BLACK
6
CONTINUOUS
10
1.95974
20
-2.67551
11
1.95713
21
-2.66774
0
LINE
8
BLACK
6
CONTINUOUS
10
1.95713
20
-2.66774
11
1.95712
21
-2.66773
0
LINE
8
BLACK
6
CONTINUOUS
10
1.95712
20
-2.66773
11
1.9571
21
-2.66764
0
LINE
8
BLACK
6
CONTINUOUS
10
1.9571
20
-2.66764
11
1.95708
21
-2.66755
0
LINE
8
BLACK
6
CONTINUOUS
10
1.95708
20
-2.66755
11
1.95603
21
-2.65942
0
LINE
8
BLACK
6
CONTINUOUS
10
1.95603
20
-2.65942
11
1.95603
21
-2.65941
0
LINE
8
BLACK
6
CONTINUOUS
10
1.95603
20
-2.65941
11
1.95603
21
-2.65936
0
LINE
8
BLACK
6
CONTINUOUS
10
1.95603
20
-2.65936
11
1.95602
21
-2.65932
0
LINE
8
BLACK
6
CONTINUOUS
10
1.95602
20
-2.65932
11
1.95602
21
-2.65906
0
LINE
8
BLACK
6
CONTINUOUS
10
1.95602
20
-2.65906
11
1.95602
21
-2.65905
0
LINE
8
BLACK
6
CONTINUOUS
10
1.95602
20
-2.65905
11
1.95602
21
-2.44
0
LINE
8
BLACK
6
CONTINUOUS
10
1.95602
20
-2.44
11
1.95601
21
-2.43976
0
LINE
8
BLACK
6
CONTINUOUS
10
1.95601
20
-2.43976
11
1.95517
21
-2.43175
0
LINE
8
BLACK
6
CONTINUOUS
10
1.95517
20
-2.43175
11
1.95281
21
-2.42411
0
LINE
8
BLACK
6
CONTINUOUS
10
1.95281
20
-2.42411
11
1.949
21
-2.41707
0
LINE
8
BLACK
6
CONTINUOUS
10
1.949
20
-2.41707
11
1.9439
21
-2.4109
0
LINE
8
BLACK
6
CONTINUOUS
10
1.9439
20
-2.4109
11
1.9377
21
-2.40584
0
LINE
8
BLACK
6
CONTINUOUS
10
1.9377
20
-2.40584
11
1.93063
21
-2.40208
0
LINE
8
BLACK
6
CONTINUOUS
10
1.93063
20
-2.40208
11
1.92297
21
-2.39977
0
LINE
8
BLACK
6
CONTINUOUS
10
1.92297
20
-2.39977
11
1.91495
21
-2.39898
0
LINE
8
BLACK
6
CONTINUOUS
10
1.91495
20
-2.39898
11
1.62695
21
-2.39898
0
LINE
8
BLACK
6
CONTINUOUS
10
1.62695
20
-2.39898
11
1.62681
21
-2.39897
0
LINE
8
BLACK
6
CONTINUOUS
10
1.62681
20
-2.39897
11
1.6268
21
-2.39897
0
LINE
8
BLACK
6
CONTINUOUS
10
1.6268
20
-2.39897
11
1.61874
21
-2.39798
0
LINE
8
BLACK
6
CONTINUOUS
10
1.61874
20
-2.39798
11
1.61873
21
-2.39798
0
LINE
8
BLACK
6
CONTINUOUS
10
1.61873
20
-2.39798
11
1.61864
21
-2.39796
0
LINE
8
BLACK
6
CONTINUOUS
10
1.61864
20
-2.39796
11
1.61855
21
-2.39794
0
LINE
8
BLACK
6
CONTINUOUS
10
1.61855
20
-2.39794
11
1.61076
21
-2.39539
0
LINE
8
BLACK
6
CONTINUOUS
10
1.61076
20
-2.39539
11
1.61076
21
-2.39539
0
LINE
8
BLACK
6
CONTINUOUS
10
1.61076
20
-2.39539
11
1.61076
21
-2.39538
0
LINE
8
BLACK
6
CONTINUOUS
10
1.61076
20
-2.39538
11
1.61075
21
-2.39538
0
LINE
8
BLACK
6
CONTINUOUS
10
1.61075
20
-2.39538
11
1.61067
21
-2.39534
0
LINE
8
BLACK
6
CONTINUOUS
10
1.61067
20
-2.39534
11
1.61059
21
-2.39531
0
LINE
8
BLACK
6
CONTINUOUS
10
1.61059
20
-2.39531
11
1.60344
21
-2.39129
0
LINE
8
BLACK
6
CONTINUOUS
10
1.60344
20
-2.39129
11
1.60344
21
-2.39129
0
LINE
8
BLACK
6
CONTINUOUS
10
1.60344
20
-2.39129
11
1.60344
21
-2.39129
0
LINE
8
BLACK
6
CONTINUOUS
10
1.60344
20
-2.39129
11
1.60343
21
-2.39128
0
LINE
8
BLACK
6
CONTINUOUS
10
1.60343
20
-2.39128
11
1.60336
21
-2.39123
0
LINE
8
BLACK
6
CONTINUOUS
10
1.60336
20
-2.39123
11
1.60328
21
-2.39118
0
LINE
8
BLACK
6
CONTINUOUS
10
1.60328
20
-2.39118
11
1.59706
21
-2.38584
0
LINE
8
BLACK
6
CONTINUOUS
10
1.59706
20
-2.38584
11
1.59705
21
-2.38584
0
LINE
8
BLACK
6
CONTINUOUS
10
1.59705
20
-2.38584
11
1.59698
21
-2.38577
0
LINE
8
BLACK
6
CONTINUOUS
10
1.59698
20
-2.38577
11
1.59692
21
-2.38571
0
LINE
8
BLACK
6
CONTINUOUS
10
1.59692
20
-2.38571
11
1.59185
21
-2.37927
0
LINE
8
BLACK
6
CONTINUOUS
10
1.59185
20
-2.37927
11
1.59184
21
-2.37926
0
LINE
8
BLACK
6
CONTINUOUS
10
1.59184
20
-2.37926
11
1.59179
21
-2.37918
0
LINE
8
BLACK
6
CONTINUOUS
10
1.59179
20
-2.37918
11
1.59174
21
-2.3791
0
LINE
8
BLACK
6
CONTINUOUS
10
1.59174
20
-2.3791
11
1.58802
21
-2.3718
0
LINE
8
BLACK
6
CONTINUOUS
10
1.58802
20
-2.3718
11
1.58801
21
-2.37179
0
LINE
8
BLACK
6
CONTINUOUS
10
1.58801
20
-2.37179
11
1.58798
21
-2.3717
0
LINE
8
BLACK
6
CONTINUOUS
10
1.58798
20
-2.3717
11
1.58795
21
-2.37162
0
LINE
8
BLACK
6
CONTINUOUS
10
1.58795
20
-2.37162
11
1.58571
21
-2.36373
0
LINE
8
BLACK
6
CONTINUOUS
10
1.58571
20
-2.36373
11
1.58571
21
-2.36372
0
LINE
8
BLACK
6
CONTINUOUS
10
1.58571
20
-2.36372
11
1.58569
21
-2.36363
0
LINE
8
BLACK
6
CONTINUOUS
10
1.58569
20
-2.36363
11
1.58568
21
-2.36355
0
LINE
8
BLACK
6
CONTINUOUS
10
1.58568
20
-2.36355
11
1.58501
21
-2.35537
0
LINE
8
BLACK
6
CONTINUOUS
10
1.58501
20
-2.35537
11
1.58501
21
-2.35536
0
LINE
8
BLACK
6
CONTINUOUS
10
1.58501
20
-2.35536
11
1.58501
21
-2.35532
0
LINE
8
BLACK
6
CONTINUOUS
10
1.58501
20
-2.35532
11
1.58501
21
-2.35527
0
LINE
8
BLACK
6
CONTINUOUS
10
1.58501
20
-2.35527
11
1.58502
21
-2.35499
0
LINE
8
BLACK
6
CONTINUOUS
10
1.58502
20
-2.35499
11
1.58502
21
-1.64495
0
LINE
8
BLACK
6
CONTINUOUS
10
1.58502
20
-1.64495
11
1.58502
21
-1.6449
0
LINE
8
BLACK
6
CONTINUOUS
10
1.58502
20
-1.6449
11
1.58502
21
-1.6449
0
LINE
8
BLACK
6
CONTINUOUS
10
1.58502
20
-1.6449
11
1.58582
21
-1.63675
0
LINE
8
BLACK
6
CONTINUOUS
10
1.58582
20
-1.63675
11
1.58582
21
-1.63673
0
LINE
8
BLACK
6
CONTINUOUS
10
1.58582
20
-1.63673
11
1.58584
21
-1.63664
0
LINE
8
BLACK
6
CONTINUOUS
10
1.58584
20
-1.63664
11
1.58586
21
-1.63656
0
LINE
8
BLACK
6
CONTINUOUS
10
1.58586
20
-1.63656
11
1.58823
21
-1.62871
0
LINE
8
BLACK
6
CONTINUOUS
10
1.58823
20
-1.62871
11
1.58823
21
-1.6287
0
LINE
8
BLACK
6
CONTINUOUS
10
1.58823
20
-1.6287
11
1.58827
21
-1.62862
0
LINE
8
BLACK
6
CONTINUOUS
10
1.58827
20
-1.62862
11
1.5883
21
-1.62853
0
LINE
8
BLACK
6
CONTINUOUS
10
1.5883
20
-1.62853
11
1.59215
21
-1.6213
0
LINE
8
BLACK
6
CONTINUOUS
10
1.59215
20
-1.6213
11
1.59215
21
-1.62128
0
LINE
8
BLACK
6
CONTINUOUS
10
1.59215
20
-1.62128
11
1.5922
21
-1.62121
0
LINE
8
BLACK
6
CONTINUOUS
10
1.5922
20
-1.62121
11
1.59225
21
-1.62114
0
LINE
8
BLACK
6
CONTINUOUS
10
1.59225
20
-1.62114
11
1.59744
21
-1.61478
0
LINE
8
BLACK
6
CONTINUOUS
10
1.59744
20
-1.61478
11
1.59744
21
-1.61477
0
LINE
8
BLACK
6
CONTINUOUS
10
1.59744
20
-1.61477
11
1.59751
21
-1.61471
0
LINE
8
BLACK
6
CONTINUOUS
10
1.59751
20
-1.61471
11
1.59757
21
-1.61465
0
LINE
8
BLACK
6
CONTINUOUS
10
1.59757
20
-1.61465
11
1.60389
21
-1.60942
0
LINE
8
BLACK
6
CONTINUOUS
10
1.60389
20
-1.60942
11
1.6039
21
-1.60941
0
LINE
8
BLACK
6
CONTINUOUS
10
1.6039
20
-1.60941
11
1.60397
21
-1.60936
0
LINE
8
BLACK
6
CONTINUOUS
10
1.60397
20
-1.60936
11
1.60405
21
-1.60931
0
LINE
8
BLACK
6
CONTINUOUS
10
1.60405
20
-1.60931
11
1.61126
21
-1.60542
0
LINE
8
BLACK
6
CONTINUOUS
10
1.61126
20
-1.60542
11
1.61127
21
-1.60541
0
LINE
8
BLACK
6
CONTINUOUS
10
1.61127
20
-1.60541
11
1.61135
21
-1.60538
0
LINE
8
BLACK
6
CONTINUOUS
10
1.61135
20
-1.60538
11
1.61143
21
-1.60534
0
LINE
8
BLACK
6
CONTINUOUS
10
1.61143
20
-1.60534
11
1.61926
21
-1.60292
0
LINE
8
BLACK
6
CONTINUOUS
10
1.61926
20
-1.60292
11
1.61928
21
-1.60291
0
LINE
8
BLACK
6
CONTINUOUS
10
1.61928
20
-1.60291
11
1.61936
21
-1.6029
0
LINE
8
BLACK
6
CONTINUOUS
10
1.61936
20
-1.6029
11
1.61945
21
-1.60288
0
LINE
8
BLACK
6
CONTINUOUS
10
1.61945
20
-1.60288
11
1.6276
21
-1.60202
0
LINE
8
BLACK
6
CONTINUOUS
10
1.6276
20
-1.60202
11
1.62762
21
-1.60202
0
LINE
8
BLACK
6
CONTINUOUS
10
1.62762
20
-1.60202
11
1.62766
21
-1.60202
0
LINE
8
BLACK
6
CONTINUOUS
10
1.62766
20
-1.60202
11
1.6277
21
-1.60202
0
LINE
8
BLACK
6
CONTINUOUS
10
1.6277
20
-1.60202
11
1.62795
21
-1.60202
0
LINE
8
BLACK
6
CONTINUOUS
10
1.62795
20
-1.60202
11
1.62795
21
-1.60202
0
LINE
8
BLACK
6
CONTINUOUS
10
1.62795
20
-1.60202
11
2.76005
21
-1.60202
0
LINE
8
BLACK
6
CONTINUOUS
10
2.76005
20
-1.60202
11
2.7601
21
-1.60202
0
LINE
8
BLACK
6
CONTINUOUS
10
1.628
20
-1.60398
11
1.62776
21
-1.60399
0
LINE
8
BLACK
6
CONTINUOUS
10
1.62776
20
-1.60399
11
1.61975
21
-1.60483
0
LINE
8
BLACK
6
CONTINUOUS
10
1.61975
20
-1.60483
11
1.61211
21
-1.60719
0
LINE
8
BLACK
6
CONTINUOUS
10
1.61211
20
-1.60719
11
1.60507
21
-1.611
0
LINE
8
BLACK
6
CONTINUOUS
10
1.60507
20
-1.611
11
1.5989
21
-1.6161
0
LINE
8
BLACK
6
CONTINUOUS
10
1.5989
20
-1.6161
11
1.59384
21
-1.6223
0
LINE
8
BLACK
6
CONTINUOUS
10
1.59384
20
-1.6223
11
1.59008
21
-1.62937
0
LINE
8
BLACK
6
CONTINUOUS
10
1.59008
20
-1.62937
11
1.58777
21
-1.63703
0
LINE
8
BLACK
6
CONTINUOUS
10
1.58777
20
-1.63703
11
1.58698
21
-1.64505
0
LINE
8
BLACK
6
CONTINUOUS
10
1.58698
20
-1.64505
11
1.58698
21
-2.35505
0
LINE
8
BLACK
6
CONTINUOUS
10
1.58698
20
-2.35505
11
1.58698
21
-2.35506
0
LINE
8
BLACK
6
CONTINUOUS
10
1.58698
20
-2.35506
11
1.58698
21
-2.35526
0
LINE
8
BLACK
6
CONTINUOUS
10
1.58698
20
-2.35526
11
1.58763
21
-2.36329
0
LINE
8
BLACK
6
CONTINUOUS
10
1.58763
20
-2.36329
11
1.58981
21
-2.37099
0
LINE
8
BLACK
6
CONTINUOUS
10
1.58981
20
-2.37099
11
1.59345
21
-2.37812
0
LINE
8
BLACK
6
CONTINUOUS
10
1.59345
20
-2.37812
11
1.59841
21
-2.38441
0
LINE
8
BLACK
6
CONTINUOUS
10
1.59841
20
-2.38441
11
1.60449
21
-2.38962
0
LINE
8
BLACK
6
CONTINUOUS
10
1.60449
20
-2.38962
11
1.61147
21
-2.39354
0
LINE
8
BLACK
6
CONTINUOUS
10
1.61147
20
-2.39354
11
1.61908
21
-2.39604
0
LINE
8
BLACK
6
CONTINUOUS
10
1.61908
20
-2.39604
11
1.62706
21
-2.39702
0
LINE
8
BLACK
6
CONTINUOUS
10
1.62706
20
-2.39702
11
1.91505
21
-2.39702
0
LINE
8
BLACK
6
CONTINUOUS
10
1.91505
20
-2.39702
11
1.9151
21
-2.39702
0
LINE
8
BLACK
6
CONTINUOUS
10
1.9151
20
-2.39702
11
1.9151
21
-2.39702
0
LINE
8
BLACK
6
CONTINUOUS
10
1.9151
20
-2.39702
11
1.92325
21
-2.39782
0
LINE
8
BLACK
6
CONTINUOUS
10
1.92325
20
-2.39782
11
1.92327
21
-2.39782
0
LINE
8
BLACK
6
CONTINUOUS
10
1.92327
20
-2.39782
11
1.92336
21
-2.39784
0
LINE
8
BLACK
6
CONTINUOUS
10
1.92336
20
-2.39784
11
1.92344
21
-2.39786
0
LINE
8
BLACK
6
CONTINUOUS
10
1.92344
20
-2.39786
11
1.93129
21
-2.40023
0
LINE
8
BLACK
6
CONTINUOUS
10
1.93129
20
-2.40023
11
1.9313
21
-2.40023
0
LINE
8
BLACK
6
CONTINUOUS
10
1.9313
20
-2.40023
11
1.93138
21
-2.40027
0
LINE
8
BLACK
6
CONTINUOUS
10
1.93138
20
-2.40027
11
1.93147
21
-2.4003
0
LINE
8
BLACK
6
CONTINUOUS
10
1.93147
20
-2.4003
11
1.9387
21
-2.40415
0
LINE
8
BLACK
6
CONTINUOUS
10
1.9387
20
-2.40415
11
1.93872
21
-2.40415
0
LINE
8
BLACK
6
CONTINUOUS
10
1.93872
20
-2.40415
11
1.93879
21
-2.4042
0
LINE
8
BLACK
6
CONTINUOUS
10
1.93879
20
-2.4042
11
1.93886
21
-2.40425
0
LINE
8
BLACK
6
CONTINUOUS
10
1.93886
20
-2.40425
11
1.94522
21
-2.40944
0
LINE
8
BLACK
6
CONTINUOUS
10
1.94522
20
-2.40944
11
1.94523
21
-2.40944
0
LINE
8
BLACK
6
CONTINUOUS
10
1.94523
20
-2.40944
11
1.94529
21
-2.40951
0
LINE
8
BLACK
6
CONTINUOUS
10
1.94529
20
-2.40951
11
1.94535
21
-2.40957
0
LINE
8
BLACK
6
CONTINUOUS
10
1.94535
20
-2.40957
11
1.95058
21
-2.41589
0
LINE
8
BLACK
6
CONTINUOUS
10
1.95058
20
-2.41589
11
1.95059
21
-2.4159
0
LINE
8
BLACK
6
CONTINUOUS
10
1.95059
20
-2.4159
11
1.95064
21
-2.41597
0
LINE
8
BLACK
6
CONTINUOUS
10
1.95064
20
-2.41597
11
1.95069
21
-2.41605
0
LINE
8
BLACK
6
CONTINUOUS
10
1.95069
20
-2.41605
11
1.95458
21
-2.42326
0
LINE
8
BLACK
6
CONTINUOUS
10
1.95458
20
-2.42326
11
1.95459
21
-2.42327
0
LINE
8
BLACK
6
CONTINUOUS
10
1.95459
20
-2.42327
11
1.95462
21
-2.42335
0
LINE
8
BLACK
6
CONTINUOUS
10
1.95462
20
-2.42335
11
1.95466
21
-2.42343
0
LINE
8
BLACK
6
CONTINUOUS
10
1.95466
20
-2.42343
11
1.95708
21
-2.43126
0
LINE
8
BLACK
6
CONTINUOUS
10
1.95708
20
-2.43126
11
1.95709
21
-2.43128
0
LINE
8
BLACK
6
CONTINUOUS
10
1.95709
20
-2.43128
11
1.9571
21
-2.43136
0
LINE
8
BLACK
6
CONTINUOUS
10
1.9571
20
-2.43136
11
1.95712
21
-2.43145
0
LINE
8
BLACK
6
CONTINUOUS
10
1.95712
20
-2.43145
11
1.95798
21
-2.4396
0
LINE
8
BLACK
6
CONTINUOUS
10
1.95798
20
-2.4396
11
1.95798
21
-2.43962
0
LINE
8
BLACK
6
CONTINUOUS
10
1.95798
20
-2.43962
11
1.95798
21
-2.43966
0
LINE
8
BLACK
6
CONTINUOUS
10
1.95798
20
-2.43966
11
1.95798
21
-2.4397
0
LINE
8
BLACK
6
CONTINUOUS
10
1.95798
20
-2.4397
11
1.95798
21
-2.43995
0
LINE
8
BLACK
6
CONTINUOUS
10
1.95798
20
-2.43995
11
1.95798
21
-2.43995
0
LINE
8
BLACK
6
CONTINUOUS
10
1.95798
20
-2.43995
11
1.95798
21
-2.43999
0
LINE
8
BLACK
6
CONTINUOUS
10
1.95798
20
-2.43999
11
1.95798
21
-2.44
0
LINE
8
BLACK
6
CONTINUOUS
10
1.95798
20
-2.44
11
1.95798
21
-2.44001
0
LINE
8
BLACK
6
CONTINUOUS
10
1.95798
20
-2.44001
11
1.95798
21
-2.65899
0
LINE
8
BLACK
6
CONTINUOUS
10
1.95798
20
-2.65899
11
1.95799
21
-2.65922
0
LINE
8
BLACK
6
CONTINUOUS
10
1.95799
20
-2.65922
11
1.95902
21
-2.6672
0
LINE
8
BLACK
6
CONTINUOUS
10
1.95902
20
-2.6672
11
1.96157
21
-2.67479
0
LINE
8
BLACK
6
CONTINUOUS
10
1.96157
20
-2.67479
11
1.96555
21
-2.68174
0
LINE
8
BLACK
6
CONTINUOUS
10
1.96555
20
-2.68174
11
1.97079
21
-2.68779
0
LINE
8
BLACK
6
CONTINUOUS
10
1.97079
20
-2.68779
11
1.97712
21
-2.6927
0
LINE
8
BLACK
6
CONTINUOUS
10
1.97712
20
-2.6927
11
1.98427
21
-2.69629
0
LINE
8
BLACK
6
CONTINUOUS
10
1.98427
20
-2.69629
11
1.99199
21
-2.69842
0
LINE
8
BLACK
6
CONTINUOUS
10
1.99199
20
-2.69842
11
2.00004
21
-2.69902
0
LINE
8
BLACK
6
CONTINUOUS
10
2.00004
20
-2.69902
11
2.76
21
-2.69902
0
LINE
8
BLACK
6
CONTINUOUS
10
2.76
20
-2.69902
11
2.76
21
-2.69902
0
LINE
8
BLACK
6
CONTINUOUS
10
2.76
20
-2.69902
11
2.76024
21
-2.69901
0
LINE
8
BLACK
6
CONTINUOUS
10
2.76024
20
-2.69901
11
2.76825
21
-2.69817
0
LINE
8
BLACK
6
CONTINUOUS
10
2.76825
20
-2.69817
11
2.77589
21
-2.69581
0
LINE
8
BLACK
6
CONTINUOUS
10
2.77589
20
-2.69581
11
2.78293
21
-2.692
0
LINE
8
BLACK
6
CONTINUOUS
10
2.78293
20
-2.692
11
2.7891
21
-2.6869
0
LINE
8
BLACK
6
CONTINUOUS
10
2.7891
20
-2.6869
11
2.79416
21
-2.6807
0
LINE
8
BLACK
6
CONTINUOUS
10
2.79416
20
-2.6807
11
2.79792
21
-2.67363
0
LINE
8
BLACK
6
CONTINUOUS
10
2.79792
20
-2.67363
11
2.80023
21
-2.66597
0
LINE
8
BLACK
6
CONTINUOUS
10
2.80023
20
-2.66597
11
2.80102
21
-2.65795
0
LINE
8
BLACK
6
CONTINUOUS
10
2.80102
20
-2.65795
11
2.80102
21
-1.645
0
LINE
8
BLACK
6
CONTINUOUS
10
2.80102
20
-1.645
11
2.80102
21
-1.645
0
LINE
8
BLACK
6
CONTINUOUS
10
2.80102
20
-1.645
11
2.80101
21
-1.64476
0
LINE
8
BLACK
6
CONTINUOUS
10
2.80101
20
-1.64476
11
2.80017
21
-1.63675
0
LINE
8
BLACK
6
CONTINUOUS
10
2.80017
20
-1.63675
11
2.79781
21
-1.62911
0
LINE
8
BLACK
6
CONTINUOUS
10
2.79781
20
-1.62911
11
2.794
21
-1.62207
0
LINE
8
BLACK
6
CONTINUOUS
10
2.794
20
-1.62207
11
2.7889
21
-1.6159
0
LINE
8
BLACK
6
CONTINUOUS
10
2.7889
20
-1.6159
11
2.7827
21
-1.61084
0
LINE
8
BLACK
6
CONTINUOUS
10
2.7827
20
-1.61084
11
2.77563
21
-1.60708
0
LINE
8
BLACK
6
CONTINUOUS
10
2.77563
20
-1.60708
11
2.76797
21
-1.60477
0
LINE
8
BLACK
6
CONTINUOUS
10
2.76797
20
-1.60477
11
2.75995
21
-1.60398
0
LINE
8
BLACK
6
CONTINUOUS
10
2.75995
20
-1.60398
11
1.628
21
-1.60398
  0
ENDSEC
  0
EOF
