%TF.GenerationSoftware,KiCad,Pcbnew,(5.1.10-1-10_14)*%
%TF.CreationDate,2022-01-10T10:06:08-08:00*%
%TF.ProjectId,FanExpander-Lite,46616e45-7870-4616-9e64-65722d4c6974,V1.0.2*%
%TF.SameCoordinates,Original*%
%TF.FileFunction,Soldermask,Top*%
%TF.FilePolarity,Negative*%
%FSLAX46Y46*%
G04 Gerber Fmt 4.6, Leading zero omitted, Abs format (unit mm)*
G04 Created by KiCad (PCBNEW (5.1.10-1-10_14)) date 2022-01-10 10:06:08*
%MOMM*%
%LPD*%
G01*
G04 APERTURE LIST*
%ADD10O,1.800000X2.400000*%
%ADD11R,1.700000X1.700000*%
%ADD12O,1.700000X1.700000*%
%ADD13C,1.710000*%
%ADD14C,1.700000*%
%ADD15R,1.750000X1.750000*%
%ADD16C,1.750000*%
G04 APERTURE END LIST*
D10*
%TO.C,D4*%
X64333120Y-46146720D03*
%TD*%
%TO.C,D3*%
X64358520Y-56662320D03*
%TD*%
%TO.C,D2*%
X55620920Y-46146720D03*
%TD*%
%TO.C,D1*%
X55626000Y-56667400D03*
%TD*%
D11*
%TO.C,J7*%
X68884800Y-63555880D03*
D12*
X68884800Y-66095880D03*
X66344800Y-63555880D03*
X66344800Y-66095880D03*
X63804800Y-63555880D03*
X63804800Y-66095880D03*
X61264800Y-63555880D03*
X61264800Y-66095880D03*
%TD*%
D13*
%TO.C,F2*%
X50900480Y-48285080D03*
X52100480Y-43185080D03*
%TD*%
%TO.C,F1*%
X52106680Y-53167600D03*
X50906680Y-58267600D03*
%TD*%
D11*
%TO.C,J5*%
X43434000Y-45720000D03*
D14*
X45974000Y-45720000D03*
X43434000Y-48260000D03*
X45974000Y-48260000D03*
X43434000Y-50800000D03*
X45974000Y-50800000D03*
X43434000Y-53340000D03*
X45974000Y-53340000D03*
X43434000Y-55880000D03*
X45974000Y-55880000D03*
%TD*%
D15*
%TO.C,J4*%
X65018920Y-43632120D03*
D16*
X67518920Y-43632120D03*
%TD*%
D15*
%TO.C,J3*%
X65018920Y-54147720D03*
D16*
X67518920Y-54147720D03*
%TD*%
D11*
%TO.C,JP4*%
X63850520Y-49423320D03*
D12*
X66390520Y-49423320D03*
X68930520Y-49423320D03*
%TD*%
D11*
%TO.C,JP3*%
X63875920Y-59913520D03*
D12*
X66415920Y-59913520D03*
X68955920Y-59913520D03*
%TD*%
D15*
%TO.C,J2*%
X56281320Y-43632120D03*
D16*
X58781320Y-43632120D03*
%TD*%
D15*
%TO.C,J1*%
X56306720Y-54147720D03*
D16*
X58806720Y-54147720D03*
%TD*%
D11*
%TO.C,JP2*%
X55138320Y-49423320D03*
D12*
X57678320Y-49423320D03*
X60218320Y-49423320D03*
%TD*%
D11*
%TO.C,JP1*%
X55138320Y-59913520D03*
D12*
X57678320Y-59913520D03*
X60218320Y-59913520D03*
%TD*%
D15*
%TO.C,J6*%
X53969920Y-64602360D03*
D16*
X56469920Y-64602360D03*
%TD*%
M02*
