M48
; DRILL file {KiCad (5.1.10-1-10_14)} date Tuesday, January 11, 2022 at 03:19:55 PM
; FORMAT={-:-/ absolute / inch / decimal}
; #@! TF.CreationDate,2022-01-11T15:19:55-08:00
; #@! TF.GenerationSoftware,Kicad,Pcbnew,(5.1.10-1-10_14)
; #@! TF.FileFunction,NonPlated,1,2,NPTH
FMAT,2
INCH
T1C0.0394
T2C0.0827
%
G90
G05
T1
G00X2.1681Y-1.8385
M15
G01X2.1681Y-1.7951
M16
G05
G00X2.1683Y-2.2527
M15
G01X2.1683Y-2.2093
M16
G05
G00X2.2115Y-1.7951
M15
G01X2.1681Y-1.7951
M16
G05
G00X2.2115Y-1.8385
M15
G01X2.1681Y-1.8385
M16
G05
G00X2.2117Y-2.2093
M15
G01X2.1683Y-2.2093
M16
G05
G00X2.2117Y-2.2527
M15
G01X2.1683Y-2.2527
M16
G05
G00X2.2115Y-1.8385
M15
G01X2.2115Y-1.7951
M16
G05
G00X2.2117Y-2.2527
M15
G01X2.2117Y-2.2093
M16
G05
G00X2.5111Y-1.8385
M15
G01X2.5111Y-1.7951
M16
G05
G00X2.5121Y-2.2525
M15
G01X2.5121Y-2.2091
M16
G05
G00X2.5545Y-1.7951
M15
G01X2.5111Y-1.7951
M16
G05
G00X2.5545Y-1.8385
M15
G01X2.5111Y-1.8385
M16
G05
G00X2.5555Y-2.2091
M15
G01X2.5121Y-2.2091
M16
G05
G00X2.5555Y-2.2525
M15
G01X2.5121Y-2.2525
M16
G05
G00X2.5545Y-1.8385
M15
G01X2.5545Y-1.7951
M16
G05
G00X2.5555Y-2.2525
M15
G01X2.5555Y-2.2091
M16
G05
T2
G00X2.1898Y-1.8168
M15
G01X2.1898Y-1.8168
M16
G05
G00X2.19Y-2.231
M15
G01X2.19Y-2.231
M16
G05
G00X2.5328Y-1.8168
M15
G01X2.5328Y-1.8168
M16
G05
G00X2.5338Y-2.2308
M15
G01X2.5338Y-2.2308
M16
G05
T0
M30
