M48
; DRILL file {KiCad (5.1.10-1-10_14)} date Tuesday, January 11, 2022 at 03:19:55 PM
; FORMAT={-:-/ absolute / inch / decimal}
; #@! TF.CreationDate,2022-01-11T15:19:55-08:00
; #@! TF.GenerationSoftware,Kicad,Pcbnew,(5.1.10-1-10_14)
; #@! TF.FileFunction,Plated,1,2,PTH
FMAT,2
INCH
T1C0.0157
T2C0.0280
T3C0.0394
T4C0.0413
%
G90
G05
T1
X2.4099Y-1.655
X2.7555Y-1.659
X2.7774Y-2.065
T2
X2.004Y-1.901
X2.0042Y-2.294
X2.0512Y-1.7002
X2.0514Y-2.0932
T3
X1.71Y-1.8
X1.71Y-1.9
X1.71Y-2.0
X1.71Y-2.1
X1.71Y-2.2
X1.81Y-1.8
X1.81Y-1.9
X1.81Y-2.0
X1.81Y-2.1
X1.81Y-2.2
X2.1708Y-1.9458
X2.1708Y-2.3588
X2.2708Y-1.9458
X2.2708Y-2.3588
X2.3708Y-1.9458
X2.3708Y-2.3588
X2.412Y-2.5022
X2.412Y-2.6022
X2.512Y-2.5022
X2.512Y-2.6022
X2.5138Y-1.9458
X2.5148Y-2.3588
X2.612Y-2.5022
X2.612Y-2.6022
X2.6138Y-1.9458
X2.6148Y-2.3588
X2.712Y-2.5022
X2.712Y-2.6022
X2.7138Y-1.9458
X2.7148Y-2.3588
T4
X2.1248Y-2.5434
X2.2158Y-1.7178
X2.2168Y-2.1318
X2.2232Y-2.5434
X2.3142Y-1.7178
X2.3152Y-2.1318
X2.5598Y-1.7178
X2.5598Y-2.1318
X2.6582Y-1.7178
X2.6582Y-2.1318
T0
M30
