%TF.GenerationSoftware,KiCad,Pcbnew,(5.1.10-1-10_14)*%
%TF.CreationDate,2022-01-10T18:40:57-08:00*%
%TF.ProjectId,FanExpander-Lite,46616e45-7870-4616-9e64-65722d4c6974,V1.0.3*%
%TF.SameCoordinates,Original*%
%TF.FileFunction,Copper,L1,Top*%
%TF.FilePolarity,Positive*%
%FSLAX46Y46*%
G04 Gerber Fmt 4.6, Leading zero omitted, Abs format (unit mm)*
G04 Created by KiCad (PCBNEW (5.1.10-1-10_14)) date 2022-01-10 18:40:57*
%MOMM*%
%LPD*%
G01*
G04 APERTURE LIST*
%TA.AperFunction,ComponentPad*%
%ADD10R,1.700000X1.700000*%
%TD*%
%TA.AperFunction,ComponentPad*%
%ADD11O,1.700000X1.700000*%
%TD*%
%TA.AperFunction,ComponentPad*%
%ADD12C,1.710000*%
%TD*%
%TA.AperFunction,ComponentPad*%
%ADD13C,1.700000*%
%TD*%
%TA.AperFunction,ComponentPad*%
%ADD14R,1.750000X1.750000*%
%TD*%
%TA.AperFunction,ComponentPad*%
%ADD15C,1.750000*%
%TD*%
%TA.AperFunction,ViaPad*%
%ADD16C,0.800000*%
%TD*%
%TA.AperFunction,Conductor*%
%ADD17C,0.500000*%
%TD*%
%TA.AperFunction,Conductor*%
%ADD18C,0.250000*%
%TD*%
%TA.AperFunction,Conductor*%
%ADD19C,0.254000*%
%TD*%
%TA.AperFunction,Conductor*%
%ADD20C,0.100000*%
%TD*%
G04 APERTURE END LIST*
D10*
%TO.P,J7,1*%
%TO.N,GND*%
X68884800Y-63555880D03*
D11*
%TO.P,J7,2*%
%TO.N,/PASS0*%
X68884800Y-66095880D03*
%TO.P,J7,3*%
%TO.N,GND*%
X66344800Y-63555880D03*
%TO.P,J7,4*%
%TO.N,/PASS1*%
X66344800Y-66095880D03*
%TO.P,J7,5*%
%TO.N,GND*%
X63804800Y-63555880D03*
%TO.P,J7,6*%
%TO.N,/PASS2*%
X63804800Y-66095880D03*
%TO.P,J7,7*%
%TO.N,GND*%
X61264800Y-63555880D03*
%TO.P,J7,8*%
%TO.N,/PASS3*%
X61264800Y-66095880D03*
%TD*%
D12*
%TO.P,F2,2*%
%TO.N,/5V_unFused*%
X50900480Y-48285080D03*
%TO.P,F2,1*%
%TO.N,+5V*%
X52100480Y-43185080D03*
%TD*%
%TO.P,F1,2*%
%TO.N,+24V*%
X52106680Y-53167600D03*
%TO.P,F1,1*%
%TO.N,/24V_unFused*%
X50906680Y-58267600D03*
%TD*%
D10*
%TO.P,J5,1*%
%TO.N,/FAN2*%
X43434000Y-45720000D03*
D13*
%TO.P,J5,2*%
%TO.N,/FAN4*%
X45974000Y-45720000D03*
%TO.P,J5,3*%
%TO.N,/PASS0*%
X43434000Y-48260000D03*
%TO.P,J5,4*%
%TO.N,Net-(J5-Pad4)*%
X45974000Y-48260000D03*
%TO.P,J5,5*%
%TO.N,/PASS1*%
X43434000Y-50800000D03*
%TO.P,J5,6*%
%TO.N,/FAN3*%
X45974000Y-50800000D03*
%TO.P,J5,7*%
%TO.N,/PASS2*%
X43434000Y-53340000D03*
%TO.P,J5,8*%
%TO.N,/PASS3*%
X45974000Y-53340000D03*
%TO.P,J5,9*%
%TO.N,GND*%
X43434000Y-55880000D03*
%TO.P,J5,10*%
%TO.N,/5V_unFused*%
X45974000Y-55880000D03*
%TD*%
D14*
%TO.P,J4,1*%
%TO.N,/F4V*%
X65018920Y-43632120D03*
D15*
%TO.P,J4,2*%
%TO.N,/FAN4_Drive*%
X67518920Y-43632120D03*
%TD*%
D14*
%TO.P,J3,1*%
%TO.N,/F3V*%
X65018920Y-54147720D03*
D15*
%TO.P,J3,2*%
%TO.N,/FAN3_Drive*%
X67518920Y-54147720D03*
%TD*%
D10*
%TO.P,JP4,1*%
%TO.N,+5V*%
X63850520Y-49423320D03*
D11*
%TO.P,JP4,2*%
%TO.N,/F4V*%
X66390520Y-49423320D03*
%TO.P,JP4,3*%
%TO.N,+24V*%
X68930520Y-49423320D03*
%TD*%
D10*
%TO.P,JP3,1*%
%TO.N,+5V*%
X63875920Y-59913520D03*
D11*
%TO.P,JP3,2*%
%TO.N,/F3V*%
X66415920Y-59913520D03*
%TO.P,JP3,3*%
%TO.N,+24V*%
X68955920Y-59913520D03*
%TD*%
D14*
%TO.P,J2,1*%
%TO.N,/F2V*%
X56281320Y-43632120D03*
D15*
%TO.P,J2,2*%
%TO.N,/FAN2_Drive*%
X58781320Y-43632120D03*
%TD*%
D14*
%TO.P,J1,1*%
%TO.N,/F1V*%
X56306720Y-54147720D03*
D15*
%TO.P,J1,2*%
%TO.N,/FAN1_Drive*%
X58806720Y-54147720D03*
%TD*%
D10*
%TO.P,JP2,1*%
%TO.N,+5V*%
X55138320Y-49423320D03*
D11*
%TO.P,JP2,2*%
%TO.N,/F2V*%
X57678320Y-49423320D03*
%TO.P,JP2,3*%
%TO.N,+24V*%
X60218320Y-49423320D03*
%TD*%
D10*
%TO.P,JP1,1*%
%TO.N,+5V*%
X55138320Y-59913520D03*
D11*
%TO.P,JP1,2*%
%TO.N,/F1V*%
X57678320Y-59913520D03*
%TO.P,JP1,3*%
%TO.N,+24V*%
X60218320Y-59913520D03*
%TD*%
D14*
%TO.P,J6,1*%
%TO.N,/24V_unFused*%
X53969920Y-64602360D03*
D15*
%TO.P,J6,2*%
%TO.N,/FAN1_Drive*%
X56469920Y-64602360D03*
%TD*%
D16*
%TO.N,/FAN2*%
X61212402Y-42037000D03*
%TO.N,/FAN4*%
X69988802Y-42138600D03*
%TO.N,/FAN3*%
X70545800Y-52451000D03*
%TD*%
D17*
%TO.N,+24V*%
X52961679Y-54022599D02*
X52106680Y-53167600D01*
X53928319Y-61213521D02*
X52961679Y-60246881D01*
X52961679Y-60246881D02*
X52961679Y-54022599D01*
X58918319Y-61213521D02*
X53928319Y-61213521D01*
X60218320Y-59913520D02*
X58918319Y-61213521D01*
X67630519Y-50723321D02*
X68930520Y-49423320D01*
X61518321Y-50723321D02*
X67630519Y-50723321D01*
X60218320Y-49423320D02*
X61518321Y-50723321D01*
%TO.N,+5V*%
X55138320Y-48257637D02*
X52100480Y-45219797D01*
X52100480Y-45219797D02*
X52100480Y-43185080D01*
X55138320Y-49423320D02*
X55138320Y-48257637D01*
X54125990Y-58901190D02*
X54125990Y-50435650D01*
X54125990Y-50435650D02*
X55138320Y-49423320D01*
X55138320Y-59913520D02*
X54125990Y-58901190D01*
D18*
%TO.N,/FAN2*%
X47598931Y-41555069D02*
X60730471Y-41555069D01*
X60730471Y-41555069D02*
X61212402Y-42037000D01*
X43434000Y-45720000D02*
X47598931Y-41555069D01*
%TO.N,/FAN4*%
X64177438Y-42138600D02*
X69988802Y-42138600D01*
X59858199Y-42005079D02*
X61211048Y-43357928D01*
X49688921Y-42005079D02*
X59858199Y-42005079D01*
X62958110Y-43357928D02*
X64177438Y-42138600D01*
X61211048Y-43357928D02*
X62958110Y-43357928D01*
X45974000Y-45720000D02*
X49688921Y-42005079D01*
%TO.N,/FAN3*%
X70510400Y-61082190D02*
X70510400Y-52324000D01*
X52386669Y-57212669D02*
X52386669Y-60485057D01*
X53690143Y-61788531D02*
X69804059Y-61788531D01*
X45974000Y-50800000D02*
X52386669Y-57212669D01*
X52386669Y-60485057D02*
X53690143Y-61788531D01*
X69804059Y-61788531D02*
X70510400Y-61082190D01*
D17*
%TO.N,/F1V*%
X57678320Y-55519320D02*
X57678320Y-59913520D01*
X56306720Y-54147720D02*
X57678320Y-55519320D01*
%TO.N,/F2V*%
X57678320Y-45610603D02*
X57678320Y-49423320D01*
X56281320Y-44213603D02*
X57678320Y-45610603D01*
X56281320Y-43632120D02*
X56281320Y-44213603D01*
%TO.N,/F3V*%
X66415920Y-55544720D02*
X66415920Y-59913520D01*
X65018920Y-54147720D02*
X66415920Y-55544720D01*
%TO.N,/F4V*%
X66390520Y-45003720D02*
X66390520Y-49423320D01*
X65018920Y-43632120D02*
X66390520Y-45003720D01*
D18*
%TO.N,/PASS1*%
X43434000Y-50800000D02*
X41084420Y-53149580D01*
X41084420Y-58659810D02*
X42533789Y-60109179D01*
X41084420Y-53149580D02*
X41084420Y-58659810D01*
X49421556Y-60109180D02*
X50507819Y-61195443D01*
X42533789Y-60109179D02*
X49421556Y-60109180D01*
X50507819Y-66840019D02*
X51447780Y-67779980D01*
X50507819Y-61195443D02*
X50507819Y-66840019D01*
X64660700Y-67779980D02*
X66344800Y-66095880D01*
X51447780Y-67779980D02*
X64660700Y-67779980D01*
%TO.N,/PASS2*%
X43434000Y-53340000D02*
X41534430Y-55239570D01*
X41534430Y-55239570D02*
X41534430Y-58473410D01*
X41534430Y-58473410D02*
X42720190Y-59659170D01*
X49607957Y-59659171D02*
X50957829Y-61009043D01*
X42720190Y-59659170D02*
X49607957Y-59659171D01*
X50957829Y-66653619D02*
X51634180Y-67329970D01*
X50957829Y-61009043D02*
X50957829Y-66653619D01*
X62570710Y-67329970D02*
X63804800Y-66095880D01*
X51634180Y-67329970D02*
X62570710Y-67329970D01*
%TO.N,/PASS0*%
X43434000Y-48260000D02*
X40634410Y-51059590D01*
X40634410Y-58846210D02*
X42347389Y-60559189D01*
X40634410Y-51059590D02*
X40634410Y-58846210D01*
X49235155Y-60559189D02*
X50057809Y-61381843D01*
X42347389Y-60559189D02*
X49235155Y-60559189D01*
X50057809Y-67050409D02*
X51237390Y-68229990D01*
X50057809Y-61381843D02*
X50057809Y-67050409D01*
X66750690Y-68229990D02*
X68884800Y-66095880D01*
X51237390Y-68229990D02*
X66750690Y-68229990D01*
%TO.N,/PASS3*%
X60480720Y-66879960D02*
X61264800Y-66095880D01*
X51407839Y-66444639D02*
X51843160Y-66879960D01*
X49794358Y-59209162D02*
X51407839Y-60822643D01*
X42005610Y-58287010D02*
X42927761Y-59209161D01*
X41984440Y-58287010D02*
X42005610Y-58287010D01*
X45974000Y-53340000D02*
X44798999Y-54515001D01*
X41984440Y-55449960D02*
X41984440Y-58287010D01*
X51843160Y-66879960D02*
X60480720Y-66879960D01*
X51407839Y-60822643D02*
X51407839Y-66444639D01*
X42927761Y-59209161D02*
X49794358Y-59209162D01*
X42919399Y-54515001D02*
X41984440Y-55449960D01*
X44798999Y-54515001D02*
X42919399Y-54515001D01*
%TD*%
D19*
%TO.N,GND*%
X53126344Y-62299534D02*
X53150142Y-62328532D01*
X53179140Y-62352330D01*
X53265867Y-62423505D01*
X53397896Y-62494077D01*
X53541157Y-62537534D01*
X53690143Y-62552208D01*
X53727476Y-62548531D01*
X60183191Y-62548531D01*
X60069622Y-62674525D01*
X59920643Y-62924628D01*
X59823319Y-63198989D01*
X59943986Y-63428880D01*
X61137800Y-63428880D01*
X61137800Y-63408880D01*
X61391800Y-63408880D01*
X61391800Y-63428880D01*
X63677800Y-63428880D01*
X63677800Y-63408880D01*
X63931800Y-63408880D01*
X63931800Y-63428880D01*
X66217800Y-63428880D01*
X66217800Y-63408880D01*
X66471800Y-63408880D01*
X66471800Y-63428880D01*
X68757800Y-63428880D01*
X68757800Y-63408880D01*
X69011800Y-63408880D01*
X69011800Y-63428880D01*
X70211050Y-63428880D01*
X70369800Y-63270130D01*
X70372872Y-62705880D01*
X70360612Y-62581398D01*
X70324302Y-62461700D01*
X70280850Y-62380407D01*
X70344060Y-62328532D01*
X70367862Y-62299529D01*
X70510800Y-62156591D01*
X70510800Y-67480921D01*
X70499948Y-67591601D01*
X70477179Y-67667014D01*
X70440197Y-67736568D01*
X70390408Y-67797615D01*
X70329711Y-67847828D01*
X70260414Y-67885297D01*
X70185164Y-67908591D01*
X70076606Y-67920001D01*
X68135481Y-67920001D01*
X68518392Y-67537090D01*
X68738540Y-67580880D01*
X69031060Y-67580880D01*
X69317958Y-67523812D01*
X69588211Y-67411870D01*
X69831432Y-67249355D01*
X70038275Y-67042512D01*
X70200790Y-66799291D01*
X70312732Y-66529038D01*
X70369800Y-66242140D01*
X70369800Y-65949620D01*
X70312732Y-65662722D01*
X70200790Y-65392469D01*
X70038275Y-65149248D01*
X69906420Y-65017393D01*
X69978980Y-64995382D01*
X70089294Y-64936417D01*
X70185985Y-64857065D01*
X70265337Y-64760374D01*
X70324302Y-64650060D01*
X70360612Y-64530362D01*
X70372872Y-64405880D01*
X70369800Y-63841630D01*
X70211050Y-63682880D01*
X69011800Y-63682880D01*
X69011800Y-63702880D01*
X68757800Y-63702880D01*
X68757800Y-63682880D01*
X66471800Y-63682880D01*
X66471800Y-63702880D01*
X66217800Y-63702880D01*
X66217800Y-63682880D01*
X63931800Y-63682880D01*
X63931800Y-63702880D01*
X63677800Y-63702880D01*
X63677800Y-63682880D01*
X61391800Y-63682880D01*
X61391800Y-63702880D01*
X61137800Y-63702880D01*
X61137800Y-63682880D01*
X59943986Y-63682880D01*
X59823319Y-63912771D01*
X59920643Y-64187132D01*
X60069622Y-64437235D01*
X60264531Y-64653468D01*
X60494206Y-64824780D01*
X60318168Y-64942405D01*
X60111325Y-65149248D01*
X59948810Y-65392469D01*
X59836868Y-65662722D01*
X59779800Y-65949620D01*
X59779800Y-66119960D01*
X52167839Y-66119960D01*
X52167839Y-63727360D01*
X52456848Y-63727360D01*
X52456848Y-65477360D01*
X52469108Y-65601842D01*
X52505418Y-65721540D01*
X52564383Y-65831854D01*
X52643735Y-65928545D01*
X52740426Y-66007897D01*
X52850740Y-66066862D01*
X52970438Y-66103172D01*
X53094920Y-66115432D01*
X54844920Y-66115432D01*
X54969402Y-66103172D01*
X55089100Y-66066862D01*
X55199414Y-66007897D01*
X55296105Y-65928545D01*
X55375457Y-65831854D01*
X55434422Y-65721540D01*
X55438894Y-65706796D01*
X55507351Y-65775253D01*
X55754667Y-65940504D01*
X56029469Y-66054331D01*
X56321198Y-66112360D01*
X56618642Y-66112360D01*
X56910371Y-66054331D01*
X57185173Y-65940504D01*
X57432489Y-65775253D01*
X57642813Y-65564929D01*
X57808064Y-65317613D01*
X57921891Y-65042811D01*
X57979920Y-64751082D01*
X57979920Y-64453638D01*
X57921891Y-64161909D01*
X57808064Y-63887107D01*
X57642813Y-63639791D01*
X57432489Y-63429467D01*
X57185173Y-63264216D01*
X56910371Y-63150389D01*
X56618642Y-63092360D01*
X56321198Y-63092360D01*
X56029469Y-63150389D01*
X55754667Y-63264216D01*
X55507351Y-63429467D01*
X55438894Y-63497924D01*
X55434422Y-63483180D01*
X55375457Y-63372866D01*
X55296105Y-63276175D01*
X55199414Y-63196823D01*
X55089100Y-63137858D01*
X54969402Y-63101548D01*
X54844920Y-63089288D01*
X53094920Y-63089288D01*
X52970438Y-63101548D01*
X52850740Y-63137858D01*
X52740426Y-63196823D01*
X52643735Y-63276175D01*
X52564383Y-63372866D01*
X52505418Y-63483180D01*
X52469108Y-63602878D01*
X52456848Y-63727360D01*
X52167839Y-63727360D01*
X52167839Y-61341028D01*
X53126344Y-62299534D01*
%TA.AperFunction,Conductor*%
D20*
G36*
X53126344Y-62299534D02*
G01*
X53150142Y-62328532D01*
X53179140Y-62352330D01*
X53265867Y-62423505D01*
X53397896Y-62494077D01*
X53541157Y-62537534D01*
X53690143Y-62552208D01*
X53727476Y-62548531D01*
X60183191Y-62548531D01*
X60069622Y-62674525D01*
X59920643Y-62924628D01*
X59823319Y-63198989D01*
X59943986Y-63428880D01*
X61137800Y-63428880D01*
X61137800Y-63408880D01*
X61391800Y-63408880D01*
X61391800Y-63428880D01*
X63677800Y-63428880D01*
X63677800Y-63408880D01*
X63931800Y-63408880D01*
X63931800Y-63428880D01*
X66217800Y-63428880D01*
X66217800Y-63408880D01*
X66471800Y-63408880D01*
X66471800Y-63428880D01*
X68757800Y-63428880D01*
X68757800Y-63408880D01*
X69011800Y-63408880D01*
X69011800Y-63428880D01*
X70211050Y-63428880D01*
X70369800Y-63270130D01*
X70372872Y-62705880D01*
X70360612Y-62581398D01*
X70324302Y-62461700D01*
X70280850Y-62380407D01*
X70344060Y-62328532D01*
X70367862Y-62299529D01*
X70510800Y-62156591D01*
X70510800Y-67480921D01*
X70499948Y-67591601D01*
X70477179Y-67667014D01*
X70440197Y-67736568D01*
X70390408Y-67797615D01*
X70329711Y-67847828D01*
X70260414Y-67885297D01*
X70185164Y-67908591D01*
X70076606Y-67920001D01*
X68135481Y-67920001D01*
X68518392Y-67537090D01*
X68738540Y-67580880D01*
X69031060Y-67580880D01*
X69317958Y-67523812D01*
X69588211Y-67411870D01*
X69831432Y-67249355D01*
X70038275Y-67042512D01*
X70200790Y-66799291D01*
X70312732Y-66529038D01*
X70369800Y-66242140D01*
X70369800Y-65949620D01*
X70312732Y-65662722D01*
X70200790Y-65392469D01*
X70038275Y-65149248D01*
X69906420Y-65017393D01*
X69978980Y-64995382D01*
X70089294Y-64936417D01*
X70185985Y-64857065D01*
X70265337Y-64760374D01*
X70324302Y-64650060D01*
X70360612Y-64530362D01*
X70372872Y-64405880D01*
X70369800Y-63841630D01*
X70211050Y-63682880D01*
X69011800Y-63682880D01*
X69011800Y-63702880D01*
X68757800Y-63702880D01*
X68757800Y-63682880D01*
X66471800Y-63682880D01*
X66471800Y-63702880D01*
X66217800Y-63702880D01*
X66217800Y-63682880D01*
X63931800Y-63682880D01*
X63931800Y-63702880D01*
X63677800Y-63702880D01*
X63677800Y-63682880D01*
X61391800Y-63682880D01*
X61391800Y-63702880D01*
X61137800Y-63702880D01*
X61137800Y-63682880D01*
X59943986Y-63682880D01*
X59823319Y-63912771D01*
X59920643Y-64187132D01*
X60069622Y-64437235D01*
X60264531Y-64653468D01*
X60494206Y-64824780D01*
X60318168Y-64942405D01*
X60111325Y-65149248D01*
X59948810Y-65392469D01*
X59836868Y-65662722D01*
X59779800Y-65949620D01*
X59779800Y-66119960D01*
X52167839Y-66119960D01*
X52167839Y-63727360D01*
X52456848Y-63727360D01*
X52456848Y-65477360D01*
X52469108Y-65601842D01*
X52505418Y-65721540D01*
X52564383Y-65831854D01*
X52643735Y-65928545D01*
X52740426Y-66007897D01*
X52850740Y-66066862D01*
X52970438Y-66103172D01*
X53094920Y-66115432D01*
X54844920Y-66115432D01*
X54969402Y-66103172D01*
X55089100Y-66066862D01*
X55199414Y-66007897D01*
X55296105Y-65928545D01*
X55375457Y-65831854D01*
X55434422Y-65721540D01*
X55438894Y-65706796D01*
X55507351Y-65775253D01*
X55754667Y-65940504D01*
X56029469Y-66054331D01*
X56321198Y-66112360D01*
X56618642Y-66112360D01*
X56910371Y-66054331D01*
X57185173Y-65940504D01*
X57432489Y-65775253D01*
X57642813Y-65564929D01*
X57808064Y-65317613D01*
X57921891Y-65042811D01*
X57979920Y-64751082D01*
X57979920Y-64453638D01*
X57921891Y-64161909D01*
X57808064Y-63887107D01*
X57642813Y-63639791D01*
X57432489Y-63429467D01*
X57185173Y-63264216D01*
X56910371Y-63150389D01*
X56618642Y-63092360D01*
X56321198Y-63092360D01*
X56029469Y-63150389D01*
X55754667Y-63264216D01*
X55507351Y-63429467D01*
X55438894Y-63497924D01*
X55434422Y-63483180D01*
X55375457Y-63372866D01*
X55296105Y-63276175D01*
X55199414Y-63196823D01*
X55089100Y-63137858D01*
X54969402Y-63101548D01*
X54844920Y-63089288D01*
X53094920Y-63089288D01*
X52970438Y-63101548D01*
X52850740Y-63137858D01*
X52740426Y-63196823D01*
X52643735Y-63276175D01*
X52564383Y-63372866D01*
X52505418Y-63483180D01*
X52469108Y-63602878D01*
X52456848Y-63727360D01*
X52167839Y-63727360D01*
X52167839Y-61341028D01*
X53126344Y-62299534D01*
G37*
%TD.AperFunction*%
D19*
X50876797Y-56777600D02*
X50759928Y-56777600D01*
X50472063Y-56834860D01*
X50200901Y-56947180D01*
X49956861Y-57110242D01*
X49749322Y-57317781D01*
X49586260Y-57561821D01*
X49473940Y-57832983D01*
X49416680Y-58120848D01*
X49416680Y-58414352D01*
X49423604Y-58449163D01*
X43242564Y-58449161D01*
X42744440Y-57951039D01*
X42744440Y-57196379D01*
X42926883Y-57283371D01*
X43210411Y-57355339D01*
X43502531Y-57370611D01*
X43792019Y-57328599D01*
X44067747Y-57230919D01*
X44205157Y-57157472D01*
X44282792Y-56908397D01*
X43434000Y-56059605D01*
X43419858Y-56073748D01*
X43240253Y-55894143D01*
X43254395Y-55880000D01*
X43240253Y-55865858D01*
X43419858Y-55686253D01*
X43434000Y-55700395D01*
X43448143Y-55686253D01*
X43627748Y-55865858D01*
X43613605Y-55880000D01*
X44462397Y-56728792D01*
X44704689Y-56653271D01*
X44820525Y-56826632D01*
X45027368Y-57033475D01*
X45270589Y-57195990D01*
X45540842Y-57307932D01*
X45827740Y-57365000D01*
X46120260Y-57365000D01*
X46407158Y-57307932D01*
X46677411Y-57195990D01*
X46920632Y-57033475D01*
X47127475Y-56826632D01*
X47289990Y-56583411D01*
X47401932Y-56313158D01*
X47459000Y-56026260D01*
X47459000Y-55733740D01*
X47401932Y-55446842D01*
X47289990Y-55176589D01*
X47127475Y-54933368D01*
X46920632Y-54726525D01*
X46746240Y-54610000D01*
X46920632Y-54493475D01*
X47127475Y-54286632D01*
X47289990Y-54043411D01*
X47401932Y-53773158D01*
X47459000Y-53486260D01*
X47459000Y-53359802D01*
X50876797Y-56777600D01*
%TA.AperFunction,Conductor*%
D20*
G36*
X50876797Y-56777600D02*
G01*
X50759928Y-56777600D01*
X50472063Y-56834860D01*
X50200901Y-56947180D01*
X49956861Y-57110242D01*
X49749322Y-57317781D01*
X49586260Y-57561821D01*
X49473940Y-57832983D01*
X49416680Y-58120848D01*
X49416680Y-58414352D01*
X49423604Y-58449163D01*
X43242564Y-58449161D01*
X42744440Y-57951039D01*
X42744440Y-57196379D01*
X42926883Y-57283371D01*
X43210411Y-57355339D01*
X43502531Y-57370611D01*
X43792019Y-57328599D01*
X44067747Y-57230919D01*
X44205157Y-57157472D01*
X44282792Y-56908397D01*
X43434000Y-56059605D01*
X43419858Y-56073748D01*
X43240253Y-55894143D01*
X43254395Y-55880000D01*
X43240253Y-55865858D01*
X43419858Y-55686253D01*
X43434000Y-55700395D01*
X43448143Y-55686253D01*
X43627748Y-55865858D01*
X43613605Y-55880000D01*
X44462397Y-56728792D01*
X44704689Y-56653271D01*
X44820525Y-56826632D01*
X45027368Y-57033475D01*
X45270589Y-57195990D01*
X45540842Y-57307932D01*
X45827740Y-57365000D01*
X46120260Y-57365000D01*
X46407158Y-57307932D01*
X46677411Y-57195990D01*
X46920632Y-57033475D01*
X47127475Y-56826632D01*
X47289990Y-56583411D01*
X47401932Y-56313158D01*
X47459000Y-56026260D01*
X47459000Y-55733740D01*
X47401932Y-55446842D01*
X47289990Y-55176589D01*
X47127475Y-54933368D01*
X46920632Y-54726525D01*
X46746240Y-54610000D01*
X46920632Y-54493475D01*
X47127475Y-54286632D01*
X47289990Y-54043411D01*
X47401932Y-53773158D01*
X47459000Y-53486260D01*
X47459000Y-53359802D01*
X50876797Y-56777600D01*
G37*
%TD.AperFunction*%
%TD*%
M02*
