%TF.GenerationSoftware,KiCad,Pcbnew,(5.1.10-1-10_14)*%
%TF.CreationDate,2022-01-16T00:09:14-08:00*%
%TF.ProjectId,FanExpander-Lite,46616e45-7870-4616-9e64-65722d4c6974,V1.0.4*%
%TF.SameCoordinates,Original*%
%TF.FileFunction,Soldermask,Bot*%
%TF.FilePolarity,Negative*%
%FSLAX46Y46*%
G04 Gerber Fmt 4.6, Leading zero omitted, Abs format (unit mm)*
G04 Created by KiCad (PCBNEW (5.1.10-1-10_14)) date 2022-01-16 00:09:14*
%MOMM*%
%LPD*%
G01*
G04 APERTURE LIST*
%ADD10R,1.500000X0.500000*%
%ADD11C,0.100000*%
%ADD12O,2.100000X1.000000*%
%ADD13O,1.000000X2.100000*%
%ADD14O,2.100000X2.100000*%
%ADD15C,1.000000*%
%ADD16R,1.700000X1.700000*%
%ADD17O,1.700000X1.700000*%
%ADD18C,1.710000*%
%ADD19R,0.500000X0.900000*%
%ADD20R,0.900000X0.500000*%
%ADD21C,1.700000*%
%ADD22R,0.900000X0.800000*%
%ADD23R,1.750000X1.750000*%
%ADD24C,1.750000*%
G04 APERTURE END LIST*
D10*
%TO.C,JP5*%
X60756800Y-52146200D03*
D11*
G36*
X60006800Y-51996200D02*
G01*
X60006800Y-51496200D01*
X60007402Y-51496200D01*
X60007402Y-51471666D01*
X60012212Y-51422835D01*
X60021784Y-51374710D01*
X60036028Y-51327755D01*
X60054805Y-51282422D01*
X60077936Y-51239149D01*
X60105196Y-51198350D01*
X60136324Y-51160421D01*
X60171021Y-51125724D01*
X60208950Y-51094596D01*
X60249749Y-51067336D01*
X60293022Y-51044205D01*
X60338355Y-51025428D01*
X60385310Y-51011184D01*
X60433435Y-51001612D01*
X60482266Y-50996802D01*
X60506800Y-50996802D01*
X60506800Y-50996200D01*
X61006800Y-50996200D01*
X61006800Y-50996802D01*
X61031334Y-50996802D01*
X61080165Y-51001612D01*
X61128290Y-51011184D01*
X61175245Y-51025428D01*
X61220578Y-51044205D01*
X61263851Y-51067336D01*
X61304650Y-51094596D01*
X61342579Y-51125724D01*
X61377276Y-51160421D01*
X61408404Y-51198350D01*
X61435664Y-51239149D01*
X61458795Y-51282422D01*
X61477572Y-51327755D01*
X61491816Y-51374710D01*
X61501388Y-51422835D01*
X61506198Y-51471666D01*
X61506198Y-51496200D01*
X61506800Y-51496200D01*
X61506800Y-51996200D01*
X60006800Y-51996200D01*
G37*
G36*
X61506198Y-52796200D02*
G01*
X61506198Y-52820734D01*
X61501388Y-52869565D01*
X61491816Y-52917690D01*
X61477572Y-52964645D01*
X61458795Y-53009978D01*
X61435664Y-53053251D01*
X61408404Y-53094050D01*
X61377276Y-53131979D01*
X61342579Y-53166676D01*
X61304650Y-53197804D01*
X61263851Y-53225064D01*
X61220578Y-53248195D01*
X61175245Y-53266972D01*
X61128290Y-53281216D01*
X61080165Y-53290788D01*
X61031334Y-53295598D01*
X61006800Y-53295598D01*
X61006800Y-53296200D01*
X60506800Y-53296200D01*
X60506800Y-53295598D01*
X60482266Y-53295598D01*
X60433435Y-53290788D01*
X60385310Y-53281216D01*
X60338355Y-53266972D01*
X60293022Y-53248195D01*
X60249749Y-53225064D01*
X60208950Y-53197804D01*
X60171021Y-53166676D01*
X60136324Y-53131979D01*
X60105196Y-53094050D01*
X60077936Y-53053251D01*
X60054805Y-53009978D01*
X60036028Y-52964645D01*
X60021784Y-52917690D01*
X60012212Y-52869565D01*
X60007402Y-52820734D01*
X60007402Y-52796200D01*
X60006800Y-52796200D01*
X60006800Y-52296200D01*
X61506800Y-52296200D01*
X61506800Y-52796200D01*
X61506198Y-52796200D01*
G37*
%TD*%
D12*
%TO.C,D4*%
X64333120Y-45596720D03*
X64333120Y-46696720D03*
D13*
X63783120Y-46146720D03*
X64883120Y-46146720D03*
D14*
X64333120Y-46146720D03*
G36*
G01*
X63258120Y-45461720D02*
X63258120Y-46831720D01*
G75*
G02*
X63068120Y-47021720I-190000J0D01*
G01*
X62498120Y-47021720D01*
G75*
G02*
X62308120Y-46831720I0J190000D01*
G01*
X62308120Y-45461720D01*
G75*
G02*
X62498120Y-45271720I190000J0D01*
G01*
X63068120Y-45271720D01*
G75*
G02*
X63258120Y-45461720I0J-190000D01*
G01*
G37*
G36*
G01*
X66358120Y-45461720D02*
X66358120Y-46831720D01*
G75*
G02*
X66168120Y-47021720I-190000J0D01*
G01*
X65598120Y-47021720D01*
G75*
G02*
X65408120Y-46831720I0J190000D01*
G01*
X65408120Y-45461720D01*
G75*
G02*
X65598120Y-45271720I190000J0D01*
G01*
X66168120Y-45271720D01*
G75*
G02*
X66358120Y-45461720I0J-190000D01*
G01*
G37*
%TD*%
D12*
%TO.C,D3*%
X64358520Y-56112320D03*
X64358520Y-57212320D03*
D13*
X63808520Y-56662320D03*
X64908520Y-56662320D03*
D14*
X64358520Y-56662320D03*
G36*
G01*
X63283520Y-55977320D02*
X63283520Y-57347320D01*
G75*
G02*
X63093520Y-57537320I-190000J0D01*
G01*
X62523520Y-57537320D01*
G75*
G02*
X62333520Y-57347320I0J190000D01*
G01*
X62333520Y-55977320D01*
G75*
G02*
X62523520Y-55787320I190000J0D01*
G01*
X63093520Y-55787320D01*
G75*
G02*
X63283520Y-55977320I0J-190000D01*
G01*
G37*
G36*
G01*
X66383520Y-55977320D02*
X66383520Y-57347320D01*
G75*
G02*
X66193520Y-57537320I-190000J0D01*
G01*
X65623520Y-57537320D01*
G75*
G02*
X65433520Y-57347320I0J190000D01*
G01*
X65433520Y-55977320D01*
G75*
G02*
X65623520Y-55787320I190000J0D01*
G01*
X66193520Y-55787320D01*
G75*
G02*
X66383520Y-55977320I0J-190000D01*
G01*
G37*
%TD*%
D12*
%TO.C,D2*%
X55620920Y-45596720D03*
X55620920Y-46696720D03*
D13*
X55070920Y-46146720D03*
X56170920Y-46146720D03*
D14*
X55620920Y-46146720D03*
G36*
G01*
X54545920Y-45461720D02*
X54545920Y-46831720D01*
G75*
G02*
X54355920Y-47021720I-190000J0D01*
G01*
X53785920Y-47021720D01*
G75*
G02*
X53595920Y-46831720I0J190000D01*
G01*
X53595920Y-45461720D01*
G75*
G02*
X53785920Y-45271720I190000J0D01*
G01*
X54355920Y-45271720D01*
G75*
G02*
X54545920Y-45461720I0J-190000D01*
G01*
G37*
G36*
G01*
X57645920Y-45461720D02*
X57645920Y-46831720D01*
G75*
G02*
X57455920Y-47021720I-190000J0D01*
G01*
X56885920Y-47021720D01*
G75*
G02*
X56695920Y-46831720I0J190000D01*
G01*
X56695920Y-45461720D01*
G75*
G02*
X56885920Y-45271720I190000J0D01*
G01*
X57455920Y-45271720D01*
G75*
G02*
X57645920Y-45461720I0J-190000D01*
G01*
G37*
%TD*%
D12*
%TO.C,D1*%
X55626000Y-56117400D03*
X55626000Y-57217400D03*
D13*
X55076000Y-56667400D03*
X56176000Y-56667400D03*
D14*
X55626000Y-56667400D03*
G36*
G01*
X54551000Y-55982400D02*
X54551000Y-57352400D01*
G75*
G02*
X54361000Y-57542400I-190000J0D01*
G01*
X53791000Y-57542400D01*
G75*
G02*
X53601000Y-57352400I0J190000D01*
G01*
X53601000Y-55982400D01*
G75*
G02*
X53791000Y-55792400I190000J0D01*
G01*
X54361000Y-55792400D01*
G75*
G02*
X54551000Y-55982400I0J-190000D01*
G01*
G37*
G36*
G01*
X57651000Y-55982400D02*
X57651000Y-57352400D01*
G75*
G02*
X57461000Y-57542400I-190000J0D01*
G01*
X56891000Y-57542400D01*
G75*
G02*
X56701000Y-57352400I0J190000D01*
G01*
X56701000Y-55982400D01*
G75*
G02*
X56891000Y-55792400I190000J0D01*
G01*
X57461000Y-55792400D01*
G75*
G02*
X57651000Y-55982400I0J-190000D01*
G01*
G37*
%TD*%
D15*
%TO.C,FID3*%
X65074800Y-62255400D03*
%TD*%
%TO.C,FID2*%
X42367200Y-58826400D03*
%TD*%
%TO.C,FID1*%
X42240200Y-42570400D03*
%TD*%
D16*
%TO.C,J7*%
X68884800Y-63555880D03*
D17*
X68884800Y-66095880D03*
X66344800Y-63555880D03*
X66344800Y-66095880D03*
X63804800Y-63555880D03*
X63804800Y-66095880D03*
X61264800Y-63555880D03*
X61264800Y-66095880D03*
%TD*%
D18*
%TO.C,F2*%
X50900480Y-48285080D03*
X52100480Y-43185080D03*
%TD*%
%TO.C,F1*%
X52106680Y-53167600D03*
X50906680Y-58267600D03*
%TD*%
D19*
%TO.C,R10*%
X69125400Y-43815000D03*
X70625400Y-43815000D03*
%TD*%
%TO.C,R9*%
X70638800Y-42341800D03*
X69138800Y-42341800D03*
%TD*%
D20*
%TO.C,R8*%
X63169800Y-42781920D03*
X63169800Y-41281920D03*
%TD*%
D19*
%TO.C,R7*%
X69137400Y-54305200D03*
X70637400Y-54305200D03*
%TD*%
D20*
%TO.C,R6*%
X70408800Y-51548600D03*
X70408800Y-53048600D03*
%TD*%
%TO.C,R5*%
X62758320Y-53297520D03*
X62758320Y-51797520D03*
%TD*%
D19*
%TO.C,R4*%
X60375800Y-43789600D03*
X61875800Y-43789600D03*
%TD*%
%TO.C,R3*%
X60362400Y-42316400D03*
X61862400Y-42316400D03*
%TD*%
D20*
%TO.C,R2*%
X54046120Y-42781920D03*
X54046120Y-41281920D03*
%TD*%
%TO.C,R1*%
X54046120Y-53297520D03*
X54046120Y-51797520D03*
%TD*%
D16*
%TO.C,J5*%
X43434000Y-45720000D03*
D21*
X45974000Y-45720000D03*
X43434000Y-48260000D03*
X45974000Y-48260000D03*
X43434000Y-50800000D03*
X45974000Y-50800000D03*
X43434000Y-53340000D03*
X45974000Y-53340000D03*
X43434000Y-55880000D03*
X45974000Y-55880000D03*
%TD*%
D22*
%TO.C,Q3*%
X69762880Y-45364360D03*
X69762880Y-47264360D03*
X67762880Y-46314360D03*
%TD*%
%TO.C,Q2*%
X69757800Y-55849480D03*
X69757800Y-57749480D03*
X67757800Y-56799480D03*
%TD*%
%TO.C,Q1*%
X59010040Y-46273720D03*
X61010040Y-47223720D03*
X61010040Y-45323720D03*
%TD*%
D23*
%TO.C,J4*%
X65018920Y-43632120D03*
D24*
X67518920Y-43632120D03*
%TD*%
D23*
%TO.C,J3*%
X65018920Y-54147720D03*
D24*
X67518920Y-54147720D03*
%TD*%
D16*
%TO.C,JP4*%
X63850520Y-49423320D03*
D17*
X66390520Y-49423320D03*
X68930520Y-49423320D03*
%TD*%
D16*
%TO.C,JP3*%
X63875920Y-59913520D03*
D17*
X66415920Y-59913520D03*
X68955920Y-59913520D03*
%TD*%
D23*
%TO.C,J2*%
X56281320Y-43632120D03*
D24*
X58781320Y-43632120D03*
%TD*%
D23*
%TO.C,J1*%
X56306720Y-54147720D03*
D24*
X58806720Y-54147720D03*
%TD*%
D16*
%TO.C,JP2*%
X55138320Y-49423320D03*
D17*
X57678320Y-49423320D03*
X60218320Y-49423320D03*
%TD*%
D16*
%TO.C,JP1*%
X55138320Y-59913520D03*
D17*
X57678320Y-59913520D03*
X60218320Y-59913520D03*
%TD*%
D23*
%TO.C,J6*%
X53969920Y-64602360D03*
D24*
X56469920Y-64602360D03*
%TD*%
M02*
