%TF.GenerationSoftware,KiCad,Pcbnew,(5.1.10-1-10_14)*%
%TF.CreationDate,2022-01-10T10:06:08-08:00*%
%TF.ProjectId,FanExpander-Lite,46616e45-7870-4616-9e64-65722d4c6974,V1.0.2*%
%TF.SameCoordinates,Original*%
%TF.FileFunction,Copper,L2,Bot*%
%TF.FilePolarity,Positive*%
%FSLAX46Y46*%
G04 Gerber Fmt 4.6, Leading zero omitted, Abs format (unit mm)*
G04 Created by KiCad (PCBNEW (5.1.10-1-10_14)) date 2022-01-10 10:06:08*
%MOMM*%
%LPD*%
G01*
G04 APERTURE LIST*
%TA.AperFunction,EtchedComponent*%
%ADD10C,0.100000*%
%TD*%
%TA.AperFunction,SMDPad,CuDef*%
%ADD11C,0.500000*%
%TD*%
%TA.AperFunction,ComponentPad*%
%ADD12R,1.700000X1.700000*%
%TD*%
%TA.AperFunction,ComponentPad*%
%ADD13O,1.700000X1.700000*%
%TD*%
%TA.AperFunction,ComponentPad*%
%ADD14C,1.710000*%
%TD*%
%TA.AperFunction,SMDPad,CuDef*%
%ADD15R,0.500000X0.900000*%
%TD*%
%TA.AperFunction,SMDPad,CuDef*%
%ADD16R,0.900000X0.500000*%
%TD*%
%TA.AperFunction,SMDPad,CuDef*%
%ADD17C,0.100000*%
%TD*%
%TA.AperFunction,ComponentPad*%
%ADD18C,1.700000*%
%TD*%
%TA.AperFunction,SMDPad,CuDef*%
%ADD19R,0.900000X0.800000*%
%TD*%
%TA.AperFunction,ComponentPad*%
%ADD20R,1.750000X1.750000*%
%TD*%
%TA.AperFunction,ComponentPad*%
%ADD21C,1.750000*%
%TD*%
%TA.AperFunction,ViaPad*%
%ADD22C,0.800000*%
%TD*%
%TA.AperFunction,Conductor*%
%ADD23C,0.500000*%
%TD*%
%TA.AperFunction,Conductor*%
%ADD24C,0.250000*%
%TD*%
%TA.AperFunction,Conductor*%
%ADD25C,0.254000*%
%TD*%
%TA.AperFunction,Conductor*%
%ADD26C,0.100000*%
%TD*%
G04 APERTURE END LIST*
D10*
%TO.C,JP5*%
G36*
X60456800Y-52396200D02*
G01*
X60456800Y-51896200D01*
X61056800Y-51896200D01*
X61056800Y-52396200D01*
X60456800Y-52396200D01*
G37*
%TD*%
D11*
%TO.P,FID3,~*%
%TO.N,N/C*%
X65074800Y-62255400D03*
%TD*%
%TO.P,FID2,~*%
%TO.N,N/C*%
X42367200Y-58826400D03*
%TD*%
%TO.P,FID1,~*%
%TO.N,N/C*%
X42240200Y-42570400D03*
%TD*%
%TO.P,D4,2*%
%TO.N,Net-(D4-Pad2)*%
%TA.AperFunction,SMDPad,CuDef*%
G36*
G01*
X63258120Y-45461720D02*
X63258120Y-46831720D01*
G75*
G02*
X63068120Y-47021720I-190000J0D01*
G01*
X62498120Y-47021720D01*
G75*
G02*
X62308120Y-46831720I0J190000D01*
G01*
X62308120Y-45461720D01*
G75*
G02*
X62498120Y-45271720I190000J0D01*
G01*
X63068120Y-45271720D01*
G75*
G02*
X63258120Y-45461720I0J-190000D01*
G01*
G37*
%TD.AperFunction*%
%TO.P,D4,1*%
%TO.N,/FAN4_Drive*%
%TA.AperFunction,SMDPad,CuDef*%
G36*
G01*
X66358120Y-45461720D02*
X66358120Y-46831720D01*
G75*
G02*
X66168120Y-47021720I-190000J0D01*
G01*
X65598120Y-47021720D01*
G75*
G02*
X65408120Y-46831720I0J190000D01*
G01*
X65408120Y-45461720D01*
G75*
G02*
X65598120Y-45271720I190000J0D01*
G01*
X66168120Y-45271720D01*
G75*
G02*
X66358120Y-45461720I0J-190000D01*
G01*
G37*
%TD.AperFunction*%
%TD*%
%TO.P,D3,2*%
%TO.N,Net-(D3-Pad2)*%
%TA.AperFunction,SMDPad,CuDef*%
G36*
G01*
X63283520Y-55977320D02*
X63283520Y-57347320D01*
G75*
G02*
X63093520Y-57537320I-190000J0D01*
G01*
X62523520Y-57537320D01*
G75*
G02*
X62333520Y-57347320I0J190000D01*
G01*
X62333520Y-55977320D01*
G75*
G02*
X62523520Y-55787320I190000J0D01*
G01*
X63093520Y-55787320D01*
G75*
G02*
X63283520Y-55977320I0J-190000D01*
G01*
G37*
%TD.AperFunction*%
%TO.P,D3,1*%
%TO.N,/FAN3_Drive*%
%TA.AperFunction,SMDPad,CuDef*%
G36*
G01*
X66383520Y-55977320D02*
X66383520Y-57347320D01*
G75*
G02*
X66193520Y-57537320I-190000J0D01*
G01*
X65623520Y-57537320D01*
G75*
G02*
X65433520Y-57347320I0J190000D01*
G01*
X65433520Y-55977320D01*
G75*
G02*
X65623520Y-55787320I190000J0D01*
G01*
X66193520Y-55787320D01*
G75*
G02*
X66383520Y-55977320I0J-190000D01*
G01*
G37*
%TD.AperFunction*%
%TD*%
%TO.P,D2,2*%
%TO.N,Net-(D2-Pad2)*%
%TA.AperFunction,SMDPad,CuDef*%
G36*
G01*
X54545920Y-45461720D02*
X54545920Y-46831720D01*
G75*
G02*
X54355920Y-47021720I-190000J0D01*
G01*
X53785920Y-47021720D01*
G75*
G02*
X53595920Y-46831720I0J190000D01*
G01*
X53595920Y-45461720D01*
G75*
G02*
X53785920Y-45271720I190000J0D01*
G01*
X54355920Y-45271720D01*
G75*
G02*
X54545920Y-45461720I0J-190000D01*
G01*
G37*
%TD.AperFunction*%
%TO.P,D2,1*%
%TO.N,/FAN2_Drive*%
%TA.AperFunction,SMDPad,CuDef*%
G36*
G01*
X57645920Y-45461720D02*
X57645920Y-46831720D01*
G75*
G02*
X57455920Y-47021720I-190000J0D01*
G01*
X56885920Y-47021720D01*
G75*
G02*
X56695920Y-46831720I0J190000D01*
G01*
X56695920Y-45461720D01*
G75*
G02*
X56885920Y-45271720I190000J0D01*
G01*
X57455920Y-45271720D01*
G75*
G02*
X57645920Y-45461720I0J-190000D01*
G01*
G37*
%TD.AperFunction*%
%TD*%
%TO.P,D1,2*%
%TO.N,Net-(D1-Pad2)*%
%TA.AperFunction,SMDPad,CuDef*%
G36*
G01*
X54551000Y-55982400D02*
X54551000Y-57352400D01*
G75*
G02*
X54361000Y-57542400I-190000J0D01*
G01*
X53791000Y-57542400D01*
G75*
G02*
X53601000Y-57352400I0J190000D01*
G01*
X53601000Y-55982400D01*
G75*
G02*
X53791000Y-55792400I190000J0D01*
G01*
X54361000Y-55792400D01*
G75*
G02*
X54551000Y-55982400I0J-190000D01*
G01*
G37*
%TD.AperFunction*%
%TO.P,D1,1*%
%TO.N,/FAN1_Drive*%
%TA.AperFunction,SMDPad,CuDef*%
G36*
G01*
X57651000Y-55982400D02*
X57651000Y-57352400D01*
G75*
G02*
X57461000Y-57542400I-190000J0D01*
G01*
X56891000Y-57542400D01*
G75*
G02*
X56701000Y-57352400I0J190000D01*
G01*
X56701000Y-55982400D01*
G75*
G02*
X56891000Y-55792400I190000J0D01*
G01*
X57461000Y-55792400D01*
G75*
G02*
X57651000Y-55982400I0J-190000D01*
G01*
G37*
%TD.AperFunction*%
%TD*%
D12*
%TO.P,J7,1*%
%TO.N,GND*%
X68884800Y-63555880D03*
D13*
%TO.P,J7,2*%
%TO.N,/PASS0*%
X68884800Y-66095880D03*
%TO.P,J7,3*%
%TO.N,GND*%
X66344800Y-63555880D03*
%TO.P,J7,4*%
%TO.N,/PASS1*%
X66344800Y-66095880D03*
%TO.P,J7,5*%
%TO.N,GND*%
X63804800Y-63555880D03*
%TO.P,J7,6*%
%TO.N,/PASS2*%
X63804800Y-66095880D03*
%TO.P,J7,7*%
%TO.N,GND*%
X61264800Y-63555880D03*
%TO.P,J7,8*%
%TO.N,/PASS3*%
X61264800Y-66095880D03*
%TD*%
D14*
%TO.P,F2,2*%
%TO.N,/5V_unFused*%
X50900480Y-48285080D03*
%TO.P,F2,1*%
%TO.N,+5V*%
X52100480Y-43185080D03*
%TD*%
%TO.P,F1,2*%
%TO.N,+24V*%
X52106680Y-53167600D03*
%TO.P,F1,1*%
%TO.N,/24V_unFused*%
X50906680Y-58267600D03*
%TD*%
D15*
%TO.P,R10,1*%
%TO.N,GND*%
X69125400Y-43815000D03*
%TO.P,R10,2*%
%TO.N,/FAN4*%
X70625400Y-43815000D03*
%TD*%
%TO.P,R9,2*%
%TO.N,/FAN4*%
X70638800Y-42341800D03*
%TO.P,R9,1*%
%TO.N,Net-(Q3-Pad1)*%
X69138800Y-42341800D03*
%TD*%
D16*
%TO.P,R8,1*%
%TO.N,Net-(D4-Pad2)*%
X63169800Y-42781920D03*
%TO.P,R8,2*%
%TO.N,/LED_Drive*%
X63169800Y-41281920D03*
%TD*%
D15*
%TO.P,R7,1*%
%TO.N,GND*%
X69137400Y-54305200D03*
%TO.P,R7,2*%
%TO.N,/FAN3*%
X70637400Y-54305200D03*
%TD*%
D16*
%TO.P,R6,1*%
%TO.N,Net-(Q2-Pad1)*%
X70408800Y-51548600D03*
%TO.P,R6,2*%
%TO.N,/FAN3*%
X70408800Y-53048600D03*
%TD*%
%TO.P,R5,1*%
%TO.N,Net-(D3-Pad2)*%
X62758320Y-53297520D03*
%TO.P,R5,2*%
%TO.N,/LED_Drive*%
X62758320Y-51797520D03*
%TD*%
D15*
%TO.P,R4,2*%
%TO.N,GND*%
X60375800Y-43789600D03*
%TO.P,R4,1*%
%TO.N,/FAN2*%
X61875800Y-43789600D03*
%TD*%
%TO.P,R3,1*%
%TO.N,Net-(Q1-Pad1)*%
X60362400Y-42316400D03*
%TO.P,R3,2*%
%TO.N,/FAN2*%
X61862400Y-42316400D03*
%TD*%
D16*
%TO.P,R2,1*%
%TO.N,Net-(D2-Pad2)*%
X54046120Y-42781920D03*
%TO.P,R2,2*%
%TO.N,/LED_Drive*%
X54046120Y-41281920D03*
%TD*%
%TO.P,R1,1*%
%TO.N,Net-(D1-Pad2)*%
X54046120Y-53297520D03*
%TO.P,R1,2*%
%TO.N,/LED_Drive*%
X54046120Y-51797520D03*
%TD*%
%TA.AperFunction,SMDPad,CuDef*%
D17*
%TO.P,JP5,2*%
%TO.N,/LED_Drive*%
G36*
X61506198Y-52796200D02*
G01*
X61506198Y-52820734D01*
X61501388Y-52869565D01*
X61491816Y-52917690D01*
X61477572Y-52964645D01*
X61458795Y-53009978D01*
X61435664Y-53053251D01*
X61408404Y-53094050D01*
X61377276Y-53131979D01*
X61342579Y-53166676D01*
X61304650Y-53197804D01*
X61263851Y-53225064D01*
X61220578Y-53248195D01*
X61175245Y-53266972D01*
X61128290Y-53281216D01*
X61080165Y-53290788D01*
X61031334Y-53295598D01*
X61006800Y-53295598D01*
X61006800Y-53296200D01*
X60506800Y-53296200D01*
X60506800Y-53295598D01*
X60482266Y-53295598D01*
X60433435Y-53290788D01*
X60385310Y-53281216D01*
X60338355Y-53266972D01*
X60293022Y-53248195D01*
X60249749Y-53225064D01*
X60208950Y-53197804D01*
X60171021Y-53166676D01*
X60136324Y-53131979D01*
X60105196Y-53094050D01*
X60077936Y-53053251D01*
X60054805Y-53009978D01*
X60036028Y-52964645D01*
X60021784Y-52917690D01*
X60012212Y-52869565D01*
X60007402Y-52820734D01*
X60007402Y-52796200D01*
X60006800Y-52796200D01*
X60006800Y-52296200D01*
X61506800Y-52296200D01*
X61506800Y-52796200D01*
X61506198Y-52796200D01*
G37*
%TD.AperFunction*%
%TA.AperFunction,SMDPad,CuDef*%
%TO.P,JP5,1*%
%TO.N,+5V*%
G36*
X60006800Y-51996200D02*
G01*
X60006800Y-51496200D01*
X60007402Y-51496200D01*
X60007402Y-51471666D01*
X60012212Y-51422835D01*
X60021784Y-51374710D01*
X60036028Y-51327755D01*
X60054805Y-51282422D01*
X60077936Y-51239149D01*
X60105196Y-51198350D01*
X60136324Y-51160421D01*
X60171021Y-51125724D01*
X60208950Y-51094596D01*
X60249749Y-51067336D01*
X60293022Y-51044205D01*
X60338355Y-51025428D01*
X60385310Y-51011184D01*
X60433435Y-51001612D01*
X60482266Y-50996802D01*
X60506800Y-50996802D01*
X60506800Y-50996200D01*
X61006800Y-50996200D01*
X61006800Y-50996802D01*
X61031334Y-50996802D01*
X61080165Y-51001612D01*
X61128290Y-51011184D01*
X61175245Y-51025428D01*
X61220578Y-51044205D01*
X61263851Y-51067336D01*
X61304650Y-51094596D01*
X61342579Y-51125724D01*
X61377276Y-51160421D01*
X61408404Y-51198350D01*
X61435664Y-51239149D01*
X61458795Y-51282422D01*
X61477572Y-51327755D01*
X61491816Y-51374710D01*
X61501388Y-51422835D01*
X61506198Y-51471666D01*
X61506198Y-51496200D01*
X61506800Y-51496200D01*
X61506800Y-51996200D01*
X60006800Y-51996200D01*
G37*
%TD.AperFunction*%
%TD*%
D12*
%TO.P,J5,1*%
%TO.N,/FAN2*%
X43434000Y-45720000D03*
D18*
%TO.P,J5,2*%
%TO.N,/FAN4*%
X45974000Y-45720000D03*
%TO.P,J5,3*%
%TO.N,/PASS0*%
X43434000Y-48260000D03*
%TO.P,J5,4*%
%TO.N,Net-(J5-Pad4)*%
X45974000Y-48260000D03*
%TO.P,J5,5*%
%TO.N,/PASS1*%
X43434000Y-50800000D03*
%TO.P,J5,6*%
%TO.N,/FAN3*%
X45974000Y-50800000D03*
%TO.P,J5,7*%
%TO.N,/PASS2*%
X43434000Y-53340000D03*
%TO.P,J5,8*%
%TO.N,/PASS3*%
X45974000Y-53340000D03*
%TO.P,J5,9*%
%TO.N,GND*%
X43434000Y-55880000D03*
%TO.P,J5,10*%
%TO.N,/5V_unFused*%
X45974000Y-55880000D03*
%TD*%
D19*
%TO.P,Q3,1*%
%TO.N,Net-(Q3-Pad1)*%
X69762880Y-45364360D03*
%TO.P,Q3,2*%
%TO.N,GND*%
X69762880Y-47264360D03*
%TO.P,Q3,3*%
%TO.N,/FAN4_Drive*%
X67762880Y-46314360D03*
%TD*%
%TO.P,Q2,1*%
%TO.N,Net-(Q2-Pad1)*%
X69757800Y-55849480D03*
%TO.P,Q2,2*%
%TO.N,GND*%
X69757800Y-57749480D03*
%TO.P,Q2,3*%
%TO.N,/FAN3_Drive*%
X67757800Y-56799480D03*
%TD*%
%TO.P,Q1,3*%
%TO.N,/FAN2_Drive*%
X59010040Y-46273720D03*
%TO.P,Q1,2*%
%TO.N,GND*%
X61010040Y-47223720D03*
%TO.P,Q1,1*%
%TO.N,Net-(Q1-Pad1)*%
X61010040Y-45323720D03*
%TD*%
D20*
%TO.P,J4,1*%
%TO.N,/F4V*%
X65018920Y-43632120D03*
D21*
%TO.P,J4,2*%
%TO.N,/FAN4_Drive*%
X67518920Y-43632120D03*
%TD*%
D20*
%TO.P,J3,1*%
%TO.N,/F3V*%
X65018920Y-54147720D03*
D21*
%TO.P,J3,2*%
%TO.N,/FAN3_Drive*%
X67518920Y-54147720D03*
%TD*%
D12*
%TO.P,JP4,1*%
%TO.N,+5V*%
X63850520Y-49423320D03*
D13*
%TO.P,JP4,2*%
%TO.N,/F4V*%
X66390520Y-49423320D03*
%TO.P,JP4,3*%
%TO.N,+24V*%
X68930520Y-49423320D03*
%TD*%
D12*
%TO.P,JP3,1*%
%TO.N,+5V*%
X63875920Y-59913520D03*
D13*
%TO.P,JP3,2*%
%TO.N,/F3V*%
X66415920Y-59913520D03*
%TO.P,JP3,3*%
%TO.N,+24V*%
X68955920Y-59913520D03*
%TD*%
D20*
%TO.P,J2,1*%
%TO.N,/F2V*%
X56281320Y-43632120D03*
D21*
%TO.P,J2,2*%
%TO.N,/FAN2_Drive*%
X58781320Y-43632120D03*
%TD*%
D20*
%TO.P,J1,1*%
%TO.N,/F1V*%
X56306720Y-54147720D03*
D21*
%TO.P,J1,2*%
%TO.N,/FAN1_Drive*%
X58806720Y-54147720D03*
%TD*%
D12*
%TO.P,JP2,1*%
%TO.N,+5V*%
X55138320Y-49423320D03*
D13*
%TO.P,JP2,2*%
%TO.N,/F2V*%
X57678320Y-49423320D03*
%TO.P,JP2,3*%
%TO.N,+24V*%
X60218320Y-49423320D03*
%TD*%
D12*
%TO.P,JP1,1*%
%TO.N,+5V*%
X55138320Y-59913520D03*
D13*
%TO.P,JP1,2*%
%TO.N,/F1V*%
X57678320Y-59913520D03*
%TO.P,JP1,3*%
%TO.N,+24V*%
X60218320Y-59913520D03*
%TD*%
D20*
%TO.P,J6,1*%
%TO.N,/24V_unFused*%
X53969920Y-64602360D03*
D21*
%TO.P,J6,2*%
%TO.N,/FAN1_Drive*%
X56469920Y-64602360D03*
%TD*%
D22*
%TO.N,/FAN2*%
X61212402Y-42037000D03*
%TO.N,/FAN4*%
X69988802Y-42138600D03*
%TO.N,/FAN3*%
X70545800Y-52451000D03*
%TD*%
D23*
%TO.N,GND*%
X60110039Y-46323719D02*
X61010040Y-47223720D01*
X60110039Y-44055361D02*
X60110039Y-46323719D01*
X60375800Y-43789600D02*
X60110039Y-44055361D01*
X68857799Y-56849479D02*
X69757800Y-57749480D01*
X68857799Y-54584801D02*
X68857799Y-56849479D01*
X69137400Y-54305200D02*
X68857799Y-54584801D01*
X70255921Y-59289519D02*
X70255921Y-62184759D01*
X69757800Y-58791398D02*
X70255921Y-59289519D01*
X70255921Y-62184759D02*
X68884800Y-63555880D01*
X69757800Y-57749480D02*
X69757800Y-58791398D01*
X68884800Y-63555880D02*
X61264800Y-63555880D01*
X70230521Y-50047321D02*
X70230521Y-47732001D01*
X69058789Y-51219053D02*
X70230521Y-50047321D01*
X69058789Y-53768375D02*
X69058789Y-51219053D01*
X70230521Y-47732001D02*
X69762880Y-47264360D01*
X69137400Y-53846986D02*
X69058789Y-53768375D01*
X69137400Y-54305200D02*
X69137400Y-53846986D01*
X68862879Y-46364359D02*
X69762880Y-47264360D01*
X69125400Y-43815000D02*
X68862879Y-44077521D01*
X68862879Y-44077521D02*
X68862879Y-46364359D01*
X46048667Y-57180001D02*
X44734001Y-57180001D01*
X44734001Y-57180001D02*
X43434000Y-55880000D01*
X50182809Y-64203609D02*
X50182809Y-61314143D01*
X50182809Y-61314143D02*
X46048667Y-57180001D01*
X51906561Y-65927361D02*
X50182809Y-64203609D01*
X58893319Y-65927361D02*
X51906561Y-65927361D01*
X61264800Y-63555880D02*
X58893319Y-65927361D01*
X69230510Y-47796730D02*
X69762880Y-47264360D01*
X61583050Y-47796730D02*
X69230510Y-47796730D01*
X61010040Y-47223720D02*
X61583050Y-47796730D01*
%TO.N,/FAN1_Drive*%
X58806720Y-55036680D02*
X57176000Y-56667400D01*
X58806720Y-54147720D02*
X58806720Y-55036680D01*
X53838319Y-58703519D02*
X53838319Y-61970759D01*
X56273398Y-58613519D02*
X53928319Y-58613519D01*
X53838319Y-61970759D02*
X56469920Y-64602360D01*
X57176000Y-57710917D02*
X56273398Y-58613519D01*
X53928319Y-58613519D02*
X53838319Y-58703519D01*
X57176000Y-56667400D02*
X57176000Y-57710917D01*
D24*
%TO.N,Net-(D3-Pad2)*%
X62808520Y-53347720D02*
X62758320Y-53297520D01*
X62808520Y-56662320D02*
X62808520Y-53347720D01*
D23*
%TO.N,/FAN2_Drive*%
X59010040Y-43860840D02*
X58781320Y-43632120D01*
X59010040Y-46273720D02*
X59010040Y-43860840D01*
X58883040Y-46146720D02*
X59010040Y-46273720D01*
X57170920Y-46146720D02*
X58883040Y-46146720D01*
D24*
%TO.N,Net-(D4-Pad2)*%
X63169800Y-44893300D02*
X62783120Y-45279980D01*
X62783120Y-45279980D02*
X62783120Y-46146720D01*
X63169800Y-42781920D02*
X63169800Y-44893300D01*
D23*
%TO.N,/FAN3_Drive*%
X67518920Y-56560600D02*
X67757800Y-56799480D01*
X67518920Y-54147720D02*
X67518920Y-56560600D01*
X66045680Y-56799480D02*
X65908520Y-56662320D01*
X67757800Y-56799480D02*
X66045680Y-56799480D01*
%TO.N,/FAN4_Drive*%
X67595240Y-46146720D02*
X67762880Y-46314360D01*
X65883120Y-46146720D02*
X67595240Y-46146720D01*
X67762880Y-43876080D02*
X67518920Y-43632120D01*
X67762880Y-46314360D02*
X67762880Y-43876080D01*
%TO.N,+24V*%
X67655919Y-58613519D02*
X68955920Y-59913520D01*
X61518321Y-58613519D02*
X67655919Y-58613519D01*
X60218320Y-59913520D02*
X61518321Y-58613519D01*
X60218320Y-49423320D02*
X58918319Y-48123319D01*
X52106680Y-49944958D02*
X52106680Y-53167600D01*
X53928319Y-48123319D02*
X52106680Y-49944958D01*
X58918319Y-48123319D02*
X53928319Y-48123319D01*
%TO.N,+5V*%
X56438321Y-61213521D02*
X55138320Y-59913520D01*
X63875920Y-59913520D02*
X62575919Y-61213521D01*
X62575919Y-61213521D02*
X56438321Y-61213521D01*
X62829680Y-49423320D02*
X63850520Y-49423320D01*
X60756800Y-51496200D02*
X62829680Y-49423320D01*
X57211200Y-51496200D02*
X55138320Y-49423320D01*
X60756800Y-51496200D02*
X57211200Y-51496200D01*
D24*
%TO.N,/FAN2*%
X61875800Y-42329800D02*
X61862400Y-42316400D01*
X61875800Y-43789600D02*
X61875800Y-42329800D01*
X61491802Y-42316400D02*
X61212402Y-42037000D01*
X61862400Y-42316400D02*
X61491802Y-42316400D01*
%TO.N,/FAN4*%
X70638800Y-42341800D02*
X70638800Y-43801600D01*
X70638800Y-43801600D02*
X70625400Y-43815000D01*
X70435600Y-42138600D02*
X70638800Y-42341800D01*
X69988802Y-42138600D02*
X70435600Y-42138600D01*
%TO.N,/FAN3*%
X70408800Y-54076600D02*
X70637400Y-54305200D01*
X70408800Y-53048600D02*
X70408800Y-54076600D01*
X70510400Y-52947000D02*
X70408800Y-53048600D01*
X70510400Y-52324000D02*
X70510400Y-52947000D01*
%TO.N,Net-(Q1-Pad1)*%
X61010040Y-42964040D02*
X61010040Y-45323720D01*
X60362400Y-42316400D02*
X61010040Y-42964040D01*
%TO.N,Net-(Q2-Pad1)*%
X69633799Y-53530199D02*
X69757800Y-53654200D01*
X69757800Y-53654200D02*
X69757800Y-55849480D01*
X69633799Y-52323601D02*
X69633799Y-53530199D01*
X70408800Y-51548600D02*
X69633799Y-52323601D01*
%TO.N,Net-(Q3-Pad1)*%
X69762880Y-45364360D02*
X69762880Y-42965880D01*
X69762880Y-42965880D02*
X69138800Y-42341800D01*
D23*
%TO.N,/24V_unFused*%
X50906680Y-61539120D02*
X53969920Y-64602360D01*
X50906680Y-58267600D02*
X50906680Y-61539120D01*
%TO.N,/5V_unFused*%
X50900480Y-50953520D02*
X50900480Y-48285080D01*
X45974000Y-55880000D02*
X50900480Y-50953520D01*
D24*
%TO.N,/LED_Drive*%
X54046120Y-41281920D02*
X63169800Y-41281920D01*
X61759640Y-52796200D02*
X62758320Y-51797520D01*
X60756800Y-52796200D02*
X61759640Y-52796200D01*
X60756800Y-52796200D02*
X55044800Y-52796200D01*
X55044800Y-52796200D02*
X54046120Y-51797520D01*
%TO.N,Net-(D1-Pad2)*%
X54046120Y-56637520D02*
X54076000Y-56667400D01*
X54046120Y-53297520D02*
X54046120Y-56637520D01*
%TO.N,Net-(D2-Pad2)*%
X54046120Y-46121920D02*
X54070920Y-46146720D01*
X54046120Y-42781920D02*
X54046120Y-46121920D01*
%TD*%
D25*
%TO.N,GND*%
X70043550Y-58784480D02*
X70207800Y-58787552D01*
X70332282Y-58775292D01*
X70451980Y-58738982D01*
X70510800Y-58707541D01*
X70510800Y-67480921D01*
X70499948Y-67591601D01*
X70477179Y-67667014D01*
X70440197Y-67736568D01*
X70390408Y-67797615D01*
X70329711Y-67847828D01*
X70260414Y-67885297D01*
X70185164Y-67908591D01*
X70076606Y-67920001D01*
X50824411Y-67919999D01*
X50705594Y-67911198D01*
X50629604Y-67890216D01*
X50559137Y-67854872D01*
X50496875Y-67806514D01*
X50445192Y-67746984D01*
X50406057Y-67678551D01*
X50380958Y-67603817D01*
X50367801Y-67502007D01*
X50367799Y-62251817D01*
X52456848Y-64340867D01*
X52456848Y-65477360D01*
X52469108Y-65601842D01*
X52505418Y-65721540D01*
X52564383Y-65831854D01*
X52643735Y-65928545D01*
X52740426Y-66007897D01*
X52850740Y-66066862D01*
X52970438Y-66103172D01*
X53094920Y-66115432D01*
X54844920Y-66115432D01*
X54969402Y-66103172D01*
X55089100Y-66066862D01*
X55199414Y-66007897D01*
X55296105Y-65928545D01*
X55375457Y-65831854D01*
X55434422Y-65721540D01*
X55438894Y-65706796D01*
X55507351Y-65775253D01*
X55754667Y-65940504D01*
X56029469Y-66054331D01*
X56321198Y-66112360D01*
X56618642Y-66112360D01*
X56910371Y-66054331D01*
X57163165Y-65949620D01*
X59779800Y-65949620D01*
X59779800Y-66242140D01*
X59836868Y-66529038D01*
X59948810Y-66799291D01*
X60111325Y-67042512D01*
X60318168Y-67249355D01*
X60561389Y-67411870D01*
X60831642Y-67523812D01*
X61118540Y-67580880D01*
X61411060Y-67580880D01*
X61697958Y-67523812D01*
X61968211Y-67411870D01*
X62211432Y-67249355D01*
X62418275Y-67042512D01*
X62534800Y-66868120D01*
X62651325Y-67042512D01*
X62858168Y-67249355D01*
X63101389Y-67411870D01*
X63371642Y-67523812D01*
X63658540Y-67580880D01*
X63951060Y-67580880D01*
X64237958Y-67523812D01*
X64508211Y-67411870D01*
X64751432Y-67249355D01*
X64958275Y-67042512D01*
X65074800Y-66868120D01*
X65191325Y-67042512D01*
X65398168Y-67249355D01*
X65641389Y-67411870D01*
X65911642Y-67523812D01*
X66198540Y-67580880D01*
X66491060Y-67580880D01*
X66777958Y-67523812D01*
X67048211Y-67411870D01*
X67291432Y-67249355D01*
X67498275Y-67042512D01*
X67614800Y-66868120D01*
X67731325Y-67042512D01*
X67938168Y-67249355D01*
X68181389Y-67411870D01*
X68451642Y-67523812D01*
X68738540Y-67580880D01*
X69031060Y-67580880D01*
X69317958Y-67523812D01*
X69588211Y-67411870D01*
X69831432Y-67249355D01*
X70038275Y-67042512D01*
X70200790Y-66799291D01*
X70312732Y-66529038D01*
X70369800Y-66242140D01*
X70369800Y-65949620D01*
X70312732Y-65662722D01*
X70200790Y-65392469D01*
X70038275Y-65149248D01*
X69906420Y-65017393D01*
X69978980Y-64995382D01*
X70089294Y-64936417D01*
X70185985Y-64857065D01*
X70265337Y-64760374D01*
X70324302Y-64650060D01*
X70360612Y-64530362D01*
X70372872Y-64405880D01*
X70369800Y-63841630D01*
X70211050Y-63682880D01*
X69011800Y-63682880D01*
X69011800Y-63702880D01*
X68757800Y-63702880D01*
X68757800Y-63682880D01*
X66471800Y-63682880D01*
X66471800Y-63702880D01*
X66217800Y-63702880D01*
X66217800Y-63682880D01*
X63931800Y-63682880D01*
X63931800Y-63702880D01*
X63677800Y-63702880D01*
X63677800Y-63682880D01*
X61391800Y-63682880D01*
X61391800Y-63702880D01*
X61137800Y-63702880D01*
X61137800Y-63682880D01*
X59943986Y-63682880D01*
X59823319Y-63912771D01*
X59920643Y-64187132D01*
X60069622Y-64437235D01*
X60264531Y-64653468D01*
X60494206Y-64824780D01*
X60318168Y-64942405D01*
X60111325Y-65149248D01*
X59948810Y-65392469D01*
X59836868Y-65662722D01*
X59779800Y-65949620D01*
X57163165Y-65949620D01*
X57185173Y-65940504D01*
X57432489Y-65775253D01*
X57642813Y-65564929D01*
X57808064Y-65317613D01*
X57921891Y-65042811D01*
X57979920Y-64751082D01*
X57979920Y-64453638D01*
X57921891Y-64161909D01*
X57808064Y-63887107D01*
X57642813Y-63639791D01*
X57432489Y-63429467D01*
X57185173Y-63264216D01*
X56910371Y-63150389D01*
X56618642Y-63092360D01*
X56321198Y-63092360D01*
X56229699Y-63110560D01*
X54723319Y-61604181D01*
X54723319Y-61401592D01*
X55374813Y-61401592D01*
X55781791Y-61808570D01*
X55809504Y-61842338D01*
X55843272Y-61870051D01*
X55843274Y-61870053D01*
X55890409Y-61908736D01*
X55944262Y-61952932D01*
X56098008Y-62035110D01*
X56264831Y-62085716D01*
X56394844Y-62098521D01*
X56394854Y-62098521D01*
X56438320Y-62102802D01*
X56481787Y-62098521D01*
X61137798Y-62098521D01*
X61137798Y-62235724D01*
X60907910Y-62114404D01*
X60760701Y-62159055D01*
X60497880Y-62284239D01*
X60264531Y-62458292D01*
X60069622Y-62674525D01*
X59920643Y-62924628D01*
X59823319Y-63198989D01*
X59943986Y-63428880D01*
X61137800Y-63428880D01*
X61137800Y-63408880D01*
X61391800Y-63408880D01*
X61391800Y-63428880D01*
X63677800Y-63428880D01*
X63677800Y-62235725D01*
X63931800Y-62235725D01*
X63931800Y-63428880D01*
X66217800Y-63428880D01*
X66217800Y-62235725D01*
X66471800Y-62235725D01*
X66471800Y-63428880D01*
X68757800Y-63428880D01*
X68757800Y-62229630D01*
X69011800Y-62229630D01*
X69011800Y-63428880D01*
X70211050Y-63428880D01*
X70369800Y-63270130D01*
X70372872Y-62705880D01*
X70360612Y-62581398D01*
X70324302Y-62461700D01*
X70265337Y-62351386D01*
X70185985Y-62254695D01*
X70089294Y-62175343D01*
X69978980Y-62116378D01*
X69859282Y-62080068D01*
X69734800Y-62067808D01*
X69170550Y-62070880D01*
X69011800Y-62229630D01*
X68757800Y-62229630D01*
X68599050Y-62070880D01*
X68034800Y-62067808D01*
X67910318Y-62080068D01*
X67790620Y-62116378D01*
X67680306Y-62175343D01*
X67583615Y-62254695D01*
X67504263Y-62351386D01*
X67445298Y-62461700D01*
X67420834Y-62542346D01*
X67345069Y-62458292D01*
X67111720Y-62284239D01*
X66848899Y-62159055D01*
X66701690Y-62114404D01*
X66471800Y-62235725D01*
X66217800Y-62235725D01*
X65987910Y-62114404D01*
X65951301Y-62125508D01*
X65925790Y-61997255D01*
X65859077Y-61836195D01*
X65762224Y-61691245D01*
X65638955Y-61567976D01*
X65494005Y-61471123D01*
X65332945Y-61404410D01*
X65161965Y-61370400D01*
X64987635Y-61370400D01*
X64816655Y-61404410D01*
X64655595Y-61471123D01*
X64510645Y-61567976D01*
X64387376Y-61691245D01*
X64290523Y-61836195D01*
X64223810Y-61997255D01*
X64198299Y-62125508D01*
X64161690Y-62114404D01*
X63931800Y-62235725D01*
X63677800Y-62235725D01*
X63447910Y-62114404D01*
X63300701Y-62159055D01*
X63037880Y-62284239D01*
X62804531Y-62458292D01*
X62609622Y-62674525D01*
X62534800Y-62800135D01*
X62459978Y-62674525D01*
X62265069Y-62458292D01*
X62031720Y-62284239D01*
X61768899Y-62159055D01*
X61621690Y-62114404D01*
X61391802Y-62235724D01*
X61391802Y-62098521D01*
X62532450Y-62098521D01*
X62575919Y-62102802D01*
X62619388Y-62098521D01*
X62619396Y-62098521D01*
X62749409Y-62085716D01*
X62916232Y-62035110D01*
X63069978Y-61952932D01*
X63204736Y-61842338D01*
X63232453Y-61808565D01*
X63639426Y-61401592D01*
X64725920Y-61401592D01*
X64850402Y-61389332D01*
X64970100Y-61353022D01*
X65080414Y-61294057D01*
X65177105Y-61214705D01*
X65256457Y-61118014D01*
X65315422Y-61007700D01*
X65337433Y-60935140D01*
X65469288Y-61066995D01*
X65712509Y-61229510D01*
X65982762Y-61341452D01*
X66269660Y-61398520D01*
X66562180Y-61398520D01*
X66849078Y-61341452D01*
X67119331Y-61229510D01*
X67362552Y-61066995D01*
X67569395Y-60860152D01*
X67685920Y-60685760D01*
X67802445Y-60860152D01*
X68009288Y-61066995D01*
X68252509Y-61229510D01*
X68522762Y-61341452D01*
X68809660Y-61398520D01*
X69102180Y-61398520D01*
X69389078Y-61341452D01*
X69659331Y-61229510D01*
X69902552Y-61066995D01*
X70109395Y-60860152D01*
X70271910Y-60616931D01*
X70383852Y-60346678D01*
X70440920Y-60059780D01*
X70440920Y-59767260D01*
X70383852Y-59480362D01*
X70271910Y-59210109D01*
X70109395Y-58966888D01*
X69902552Y-58760045D01*
X69884802Y-58748185D01*
X69884802Y-58625732D01*
X70043550Y-58784480D01*
%TA.AperFunction,Conductor*%
D26*
G36*
X70043550Y-58784480D02*
G01*
X70207800Y-58787552D01*
X70332282Y-58775292D01*
X70451980Y-58738982D01*
X70510800Y-58707541D01*
X70510800Y-67480921D01*
X70499948Y-67591601D01*
X70477179Y-67667014D01*
X70440197Y-67736568D01*
X70390408Y-67797615D01*
X70329711Y-67847828D01*
X70260414Y-67885297D01*
X70185164Y-67908591D01*
X70076606Y-67920001D01*
X50824411Y-67919999D01*
X50705594Y-67911198D01*
X50629604Y-67890216D01*
X50559137Y-67854872D01*
X50496875Y-67806514D01*
X50445192Y-67746984D01*
X50406057Y-67678551D01*
X50380958Y-67603817D01*
X50367801Y-67502007D01*
X50367799Y-62251817D01*
X52456848Y-64340867D01*
X52456848Y-65477360D01*
X52469108Y-65601842D01*
X52505418Y-65721540D01*
X52564383Y-65831854D01*
X52643735Y-65928545D01*
X52740426Y-66007897D01*
X52850740Y-66066862D01*
X52970438Y-66103172D01*
X53094920Y-66115432D01*
X54844920Y-66115432D01*
X54969402Y-66103172D01*
X55089100Y-66066862D01*
X55199414Y-66007897D01*
X55296105Y-65928545D01*
X55375457Y-65831854D01*
X55434422Y-65721540D01*
X55438894Y-65706796D01*
X55507351Y-65775253D01*
X55754667Y-65940504D01*
X56029469Y-66054331D01*
X56321198Y-66112360D01*
X56618642Y-66112360D01*
X56910371Y-66054331D01*
X57163165Y-65949620D01*
X59779800Y-65949620D01*
X59779800Y-66242140D01*
X59836868Y-66529038D01*
X59948810Y-66799291D01*
X60111325Y-67042512D01*
X60318168Y-67249355D01*
X60561389Y-67411870D01*
X60831642Y-67523812D01*
X61118540Y-67580880D01*
X61411060Y-67580880D01*
X61697958Y-67523812D01*
X61968211Y-67411870D01*
X62211432Y-67249355D01*
X62418275Y-67042512D01*
X62534800Y-66868120D01*
X62651325Y-67042512D01*
X62858168Y-67249355D01*
X63101389Y-67411870D01*
X63371642Y-67523812D01*
X63658540Y-67580880D01*
X63951060Y-67580880D01*
X64237958Y-67523812D01*
X64508211Y-67411870D01*
X64751432Y-67249355D01*
X64958275Y-67042512D01*
X65074800Y-66868120D01*
X65191325Y-67042512D01*
X65398168Y-67249355D01*
X65641389Y-67411870D01*
X65911642Y-67523812D01*
X66198540Y-67580880D01*
X66491060Y-67580880D01*
X66777958Y-67523812D01*
X67048211Y-67411870D01*
X67291432Y-67249355D01*
X67498275Y-67042512D01*
X67614800Y-66868120D01*
X67731325Y-67042512D01*
X67938168Y-67249355D01*
X68181389Y-67411870D01*
X68451642Y-67523812D01*
X68738540Y-67580880D01*
X69031060Y-67580880D01*
X69317958Y-67523812D01*
X69588211Y-67411870D01*
X69831432Y-67249355D01*
X70038275Y-67042512D01*
X70200790Y-66799291D01*
X70312732Y-66529038D01*
X70369800Y-66242140D01*
X70369800Y-65949620D01*
X70312732Y-65662722D01*
X70200790Y-65392469D01*
X70038275Y-65149248D01*
X69906420Y-65017393D01*
X69978980Y-64995382D01*
X70089294Y-64936417D01*
X70185985Y-64857065D01*
X70265337Y-64760374D01*
X70324302Y-64650060D01*
X70360612Y-64530362D01*
X70372872Y-64405880D01*
X70369800Y-63841630D01*
X70211050Y-63682880D01*
X69011800Y-63682880D01*
X69011800Y-63702880D01*
X68757800Y-63702880D01*
X68757800Y-63682880D01*
X66471800Y-63682880D01*
X66471800Y-63702880D01*
X66217800Y-63702880D01*
X66217800Y-63682880D01*
X63931800Y-63682880D01*
X63931800Y-63702880D01*
X63677800Y-63702880D01*
X63677800Y-63682880D01*
X61391800Y-63682880D01*
X61391800Y-63702880D01*
X61137800Y-63702880D01*
X61137800Y-63682880D01*
X59943986Y-63682880D01*
X59823319Y-63912771D01*
X59920643Y-64187132D01*
X60069622Y-64437235D01*
X60264531Y-64653468D01*
X60494206Y-64824780D01*
X60318168Y-64942405D01*
X60111325Y-65149248D01*
X59948810Y-65392469D01*
X59836868Y-65662722D01*
X59779800Y-65949620D01*
X57163165Y-65949620D01*
X57185173Y-65940504D01*
X57432489Y-65775253D01*
X57642813Y-65564929D01*
X57808064Y-65317613D01*
X57921891Y-65042811D01*
X57979920Y-64751082D01*
X57979920Y-64453638D01*
X57921891Y-64161909D01*
X57808064Y-63887107D01*
X57642813Y-63639791D01*
X57432489Y-63429467D01*
X57185173Y-63264216D01*
X56910371Y-63150389D01*
X56618642Y-63092360D01*
X56321198Y-63092360D01*
X56229699Y-63110560D01*
X54723319Y-61604181D01*
X54723319Y-61401592D01*
X55374813Y-61401592D01*
X55781791Y-61808570D01*
X55809504Y-61842338D01*
X55843272Y-61870051D01*
X55843274Y-61870053D01*
X55890409Y-61908736D01*
X55944262Y-61952932D01*
X56098008Y-62035110D01*
X56264831Y-62085716D01*
X56394844Y-62098521D01*
X56394854Y-62098521D01*
X56438320Y-62102802D01*
X56481787Y-62098521D01*
X61137798Y-62098521D01*
X61137798Y-62235724D01*
X60907910Y-62114404D01*
X60760701Y-62159055D01*
X60497880Y-62284239D01*
X60264531Y-62458292D01*
X60069622Y-62674525D01*
X59920643Y-62924628D01*
X59823319Y-63198989D01*
X59943986Y-63428880D01*
X61137800Y-63428880D01*
X61137800Y-63408880D01*
X61391800Y-63408880D01*
X61391800Y-63428880D01*
X63677800Y-63428880D01*
X63677800Y-62235725D01*
X63931800Y-62235725D01*
X63931800Y-63428880D01*
X66217800Y-63428880D01*
X66217800Y-62235725D01*
X66471800Y-62235725D01*
X66471800Y-63428880D01*
X68757800Y-63428880D01*
X68757800Y-62229630D01*
X69011800Y-62229630D01*
X69011800Y-63428880D01*
X70211050Y-63428880D01*
X70369800Y-63270130D01*
X70372872Y-62705880D01*
X70360612Y-62581398D01*
X70324302Y-62461700D01*
X70265337Y-62351386D01*
X70185985Y-62254695D01*
X70089294Y-62175343D01*
X69978980Y-62116378D01*
X69859282Y-62080068D01*
X69734800Y-62067808D01*
X69170550Y-62070880D01*
X69011800Y-62229630D01*
X68757800Y-62229630D01*
X68599050Y-62070880D01*
X68034800Y-62067808D01*
X67910318Y-62080068D01*
X67790620Y-62116378D01*
X67680306Y-62175343D01*
X67583615Y-62254695D01*
X67504263Y-62351386D01*
X67445298Y-62461700D01*
X67420834Y-62542346D01*
X67345069Y-62458292D01*
X67111720Y-62284239D01*
X66848899Y-62159055D01*
X66701690Y-62114404D01*
X66471800Y-62235725D01*
X66217800Y-62235725D01*
X65987910Y-62114404D01*
X65951301Y-62125508D01*
X65925790Y-61997255D01*
X65859077Y-61836195D01*
X65762224Y-61691245D01*
X65638955Y-61567976D01*
X65494005Y-61471123D01*
X65332945Y-61404410D01*
X65161965Y-61370400D01*
X64987635Y-61370400D01*
X64816655Y-61404410D01*
X64655595Y-61471123D01*
X64510645Y-61567976D01*
X64387376Y-61691245D01*
X64290523Y-61836195D01*
X64223810Y-61997255D01*
X64198299Y-62125508D01*
X64161690Y-62114404D01*
X63931800Y-62235725D01*
X63677800Y-62235725D01*
X63447910Y-62114404D01*
X63300701Y-62159055D01*
X63037880Y-62284239D01*
X62804531Y-62458292D01*
X62609622Y-62674525D01*
X62534800Y-62800135D01*
X62459978Y-62674525D01*
X62265069Y-62458292D01*
X62031720Y-62284239D01*
X61768899Y-62159055D01*
X61621690Y-62114404D01*
X61391802Y-62235724D01*
X61391802Y-62098521D01*
X62532450Y-62098521D01*
X62575919Y-62102802D01*
X62619388Y-62098521D01*
X62619396Y-62098521D01*
X62749409Y-62085716D01*
X62916232Y-62035110D01*
X63069978Y-61952932D01*
X63204736Y-61842338D01*
X63232453Y-61808565D01*
X63639426Y-61401592D01*
X64725920Y-61401592D01*
X64850402Y-61389332D01*
X64970100Y-61353022D01*
X65080414Y-61294057D01*
X65177105Y-61214705D01*
X65256457Y-61118014D01*
X65315422Y-61007700D01*
X65337433Y-60935140D01*
X65469288Y-61066995D01*
X65712509Y-61229510D01*
X65982762Y-61341452D01*
X66269660Y-61398520D01*
X66562180Y-61398520D01*
X66849078Y-61341452D01*
X67119331Y-61229510D01*
X67362552Y-61066995D01*
X67569395Y-60860152D01*
X67685920Y-60685760D01*
X67802445Y-60860152D01*
X68009288Y-61066995D01*
X68252509Y-61229510D01*
X68522762Y-61341452D01*
X68809660Y-61398520D01*
X69102180Y-61398520D01*
X69389078Y-61341452D01*
X69659331Y-61229510D01*
X69902552Y-61066995D01*
X70109395Y-60860152D01*
X70271910Y-60616931D01*
X70383852Y-60346678D01*
X70440920Y-60059780D01*
X70440920Y-59767260D01*
X70383852Y-59480362D01*
X70271910Y-59210109D01*
X70109395Y-58966888D01*
X69902552Y-58760045D01*
X69884802Y-58748185D01*
X69884802Y-58625732D01*
X70043550Y-58784480D01*
G37*
%TD.AperFunction*%
D25*
X52958048Y-41531920D02*
X52970308Y-41656402D01*
X53006618Y-41776100D01*
X53065583Y-41886414D01*
X53144935Y-41983105D01*
X53204416Y-42031920D01*
X53144935Y-42080735D01*
X53126173Y-42103596D01*
X53050299Y-42027722D01*
X52806259Y-41864660D01*
X52535097Y-41752340D01*
X52247232Y-41695080D01*
X51953728Y-41695080D01*
X51665863Y-41752340D01*
X51394701Y-41864660D01*
X51150661Y-42027722D01*
X50943122Y-42235261D01*
X50780060Y-42479301D01*
X50667740Y-42750463D01*
X50610480Y-43038328D01*
X50610480Y-43331832D01*
X50667740Y-43619697D01*
X50780060Y-43890859D01*
X50943122Y-44134899D01*
X51150661Y-44342438D01*
X51394701Y-44505500D01*
X51665863Y-44617820D01*
X51953728Y-44675080D01*
X52247232Y-44675080D01*
X52535097Y-44617820D01*
X52806259Y-44505500D01*
X53050299Y-44342438D01*
X53257838Y-44134899D01*
X53286120Y-44092571D01*
X53286121Y-44805823D01*
X53200385Y-44876185D01*
X53097403Y-45001668D01*
X53020881Y-45144831D01*
X52973759Y-45300171D01*
X52957848Y-45461720D01*
X52957848Y-46831720D01*
X52973759Y-46993269D01*
X53020881Y-47148609D01*
X53097403Y-47291772D01*
X53200385Y-47417255D01*
X53297493Y-47496950D01*
X53271789Y-47528270D01*
X52390480Y-48409580D01*
X52390480Y-48138328D01*
X52333220Y-47850463D01*
X52220900Y-47579301D01*
X52057838Y-47335261D01*
X51850299Y-47127722D01*
X51606259Y-46964660D01*
X51335097Y-46852340D01*
X51047232Y-46795080D01*
X50753728Y-46795080D01*
X50465863Y-46852340D01*
X50194701Y-46964660D01*
X49950661Y-47127722D01*
X49743122Y-47335261D01*
X49580060Y-47579301D01*
X49467740Y-47850463D01*
X49410480Y-48138328D01*
X49410480Y-48431832D01*
X49467740Y-48719697D01*
X49580060Y-48990859D01*
X49743122Y-49234899D01*
X49950661Y-49442438D01*
X50015481Y-49485749D01*
X50015480Y-50586941D01*
X47450652Y-53151770D01*
X47401932Y-52906842D01*
X47289990Y-52636589D01*
X47127475Y-52393368D01*
X46920632Y-52186525D01*
X46746240Y-52070000D01*
X46920632Y-51953475D01*
X47127475Y-51746632D01*
X47289990Y-51503411D01*
X47401932Y-51233158D01*
X47459000Y-50946260D01*
X47459000Y-50653740D01*
X47401932Y-50366842D01*
X47289990Y-50096589D01*
X47127475Y-49853368D01*
X46920632Y-49646525D01*
X46746240Y-49530000D01*
X46920632Y-49413475D01*
X47127475Y-49206632D01*
X47289990Y-48963411D01*
X47401932Y-48693158D01*
X47459000Y-48406260D01*
X47459000Y-48113740D01*
X47401932Y-47826842D01*
X47289990Y-47556589D01*
X47127475Y-47313368D01*
X46920632Y-47106525D01*
X46746240Y-46990000D01*
X46920632Y-46873475D01*
X47127475Y-46666632D01*
X47289990Y-46423411D01*
X47401932Y-46153158D01*
X47459000Y-45866260D01*
X47459000Y-45573740D01*
X47401932Y-45286842D01*
X47289990Y-45016589D01*
X47127475Y-44773368D01*
X46920632Y-44566525D01*
X46677411Y-44404010D01*
X46407158Y-44292068D01*
X46120260Y-44235000D01*
X45827740Y-44235000D01*
X45540842Y-44292068D01*
X45270589Y-44404010D01*
X45027368Y-44566525D01*
X44895513Y-44698380D01*
X44873502Y-44625820D01*
X44814537Y-44515506D01*
X44735185Y-44418815D01*
X44638494Y-44339463D01*
X44528180Y-44280498D01*
X44408482Y-44244188D01*
X44284000Y-44231928D01*
X42584000Y-44231928D01*
X42459518Y-44244188D01*
X42339820Y-44280498D01*
X42229506Y-44339463D01*
X42132815Y-44418815D01*
X42053463Y-44515506D01*
X41994498Y-44625820D01*
X41958188Y-44745518D01*
X41945928Y-44870000D01*
X41945928Y-46570000D01*
X41958188Y-46694482D01*
X41994498Y-46814180D01*
X42053463Y-46924494D01*
X42132815Y-47021185D01*
X42229506Y-47100537D01*
X42339820Y-47159502D01*
X42412380Y-47181513D01*
X42280525Y-47313368D01*
X42118010Y-47556589D01*
X42006068Y-47826842D01*
X41949000Y-48113740D01*
X41949000Y-48406260D01*
X42006068Y-48693158D01*
X42118010Y-48963411D01*
X42280525Y-49206632D01*
X42487368Y-49413475D01*
X42661760Y-49530000D01*
X42487368Y-49646525D01*
X42280525Y-49853368D01*
X42118010Y-50096589D01*
X42006068Y-50366842D01*
X41949000Y-50653740D01*
X41949000Y-50946260D01*
X42006068Y-51233158D01*
X42118010Y-51503411D01*
X42280525Y-51746632D01*
X42487368Y-51953475D01*
X42661760Y-52070000D01*
X42487368Y-52186525D01*
X42280525Y-52393368D01*
X42118010Y-52636589D01*
X42006068Y-52906842D01*
X41949000Y-53193740D01*
X41949000Y-53486260D01*
X42006068Y-53773158D01*
X42118010Y-54043411D01*
X42280525Y-54286632D01*
X42487368Y-54493475D01*
X42660729Y-54609311D01*
X42585208Y-54851603D01*
X43434000Y-55700395D01*
X44282792Y-54851603D01*
X44207271Y-54609311D01*
X44380632Y-54493475D01*
X44587475Y-54286632D01*
X44704000Y-54112240D01*
X44820525Y-54286632D01*
X45027368Y-54493475D01*
X45201760Y-54610000D01*
X45027368Y-54726525D01*
X44820525Y-54933368D01*
X44704689Y-55106729D01*
X44462397Y-55031208D01*
X43613605Y-55880000D01*
X44462397Y-56728792D01*
X44704689Y-56653271D01*
X44820525Y-56826632D01*
X45027368Y-57033475D01*
X45270589Y-57195990D01*
X45540842Y-57307932D01*
X45827740Y-57365000D01*
X46120260Y-57365000D01*
X46407158Y-57307932D01*
X46677411Y-57195990D01*
X46920632Y-57033475D01*
X47127475Y-56826632D01*
X47289990Y-56583411D01*
X47401932Y-56313158D01*
X47459000Y-56026260D01*
X47459000Y-55733740D01*
X47444539Y-55661039D01*
X51221681Y-51883898D01*
X51221681Y-51966931D01*
X51156861Y-52010242D01*
X50949322Y-52217781D01*
X50786260Y-52461821D01*
X50673940Y-52732983D01*
X50616680Y-53020848D01*
X50616680Y-53314352D01*
X50673940Y-53602217D01*
X50786260Y-53873379D01*
X50949322Y-54117419D01*
X51156861Y-54324958D01*
X51400901Y-54488020D01*
X51672063Y-54600340D01*
X51959928Y-54657600D01*
X52253432Y-54657600D01*
X52541297Y-54600340D01*
X52812459Y-54488020D01*
X53056499Y-54324958D01*
X53264038Y-54117419D01*
X53277519Y-54097243D01*
X53286120Y-54101840D01*
X53286121Y-55330672D01*
X53205465Y-55396865D01*
X53102483Y-55522348D01*
X53025961Y-55665511D01*
X52978839Y-55820851D01*
X52962928Y-55982400D01*
X52962928Y-57352400D01*
X52978839Y-57513949D01*
X53025961Y-57669289D01*
X53102483Y-57812452D01*
X53205465Y-57937935D01*
X53284590Y-58002872D01*
X53271787Y-58018473D01*
X53243275Y-58046985D01*
X53209502Y-58074702D01*
X53098908Y-58209461D01*
X53016730Y-58363207D01*
X52994130Y-58437708D01*
X52972253Y-58509827D01*
X52966124Y-58530030D01*
X52953319Y-58660043D01*
X52953319Y-58660050D01*
X52949038Y-58703519D01*
X52953319Y-58746988D01*
X52953320Y-61927280D01*
X52949038Y-61970759D01*
X52966124Y-62144249D01*
X53016731Y-62311072D01*
X53098909Y-62464818D01*
X53167341Y-62548202D01*
X51791680Y-61172542D01*
X51791680Y-59468269D01*
X51856499Y-59424958D01*
X52064038Y-59217419D01*
X52227100Y-58973379D01*
X52339420Y-58702217D01*
X52396680Y-58414352D01*
X52396680Y-58120848D01*
X52339420Y-57832983D01*
X52227100Y-57561821D01*
X52064038Y-57317781D01*
X51856499Y-57110242D01*
X51612459Y-56947180D01*
X51341297Y-56834860D01*
X51053432Y-56777600D01*
X50759928Y-56777600D01*
X50472063Y-56834860D01*
X50200901Y-56947180D01*
X49956861Y-57110242D01*
X49749322Y-57317781D01*
X49586260Y-57561821D01*
X49473940Y-57832983D01*
X49416680Y-58120848D01*
X49416680Y-58414352D01*
X49473940Y-58702217D01*
X49586260Y-58973379D01*
X49749322Y-59217419D01*
X49956861Y-59424958D01*
X50021680Y-59468269D01*
X50021681Y-60943917D01*
X49901243Y-60798332D01*
X49858790Y-60756174D01*
X49816943Y-60713441D01*
X49809848Y-60707572D01*
X49809844Y-60707568D01*
X49809840Y-60707565D01*
X49648496Y-60575977D01*
X49598698Y-60542892D01*
X49549317Y-60509079D01*
X49541211Y-60504697D01*
X49357379Y-60406951D01*
X49302100Y-60384167D01*
X49247089Y-60360588D01*
X49238286Y-60357864D01*
X49038969Y-60297687D01*
X48980296Y-60286070D01*
X48921779Y-60273631D01*
X48912614Y-60272668D01*
X48705405Y-60252351D01*
X48705392Y-60252351D01*
X48673419Y-60249202D01*
X41365956Y-60249198D01*
X41263331Y-60236663D01*
X41188426Y-60212088D01*
X41119721Y-60173431D01*
X41059831Y-60122165D01*
X41011039Y-60060242D01*
X40975204Y-59990021D01*
X40953693Y-59914185D01*
X40944400Y-59799589D01*
X40944400Y-58739235D01*
X41482200Y-58739235D01*
X41482200Y-58913565D01*
X41516210Y-59084545D01*
X41582923Y-59245605D01*
X41679776Y-59390555D01*
X41803045Y-59513824D01*
X41947995Y-59610677D01*
X42109055Y-59677390D01*
X42280035Y-59711400D01*
X42454365Y-59711400D01*
X42625345Y-59677390D01*
X42786405Y-59610677D01*
X42931355Y-59513824D01*
X43054624Y-59390555D01*
X43151477Y-59245605D01*
X43218190Y-59084545D01*
X43252200Y-58913565D01*
X43252200Y-58739235D01*
X43218190Y-58568255D01*
X43151477Y-58407195D01*
X43054624Y-58262245D01*
X42931355Y-58138976D01*
X42786405Y-58042123D01*
X42625345Y-57975410D01*
X42454365Y-57941400D01*
X42280035Y-57941400D01*
X42109055Y-57975410D01*
X41947995Y-58042123D01*
X41803045Y-58138976D01*
X41679776Y-58262245D01*
X41582923Y-58407195D01*
X41516210Y-58568255D01*
X41482200Y-58739235D01*
X40944400Y-58739235D01*
X40944400Y-56908397D01*
X42585208Y-56908397D01*
X42662843Y-57157472D01*
X42926883Y-57283371D01*
X43210411Y-57355339D01*
X43502531Y-57370611D01*
X43792019Y-57328599D01*
X44067747Y-57230919D01*
X44205157Y-57157472D01*
X44282792Y-56908397D01*
X43434000Y-56059605D01*
X42585208Y-56908397D01*
X40944400Y-56908397D01*
X40944400Y-55948531D01*
X41943389Y-55948531D01*
X41985401Y-56238019D01*
X42083081Y-56513747D01*
X42156528Y-56651157D01*
X42405603Y-56728792D01*
X43254395Y-55880000D01*
X42405603Y-55031208D01*
X42156528Y-55108843D01*
X42030629Y-55372883D01*
X41958661Y-55656411D01*
X41943389Y-55948531D01*
X40944400Y-55948531D01*
X40944400Y-42483235D01*
X41355200Y-42483235D01*
X41355200Y-42657565D01*
X41389210Y-42828545D01*
X41455923Y-42989605D01*
X41552776Y-43134555D01*
X41676045Y-43257824D01*
X41820995Y-43354677D01*
X41982055Y-43421390D01*
X42153035Y-43455400D01*
X42327365Y-43455400D01*
X42498345Y-43421390D01*
X42659405Y-43354677D01*
X42804355Y-43257824D01*
X42927624Y-43134555D01*
X43024477Y-42989605D01*
X43091190Y-42828545D01*
X43125200Y-42657565D01*
X43125200Y-42483235D01*
X43091190Y-42312255D01*
X43024477Y-42151195D01*
X42927624Y-42006245D01*
X42804355Y-41882976D01*
X42659405Y-41786123D01*
X42498345Y-41719410D01*
X42327365Y-41685400D01*
X42153035Y-41685400D01*
X41982055Y-41719410D01*
X41820995Y-41786123D01*
X41676045Y-41882976D01*
X41552776Y-42006245D01*
X41455923Y-42151195D01*
X41389210Y-42312255D01*
X41355200Y-42483235D01*
X40944400Y-42483235D01*
X40944400Y-41815279D01*
X40955252Y-41704600D01*
X40978021Y-41629186D01*
X41015003Y-41559632D01*
X41064792Y-41498586D01*
X41125491Y-41448371D01*
X41194786Y-41410903D01*
X41270039Y-41387608D01*
X41378584Y-41376200D01*
X52958048Y-41376200D01*
X52958048Y-41531920D01*
%TA.AperFunction,Conductor*%
D26*
G36*
X52958048Y-41531920D02*
G01*
X52970308Y-41656402D01*
X53006618Y-41776100D01*
X53065583Y-41886414D01*
X53144935Y-41983105D01*
X53204416Y-42031920D01*
X53144935Y-42080735D01*
X53126173Y-42103596D01*
X53050299Y-42027722D01*
X52806259Y-41864660D01*
X52535097Y-41752340D01*
X52247232Y-41695080D01*
X51953728Y-41695080D01*
X51665863Y-41752340D01*
X51394701Y-41864660D01*
X51150661Y-42027722D01*
X50943122Y-42235261D01*
X50780060Y-42479301D01*
X50667740Y-42750463D01*
X50610480Y-43038328D01*
X50610480Y-43331832D01*
X50667740Y-43619697D01*
X50780060Y-43890859D01*
X50943122Y-44134899D01*
X51150661Y-44342438D01*
X51394701Y-44505500D01*
X51665863Y-44617820D01*
X51953728Y-44675080D01*
X52247232Y-44675080D01*
X52535097Y-44617820D01*
X52806259Y-44505500D01*
X53050299Y-44342438D01*
X53257838Y-44134899D01*
X53286120Y-44092571D01*
X53286121Y-44805823D01*
X53200385Y-44876185D01*
X53097403Y-45001668D01*
X53020881Y-45144831D01*
X52973759Y-45300171D01*
X52957848Y-45461720D01*
X52957848Y-46831720D01*
X52973759Y-46993269D01*
X53020881Y-47148609D01*
X53097403Y-47291772D01*
X53200385Y-47417255D01*
X53297493Y-47496950D01*
X53271789Y-47528270D01*
X52390480Y-48409580D01*
X52390480Y-48138328D01*
X52333220Y-47850463D01*
X52220900Y-47579301D01*
X52057838Y-47335261D01*
X51850299Y-47127722D01*
X51606259Y-46964660D01*
X51335097Y-46852340D01*
X51047232Y-46795080D01*
X50753728Y-46795080D01*
X50465863Y-46852340D01*
X50194701Y-46964660D01*
X49950661Y-47127722D01*
X49743122Y-47335261D01*
X49580060Y-47579301D01*
X49467740Y-47850463D01*
X49410480Y-48138328D01*
X49410480Y-48431832D01*
X49467740Y-48719697D01*
X49580060Y-48990859D01*
X49743122Y-49234899D01*
X49950661Y-49442438D01*
X50015481Y-49485749D01*
X50015480Y-50586941D01*
X47450652Y-53151770D01*
X47401932Y-52906842D01*
X47289990Y-52636589D01*
X47127475Y-52393368D01*
X46920632Y-52186525D01*
X46746240Y-52070000D01*
X46920632Y-51953475D01*
X47127475Y-51746632D01*
X47289990Y-51503411D01*
X47401932Y-51233158D01*
X47459000Y-50946260D01*
X47459000Y-50653740D01*
X47401932Y-50366842D01*
X47289990Y-50096589D01*
X47127475Y-49853368D01*
X46920632Y-49646525D01*
X46746240Y-49530000D01*
X46920632Y-49413475D01*
X47127475Y-49206632D01*
X47289990Y-48963411D01*
X47401932Y-48693158D01*
X47459000Y-48406260D01*
X47459000Y-48113740D01*
X47401932Y-47826842D01*
X47289990Y-47556589D01*
X47127475Y-47313368D01*
X46920632Y-47106525D01*
X46746240Y-46990000D01*
X46920632Y-46873475D01*
X47127475Y-46666632D01*
X47289990Y-46423411D01*
X47401932Y-46153158D01*
X47459000Y-45866260D01*
X47459000Y-45573740D01*
X47401932Y-45286842D01*
X47289990Y-45016589D01*
X47127475Y-44773368D01*
X46920632Y-44566525D01*
X46677411Y-44404010D01*
X46407158Y-44292068D01*
X46120260Y-44235000D01*
X45827740Y-44235000D01*
X45540842Y-44292068D01*
X45270589Y-44404010D01*
X45027368Y-44566525D01*
X44895513Y-44698380D01*
X44873502Y-44625820D01*
X44814537Y-44515506D01*
X44735185Y-44418815D01*
X44638494Y-44339463D01*
X44528180Y-44280498D01*
X44408482Y-44244188D01*
X44284000Y-44231928D01*
X42584000Y-44231928D01*
X42459518Y-44244188D01*
X42339820Y-44280498D01*
X42229506Y-44339463D01*
X42132815Y-44418815D01*
X42053463Y-44515506D01*
X41994498Y-44625820D01*
X41958188Y-44745518D01*
X41945928Y-44870000D01*
X41945928Y-46570000D01*
X41958188Y-46694482D01*
X41994498Y-46814180D01*
X42053463Y-46924494D01*
X42132815Y-47021185D01*
X42229506Y-47100537D01*
X42339820Y-47159502D01*
X42412380Y-47181513D01*
X42280525Y-47313368D01*
X42118010Y-47556589D01*
X42006068Y-47826842D01*
X41949000Y-48113740D01*
X41949000Y-48406260D01*
X42006068Y-48693158D01*
X42118010Y-48963411D01*
X42280525Y-49206632D01*
X42487368Y-49413475D01*
X42661760Y-49530000D01*
X42487368Y-49646525D01*
X42280525Y-49853368D01*
X42118010Y-50096589D01*
X42006068Y-50366842D01*
X41949000Y-50653740D01*
X41949000Y-50946260D01*
X42006068Y-51233158D01*
X42118010Y-51503411D01*
X42280525Y-51746632D01*
X42487368Y-51953475D01*
X42661760Y-52070000D01*
X42487368Y-52186525D01*
X42280525Y-52393368D01*
X42118010Y-52636589D01*
X42006068Y-52906842D01*
X41949000Y-53193740D01*
X41949000Y-53486260D01*
X42006068Y-53773158D01*
X42118010Y-54043411D01*
X42280525Y-54286632D01*
X42487368Y-54493475D01*
X42660729Y-54609311D01*
X42585208Y-54851603D01*
X43434000Y-55700395D01*
X44282792Y-54851603D01*
X44207271Y-54609311D01*
X44380632Y-54493475D01*
X44587475Y-54286632D01*
X44704000Y-54112240D01*
X44820525Y-54286632D01*
X45027368Y-54493475D01*
X45201760Y-54610000D01*
X45027368Y-54726525D01*
X44820525Y-54933368D01*
X44704689Y-55106729D01*
X44462397Y-55031208D01*
X43613605Y-55880000D01*
X44462397Y-56728792D01*
X44704689Y-56653271D01*
X44820525Y-56826632D01*
X45027368Y-57033475D01*
X45270589Y-57195990D01*
X45540842Y-57307932D01*
X45827740Y-57365000D01*
X46120260Y-57365000D01*
X46407158Y-57307932D01*
X46677411Y-57195990D01*
X46920632Y-57033475D01*
X47127475Y-56826632D01*
X47289990Y-56583411D01*
X47401932Y-56313158D01*
X47459000Y-56026260D01*
X47459000Y-55733740D01*
X47444539Y-55661039D01*
X51221681Y-51883898D01*
X51221681Y-51966931D01*
X51156861Y-52010242D01*
X50949322Y-52217781D01*
X50786260Y-52461821D01*
X50673940Y-52732983D01*
X50616680Y-53020848D01*
X50616680Y-53314352D01*
X50673940Y-53602217D01*
X50786260Y-53873379D01*
X50949322Y-54117419D01*
X51156861Y-54324958D01*
X51400901Y-54488020D01*
X51672063Y-54600340D01*
X51959928Y-54657600D01*
X52253432Y-54657600D01*
X52541297Y-54600340D01*
X52812459Y-54488020D01*
X53056499Y-54324958D01*
X53264038Y-54117419D01*
X53277519Y-54097243D01*
X53286120Y-54101840D01*
X53286121Y-55330672D01*
X53205465Y-55396865D01*
X53102483Y-55522348D01*
X53025961Y-55665511D01*
X52978839Y-55820851D01*
X52962928Y-55982400D01*
X52962928Y-57352400D01*
X52978839Y-57513949D01*
X53025961Y-57669289D01*
X53102483Y-57812452D01*
X53205465Y-57937935D01*
X53284590Y-58002872D01*
X53271787Y-58018473D01*
X53243275Y-58046985D01*
X53209502Y-58074702D01*
X53098908Y-58209461D01*
X53016730Y-58363207D01*
X52994130Y-58437708D01*
X52972253Y-58509827D01*
X52966124Y-58530030D01*
X52953319Y-58660043D01*
X52953319Y-58660050D01*
X52949038Y-58703519D01*
X52953319Y-58746988D01*
X52953320Y-61927280D01*
X52949038Y-61970759D01*
X52966124Y-62144249D01*
X53016731Y-62311072D01*
X53098909Y-62464818D01*
X53167341Y-62548202D01*
X51791680Y-61172542D01*
X51791680Y-59468269D01*
X51856499Y-59424958D01*
X52064038Y-59217419D01*
X52227100Y-58973379D01*
X52339420Y-58702217D01*
X52396680Y-58414352D01*
X52396680Y-58120848D01*
X52339420Y-57832983D01*
X52227100Y-57561821D01*
X52064038Y-57317781D01*
X51856499Y-57110242D01*
X51612459Y-56947180D01*
X51341297Y-56834860D01*
X51053432Y-56777600D01*
X50759928Y-56777600D01*
X50472063Y-56834860D01*
X50200901Y-56947180D01*
X49956861Y-57110242D01*
X49749322Y-57317781D01*
X49586260Y-57561821D01*
X49473940Y-57832983D01*
X49416680Y-58120848D01*
X49416680Y-58414352D01*
X49473940Y-58702217D01*
X49586260Y-58973379D01*
X49749322Y-59217419D01*
X49956861Y-59424958D01*
X50021680Y-59468269D01*
X50021681Y-60943917D01*
X49901243Y-60798332D01*
X49858790Y-60756174D01*
X49816943Y-60713441D01*
X49809848Y-60707572D01*
X49809844Y-60707568D01*
X49809840Y-60707565D01*
X49648496Y-60575977D01*
X49598698Y-60542892D01*
X49549317Y-60509079D01*
X49541211Y-60504697D01*
X49357379Y-60406951D01*
X49302100Y-60384167D01*
X49247089Y-60360588D01*
X49238286Y-60357864D01*
X49038969Y-60297687D01*
X48980296Y-60286070D01*
X48921779Y-60273631D01*
X48912614Y-60272668D01*
X48705405Y-60252351D01*
X48705392Y-60252351D01*
X48673419Y-60249202D01*
X41365956Y-60249198D01*
X41263331Y-60236663D01*
X41188426Y-60212088D01*
X41119721Y-60173431D01*
X41059831Y-60122165D01*
X41011039Y-60060242D01*
X40975204Y-59990021D01*
X40953693Y-59914185D01*
X40944400Y-59799589D01*
X40944400Y-58739235D01*
X41482200Y-58739235D01*
X41482200Y-58913565D01*
X41516210Y-59084545D01*
X41582923Y-59245605D01*
X41679776Y-59390555D01*
X41803045Y-59513824D01*
X41947995Y-59610677D01*
X42109055Y-59677390D01*
X42280035Y-59711400D01*
X42454365Y-59711400D01*
X42625345Y-59677390D01*
X42786405Y-59610677D01*
X42931355Y-59513824D01*
X43054624Y-59390555D01*
X43151477Y-59245605D01*
X43218190Y-59084545D01*
X43252200Y-58913565D01*
X43252200Y-58739235D01*
X43218190Y-58568255D01*
X43151477Y-58407195D01*
X43054624Y-58262245D01*
X42931355Y-58138976D01*
X42786405Y-58042123D01*
X42625345Y-57975410D01*
X42454365Y-57941400D01*
X42280035Y-57941400D01*
X42109055Y-57975410D01*
X41947995Y-58042123D01*
X41803045Y-58138976D01*
X41679776Y-58262245D01*
X41582923Y-58407195D01*
X41516210Y-58568255D01*
X41482200Y-58739235D01*
X40944400Y-58739235D01*
X40944400Y-56908397D01*
X42585208Y-56908397D01*
X42662843Y-57157472D01*
X42926883Y-57283371D01*
X43210411Y-57355339D01*
X43502531Y-57370611D01*
X43792019Y-57328599D01*
X44067747Y-57230919D01*
X44205157Y-57157472D01*
X44282792Y-56908397D01*
X43434000Y-56059605D01*
X42585208Y-56908397D01*
X40944400Y-56908397D01*
X40944400Y-55948531D01*
X41943389Y-55948531D01*
X41985401Y-56238019D01*
X42083081Y-56513747D01*
X42156528Y-56651157D01*
X42405603Y-56728792D01*
X43254395Y-55880000D01*
X42405603Y-55031208D01*
X42156528Y-55108843D01*
X42030629Y-55372883D01*
X41958661Y-55656411D01*
X41943389Y-55948531D01*
X40944400Y-55948531D01*
X40944400Y-42483235D01*
X41355200Y-42483235D01*
X41355200Y-42657565D01*
X41389210Y-42828545D01*
X41455923Y-42989605D01*
X41552776Y-43134555D01*
X41676045Y-43257824D01*
X41820995Y-43354677D01*
X41982055Y-43421390D01*
X42153035Y-43455400D01*
X42327365Y-43455400D01*
X42498345Y-43421390D01*
X42659405Y-43354677D01*
X42804355Y-43257824D01*
X42927624Y-43134555D01*
X43024477Y-42989605D01*
X43091190Y-42828545D01*
X43125200Y-42657565D01*
X43125200Y-42483235D01*
X43091190Y-42312255D01*
X43024477Y-42151195D01*
X42927624Y-42006245D01*
X42804355Y-41882976D01*
X42659405Y-41786123D01*
X42498345Y-41719410D01*
X42327365Y-41685400D01*
X42153035Y-41685400D01*
X41982055Y-41719410D01*
X41820995Y-41786123D01*
X41676045Y-41882976D01*
X41552776Y-42006245D01*
X41455923Y-42151195D01*
X41389210Y-42312255D01*
X41355200Y-42483235D01*
X40944400Y-42483235D01*
X40944400Y-41815279D01*
X40955252Y-41704600D01*
X40978021Y-41629186D01*
X41015003Y-41559632D01*
X41064792Y-41498586D01*
X41125491Y-41448371D01*
X41194786Y-41410903D01*
X41270039Y-41387608D01*
X41378584Y-41376200D01*
X52958048Y-41376200D01*
X52958048Y-41531920D01*
G37*
%TD.AperFunction*%
D25*
X68831550Y-57622480D02*
X69630800Y-57622480D01*
X69630800Y-57602480D01*
X69884800Y-57602480D01*
X69884800Y-57622480D01*
X69904800Y-57622480D01*
X69904800Y-57876480D01*
X69884800Y-57876480D01*
X69884800Y-57896480D01*
X69630800Y-57896480D01*
X69630800Y-57876480D01*
X68831550Y-57876480D01*
X68672800Y-58035230D01*
X68669728Y-58149480D01*
X68681988Y-58273962D01*
X68718298Y-58393660D01*
X68743921Y-58441596D01*
X68736959Y-58442981D01*
X68312451Y-58018473D01*
X68284736Y-57984702D01*
X68149978Y-57874108D01*
X68081586Y-57837552D01*
X68207800Y-57837552D01*
X68332282Y-57825292D01*
X68451980Y-57788982D01*
X68562294Y-57730017D01*
X68658985Y-57650665D01*
X68738337Y-57553974D01*
X68746943Y-57537873D01*
X68831550Y-57622480D01*
%TA.AperFunction,Conductor*%
D26*
G36*
X68831550Y-57622480D02*
G01*
X69630800Y-57622480D01*
X69630800Y-57602480D01*
X69884800Y-57602480D01*
X69884800Y-57622480D01*
X69904800Y-57622480D01*
X69904800Y-57876480D01*
X69884800Y-57876480D01*
X69884800Y-57896480D01*
X69630800Y-57896480D01*
X69630800Y-57876480D01*
X68831550Y-57876480D01*
X68672800Y-58035230D01*
X68669728Y-58149480D01*
X68681988Y-58273962D01*
X68718298Y-58393660D01*
X68743921Y-58441596D01*
X68736959Y-58442981D01*
X68312451Y-58018473D01*
X68284736Y-57984702D01*
X68149978Y-57874108D01*
X68081586Y-57837552D01*
X68207800Y-57837552D01*
X68332282Y-57825292D01*
X68451980Y-57788982D01*
X68562294Y-57730017D01*
X68658985Y-57650665D01*
X68738337Y-57553974D01*
X68746943Y-57537873D01*
X68831550Y-57622480D01*
G37*
%TD.AperFunction*%
D25*
X68856615Y-56700665D02*
X68953306Y-56780017D01*
X68989718Y-56799480D01*
X68953306Y-56818943D01*
X68856615Y-56898295D01*
X68845872Y-56911385D01*
X68845872Y-56687575D01*
X68856615Y-56700665D01*
%TA.AperFunction,Conductor*%
D26*
G36*
X68856615Y-56700665D02*
G01*
X68953306Y-56780017D01*
X68989718Y-56799480D01*
X68953306Y-56818943D01*
X68856615Y-56898295D01*
X68845872Y-56911385D01*
X68845872Y-56687575D01*
X68856615Y-56700665D01*
G37*
%TD.AperFunction*%
D25*
X70048630Y-48299360D02*
X70212880Y-48302432D01*
X70337362Y-48290172D01*
X70457060Y-48253862D01*
X70510801Y-48225137D01*
X70510801Y-50660528D01*
X69958800Y-50660528D01*
X69834318Y-50672788D01*
X69714620Y-50709098D01*
X69604306Y-50768063D01*
X69507615Y-50847415D01*
X69428263Y-50944106D01*
X69369298Y-51054420D01*
X69332988Y-51174118D01*
X69320728Y-51298600D01*
X69320728Y-51561871D01*
X69122801Y-51759798D01*
X69093798Y-51783600D01*
X69041620Y-51847180D01*
X68998825Y-51899325D01*
X68947044Y-51996200D01*
X68928253Y-52031355D01*
X68884796Y-52174616D01*
X68873799Y-52286269D01*
X68873799Y-52286279D01*
X68870123Y-52323601D01*
X68873799Y-52360924D01*
X68873800Y-53238350D01*
X68855650Y-53220200D01*
X68750003Y-53232096D01*
X68727979Y-53239278D01*
X68691813Y-53185151D01*
X68481489Y-52974827D01*
X68234173Y-52809576D01*
X67959371Y-52695749D01*
X67667642Y-52637720D01*
X67370198Y-52637720D01*
X67078469Y-52695749D01*
X66803667Y-52809576D01*
X66556351Y-52974827D01*
X66487894Y-53043284D01*
X66483422Y-53028540D01*
X66424457Y-52918226D01*
X66345105Y-52821535D01*
X66248414Y-52742183D01*
X66138100Y-52683218D01*
X66018402Y-52646908D01*
X65893920Y-52634648D01*
X64143920Y-52634648D01*
X64019438Y-52646908D01*
X63899740Y-52683218D01*
X63789426Y-52742183D01*
X63772540Y-52756041D01*
X63738857Y-52693026D01*
X63659505Y-52596335D01*
X63600024Y-52547520D01*
X63659505Y-52498705D01*
X63738857Y-52402014D01*
X63797822Y-52291700D01*
X63834132Y-52172002D01*
X63846392Y-52047520D01*
X63846392Y-51547520D01*
X63834132Y-51423038D01*
X63797822Y-51303340D01*
X63738857Y-51193026D01*
X63659505Y-51096335D01*
X63562814Y-51016983D01*
X63452500Y-50958018D01*
X63332802Y-50921708D01*
X63228058Y-50911392D01*
X64700520Y-50911392D01*
X64825002Y-50899132D01*
X64944700Y-50862822D01*
X65055014Y-50803857D01*
X65151705Y-50724505D01*
X65231057Y-50627814D01*
X65290022Y-50517500D01*
X65312033Y-50444940D01*
X65443888Y-50576795D01*
X65687109Y-50739310D01*
X65957362Y-50851252D01*
X66244260Y-50908320D01*
X66536780Y-50908320D01*
X66823678Y-50851252D01*
X67093931Y-50739310D01*
X67337152Y-50576795D01*
X67543995Y-50369952D01*
X67660520Y-50195560D01*
X67777045Y-50369952D01*
X67983888Y-50576795D01*
X68227109Y-50739310D01*
X68497362Y-50851252D01*
X68784260Y-50908320D01*
X69076780Y-50908320D01*
X69363678Y-50851252D01*
X69633931Y-50739310D01*
X69877152Y-50576795D01*
X70083995Y-50369952D01*
X70246510Y-50126731D01*
X70358452Y-49856478D01*
X70415520Y-49569580D01*
X70415520Y-49277060D01*
X70358452Y-48990162D01*
X70246510Y-48719909D01*
X70083995Y-48476688D01*
X69889882Y-48282575D01*
X69889882Y-48140612D01*
X70048630Y-48299360D01*
%TA.AperFunction,Conductor*%
D26*
G36*
X70048630Y-48299360D02*
G01*
X70212880Y-48302432D01*
X70337362Y-48290172D01*
X70457060Y-48253862D01*
X70510801Y-48225137D01*
X70510801Y-50660528D01*
X69958800Y-50660528D01*
X69834318Y-50672788D01*
X69714620Y-50709098D01*
X69604306Y-50768063D01*
X69507615Y-50847415D01*
X69428263Y-50944106D01*
X69369298Y-51054420D01*
X69332988Y-51174118D01*
X69320728Y-51298600D01*
X69320728Y-51561871D01*
X69122801Y-51759798D01*
X69093798Y-51783600D01*
X69041620Y-51847180D01*
X68998825Y-51899325D01*
X68947044Y-51996200D01*
X68928253Y-52031355D01*
X68884796Y-52174616D01*
X68873799Y-52286269D01*
X68873799Y-52286279D01*
X68870123Y-52323601D01*
X68873799Y-52360924D01*
X68873800Y-53238350D01*
X68855650Y-53220200D01*
X68750003Y-53232096D01*
X68727979Y-53239278D01*
X68691813Y-53185151D01*
X68481489Y-52974827D01*
X68234173Y-52809576D01*
X67959371Y-52695749D01*
X67667642Y-52637720D01*
X67370198Y-52637720D01*
X67078469Y-52695749D01*
X66803667Y-52809576D01*
X66556351Y-52974827D01*
X66487894Y-53043284D01*
X66483422Y-53028540D01*
X66424457Y-52918226D01*
X66345105Y-52821535D01*
X66248414Y-52742183D01*
X66138100Y-52683218D01*
X66018402Y-52646908D01*
X65893920Y-52634648D01*
X64143920Y-52634648D01*
X64019438Y-52646908D01*
X63899740Y-52683218D01*
X63789426Y-52742183D01*
X63772540Y-52756041D01*
X63738857Y-52693026D01*
X63659505Y-52596335D01*
X63600024Y-52547520D01*
X63659505Y-52498705D01*
X63738857Y-52402014D01*
X63797822Y-52291700D01*
X63834132Y-52172002D01*
X63846392Y-52047520D01*
X63846392Y-51547520D01*
X63834132Y-51423038D01*
X63797822Y-51303340D01*
X63738857Y-51193026D01*
X63659505Y-51096335D01*
X63562814Y-51016983D01*
X63452500Y-50958018D01*
X63332802Y-50921708D01*
X63228058Y-50911392D01*
X64700520Y-50911392D01*
X64825002Y-50899132D01*
X64944700Y-50862822D01*
X65055014Y-50803857D01*
X65151705Y-50724505D01*
X65231057Y-50627814D01*
X65290022Y-50517500D01*
X65312033Y-50444940D01*
X65443888Y-50576795D01*
X65687109Y-50739310D01*
X65957362Y-50851252D01*
X66244260Y-50908320D01*
X66536780Y-50908320D01*
X66823678Y-50851252D01*
X67093931Y-50739310D01*
X67337152Y-50576795D01*
X67543995Y-50369952D01*
X67660520Y-50195560D01*
X67777045Y-50369952D01*
X67983888Y-50576795D01*
X68227109Y-50739310D01*
X68497362Y-50851252D01*
X68784260Y-50908320D01*
X69076780Y-50908320D01*
X69363678Y-50851252D01*
X69633931Y-50739310D01*
X69877152Y-50576795D01*
X70083995Y-50369952D01*
X70246510Y-50126731D01*
X70358452Y-49856478D01*
X70415520Y-49569580D01*
X70415520Y-49277060D01*
X70358452Y-48990162D01*
X70246510Y-48719909D01*
X70083995Y-48476688D01*
X69889882Y-48282575D01*
X69889882Y-48140612D01*
X70048630Y-48299360D01*
G37*
%TD.AperFunction*%
D25*
X68836630Y-47137360D02*
X69635880Y-47137360D01*
X69635880Y-47117360D01*
X69889880Y-47117360D01*
X69889880Y-47137360D01*
X69909880Y-47137360D01*
X69909880Y-47391360D01*
X69889880Y-47391360D01*
X69889880Y-47411360D01*
X69635880Y-47411360D01*
X69635880Y-47391360D01*
X68836630Y-47391360D01*
X68677880Y-47550110D01*
X68674808Y-47664360D01*
X68687068Y-47788842D01*
X68723378Y-47908540D01*
X68743617Y-47946404D01*
X68497362Y-47995388D01*
X68227109Y-48107330D01*
X67983888Y-48269845D01*
X67777045Y-48476688D01*
X67660520Y-48651080D01*
X67543995Y-48476688D01*
X67337152Y-48269845D01*
X67093931Y-48107330D01*
X66823678Y-47995388D01*
X66536780Y-47938320D01*
X66244260Y-47938320D01*
X65957362Y-47995388D01*
X65687109Y-48107330D01*
X65443888Y-48269845D01*
X65312033Y-48401700D01*
X65290022Y-48329140D01*
X65231057Y-48218826D01*
X65151705Y-48122135D01*
X65055014Y-48042783D01*
X64944700Y-47983818D01*
X64825002Y-47947508D01*
X64710706Y-47936251D01*
X64923380Y-47871737D01*
X65190046Y-47729201D01*
X65332484Y-47612306D01*
X65436571Y-47643881D01*
X65598120Y-47659792D01*
X66168120Y-47659792D01*
X66329669Y-47643881D01*
X66485009Y-47596759D01*
X66628172Y-47520237D01*
X66753655Y-47417255D01*
X66856637Y-47291772D01*
X66905077Y-47201147D01*
X66958386Y-47244897D01*
X67068700Y-47303862D01*
X67188398Y-47340172D01*
X67312880Y-47352432D01*
X68212880Y-47352432D01*
X68337362Y-47340172D01*
X68457060Y-47303862D01*
X68567374Y-47244897D01*
X68664065Y-47165545D01*
X68743417Y-47068854D01*
X68752023Y-47052753D01*
X68836630Y-47137360D01*
%TA.AperFunction,Conductor*%
D26*
G36*
X68836630Y-47137360D02*
G01*
X69635880Y-47137360D01*
X69635880Y-47117360D01*
X69889880Y-47117360D01*
X69889880Y-47137360D01*
X69909880Y-47137360D01*
X69909880Y-47391360D01*
X69889880Y-47391360D01*
X69889880Y-47411360D01*
X69635880Y-47411360D01*
X69635880Y-47391360D01*
X68836630Y-47391360D01*
X68677880Y-47550110D01*
X68674808Y-47664360D01*
X68687068Y-47788842D01*
X68723378Y-47908540D01*
X68743617Y-47946404D01*
X68497362Y-47995388D01*
X68227109Y-48107330D01*
X67983888Y-48269845D01*
X67777045Y-48476688D01*
X67660520Y-48651080D01*
X67543995Y-48476688D01*
X67337152Y-48269845D01*
X67093931Y-48107330D01*
X66823678Y-47995388D01*
X66536780Y-47938320D01*
X66244260Y-47938320D01*
X65957362Y-47995388D01*
X65687109Y-48107330D01*
X65443888Y-48269845D01*
X65312033Y-48401700D01*
X65290022Y-48329140D01*
X65231057Y-48218826D01*
X65151705Y-48122135D01*
X65055014Y-48042783D01*
X64944700Y-47983818D01*
X64825002Y-47947508D01*
X64710706Y-47936251D01*
X64923380Y-47871737D01*
X65190046Y-47729201D01*
X65332484Y-47612306D01*
X65436571Y-47643881D01*
X65598120Y-47659792D01*
X66168120Y-47659792D01*
X66329669Y-47643881D01*
X66485009Y-47596759D01*
X66628172Y-47520237D01*
X66753655Y-47417255D01*
X66856637Y-47291772D01*
X66905077Y-47201147D01*
X66958386Y-47244897D01*
X67068700Y-47303862D01*
X67188398Y-47340172D01*
X67312880Y-47352432D01*
X68212880Y-47352432D01*
X68337362Y-47340172D01*
X68457060Y-47303862D01*
X68567374Y-47244897D01*
X68664065Y-47165545D01*
X68743417Y-47068854D01*
X68752023Y-47052753D01*
X68836630Y-47137360D01*
G37*
%TD.AperFunction*%
D25*
X60083790Y-47096720D02*
X60883040Y-47096720D01*
X60883040Y-47076720D01*
X61137040Y-47076720D01*
X61137040Y-47096720D01*
X61157040Y-47096720D01*
X61157040Y-47350720D01*
X61137040Y-47350720D01*
X61137040Y-47370720D01*
X60883040Y-47370720D01*
X60883040Y-47350720D01*
X60083790Y-47350720D01*
X59925040Y-47509470D01*
X59921968Y-47623720D01*
X59934228Y-47748202D01*
X59970538Y-47867900D01*
X60014318Y-47949806D01*
X59999359Y-47952781D01*
X59574853Y-47528275D01*
X59547136Y-47494502D01*
X59412378Y-47383908D01*
X59277457Y-47311792D01*
X59460040Y-47311792D01*
X59584522Y-47299532D01*
X59704220Y-47263222D01*
X59814534Y-47204257D01*
X59911225Y-47124905D01*
X59990577Y-47028214D01*
X59999183Y-47012113D01*
X60083790Y-47096720D01*
%TA.AperFunction,Conductor*%
D26*
G36*
X60083790Y-47096720D02*
G01*
X60883040Y-47096720D01*
X60883040Y-47076720D01*
X61137040Y-47076720D01*
X61137040Y-47096720D01*
X61157040Y-47096720D01*
X61157040Y-47350720D01*
X61137040Y-47350720D01*
X61137040Y-47370720D01*
X60883040Y-47370720D01*
X60883040Y-47350720D01*
X60083790Y-47350720D01*
X59925040Y-47509470D01*
X59921968Y-47623720D01*
X59934228Y-47748202D01*
X59970538Y-47867900D01*
X60014318Y-47949806D01*
X59999359Y-47952781D01*
X59574853Y-47528275D01*
X59547136Y-47494502D01*
X59412378Y-47383908D01*
X59277457Y-47311792D01*
X59460040Y-47311792D01*
X59584522Y-47299532D01*
X59704220Y-47263222D01*
X59814534Y-47204257D01*
X59911225Y-47124905D01*
X59990577Y-47028214D01*
X59999183Y-47012113D01*
X60083790Y-47096720D01*
G37*
%TD.AperFunction*%
D25*
X68861695Y-46215545D02*
X68958386Y-46294897D01*
X68994798Y-46314360D01*
X68958386Y-46333823D01*
X68861695Y-46413175D01*
X68850952Y-46426265D01*
X68850952Y-46202455D01*
X68861695Y-46215545D01*
%TA.AperFunction,Conductor*%
D26*
G36*
X68861695Y-46215545D02*
G01*
X68958386Y-46294897D01*
X68994798Y-46314360D01*
X68958386Y-46333823D01*
X68861695Y-46413175D01*
X68850952Y-46426265D01*
X68850952Y-46202455D01*
X68861695Y-46215545D01*
G37*
%TD.AperFunction*%
D25*
X60108855Y-46174905D02*
X60205546Y-46254257D01*
X60241958Y-46273720D01*
X60205546Y-46293183D01*
X60108855Y-46372535D01*
X60098112Y-46385625D01*
X60098112Y-46161815D01*
X60108855Y-46174905D01*
%TA.AperFunction,Conductor*%
D26*
G36*
X60108855Y-46174905D02*
G01*
X60205546Y-46254257D01*
X60241958Y-46273720D01*
X60205546Y-46293183D01*
X60108855Y-46372535D01*
X60098112Y-46385625D01*
X60098112Y-46161815D01*
X60108855Y-46174905D01*
G37*
%TD.AperFunction*%
%TD*%
M02*
