%TF.GenerationSoftware,KiCad,Pcbnew,(5.1.10-1-10_14)*%
%TF.CreationDate,2022-01-10T18:40:57-08:00*%
%TF.ProjectId,FanExpander-Lite,46616e45-7870-4616-9e64-65722d4c6974,V1.0.3*%
%TF.SameCoordinates,Original*%
%TF.FileFunction,Legend,Bot*%
%TF.FilePolarity,Positive*%
%FSLAX46Y46*%
G04 Gerber Fmt 4.6, Leading zero omitted, Abs format (unit mm)*
G04 Created by KiCad (PCBNEW (5.1.10-1-10_14)) date 2022-01-10 18:40:57*
%MOMM*%
%LPD*%
G01*
G04 APERTURE LIST*
%ADD10C,0.150000*%
%ADD11C,0.100000*%
%ADD12C,0.120000*%
G04 APERTURE END LIST*
D10*
X41746419Y-55215847D02*
X41032133Y-55215847D01*
X40889276Y-55263466D01*
X40794038Y-55358704D01*
X40746419Y-55501561D01*
X40746419Y-55596800D01*
X40746419Y-54263466D02*
X40746419Y-54739657D01*
X41746419Y-54739657D01*
X40841657Y-53358704D02*
X40794038Y-53406323D01*
X40746419Y-53549180D01*
X40746419Y-53644419D01*
X40794038Y-53787276D01*
X40889276Y-53882514D01*
X40984514Y-53930133D01*
X41174990Y-53977752D01*
X41317847Y-53977752D01*
X41508323Y-53930133D01*
X41603561Y-53882514D01*
X41698800Y-53787276D01*
X41746419Y-53644419D01*
X41746419Y-53549180D01*
X41698800Y-53406323D01*
X41651180Y-53358704D01*
X41746419Y-52644419D02*
X41032133Y-52644419D01*
X40889276Y-52692038D01*
X40794038Y-52787276D01*
X40746419Y-52930133D01*
X40746419Y-53025371D01*
X40746419Y-51692038D02*
X40746419Y-52168228D01*
X41746419Y-52168228D01*
X40841657Y-50787276D02*
X40794038Y-50834895D01*
X40746419Y-50977752D01*
X40746419Y-51072990D01*
X40794038Y-51215847D01*
X40889276Y-51311085D01*
X40984514Y-51358704D01*
X41174990Y-51406323D01*
X41317847Y-51406323D01*
X41508323Y-51358704D01*
X41603561Y-51311085D01*
X41698800Y-51215847D01*
X41746419Y-51072990D01*
X41746419Y-50977752D01*
X41698800Y-50834895D01*
X41651180Y-50787276D01*
X41746419Y-50072990D02*
X41032133Y-50072990D01*
X40889276Y-50120609D01*
X40794038Y-50215847D01*
X40746419Y-50358704D01*
X40746419Y-50453942D01*
X40746419Y-49120609D02*
X40746419Y-49596800D01*
X41746419Y-49596800D01*
X40841657Y-48215847D02*
X40794038Y-48263466D01*
X40746419Y-48406323D01*
X40746419Y-48501561D01*
X40794038Y-48644419D01*
X40889276Y-48739657D01*
X40984514Y-48787276D01*
X41174990Y-48834895D01*
X41317847Y-48834895D01*
X41508323Y-48787276D01*
X41603561Y-48739657D01*
X41698800Y-48644419D01*
X41746419Y-48501561D01*
X41746419Y-48406323D01*
X41698800Y-48263466D01*
X41651180Y-48215847D01*
X41746419Y-47501561D02*
X41032133Y-47501561D01*
X40889276Y-47549180D01*
X40794038Y-47644419D01*
X40746419Y-47787276D01*
X40746419Y-47882514D01*
X40746419Y-46549180D02*
X40746419Y-47025371D01*
X41746419Y-47025371D01*
X40841657Y-45644419D02*
X40794038Y-45692038D01*
X40746419Y-45834895D01*
X40746419Y-45930133D01*
X40794038Y-46072990D01*
X40889276Y-46168228D01*
X40984514Y-46215847D01*
X41174990Y-46263466D01*
X41317847Y-46263466D01*
X41508323Y-46215847D01*
X41603561Y-46168228D01*
X41698800Y-46072990D01*
X41746419Y-45930133D01*
X41746419Y-45834895D01*
X41698800Y-45692038D01*
X41651180Y-45644419D01*
D11*
X69591342Y-67816000D02*
X69234200Y-67816000D01*
X69662771Y-68030285D02*
X69412771Y-67280285D01*
X69162771Y-68030285D01*
X68877057Y-68030285D02*
X68734200Y-68030285D01*
X68662771Y-67994571D01*
X68627057Y-67958857D01*
X68555628Y-67851714D01*
X68519914Y-67708857D01*
X68519914Y-67423142D01*
X68555628Y-67351714D01*
X68591342Y-67316000D01*
X68662771Y-67280285D01*
X68805628Y-67280285D01*
X68877057Y-67316000D01*
X68912771Y-67351714D01*
X68948485Y-67423142D01*
X68948485Y-67601714D01*
X68912771Y-67673142D01*
X68877057Y-67708857D01*
X68805628Y-67744571D01*
X68662771Y-67744571D01*
X68591342Y-67708857D01*
X68555628Y-67673142D01*
X68519914Y-67601714D01*
X67091342Y-67816000D02*
X66734200Y-67816000D01*
X67162771Y-68030285D02*
X66912771Y-67280285D01*
X66662771Y-68030285D01*
X66019914Y-68030285D02*
X66448485Y-68030285D01*
X66234200Y-68030285D02*
X66234200Y-67280285D01*
X66305628Y-67387428D01*
X66377057Y-67458857D01*
X66448485Y-67494571D01*
X65555628Y-67280285D02*
X65484200Y-67280285D01*
X65412771Y-67316000D01*
X65377057Y-67351714D01*
X65341342Y-67423142D01*
X65305628Y-67566000D01*
X65305628Y-67744571D01*
X65341342Y-67887428D01*
X65377057Y-67958857D01*
X65412771Y-67994571D01*
X65484200Y-68030285D01*
X65555628Y-68030285D01*
X65627057Y-67994571D01*
X65662771Y-67958857D01*
X65698485Y-67887428D01*
X65734200Y-67744571D01*
X65734200Y-67566000D01*
X65698485Y-67423142D01*
X65662771Y-67351714D01*
X65627057Y-67316000D01*
X65555628Y-67280285D01*
X64162771Y-67637428D02*
X64055628Y-67673142D01*
X64019914Y-67708857D01*
X63984200Y-67780285D01*
X63984200Y-67887428D01*
X64019914Y-67958857D01*
X64055628Y-67994571D01*
X64127057Y-68030285D01*
X64412771Y-68030285D01*
X64412771Y-67280285D01*
X64162771Y-67280285D01*
X64091342Y-67316000D01*
X64055628Y-67351714D01*
X64019914Y-67423142D01*
X64019914Y-67494571D01*
X64055628Y-67566000D01*
X64091342Y-67601714D01*
X64162771Y-67637428D01*
X64412771Y-67637428D01*
X63555628Y-67601714D02*
X63627057Y-67566000D01*
X63662771Y-67530285D01*
X63698485Y-67458857D01*
X63698485Y-67423142D01*
X63662771Y-67351714D01*
X63627057Y-67316000D01*
X63555628Y-67280285D01*
X63412771Y-67280285D01*
X63341342Y-67316000D01*
X63305628Y-67351714D01*
X63269914Y-67423142D01*
X63269914Y-67458857D01*
X63305628Y-67530285D01*
X63341342Y-67566000D01*
X63412771Y-67601714D01*
X63555628Y-67601714D01*
X63627057Y-67637428D01*
X63662771Y-67673142D01*
X63698485Y-67744571D01*
X63698485Y-67887428D01*
X63662771Y-67958857D01*
X63627057Y-67994571D01*
X63555628Y-68030285D01*
X63412771Y-68030285D01*
X63341342Y-67994571D01*
X63305628Y-67958857D01*
X63269914Y-67887428D01*
X63269914Y-67744571D01*
X63305628Y-67673142D01*
X63341342Y-67637428D01*
X63412771Y-67601714D01*
X62127057Y-67637428D02*
X62019914Y-67673142D01*
X61984200Y-67708857D01*
X61948485Y-67780285D01*
X61948485Y-67887428D01*
X61984200Y-67958857D01*
X62019914Y-67994571D01*
X62091342Y-68030285D01*
X62377057Y-68030285D01*
X62377057Y-67280285D01*
X62127057Y-67280285D01*
X62055628Y-67316000D01*
X62019914Y-67351714D01*
X61984200Y-67423142D01*
X61984200Y-67494571D01*
X62019914Y-67566000D01*
X62055628Y-67601714D01*
X62127057Y-67637428D01*
X62377057Y-67637428D01*
X61234200Y-68030285D02*
X61662771Y-68030285D01*
X61448485Y-68030285D02*
X61448485Y-67280285D01*
X61519914Y-67387428D01*
X61591342Y-67458857D01*
X61662771Y-67494571D01*
X60555628Y-67280285D02*
X60912771Y-67280285D01*
X60948485Y-67637428D01*
X60912771Y-67601714D01*
X60841342Y-67566000D01*
X60662771Y-67566000D01*
X60591342Y-67601714D01*
X60555628Y-67637428D01*
X60519914Y-67708857D01*
X60519914Y-67887428D01*
X60555628Y-67958857D01*
X60591342Y-67994571D01*
X60662771Y-68030285D01*
X60841342Y-68030285D01*
X60912771Y-67994571D01*
X60948485Y-67958857D01*
X58566095Y-52501600D02*
X58566095Y-52882552D01*
X59366095Y-52882552D01*
X58985142Y-52234933D02*
X58985142Y-51968266D01*
X58566095Y-51853980D02*
X58566095Y-52234933D01*
X59366095Y-52234933D01*
X59366095Y-51853980D01*
X58566095Y-51511123D02*
X59366095Y-51511123D01*
X59366095Y-51320647D01*
X59328000Y-51206361D01*
X59251809Y-51130171D01*
X59175619Y-51092076D01*
X59023238Y-51053980D01*
X58908952Y-51053980D01*
X58756571Y-51092076D01*
X58680380Y-51130171D01*
X58604190Y-51206361D01*
X58566095Y-51320647D01*
X58566095Y-51511123D01*
X58985142Y-50101600D02*
X58985142Y-49834933D01*
X58566095Y-49720647D02*
X58566095Y-50101600D01*
X59366095Y-50101600D01*
X59366095Y-49720647D01*
X58566095Y-49377790D02*
X59366095Y-49377790D01*
X58566095Y-48920647D01*
X59366095Y-48920647D01*
D10*
X53013455Y-62623891D02*
X53346788Y-62623891D01*
X53346788Y-63147700D02*
X53346788Y-62147700D01*
X52870598Y-62147700D01*
X52061074Y-63147700D02*
X52061074Y-62623891D01*
X52108693Y-62528653D01*
X52203931Y-62481034D01*
X52394407Y-62481034D01*
X52489645Y-62528653D01*
X52061074Y-63100081D02*
X52156312Y-63147700D01*
X52394407Y-63147700D01*
X52489645Y-63100081D01*
X52537264Y-63004843D01*
X52537264Y-62909605D01*
X52489645Y-62814367D01*
X52394407Y-62766748D01*
X52156312Y-62766748D01*
X52061074Y-62719129D01*
X51584883Y-62481034D02*
X51584883Y-63147700D01*
X51584883Y-62576272D02*
X51537264Y-62528653D01*
X51442026Y-62481034D01*
X51299169Y-62481034D01*
X51203931Y-62528653D01*
X51156312Y-62623891D01*
X51156312Y-63147700D01*
X50156312Y-63147700D02*
X50727740Y-63147700D01*
X50442026Y-63147700D02*
X50442026Y-62147700D01*
X50537264Y-62290558D01*
X50632502Y-62385796D01*
X50727740Y-62433415D01*
X52299169Y-64797700D02*
X52299169Y-63797700D01*
X51822979Y-64797700D02*
X51822979Y-63797700D01*
X51251550Y-64797700D01*
X51251550Y-63797700D01*
X58976640Y-62509495D02*
X58929020Y-62414257D01*
X58929020Y-62271400D01*
X58976640Y-62128542D01*
X59071878Y-62033304D01*
X59167116Y-61985685D01*
X59357592Y-61938066D01*
X59500449Y-61938066D01*
X59690925Y-61985685D01*
X59786163Y-62033304D01*
X59881401Y-62128542D01*
X59929020Y-62271400D01*
X59929020Y-62366638D01*
X59881401Y-62509495D01*
X59833782Y-62557114D01*
X59500449Y-62557114D01*
X59500449Y-62366638D01*
X59929020Y-62985685D02*
X58929020Y-62985685D01*
X59929020Y-63557114D01*
X58929020Y-63557114D01*
X59929020Y-64033304D02*
X58929020Y-64033304D01*
X58929020Y-64271400D01*
X58976640Y-64414257D01*
X59071878Y-64509495D01*
X59167116Y-64557114D01*
X59357592Y-64604733D01*
X59500449Y-64604733D01*
X59690925Y-64557114D01*
X59786163Y-64509495D01*
X59881401Y-64414257D01*
X59929020Y-64271400D01*
X59929020Y-64033304D01*
D11*
X50524574Y-56986862D02*
X51274574Y-56986862D01*
X50988860Y-56986862D02*
X51024574Y-56915434D01*
X51024574Y-56772577D01*
X50988860Y-56701148D01*
X50953145Y-56665434D01*
X50881717Y-56629720D01*
X50667431Y-56629720D01*
X50596002Y-56665434D01*
X50560288Y-56701148D01*
X50524574Y-56772577D01*
X50524574Y-56915434D01*
X50560288Y-56986862D01*
X51024574Y-56379720D02*
X50524574Y-56201148D01*
X51024574Y-56022577D02*
X50524574Y-56201148D01*
X50346002Y-56272577D01*
X50310288Y-56308291D01*
X50274574Y-56379720D01*
X50524574Y-55165434D02*
X51274574Y-55165434D01*
X51274574Y-54986862D01*
X51238860Y-54879720D01*
X51167431Y-54808291D01*
X51096002Y-54772577D01*
X50953145Y-54736862D01*
X50846002Y-54736862D01*
X50703145Y-54772577D01*
X50631717Y-54808291D01*
X50560288Y-54879720D01*
X50524574Y-54986862D01*
X50524574Y-55165434D01*
X50524574Y-54308291D02*
X50560288Y-54379720D01*
X50596002Y-54415434D01*
X50667431Y-54451148D01*
X50881717Y-54451148D01*
X50953145Y-54415434D01*
X50988860Y-54379720D01*
X51024574Y-54308291D01*
X51024574Y-54201148D01*
X50988860Y-54129720D01*
X50953145Y-54094005D01*
X50881717Y-54058291D01*
X50667431Y-54058291D01*
X50596002Y-54094005D01*
X50560288Y-54129720D01*
X50524574Y-54201148D01*
X50524574Y-54308291D01*
X51024574Y-53844005D02*
X51024574Y-53558291D01*
X51274574Y-53736862D02*
X50631717Y-53736862D01*
X50560288Y-53701148D01*
X50524574Y-53629720D01*
X50524574Y-53558291D01*
X50524574Y-52986862D02*
X51274574Y-52986862D01*
X50560288Y-52986862D02*
X50524574Y-53058291D01*
X50524574Y-53201148D01*
X50560288Y-53272577D01*
X50596002Y-53308291D01*
X50667431Y-53344005D01*
X50881717Y-53344005D01*
X50953145Y-53308291D01*
X50988860Y-53272577D01*
X51024574Y-53201148D01*
X51024574Y-53058291D01*
X50988860Y-52986862D01*
X50524574Y-52308291D02*
X50917431Y-52308291D01*
X50988860Y-52344005D01*
X51024574Y-52415434D01*
X51024574Y-52558291D01*
X50988860Y-52629720D01*
X50560288Y-52308291D02*
X50524574Y-52379720D01*
X50524574Y-52558291D01*
X50560288Y-52629720D01*
X50631717Y-52665434D01*
X50703145Y-52665434D01*
X50774574Y-52629720D01*
X50810288Y-52558291D01*
X50810288Y-52379720D01*
X50846002Y-52308291D01*
X50560288Y-51986862D02*
X50524574Y-51915434D01*
X50524574Y-51772577D01*
X50560288Y-51701148D01*
X50631717Y-51665434D01*
X50667431Y-51665434D01*
X50738860Y-51701148D01*
X50774574Y-51772577D01*
X50774574Y-51879720D01*
X50810288Y-51951148D01*
X50881717Y-51986862D01*
X50917431Y-51986862D01*
X50988860Y-51951148D01*
X51024574Y-51879720D01*
X51024574Y-51772577D01*
X50988860Y-51701148D01*
X50524574Y-51344005D02*
X51274574Y-51344005D01*
X50524574Y-51022577D02*
X50917431Y-51022577D01*
X50988860Y-51058291D01*
X51024574Y-51129720D01*
X51024574Y-51236862D01*
X50988860Y-51308291D01*
X50953145Y-51344005D01*
X51274574Y-50736862D02*
X51274574Y-50272577D01*
X50988860Y-50522577D01*
X50988860Y-50415434D01*
X50953145Y-50344005D01*
X50917431Y-50308291D01*
X50846002Y-50272577D01*
X50667431Y-50272577D01*
X50596002Y-50308291D01*
X50560288Y-50344005D01*
X50524574Y-50415434D01*
X50524574Y-50629720D01*
X50560288Y-50701148D01*
X50596002Y-50736862D01*
X51203145Y-49986862D02*
X51238860Y-49951148D01*
X51274574Y-49879720D01*
X51274574Y-49701148D01*
X51238860Y-49629720D01*
X51203145Y-49594005D01*
X51131717Y-49558291D01*
X51060288Y-49558291D01*
X50953145Y-49594005D01*
X50524574Y-50022577D01*
X50524574Y-49558291D01*
X49013860Y-56558291D02*
X49049574Y-56594005D01*
X49156717Y-56665434D01*
X49228145Y-56701148D01*
X49335288Y-56736862D01*
X49513860Y-56772577D01*
X49656717Y-56772577D01*
X49835288Y-56736862D01*
X49942431Y-56701148D01*
X50013860Y-56665434D01*
X50121002Y-56594005D01*
X50156717Y-56558291D01*
X50049574Y-56058291D02*
X49513860Y-56058291D01*
X49406717Y-56094005D01*
X49335288Y-56165434D01*
X49299574Y-56272577D01*
X49299574Y-56344005D01*
X49299574Y-55701148D02*
X50049574Y-55701148D01*
X50049574Y-55522577D01*
X50013860Y-55415434D01*
X49942431Y-55344005D01*
X49871002Y-55308291D01*
X49728145Y-55272577D01*
X49621002Y-55272577D01*
X49478145Y-55308291D01*
X49406717Y-55344005D01*
X49335288Y-55415434D01*
X49299574Y-55522577D01*
X49299574Y-55701148D01*
X49335288Y-54665434D02*
X49299574Y-54736862D01*
X49299574Y-54879720D01*
X49335288Y-54951148D01*
X49406717Y-54986862D01*
X49692431Y-54986862D01*
X49763860Y-54951148D01*
X49799574Y-54879720D01*
X49799574Y-54736862D01*
X49763860Y-54665434D01*
X49692431Y-54629720D01*
X49621002Y-54629720D01*
X49549574Y-54986862D01*
X50049574Y-54379720D02*
X49299574Y-54201148D01*
X49835288Y-54058291D01*
X49299574Y-53915434D01*
X50049574Y-53736862D01*
X49013860Y-53522577D02*
X49049574Y-53486862D01*
X49156717Y-53415434D01*
X49228145Y-53379720D01*
X49335288Y-53344005D01*
X49513860Y-53308291D01*
X49656717Y-53308291D01*
X49835288Y-53344005D01*
X49942431Y-53379720D01*
X50013860Y-53415434D01*
X50121002Y-53486862D01*
X50156717Y-53522577D01*
X50049574Y-52486862D02*
X49299574Y-52236862D01*
X50049574Y-51986862D01*
X49299574Y-51344005D02*
X49299574Y-51772577D01*
X49299574Y-51558291D02*
X50049574Y-51558291D01*
X49942431Y-51629720D01*
X49871002Y-51701148D01*
X49835288Y-51772577D01*
X49371002Y-51022577D02*
X49335288Y-50986862D01*
X49299574Y-51022577D01*
X49335288Y-51058291D01*
X49371002Y-51022577D01*
X49299574Y-51022577D01*
X50049574Y-50522577D02*
X50049574Y-50451148D01*
X50013860Y-50379720D01*
X49978145Y-50344005D01*
X49906717Y-50308291D01*
X49763860Y-50272577D01*
X49585288Y-50272577D01*
X49442431Y-50308291D01*
X49371002Y-50344005D01*
X49335288Y-50379720D01*
X49299574Y-50451148D01*
X49299574Y-50522577D01*
X49335288Y-50594005D01*
X49371002Y-50629720D01*
X49442431Y-50665434D01*
X49585288Y-50701148D01*
X49763860Y-50701148D01*
X49906717Y-50665434D01*
X49978145Y-50629720D01*
X50013860Y-50594005D01*
X50049574Y-50522577D01*
X49371002Y-49951148D02*
X49335288Y-49915434D01*
X49299574Y-49951148D01*
X49335288Y-49986862D01*
X49371002Y-49951148D01*
X49299574Y-49951148D01*
X50049574Y-49665434D02*
X50049574Y-49201148D01*
X49763860Y-49451148D01*
X49763860Y-49344005D01*
X49728145Y-49272577D01*
X49692431Y-49236862D01*
X49621002Y-49201148D01*
X49442431Y-49201148D01*
X49371002Y-49236862D01*
X49335288Y-49272577D01*
X49299574Y-49344005D01*
X49299574Y-49558291D01*
X49335288Y-49629720D01*
X49371002Y-49665434D01*
D10*
X59365590Y-66615441D02*
X59222733Y-66663060D01*
X58984638Y-66663060D01*
X58889400Y-66615441D01*
X58841780Y-66567822D01*
X58794161Y-66472584D01*
X58794161Y-66377346D01*
X58841780Y-66282108D01*
X58889400Y-66234489D01*
X58984638Y-66186870D01*
X59175114Y-66139251D01*
X59270352Y-66091632D01*
X59317971Y-66044013D01*
X59365590Y-65948775D01*
X59365590Y-65853537D01*
X59317971Y-65758299D01*
X59270352Y-65710680D01*
X59175114Y-65663060D01*
X58937019Y-65663060D01*
X58794161Y-65710680D01*
X58365590Y-66663060D02*
X58365590Y-65663060D01*
X57794161Y-66663060D02*
X58222733Y-66091632D01*
X57794161Y-65663060D02*
X58365590Y-66234489D01*
X56794161Y-66663060D02*
X57127495Y-66186870D01*
X57365590Y-66663060D02*
X57365590Y-65663060D01*
X56984638Y-65663060D01*
X56889400Y-65710680D01*
X56841780Y-65758299D01*
X56794161Y-65853537D01*
X56794161Y-65996394D01*
X56841780Y-66091632D01*
X56889400Y-66139251D01*
X56984638Y-66186870D01*
X57365590Y-66186870D01*
X55603685Y-66139251D02*
X55270352Y-66139251D01*
X55127495Y-66663060D02*
X55603685Y-66663060D01*
X55603685Y-65663060D01*
X55127495Y-65663060D01*
X54794161Y-65663060D02*
X54175114Y-65663060D01*
X54508447Y-66044013D01*
X54365590Y-66044013D01*
X54270352Y-66091632D01*
X54222733Y-66139251D01*
X54175114Y-66234489D01*
X54175114Y-66472584D01*
X54222733Y-66567822D01*
X54270352Y-66615441D01*
X54365590Y-66663060D01*
X54651304Y-66663060D01*
X54746542Y-66615441D01*
X54794161Y-66567822D01*
X52984638Y-66663060D02*
X52984638Y-65663060D01*
X52651304Y-66377346D01*
X52317971Y-65663060D01*
X52317971Y-66663060D01*
X51841780Y-66663060D02*
X51841780Y-65996394D01*
X51841780Y-65663060D02*
X51889400Y-65710680D01*
X51841780Y-65758299D01*
X51794161Y-65710680D01*
X51841780Y-65663060D01*
X51841780Y-65758299D01*
X51365590Y-65996394D02*
X51365590Y-66663060D01*
X51365590Y-66091632D02*
X51317971Y-66044013D01*
X51222733Y-65996394D01*
X51079876Y-65996394D01*
X50984638Y-66044013D01*
X50937019Y-66139251D01*
X50937019Y-66663060D01*
X50460828Y-66663060D02*
X50460828Y-65996394D01*
X50460828Y-65663060D02*
X50508447Y-65710680D01*
X50460828Y-65758299D01*
X50413209Y-65710680D01*
X50460828Y-65663060D01*
X50460828Y-65758299D01*
X59079876Y-67789251D02*
X59413209Y-67789251D01*
X59413209Y-68313060D02*
X59413209Y-67313060D01*
X58937019Y-67313060D01*
X58127495Y-68313060D02*
X58127495Y-67789251D01*
X58175114Y-67694013D01*
X58270352Y-67646394D01*
X58460828Y-67646394D01*
X58556066Y-67694013D01*
X58127495Y-68265441D02*
X58222733Y-68313060D01*
X58460828Y-68313060D01*
X58556066Y-68265441D01*
X58603685Y-68170203D01*
X58603685Y-68074965D01*
X58556066Y-67979727D01*
X58460828Y-67932108D01*
X58222733Y-67932108D01*
X58127495Y-67884489D01*
X57651304Y-67646394D02*
X57651304Y-68313060D01*
X57651304Y-67741632D02*
X57603685Y-67694013D01*
X57508447Y-67646394D01*
X57365590Y-67646394D01*
X57270352Y-67694013D01*
X57222733Y-67789251D01*
X57222733Y-68313060D01*
X55984638Y-67789251D02*
X55651304Y-67789251D01*
X55508447Y-68313060D02*
X55984638Y-68313060D01*
X55984638Y-67313060D01*
X55508447Y-67313060D01*
X55175114Y-68313060D02*
X54651304Y-67646394D01*
X55175114Y-67646394D02*
X54651304Y-68313060D01*
X54270352Y-67646394D02*
X54270352Y-68646394D01*
X54270352Y-67694013D02*
X54175114Y-67646394D01*
X53984638Y-67646394D01*
X53889400Y-67694013D01*
X53841780Y-67741632D01*
X53794161Y-67836870D01*
X53794161Y-68122584D01*
X53841780Y-68217822D01*
X53889400Y-68265441D01*
X53984638Y-68313060D01*
X54175114Y-68313060D01*
X54270352Y-68265441D01*
X52127495Y-68313060D02*
X52603685Y-68313060D01*
X52603685Y-67313060D01*
X51794161Y-68313060D02*
X51794161Y-67646394D01*
X51794161Y-67313060D02*
X51841780Y-67360680D01*
X51794161Y-67408299D01*
X51746542Y-67360680D01*
X51794161Y-67313060D01*
X51794161Y-67408299D01*
X51460828Y-67646394D02*
X51079876Y-67646394D01*
X51317971Y-67313060D02*
X51317971Y-68170203D01*
X51270352Y-68265441D01*
X51175114Y-68313060D01*
X51079876Y-68313060D01*
X50365590Y-68265441D02*
X50460828Y-68313060D01*
X50651304Y-68313060D01*
X50746542Y-68265441D01*
X50794161Y-68170203D01*
X50794161Y-67789251D01*
X50746542Y-67694013D01*
X50651304Y-67646394D01*
X50460828Y-67646394D01*
X50365590Y-67694013D01*
X50317971Y-67789251D01*
X50317971Y-67884489D01*
X50794161Y-67979727D01*
D12*
%TO.C,D4*%
X66618120Y-47606720D02*
X62733120Y-47606720D01*
X62733120Y-44686720D02*
X66618120Y-44686720D01*
X66618120Y-44686720D02*
X66618120Y-47606720D01*
%TO.C,D3*%
X66643520Y-58122320D02*
X62758520Y-58122320D01*
X62758520Y-55202320D02*
X66643520Y-55202320D01*
X66643520Y-55202320D02*
X66643520Y-58122320D01*
%TO.C,D2*%
X57905920Y-47606720D02*
X54020920Y-47606720D01*
X54020920Y-44686720D02*
X57905920Y-44686720D01*
X57905920Y-44686720D02*
X57905920Y-47606720D01*
%TO.C,D1*%
X57911000Y-58127400D02*
X54026000Y-58127400D01*
X54026000Y-55207400D02*
X57911000Y-55207400D01*
X57911000Y-55207400D02*
X57911000Y-58127400D01*
%TO.C,R10*%
X70375400Y-43135000D02*
X69375400Y-43135000D01*
X69375400Y-44495000D02*
X70375400Y-44495000D01*
%TO.C,R9*%
X69388800Y-43021800D02*
X70388800Y-43021800D01*
X70388800Y-41661800D02*
X69388800Y-41661800D01*
%TO.C,R8*%
X62489800Y-41531920D02*
X62489800Y-42531920D01*
X63849800Y-42531920D02*
X63849800Y-41531920D01*
%TO.C,R7*%
X70387400Y-53625200D02*
X69387400Y-53625200D01*
X69387400Y-54985200D02*
X70387400Y-54985200D01*
%TO.C,R6*%
X71088800Y-52798600D02*
X71088800Y-51798600D01*
X69728800Y-51798600D02*
X69728800Y-52798600D01*
%TO.C,R5*%
X62078320Y-52047520D02*
X62078320Y-53047520D01*
X63438320Y-53047520D02*
X63438320Y-52047520D01*
%TO.C,R4*%
X61625800Y-43109600D02*
X60625800Y-43109600D01*
X60625800Y-44469600D02*
X61625800Y-44469600D01*
%TO.C,R3*%
X61612400Y-41636400D02*
X60612400Y-41636400D01*
X60612400Y-42996400D02*
X61612400Y-42996400D01*
%TO.C,R2*%
X53366120Y-41531920D02*
X53366120Y-42531920D01*
X54726120Y-42531920D02*
X54726120Y-41531920D01*
%TO.C,R1*%
X53366120Y-52047520D02*
X53366120Y-53047520D01*
X54726120Y-53047520D02*
X54726120Y-52047520D01*
%TO.C,JP5*%
X59756800Y-51446200D02*
X59756800Y-52846200D01*
X60456800Y-53546200D02*
X61056800Y-53546200D01*
X61756800Y-52846200D02*
X61756800Y-51446200D01*
X61056800Y-50746200D02*
X60456800Y-50746200D01*
X59756800Y-52846200D02*
G75*
G03*
X60456800Y-53546200I700000J0D01*
G01*
X61056800Y-53546200D02*
G75*
G03*
X61756800Y-52846200I0J700000D01*
G01*
X61756800Y-51446200D02*
G75*
G03*
X61056800Y-50746200I-700000J0D01*
G01*
X60456800Y-50746200D02*
G75*
G03*
X59756800Y-51446200I0J-700000D01*
G01*
%TO.C,Q3*%
X68002880Y-47894360D02*
X68002880Y-46964360D01*
X68002880Y-44734360D02*
X68002880Y-45664360D01*
X68002880Y-44734360D02*
X70162880Y-44734360D01*
X68002880Y-47894360D02*
X69462880Y-47894360D01*
%TO.C,Q2*%
X67997800Y-58379480D02*
X67997800Y-57449480D01*
X67997800Y-55219480D02*
X67997800Y-56149480D01*
X67997800Y-55219480D02*
X70157800Y-55219480D01*
X67997800Y-58379480D02*
X69457800Y-58379480D01*
%TO.C,Q1*%
X59250040Y-47853720D02*
X60710040Y-47853720D01*
X59250040Y-44693720D02*
X61410040Y-44693720D01*
X59250040Y-44693720D02*
X59250040Y-45623720D01*
X59250040Y-47853720D02*
X59250040Y-46923720D01*
%TO.C,D4*%
D10*
X65071215Y-44059100D02*
X65071215Y-43059100D01*
X64833120Y-43059100D01*
X64690262Y-43106720D01*
X64595024Y-43201958D01*
X64547405Y-43297196D01*
X64499786Y-43487672D01*
X64499786Y-43630529D01*
X64547405Y-43821005D01*
X64595024Y-43916243D01*
X64690262Y-44011481D01*
X64833120Y-44059100D01*
X65071215Y-44059100D01*
X63642643Y-43392434D02*
X63642643Y-44059100D01*
X63880739Y-43011481D02*
X64118834Y-43725767D01*
X63499786Y-43725767D01*
%TO.C,D3*%
X65096615Y-54574700D02*
X65096615Y-53574700D01*
X64858520Y-53574700D01*
X64715662Y-53622320D01*
X64620424Y-53717558D01*
X64572805Y-53812796D01*
X64525186Y-54003272D01*
X64525186Y-54146129D01*
X64572805Y-54336605D01*
X64620424Y-54431843D01*
X64715662Y-54527081D01*
X64858520Y-54574700D01*
X65096615Y-54574700D01*
X64191853Y-53574700D02*
X63572805Y-53574700D01*
X63906139Y-53955653D01*
X63763281Y-53955653D01*
X63668043Y-54003272D01*
X63620424Y-54050891D01*
X63572805Y-54146129D01*
X63572805Y-54384224D01*
X63620424Y-54479462D01*
X63668043Y-54527081D01*
X63763281Y-54574700D01*
X64048996Y-54574700D01*
X64144234Y-54527081D01*
X64191853Y-54479462D01*
%TO.C,D2*%
X56359015Y-44059100D02*
X56359015Y-43059100D01*
X56120920Y-43059100D01*
X55978062Y-43106720D01*
X55882824Y-43201958D01*
X55835205Y-43297196D01*
X55787586Y-43487672D01*
X55787586Y-43630529D01*
X55835205Y-43821005D01*
X55882824Y-43916243D01*
X55978062Y-44011481D01*
X56120920Y-44059100D01*
X56359015Y-44059100D01*
X55406634Y-43154339D02*
X55359015Y-43106720D01*
X55263777Y-43059100D01*
X55025681Y-43059100D01*
X54930443Y-43106720D01*
X54882824Y-43154339D01*
X54835205Y-43249577D01*
X54835205Y-43344815D01*
X54882824Y-43487672D01*
X55454253Y-44059100D01*
X54835205Y-44059100D01*
%TO.C,D1*%
X56364095Y-54579780D02*
X56364095Y-53579780D01*
X56126000Y-53579780D01*
X55983142Y-53627400D01*
X55887904Y-53722638D01*
X55840285Y-53817876D01*
X55792666Y-54008352D01*
X55792666Y-54151209D01*
X55840285Y-54341685D01*
X55887904Y-54436923D01*
X55983142Y-54532161D01*
X56126000Y-54579780D01*
X56364095Y-54579780D01*
X54840285Y-54579780D02*
X55411714Y-54579780D01*
X55126000Y-54579780D02*
X55126000Y-53579780D01*
X55221238Y-53722638D01*
X55316476Y-53817876D01*
X55411714Y-53865495D01*
%TO.C,FID3*%
X63885628Y-61853771D02*
X64218961Y-61853771D01*
X64218961Y-62377580D02*
X64218961Y-61377580D01*
X63742771Y-61377580D01*
X63361819Y-62377580D02*
X63361819Y-61377580D01*
X62885628Y-62377580D02*
X62885628Y-61377580D01*
X62647533Y-61377580D01*
X62504676Y-61425200D01*
X62409438Y-61520438D01*
X62361819Y-61615676D01*
X62314200Y-61806152D01*
X62314200Y-61949009D01*
X62361819Y-62139485D01*
X62409438Y-62234723D01*
X62504676Y-62329961D01*
X62647533Y-62377580D01*
X62885628Y-62377580D01*
X61980866Y-61377580D02*
X61361819Y-61377580D01*
X61695152Y-61758533D01*
X61552295Y-61758533D01*
X61457057Y-61806152D01*
X61409438Y-61853771D01*
X61361819Y-61949009D01*
X61361819Y-62187104D01*
X61409438Y-62282342D01*
X61457057Y-62329961D01*
X61552295Y-62377580D01*
X61838009Y-62377580D01*
X61933247Y-62329961D01*
X61980866Y-62282342D01*
%TO.C,FID2*%
X45978628Y-58856571D02*
X46311961Y-58856571D01*
X46311961Y-59380380D02*
X46311961Y-58380380D01*
X45835771Y-58380380D01*
X45454819Y-59380380D02*
X45454819Y-58380380D01*
X44978628Y-59380380D02*
X44978628Y-58380380D01*
X44740533Y-58380380D01*
X44597676Y-58428000D01*
X44502438Y-58523238D01*
X44454819Y-58618476D01*
X44407200Y-58808952D01*
X44407200Y-58951809D01*
X44454819Y-59142285D01*
X44502438Y-59237523D01*
X44597676Y-59332761D01*
X44740533Y-59380380D01*
X44978628Y-59380380D01*
X44026247Y-58475619D02*
X43978628Y-58428000D01*
X43883390Y-58380380D01*
X43645295Y-58380380D01*
X43550057Y-58428000D01*
X43502438Y-58475619D01*
X43454819Y-58570857D01*
X43454819Y-58666095D01*
X43502438Y-58808952D01*
X44073866Y-59380380D01*
X43454819Y-59380380D01*
%TO.C,FID1*%
X45445228Y-42524371D02*
X45778561Y-42524371D01*
X45778561Y-43048180D02*
X45778561Y-42048180D01*
X45302371Y-42048180D01*
X44921419Y-43048180D02*
X44921419Y-42048180D01*
X44445228Y-43048180D02*
X44445228Y-42048180D01*
X44207133Y-42048180D01*
X44064276Y-42095800D01*
X43969038Y-42191038D01*
X43921419Y-42286276D01*
X43873800Y-42476752D01*
X43873800Y-42619609D01*
X43921419Y-42810085D01*
X43969038Y-42905323D01*
X44064276Y-43000561D01*
X44207133Y-43048180D01*
X44445228Y-43048180D01*
X42921419Y-43048180D02*
X43492847Y-43048180D01*
X43207133Y-43048180D02*
X43207133Y-42048180D01*
X43302371Y-42191038D01*
X43397609Y-42286276D01*
X43492847Y-42333895D01*
%TO.C,R10*%
X71089780Y-45407342D02*
X70613590Y-45074009D01*
X71089780Y-44835914D02*
X70089780Y-44835914D01*
X70089780Y-45216866D01*
X70137400Y-45312104D01*
X70185019Y-45359723D01*
X70280257Y-45407342D01*
X70423114Y-45407342D01*
X70518352Y-45359723D01*
X70565971Y-45312104D01*
X70613590Y-45216866D01*
X70613590Y-44835914D01*
X71089780Y-46359723D02*
X71089780Y-45788295D01*
X71089780Y-46074009D02*
X70089780Y-46074009D01*
X70232638Y-45978771D01*
X70327876Y-45883533D01*
X70375495Y-45788295D01*
X70089780Y-46978771D02*
X70089780Y-47074009D01*
X70137400Y-47169247D01*
X70185019Y-47216866D01*
X70280257Y-47264485D01*
X70470733Y-47312104D01*
X70708828Y-47312104D01*
X70899304Y-47264485D01*
X70994542Y-47216866D01*
X71042161Y-47169247D01*
X71089780Y-47074009D01*
X71089780Y-46978771D01*
X71042161Y-46883533D01*
X70994542Y-46835914D01*
X70899304Y-46788295D01*
X70708828Y-46740676D01*
X70470733Y-46740676D01*
X70280257Y-46788295D01*
X70185019Y-46835914D01*
X70137400Y-46883533D01*
X70089780Y-46978771D01*
%TO.C,R9*%
X67921866Y-41879780D02*
X68255200Y-41403590D01*
X68493295Y-41879780D02*
X68493295Y-40879780D01*
X68112342Y-40879780D01*
X68017104Y-40927400D01*
X67969485Y-40975019D01*
X67921866Y-41070257D01*
X67921866Y-41213114D01*
X67969485Y-41308352D01*
X68017104Y-41355971D01*
X68112342Y-41403590D01*
X68493295Y-41403590D01*
X67445676Y-41879780D02*
X67255200Y-41879780D01*
X67159961Y-41832161D01*
X67112342Y-41784542D01*
X67017104Y-41641685D01*
X66969485Y-41451209D01*
X66969485Y-41070257D01*
X67017104Y-40975019D01*
X67064723Y-40927400D01*
X67159961Y-40879780D01*
X67350438Y-40879780D01*
X67445676Y-40927400D01*
X67493295Y-40975019D01*
X67540914Y-41070257D01*
X67540914Y-41308352D01*
X67493295Y-41403590D01*
X67445676Y-41451209D01*
X67350438Y-41498828D01*
X67159961Y-41498828D01*
X67064723Y-41451209D01*
X67017104Y-41403590D01*
X66969485Y-41308352D01*
%TO.C,R8*%
X65014100Y-41469013D02*
X64537910Y-41135680D01*
X65014100Y-40897584D02*
X64014100Y-40897584D01*
X64014100Y-41278537D01*
X64061720Y-41373775D01*
X64109339Y-41421394D01*
X64204577Y-41469013D01*
X64347434Y-41469013D01*
X64442672Y-41421394D01*
X64490291Y-41373775D01*
X64537910Y-41278537D01*
X64537910Y-40897584D01*
X64442672Y-42040441D02*
X64395053Y-41945203D01*
X64347434Y-41897584D01*
X64252196Y-41849965D01*
X64204577Y-41849965D01*
X64109339Y-41897584D01*
X64061720Y-41945203D01*
X64014100Y-42040441D01*
X64014100Y-42230918D01*
X64061720Y-42326156D01*
X64109339Y-42373775D01*
X64204577Y-42421394D01*
X64252196Y-42421394D01*
X64347434Y-42373775D01*
X64395053Y-42326156D01*
X64442672Y-42230918D01*
X64442672Y-42040441D01*
X64490291Y-41945203D01*
X64537910Y-41897584D01*
X64633148Y-41849965D01*
X64823624Y-41849965D01*
X64918862Y-41897584D01*
X64966481Y-41945203D01*
X65014100Y-42040441D01*
X65014100Y-42230918D01*
X64966481Y-42326156D01*
X64918862Y-42373775D01*
X64823624Y-42421394D01*
X64633148Y-42421394D01*
X64537910Y-42373775D01*
X64490291Y-42326156D01*
X64442672Y-42230918D01*
%TO.C,R7*%
X67451266Y-53055780D02*
X67784600Y-52579590D01*
X68022695Y-53055780D02*
X68022695Y-52055780D01*
X67641742Y-52055780D01*
X67546504Y-52103400D01*
X67498885Y-52151019D01*
X67451266Y-52246257D01*
X67451266Y-52389114D01*
X67498885Y-52484352D01*
X67546504Y-52531971D01*
X67641742Y-52579590D01*
X68022695Y-52579590D01*
X67117933Y-52055780D02*
X66451266Y-52055780D01*
X66879838Y-53055780D01*
%TO.C,R6*%
X71064380Y-49896733D02*
X70588190Y-49563400D01*
X71064380Y-49325304D02*
X70064380Y-49325304D01*
X70064380Y-49706257D01*
X70112000Y-49801495D01*
X70159619Y-49849114D01*
X70254857Y-49896733D01*
X70397714Y-49896733D01*
X70492952Y-49849114D01*
X70540571Y-49801495D01*
X70588190Y-49706257D01*
X70588190Y-49325304D01*
X70064380Y-50753876D02*
X70064380Y-50563400D01*
X70112000Y-50468161D01*
X70159619Y-50420542D01*
X70302476Y-50325304D01*
X70492952Y-50277685D01*
X70873904Y-50277685D01*
X70969142Y-50325304D01*
X71016761Y-50372923D01*
X71064380Y-50468161D01*
X71064380Y-50658638D01*
X71016761Y-50753876D01*
X70969142Y-50801495D01*
X70873904Y-50849114D01*
X70635809Y-50849114D01*
X70540571Y-50801495D01*
X70492952Y-50753876D01*
X70445333Y-50658638D01*
X70445333Y-50468161D01*
X70492952Y-50372923D01*
X70540571Y-50325304D01*
X70635809Y-50277685D01*
%TO.C,R5*%
X64582300Y-51999853D02*
X64106110Y-51666520D01*
X64582300Y-51428424D02*
X63582300Y-51428424D01*
X63582300Y-51809377D01*
X63629920Y-51904615D01*
X63677539Y-51952234D01*
X63772777Y-51999853D01*
X63915634Y-51999853D01*
X64010872Y-51952234D01*
X64058491Y-51904615D01*
X64106110Y-51809377D01*
X64106110Y-51428424D01*
X63582300Y-52904615D02*
X63582300Y-52428424D01*
X64058491Y-52380805D01*
X64010872Y-52428424D01*
X63963253Y-52523662D01*
X63963253Y-52761758D01*
X64010872Y-52856996D01*
X64058491Y-52904615D01*
X64153729Y-52952234D01*
X64391824Y-52952234D01*
X64487062Y-52904615D01*
X64534681Y-52856996D01*
X64582300Y-52761758D01*
X64582300Y-52523662D01*
X64534681Y-52428424D01*
X64487062Y-52380805D01*
%TO.C,R4*%
X63209466Y-44445180D02*
X63542800Y-43968990D01*
X63780895Y-44445180D02*
X63780895Y-43445180D01*
X63399942Y-43445180D01*
X63304704Y-43492800D01*
X63257085Y-43540419D01*
X63209466Y-43635657D01*
X63209466Y-43778514D01*
X63257085Y-43873752D01*
X63304704Y-43921371D01*
X63399942Y-43968990D01*
X63780895Y-43968990D01*
X62352323Y-43778514D02*
X62352323Y-44445180D01*
X62590419Y-43397561D02*
X62828514Y-44111847D01*
X62209466Y-44111847D01*
%TO.C,R3*%
X59755066Y-41803580D02*
X60088400Y-41327390D01*
X60326495Y-41803580D02*
X60326495Y-40803580D01*
X59945542Y-40803580D01*
X59850304Y-40851200D01*
X59802685Y-40898819D01*
X59755066Y-40994057D01*
X59755066Y-41136914D01*
X59802685Y-41232152D01*
X59850304Y-41279771D01*
X59945542Y-41327390D01*
X60326495Y-41327390D01*
X59421733Y-40803580D02*
X58802685Y-40803580D01*
X59136019Y-41184533D01*
X58993161Y-41184533D01*
X58897923Y-41232152D01*
X58850304Y-41279771D01*
X58802685Y-41375009D01*
X58802685Y-41613104D01*
X58850304Y-41708342D01*
X58897923Y-41755961D01*
X58993161Y-41803580D01*
X59278876Y-41803580D01*
X59374114Y-41755961D01*
X59421733Y-41708342D01*
%TO.C,R2*%
X55870100Y-41484253D02*
X55393910Y-41150920D01*
X55870100Y-40912824D02*
X54870100Y-40912824D01*
X54870100Y-41293777D01*
X54917720Y-41389015D01*
X54965339Y-41436634D01*
X55060577Y-41484253D01*
X55203434Y-41484253D01*
X55298672Y-41436634D01*
X55346291Y-41389015D01*
X55393910Y-41293777D01*
X55393910Y-40912824D01*
X54965339Y-41865205D02*
X54917720Y-41912824D01*
X54870100Y-42008062D01*
X54870100Y-42246158D01*
X54917720Y-42341396D01*
X54965339Y-42389015D01*
X55060577Y-42436634D01*
X55155815Y-42436634D01*
X55298672Y-42389015D01*
X55870100Y-41817586D01*
X55870100Y-42436634D01*
%TO.C,R1*%
X55931060Y-52010013D02*
X55454870Y-51676680D01*
X55931060Y-51438584D02*
X54931060Y-51438584D01*
X54931060Y-51819537D01*
X54978680Y-51914775D01*
X55026299Y-51962394D01*
X55121537Y-52010013D01*
X55264394Y-52010013D01*
X55359632Y-51962394D01*
X55407251Y-51914775D01*
X55454870Y-51819537D01*
X55454870Y-51438584D01*
X55931060Y-52962394D02*
X55931060Y-52390965D01*
X55931060Y-52676680D02*
X54931060Y-52676680D01*
X55073918Y-52581441D01*
X55169156Y-52486203D01*
X55216775Y-52390965D01*
%TO.C,JP5*%
X60234580Y-54183066D02*
X60948866Y-54183066D01*
X61091723Y-54135447D01*
X61186961Y-54040209D01*
X61234580Y-53897352D01*
X61234580Y-53802114D01*
X61234580Y-54659257D02*
X60234580Y-54659257D01*
X60234580Y-55040209D01*
X60282200Y-55135447D01*
X60329819Y-55183066D01*
X60425057Y-55230685D01*
X60567914Y-55230685D01*
X60663152Y-55183066D01*
X60710771Y-55135447D01*
X60758390Y-55040209D01*
X60758390Y-54659257D01*
X60234580Y-56135447D02*
X60234580Y-55659257D01*
X60710771Y-55611638D01*
X60663152Y-55659257D01*
X60615533Y-55754495D01*
X60615533Y-55992590D01*
X60663152Y-56087828D01*
X60710771Y-56135447D01*
X60806009Y-56183066D01*
X61044104Y-56183066D01*
X61139342Y-56135447D01*
X61186961Y-56087828D01*
X61234580Y-55992590D01*
X61234580Y-55754495D01*
X61186961Y-55659257D01*
X61139342Y-55611638D01*
%TO.C,Q3*%
X67862699Y-47692321D02*
X67815080Y-47597083D01*
X67719841Y-47501845D01*
X67576984Y-47358988D01*
X67529365Y-47263750D01*
X67529365Y-47168512D01*
X67767460Y-47216131D02*
X67719841Y-47120893D01*
X67624603Y-47025655D01*
X67434127Y-46978036D01*
X67100794Y-46978036D01*
X66910318Y-47025655D01*
X66815080Y-47120893D01*
X66767460Y-47216131D01*
X66767460Y-47406607D01*
X66815080Y-47501845D01*
X66910318Y-47597083D01*
X67100794Y-47644702D01*
X67434127Y-47644702D01*
X67624603Y-47597083D01*
X67719841Y-47501845D01*
X67767460Y-47406607D01*
X67767460Y-47216131D01*
X66767460Y-47978036D02*
X66767460Y-48597083D01*
X67148413Y-48263750D01*
X67148413Y-48406607D01*
X67196032Y-48501845D01*
X67243651Y-48549464D01*
X67338889Y-48597083D01*
X67576984Y-48597083D01*
X67672222Y-48549464D01*
X67719841Y-48501845D01*
X67767460Y-48406607D01*
X67767460Y-48120893D01*
X67719841Y-48025655D01*
X67672222Y-47978036D01*
%TO.C,Q2*%
X67857619Y-58202841D02*
X67810000Y-58107603D01*
X67714761Y-58012365D01*
X67571904Y-57869508D01*
X67524285Y-57774270D01*
X67524285Y-57679032D01*
X67762380Y-57726651D02*
X67714761Y-57631413D01*
X67619523Y-57536175D01*
X67429047Y-57488556D01*
X67095714Y-57488556D01*
X66905238Y-57536175D01*
X66810000Y-57631413D01*
X66762380Y-57726651D01*
X66762380Y-57917127D01*
X66810000Y-58012365D01*
X66905238Y-58107603D01*
X67095714Y-58155222D01*
X67429047Y-58155222D01*
X67619523Y-58107603D01*
X67714761Y-58012365D01*
X67762380Y-57917127D01*
X67762380Y-57726651D01*
X66857619Y-58536175D02*
X66810000Y-58583794D01*
X66762380Y-58679032D01*
X66762380Y-58917127D01*
X66810000Y-59012365D01*
X66857619Y-59059984D01*
X66952857Y-59107603D01*
X67048095Y-59107603D01*
X67190952Y-59059984D01*
X67762380Y-58488556D01*
X67762380Y-59107603D01*
%TO.C,Q1*%
X59059059Y-47524681D02*
X59011440Y-47429443D01*
X58916201Y-47334205D01*
X58773344Y-47191348D01*
X58725725Y-47096110D01*
X58725725Y-47000872D01*
X58963820Y-47048491D02*
X58916201Y-46953253D01*
X58820963Y-46858015D01*
X58630487Y-46810396D01*
X58297154Y-46810396D01*
X58106678Y-46858015D01*
X58011440Y-46953253D01*
X57963820Y-47048491D01*
X57963820Y-47238967D01*
X58011440Y-47334205D01*
X58106678Y-47429443D01*
X58297154Y-47477062D01*
X58630487Y-47477062D01*
X58820963Y-47429443D01*
X58916201Y-47334205D01*
X58963820Y-47238967D01*
X58963820Y-47048491D01*
X58963820Y-48429443D02*
X58963820Y-47858015D01*
X58963820Y-48143729D02*
X57963820Y-48143729D01*
X58106678Y-48048491D01*
X58201916Y-47953253D01*
X58249535Y-47858015D01*
%TD*%
M02*
