M48
; DRILL file {KiCad (5.1.10-1-10_14)} date Sunday, January 09, 2022 at 04:11:46 PM
; FORMAT={-:-/ absolute / inch / decimal}
; #@! TF.CreationDate,2022-01-09T16:11:46-08:00
; #@! TF.GenerationSoftware,Kicad,Pcbnew,(5.1.10-1-10_14)
; #@! TF.FileFunction,NonPlated,1,2,NPTH
FMAT,2
INCH
T1C0.0394
T2C0.0827
%
G90
G05
T1
G00X2.1681Y-1.8444
M15
G01X2.1681Y-1.7892
M16
G05
G00X2.1683Y-2.2586
M15
G01X2.1683Y-2.2034
M16
G05
G00X2.2115Y-1.7892
M15
G01X2.1681Y-1.7892
M16
G05
G00X2.2115Y-1.8444
M15
G01X2.1681Y-1.8444
M16
G05
G00X2.2117Y-2.2034
M15
G01X2.1683Y-2.2034
M16
G05
G00X2.2117Y-2.2586
M15
G01X2.1683Y-2.2586
M16
G05
G00X2.2115Y-1.8444
M15
G01X2.2115Y-1.7892
M16
G05
G00X2.2117Y-2.2586
M15
G01X2.2117Y-2.2034
M16
G05
G00X2.5111Y-1.8444
M15
G01X2.5111Y-1.7892
M16
G05
G00X2.5121Y-2.2584
M15
G01X2.5121Y-2.2032
M16
G05
G00X2.5545Y-1.7892
M15
G01X2.5111Y-1.7892
M16
G05
G00X2.5545Y-1.8444
M15
G01X2.5111Y-1.8444
M16
G05
G00X2.5555Y-2.2032
M15
G01X2.5121Y-2.2032
M16
G05
G00X2.5555Y-2.2584
M15
G01X2.5121Y-2.2584
M16
G05
G00X2.5545Y-1.8444
M15
G01X2.5545Y-1.7892
M16
G05
G00X2.5555Y-2.2584
M15
G01X2.5555Y-2.2032
M16
G05
T2
G00X2.1898Y-1.8227
M15
G01X2.1898Y-1.8109
M16
G05
G00X2.19Y-2.2369
M15
G01X2.19Y-2.2251
M16
G05
G00X2.5328Y-1.8227
M15
G01X2.5328Y-1.8109
M16
G05
G00X2.5338Y-2.2367
M15
G01X2.5338Y-2.2249
M16
G05
T0
M30
