%TF.GenerationSoftware,KiCad,Pcbnew,(5.1.10-1-10_14)*%
%TF.CreationDate,2022-01-11T15:19:51-08:00*%
%TF.ProjectId,FanExpander-Lite,46616e45-7870-4616-9e64-65722d4c6974,V1.0.3*%
%TF.SameCoordinates,Original*%
%TF.FileFunction,Legend,Top*%
%TF.FilePolarity,Positive*%
%FSLAX46Y46*%
G04 Gerber Fmt 4.6, Leading zero omitted, Abs format (unit mm)*
G04 Created by KiCad (PCBNEW (5.1.10-1-10_14)) date 2022-01-11 15:19:51*
%MOMM*%
%LPD*%
G01*
G04 APERTURE LIST*
%ADD10C,0.120000*%
%ADD11C,0.150000*%
G04 APERTURE END LIST*
D10*
%TO.C,J7*%
X59934800Y-62225880D02*
X59934800Y-67425880D01*
X67614800Y-62225880D02*
X59934800Y-62225880D01*
X70214800Y-67425880D02*
X59934800Y-67425880D01*
X67614800Y-62225880D02*
X67614800Y-64825880D01*
X67614800Y-64825880D02*
X70214800Y-64825880D01*
X70214800Y-64825880D02*
X70214800Y-67425880D01*
X68884800Y-62225880D02*
X70214800Y-62225880D01*
X70214800Y-62225880D02*
X70214800Y-63555880D01*
%TO.C,F2*%
X53100480Y-40934080D02*
X53100480Y-42496080D01*
X53100480Y-43874080D02*
X53100480Y-50535080D01*
X49900480Y-40934080D02*
X49900480Y-47597080D01*
X49900480Y-48974080D02*
X49900480Y-50535080D01*
X53100480Y-40934080D02*
X49900480Y-40934080D01*
X53100480Y-50535080D02*
X49900480Y-50535080D01*
%TO.C,F1*%
X49906680Y-60518600D02*
X49906680Y-58956600D01*
X49906680Y-57578600D02*
X49906680Y-50917600D01*
X53106680Y-60518600D02*
X53106680Y-53855600D01*
X53106680Y-52478600D02*
X53106680Y-50917600D01*
X49906680Y-60518600D02*
X53106680Y-60518600D01*
X49906680Y-50917600D02*
X53106680Y-50917600D01*
D11*
%TO.C,J5*%
X43434000Y-44120000D02*
X42834000Y-43520000D01*
X44034000Y-43520000D02*
X43434000Y-44120000D01*
X42834000Y-43520000D02*
X44034000Y-43520000D01*
X49274000Y-43070000D02*
X49274000Y-43570000D01*
X49374000Y-43570000D02*
X49174000Y-43570000D01*
X49374000Y-43070000D02*
X49374000Y-43570000D01*
X49174000Y-43070000D02*
X49374000Y-43070000D01*
X49274000Y-58030000D02*
X49274000Y-58530000D01*
X49374000Y-58530000D02*
X49174000Y-58530000D01*
X49374000Y-58030000D02*
X49374000Y-58530000D01*
X49174000Y-58030000D02*
X49374000Y-58030000D01*
X49274000Y-50550000D02*
X49274000Y-51050000D01*
X49374000Y-51050000D02*
X49174000Y-51050000D01*
X49374000Y-50550000D02*
X49374000Y-51050000D01*
X49174000Y-50550000D02*
X49374000Y-50550000D01*
X41534000Y-53025000D02*
X40234000Y-53025000D01*
X41534000Y-59750000D02*
X41534000Y-53025000D01*
X47874000Y-59750000D02*
X41534000Y-59750000D01*
X47874000Y-41850000D02*
X47874000Y-59750000D01*
X41534000Y-41850000D02*
X47874000Y-41850000D01*
X41534000Y-48575000D02*
X41534000Y-41850000D01*
X40234000Y-48575000D02*
X41534000Y-48575000D01*
X40234000Y-60950000D02*
X40234000Y-40650000D01*
X49174000Y-60950000D02*
X40234000Y-60950000D01*
X49174000Y-40650000D02*
X49174000Y-60950000D01*
X40234000Y-40650000D02*
X49174000Y-40650000D01*
D10*
%TO.C,J4*%
X62168920Y-40882120D02*
X62168920Y-43382120D01*
X64668920Y-40882120D02*
X62168920Y-40882120D01*
X69318920Y-46382120D02*
X66268920Y-46382120D01*
X69318920Y-43432120D02*
X69318920Y-46382120D01*
X70068920Y-43432120D02*
X69318920Y-43432120D01*
X63218920Y-46382120D02*
X66268920Y-46382120D01*
X63218920Y-43432120D02*
X63218920Y-46382120D01*
X62468920Y-43432120D02*
X63218920Y-43432120D01*
X70068920Y-41182120D02*
X68268920Y-41182120D01*
X70068920Y-41932120D02*
X70068920Y-41182120D01*
X68268920Y-41932120D02*
X70068920Y-41932120D01*
X68268920Y-41182120D02*
X68268920Y-41932120D01*
X64268920Y-41182120D02*
X62468920Y-41182120D01*
X64268920Y-41932120D02*
X64268920Y-41182120D01*
X62468920Y-41932120D02*
X64268920Y-41932120D01*
X62468920Y-41182120D02*
X62468920Y-41932120D01*
X66768920Y-41182120D02*
X65768920Y-41182120D01*
X66768920Y-41932120D02*
X66768920Y-41182120D01*
X65768920Y-41932120D02*
X66768920Y-41932120D01*
X65768920Y-41182120D02*
X65768920Y-41932120D01*
X70068920Y-41182120D02*
X62468920Y-41182120D01*
X70068920Y-47132120D02*
X70068920Y-41182120D01*
X62468920Y-47132120D02*
X70068920Y-47132120D01*
X62468920Y-41182120D02*
X62468920Y-47132120D01*
%TO.C,J3*%
X62168920Y-51397720D02*
X62168920Y-53897720D01*
X64668920Y-51397720D02*
X62168920Y-51397720D01*
X69318920Y-56897720D02*
X66268920Y-56897720D01*
X69318920Y-53947720D02*
X69318920Y-56897720D01*
X70068920Y-53947720D02*
X69318920Y-53947720D01*
X63218920Y-56897720D02*
X66268920Y-56897720D01*
X63218920Y-53947720D02*
X63218920Y-56897720D01*
X62468920Y-53947720D02*
X63218920Y-53947720D01*
X70068920Y-51697720D02*
X68268920Y-51697720D01*
X70068920Y-52447720D02*
X70068920Y-51697720D01*
X68268920Y-52447720D02*
X70068920Y-52447720D01*
X68268920Y-51697720D02*
X68268920Y-52447720D01*
X64268920Y-51697720D02*
X62468920Y-51697720D01*
X64268920Y-52447720D02*
X64268920Y-51697720D01*
X62468920Y-52447720D02*
X64268920Y-52447720D01*
X62468920Y-51697720D02*
X62468920Y-52447720D01*
X66768920Y-51697720D02*
X65768920Y-51697720D01*
X66768920Y-52447720D02*
X66768920Y-51697720D01*
X65768920Y-52447720D02*
X66768920Y-52447720D01*
X65768920Y-51697720D02*
X65768920Y-52447720D01*
X70068920Y-51697720D02*
X62468920Y-51697720D01*
X70068920Y-57647720D02*
X70068920Y-51697720D01*
X62468920Y-57647720D02*
X70068920Y-57647720D01*
X62468920Y-51697720D02*
X62468920Y-57647720D01*
%TO.C,JP4*%
X62520520Y-50753320D02*
X62520520Y-49423320D01*
X63850520Y-50753320D02*
X62520520Y-50753320D01*
X65120520Y-50753320D02*
X65120520Y-48093320D01*
X65120520Y-48093320D02*
X70260520Y-48093320D01*
X65120520Y-50753320D02*
X70260520Y-50753320D01*
X70260520Y-50753320D02*
X70260520Y-48093320D01*
%TO.C,JP3*%
X62545920Y-61243520D02*
X62545920Y-59913520D01*
X63875920Y-61243520D02*
X62545920Y-61243520D01*
X65145920Y-61243520D02*
X65145920Y-58583520D01*
X65145920Y-58583520D02*
X70285920Y-58583520D01*
X65145920Y-61243520D02*
X70285920Y-61243520D01*
X70285920Y-61243520D02*
X70285920Y-58583520D01*
%TO.C,J2*%
X53431320Y-40882120D02*
X53431320Y-43382120D01*
X55931320Y-40882120D02*
X53431320Y-40882120D01*
X60581320Y-46382120D02*
X57531320Y-46382120D01*
X60581320Y-43432120D02*
X60581320Y-46382120D01*
X61331320Y-43432120D02*
X60581320Y-43432120D01*
X54481320Y-46382120D02*
X57531320Y-46382120D01*
X54481320Y-43432120D02*
X54481320Y-46382120D01*
X53731320Y-43432120D02*
X54481320Y-43432120D01*
X61331320Y-41182120D02*
X59531320Y-41182120D01*
X61331320Y-41932120D02*
X61331320Y-41182120D01*
X59531320Y-41932120D02*
X61331320Y-41932120D01*
X59531320Y-41182120D02*
X59531320Y-41932120D01*
X55531320Y-41182120D02*
X53731320Y-41182120D01*
X55531320Y-41932120D02*
X55531320Y-41182120D01*
X53731320Y-41932120D02*
X55531320Y-41932120D01*
X53731320Y-41182120D02*
X53731320Y-41932120D01*
X58031320Y-41182120D02*
X57031320Y-41182120D01*
X58031320Y-41932120D02*
X58031320Y-41182120D01*
X57031320Y-41932120D02*
X58031320Y-41932120D01*
X57031320Y-41182120D02*
X57031320Y-41932120D01*
X61331320Y-41182120D02*
X53731320Y-41182120D01*
X61331320Y-47132120D02*
X61331320Y-41182120D01*
X53731320Y-47132120D02*
X61331320Y-47132120D01*
X53731320Y-41182120D02*
X53731320Y-47132120D01*
%TO.C,J1*%
X53456720Y-51397720D02*
X53456720Y-53897720D01*
X55956720Y-51397720D02*
X53456720Y-51397720D01*
X60606720Y-56897720D02*
X57556720Y-56897720D01*
X60606720Y-53947720D02*
X60606720Y-56897720D01*
X61356720Y-53947720D02*
X60606720Y-53947720D01*
X54506720Y-56897720D02*
X57556720Y-56897720D01*
X54506720Y-53947720D02*
X54506720Y-56897720D01*
X53756720Y-53947720D02*
X54506720Y-53947720D01*
X61356720Y-51697720D02*
X59556720Y-51697720D01*
X61356720Y-52447720D02*
X61356720Y-51697720D01*
X59556720Y-52447720D02*
X61356720Y-52447720D01*
X59556720Y-51697720D02*
X59556720Y-52447720D01*
X55556720Y-51697720D02*
X53756720Y-51697720D01*
X55556720Y-52447720D02*
X55556720Y-51697720D01*
X53756720Y-52447720D02*
X55556720Y-52447720D01*
X53756720Y-51697720D02*
X53756720Y-52447720D01*
X58056720Y-51697720D02*
X57056720Y-51697720D01*
X58056720Y-52447720D02*
X58056720Y-51697720D01*
X57056720Y-52447720D02*
X58056720Y-52447720D01*
X57056720Y-51697720D02*
X57056720Y-52447720D01*
X61356720Y-51697720D02*
X53756720Y-51697720D01*
X61356720Y-57647720D02*
X61356720Y-51697720D01*
X53756720Y-57647720D02*
X61356720Y-57647720D01*
X53756720Y-51697720D02*
X53756720Y-57647720D01*
%TO.C,JP2*%
X53808320Y-50753320D02*
X53808320Y-49423320D01*
X55138320Y-50753320D02*
X53808320Y-50753320D01*
X56408320Y-50753320D02*
X56408320Y-48093320D01*
X56408320Y-48093320D02*
X61548320Y-48093320D01*
X56408320Y-50753320D02*
X61548320Y-50753320D01*
X61548320Y-50753320D02*
X61548320Y-48093320D01*
%TO.C,JP1*%
X53808320Y-61243520D02*
X53808320Y-59913520D01*
X55138320Y-61243520D02*
X53808320Y-61243520D01*
X56408320Y-61243520D02*
X56408320Y-58583520D01*
X56408320Y-58583520D02*
X61548320Y-58583520D01*
X56408320Y-61243520D02*
X61548320Y-61243520D01*
X61548320Y-61243520D02*
X61548320Y-58583520D01*
%TO.C,J6*%
X51119920Y-61852360D02*
X51119920Y-64352360D01*
X53619920Y-61852360D02*
X51119920Y-61852360D01*
X58269920Y-67352360D02*
X55219920Y-67352360D01*
X58269920Y-64402360D02*
X58269920Y-67352360D01*
X59019920Y-64402360D02*
X58269920Y-64402360D01*
X52169920Y-67352360D02*
X55219920Y-67352360D01*
X52169920Y-64402360D02*
X52169920Y-67352360D01*
X51419920Y-64402360D02*
X52169920Y-64402360D01*
X59019920Y-62152360D02*
X57219920Y-62152360D01*
X59019920Y-62902360D02*
X59019920Y-62152360D01*
X57219920Y-62902360D02*
X59019920Y-62902360D01*
X57219920Y-62152360D02*
X57219920Y-62902360D01*
X53219920Y-62152360D02*
X51419920Y-62152360D01*
X53219920Y-62902360D02*
X53219920Y-62152360D01*
X51419920Y-62902360D02*
X53219920Y-62902360D01*
X51419920Y-62152360D02*
X51419920Y-62902360D01*
X55719920Y-62152360D02*
X54719920Y-62152360D01*
X55719920Y-62902360D02*
X55719920Y-62152360D01*
X54719920Y-62902360D02*
X55719920Y-62902360D01*
X54719920Y-62152360D02*
X54719920Y-62902360D01*
X59019920Y-62152360D02*
X51419920Y-62152360D01*
X59019920Y-68102360D02*
X59019920Y-62152360D01*
X51419920Y-68102360D02*
X59019920Y-68102360D01*
X51419920Y-62152360D02*
X51419920Y-68102360D01*
%TO.C,J7*%
D11*
X68018066Y-61479180D02*
X68018066Y-62193466D01*
X67970447Y-62336323D01*
X67875209Y-62431561D01*
X67732352Y-62479180D01*
X67637114Y-62479180D01*
X68399019Y-61479180D02*
X69065685Y-61479180D01*
X68637114Y-62479180D01*
%TO.C,F2*%
X52323691Y-49980173D02*
X52323691Y-50313506D01*
X52847500Y-50313506D02*
X51847500Y-50313506D01*
X51847500Y-49837316D01*
X51942739Y-49503982D02*
X51895120Y-49456363D01*
X51847500Y-49361125D01*
X51847500Y-49123030D01*
X51895120Y-49027792D01*
X51942739Y-48980173D01*
X52037977Y-48932554D01*
X52133215Y-48932554D01*
X52276072Y-48980173D01*
X52847500Y-49551601D01*
X52847500Y-48932554D01*
%TO.C,F1*%
X52360371Y-59942373D02*
X52360371Y-60275706D01*
X52884180Y-60275706D02*
X51884180Y-60275706D01*
X51884180Y-59799516D01*
X52884180Y-58894754D02*
X52884180Y-59466182D01*
X52884180Y-59180468D02*
X51884180Y-59180468D01*
X52027038Y-59275706D01*
X52122276Y-59370944D01*
X52169895Y-59466182D01*
%TO.C,J5*%
X47953680Y-45621533D02*
X48667966Y-45621533D01*
X48810823Y-45669152D01*
X48906061Y-45764390D01*
X48953680Y-45907247D01*
X48953680Y-46002485D01*
X47953680Y-44669152D02*
X47953680Y-45145342D01*
X48429871Y-45192961D01*
X48382252Y-45145342D01*
X48334633Y-45050104D01*
X48334633Y-44812009D01*
X48382252Y-44716771D01*
X48429871Y-44669152D01*
X48525109Y-44621533D01*
X48763204Y-44621533D01*
X48858442Y-44669152D01*
X48906061Y-44716771D01*
X48953680Y-44812009D01*
X48953680Y-45050104D01*
X48906061Y-45145342D01*
X48858442Y-45192961D01*
%TO.C,J4*%
X64553506Y-41458900D02*
X64553506Y-42173186D01*
X64505887Y-42316043D01*
X64410649Y-42411281D01*
X64267792Y-42458900D01*
X64172554Y-42458900D01*
X65458268Y-41792234D02*
X65458268Y-42458900D01*
X65220173Y-41411281D02*
X64982078Y-42125567D01*
X65601125Y-42125567D01*
%TO.C,J3*%
X64578906Y-51908460D02*
X64578906Y-52622746D01*
X64531287Y-52765603D01*
X64436049Y-52860841D01*
X64293192Y-52908460D01*
X64197954Y-52908460D01*
X64959859Y-51908460D02*
X65578906Y-51908460D01*
X65245573Y-52289413D01*
X65388430Y-52289413D01*
X65483668Y-52337032D01*
X65531287Y-52384651D01*
X65578906Y-52479889D01*
X65578906Y-52717984D01*
X65531287Y-52813222D01*
X65483668Y-52860841D01*
X65388430Y-52908460D01*
X65102716Y-52908460D01*
X65007478Y-52860841D01*
X64959859Y-52813222D01*
%TO.C,JP4*%
X61850020Y-49200013D02*
X62564306Y-49200013D01*
X62707163Y-49247632D01*
X62802401Y-49342870D01*
X62850020Y-49485727D01*
X62850020Y-49580965D01*
X62850020Y-48723822D02*
X61850020Y-48723822D01*
X61850020Y-48342870D01*
X61897640Y-48247632D01*
X61945259Y-48200013D01*
X62040497Y-48152394D01*
X62183354Y-48152394D01*
X62278592Y-48200013D01*
X62326211Y-48247632D01*
X62373830Y-48342870D01*
X62373830Y-48723822D01*
X62183354Y-47295251D02*
X62850020Y-47295251D01*
X61802401Y-47533346D02*
X62516687Y-47771441D01*
X62516687Y-47152394D01*
%TO.C,JP3*%
X61850020Y-59690213D02*
X62564306Y-59690213D01*
X62707163Y-59737832D01*
X62802401Y-59833070D01*
X62850020Y-59975927D01*
X62850020Y-60071165D01*
X62850020Y-59214022D02*
X61850020Y-59214022D01*
X61850020Y-58833070D01*
X61897640Y-58737832D01*
X61945259Y-58690213D01*
X62040497Y-58642594D01*
X62183354Y-58642594D01*
X62278592Y-58690213D01*
X62326211Y-58737832D01*
X62373830Y-58833070D01*
X62373830Y-59214022D01*
X61850020Y-58309260D02*
X61850020Y-57690213D01*
X62230973Y-58023546D01*
X62230973Y-57880689D01*
X62278592Y-57785451D01*
X62326211Y-57737832D01*
X62421449Y-57690213D01*
X62659544Y-57690213D01*
X62754782Y-57737832D01*
X62802401Y-57785451D01*
X62850020Y-57880689D01*
X62850020Y-58166403D01*
X62802401Y-58261641D01*
X62754782Y-58309260D01*
%TO.C,J2*%
X55846386Y-41362380D02*
X55846386Y-42076666D01*
X55798767Y-42219523D01*
X55703529Y-42314761D01*
X55560672Y-42362380D01*
X55465434Y-42362380D01*
X56274958Y-41457619D02*
X56322577Y-41410000D01*
X56417815Y-41362380D01*
X56655910Y-41362380D01*
X56751148Y-41410000D01*
X56798767Y-41457619D01*
X56846386Y-41552857D01*
X56846386Y-41648095D01*
X56798767Y-41790952D01*
X56227339Y-42362380D01*
X56846386Y-42362380D01*
%TO.C,J1*%
X56044506Y-51883060D02*
X56044506Y-52597346D01*
X55996887Y-52740203D01*
X55901649Y-52835441D01*
X55758792Y-52883060D01*
X55663554Y-52883060D01*
X57044506Y-52883060D02*
X56473078Y-52883060D01*
X56758792Y-52883060D02*
X56758792Y-51883060D01*
X56663554Y-52025918D01*
X56568316Y-52121156D01*
X56473078Y-52168775D01*
%TO.C,JP2*%
X53163220Y-49250813D02*
X53877506Y-49250813D01*
X54020363Y-49298432D01*
X54115601Y-49393670D01*
X54163220Y-49536527D01*
X54163220Y-49631765D01*
X54163220Y-48774622D02*
X53163220Y-48774622D01*
X53163220Y-48393670D01*
X53210840Y-48298432D01*
X53258459Y-48250813D01*
X53353697Y-48203194D01*
X53496554Y-48203194D01*
X53591792Y-48250813D01*
X53639411Y-48298432D01*
X53687030Y-48393670D01*
X53687030Y-48774622D01*
X53258459Y-47822241D02*
X53210840Y-47774622D01*
X53163220Y-47679384D01*
X53163220Y-47441289D01*
X53210840Y-47346051D01*
X53258459Y-47298432D01*
X53353697Y-47250813D01*
X53448935Y-47250813D01*
X53591792Y-47298432D01*
X54163220Y-47869860D01*
X54163220Y-47250813D01*
%TO.C,JP1*%
X53178460Y-59517493D02*
X53892746Y-59517493D01*
X54035603Y-59565112D01*
X54130841Y-59660350D01*
X54178460Y-59803207D01*
X54178460Y-59898445D01*
X54178460Y-59041302D02*
X53178460Y-59041302D01*
X53178460Y-58660350D01*
X53226080Y-58565112D01*
X53273699Y-58517493D01*
X53368937Y-58469874D01*
X53511794Y-58469874D01*
X53607032Y-58517493D01*
X53654651Y-58565112D01*
X53702270Y-58660350D01*
X53702270Y-59041302D01*
X54178460Y-57517493D02*
X54178460Y-58088921D01*
X54178460Y-57803207D02*
X53178460Y-57803207D01*
X53321318Y-57898445D01*
X53416556Y-57993683D01*
X53464175Y-58088921D01*
%TO.C,J6*%
X49871380Y-63833333D02*
X50585666Y-63833333D01*
X50728523Y-63880952D01*
X50823761Y-63976190D01*
X50871380Y-64119047D01*
X50871380Y-64214285D01*
X49871380Y-62928571D02*
X49871380Y-63119047D01*
X49919000Y-63214285D01*
X49966619Y-63261904D01*
X50109476Y-63357142D01*
X50299952Y-63404761D01*
X50680904Y-63404761D01*
X50776142Y-63357142D01*
X50823761Y-63309523D01*
X50871380Y-63214285D01*
X50871380Y-63023809D01*
X50823761Y-62928571D01*
X50776142Y-62880952D01*
X50680904Y-62833333D01*
X50442809Y-62833333D01*
X50347571Y-62880952D01*
X50299952Y-62928571D01*
X50252333Y-63023809D01*
X50252333Y-63214285D01*
X50299952Y-63309523D01*
X50347571Y-63357142D01*
X50442809Y-63404761D01*
%TD*%
M02*
