%TF.GenerationSoftware,KiCad,Pcbnew,(5.1.10-1-10_14)*%
%TF.CreationDate,2022-01-10T10:06:08-08:00*%
%TF.ProjectId,FanExpander-Lite,46616e45-7870-4616-9e64-65722d4c6974,V1.0.2*%
%TF.SameCoordinates,Original*%
%TF.FileFunction,Paste,Bot*%
%TF.FilePolarity,Positive*%
%FSLAX46Y46*%
G04 Gerber Fmt 4.6, Leading zero omitted, Abs format (unit mm)*
G04 Created by KiCad (PCBNEW (5.1.10-1-10_14)) date 2022-01-10 10:06:08*
%MOMM*%
%LPD*%
G01*
G04 APERTURE LIST*
%ADD10R,0.500000X0.900000*%
%ADD11R,0.900000X0.500000*%
%ADD12R,0.900000X0.800000*%
G04 APERTURE END LIST*
%TO.C,D4*%
G36*
G01*
X63258120Y-45461720D02*
X63258120Y-46831720D01*
G75*
G02*
X63068120Y-47021720I-190000J0D01*
G01*
X62498120Y-47021720D01*
G75*
G02*
X62308120Y-46831720I0J190000D01*
G01*
X62308120Y-45461720D01*
G75*
G02*
X62498120Y-45271720I190000J0D01*
G01*
X63068120Y-45271720D01*
G75*
G02*
X63258120Y-45461720I0J-190000D01*
G01*
G37*
G36*
G01*
X66358120Y-45461720D02*
X66358120Y-46831720D01*
G75*
G02*
X66168120Y-47021720I-190000J0D01*
G01*
X65598120Y-47021720D01*
G75*
G02*
X65408120Y-46831720I0J190000D01*
G01*
X65408120Y-45461720D01*
G75*
G02*
X65598120Y-45271720I190000J0D01*
G01*
X66168120Y-45271720D01*
G75*
G02*
X66358120Y-45461720I0J-190000D01*
G01*
G37*
%TD*%
%TO.C,D3*%
G36*
G01*
X63283520Y-55977320D02*
X63283520Y-57347320D01*
G75*
G02*
X63093520Y-57537320I-190000J0D01*
G01*
X62523520Y-57537320D01*
G75*
G02*
X62333520Y-57347320I0J190000D01*
G01*
X62333520Y-55977320D01*
G75*
G02*
X62523520Y-55787320I190000J0D01*
G01*
X63093520Y-55787320D01*
G75*
G02*
X63283520Y-55977320I0J-190000D01*
G01*
G37*
G36*
G01*
X66383520Y-55977320D02*
X66383520Y-57347320D01*
G75*
G02*
X66193520Y-57537320I-190000J0D01*
G01*
X65623520Y-57537320D01*
G75*
G02*
X65433520Y-57347320I0J190000D01*
G01*
X65433520Y-55977320D01*
G75*
G02*
X65623520Y-55787320I190000J0D01*
G01*
X66193520Y-55787320D01*
G75*
G02*
X66383520Y-55977320I0J-190000D01*
G01*
G37*
%TD*%
%TO.C,D2*%
G36*
G01*
X54545920Y-45461720D02*
X54545920Y-46831720D01*
G75*
G02*
X54355920Y-47021720I-190000J0D01*
G01*
X53785920Y-47021720D01*
G75*
G02*
X53595920Y-46831720I0J190000D01*
G01*
X53595920Y-45461720D01*
G75*
G02*
X53785920Y-45271720I190000J0D01*
G01*
X54355920Y-45271720D01*
G75*
G02*
X54545920Y-45461720I0J-190000D01*
G01*
G37*
G36*
G01*
X57645920Y-45461720D02*
X57645920Y-46831720D01*
G75*
G02*
X57455920Y-47021720I-190000J0D01*
G01*
X56885920Y-47021720D01*
G75*
G02*
X56695920Y-46831720I0J190000D01*
G01*
X56695920Y-45461720D01*
G75*
G02*
X56885920Y-45271720I190000J0D01*
G01*
X57455920Y-45271720D01*
G75*
G02*
X57645920Y-45461720I0J-190000D01*
G01*
G37*
%TD*%
%TO.C,D1*%
G36*
G01*
X54551000Y-55982400D02*
X54551000Y-57352400D01*
G75*
G02*
X54361000Y-57542400I-190000J0D01*
G01*
X53791000Y-57542400D01*
G75*
G02*
X53601000Y-57352400I0J190000D01*
G01*
X53601000Y-55982400D01*
G75*
G02*
X53791000Y-55792400I190000J0D01*
G01*
X54361000Y-55792400D01*
G75*
G02*
X54551000Y-55982400I0J-190000D01*
G01*
G37*
G36*
G01*
X57651000Y-55982400D02*
X57651000Y-57352400D01*
G75*
G02*
X57461000Y-57542400I-190000J0D01*
G01*
X56891000Y-57542400D01*
G75*
G02*
X56701000Y-57352400I0J190000D01*
G01*
X56701000Y-55982400D01*
G75*
G02*
X56891000Y-55792400I190000J0D01*
G01*
X57461000Y-55792400D01*
G75*
G02*
X57651000Y-55982400I0J-190000D01*
G01*
G37*
%TD*%
D10*
%TO.C,R10*%
X69125400Y-43815000D03*
X70625400Y-43815000D03*
%TD*%
%TO.C,R9*%
X70638800Y-42341800D03*
X69138800Y-42341800D03*
%TD*%
D11*
%TO.C,R8*%
X63169800Y-42781920D03*
X63169800Y-41281920D03*
%TD*%
D10*
%TO.C,R7*%
X69137400Y-54305200D03*
X70637400Y-54305200D03*
%TD*%
D11*
%TO.C,R6*%
X70408800Y-51548600D03*
X70408800Y-53048600D03*
%TD*%
%TO.C,R5*%
X62758320Y-53297520D03*
X62758320Y-51797520D03*
%TD*%
D10*
%TO.C,R4*%
X60375800Y-43789600D03*
X61875800Y-43789600D03*
%TD*%
%TO.C,R3*%
X60362400Y-42316400D03*
X61862400Y-42316400D03*
%TD*%
D11*
%TO.C,R2*%
X54046120Y-42781920D03*
X54046120Y-41281920D03*
%TD*%
%TO.C,R1*%
X54046120Y-53297520D03*
X54046120Y-51797520D03*
%TD*%
D12*
%TO.C,Q3*%
X69762880Y-45364360D03*
X69762880Y-47264360D03*
X67762880Y-46314360D03*
%TD*%
%TO.C,Q2*%
X69757800Y-55849480D03*
X69757800Y-57749480D03*
X67757800Y-56799480D03*
%TD*%
%TO.C,Q1*%
X59010040Y-46273720D03*
X61010040Y-47223720D03*
X61010040Y-45323720D03*
%TD*%
M02*
