%TF.GenerationSoftware,KiCad,Pcbnew,(5.1.10-1-10_14)*%
%TF.CreationDate,2022-01-16T00:04:22-08:00*%
%TF.ProjectId,FanExpander-kicad,46616e45-7870-4616-9e64-65722d6b6963,rev?*%
%TF.SameCoordinates,Original*%
%TF.FileFunction,Soldermask,Bot*%
%TF.FilePolarity,Negative*%
%FSLAX46Y46*%
G04 Gerber Fmt 4.6, Leading zero omitted, Abs format (unit mm)*
G04 Created by KiCad (PCBNEW (5.1.10-1-10_14)) date 2022-01-16 00:04:22*
%MOMM*%
%LPD*%
G01*
G04 APERTURE LIST*
%ADD10C,0.100000*%
%ADD11R,0.500000X1.500000*%
%ADD12R,1.500000X0.500000*%
%ADD13O,2.100000X1.000000*%
%ADD14O,1.000000X2.100000*%
%ADD15O,2.100000X2.100000*%
%ADD16C,1.000000*%
%ADD17C,2.600000*%
%ADD18R,2.600000X2.600000*%
%ADD19R,1.000000X1.000000*%
%ADD20O,1.000000X1.000000*%
%ADD21C,3.000000*%
%ADD22R,1.700000X1.700000*%
%ADD23C,1.700000*%
%ADD24R,1.750000X1.750000*%
%ADD25C,1.750000*%
%ADD26C,6.400000*%
%ADD27O,1.700000X1.700000*%
%ADD28R,0.900000X0.500000*%
%ADD29R,0.500000X0.900000*%
%ADD30R,0.900000X0.800000*%
G04 APERTURE END LIST*
D10*
%TO.C,JP12*%
G36*
X61429998Y-63385700D02*
G01*
X61429998Y-63410234D01*
X61425188Y-63459065D01*
X61415616Y-63507190D01*
X61401372Y-63554145D01*
X61382595Y-63599478D01*
X61359464Y-63642751D01*
X61332204Y-63683550D01*
X61301076Y-63721479D01*
X61266379Y-63756176D01*
X61228450Y-63787304D01*
X61187651Y-63814564D01*
X61144378Y-63837695D01*
X61099045Y-63856472D01*
X61052090Y-63870716D01*
X61003965Y-63880288D01*
X60955134Y-63885098D01*
X60930600Y-63885098D01*
X60930600Y-63885700D01*
X60430600Y-63885700D01*
X60430600Y-63885098D01*
X60406066Y-63885098D01*
X60357235Y-63880288D01*
X60309110Y-63870716D01*
X60262155Y-63856472D01*
X60216822Y-63837695D01*
X60173549Y-63814564D01*
X60132750Y-63787304D01*
X60094821Y-63756176D01*
X60060124Y-63721479D01*
X60028996Y-63683550D01*
X60001736Y-63642751D01*
X59978605Y-63599478D01*
X59959828Y-63554145D01*
X59945584Y-63507190D01*
X59936012Y-63459065D01*
X59931202Y-63410234D01*
X59931202Y-63385700D01*
X59930600Y-63385700D01*
X59930600Y-62885700D01*
X61430600Y-62885700D01*
X61430600Y-63385700D01*
X61429998Y-63385700D01*
G37*
G36*
X59930600Y-62585700D02*
G01*
X59930600Y-62085700D01*
X59931202Y-62085700D01*
X59931202Y-62061166D01*
X59936012Y-62012335D01*
X59945584Y-61964210D01*
X59959828Y-61917255D01*
X59978605Y-61871922D01*
X60001736Y-61828649D01*
X60028996Y-61787850D01*
X60060124Y-61749921D01*
X60094821Y-61715224D01*
X60132750Y-61684096D01*
X60173549Y-61656836D01*
X60216822Y-61633705D01*
X60262155Y-61614928D01*
X60309110Y-61600684D01*
X60357235Y-61591112D01*
X60406066Y-61586302D01*
X60430600Y-61586302D01*
X60430600Y-61585700D01*
X60930600Y-61585700D01*
X60930600Y-61586302D01*
X60955134Y-61586302D01*
X61003965Y-61591112D01*
X61052090Y-61600684D01*
X61099045Y-61614928D01*
X61144378Y-61633705D01*
X61187651Y-61656836D01*
X61228450Y-61684096D01*
X61266379Y-61715224D01*
X61301076Y-61749921D01*
X61332204Y-61787850D01*
X61359464Y-61828649D01*
X61382595Y-61871922D01*
X61401372Y-61917255D01*
X61415616Y-61964210D01*
X61425188Y-62012335D01*
X61429998Y-62061166D01*
X61429998Y-62085700D01*
X61430600Y-62085700D01*
X61430600Y-62585700D01*
X59930600Y-62585700D01*
G37*
%TD*%
%TO.C,JP14*%
G36*
X65836800Y-71361398D02*
G01*
X65812266Y-71361398D01*
X65763435Y-71356588D01*
X65715310Y-71347016D01*
X65668355Y-71332772D01*
X65623022Y-71313995D01*
X65579749Y-71290864D01*
X65538950Y-71263604D01*
X65501021Y-71232476D01*
X65466324Y-71197779D01*
X65435196Y-71159850D01*
X65407936Y-71119051D01*
X65384805Y-71075778D01*
X65366028Y-71030445D01*
X65351784Y-70983490D01*
X65342212Y-70935365D01*
X65337402Y-70886534D01*
X65337402Y-70862000D01*
X65336800Y-70862000D01*
X65336800Y-70362000D01*
X65337402Y-70362000D01*
X65337402Y-70337466D01*
X65342212Y-70288635D01*
X65351784Y-70240510D01*
X65366028Y-70193555D01*
X65384805Y-70148222D01*
X65407936Y-70104949D01*
X65435196Y-70064150D01*
X65466324Y-70026221D01*
X65501021Y-69991524D01*
X65538950Y-69960396D01*
X65579749Y-69933136D01*
X65623022Y-69910005D01*
X65668355Y-69891228D01*
X65715310Y-69876984D01*
X65763435Y-69867412D01*
X65812266Y-69862602D01*
X65836800Y-69862602D01*
X65836800Y-69862000D01*
X66336800Y-69862000D01*
X66336800Y-71362000D01*
X65836800Y-71362000D01*
X65836800Y-71361398D01*
G37*
G36*
X66636800Y-69862000D02*
G01*
X67136800Y-69862000D01*
X67136800Y-69862602D01*
X67161334Y-69862602D01*
X67210165Y-69867412D01*
X67258290Y-69876984D01*
X67305245Y-69891228D01*
X67350578Y-69910005D01*
X67393851Y-69933136D01*
X67434650Y-69960396D01*
X67472579Y-69991524D01*
X67507276Y-70026221D01*
X67538404Y-70064150D01*
X67565664Y-70104949D01*
X67588795Y-70148222D01*
X67607572Y-70193555D01*
X67621816Y-70240510D01*
X67631388Y-70288635D01*
X67636198Y-70337466D01*
X67636198Y-70362000D01*
X67636800Y-70362000D01*
X67636800Y-70862000D01*
X67636198Y-70862000D01*
X67636198Y-70886534D01*
X67631388Y-70935365D01*
X67621816Y-70983490D01*
X67607572Y-71030445D01*
X67588795Y-71075778D01*
X67565664Y-71119051D01*
X67538404Y-71159850D01*
X67507276Y-71197779D01*
X67472579Y-71232476D01*
X67434650Y-71263604D01*
X67393851Y-71290864D01*
X67350578Y-71313995D01*
X67305245Y-71332772D01*
X67258290Y-71347016D01*
X67210165Y-71356588D01*
X67161334Y-71361398D01*
X67136800Y-71361398D01*
X67136800Y-71362000D01*
X66636800Y-71362000D01*
X66636800Y-69862000D01*
G37*
%TD*%
%TO.C,JP13*%
G36*
X75996800Y-71361398D02*
G01*
X75972266Y-71361398D01*
X75923435Y-71356588D01*
X75875310Y-71347016D01*
X75828355Y-71332772D01*
X75783022Y-71313995D01*
X75739749Y-71290864D01*
X75698950Y-71263604D01*
X75661021Y-71232476D01*
X75626324Y-71197779D01*
X75595196Y-71159850D01*
X75567936Y-71119051D01*
X75544805Y-71075778D01*
X75526028Y-71030445D01*
X75511784Y-70983490D01*
X75502212Y-70935365D01*
X75497402Y-70886534D01*
X75497402Y-70862000D01*
X75496800Y-70862000D01*
X75496800Y-70362000D01*
X75497402Y-70362000D01*
X75497402Y-70337466D01*
X75502212Y-70288635D01*
X75511784Y-70240510D01*
X75526028Y-70193555D01*
X75544805Y-70148222D01*
X75567936Y-70104949D01*
X75595196Y-70064150D01*
X75626324Y-70026221D01*
X75661021Y-69991524D01*
X75698950Y-69960396D01*
X75739749Y-69933136D01*
X75783022Y-69910005D01*
X75828355Y-69891228D01*
X75875310Y-69876984D01*
X75923435Y-69867412D01*
X75972266Y-69862602D01*
X75996800Y-69862602D01*
X75996800Y-69862000D01*
X76496800Y-69862000D01*
X76496800Y-71362000D01*
X75996800Y-71362000D01*
X75996800Y-71361398D01*
G37*
G36*
X76796800Y-69862000D02*
G01*
X77296800Y-69862000D01*
X77296800Y-69862602D01*
X77321334Y-69862602D01*
X77370165Y-69867412D01*
X77418290Y-69876984D01*
X77465245Y-69891228D01*
X77510578Y-69910005D01*
X77553851Y-69933136D01*
X77594650Y-69960396D01*
X77632579Y-69991524D01*
X77667276Y-70026221D01*
X77698404Y-70064150D01*
X77725664Y-70104949D01*
X77748795Y-70148222D01*
X77767572Y-70193555D01*
X77781816Y-70240510D01*
X77791388Y-70288635D01*
X77796198Y-70337466D01*
X77796198Y-70362000D01*
X77796800Y-70362000D01*
X77796800Y-70862000D01*
X77796198Y-70862000D01*
X77796198Y-70886534D01*
X77791388Y-70935365D01*
X77781816Y-70983490D01*
X77767572Y-71030445D01*
X77748795Y-71075778D01*
X77725664Y-71119051D01*
X77698404Y-71159850D01*
X77667276Y-71197779D01*
X77632579Y-71232476D01*
X77594650Y-71263604D01*
X77553851Y-71290864D01*
X77510578Y-71313995D01*
X77465245Y-71332772D01*
X77418290Y-71347016D01*
X77370165Y-71356588D01*
X77321334Y-71361398D01*
X77296800Y-71361398D01*
X77296800Y-71362000D01*
X76796800Y-71362000D01*
X76796800Y-69862000D01*
G37*
%TD*%
D11*
%TO.C,JP8*%
X48168800Y-63677800D03*
D10*
G36*
X48018800Y-64427800D02*
G01*
X47518800Y-64427800D01*
X47518800Y-64427198D01*
X47494266Y-64427198D01*
X47445435Y-64422388D01*
X47397310Y-64412816D01*
X47350355Y-64398572D01*
X47305022Y-64379795D01*
X47261749Y-64356664D01*
X47220950Y-64329404D01*
X47183021Y-64298276D01*
X47148324Y-64263579D01*
X47117196Y-64225650D01*
X47089936Y-64184851D01*
X47066805Y-64141578D01*
X47048028Y-64096245D01*
X47033784Y-64049290D01*
X47024212Y-64001165D01*
X47019402Y-63952334D01*
X47019402Y-63927800D01*
X47018800Y-63927800D01*
X47018800Y-63427800D01*
X47019402Y-63427800D01*
X47019402Y-63403266D01*
X47024212Y-63354435D01*
X47033784Y-63306310D01*
X47048028Y-63259355D01*
X47066805Y-63214022D01*
X47089936Y-63170749D01*
X47117196Y-63129950D01*
X47148324Y-63092021D01*
X47183021Y-63057324D01*
X47220950Y-63026196D01*
X47261749Y-62998936D01*
X47305022Y-62975805D01*
X47350355Y-62957028D01*
X47397310Y-62942784D01*
X47445435Y-62933212D01*
X47494266Y-62928402D01*
X47518800Y-62928402D01*
X47518800Y-62927800D01*
X48018800Y-62927800D01*
X48018800Y-64427800D01*
G37*
G36*
X48818800Y-62928402D02*
G01*
X48843334Y-62928402D01*
X48892165Y-62933212D01*
X48940290Y-62942784D01*
X48987245Y-62957028D01*
X49032578Y-62975805D01*
X49075851Y-62998936D01*
X49116650Y-63026196D01*
X49154579Y-63057324D01*
X49189276Y-63092021D01*
X49220404Y-63129950D01*
X49247664Y-63170749D01*
X49270795Y-63214022D01*
X49289572Y-63259355D01*
X49303816Y-63306310D01*
X49313388Y-63354435D01*
X49318198Y-63403266D01*
X49318198Y-63427800D01*
X49318800Y-63427800D01*
X49318800Y-63927800D01*
X49318198Y-63927800D01*
X49318198Y-63952334D01*
X49313388Y-64001165D01*
X49303816Y-64049290D01*
X49289572Y-64096245D01*
X49270795Y-64141578D01*
X49247664Y-64184851D01*
X49220404Y-64225650D01*
X49189276Y-64263579D01*
X49154579Y-64298276D01*
X49116650Y-64329404D01*
X49075851Y-64356664D01*
X49032578Y-64379795D01*
X48987245Y-64398572D01*
X48940290Y-64412816D01*
X48892165Y-64422388D01*
X48843334Y-64427198D01*
X48818800Y-64427198D01*
X48818800Y-64427800D01*
X48318800Y-64427800D01*
X48318800Y-62927800D01*
X48818800Y-62927800D01*
X48818800Y-62928402D01*
G37*
%TD*%
D12*
%TO.C,JP9*%
X58064400Y-58252600D03*
D10*
G36*
X57314400Y-58102600D02*
G01*
X57314400Y-57602600D01*
X57315002Y-57602600D01*
X57315002Y-57578066D01*
X57319812Y-57529235D01*
X57329384Y-57481110D01*
X57343628Y-57434155D01*
X57362405Y-57388822D01*
X57385536Y-57345549D01*
X57412796Y-57304750D01*
X57443924Y-57266821D01*
X57478621Y-57232124D01*
X57516550Y-57200996D01*
X57557349Y-57173736D01*
X57600622Y-57150605D01*
X57645955Y-57131828D01*
X57692910Y-57117584D01*
X57741035Y-57108012D01*
X57789866Y-57103202D01*
X57814400Y-57103202D01*
X57814400Y-57102600D01*
X58314400Y-57102600D01*
X58314400Y-57103202D01*
X58338934Y-57103202D01*
X58387765Y-57108012D01*
X58435890Y-57117584D01*
X58482845Y-57131828D01*
X58528178Y-57150605D01*
X58571451Y-57173736D01*
X58612250Y-57200996D01*
X58650179Y-57232124D01*
X58684876Y-57266821D01*
X58716004Y-57304750D01*
X58743264Y-57345549D01*
X58766395Y-57388822D01*
X58785172Y-57434155D01*
X58799416Y-57481110D01*
X58808988Y-57529235D01*
X58813798Y-57578066D01*
X58813798Y-57602600D01*
X58814400Y-57602600D01*
X58814400Y-58102600D01*
X57314400Y-58102600D01*
G37*
G36*
X58813798Y-58902600D02*
G01*
X58813798Y-58927134D01*
X58808988Y-58975965D01*
X58799416Y-59024090D01*
X58785172Y-59071045D01*
X58766395Y-59116378D01*
X58743264Y-59159651D01*
X58716004Y-59200450D01*
X58684876Y-59238379D01*
X58650179Y-59273076D01*
X58612250Y-59304204D01*
X58571451Y-59331464D01*
X58528178Y-59354595D01*
X58482845Y-59373372D01*
X58435890Y-59387616D01*
X58387765Y-59397188D01*
X58338934Y-59401998D01*
X58314400Y-59401998D01*
X58314400Y-59402600D01*
X57814400Y-59402600D01*
X57814400Y-59401998D01*
X57789866Y-59401998D01*
X57741035Y-59397188D01*
X57692910Y-59387616D01*
X57645955Y-59373372D01*
X57600622Y-59354595D01*
X57557349Y-59331464D01*
X57516550Y-59304204D01*
X57478621Y-59273076D01*
X57443924Y-59238379D01*
X57412796Y-59200450D01*
X57385536Y-59159651D01*
X57362405Y-59116378D01*
X57343628Y-59071045D01*
X57329384Y-59024090D01*
X57319812Y-58975965D01*
X57315002Y-58927134D01*
X57315002Y-58902600D01*
X57314400Y-58902600D01*
X57314400Y-58402600D01*
X58814400Y-58402600D01*
X58814400Y-58902600D01*
X58813798Y-58902600D01*
G37*
%TD*%
D12*
%TO.C,JP11*%
X52095400Y-61899800D03*
D10*
G36*
X51345400Y-61749800D02*
G01*
X51345400Y-61249800D01*
X51346002Y-61249800D01*
X51346002Y-61225266D01*
X51350812Y-61176435D01*
X51360384Y-61128310D01*
X51374628Y-61081355D01*
X51393405Y-61036022D01*
X51416536Y-60992749D01*
X51443796Y-60951950D01*
X51474924Y-60914021D01*
X51509621Y-60879324D01*
X51547550Y-60848196D01*
X51588349Y-60820936D01*
X51631622Y-60797805D01*
X51676955Y-60779028D01*
X51723910Y-60764784D01*
X51772035Y-60755212D01*
X51820866Y-60750402D01*
X51845400Y-60750402D01*
X51845400Y-60749800D01*
X52345400Y-60749800D01*
X52345400Y-60750402D01*
X52369934Y-60750402D01*
X52418765Y-60755212D01*
X52466890Y-60764784D01*
X52513845Y-60779028D01*
X52559178Y-60797805D01*
X52602451Y-60820936D01*
X52643250Y-60848196D01*
X52681179Y-60879324D01*
X52715876Y-60914021D01*
X52747004Y-60951950D01*
X52774264Y-60992749D01*
X52797395Y-61036022D01*
X52816172Y-61081355D01*
X52830416Y-61128310D01*
X52839988Y-61176435D01*
X52844798Y-61225266D01*
X52844798Y-61249800D01*
X52845400Y-61249800D01*
X52845400Y-61749800D01*
X51345400Y-61749800D01*
G37*
G36*
X52844798Y-62549800D02*
G01*
X52844798Y-62574334D01*
X52839988Y-62623165D01*
X52830416Y-62671290D01*
X52816172Y-62718245D01*
X52797395Y-62763578D01*
X52774264Y-62806851D01*
X52747004Y-62847650D01*
X52715876Y-62885579D01*
X52681179Y-62920276D01*
X52643250Y-62951404D01*
X52602451Y-62978664D01*
X52559178Y-63001795D01*
X52513845Y-63020572D01*
X52466890Y-63034816D01*
X52418765Y-63044388D01*
X52369934Y-63049198D01*
X52345400Y-63049198D01*
X52345400Y-63049800D01*
X51845400Y-63049800D01*
X51845400Y-63049198D01*
X51820866Y-63049198D01*
X51772035Y-63044388D01*
X51723910Y-63034816D01*
X51676955Y-63020572D01*
X51631622Y-63001795D01*
X51588349Y-62978664D01*
X51547550Y-62951404D01*
X51509621Y-62920276D01*
X51474924Y-62885579D01*
X51443796Y-62847650D01*
X51416536Y-62806851D01*
X51393405Y-62763578D01*
X51374628Y-62718245D01*
X51360384Y-62671290D01*
X51350812Y-62623165D01*
X51346002Y-62574334D01*
X51346002Y-62549800D01*
X51345400Y-62549800D01*
X51345400Y-62049800D01*
X52845400Y-62049800D01*
X52845400Y-62549800D01*
X52844798Y-62549800D01*
G37*
%TD*%
D13*
%TO.C,D8*%
X81965800Y-62365800D03*
X81965800Y-63465800D03*
D14*
X81415800Y-62915800D03*
X82515800Y-62915800D03*
D15*
X81965800Y-62915800D03*
G36*
G01*
X80890800Y-62230800D02*
X80890800Y-63600800D01*
G75*
G02*
X80700800Y-63790800I-190000J0D01*
G01*
X80130800Y-63790800D01*
G75*
G02*
X79940800Y-63600800I0J190000D01*
G01*
X79940800Y-62230800D01*
G75*
G02*
X80130800Y-62040800I190000J0D01*
G01*
X80700800Y-62040800D01*
G75*
G02*
X80890800Y-62230800I0J-190000D01*
G01*
G37*
G36*
G01*
X83990800Y-62230800D02*
X83990800Y-63600800D01*
G75*
G02*
X83800800Y-63790800I-190000J0D01*
G01*
X83230800Y-63790800D01*
G75*
G02*
X83040800Y-63600800I0J190000D01*
G01*
X83040800Y-62230800D01*
G75*
G02*
X83230800Y-62040800I190000J0D01*
G01*
X83800800Y-62040800D01*
G75*
G02*
X83990800Y-62230800I0J-190000D01*
G01*
G37*
%TD*%
D13*
%TO.C,D7*%
X73253600Y-51926400D03*
X73253600Y-53026400D03*
D14*
X72703600Y-52476400D03*
X73803600Y-52476400D03*
D15*
X73253600Y-52476400D03*
G36*
G01*
X72178600Y-51791400D02*
X72178600Y-53161400D01*
G75*
G02*
X71988600Y-53351400I-190000J0D01*
G01*
X71418600Y-53351400D01*
G75*
G02*
X71228600Y-53161400I0J190000D01*
G01*
X71228600Y-51791400D01*
G75*
G02*
X71418600Y-51601400I190000J0D01*
G01*
X71988600Y-51601400D01*
G75*
G02*
X72178600Y-51791400I0J-190000D01*
G01*
G37*
G36*
G01*
X75278600Y-51791400D02*
X75278600Y-53161400D01*
G75*
G02*
X75088600Y-53351400I-190000J0D01*
G01*
X74518600Y-53351400D01*
G75*
G02*
X74328600Y-53161400I0J190000D01*
G01*
X74328600Y-51791400D01*
G75*
G02*
X74518600Y-51601400I190000J0D01*
G01*
X75088600Y-51601400D01*
G75*
G02*
X75278600Y-51791400I0J-190000D01*
G01*
G37*
%TD*%
D13*
%TO.C,D6*%
X73279000Y-62365800D03*
X73279000Y-63465800D03*
D14*
X72729000Y-62915800D03*
X73829000Y-62915800D03*
D15*
X73279000Y-62915800D03*
G36*
G01*
X72204000Y-62230800D02*
X72204000Y-63600800D01*
G75*
G02*
X72014000Y-63790800I-190000J0D01*
G01*
X71444000Y-63790800D01*
G75*
G02*
X71254000Y-63600800I0J190000D01*
G01*
X71254000Y-62230800D01*
G75*
G02*
X71444000Y-62040800I190000J0D01*
G01*
X72014000Y-62040800D01*
G75*
G02*
X72204000Y-62230800I0J-190000D01*
G01*
G37*
G36*
G01*
X75304000Y-62230800D02*
X75304000Y-63600800D01*
G75*
G02*
X75114000Y-63790800I-190000J0D01*
G01*
X74544000Y-63790800D01*
G75*
G02*
X74354000Y-63600800I0J190000D01*
G01*
X74354000Y-62230800D01*
G75*
G02*
X74544000Y-62040800I190000J0D01*
G01*
X75114000Y-62040800D01*
G75*
G02*
X75304000Y-62230800I0J-190000D01*
G01*
G37*
%TD*%
D13*
%TO.C,D5*%
X64516600Y-51926400D03*
X64516600Y-53026400D03*
D14*
X63966600Y-52476400D03*
X65066600Y-52476400D03*
D15*
X64516600Y-52476400D03*
G36*
G01*
X63441600Y-51791400D02*
X63441600Y-53161400D01*
G75*
G02*
X63251600Y-53351400I-190000J0D01*
G01*
X62681600Y-53351400D01*
G75*
G02*
X62491600Y-53161400I0J190000D01*
G01*
X62491600Y-51791400D01*
G75*
G02*
X62681600Y-51601400I190000J0D01*
G01*
X63251600Y-51601400D01*
G75*
G02*
X63441600Y-51791400I0J-190000D01*
G01*
G37*
G36*
G01*
X66541600Y-51791400D02*
X66541600Y-53161400D01*
G75*
G02*
X66351600Y-53351400I-190000J0D01*
G01*
X65781600Y-53351400D01*
G75*
G02*
X65591600Y-53161400I0J190000D01*
G01*
X65591600Y-51791400D01*
G75*
G02*
X65781600Y-51601400I190000J0D01*
G01*
X66351600Y-51601400D01*
G75*
G02*
X66541600Y-51791400I0J-190000D01*
G01*
G37*
%TD*%
D13*
%TO.C,D4*%
X64541400Y-62365800D03*
X64541400Y-63465800D03*
D14*
X63991400Y-62915800D03*
X65091400Y-62915800D03*
D15*
X64541400Y-62915800D03*
G36*
G01*
X63466400Y-62230800D02*
X63466400Y-63600800D01*
G75*
G02*
X63276400Y-63790800I-190000J0D01*
G01*
X62706400Y-63790800D01*
G75*
G02*
X62516400Y-63600800I0J190000D01*
G01*
X62516400Y-62230800D01*
G75*
G02*
X62706400Y-62040800I190000J0D01*
G01*
X63276400Y-62040800D01*
G75*
G02*
X63466400Y-62230800I0J-190000D01*
G01*
G37*
G36*
G01*
X66566400Y-62230800D02*
X66566400Y-63600800D01*
G75*
G02*
X66376400Y-63790800I-190000J0D01*
G01*
X65806400Y-63790800D01*
G75*
G02*
X65616400Y-63600800I0J190000D01*
G01*
X65616400Y-62230800D01*
G75*
G02*
X65806400Y-62040800I190000J0D01*
G01*
X66376400Y-62040800D01*
G75*
G02*
X66566400Y-62230800I0J-190000D01*
G01*
G37*
%TD*%
D13*
%TO.C,D3*%
X55829200Y-62365800D03*
X55829200Y-63465800D03*
D14*
X55279200Y-62915800D03*
X56379200Y-62915800D03*
D15*
X55829200Y-62915800D03*
G36*
G01*
X54754200Y-62230800D02*
X54754200Y-63600800D01*
G75*
G02*
X54564200Y-63790800I-190000J0D01*
G01*
X53994200Y-63790800D01*
G75*
G02*
X53804200Y-63600800I0J190000D01*
G01*
X53804200Y-62230800D01*
G75*
G02*
X53994200Y-62040800I190000J0D01*
G01*
X54564200Y-62040800D01*
G75*
G02*
X54754200Y-62230800I0J-190000D01*
G01*
G37*
G36*
G01*
X57854200Y-62230800D02*
X57854200Y-63600800D01*
G75*
G02*
X57664200Y-63790800I-190000J0D01*
G01*
X57094200Y-63790800D01*
G75*
G02*
X56904200Y-63600800I0J190000D01*
G01*
X56904200Y-62230800D01*
G75*
G02*
X57094200Y-62040800I190000J0D01*
G01*
X57664200Y-62040800D01*
G75*
G02*
X57854200Y-62230800I0J-190000D01*
G01*
G37*
%TD*%
D13*
%TO.C,D2*%
X81978500Y-51926400D03*
X81978500Y-53026400D03*
D14*
X81428500Y-52476400D03*
X82528500Y-52476400D03*
D15*
X81978500Y-52476400D03*
G36*
G01*
X80903500Y-51791400D02*
X80903500Y-53161400D01*
G75*
G02*
X80713500Y-53351400I-190000J0D01*
G01*
X80143500Y-53351400D01*
G75*
G02*
X79953500Y-53161400I0J190000D01*
G01*
X79953500Y-51791400D01*
G75*
G02*
X80143500Y-51601400I190000J0D01*
G01*
X80713500Y-51601400D01*
G75*
G02*
X80903500Y-51791400I0J-190000D01*
G01*
G37*
G36*
G01*
X84003500Y-51791400D02*
X84003500Y-53161400D01*
G75*
G02*
X83813500Y-53351400I-190000J0D01*
G01*
X83243500Y-53351400D01*
G75*
G02*
X83053500Y-53161400I0J190000D01*
G01*
X83053500Y-51791400D01*
G75*
G02*
X83243500Y-51601400I190000J0D01*
G01*
X83813500Y-51601400D01*
G75*
G02*
X84003500Y-51791400I0J-190000D01*
G01*
G37*
%TD*%
D13*
%TO.C,D1*%
X55829200Y-51977200D03*
X55829200Y-53077200D03*
D14*
X55279200Y-52527200D03*
X56379200Y-52527200D03*
D15*
X55829200Y-52527200D03*
G36*
G01*
X54754200Y-51842200D02*
X54754200Y-53212200D01*
G75*
G02*
X54564200Y-53402200I-190000J0D01*
G01*
X53994200Y-53402200D01*
G75*
G02*
X53804200Y-53212200I0J190000D01*
G01*
X53804200Y-51842200D01*
G75*
G02*
X53994200Y-51652200I190000J0D01*
G01*
X54564200Y-51652200D01*
G75*
G02*
X54754200Y-51842200I0J-190000D01*
G01*
G37*
G36*
G01*
X57854200Y-51842200D02*
X57854200Y-53212200D01*
G75*
G02*
X57664200Y-53402200I-190000J0D01*
G01*
X57094200Y-53402200D01*
G75*
G02*
X56904200Y-53212200I0J190000D01*
G01*
X56904200Y-51842200D01*
G75*
G02*
X57094200Y-51652200I190000J0D01*
G01*
X57664200Y-51652200D01*
G75*
G02*
X57854200Y-51842200I0J-190000D01*
G01*
G37*
%TD*%
D16*
%TO.C,FID3*%
X82092800Y-77800200D03*
%TD*%
%TO.C,FID2*%
X39268400Y-65303400D03*
%TD*%
%TO.C,FID1*%
X39243000Y-49149000D03*
%TD*%
D17*
%TO.C,J12*%
X77292200Y-73710800D03*
X72212200Y-73710800D03*
D18*
X67132200Y-73710800D03*
%TD*%
D19*
%TO.C,JP10*%
X38303200Y-58470800D03*
D20*
X38303200Y-57200800D03*
X38303200Y-55930800D03*
%TD*%
D21*
%TO.C,F1*%
X48304400Y-70764400D03*
X52004400Y-70764400D03*
X56504400Y-70764400D03*
X60204400Y-70764400D03*
%TD*%
%TO.C,F2*%
X48304400Y-76225400D03*
X52004400Y-76225400D03*
X56504400Y-76225400D03*
X60204400Y-76225400D03*
%TD*%
D22*
%TO.C,J8*%
X40284400Y-52158900D03*
D23*
X42824400Y-52158900D03*
X40284400Y-54698900D03*
X42824400Y-54698900D03*
X40284400Y-57238900D03*
X42824400Y-57238900D03*
X40284400Y-59778900D03*
X42824400Y-59778900D03*
X40284400Y-62318900D03*
X42824400Y-62318900D03*
%TD*%
D24*
%TO.C,J3*%
X65189100Y-50038000D03*
D25*
X67689100Y-50038000D03*
%TD*%
D26*
%TO.C,MH1*%
X50012600Y-52146200D03*
%TD*%
D22*
%TO.C,J9*%
X51003200Y-66065400D03*
D27*
X48463200Y-66065400D03*
%TD*%
D28*
%TO.C,R22*%
X54660800Y-58101800D03*
X54660800Y-59601800D03*
%TD*%
D29*
%TO.C,R19*%
X78015400Y-50139600D03*
X79515400Y-50139600D03*
%TD*%
D28*
%TO.C,R17*%
X88036400Y-57797000D03*
X88036400Y-59297000D03*
%TD*%
D29*
%TO.C,R16*%
X78028800Y-48666400D03*
X79528800Y-48666400D03*
%TD*%
D28*
%TO.C,R14*%
X80822800Y-59601800D03*
X80822800Y-58101800D03*
%TD*%
%TO.C,R13*%
X72085200Y-49187800D03*
X72085200Y-47687800D03*
%TD*%
D29*
%TO.C,R12*%
X78066200Y-60579000D03*
X79566200Y-60579000D03*
%TD*%
%TO.C,R11*%
X69303200Y-50165000D03*
X70803200Y-50165000D03*
%TD*%
%TO.C,R10*%
X70828600Y-60579000D03*
X69328600Y-60579000D03*
%TD*%
%TO.C,R9*%
X62116400Y-50139600D03*
X60616400Y-50139600D03*
%TD*%
%TO.C,R8*%
X78066200Y-59131200D03*
X79566200Y-59131200D03*
%TD*%
%TO.C,R7*%
X69303200Y-48691800D03*
X70803200Y-48691800D03*
%TD*%
%TO.C,R6*%
X69328600Y-59105800D03*
X70828600Y-59105800D03*
%TD*%
%TO.C,R5*%
X60616400Y-48666400D03*
X62116400Y-48666400D03*
%TD*%
D28*
%TO.C,R4*%
X72085200Y-59627200D03*
X72085200Y-58127200D03*
%TD*%
%TO.C,R3*%
X63373000Y-49213200D03*
X63373000Y-47713200D03*
%TD*%
%TO.C,R2*%
X63373000Y-59576400D03*
X63373000Y-58076400D03*
%TD*%
%TO.C,R1*%
X54686200Y-49199800D03*
X54686200Y-47699800D03*
%TD*%
D29*
%TO.C,R21*%
X88278400Y-50114200D03*
X86778400Y-50114200D03*
%TD*%
%TO.C,R20*%
X88253000Y-60553600D03*
X86753000Y-60553600D03*
%TD*%
%TO.C,R18*%
X86778400Y-48653000D03*
X88278400Y-48653000D03*
%TD*%
D28*
%TO.C,R15*%
X80797400Y-49187800D03*
X80797400Y-47687800D03*
%TD*%
D26*
%TO.C,MH2*%
X85012600Y-74646200D03*
%TD*%
D22*
%TO.C,JP0*%
X55346600Y-66192400D03*
D27*
X57886600Y-66192400D03*
X60426600Y-66192400D03*
%TD*%
D24*
%TO.C,J10*%
X49479200Y-61239400D03*
D25*
X49479200Y-58739400D03*
%TD*%
D24*
%TO.C,J0*%
X56489600Y-60464700D03*
D25*
X58989600Y-60464700D03*
%TD*%
D30*
%TO.C,Q7*%
X87398100Y-51678800D03*
X87398100Y-53578800D03*
X85398100Y-52628800D03*
%TD*%
%TO.C,Q1*%
X61248800Y-51704200D03*
X61248800Y-53604200D03*
X59248800Y-52654200D03*
%TD*%
D22*
%TO.C,JP7*%
X81483200Y-55778400D03*
D27*
X84023200Y-55778400D03*
X86563200Y-55778400D03*
%TD*%
D22*
%TO.C,JP1*%
X55346600Y-55778400D03*
D27*
X57886600Y-55778400D03*
X60426600Y-55778400D03*
%TD*%
D24*
%TO.C,J7*%
X82664300Y-50038000D03*
D25*
X85164300Y-50038000D03*
%TD*%
D24*
%TO.C,J1*%
X56515000Y-50038000D03*
D25*
X59015000Y-50038000D03*
%TD*%
D30*
%TO.C,Q6*%
X87398100Y-62130900D03*
X87398100Y-64030900D03*
X85398100Y-63080900D03*
%TD*%
%TO.C,Q5*%
X78673200Y-51704200D03*
X78673200Y-53604200D03*
X76673200Y-52654200D03*
%TD*%
%TO.C,Q4*%
X78698600Y-62130900D03*
X78698600Y-64030900D03*
X76698600Y-63080900D03*
%TD*%
%TO.C,Q3*%
X69948300Y-51704200D03*
X69948300Y-53604200D03*
X67948300Y-52654200D03*
%TD*%
%TO.C,Q2*%
X69948300Y-62130900D03*
X69948300Y-64030900D03*
X67948300Y-63080900D03*
%TD*%
D24*
%TO.C,J6*%
X82638900Y-60464700D03*
D25*
X85138900Y-60464700D03*
%TD*%
D24*
%TO.C,J5*%
X73914000Y-50038000D03*
D25*
X76414000Y-50038000D03*
%TD*%
D22*
%TO.C,JP6*%
X81483200Y-66192400D03*
D27*
X84023200Y-66192400D03*
X86563200Y-66192400D03*
%TD*%
D22*
%TO.C,JP5*%
X72771000Y-55778400D03*
D27*
X75311000Y-55778400D03*
X77851000Y-55778400D03*
%TD*%
D24*
%TO.C,J4*%
X73939400Y-60464700D03*
D25*
X76439400Y-60464700D03*
%TD*%
D22*
%TO.C,JP4*%
X72771000Y-66192400D03*
D27*
X75311000Y-66192400D03*
X77851000Y-66192400D03*
%TD*%
D22*
%TO.C,JP3*%
X64058800Y-55778400D03*
D27*
X66598800Y-55778400D03*
X69138800Y-55778400D03*
%TD*%
D24*
%TO.C,J2*%
X65214500Y-60464700D03*
D25*
X67714500Y-60464700D03*
%TD*%
D22*
%TO.C,JP2*%
X64058800Y-66192400D03*
D27*
X66598800Y-66192400D03*
X69138800Y-66192400D03*
%TD*%
M02*
