%TF.GenerationSoftware,KiCad,Pcbnew,(5.1.10-1-10_14)*%
%TF.CreationDate,2022-01-16T00:04:22-08:00*%
%TF.ProjectId,FanExpander-kicad,46616e45-7870-4616-9e64-65722d6b6963,rev?*%
%TF.SameCoordinates,Original*%
%TF.FileFunction,Copper,L1,Top*%
%TF.FilePolarity,Positive*%
%FSLAX46Y46*%
G04 Gerber Fmt 4.6, Leading zero omitted, Abs format (unit mm)*
G04 Created by KiCad (PCBNEW (5.1.10-1-10_14)) date 2022-01-16 00:04:22*
%MOMM*%
%LPD*%
G01*
G04 APERTURE LIST*
%TA.AperFunction,ComponentPad*%
%ADD10C,2.600000*%
%TD*%
%TA.AperFunction,ComponentPad*%
%ADD11R,2.600000X2.600000*%
%TD*%
%TA.AperFunction,ComponentPad*%
%ADD12R,1.000000X1.000000*%
%TD*%
%TA.AperFunction,ComponentPad*%
%ADD13O,1.000000X1.000000*%
%TD*%
%TA.AperFunction,ComponentPad*%
%ADD14C,3.000000*%
%TD*%
%TA.AperFunction,ComponentPad*%
%ADD15R,1.700000X1.700000*%
%TD*%
%TA.AperFunction,ComponentPad*%
%ADD16C,1.700000*%
%TD*%
%TA.AperFunction,ComponentPad*%
%ADD17R,1.750000X1.750000*%
%TD*%
%TA.AperFunction,ComponentPad*%
%ADD18C,1.750000*%
%TD*%
%TA.AperFunction,ComponentPad*%
%ADD19C,6.400000*%
%TD*%
%TA.AperFunction,ComponentPad*%
%ADD20O,1.700000X1.700000*%
%TD*%
%TA.AperFunction,ViaPad*%
%ADD21C,0.800000*%
%TD*%
%TA.AperFunction,Conductor*%
%ADD22C,0.500000*%
%TD*%
%TA.AperFunction,Conductor*%
%ADD23C,0.200000*%
%TD*%
%TA.AperFunction,Conductor*%
%ADD24C,0.250000*%
%TD*%
%TA.AperFunction,Conductor*%
%ADD25C,0.254000*%
%TD*%
%TA.AperFunction,Conductor*%
%ADD26C,0.100000*%
%TD*%
G04 APERTURE END LIST*
D10*
%TO.P,J12,3*%
%TO.N,/5V_Screw*%
X77292200Y-73710800D03*
%TO.P,J12,2*%
%TO.N,GND*%
X72212200Y-73710800D03*
D11*
%TO.P,J12,1*%
%TO.N,/24v_Screw*%
X67132200Y-73710800D03*
%TD*%
D12*
%TO.P,JP10,1*%
%TO.N,Net-(J8-Pad8)*%
X38303200Y-58470800D03*
D13*
%TO.P,JP10,2*%
%TO.N,/FAN7*%
X38303200Y-57200800D03*
%TO.P,JP10,3*%
%TO.N,Net-(J8-Pad4)*%
X38303200Y-55930800D03*
%TD*%
D14*
%TO.P,F1,2*%
%TO.N,/5V_unFused*%
X48304400Y-70764400D03*
X52004400Y-70764400D03*
%TO.P,F1,1*%
%TO.N,+5V*%
X56504400Y-70764400D03*
X60204400Y-70764400D03*
%TD*%
%TO.P,F2,2*%
%TO.N,/24V_unFused*%
X48304400Y-76225400D03*
X52004400Y-76225400D03*
%TO.P,F2,1*%
%TO.N,+24V*%
X56504400Y-76225400D03*
X60204400Y-76225400D03*
%TD*%
D15*
%TO.P,J8,1*%
%TO.N,/FAN1*%
X40284400Y-52158900D03*
D16*
%TO.P,J8,2*%
%TO.N,/FAN3*%
X42824400Y-52158900D03*
%TO.P,J8,3*%
%TO.N,/FAN5*%
X40284400Y-54698900D03*
%TO.P,J8,4*%
%TO.N,Net-(J8-Pad4)*%
X42824400Y-54698900D03*
%TO.P,J8,5*%
%TO.N,/FAN4*%
X40284400Y-57238900D03*
%TO.P,J8,6*%
%TO.N,/FAN2*%
X42824400Y-57238900D03*
%TO.P,J8,7*%
%TO.N,/FAN6*%
X40284400Y-59778900D03*
%TO.P,J8,8*%
%TO.N,Net-(J8-Pad8)*%
X42824400Y-59778900D03*
%TO.P,J8,9*%
%TO.N,GND*%
X40284400Y-62318900D03*
%TO.P,J8,10*%
%TO.N,/5V_EXP*%
X42824400Y-62318900D03*
%TD*%
D17*
%TO.P,J3,1*%
%TO.N,/F3V*%
X65189100Y-50038000D03*
D18*
%TO.P,J3,2*%
%TO.N,/FAN3_Dr*%
X67689100Y-50038000D03*
%TD*%
D19*
%TO.P,MH1,1*%
%TO.N,GND*%
X50012600Y-52146200D03*
%TD*%
D15*
%TO.P,J9,1*%
%TO.N,GND*%
X51003200Y-66065400D03*
D20*
%TO.P,J9,2*%
%TO.N,/5V_unFused*%
X48463200Y-66065400D03*
%TD*%
D19*
%TO.P,MH2,1*%
%TO.N,GND*%
X85012600Y-74646200D03*
%TD*%
D15*
%TO.P,JP0,1*%
%TO.N,+5V*%
X55346600Y-66192400D03*
D20*
%TO.P,JP0,2*%
%TO.N,/F0V*%
X57886600Y-66192400D03*
%TO.P,JP0,3*%
%TO.N,+24V*%
X60426600Y-66192400D03*
%TD*%
D17*
%TO.P,J10,1*%
%TO.N,/24V_F0*%
X49479200Y-61239400D03*
D18*
%TO.P,J10,2*%
%TO.N,/FAN0_Dr*%
X49479200Y-58739400D03*
%TD*%
D17*
%TO.P,J0,1*%
%TO.N,/F0V*%
X56489600Y-60464700D03*
D18*
%TO.P,J0,2*%
%TO.N,/FAN0_Dr*%
X58989600Y-60464700D03*
%TD*%
D15*
%TO.P,JP7,1*%
%TO.N,+5V*%
X81483200Y-55778400D03*
D20*
%TO.P,JP7,2*%
%TO.N,/F7V*%
X84023200Y-55778400D03*
%TO.P,JP7,3*%
%TO.N,+24V*%
X86563200Y-55778400D03*
%TD*%
D15*
%TO.P,JP1,1*%
%TO.N,+5V*%
X55346600Y-55778400D03*
D20*
%TO.P,JP1,2*%
%TO.N,/F1V*%
X57886600Y-55778400D03*
%TO.P,JP1,3*%
%TO.N,+24V*%
X60426600Y-55778400D03*
%TD*%
D17*
%TO.P,J7,1*%
%TO.N,/F7V*%
X82664300Y-50038000D03*
D18*
%TO.P,J7,2*%
%TO.N,/FAN7_Dr*%
X85164300Y-50038000D03*
%TD*%
D17*
%TO.P,J1,1*%
%TO.N,/F1V*%
X56515000Y-50038000D03*
D18*
%TO.P,J1,2*%
%TO.N,/FAN1_Dr*%
X59015000Y-50038000D03*
%TD*%
D17*
%TO.P,J6,1*%
%TO.N,/F6V*%
X82638900Y-60464700D03*
D18*
%TO.P,J6,2*%
%TO.N,/FAN6_Dr*%
X85138900Y-60464700D03*
%TD*%
D17*
%TO.P,J5,1*%
%TO.N,/F5V*%
X73914000Y-50038000D03*
D18*
%TO.P,J5,2*%
%TO.N,/FAN5_Dr*%
X76414000Y-50038000D03*
%TD*%
D15*
%TO.P,JP6,1*%
%TO.N,+5V*%
X81483200Y-66192400D03*
D20*
%TO.P,JP6,2*%
%TO.N,/F6V*%
X84023200Y-66192400D03*
%TO.P,JP6,3*%
%TO.N,+24V*%
X86563200Y-66192400D03*
%TD*%
D15*
%TO.P,JP5,1*%
%TO.N,+5V*%
X72771000Y-55778400D03*
D20*
%TO.P,JP5,2*%
%TO.N,/F5V*%
X75311000Y-55778400D03*
%TO.P,JP5,3*%
%TO.N,+24V*%
X77851000Y-55778400D03*
%TD*%
D17*
%TO.P,J4,1*%
%TO.N,/F4V*%
X73939400Y-60464700D03*
D18*
%TO.P,J4,2*%
%TO.N,/FAN4_Dr*%
X76439400Y-60464700D03*
%TD*%
D15*
%TO.P,JP4,1*%
%TO.N,+5V*%
X72771000Y-66192400D03*
D20*
%TO.P,JP4,2*%
%TO.N,/F4V*%
X75311000Y-66192400D03*
%TO.P,JP4,3*%
%TO.N,+24V*%
X77851000Y-66192400D03*
%TD*%
D15*
%TO.P,JP3,1*%
%TO.N,+5V*%
X64058800Y-55778400D03*
D20*
%TO.P,JP3,2*%
%TO.N,/F3V*%
X66598800Y-55778400D03*
%TO.P,JP3,3*%
%TO.N,+24V*%
X69138800Y-55778400D03*
%TD*%
D17*
%TO.P,J2,1*%
%TO.N,/F2V*%
X65214500Y-60464700D03*
D18*
%TO.P,J2,2*%
%TO.N,/FAN2_Dr*%
X67714500Y-60464700D03*
%TD*%
D15*
%TO.P,JP2,1*%
%TO.N,+5V*%
X64058800Y-66192400D03*
D20*
%TO.P,JP2,2*%
%TO.N,/F2V*%
X66598800Y-66192400D03*
%TO.P,JP2,3*%
%TO.N,+24V*%
X69138800Y-66192400D03*
%TD*%
D21*
%TO.N,GND*%
X58496200Y-68478400D03*
%TO.N,/FAN2*%
X70178602Y-58877200D03*
%TO.N,/FAN4*%
X78916202Y-58877200D03*
%TO.N,/FAN5*%
X78928354Y-48540648D03*
%TO.N,/FAN3*%
X70153202Y-48514000D03*
%TO.N,/FAN6*%
X87600390Y-58647002D03*
%TO.N,/FAN7*%
X87646554Y-48495848D03*
%TO.N,/5V_unFused*%
X75260200Y-72466200D03*
%TO.N,/LED_Drive*%
X82924470Y-54826410D03*
X81838800Y-48336200D03*
%TO.N,/FAN1*%
X61466402Y-48438200D03*
%TD*%
D22*
%TO.N,GND*%
X49703199Y-67365401D02*
X51003200Y-66065400D01*
X47334188Y-66860390D02*
X47839199Y-67365401D01*
X47839199Y-67365401D02*
X49703199Y-67365401D01*
X44825890Y-66860390D02*
X47334188Y-66860390D01*
X40284400Y-62318900D02*
X44825890Y-66860390D01*
X53416200Y-68478400D02*
X58496200Y-68478400D01*
X51003200Y-66065400D02*
X53416200Y-68478400D01*
%TO.N,+24V*%
X79151001Y-57078401D02*
X77851000Y-55778400D01*
X85263199Y-57078401D02*
X79151001Y-57078401D01*
X86563200Y-55778400D02*
X85263199Y-57078401D01*
X70438801Y-57078401D02*
X69138800Y-55778400D01*
X76550999Y-57078401D02*
X70438801Y-57078401D01*
X77851000Y-55778400D02*
X76550999Y-57078401D01*
X67838799Y-57078401D02*
X61726601Y-57078401D01*
X61726601Y-57078401D02*
X60426600Y-55778400D01*
X69138800Y-55778400D02*
X67838799Y-57078401D01*
X61726601Y-67492401D02*
X67838799Y-67492401D01*
X67838799Y-67492401D02*
X69138800Y-66192400D01*
X60426600Y-66192400D02*
X61726601Y-67492401D01*
X76550999Y-67492401D02*
X77851000Y-66192400D01*
X70438801Y-67492401D02*
X76550999Y-67492401D01*
X69138800Y-66192400D02*
X70438801Y-67492401D01*
X85263199Y-67492401D02*
X86563200Y-66192400D01*
X79151001Y-67492401D02*
X85263199Y-67492401D01*
X77851000Y-66192400D02*
X79151001Y-67492401D01*
X62154401Y-67920201D02*
X60426600Y-66192400D01*
X62154401Y-74173799D02*
X62154401Y-67920201D01*
X60204400Y-76123800D02*
X62154401Y-74173799D01*
X87765281Y-55778400D02*
X88450390Y-56463509D01*
X86563200Y-55778400D02*
X87765281Y-55778400D01*
X88450390Y-64305210D02*
X86563200Y-66192400D01*
X88450390Y-56463509D02*
X88450390Y-64305210D01*
D23*
%TO.N,/FAN2*%
X70178602Y-58877200D02*
X68807002Y-57505600D01*
X68066620Y-57628411D02*
X60168411Y-57628411D01*
X68189431Y-57505600D02*
X68066620Y-57628411D01*
X68807002Y-57505600D02*
X68189431Y-57505600D01*
X60168411Y-57628411D02*
X59468401Y-56928401D01*
X50527601Y-56928401D02*
X50088109Y-56488909D01*
X59468401Y-56928401D02*
X50527601Y-56928401D01*
X43574391Y-56488909D02*
X42824400Y-57238900D01*
X50088109Y-56488909D02*
X43574391Y-56488909D01*
%TO.N,/FAN4*%
X43376401Y-58388901D02*
X44876383Y-56888919D01*
X41434401Y-58388901D02*
X43376401Y-58388901D01*
X40284400Y-57238900D02*
X41434401Y-58388901D01*
X49922421Y-56888919D02*
X50361912Y-57328411D01*
X44876383Y-56888919D02*
X49922421Y-56888919D01*
X59302713Y-57328411D02*
X60002722Y-58028421D01*
X50361912Y-57328411D02*
X59302713Y-57328411D01*
X69842601Y-59577201D02*
X70623199Y-59577201D01*
X68293821Y-58028421D02*
X69842601Y-59577201D01*
X60002722Y-58028421D02*
X68293821Y-58028421D01*
X70623199Y-59577201D02*
X72237600Y-57962800D01*
X78001802Y-57962800D02*
X78916202Y-58877200D01*
X72237600Y-57962800D02*
X78001802Y-57962800D01*
%TO.N,/FAN5*%
X72293590Y-47467410D02*
X77855116Y-47467410D01*
X70546999Y-49214001D02*
X72293590Y-47467410D01*
X68634600Y-48031400D02*
X69817201Y-49214001D01*
X41674399Y-53308901D02*
X43376401Y-53308901D01*
X59693932Y-48267430D02*
X60964712Y-49538211D01*
X43974401Y-49600295D02*
X45307266Y-48267430D01*
X63474902Y-48031400D02*
X68634600Y-48031400D01*
X43974401Y-52710901D02*
X43974401Y-49600295D01*
X61968091Y-49538211D02*
X63474902Y-48031400D01*
X45307266Y-48267430D02*
X59693932Y-48267430D01*
X69817201Y-49214001D02*
X70546999Y-49214001D01*
X43376401Y-53308901D02*
X43974401Y-52710901D01*
X77855116Y-47467410D02*
X78928354Y-48540648D01*
X60964712Y-49538211D02*
X61968091Y-49538211D01*
X40284400Y-54698900D02*
X41674399Y-53308901D01*
%TO.N,/FAN3*%
X42824400Y-52158900D02*
X42824400Y-50184598D01*
X42824400Y-50184598D02*
X45141578Y-47867420D01*
X61130401Y-49138201D02*
X61802403Y-49138201D01*
X59859620Y-47867420D02*
X61130401Y-49138201D01*
X45141578Y-47867420D02*
X59859620Y-47867420D01*
X61802403Y-49138201D02*
X63473194Y-47467410D01*
X69106612Y-47467410D02*
X70153202Y-48514000D01*
X63473194Y-47467410D02*
X69106612Y-47467410D01*
%TO.N,/FAN6*%
X78580201Y-59577201D02*
X79767199Y-59577201D01*
X77365810Y-58362810D02*
X78580201Y-59577201D01*
X72403288Y-58362810D02*
X77365810Y-58362810D01*
X70788887Y-59977211D02*
X72403288Y-58362810D01*
X69676912Y-59977211D02*
X70788887Y-59977211D01*
X59837033Y-58428431D02*
X68128133Y-58428431D01*
X50196223Y-57728421D02*
X59137025Y-57728421D01*
X40284400Y-59778900D02*
X41434401Y-60928901D01*
X45047671Y-57288929D02*
X49756732Y-57288929D01*
X59137025Y-57728421D02*
X59837033Y-58428431D01*
X79767199Y-59577201D02*
X81356200Y-57988200D01*
X49756732Y-57288929D02*
X50196223Y-57728421D01*
X43376401Y-60928901D02*
X44272200Y-60033102D01*
X41434401Y-60928901D02*
X43376401Y-60928901D01*
X68128133Y-58428431D02*
X69676912Y-59977211D01*
X44272200Y-58064400D02*
X45047671Y-57288929D01*
X44272200Y-60033102D02*
X44272200Y-58064400D01*
X86941588Y-57988200D02*
X87600390Y-58647002D01*
X81356200Y-57988200D02*
X86941588Y-57988200D01*
D22*
%TO.N,/F1V*%
X57886600Y-51409600D02*
X57886600Y-55778400D01*
X56515000Y-50038000D02*
X57886600Y-51409600D01*
%TO.N,/F2V*%
X66598800Y-61849000D02*
X66598800Y-66192400D01*
X65214500Y-60464700D02*
X66598800Y-61849000D01*
%TO.N,/F3V*%
X66598800Y-51447700D02*
X66598800Y-55778400D01*
X65189100Y-50038000D02*
X66598800Y-51447700D01*
%TO.N,/F4V*%
X75311000Y-61836300D02*
X75311000Y-66192400D01*
X73939400Y-60464700D02*
X75311000Y-61836300D01*
%TO.N,/F6V*%
X84023200Y-61849000D02*
X84023200Y-66192400D01*
X82638900Y-60464700D02*
X84023200Y-61849000D01*
D23*
%TO.N,/FAN7*%
X51249903Y-56088899D02*
X53822600Y-53516202D01*
X39415101Y-56088899D02*
X51249903Y-56088899D01*
X38303200Y-57200800D02*
X39415101Y-56088899D01*
X62133780Y-49938221D02*
X63640591Y-48431410D01*
X59552604Y-48691800D02*
X60799023Y-49938221D01*
X60799023Y-49938221D02*
X62133780Y-49938221D01*
X55571198Y-48691800D02*
X59552604Y-48691800D01*
X53822600Y-50440398D02*
X55571198Y-48691800D01*
X53822600Y-53516202D02*
X53822600Y-50440398D01*
X70712687Y-49614011D02*
X72406149Y-47920549D01*
X69651512Y-49614011D02*
X70712687Y-49614011D01*
X68468911Y-48431410D02*
X69651512Y-49614011D01*
X63640591Y-48431410D02*
X68468911Y-48431410D01*
X76733400Y-47929800D02*
X76795780Y-47867420D01*
X72415400Y-47929800D02*
X76733400Y-47929800D01*
X72406149Y-47920549D02*
X72415400Y-47929800D01*
X78592353Y-49240649D02*
X79283351Y-49240649D01*
X77219124Y-47867420D02*
X78592353Y-49240649D01*
X76795780Y-47867420D02*
X77219124Y-47867420D01*
X79283351Y-49240649D02*
X81056590Y-47467410D01*
X86618116Y-47467410D02*
X87646554Y-48495848D01*
X81056590Y-47467410D02*
X86618116Y-47467410D01*
D22*
%TO.N,/5V_unFused*%
X53954401Y-72714401D02*
X52004400Y-70764400D01*
X53954401Y-76561403D02*
X53954401Y-72714401D01*
X55568399Y-78175401D02*
X53954401Y-76561403D01*
X70337601Y-78175401D02*
X55568399Y-78175401D01*
X75260200Y-73252802D02*
X70337601Y-78175401D01*
X75260200Y-72466200D02*
X75260200Y-73252802D01*
D24*
%TO.N,/LED_Drive*%
X80603490Y-49571510D02*
X81838800Y-48336200D01*
X81086770Y-53851410D02*
X80603490Y-53368130D01*
X81949470Y-53851410D02*
X81086770Y-53851410D01*
X80603490Y-53368130D02*
X80603490Y-49571510D01*
X82924470Y-54826410D02*
X81949470Y-53851410D01*
D22*
%TO.N,/F5V*%
X75311000Y-51435000D02*
X75311000Y-55778400D01*
X73914000Y-50038000D02*
X75311000Y-51435000D01*
D23*
%TO.N,/FAN1*%
X40284400Y-52158900D02*
X44975890Y-47467410D01*
X60495612Y-47467410D02*
X61466402Y-48438200D01*
X44975890Y-47467410D02*
X60495612Y-47467410D01*
D22*
%TO.N,/F7V*%
X84023200Y-51396900D02*
X84023200Y-55778400D01*
X82664300Y-50038000D02*
X84023200Y-51396900D01*
%TO.N,/FAN0_Dr*%
X58989600Y-60404698D02*
X58989600Y-60464700D01*
X57324302Y-58739400D02*
X58989600Y-60404698D01*
X49479200Y-58739400D02*
X57324302Y-58739400D01*
%TO.N,/F0V*%
X57886600Y-61861700D02*
X57886600Y-66192400D01*
X56489600Y-60464700D02*
X57886600Y-61861700D01*
%TD*%
D25*
%TO.N,GND*%
X88265400Y-72592482D02*
X88230155Y-72525530D01*
X88203148Y-72485112D01*
X87713481Y-72124924D01*
X85192205Y-74646200D01*
X87713481Y-77167476D01*
X88203148Y-76807288D01*
X88265400Y-76692569D01*
X88265400Y-77945719D01*
X88255515Y-78046531D01*
X88235611Y-78112458D01*
X88203285Y-78173255D01*
X88159762Y-78226618D01*
X88106700Y-78270515D01*
X88046127Y-78303266D01*
X87980347Y-78323628D01*
X87881669Y-78334000D01*
X86065621Y-78334000D01*
X86464808Y-78215652D01*
X87133270Y-77863755D01*
X87173688Y-77836748D01*
X87533876Y-77347081D01*
X85012600Y-74825805D01*
X82491324Y-77347081D01*
X82851512Y-77836748D01*
X83515482Y-78197049D01*
X83956906Y-78334000D01*
X71430580Y-78334000D01*
X75448490Y-74316090D01*
X75577425Y-74627366D01*
X75789187Y-74944291D01*
X76058709Y-75213813D01*
X76375634Y-75425575D01*
X76727781Y-75571439D01*
X77101619Y-75645800D01*
X77482781Y-75645800D01*
X77856619Y-75571439D01*
X78208766Y-75425575D01*
X78525691Y-75213813D01*
X78795213Y-74944291D01*
X79006975Y-74627366D01*
X79009241Y-74621895D01*
X81159120Y-74621895D01*
X81228422Y-75374138D01*
X81443148Y-76098408D01*
X81795045Y-76766870D01*
X81822052Y-76807288D01*
X82311719Y-77167476D01*
X84832995Y-74646200D01*
X82311719Y-72124924D01*
X81822052Y-72485112D01*
X81461751Y-73149082D01*
X81237906Y-73870585D01*
X81159120Y-74621895D01*
X79009241Y-74621895D01*
X79152839Y-74275219D01*
X79227200Y-73901381D01*
X79227200Y-73520219D01*
X79152839Y-73146381D01*
X79006975Y-72794234D01*
X78795213Y-72477309D01*
X78525691Y-72207787D01*
X78208766Y-71996025D01*
X78086351Y-71945319D01*
X82491324Y-71945319D01*
X85012600Y-74466595D01*
X87533876Y-71945319D01*
X87173688Y-71455652D01*
X86509718Y-71095351D01*
X85788215Y-70871506D01*
X85036905Y-70792720D01*
X84284662Y-70862022D01*
X83560392Y-71076748D01*
X82891930Y-71428645D01*
X82851512Y-71455652D01*
X82491324Y-71945319D01*
X78086351Y-71945319D01*
X77856619Y-71850161D01*
X77482781Y-71775800D01*
X77101619Y-71775800D01*
X76727781Y-71850161D01*
X76375634Y-71996025D01*
X76226891Y-72095412D01*
X76177405Y-71975944D01*
X76064137Y-71806426D01*
X75919974Y-71662263D01*
X75750456Y-71548995D01*
X75562098Y-71470974D01*
X75362139Y-71431200D01*
X75158261Y-71431200D01*
X74958302Y-71470974D01*
X74769944Y-71548995D01*
X74600426Y-71662263D01*
X74456263Y-71806426D01*
X74342995Y-71975944D01*
X74264974Y-72164302D01*
X74225200Y-72364261D01*
X74225200Y-72568139D01*
X74264974Y-72768098D01*
X74331857Y-72929566D01*
X74076478Y-73184945D01*
X73988533Y-72920110D01*
X73856512Y-72673117D01*
X73561424Y-72541181D01*
X72391805Y-73710800D01*
X72405948Y-73724943D01*
X72226343Y-73904548D01*
X72212200Y-73890405D01*
X71042581Y-75060024D01*
X71174517Y-75355112D01*
X71515245Y-75525959D01*
X71687957Y-75573467D01*
X69971023Y-77290401D01*
X62060532Y-77290401D01*
X62096412Y-77236702D01*
X62257353Y-76848156D01*
X62339400Y-76435679D01*
X62339400Y-76015121D01*
X62257353Y-75602644D01*
X62175279Y-75404500D01*
X62749451Y-74830328D01*
X62783218Y-74802616D01*
X62827645Y-74748483D01*
X62893812Y-74667858D01*
X62975989Y-74514113D01*
X62975990Y-74514112D01*
X63026596Y-74347289D01*
X63039401Y-74217276D01*
X63039401Y-74217268D01*
X63043682Y-74173799D01*
X63039401Y-74130330D01*
X63039401Y-72410800D01*
X65194128Y-72410800D01*
X65194128Y-75010800D01*
X65206388Y-75135282D01*
X65242698Y-75254980D01*
X65301663Y-75365294D01*
X65381015Y-75461985D01*
X65477706Y-75541337D01*
X65588020Y-75600302D01*
X65707718Y-75636612D01*
X65832200Y-75648872D01*
X68432200Y-75648872D01*
X68556682Y-75636612D01*
X68676380Y-75600302D01*
X68786694Y-75541337D01*
X68883385Y-75461985D01*
X68962737Y-75365294D01*
X69021702Y-75254980D01*
X69058012Y-75135282D01*
X69070272Y-75010800D01*
X69070272Y-73761529D01*
X70268499Y-73761529D01*
X70315743Y-74139751D01*
X70435867Y-74501490D01*
X70567888Y-74748483D01*
X70862976Y-74880419D01*
X72032595Y-73710800D01*
X70862976Y-72541181D01*
X70567888Y-72673117D01*
X70397041Y-73013845D01*
X70295950Y-73381357D01*
X70268499Y-73761529D01*
X69070272Y-73761529D01*
X69070272Y-72410800D01*
X69065425Y-72361576D01*
X71042581Y-72361576D01*
X72212200Y-73531195D01*
X73381819Y-72361576D01*
X73249883Y-72066488D01*
X72909155Y-71895641D01*
X72541643Y-71794550D01*
X72161471Y-71767099D01*
X71783249Y-71814343D01*
X71421510Y-71934467D01*
X71174517Y-72066488D01*
X71042581Y-72361576D01*
X69065425Y-72361576D01*
X69058012Y-72286318D01*
X69021702Y-72166620D01*
X68962737Y-72056306D01*
X68883385Y-71959615D01*
X68786694Y-71880263D01*
X68676380Y-71821298D01*
X68556682Y-71784988D01*
X68432200Y-71772728D01*
X65832200Y-71772728D01*
X65707718Y-71784988D01*
X65588020Y-71821298D01*
X65477706Y-71880263D01*
X65381015Y-71959615D01*
X65301663Y-72056306D01*
X65242698Y-72166620D01*
X65206388Y-72286318D01*
X65194128Y-72410800D01*
X63039401Y-72410800D01*
X63039401Y-68377401D01*
X67795330Y-68377401D01*
X67838799Y-68381682D01*
X67882268Y-68377401D01*
X67882276Y-68377401D01*
X68012289Y-68364596D01*
X68179112Y-68313990D01*
X68332858Y-68231812D01*
X68467616Y-68121218D01*
X68495333Y-68087445D01*
X68919839Y-67662939D01*
X68992540Y-67677400D01*
X69285060Y-67677400D01*
X69357760Y-67662939D01*
X69782271Y-68087450D01*
X69809984Y-68121218D01*
X69843752Y-68148931D01*
X69843754Y-68148933D01*
X69859679Y-68162002D01*
X69944742Y-68231812D01*
X70098488Y-68313990D01*
X70265311Y-68364596D01*
X70395324Y-68377401D01*
X70395334Y-68377401D01*
X70438800Y-68381682D01*
X70482267Y-68377401D01*
X76507530Y-68377401D01*
X76550999Y-68381682D01*
X76594468Y-68377401D01*
X76594476Y-68377401D01*
X76724489Y-68364596D01*
X76891312Y-68313990D01*
X77045058Y-68231812D01*
X77179816Y-68121218D01*
X77207533Y-68087445D01*
X77632039Y-67662939D01*
X77704740Y-67677400D01*
X77997260Y-67677400D01*
X78069960Y-67662939D01*
X78494471Y-68087450D01*
X78522184Y-68121218D01*
X78555952Y-68148931D01*
X78555954Y-68148933D01*
X78571879Y-68162002D01*
X78656942Y-68231812D01*
X78810688Y-68313990D01*
X78977511Y-68364596D01*
X79107524Y-68377401D01*
X79107534Y-68377401D01*
X79151000Y-68381682D01*
X79194467Y-68377401D01*
X85219730Y-68377401D01*
X85263199Y-68381682D01*
X85306668Y-68377401D01*
X85306676Y-68377401D01*
X85436689Y-68364596D01*
X85603512Y-68313990D01*
X85757258Y-68231812D01*
X85892016Y-68121218D01*
X85919733Y-68087445D01*
X86344239Y-67662939D01*
X86416940Y-67677400D01*
X86709460Y-67677400D01*
X86996358Y-67620332D01*
X87266611Y-67508390D01*
X87509832Y-67345875D01*
X87716675Y-67139032D01*
X87879190Y-66895811D01*
X87991132Y-66625558D01*
X88048200Y-66338660D01*
X88048200Y-66046140D01*
X88033739Y-65973440D01*
X88265400Y-65741778D01*
X88265400Y-72592482D01*
%TA.AperFunction,Conductor*%
D26*
G36*
X88265400Y-72592482D02*
G01*
X88230155Y-72525530D01*
X88203148Y-72485112D01*
X87713481Y-72124924D01*
X85192205Y-74646200D01*
X87713481Y-77167476D01*
X88203148Y-76807288D01*
X88265400Y-76692569D01*
X88265400Y-77945719D01*
X88255515Y-78046531D01*
X88235611Y-78112458D01*
X88203285Y-78173255D01*
X88159762Y-78226618D01*
X88106700Y-78270515D01*
X88046127Y-78303266D01*
X87980347Y-78323628D01*
X87881669Y-78334000D01*
X86065621Y-78334000D01*
X86464808Y-78215652D01*
X87133270Y-77863755D01*
X87173688Y-77836748D01*
X87533876Y-77347081D01*
X85012600Y-74825805D01*
X82491324Y-77347081D01*
X82851512Y-77836748D01*
X83515482Y-78197049D01*
X83956906Y-78334000D01*
X71430580Y-78334000D01*
X75448490Y-74316090D01*
X75577425Y-74627366D01*
X75789187Y-74944291D01*
X76058709Y-75213813D01*
X76375634Y-75425575D01*
X76727781Y-75571439D01*
X77101619Y-75645800D01*
X77482781Y-75645800D01*
X77856619Y-75571439D01*
X78208766Y-75425575D01*
X78525691Y-75213813D01*
X78795213Y-74944291D01*
X79006975Y-74627366D01*
X79009241Y-74621895D01*
X81159120Y-74621895D01*
X81228422Y-75374138D01*
X81443148Y-76098408D01*
X81795045Y-76766870D01*
X81822052Y-76807288D01*
X82311719Y-77167476D01*
X84832995Y-74646200D01*
X82311719Y-72124924D01*
X81822052Y-72485112D01*
X81461751Y-73149082D01*
X81237906Y-73870585D01*
X81159120Y-74621895D01*
X79009241Y-74621895D01*
X79152839Y-74275219D01*
X79227200Y-73901381D01*
X79227200Y-73520219D01*
X79152839Y-73146381D01*
X79006975Y-72794234D01*
X78795213Y-72477309D01*
X78525691Y-72207787D01*
X78208766Y-71996025D01*
X78086351Y-71945319D01*
X82491324Y-71945319D01*
X85012600Y-74466595D01*
X87533876Y-71945319D01*
X87173688Y-71455652D01*
X86509718Y-71095351D01*
X85788215Y-70871506D01*
X85036905Y-70792720D01*
X84284662Y-70862022D01*
X83560392Y-71076748D01*
X82891930Y-71428645D01*
X82851512Y-71455652D01*
X82491324Y-71945319D01*
X78086351Y-71945319D01*
X77856619Y-71850161D01*
X77482781Y-71775800D01*
X77101619Y-71775800D01*
X76727781Y-71850161D01*
X76375634Y-71996025D01*
X76226891Y-72095412D01*
X76177405Y-71975944D01*
X76064137Y-71806426D01*
X75919974Y-71662263D01*
X75750456Y-71548995D01*
X75562098Y-71470974D01*
X75362139Y-71431200D01*
X75158261Y-71431200D01*
X74958302Y-71470974D01*
X74769944Y-71548995D01*
X74600426Y-71662263D01*
X74456263Y-71806426D01*
X74342995Y-71975944D01*
X74264974Y-72164302D01*
X74225200Y-72364261D01*
X74225200Y-72568139D01*
X74264974Y-72768098D01*
X74331857Y-72929566D01*
X74076478Y-73184945D01*
X73988533Y-72920110D01*
X73856512Y-72673117D01*
X73561424Y-72541181D01*
X72391805Y-73710800D01*
X72405948Y-73724943D01*
X72226343Y-73904548D01*
X72212200Y-73890405D01*
X71042581Y-75060024D01*
X71174517Y-75355112D01*
X71515245Y-75525959D01*
X71687957Y-75573467D01*
X69971023Y-77290401D01*
X62060532Y-77290401D01*
X62096412Y-77236702D01*
X62257353Y-76848156D01*
X62339400Y-76435679D01*
X62339400Y-76015121D01*
X62257353Y-75602644D01*
X62175279Y-75404500D01*
X62749451Y-74830328D01*
X62783218Y-74802616D01*
X62827645Y-74748483D01*
X62893812Y-74667858D01*
X62975989Y-74514113D01*
X62975990Y-74514112D01*
X63026596Y-74347289D01*
X63039401Y-74217276D01*
X63039401Y-74217268D01*
X63043682Y-74173799D01*
X63039401Y-74130330D01*
X63039401Y-72410800D01*
X65194128Y-72410800D01*
X65194128Y-75010800D01*
X65206388Y-75135282D01*
X65242698Y-75254980D01*
X65301663Y-75365294D01*
X65381015Y-75461985D01*
X65477706Y-75541337D01*
X65588020Y-75600302D01*
X65707718Y-75636612D01*
X65832200Y-75648872D01*
X68432200Y-75648872D01*
X68556682Y-75636612D01*
X68676380Y-75600302D01*
X68786694Y-75541337D01*
X68883385Y-75461985D01*
X68962737Y-75365294D01*
X69021702Y-75254980D01*
X69058012Y-75135282D01*
X69070272Y-75010800D01*
X69070272Y-73761529D01*
X70268499Y-73761529D01*
X70315743Y-74139751D01*
X70435867Y-74501490D01*
X70567888Y-74748483D01*
X70862976Y-74880419D01*
X72032595Y-73710800D01*
X70862976Y-72541181D01*
X70567888Y-72673117D01*
X70397041Y-73013845D01*
X70295950Y-73381357D01*
X70268499Y-73761529D01*
X69070272Y-73761529D01*
X69070272Y-72410800D01*
X69065425Y-72361576D01*
X71042581Y-72361576D01*
X72212200Y-73531195D01*
X73381819Y-72361576D01*
X73249883Y-72066488D01*
X72909155Y-71895641D01*
X72541643Y-71794550D01*
X72161471Y-71767099D01*
X71783249Y-71814343D01*
X71421510Y-71934467D01*
X71174517Y-72066488D01*
X71042581Y-72361576D01*
X69065425Y-72361576D01*
X69058012Y-72286318D01*
X69021702Y-72166620D01*
X68962737Y-72056306D01*
X68883385Y-71959615D01*
X68786694Y-71880263D01*
X68676380Y-71821298D01*
X68556682Y-71784988D01*
X68432200Y-71772728D01*
X65832200Y-71772728D01*
X65707718Y-71784988D01*
X65588020Y-71821298D01*
X65477706Y-71880263D01*
X65381015Y-71959615D01*
X65301663Y-72056306D01*
X65242698Y-72166620D01*
X65206388Y-72286318D01*
X65194128Y-72410800D01*
X63039401Y-72410800D01*
X63039401Y-68377401D01*
X67795330Y-68377401D01*
X67838799Y-68381682D01*
X67882268Y-68377401D01*
X67882276Y-68377401D01*
X68012289Y-68364596D01*
X68179112Y-68313990D01*
X68332858Y-68231812D01*
X68467616Y-68121218D01*
X68495333Y-68087445D01*
X68919839Y-67662939D01*
X68992540Y-67677400D01*
X69285060Y-67677400D01*
X69357760Y-67662939D01*
X69782271Y-68087450D01*
X69809984Y-68121218D01*
X69843752Y-68148931D01*
X69843754Y-68148933D01*
X69859679Y-68162002D01*
X69944742Y-68231812D01*
X70098488Y-68313990D01*
X70265311Y-68364596D01*
X70395324Y-68377401D01*
X70395334Y-68377401D01*
X70438800Y-68381682D01*
X70482267Y-68377401D01*
X76507530Y-68377401D01*
X76550999Y-68381682D01*
X76594468Y-68377401D01*
X76594476Y-68377401D01*
X76724489Y-68364596D01*
X76891312Y-68313990D01*
X77045058Y-68231812D01*
X77179816Y-68121218D01*
X77207533Y-68087445D01*
X77632039Y-67662939D01*
X77704740Y-67677400D01*
X77997260Y-67677400D01*
X78069960Y-67662939D01*
X78494471Y-68087450D01*
X78522184Y-68121218D01*
X78555952Y-68148931D01*
X78555954Y-68148933D01*
X78571879Y-68162002D01*
X78656942Y-68231812D01*
X78810688Y-68313990D01*
X78977511Y-68364596D01*
X79107524Y-68377401D01*
X79107534Y-68377401D01*
X79151000Y-68381682D01*
X79194467Y-68377401D01*
X85219730Y-68377401D01*
X85263199Y-68381682D01*
X85306668Y-68377401D01*
X85306676Y-68377401D01*
X85436689Y-68364596D01*
X85603512Y-68313990D01*
X85757258Y-68231812D01*
X85892016Y-68121218D01*
X85919733Y-68087445D01*
X86344239Y-67662939D01*
X86416940Y-67677400D01*
X86709460Y-67677400D01*
X86996358Y-67620332D01*
X87266611Y-67508390D01*
X87509832Y-67345875D01*
X87716675Y-67139032D01*
X87879190Y-66895811D01*
X87991132Y-66625558D01*
X88048200Y-66338660D01*
X88048200Y-66046140D01*
X88033739Y-65973440D01*
X88265400Y-65741778D01*
X88265400Y-72592482D01*
G37*
%TD.AperFunction*%
D25*
X48141056Y-58024147D02*
X48027229Y-58298949D01*
X47969200Y-58590678D01*
X47969200Y-58888122D01*
X48027229Y-59179851D01*
X48141056Y-59454653D01*
X48306307Y-59701969D01*
X48374764Y-59770426D01*
X48360020Y-59774898D01*
X48249706Y-59833863D01*
X48153015Y-59913215D01*
X48073663Y-60009906D01*
X48014698Y-60120220D01*
X47978388Y-60239918D01*
X47966128Y-60364400D01*
X47966128Y-62114400D01*
X47978388Y-62238882D01*
X48014698Y-62358580D01*
X48073663Y-62468894D01*
X48153015Y-62565585D01*
X48249706Y-62644937D01*
X48360020Y-62703902D01*
X48479718Y-62740212D01*
X48604200Y-62752472D01*
X50354200Y-62752472D01*
X50478682Y-62740212D01*
X50598380Y-62703902D01*
X50708694Y-62644937D01*
X50805385Y-62565585D01*
X50884737Y-62468894D01*
X50943702Y-62358580D01*
X50980012Y-62238882D01*
X50992272Y-62114400D01*
X50992272Y-60364400D01*
X50980012Y-60239918D01*
X50943702Y-60120220D01*
X50884737Y-60009906D01*
X50805385Y-59913215D01*
X50708694Y-59833863D01*
X50598380Y-59774898D01*
X50583636Y-59770426D01*
X50652093Y-59701969D01*
X50703923Y-59624400D01*
X54976528Y-59624400D01*
X54976528Y-61271543D01*
X54842753Y-61312124D01*
X54645577Y-61417516D01*
X54472751Y-61559351D01*
X54330916Y-61732177D01*
X54225524Y-61929353D01*
X54160623Y-62143301D01*
X54138709Y-62365800D01*
X54144200Y-62421552D01*
X54144200Y-63410048D01*
X54138709Y-63465800D01*
X54160623Y-63688299D01*
X54225524Y-63902247D01*
X54259011Y-63964897D01*
X54330916Y-64099423D01*
X54472751Y-64272249D01*
X54645577Y-64414084D01*
X54842753Y-64519476D01*
X55056701Y-64584377D01*
X55279200Y-64606291D01*
X55334951Y-64600800D01*
X56323448Y-64600800D01*
X56379200Y-64606291D01*
X56434951Y-64600800D01*
X56434952Y-64600800D01*
X56601699Y-64584377D01*
X56815647Y-64519476D01*
X57001601Y-64420082D01*
X57001601Y-64997743D01*
X56939968Y-65038925D01*
X56808113Y-65170780D01*
X56786102Y-65098220D01*
X56727137Y-64987906D01*
X56647785Y-64891215D01*
X56551094Y-64811863D01*
X56440780Y-64752898D01*
X56321082Y-64716588D01*
X56196600Y-64704328D01*
X54496600Y-64704328D01*
X54372118Y-64716588D01*
X54252420Y-64752898D01*
X54142106Y-64811863D01*
X54045415Y-64891215D01*
X53966063Y-64987906D01*
X53907098Y-65098220D01*
X53870788Y-65217918D01*
X53858528Y-65342400D01*
X53858528Y-67042400D01*
X53870788Y-67166882D01*
X53907098Y-67286580D01*
X53966063Y-67396894D01*
X54045415Y-67493585D01*
X54142106Y-67572937D01*
X54252420Y-67631902D01*
X54372118Y-67668212D01*
X54496600Y-67680472D01*
X56196600Y-67680472D01*
X56321082Y-67668212D01*
X56440780Y-67631902D01*
X56551094Y-67572937D01*
X56647785Y-67493585D01*
X56727137Y-67396894D01*
X56786102Y-67286580D01*
X56808113Y-67214020D01*
X56939968Y-67345875D01*
X57183189Y-67508390D01*
X57453442Y-67620332D01*
X57740340Y-67677400D01*
X58032860Y-67677400D01*
X58319758Y-67620332D01*
X58590011Y-67508390D01*
X58833232Y-67345875D01*
X59040075Y-67139032D01*
X59156600Y-66964640D01*
X59273125Y-67139032D01*
X59479968Y-67345875D01*
X59723189Y-67508390D01*
X59993442Y-67620332D01*
X60280340Y-67677400D01*
X60572860Y-67677400D01*
X60645560Y-67662939D01*
X60663094Y-67680472D01*
X61070070Y-68087449D01*
X61097784Y-68121218D01*
X61131553Y-68148932D01*
X61269402Y-68286781D01*
X61269402Y-68908269D01*
X61215702Y-68872388D01*
X60827156Y-68711447D01*
X60414679Y-68629400D01*
X59994121Y-68629400D01*
X59581644Y-68711447D01*
X59193098Y-68872388D01*
X58843417Y-69106037D01*
X58546037Y-69403417D01*
X58354400Y-69690222D01*
X58162763Y-69403417D01*
X57865383Y-69106037D01*
X57515702Y-68872388D01*
X57127156Y-68711447D01*
X56714679Y-68629400D01*
X56294121Y-68629400D01*
X55881644Y-68711447D01*
X55493098Y-68872388D01*
X55143417Y-69106037D01*
X54846037Y-69403417D01*
X54612388Y-69753098D01*
X54451447Y-70141644D01*
X54369400Y-70554121D01*
X54369400Y-70974679D01*
X54451447Y-71387156D01*
X54612388Y-71775702D01*
X54846037Y-72125383D01*
X55143417Y-72422763D01*
X55493098Y-72656412D01*
X55881644Y-72817353D01*
X56294121Y-72899400D01*
X56714679Y-72899400D01*
X57127156Y-72817353D01*
X57515702Y-72656412D01*
X57865383Y-72422763D01*
X58162763Y-72125383D01*
X58354400Y-71838578D01*
X58546037Y-72125383D01*
X58843417Y-72422763D01*
X59193098Y-72656412D01*
X59581644Y-72817353D01*
X59994121Y-72899400D01*
X60414679Y-72899400D01*
X60827156Y-72817353D01*
X61215702Y-72656412D01*
X61269401Y-72620531D01*
X61269401Y-73807220D01*
X60881616Y-74195005D01*
X60827156Y-74172447D01*
X60414679Y-74090400D01*
X59994121Y-74090400D01*
X59581644Y-74172447D01*
X59193098Y-74333388D01*
X58843417Y-74567037D01*
X58546037Y-74864417D01*
X58354400Y-75151222D01*
X58162763Y-74864417D01*
X57865383Y-74567037D01*
X57515702Y-74333388D01*
X57127156Y-74172447D01*
X56714679Y-74090400D01*
X56294121Y-74090400D01*
X55881644Y-74172447D01*
X55493098Y-74333388D01*
X55143417Y-74567037D01*
X54846037Y-74864417D01*
X54839401Y-74874348D01*
X54839401Y-72757870D01*
X54843682Y-72714401D01*
X54839401Y-72670932D01*
X54839401Y-72670924D01*
X54826596Y-72540911D01*
X54775990Y-72374088D01*
X54693812Y-72220342D01*
X54616295Y-72125888D01*
X54610933Y-72119354D01*
X54610931Y-72119352D01*
X54583218Y-72085584D01*
X54549450Y-72057871D01*
X54005037Y-71513458D01*
X54057353Y-71387156D01*
X54139400Y-70974679D01*
X54139400Y-70554121D01*
X54057353Y-70141644D01*
X53896412Y-69753098D01*
X53662763Y-69403417D01*
X53365383Y-69106037D01*
X53015702Y-68872388D01*
X52627156Y-68711447D01*
X52214679Y-68629400D01*
X51794121Y-68629400D01*
X51381644Y-68711447D01*
X50993098Y-68872388D01*
X50643417Y-69106037D01*
X50346037Y-69403417D01*
X50154400Y-69690222D01*
X49962763Y-69403417D01*
X49665383Y-69106037D01*
X49315702Y-68872388D01*
X48927156Y-68711447D01*
X48514679Y-68629400D01*
X48094121Y-68629400D01*
X47681644Y-68711447D01*
X47293098Y-68872388D01*
X47192800Y-68939405D01*
X47192800Y-68318981D01*
X47190016Y-68290709D01*
X47190059Y-68284488D01*
X47189159Y-68275317D01*
X47168432Y-68078115D01*
X47156410Y-68019551D01*
X47145196Y-67960762D01*
X47142532Y-67951940D01*
X47083897Y-67762518D01*
X47060729Y-67707405D01*
X47038307Y-67651907D01*
X47033980Y-67643771D01*
X46939670Y-67469347D01*
X46906203Y-67419731D01*
X46873465Y-67369701D01*
X46867641Y-67362560D01*
X46741247Y-67209776D01*
X46698812Y-67167637D01*
X46656949Y-67124887D01*
X46649848Y-67119013D01*
X46496186Y-66993689D01*
X46446344Y-66960574D01*
X46397004Y-66926790D01*
X46388898Y-66922407D01*
X46213820Y-66829316D01*
X46158525Y-66806525D01*
X46103530Y-66782954D01*
X46094727Y-66780229D01*
X45904900Y-66722918D01*
X45846220Y-66711300D01*
X45787713Y-66698863D01*
X45778548Y-66697900D01*
X45581206Y-66678550D01*
X45581202Y-66678550D01*
X45549219Y-66675400D01*
X38183081Y-66675400D01*
X38082269Y-66665515D01*
X38016342Y-66645611D01*
X37955545Y-66613285D01*
X37902182Y-66569762D01*
X37858285Y-66516700D01*
X37825534Y-66456127D01*
X37805172Y-66390347D01*
X37794800Y-66291669D01*
X37794800Y-65919140D01*
X46978200Y-65919140D01*
X46978200Y-66211660D01*
X47035268Y-66498558D01*
X47147210Y-66768811D01*
X47309725Y-67012032D01*
X47516568Y-67218875D01*
X47759789Y-67381390D01*
X48030042Y-67493332D01*
X48316940Y-67550400D01*
X48609460Y-67550400D01*
X48896358Y-67493332D01*
X49166611Y-67381390D01*
X49409832Y-67218875D01*
X49541687Y-67087020D01*
X49563698Y-67159580D01*
X49622663Y-67269894D01*
X49702015Y-67366585D01*
X49798706Y-67445937D01*
X49909020Y-67504902D01*
X50028718Y-67541212D01*
X50153200Y-67553472D01*
X50717450Y-67550400D01*
X50876200Y-67391650D01*
X50876200Y-66192400D01*
X51130200Y-66192400D01*
X51130200Y-67391650D01*
X51288950Y-67550400D01*
X51853200Y-67553472D01*
X51977682Y-67541212D01*
X52097380Y-67504902D01*
X52207694Y-67445937D01*
X52304385Y-67366585D01*
X52383737Y-67269894D01*
X52442702Y-67159580D01*
X52479012Y-67039882D01*
X52491272Y-66915400D01*
X52488200Y-66351150D01*
X52329450Y-66192400D01*
X51130200Y-66192400D01*
X50876200Y-66192400D01*
X50856200Y-66192400D01*
X50856200Y-65938400D01*
X50876200Y-65938400D01*
X50876200Y-64739150D01*
X51130200Y-64739150D01*
X51130200Y-65938400D01*
X52329450Y-65938400D01*
X52488200Y-65779650D01*
X52491272Y-65215400D01*
X52479012Y-65090918D01*
X52442702Y-64971220D01*
X52383737Y-64860906D01*
X52304385Y-64764215D01*
X52207694Y-64684863D01*
X52097380Y-64625898D01*
X51977682Y-64589588D01*
X51853200Y-64577328D01*
X51288950Y-64580400D01*
X51130200Y-64739150D01*
X50876200Y-64739150D01*
X50717450Y-64580400D01*
X50153200Y-64577328D01*
X50028718Y-64589588D01*
X49909020Y-64625898D01*
X49798706Y-64684863D01*
X49702015Y-64764215D01*
X49622663Y-64860906D01*
X49563698Y-64971220D01*
X49541687Y-65043780D01*
X49409832Y-64911925D01*
X49166611Y-64749410D01*
X48896358Y-64637468D01*
X48609460Y-64580400D01*
X48316940Y-64580400D01*
X48030042Y-64637468D01*
X47759789Y-64749410D01*
X47516568Y-64911925D01*
X47309725Y-65118768D01*
X47147210Y-65361989D01*
X47035268Y-65632242D01*
X46978200Y-65919140D01*
X37794800Y-65919140D01*
X37794800Y-63347297D01*
X39435608Y-63347297D01*
X39513243Y-63596372D01*
X39777283Y-63722271D01*
X40060811Y-63794239D01*
X40352931Y-63809511D01*
X40642419Y-63767499D01*
X40918147Y-63669819D01*
X41055557Y-63596372D01*
X41133192Y-63347297D01*
X40284400Y-62498505D01*
X39435608Y-63347297D01*
X37794800Y-63347297D01*
X37794800Y-62387431D01*
X38793789Y-62387431D01*
X38835801Y-62676919D01*
X38933481Y-62952647D01*
X39006928Y-63090057D01*
X39256003Y-63167692D01*
X40104795Y-62318900D01*
X39256003Y-61470108D01*
X39006928Y-61547743D01*
X38881029Y-61811783D01*
X38809061Y-62095311D01*
X38793789Y-62387431D01*
X37794800Y-62387431D01*
X37794800Y-59608045D01*
X37803200Y-59608872D01*
X38803200Y-59608872D01*
X38804146Y-59608779D01*
X38799400Y-59632640D01*
X38799400Y-59925160D01*
X38856468Y-60212058D01*
X38968410Y-60482311D01*
X39130925Y-60725532D01*
X39337768Y-60932375D01*
X39511129Y-61048211D01*
X39435608Y-61290503D01*
X40284400Y-62139295D01*
X40298543Y-62125153D01*
X40478148Y-62304758D01*
X40464005Y-62318900D01*
X41312797Y-63167692D01*
X41555089Y-63092171D01*
X41670925Y-63265532D01*
X41877768Y-63472375D01*
X42120989Y-63634890D01*
X42391242Y-63746832D01*
X42678140Y-63803900D01*
X42970660Y-63803900D01*
X43257558Y-63746832D01*
X43527811Y-63634890D01*
X43771032Y-63472375D01*
X43977875Y-63265532D01*
X44140390Y-63022311D01*
X44252332Y-62752058D01*
X44309400Y-62465160D01*
X44309400Y-62172640D01*
X44252332Y-61885742D01*
X44140390Y-61615489D01*
X43977875Y-61372268D01*
X43975178Y-61369571D01*
X44766397Y-60578352D01*
X44794437Y-60555340D01*
X44817450Y-60527299D01*
X44817453Y-60527296D01*
X44868824Y-60464700D01*
X44886287Y-60443422D01*
X44954537Y-60315735D01*
X44991495Y-60193901D01*
X44996565Y-60177188D01*
X45001765Y-60124387D01*
X45007200Y-60069207D01*
X45007200Y-60069200D01*
X45010755Y-60033103D01*
X45007200Y-59997006D01*
X45007200Y-58368846D01*
X45352118Y-58023929D01*
X48141202Y-58023929D01*
X48141056Y-58024147D01*
%TA.AperFunction,Conductor*%
D26*
G36*
X48141056Y-58024147D02*
G01*
X48027229Y-58298949D01*
X47969200Y-58590678D01*
X47969200Y-58888122D01*
X48027229Y-59179851D01*
X48141056Y-59454653D01*
X48306307Y-59701969D01*
X48374764Y-59770426D01*
X48360020Y-59774898D01*
X48249706Y-59833863D01*
X48153015Y-59913215D01*
X48073663Y-60009906D01*
X48014698Y-60120220D01*
X47978388Y-60239918D01*
X47966128Y-60364400D01*
X47966128Y-62114400D01*
X47978388Y-62238882D01*
X48014698Y-62358580D01*
X48073663Y-62468894D01*
X48153015Y-62565585D01*
X48249706Y-62644937D01*
X48360020Y-62703902D01*
X48479718Y-62740212D01*
X48604200Y-62752472D01*
X50354200Y-62752472D01*
X50478682Y-62740212D01*
X50598380Y-62703902D01*
X50708694Y-62644937D01*
X50805385Y-62565585D01*
X50884737Y-62468894D01*
X50943702Y-62358580D01*
X50980012Y-62238882D01*
X50992272Y-62114400D01*
X50992272Y-60364400D01*
X50980012Y-60239918D01*
X50943702Y-60120220D01*
X50884737Y-60009906D01*
X50805385Y-59913215D01*
X50708694Y-59833863D01*
X50598380Y-59774898D01*
X50583636Y-59770426D01*
X50652093Y-59701969D01*
X50703923Y-59624400D01*
X54976528Y-59624400D01*
X54976528Y-61271543D01*
X54842753Y-61312124D01*
X54645577Y-61417516D01*
X54472751Y-61559351D01*
X54330916Y-61732177D01*
X54225524Y-61929353D01*
X54160623Y-62143301D01*
X54138709Y-62365800D01*
X54144200Y-62421552D01*
X54144200Y-63410048D01*
X54138709Y-63465800D01*
X54160623Y-63688299D01*
X54225524Y-63902247D01*
X54259011Y-63964897D01*
X54330916Y-64099423D01*
X54472751Y-64272249D01*
X54645577Y-64414084D01*
X54842753Y-64519476D01*
X55056701Y-64584377D01*
X55279200Y-64606291D01*
X55334951Y-64600800D01*
X56323448Y-64600800D01*
X56379200Y-64606291D01*
X56434951Y-64600800D01*
X56434952Y-64600800D01*
X56601699Y-64584377D01*
X56815647Y-64519476D01*
X57001601Y-64420082D01*
X57001601Y-64997743D01*
X56939968Y-65038925D01*
X56808113Y-65170780D01*
X56786102Y-65098220D01*
X56727137Y-64987906D01*
X56647785Y-64891215D01*
X56551094Y-64811863D01*
X56440780Y-64752898D01*
X56321082Y-64716588D01*
X56196600Y-64704328D01*
X54496600Y-64704328D01*
X54372118Y-64716588D01*
X54252420Y-64752898D01*
X54142106Y-64811863D01*
X54045415Y-64891215D01*
X53966063Y-64987906D01*
X53907098Y-65098220D01*
X53870788Y-65217918D01*
X53858528Y-65342400D01*
X53858528Y-67042400D01*
X53870788Y-67166882D01*
X53907098Y-67286580D01*
X53966063Y-67396894D01*
X54045415Y-67493585D01*
X54142106Y-67572937D01*
X54252420Y-67631902D01*
X54372118Y-67668212D01*
X54496600Y-67680472D01*
X56196600Y-67680472D01*
X56321082Y-67668212D01*
X56440780Y-67631902D01*
X56551094Y-67572937D01*
X56647785Y-67493585D01*
X56727137Y-67396894D01*
X56786102Y-67286580D01*
X56808113Y-67214020D01*
X56939968Y-67345875D01*
X57183189Y-67508390D01*
X57453442Y-67620332D01*
X57740340Y-67677400D01*
X58032860Y-67677400D01*
X58319758Y-67620332D01*
X58590011Y-67508390D01*
X58833232Y-67345875D01*
X59040075Y-67139032D01*
X59156600Y-66964640D01*
X59273125Y-67139032D01*
X59479968Y-67345875D01*
X59723189Y-67508390D01*
X59993442Y-67620332D01*
X60280340Y-67677400D01*
X60572860Y-67677400D01*
X60645560Y-67662939D01*
X60663094Y-67680472D01*
X61070070Y-68087449D01*
X61097784Y-68121218D01*
X61131553Y-68148932D01*
X61269402Y-68286781D01*
X61269402Y-68908269D01*
X61215702Y-68872388D01*
X60827156Y-68711447D01*
X60414679Y-68629400D01*
X59994121Y-68629400D01*
X59581644Y-68711447D01*
X59193098Y-68872388D01*
X58843417Y-69106037D01*
X58546037Y-69403417D01*
X58354400Y-69690222D01*
X58162763Y-69403417D01*
X57865383Y-69106037D01*
X57515702Y-68872388D01*
X57127156Y-68711447D01*
X56714679Y-68629400D01*
X56294121Y-68629400D01*
X55881644Y-68711447D01*
X55493098Y-68872388D01*
X55143417Y-69106037D01*
X54846037Y-69403417D01*
X54612388Y-69753098D01*
X54451447Y-70141644D01*
X54369400Y-70554121D01*
X54369400Y-70974679D01*
X54451447Y-71387156D01*
X54612388Y-71775702D01*
X54846037Y-72125383D01*
X55143417Y-72422763D01*
X55493098Y-72656412D01*
X55881644Y-72817353D01*
X56294121Y-72899400D01*
X56714679Y-72899400D01*
X57127156Y-72817353D01*
X57515702Y-72656412D01*
X57865383Y-72422763D01*
X58162763Y-72125383D01*
X58354400Y-71838578D01*
X58546037Y-72125383D01*
X58843417Y-72422763D01*
X59193098Y-72656412D01*
X59581644Y-72817353D01*
X59994121Y-72899400D01*
X60414679Y-72899400D01*
X60827156Y-72817353D01*
X61215702Y-72656412D01*
X61269401Y-72620531D01*
X61269401Y-73807220D01*
X60881616Y-74195005D01*
X60827156Y-74172447D01*
X60414679Y-74090400D01*
X59994121Y-74090400D01*
X59581644Y-74172447D01*
X59193098Y-74333388D01*
X58843417Y-74567037D01*
X58546037Y-74864417D01*
X58354400Y-75151222D01*
X58162763Y-74864417D01*
X57865383Y-74567037D01*
X57515702Y-74333388D01*
X57127156Y-74172447D01*
X56714679Y-74090400D01*
X56294121Y-74090400D01*
X55881644Y-74172447D01*
X55493098Y-74333388D01*
X55143417Y-74567037D01*
X54846037Y-74864417D01*
X54839401Y-74874348D01*
X54839401Y-72757870D01*
X54843682Y-72714401D01*
X54839401Y-72670932D01*
X54839401Y-72670924D01*
X54826596Y-72540911D01*
X54775990Y-72374088D01*
X54693812Y-72220342D01*
X54616295Y-72125888D01*
X54610933Y-72119354D01*
X54610931Y-72119352D01*
X54583218Y-72085584D01*
X54549450Y-72057871D01*
X54005037Y-71513458D01*
X54057353Y-71387156D01*
X54139400Y-70974679D01*
X54139400Y-70554121D01*
X54057353Y-70141644D01*
X53896412Y-69753098D01*
X53662763Y-69403417D01*
X53365383Y-69106037D01*
X53015702Y-68872388D01*
X52627156Y-68711447D01*
X52214679Y-68629400D01*
X51794121Y-68629400D01*
X51381644Y-68711447D01*
X50993098Y-68872388D01*
X50643417Y-69106037D01*
X50346037Y-69403417D01*
X50154400Y-69690222D01*
X49962763Y-69403417D01*
X49665383Y-69106037D01*
X49315702Y-68872388D01*
X48927156Y-68711447D01*
X48514679Y-68629400D01*
X48094121Y-68629400D01*
X47681644Y-68711447D01*
X47293098Y-68872388D01*
X47192800Y-68939405D01*
X47192800Y-68318981D01*
X47190016Y-68290709D01*
X47190059Y-68284488D01*
X47189159Y-68275317D01*
X47168432Y-68078115D01*
X47156410Y-68019551D01*
X47145196Y-67960762D01*
X47142532Y-67951940D01*
X47083897Y-67762518D01*
X47060729Y-67707405D01*
X47038307Y-67651907D01*
X47033980Y-67643771D01*
X46939670Y-67469347D01*
X46906203Y-67419731D01*
X46873465Y-67369701D01*
X46867641Y-67362560D01*
X46741247Y-67209776D01*
X46698812Y-67167637D01*
X46656949Y-67124887D01*
X46649848Y-67119013D01*
X46496186Y-66993689D01*
X46446344Y-66960574D01*
X46397004Y-66926790D01*
X46388898Y-66922407D01*
X46213820Y-66829316D01*
X46158525Y-66806525D01*
X46103530Y-66782954D01*
X46094727Y-66780229D01*
X45904900Y-66722918D01*
X45846220Y-66711300D01*
X45787713Y-66698863D01*
X45778548Y-66697900D01*
X45581206Y-66678550D01*
X45581202Y-66678550D01*
X45549219Y-66675400D01*
X38183081Y-66675400D01*
X38082269Y-66665515D01*
X38016342Y-66645611D01*
X37955545Y-66613285D01*
X37902182Y-66569762D01*
X37858285Y-66516700D01*
X37825534Y-66456127D01*
X37805172Y-66390347D01*
X37794800Y-66291669D01*
X37794800Y-65919140D01*
X46978200Y-65919140D01*
X46978200Y-66211660D01*
X47035268Y-66498558D01*
X47147210Y-66768811D01*
X47309725Y-67012032D01*
X47516568Y-67218875D01*
X47759789Y-67381390D01*
X48030042Y-67493332D01*
X48316940Y-67550400D01*
X48609460Y-67550400D01*
X48896358Y-67493332D01*
X49166611Y-67381390D01*
X49409832Y-67218875D01*
X49541687Y-67087020D01*
X49563698Y-67159580D01*
X49622663Y-67269894D01*
X49702015Y-67366585D01*
X49798706Y-67445937D01*
X49909020Y-67504902D01*
X50028718Y-67541212D01*
X50153200Y-67553472D01*
X50717450Y-67550400D01*
X50876200Y-67391650D01*
X50876200Y-66192400D01*
X51130200Y-66192400D01*
X51130200Y-67391650D01*
X51288950Y-67550400D01*
X51853200Y-67553472D01*
X51977682Y-67541212D01*
X52097380Y-67504902D01*
X52207694Y-67445937D01*
X52304385Y-67366585D01*
X52383737Y-67269894D01*
X52442702Y-67159580D01*
X52479012Y-67039882D01*
X52491272Y-66915400D01*
X52488200Y-66351150D01*
X52329450Y-66192400D01*
X51130200Y-66192400D01*
X50876200Y-66192400D01*
X50856200Y-66192400D01*
X50856200Y-65938400D01*
X50876200Y-65938400D01*
X50876200Y-64739150D01*
X51130200Y-64739150D01*
X51130200Y-65938400D01*
X52329450Y-65938400D01*
X52488200Y-65779650D01*
X52491272Y-65215400D01*
X52479012Y-65090918D01*
X52442702Y-64971220D01*
X52383737Y-64860906D01*
X52304385Y-64764215D01*
X52207694Y-64684863D01*
X52097380Y-64625898D01*
X51977682Y-64589588D01*
X51853200Y-64577328D01*
X51288950Y-64580400D01*
X51130200Y-64739150D01*
X50876200Y-64739150D01*
X50717450Y-64580400D01*
X50153200Y-64577328D01*
X50028718Y-64589588D01*
X49909020Y-64625898D01*
X49798706Y-64684863D01*
X49702015Y-64764215D01*
X49622663Y-64860906D01*
X49563698Y-64971220D01*
X49541687Y-65043780D01*
X49409832Y-64911925D01*
X49166611Y-64749410D01*
X48896358Y-64637468D01*
X48609460Y-64580400D01*
X48316940Y-64580400D01*
X48030042Y-64637468D01*
X47759789Y-64749410D01*
X47516568Y-64911925D01*
X47309725Y-65118768D01*
X47147210Y-65361989D01*
X47035268Y-65632242D01*
X46978200Y-65919140D01*
X37794800Y-65919140D01*
X37794800Y-63347297D01*
X39435608Y-63347297D01*
X39513243Y-63596372D01*
X39777283Y-63722271D01*
X40060811Y-63794239D01*
X40352931Y-63809511D01*
X40642419Y-63767499D01*
X40918147Y-63669819D01*
X41055557Y-63596372D01*
X41133192Y-63347297D01*
X40284400Y-62498505D01*
X39435608Y-63347297D01*
X37794800Y-63347297D01*
X37794800Y-62387431D01*
X38793789Y-62387431D01*
X38835801Y-62676919D01*
X38933481Y-62952647D01*
X39006928Y-63090057D01*
X39256003Y-63167692D01*
X40104795Y-62318900D01*
X39256003Y-61470108D01*
X39006928Y-61547743D01*
X38881029Y-61811783D01*
X38809061Y-62095311D01*
X38793789Y-62387431D01*
X37794800Y-62387431D01*
X37794800Y-59608045D01*
X37803200Y-59608872D01*
X38803200Y-59608872D01*
X38804146Y-59608779D01*
X38799400Y-59632640D01*
X38799400Y-59925160D01*
X38856468Y-60212058D01*
X38968410Y-60482311D01*
X39130925Y-60725532D01*
X39337768Y-60932375D01*
X39511129Y-61048211D01*
X39435608Y-61290503D01*
X40284400Y-62139295D01*
X40298543Y-62125153D01*
X40478148Y-62304758D01*
X40464005Y-62318900D01*
X41312797Y-63167692D01*
X41555089Y-63092171D01*
X41670925Y-63265532D01*
X41877768Y-63472375D01*
X42120989Y-63634890D01*
X42391242Y-63746832D01*
X42678140Y-63803900D01*
X42970660Y-63803900D01*
X43257558Y-63746832D01*
X43527811Y-63634890D01*
X43771032Y-63472375D01*
X43977875Y-63265532D01*
X44140390Y-63022311D01*
X44252332Y-62752058D01*
X44309400Y-62465160D01*
X44309400Y-62172640D01*
X44252332Y-61885742D01*
X44140390Y-61615489D01*
X43977875Y-61372268D01*
X43975178Y-61369571D01*
X44766397Y-60578352D01*
X44794437Y-60555340D01*
X44817450Y-60527299D01*
X44817453Y-60527296D01*
X44868824Y-60464700D01*
X44886287Y-60443422D01*
X44954537Y-60315735D01*
X44991495Y-60193901D01*
X44996565Y-60177188D01*
X45001765Y-60124387D01*
X45007200Y-60069207D01*
X45007200Y-60069200D01*
X45010755Y-60033103D01*
X45007200Y-59997006D01*
X45007200Y-58368846D01*
X45352118Y-58023929D01*
X48141202Y-58023929D01*
X48141056Y-58024147D01*
G37*
%TD.AperFunction*%
D25*
X47491324Y-49445319D02*
X50012600Y-51966595D01*
X52533876Y-49445319D01*
X52208097Y-49002430D01*
X54221121Y-49002430D01*
X53328408Y-49895144D01*
X53300363Y-49918160D01*
X53222118Y-50013502D01*
X53203148Y-49985112D01*
X52713481Y-49624924D01*
X50192205Y-52146200D01*
X50206348Y-52160343D01*
X50026743Y-52339948D01*
X50012600Y-52325805D01*
X47491324Y-54847081D01*
X47851512Y-55336748D01*
X47883118Y-55353899D01*
X44160443Y-55353899D01*
X44252332Y-55132058D01*
X44309400Y-54845160D01*
X44309400Y-54552640D01*
X44252332Y-54265742D01*
X44140390Y-53995489D01*
X43977875Y-53752268D01*
X43975178Y-53749571D01*
X44468598Y-53256151D01*
X44496638Y-53233139D01*
X44519651Y-53205098D01*
X44519654Y-53205095D01*
X44588488Y-53121221D01*
X44656738Y-52993535D01*
X44698766Y-52854986D01*
X44712957Y-52710901D01*
X44709401Y-52674796D01*
X44709401Y-52121895D01*
X46159120Y-52121895D01*
X46228422Y-52874138D01*
X46443148Y-53598408D01*
X46795045Y-54266870D01*
X46822052Y-54307288D01*
X47311719Y-54667476D01*
X49832995Y-52146200D01*
X47311719Y-49624924D01*
X46822052Y-49985112D01*
X46461751Y-50649082D01*
X46237906Y-51370585D01*
X46159120Y-52121895D01*
X44709401Y-52121895D01*
X44709401Y-49904741D01*
X45611713Y-49002430D01*
X47817103Y-49002430D01*
X47491324Y-49445319D01*
%TA.AperFunction,Conductor*%
D26*
G36*
X47491324Y-49445319D02*
G01*
X50012600Y-51966595D01*
X52533876Y-49445319D01*
X52208097Y-49002430D01*
X54221121Y-49002430D01*
X53328408Y-49895144D01*
X53300363Y-49918160D01*
X53222118Y-50013502D01*
X53203148Y-49985112D01*
X52713481Y-49624924D01*
X50192205Y-52146200D01*
X50206348Y-52160343D01*
X50026743Y-52339948D01*
X50012600Y-52325805D01*
X47491324Y-54847081D01*
X47851512Y-55336748D01*
X47883118Y-55353899D01*
X44160443Y-55353899D01*
X44252332Y-55132058D01*
X44309400Y-54845160D01*
X44309400Y-54552640D01*
X44252332Y-54265742D01*
X44140390Y-53995489D01*
X43977875Y-53752268D01*
X43975178Y-53749571D01*
X44468598Y-53256151D01*
X44496638Y-53233139D01*
X44519651Y-53205098D01*
X44519654Y-53205095D01*
X44588488Y-53121221D01*
X44656738Y-52993535D01*
X44698766Y-52854986D01*
X44712957Y-52710901D01*
X44709401Y-52674796D01*
X44709401Y-52121895D01*
X46159120Y-52121895D01*
X46228422Y-52874138D01*
X46443148Y-53598408D01*
X46795045Y-54266870D01*
X46822052Y-54307288D01*
X47311719Y-54667476D01*
X49832995Y-52146200D01*
X47311719Y-49624924D01*
X46822052Y-49985112D01*
X46461751Y-50649082D01*
X46237906Y-51370585D01*
X46159120Y-52121895D01*
X44709401Y-52121895D01*
X44709401Y-49904741D01*
X45611713Y-49002430D01*
X47817103Y-49002430D01*
X47491324Y-49445319D01*
G37*
%TD.AperFunction*%
%TD*%
M02*
