%TF.GenerationSoftware,KiCad,Pcbnew,(5.1.10-1-10_14)*%
%TF.CreationDate,2022-01-16T00:04:22-08:00*%
%TF.ProjectId,FanExpander-kicad,46616e45-7870-4616-9e64-65722d6b6963,rev?*%
%TF.SameCoordinates,Original*%
%TF.FileFunction,Paste,Bot*%
%TF.FilePolarity,Positive*%
%FSLAX46Y46*%
G04 Gerber Fmt 4.6, Leading zero omitted, Abs format (unit mm)*
G04 Created by KiCad (PCBNEW (5.1.10-1-10_14)) date 2022-01-16 00:04:22*
%MOMM*%
%LPD*%
G01*
G04 APERTURE LIST*
%ADD10R,0.500000X1.500000*%
%ADD11C,0.100000*%
%ADD12R,1.500000X0.500000*%
%ADD13R,0.900000X0.500000*%
%ADD14R,0.500000X0.900000*%
%ADD15R,0.900000X0.800000*%
G04 APERTURE END LIST*
D10*
%TO.C,JP8*%
X48168800Y-63677800D03*
D11*
G36*
X48018800Y-64427800D02*
G01*
X47518800Y-64427800D01*
X47518800Y-64427198D01*
X47494266Y-64427198D01*
X47445435Y-64422388D01*
X47397310Y-64412816D01*
X47350355Y-64398572D01*
X47305022Y-64379795D01*
X47261749Y-64356664D01*
X47220950Y-64329404D01*
X47183021Y-64298276D01*
X47148324Y-64263579D01*
X47117196Y-64225650D01*
X47089936Y-64184851D01*
X47066805Y-64141578D01*
X47048028Y-64096245D01*
X47033784Y-64049290D01*
X47024212Y-64001165D01*
X47019402Y-63952334D01*
X47019402Y-63927800D01*
X47018800Y-63927800D01*
X47018800Y-63427800D01*
X47019402Y-63427800D01*
X47019402Y-63403266D01*
X47024212Y-63354435D01*
X47033784Y-63306310D01*
X47048028Y-63259355D01*
X47066805Y-63214022D01*
X47089936Y-63170749D01*
X47117196Y-63129950D01*
X47148324Y-63092021D01*
X47183021Y-63057324D01*
X47220950Y-63026196D01*
X47261749Y-62998936D01*
X47305022Y-62975805D01*
X47350355Y-62957028D01*
X47397310Y-62942784D01*
X47445435Y-62933212D01*
X47494266Y-62928402D01*
X47518800Y-62928402D01*
X47518800Y-62927800D01*
X48018800Y-62927800D01*
X48018800Y-64427800D01*
G37*
G36*
X48818800Y-62928402D02*
G01*
X48843334Y-62928402D01*
X48892165Y-62933212D01*
X48940290Y-62942784D01*
X48987245Y-62957028D01*
X49032578Y-62975805D01*
X49075851Y-62998936D01*
X49116650Y-63026196D01*
X49154579Y-63057324D01*
X49189276Y-63092021D01*
X49220404Y-63129950D01*
X49247664Y-63170749D01*
X49270795Y-63214022D01*
X49289572Y-63259355D01*
X49303816Y-63306310D01*
X49313388Y-63354435D01*
X49318198Y-63403266D01*
X49318198Y-63427800D01*
X49318800Y-63427800D01*
X49318800Y-63927800D01*
X49318198Y-63927800D01*
X49318198Y-63952334D01*
X49313388Y-64001165D01*
X49303816Y-64049290D01*
X49289572Y-64096245D01*
X49270795Y-64141578D01*
X49247664Y-64184851D01*
X49220404Y-64225650D01*
X49189276Y-64263579D01*
X49154579Y-64298276D01*
X49116650Y-64329404D01*
X49075851Y-64356664D01*
X49032578Y-64379795D01*
X48987245Y-64398572D01*
X48940290Y-64412816D01*
X48892165Y-64422388D01*
X48843334Y-64427198D01*
X48818800Y-64427198D01*
X48818800Y-64427800D01*
X48318800Y-64427800D01*
X48318800Y-62927800D01*
X48818800Y-62927800D01*
X48818800Y-62928402D01*
G37*
%TD*%
D12*
%TO.C,JP9*%
X58064400Y-58252600D03*
D11*
G36*
X57314400Y-58102600D02*
G01*
X57314400Y-57602600D01*
X57315002Y-57602600D01*
X57315002Y-57578066D01*
X57319812Y-57529235D01*
X57329384Y-57481110D01*
X57343628Y-57434155D01*
X57362405Y-57388822D01*
X57385536Y-57345549D01*
X57412796Y-57304750D01*
X57443924Y-57266821D01*
X57478621Y-57232124D01*
X57516550Y-57200996D01*
X57557349Y-57173736D01*
X57600622Y-57150605D01*
X57645955Y-57131828D01*
X57692910Y-57117584D01*
X57741035Y-57108012D01*
X57789866Y-57103202D01*
X57814400Y-57103202D01*
X57814400Y-57102600D01*
X58314400Y-57102600D01*
X58314400Y-57103202D01*
X58338934Y-57103202D01*
X58387765Y-57108012D01*
X58435890Y-57117584D01*
X58482845Y-57131828D01*
X58528178Y-57150605D01*
X58571451Y-57173736D01*
X58612250Y-57200996D01*
X58650179Y-57232124D01*
X58684876Y-57266821D01*
X58716004Y-57304750D01*
X58743264Y-57345549D01*
X58766395Y-57388822D01*
X58785172Y-57434155D01*
X58799416Y-57481110D01*
X58808988Y-57529235D01*
X58813798Y-57578066D01*
X58813798Y-57602600D01*
X58814400Y-57602600D01*
X58814400Y-58102600D01*
X57314400Y-58102600D01*
G37*
G36*
X58813798Y-58902600D02*
G01*
X58813798Y-58927134D01*
X58808988Y-58975965D01*
X58799416Y-59024090D01*
X58785172Y-59071045D01*
X58766395Y-59116378D01*
X58743264Y-59159651D01*
X58716004Y-59200450D01*
X58684876Y-59238379D01*
X58650179Y-59273076D01*
X58612250Y-59304204D01*
X58571451Y-59331464D01*
X58528178Y-59354595D01*
X58482845Y-59373372D01*
X58435890Y-59387616D01*
X58387765Y-59397188D01*
X58338934Y-59401998D01*
X58314400Y-59401998D01*
X58314400Y-59402600D01*
X57814400Y-59402600D01*
X57814400Y-59401998D01*
X57789866Y-59401998D01*
X57741035Y-59397188D01*
X57692910Y-59387616D01*
X57645955Y-59373372D01*
X57600622Y-59354595D01*
X57557349Y-59331464D01*
X57516550Y-59304204D01*
X57478621Y-59273076D01*
X57443924Y-59238379D01*
X57412796Y-59200450D01*
X57385536Y-59159651D01*
X57362405Y-59116378D01*
X57343628Y-59071045D01*
X57329384Y-59024090D01*
X57319812Y-58975965D01*
X57315002Y-58927134D01*
X57315002Y-58902600D01*
X57314400Y-58902600D01*
X57314400Y-58402600D01*
X58814400Y-58402600D01*
X58814400Y-58902600D01*
X58813798Y-58902600D01*
G37*
%TD*%
D12*
%TO.C,JP11*%
X52095400Y-61899800D03*
D11*
G36*
X51345400Y-61749800D02*
G01*
X51345400Y-61249800D01*
X51346002Y-61249800D01*
X51346002Y-61225266D01*
X51350812Y-61176435D01*
X51360384Y-61128310D01*
X51374628Y-61081355D01*
X51393405Y-61036022D01*
X51416536Y-60992749D01*
X51443796Y-60951950D01*
X51474924Y-60914021D01*
X51509621Y-60879324D01*
X51547550Y-60848196D01*
X51588349Y-60820936D01*
X51631622Y-60797805D01*
X51676955Y-60779028D01*
X51723910Y-60764784D01*
X51772035Y-60755212D01*
X51820866Y-60750402D01*
X51845400Y-60750402D01*
X51845400Y-60749800D01*
X52345400Y-60749800D01*
X52345400Y-60750402D01*
X52369934Y-60750402D01*
X52418765Y-60755212D01*
X52466890Y-60764784D01*
X52513845Y-60779028D01*
X52559178Y-60797805D01*
X52602451Y-60820936D01*
X52643250Y-60848196D01*
X52681179Y-60879324D01*
X52715876Y-60914021D01*
X52747004Y-60951950D01*
X52774264Y-60992749D01*
X52797395Y-61036022D01*
X52816172Y-61081355D01*
X52830416Y-61128310D01*
X52839988Y-61176435D01*
X52844798Y-61225266D01*
X52844798Y-61249800D01*
X52845400Y-61249800D01*
X52845400Y-61749800D01*
X51345400Y-61749800D01*
G37*
G36*
X52844798Y-62549800D02*
G01*
X52844798Y-62574334D01*
X52839988Y-62623165D01*
X52830416Y-62671290D01*
X52816172Y-62718245D01*
X52797395Y-62763578D01*
X52774264Y-62806851D01*
X52747004Y-62847650D01*
X52715876Y-62885579D01*
X52681179Y-62920276D01*
X52643250Y-62951404D01*
X52602451Y-62978664D01*
X52559178Y-63001795D01*
X52513845Y-63020572D01*
X52466890Y-63034816D01*
X52418765Y-63044388D01*
X52369934Y-63049198D01*
X52345400Y-63049198D01*
X52345400Y-63049800D01*
X51845400Y-63049800D01*
X51845400Y-63049198D01*
X51820866Y-63049198D01*
X51772035Y-63044388D01*
X51723910Y-63034816D01*
X51676955Y-63020572D01*
X51631622Y-63001795D01*
X51588349Y-62978664D01*
X51547550Y-62951404D01*
X51509621Y-62920276D01*
X51474924Y-62885579D01*
X51443796Y-62847650D01*
X51416536Y-62806851D01*
X51393405Y-62763578D01*
X51374628Y-62718245D01*
X51360384Y-62671290D01*
X51350812Y-62623165D01*
X51346002Y-62574334D01*
X51346002Y-62549800D01*
X51345400Y-62549800D01*
X51345400Y-62049800D01*
X52845400Y-62049800D01*
X52845400Y-62549800D01*
X52844798Y-62549800D01*
G37*
%TD*%
%TO.C,D8*%
G36*
G01*
X80890800Y-62230800D02*
X80890800Y-63600800D01*
G75*
G02*
X80700800Y-63790800I-190000J0D01*
G01*
X80130800Y-63790800D01*
G75*
G02*
X79940800Y-63600800I0J190000D01*
G01*
X79940800Y-62230800D01*
G75*
G02*
X80130800Y-62040800I190000J0D01*
G01*
X80700800Y-62040800D01*
G75*
G02*
X80890800Y-62230800I0J-190000D01*
G01*
G37*
G36*
G01*
X83990800Y-62230800D02*
X83990800Y-63600800D01*
G75*
G02*
X83800800Y-63790800I-190000J0D01*
G01*
X83230800Y-63790800D01*
G75*
G02*
X83040800Y-63600800I0J190000D01*
G01*
X83040800Y-62230800D01*
G75*
G02*
X83230800Y-62040800I190000J0D01*
G01*
X83800800Y-62040800D01*
G75*
G02*
X83990800Y-62230800I0J-190000D01*
G01*
G37*
%TD*%
%TO.C,D7*%
G36*
G01*
X72178600Y-51791400D02*
X72178600Y-53161400D01*
G75*
G02*
X71988600Y-53351400I-190000J0D01*
G01*
X71418600Y-53351400D01*
G75*
G02*
X71228600Y-53161400I0J190000D01*
G01*
X71228600Y-51791400D01*
G75*
G02*
X71418600Y-51601400I190000J0D01*
G01*
X71988600Y-51601400D01*
G75*
G02*
X72178600Y-51791400I0J-190000D01*
G01*
G37*
G36*
G01*
X75278600Y-51791400D02*
X75278600Y-53161400D01*
G75*
G02*
X75088600Y-53351400I-190000J0D01*
G01*
X74518600Y-53351400D01*
G75*
G02*
X74328600Y-53161400I0J190000D01*
G01*
X74328600Y-51791400D01*
G75*
G02*
X74518600Y-51601400I190000J0D01*
G01*
X75088600Y-51601400D01*
G75*
G02*
X75278600Y-51791400I0J-190000D01*
G01*
G37*
%TD*%
%TO.C,D6*%
G36*
G01*
X72204000Y-62230800D02*
X72204000Y-63600800D01*
G75*
G02*
X72014000Y-63790800I-190000J0D01*
G01*
X71444000Y-63790800D01*
G75*
G02*
X71254000Y-63600800I0J190000D01*
G01*
X71254000Y-62230800D01*
G75*
G02*
X71444000Y-62040800I190000J0D01*
G01*
X72014000Y-62040800D01*
G75*
G02*
X72204000Y-62230800I0J-190000D01*
G01*
G37*
G36*
G01*
X75304000Y-62230800D02*
X75304000Y-63600800D01*
G75*
G02*
X75114000Y-63790800I-190000J0D01*
G01*
X74544000Y-63790800D01*
G75*
G02*
X74354000Y-63600800I0J190000D01*
G01*
X74354000Y-62230800D01*
G75*
G02*
X74544000Y-62040800I190000J0D01*
G01*
X75114000Y-62040800D01*
G75*
G02*
X75304000Y-62230800I0J-190000D01*
G01*
G37*
%TD*%
%TO.C,D5*%
G36*
G01*
X63441600Y-51791400D02*
X63441600Y-53161400D01*
G75*
G02*
X63251600Y-53351400I-190000J0D01*
G01*
X62681600Y-53351400D01*
G75*
G02*
X62491600Y-53161400I0J190000D01*
G01*
X62491600Y-51791400D01*
G75*
G02*
X62681600Y-51601400I190000J0D01*
G01*
X63251600Y-51601400D01*
G75*
G02*
X63441600Y-51791400I0J-190000D01*
G01*
G37*
G36*
G01*
X66541600Y-51791400D02*
X66541600Y-53161400D01*
G75*
G02*
X66351600Y-53351400I-190000J0D01*
G01*
X65781600Y-53351400D01*
G75*
G02*
X65591600Y-53161400I0J190000D01*
G01*
X65591600Y-51791400D01*
G75*
G02*
X65781600Y-51601400I190000J0D01*
G01*
X66351600Y-51601400D01*
G75*
G02*
X66541600Y-51791400I0J-190000D01*
G01*
G37*
%TD*%
%TO.C,D4*%
G36*
G01*
X63466400Y-62230800D02*
X63466400Y-63600800D01*
G75*
G02*
X63276400Y-63790800I-190000J0D01*
G01*
X62706400Y-63790800D01*
G75*
G02*
X62516400Y-63600800I0J190000D01*
G01*
X62516400Y-62230800D01*
G75*
G02*
X62706400Y-62040800I190000J0D01*
G01*
X63276400Y-62040800D01*
G75*
G02*
X63466400Y-62230800I0J-190000D01*
G01*
G37*
G36*
G01*
X66566400Y-62230800D02*
X66566400Y-63600800D01*
G75*
G02*
X66376400Y-63790800I-190000J0D01*
G01*
X65806400Y-63790800D01*
G75*
G02*
X65616400Y-63600800I0J190000D01*
G01*
X65616400Y-62230800D01*
G75*
G02*
X65806400Y-62040800I190000J0D01*
G01*
X66376400Y-62040800D01*
G75*
G02*
X66566400Y-62230800I0J-190000D01*
G01*
G37*
%TD*%
%TO.C,D3*%
G36*
G01*
X54754200Y-62230800D02*
X54754200Y-63600800D01*
G75*
G02*
X54564200Y-63790800I-190000J0D01*
G01*
X53994200Y-63790800D01*
G75*
G02*
X53804200Y-63600800I0J190000D01*
G01*
X53804200Y-62230800D01*
G75*
G02*
X53994200Y-62040800I190000J0D01*
G01*
X54564200Y-62040800D01*
G75*
G02*
X54754200Y-62230800I0J-190000D01*
G01*
G37*
G36*
G01*
X57854200Y-62230800D02*
X57854200Y-63600800D01*
G75*
G02*
X57664200Y-63790800I-190000J0D01*
G01*
X57094200Y-63790800D01*
G75*
G02*
X56904200Y-63600800I0J190000D01*
G01*
X56904200Y-62230800D01*
G75*
G02*
X57094200Y-62040800I190000J0D01*
G01*
X57664200Y-62040800D01*
G75*
G02*
X57854200Y-62230800I0J-190000D01*
G01*
G37*
%TD*%
%TO.C,D2*%
G36*
G01*
X80903500Y-51791400D02*
X80903500Y-53161400D01*
G75*
G02*
X80713500Y-53351400I-190000J0D01*
G01*
X80143500Y-53351400D01*
G75*
G02*
X79953500Y-53161400I0J190000D01*
G01*
X79953500Y-51791400D01*
G75*
G02*
X80143500Y-51601400I190000J0D01*
G01*
X80713500Y-51601400D01*
G75*
G02*
X80903500Y-51791400I0J-190000D01*
G01*
G37*
G36*
G01*
X84003500Y-51791400D02*
X84003500Y-53161400D01*
G75*
G02*
X83813500Y-53351400I-190000J0D01*
G01*
X83243500Y-53351400D01*
G75*
G02*
X83053500Y-53161400I0J190000D01*
G01*
X83053500Y-51791400D01*
G75*
G02*
X83243500Y-51601400I190000J0D01*
G01*
X83813500Y-51601400D01*
G75*
G02*
X84003500Y-51791400I0J-190000D01*
G01*
G37*
%TD*%
%TO.C,D1*%
G36*
G01*
X54754200Y-51842200D02*
X54754200Y-53212200D01*
G75*
G02*
X54564200Y-53402200I-190000J0D01*
G01*
X53994200Y-53402200D01*
G75*
G02*
X53804200Y-53212200I0J190000D01*
G01*
X53804200Y-51842200D01*
G75*
G02*
X53994200Y-51652200I190000J0D01*
G01*
X54564200Y-51652200D01*
G75*
G02*
X54754200Y-51842200I0J-190000D01*
G01*
G37*
G36*
G01*
X57854200Y-51842200D02*
X57854200Y-53212200D01*
G75*
G02*
X57664200Y-53402200I-190000J0D01*
G01*
X57094200Y-53402200D01*
G75*
G02*
X56904200Y-53212200I0J190000D01*
G01*
X56904200Y-51842200D01*
G75*
G02*
X57094200Y-51652200I190000J0D01*
G01*
X57664200Y-51652200D01*
G75*
G02*
X57854200Y-51842200I0J-190000D01*
G01*
G37*
%TD*%
D13*
%TO.C,R22*%
X54660800Y-58101800D03*
X54660800Y-59601800D03*
%TD*%
D14*
%TO.C,R19*%
X78015400Y-50139600D03*
X79515400Y-50139600D03*
%TD*%
D13*
%TO.C,R17*%
X88036400Y-57797000D03*
X88036400Y-59297000D03*
%TD*%
D14*
%TO.C,R16*%
X78028800Y-48666400D03*
X79528800Y-48666400D03*
%TD*%
D13*
%TO.C,R14*%
X80822800Y-59601800D03*
X80822800Y-58101800D03*
%TD*%
%TO.C,R13*%
X72085200Y-49187800D03*
X72085200Y-47687800D03*
%TD*%
D14*
%TO.C,R12*%
X78066200Y-60579000D03*
X79566200Y-60579000D03*
%TD*%
%TO.C,R11*%
X69303200Y-50165000D03*
X70803200Y-50165000D03*
%TD*%
%TO.C,R10*%
X70828600Y-60579000D03*
X69328600Y-60579000D03*
%TD*%
%TO.C,R9*%
X62116400Y-50139600D03*
X60616400Y-50139600D03*
%TD*%
%TO.C,R8*%
X78066200Y-59131200D03*
X79566200Y-59131200D03*
%TD*%
%TO.C,R7*%
X69303200Y-48691800D03*
X70803200Y-48691800D03*
%TD*%
%TO.C,R6*%
X69328600Y-59105800D03*
X70828600Y-59105800D03*
%TD*%
%TO.C,R5*%
X60616400Y-48666400D03*
X62116400Y-48666400D03*
%TD*%
D13*
%TO.C,R4*%
X72085200Y-59627200D03*
X72085200Y-58127200D03*
%TD*%
%TO.C,R3*%
X63373000Y-49213200D03*
X63373000Y-47713200D03*
%TD*%
%TO.C,R2*%
X63373000Y-59576400D03*
X63373000Y-58076400D03*
%TD*%
%TO.C,R1*%
X54686200Y-49199800D03*
X54686200Y-47699800D03*
%TD*%
D14*
%TO.C,R21*%
X88278400Y-50114200D03*
X86778400Y-50114200D03*
%TD*%
%TO.C,R20*%
X88253000Y-60553600D03*
X86753000Y-60553600D03*
%TD*%
%TO.C,R18*%
X86778400Y-48653000D03*
X88278400Y-48653000D03*
%TD*%
D13*
%TO.C,R15*%
X80797400Y-49187800D03*
X80797400Y-47687800D03*
%TD*%
D15*
%TO.C,Q7*%
X87398100Y-51678800D03*
X87398100Y-53578800D03*
X85398100Y-52628800D03*
%TD*%
%TO.C,Q1*%
X61248800Y-51704200D03*
X61248800Y-53604200D03*
X59248800Y-52654200D03*
%TD*%
%TO.C,Q6*%
X87398100Y-62130900D03*
X87398100Y-64030900D03*
X85398100Y-63080900D03*
%TD*%
%TO.C,Q5*%
X78673200Y-51704200D03*
X78673200Y-53604200D03*
X76673200Y-52654200D03*
%TD*%
%TO.C,Q4*%
X78698600Y-62130900D03*
X78698600Y-64030900D03*
X76698600Y-63080900D03*
%TD*%
%TO.C,Q3*%
X69948300Y-51704200D03*
X69948300Y-53604200D03*
X67948300Y-52654200D03*
%TD*%
%TO.C,Q2*%
X69948300Y-62130900D03*
X69948300Y-64030900D03*
X67948300Y-63080900D03*
%TD*%
M02*
