%TF.GenerationSoftware,KiCad,Pcbnew,(5.1.10-1-10_14)*%
%TF.CreationDate,2022-01-16T00:04:22-08:00*%
%TF.ProjectId,FanExpander-kicad,46616e45-7870-4616-9e64-65722d6b6963,rev?*%
%TF.SameCoordinates,Original*%
%TF.FileFunction,Legend,Bot*%
%TF.FilePolarity,Positive*%
%FSLAX46Y46*%
G04 Gerber Fmt 4.6, Leading zero omitted, Abs format (unit mm)*
G04 Created by KiCad (PCBNEW (5.1.10-1-10_14)) date 2022-01-16 00:04:22*
%MOMM*%
%LPD*%
G01*
G04 APERTURE LIST*
%ADD10C,0.100000*%
%ADD11C,0.150000*%
%ADD12C,0.120000*%
G04 APERTURE END LIST*
D10*
X37814257Y-48050876D02*
X37814257Y-48317542D01*
X38233304Y-48431828D02*
X38233304Y-48050876D01*
X37433304Y-48050876D01*
X37433304Y-48431828D01*
X37433304Y-48698495D02*
X38233304Y-49231828D01*
X37433304Y-49231828D02*
X38233304Y-48698495D01*
X38233304Y-49536590D02*
X37433304Y-49536590D01*
X37433304Y-49841352D01*
X37471400Y-49917542D01*
X37509495Y-49955638D01*
X37585685Y-49993733D01*
X37699971Y-49993733D01*
X37776161Y-49955638D01*
X37814257Y-49917542D01*
X37852352Y-49841352D01*
X37852352Y-49536590D01*
X38157114Y-51403257D02*
X38195209Y-51365161D01*
X38233304Y-51250876D01*
X38233304Y-51174685D01*
X38195209Y-51060400D01*
X38119019Y-50984209D01*
X38042828Y-50946114D01*
X37890447Y-50908019D01*
X37776161Y-50908019D01*
X37623780Y-50946114D01*
X37547590Y-50984209D01*
X37471400Y-51060400D01*
X37433304Y-51174685D01*
X37433304Y-51250876D01*
X37471400Y-51365161D01*
X37509495Y-51403257D01*
X38233304Y-51746114D02*
X37433304Y-51746114D01*
X38233304Y-52088971D02*
X37814257Y-52088971D01*
X37738066Y-52050876D01*
X37699971Y-51974685D01*
X37699971Y-51860400D01*
X37738066Y-51784209D01*
X37776161Y-51746114D01*
X38233304Y-52584209D02*
X38195209Y-52508019D01*
X38157114Y-52469923D01*
X38080923Y-52431828D01*
X37852352Y-52431828D01*
X37776161Y-52469923D01*
X37738066Y-52508019D01*
X37699971Y-52584209D01*
X37699971Y-52698495D01*
X37738066Y-52774685D01*
X37776161Y-52812780D01*
X37852352Y-52850876D01*
X38080923Y-52850876D01*
X38157114Y-52812780D01*
X38195209Y-52774685D01*
X38233304Y-52698495D01*
X38233304Y-52584209D01*
X38233304Y-53308019D02*
X38195209Y-53231828D01*
X38157114Y-53193733D01*
X38080923Y-53155638D01*
X37852352Y-53155638D01*
X37776161Y-53193733D01*
X37738066Y-53231828D01*
X37699971Y-53308019D01*
X37699971Y-53422304D01*
X37738066Y-53498495D01*
X37776161Y-53536590D01*
X37852352Y-53574685D01*
X38080923Y-53574685D01*
X38157114Y-53536590D01*
X38195209Y-53498495D01*
X38233304Y-53422304D01*
X38233304Y-53308019D01*
X38195209Y-53879447D02*
X38233304Y-53955638D01*
X38233304Y-54108019D01*
X38195209Y-54184209D01*
X38119019Y-54222304D01*
X38080923Y-54222304D01*
X38004733Y-54184209D01*
X37966638Y-54108019D01*
X37966638Y-53993733D01*
X37928542Y-53917542D01*
X37852352Y-53879447D01*
X37814257Y-53879447D01*
X37738066Y-53917542D01*
X37699971Y-53993733D01*
X37699971Y-54108019D01*
X37738066Y-54184209D01*
X38195209Y-54869923D02*
X38233304Y-54793733D01*
X38233304Y-54641352D01*
X38195209Y-54565161D01*
X38119019Y-54527066D01*
X37814257Y-54527066D01*
X37738066Y-54565161D01*
X37699971Y-54641352D01*
X37699971Y-54793733D01*
X37738066Y-54869923D01*
X37814257Y-54908019D01*
X37890447Y-54908019D01*
X37966638Y-54527066D01*
D11*
X44689780Y-53089752D02*
X45404066Y-53089752D01*
X45546923Y-53042133D01*
X45642161Y-52946895D01*
X45689780Y-52804038D01*
X45689780Y-52708800D01*
X45689780Y-54042133D02*
X45689780Y-53565942D01*
X44689780Y-53565942D01*
X45594542Y-54946895D02*
X45642161Y-54899276D01*
X45689780Y-54756419D01*
X45689780Y-54661180D01*
X45642161Y-54518323D01*
X45546923Y-54423085D01*
X45451685Y-54375466D01*
X45261209Y-54327847D01*
X45118352Y-54327847D01*
X44927876Y-54375466D01*
X44832638Y-54423085D01*
X44737400Y-54518323D01*
X44689780Y-54661180D01*
X44689780Y-54756419D01*
X44737400Y-54899276D01*
X44785019Y-54946895D01*
X44689780Y-55661180D02*
X45404066Y-55661180D01*
X45546923Y-55613561D01*
X45642161Y-55518323D01*
X45689780Y-55375466D01*
X45689780Y-55280228D01*
X45689780Y-56613561D02*
X45689780Y-56137371D01*
X44689780Y-56137371D01*
X45594542Y-57518323D02*
X45642161Y-57470704D01*
X45689780Y-57327847D01*
X45689780Y-57232609D01*
X45642161Y-57089752D01*
X45546923Y-56994514D01*
X45451685Y-56946895D01*
X45261209Y-56899276D01*
X45118352Y-56899276D01*
X44927876Y-56946895D01*
X44832638Y-56994514D01*
X44737400Y-57089752D01*
X44689780Y-57232609D01*
X44689780Y-57327847D01*
X44737400Y-57470704D01*
X44785019Y-57518323D01*
X44689780Y-58232609D02*
X45404066Y-58232609D01*
X45546923Y-58184990D01*
X45642161Y-58089752D01*
X45689780Y-57946895D01*
X45689780Y-57851657D01*
X45689780Y-59184990D02*
X45689780Y-58708800D01*
X44689780Y-58708800D01*
X45594542Y-60089752D02*
X45642161Y-60042133D01*
X45689780Y-59899276D01*
X45689780Y-59804038D01*
X45642161Y-59661180D01*
X45546923Y-59565942D01*
X45451685Y-59518323D01*
X45261209Y-59470704D01*
X45118352Y-59470704D01*
X44927876Y-59518323D01*
X44832638Y-59565942D01*
X44737400Y-59661180D01*
X44689780Y-59804038D01*
X44689780Y-59899276D01*
X44737400Y-60042133D01*
X44785019Y-60089752D01*
X44689780Y-60804038D02*
X45404066Y-60804038D01*
X45546923Y-60756419D01*
X45642161Y-60661180D01*
X45689780Y-60518323D01*
X45689780Y-60423085D01*
X45689780Y-61756419D02*
X45689780Y-61280228D01*
X44689780Y-61280228D01*
X45594542Y-62661180D02*
X45642161Y-62613561D01*
X45689780Y-62470704D01*
X45689780Y-62375466D01*
X45642161Y-62232609D01*
X45546923Y-62137371D01*
X45451685Y-62089752D01*
X45261209Y-62042133D01*
X45118352Y-62042133D01*
X44927876Y-62089752D01*
X44832638Y-62137371D01*
X44737400Y-62232609D01*
X44689780Y-62375466D01*
X44689780Y-62470704D01*
X44737400Y-62613561D01*
X44785019Y-62661180D01*
D10*
X74153028Y-70186385D02*
X74153028Y-69436385D01*
X74153028Y-69722100D02*
X74081600Y-69686385D01*
X73938742Y-69686385D01*
X73867314Y-69722100D01*
X73831600Y-69757814D01*
X73795885Y-69829242D01*
X73795885Y-70043528D01*
X73831600Y-70114957D01*
X73867314Y-70150671D01*
X73938742Y-70186385D01*
X74081600Y-70186385D01*
X74153028Y-70150671D01*
X73545885Y-69686385D02*
X73367314Y-70186385D01*
X73188742Y-69686385D02*
X73367314Y-70186385D01*
X73438742Y-70364957D01*
X73474457Y-70400671D01*
X73545885Y-70436385D01*
X72117314Y-70472100D02*
X72153028Y-70436385D01*
X72224457Y-70329242D01*
X72260171Y-70257814D01*
X72295885Y-70150671D01*
X72331600Y-69972100D01*
X72331600Y-69829242D01*
X72295885Y-69650671D01*
X72260171Y-69543528D01*
X72224457Y-69472100D01*
X72153028Y-69364957D01*
X72117314Y-69329242D01*
X71617314Y-69436385D02*
X71617314Y-69972100D01*
X71653028Y-70079242D01*
X71724457Y-70150671D01*
X71831600Y-70186385D01*
X71903028Y-70186385D01*
X71260171Y-70186385D02*
X71260171Y-69436385D01*
X71081600Y-69436385D01*
X70974457Y-69472100D01*
X70903028Y-69543528D01*
X70867314Y-69614957D01*
X70831600Y-69757814D01*
X70831600Y-69864957D01*
X70867314Y-70007814D01*
X70903028Y-70079242D01*
X70974457Y-70150671D01*
X71081600Y-70186385D01*
X71260171Y-70186385D01*
X70224457Y-70150671D02*
X70295885Y-70186385D01*
X70438742Y-70186385D01*
X70510171Y-70150671D01*
X70545885Y-70079242D01*
X70545885Y-69793528D01*
X70510171Y-69722100D01*
X70438742Y-69686385D01*
X70295885Y-69686385D01*
X70224457Y-69722100D01*
X70188742Y-69793528D01*
X70188742Y-69864957D01*
X70545885Y-69936385D01*
X69938742Y-69436385D02*
X69760171Y-70186385D01*
X69617314Y-69650671D01*
X69474457Y-70186385D01*
X69295885Y-69436385D01*
X69081600Y-70472100D02*
X69045885Y-70436385D01*
X68974457Y-70329242D01*
X68938742Y-70257814D01*
X68903028Y-70150671D01*
X68867314Y-69972100D01*
X68867314Y-69829242D01*
X68903028Y-69650671D01*
X68938742Y-69543528D01*
X68974457Y-69472100D01*
X69045885Y-69364957D01*
X69081600Y-69329242D01*
X74153028Y-71411385D02*
X74153028Y-70661385D01*
X73974457Y-70661385D01*
X73867314Y-70697100D01*
X73795885Y-70768528D01*
X73760171Y-70839957D01*
X73724457Y-70982814D01*
X73724457Y-71089957D01*
X73760171Y-71232814D01*
X73795885Y-71304242D01*
X73867314Y-71375671D01*
X73974457Y-71411385D01*
X74153028Y-71411385D01*
X73295885Y-71411385D02*
X73367314Y-71375671D01*
X73403028Y-71339957D01*
X73438742Y-71268528D01*
X73438742Y-71054242D01*
X73403028Y-70982814D01*
X73367314Y-70947100D01*
X73295885Y-70911385D01*
X73188742Y-70911385D01*
X73117314Y-70947100D01*
X73081600Y-70982814D01*
X73045885Y-71054242D01*
X73045885Y-71268528D01*
X73081600Y-71339957D01*
X73117314Y-71375671D01*
X73188742Y-71411385D01*
X73295885Y-71411385D01*
X72831600Y-70911385D02*
X72545885Y-70911385D01*
X72724457Y-70661385D02*
X72724457Y-71304242D01*
X72688742Y-71375671D01*
X72617314Y-71411385D01*
X72545885Y-71411385D01*
X71974457Y-71411385D02*
X71974457Y-70661385D01*
X71974457Y-71375671D02*
X72045885Y-71411385D01*
X72188742Y-71411385D01*
X72260171Y-71375671D01*
X72295885Y-71339957D01*
X72331600Y-71268528D01*
X72331600Y-71054242D01*
X72295885Y-70982814D01*
X72260171Y-70947100D01*
X72188742Y-70911385D01*
X72045885Y-70911385D01*
X71974457Y-70947100D01*
X71295885Y-71411385D02*
X71295885Y-71018528D01*
X71331600Y-70947100D01*
X71403028Y-70911385D01*
X71545885Y-70911385D01*
X71617314Y-70947100D01*
X71295885Y-71375671D02*
X71367314Y-71411385D01*
X71545885Y-71411385D01*
X71617314Y-71375671D01*
X71653028Y-71304242D01*
X71653028Y-71232814D01*
X71617314Y-71161385D01*
X71545885Y-71125671D01*
X71367314Y-71125671D01*
X71295885Y-71089957D01*
X70974457Y-71375671D02*
X70903028Y-71411385D01*
X70760171Y-71411385D01*
X70688742Y-71375671D01*
X70653028Y-71304242D01*
X70653028Y-71268528D01*
X70688742Y-71197100D01*
X70760171Y-71161385D01*
X70867314Y-71161385D01*
X70938742Y-71125671D01*
X70974457Y-71054242D01*
X70974457Y-71018528D01*
X70938742Y-70947100D01*
X70867314Y-70911385D01*
X70760171Y-70911385D01*
X70688742Y-70947100D01*
X70331600Y-71411385D02*
X70331600Y-70661385D01*
X70010171Y-71411385D02*
X70010171Y-71018528D01*
X70045885Y-70947100D01*
X70117314Y-70911385D01*
X70224457Y-70911385D01*
X70295885Y-70947100D01*
X70331600Y-70982814D01*
X69724457Y-70661385D02*
X69260171Y-70661385D01*
X69510171Y-70947100D01*
X69403028Y-70947100D01*
X69331600Y-70982814D01*
X69295885Y-71018528D01*
X69260171Y-71089957D01*
X69260171Y-71268528D01*
X69295885Y-71339957D01*
X69331600Y-71375671D01*
X69403028Y-71411385D01*
X69617314Y-71411385D01*
X69688742Y-71375671D01*
X69724457Y-71339957D01*
X68974457Y-70732814D02*
X68938742Y-70697100D01*
X68867314Y-70661385D01*
X68688742Y-70661385D01*
X68617314Y-70697100D01*
X68581600Y-70732814D01*
X68545885Y-70804242D01*
X68545885Y-70875671D01*
X68581600Y-70982814D01*
X69010171Y-71411385D01*
X68545885Y-71411385D01*
D11*
X79661400Y-75360780D02*
X79328066Y-76360780D01*
X78994733Y-75360780D01*
X78518542Y-76360780D02*
X78613780Y-76313161D01*
X78661400Y-76265542D01*
X78709019Y-76170304D01*
X78709019Y-75884590D01*
X78661400Y-75789352D01*
X78613780Y-75741733D01*
X78518542Y-75694114D01*
X78375685Y-75694114D01*
X78280447Y-75741733D01*
X78232828Y-75789352D01*
X78185209Y-75884590D01*
X78185209Y-76170304D01*
X78232828Y-76265542D01*
X78280447Y-76313161D01*
X78375685Y-76360780D01*
X78518542Y-76360780D01*
X77756638Y-76360780D02*
X77756638Y-75694114D01*
X77756638Y-75884590D02*
X77709019Y-75789352D01*
X77661400Y-75741733D01*
X77566161Y-75694114D01*
X77470923Y-75694114D01*
X76994733Y-76360780D02*
X77089971Y-76313161D01*
X77137590Y-76265542D01*
X77185209Y-76170304D01*
X77185209Y-75884590D01*
X77137590Y-75789352D01*
X77089971Y-75741733D01*
X76994733Y-75694114D01*
X76851876Y-75694114D01*
X76756638Y-75741733D01*
X76709019Y-75789352D01*
X76661400Y-75884590D01*
X76661400Y-76170304D01*
X76709019Y-76265542D01*
X76756638Y-76313161D01*
X76851876Y-76360780D01*
X76994733Y-76360780D01*
X76232828Y-75694114D02*
X76232828Y-76360780D01*
X76232828Y-75789352D02*
X76185209Y-75741733D01*
X76089971Y-75694114D01*
X75947114Y-75694114D01*
X75851876Y-75741733D01*
X75804257Y-75836971D01*
X75804257Y-76360780D01*
X74232828Y-75836971D02*
X74566161Y-75836971D01*
X74566161Y-76360780D02*
X74566161Y-75360780D01*
X74089971Y-75360780D01*
X73280447Y-76360780D02*
X73280447Y-75836971D01*
X73328066Y-75741733D01*
X73423304Y-75694114D01*
X73613780Y-75694114D01*
X73709019Y-75741733D01*
X73280447Y-76313161D02*
X73375685Y-76360780D01*
X73613780Y-76360780D01*
X73709019Y-76313161D01*
X73756638Y-76217923D01*
X73756638Y-76122685D01*
X73709019Y-76027447D01*
X73613780Y-75979828D01*
X73375685Y-75979828D01*
X73280447Y-75932209D01*
X72804257Y-75694114D02*
X72804257Y-76360780D01*
X72804257Y-75789352D02*
X72756638Y-75741733D01*
X72661400Y-75694114D01*
X72518542Y-75694114D01*
X72423304Y-75741733D01*
X72375685Y-75836971D01*
X72375685Y-76360780D01*
X71137590Y-75836971D02*
X70804257Y-75836971D01*
X70661400Y-76360780D02*
X71137590Y-76360780D01*
X71137590Y-75360780D01*
X70661400Y-75360780D01*
X70328066Y-76360780D02*
X69804257Y-75694114D01*
X70328066Y-75694114D02*
X69804257Y-76360780D01*
X69423304Y-75694114D02*
X69423304Y-76694114D01*
X69423304Y-75741733D02*
X69328066Y-75694114D01*
X69137590Y-75694114D01*
X69042352Y-75741733D01*
X68994733Y-75789352D01*
X68947114Y-75884590D01*
X68947114Y-76170304D01*
X68994733Y-76265542D01*
X69042352Y-76313161D01*
X69137590Y-76360780D01*
X69328066Y-76360780D01*
X69423304Y-76313161D01*
X68089971Y-76360780D02*
X68089971Y-75836971D01*
X68137590Y-75741733D01*
X68232828Y-75694114D01*
X68423304Y-75694114D01*
X68518542Y-75741733D01*
X68089971Y-76313161D02*
X68185209Y-76360780D01*
X68423304Y-76360780D01*
X68518542Y-76313161D01*
X68566161Y-76217923D01*
X68566161Y-76122685D01*
X68518542Y-76027447D01*
X68423304Y-75979828D01*
X68185209Y-75979828D01*
X68089971Y-75932209D01*
X67613780Y-75694114D02*
X67613780Y-76360780D01*
X67613780Y-75789352D02*
X67566161Y-75741733D01*
X67470923Y-75694114D01*
X67328066Y-75694114D01*
X67232828Y-75741733D01*
X67185209Y-75836971D01*
X67185209Y-76360780D01*
X66280447Y-76360780D02*
X66280447Y-75360780D01*
X66280447Y-76313161D02*
X66375685Y-76360780D01*
X66566161Y-76360780D01*
X66661400Y-76313161D01*
X66709019Y-76265542D01*
X66756638Y-76170304D01*
X66756638Y-75884590D01*
X66709019Y-75789352D01*
X66661400Y-75741733D01*
X66566161Y-75694114D01*
X66375685Y-75694114D01*
X66280447Y-75741733D01*
X65423304Y-76313161D02*
X65518542Y-76360780D01*
X65709019Y-76360780D01*
X65804257Y-76313161D01*
X65851876Y-76217923D01*
X65851876Y-75836971D01*
X65804257Y-75741733D01*
X65709019Y-75694114D01*
X65518542Y-75694114D01*
X65423304Y-75741733D01*
X65375685Y-75836971D01*
X65375685Y-75932209D01*
X65851876Y-76027447D01*
X64947114Y-76360780D02*
X64947114Y-75694114D01*
X64947114Y-75884590D02*
X64899495Y-75789352D01*
X64851876Y-75741733D01*
X64756638Y-75694114D01*
X64661400Y-75694114D01*
X79470923Y-77486971D02*
X79328066Y-77534590D01*
X79280447Y-77582209D01*
X79232828Y-77677447D01*
X79232828Y-77820304D01*
X79280447Y-77915542D01*
X79328066Y-77963161D01*
X79423304Y-78010780D01*
X79804257Y-78010780D01*
X79804257Y-77010780D01*
X79470923Y-77010780D01*
X79375685Y-77058400D01*
X79328066Y-77106019D01*
X79280447Y-77201257D01*
X79280447Y-77296495D01*
X79328066Y-77391733D01*
X79375685Y-77439352D01*
X79470923Y-77486971D01*
X79804257Y-77486971D01*
X78804257Y-78010780D02*
X78804257Y-77344114D01*
X78804257Y-77010780D02*
X78851876Y-77058400D01*
X78804257Y-77106019D01*
X78756638Y-77058400D01*
X78804257Y-77010780D01*
X78804257Y-77106019D01*
X77899495Y-77344114D02*
X77899495Y-78153638D01*
X77947114Y-78248876D01*
X77994733Y-78296495D01*
X78089971Y-78344114D01*
X78232828Y-78344114D01*
X78328066Y-78296495D01*
X77899495Y-77963161D02*
X77994733Y-78010780D01*
X78185209Y-78010780D01*
X78280447Y-77963161D01*
X78328066Y-77915542D01*
X78375685Y-77820304D01*
X78375685Y-77534590D01*
X78328066Y-77439352D01*
X78280447Y-77391733D01*
X78185209Y-77344114D01*
X77994733Y-77344114D01*
X77899495Y-77391733D01*
X76328066Y-77486971D02*
X76185209Y-77534590D01*
X76137590Y-77582209D01*
X76089971Y-77677447D01*
X76089971Y-77820304D01*
X76137590Y-77915542D01*
X76185209Y-77963161D01*
X76280447Y-78010780D01*
X76661400Y-78010780D01*
X76661400Y-77010780D01*
X76328066Y-77010780D01*
X76232828Y-77058400D01*
X76185209Y-77106019D01*
X76137590Y-77201257D01*
X76137590Y-77296495D01*
X76185209Y-77391733D01*
X76232828Y-77439352D01*
X76328066Y-77486971D01*
X76661400Y-77486971D01*
X75280447Y-77963161D02*
X75375685Y-78010780D01*
X75566161Y-78010780D01*
X75661400Y-77963161D01*
X75709019Y-77867923D01*
X75709019Y-77486971D01*
X75661400Y-77391733D01*
X75566161Y-77344114D01*
X75375685Y-77344114D01*
X75280447Y-77391733D01*
X75232828Y-77486971D01*
X75232828Y-77582209D01*
X75709019Y-77677447D01*
X74423304Y-77963161D02*
X74518542Y-78010780D01*
X74709019Y-78010780D01*
X74804257Y-77963161D01*
X74851876Y-77867923D01*
X74851876Y-77486971D01*
X74804257Y-77391733D01*
X74709019Y-77344114D01*
X74518542Y-77344114D01*
X74423304Y-77391733D01*
X74375685Y-77486971D01*
X74375685Y-77582209D01*
X74851876Y-77677447D01*
X74089971Y-77344114D02*
X73709019Y-77344114D01*
X73947114Y-78010780D02*
X73947114Y-77153638D01*
X73899495Y-77058400D01*
X73804257Y-77010780D01*
X73709019Y-77010780D01*
X73470923Y-77344114D02*
X73232828Y-78010780D01*
X72994733Y-77344114D02*
X73232828Y-78010780D01*
X73328066Y-78248876D01*
X73375685Y-78296495D01*
X73470923Y-78344114D01*
X71518542Y-77486971D02*
X71375685Y-77534590D01*
X71328066Y-77582209D01*
X71280447Y-77677447D01*
X71280447Y-77820304D01*
X71328066Y-77915542D01*
X71375685Y-77963161D01*
X71470923Y-78010780D01*
X71851876Y-78010780D01*
X71851876Y-77010780D01*
X71518542Y-77010780D01*
X71423304Y-77058400D01*
X71375685Y-77106019D01*
X71328066Y-77201257D01*
X71328066Y-77296495D01*
X71375685Y-77391733D01*
X71423304Y-77439352D01*
X71518542Y-77486971D01*
X71851876Y-77486971D01*
X70709019Y-78010780D02*
X70804257Y-77963161D01*
X70851876Y-77915542D01*
X70899495Y-77820304D01*
X70899495Y-77534590D01*
X70851876Y-77439352D01*
X70804257Y-77391733D01*
X70709019Y-77344114D01*
X70566161Y-77344114D01*
X70470923Y-77391733D01*
X70423304Y-77439352D01*
X70375685Y-77534590D01*
X70375685Y-77820304D01*
X70423304Y-77915542D01*
X70470923Y-77963161D01*
X70566161Y-78010780D01*
X70709019Y-78010780D01*
X69947114Y-78010780D02*
X69947114Y-77344114D01*
X69947114Y-77010780D02*
X69994733Y-77058400D01*
X69947114Y-77106019D01*
X69899495Y-77058400D01*
X69947114Y-77010780D01*
X69947114Y-77106019D01*
X68851876Y-77010780D02*
X68518542Y-78010780D01*
X68185209Y-77010780D01*
X67328066Y-78010780D02*
X67899495Y-78010780D01*
X67613780Y-78010780D02*
X67613780Y-77010780D01*
X67709019Y-77153638D01*
X67804257Y-77248876D01*
X67899495Y-77296495D01*
X66899495Y-77915542D02*
X66851876Y-77963161D01*
X66899495Y-78010780D01*
X66947114Y-77963161D01*
X66899495Y-77915542D01*
X66899495Y-78010780D01*
X66232828Y-77010780D02*
X66137590Y-77010780D01*
X66042352Y-77058400D01*
X65994733Y-77106019D01*
X65947114Y-77201257D01*
X65899495Y-77391733D01*
X65899495Y-77629828D01*
X65947114Y-77820304D01*
X65994733Y-77915542D01*
X66042352Y-77963161D01*
X66137590Y-78010780D01*
X66232828Y-78010780D01*
X66328066Y-77963161D01*
X66375685Y-77915542D01*
X66423304Y-77820304D01*
X66470923Y-77629828D01*
X66470923Y-77391733D01*
X66423304Y-77201257D01*
X66375685Y-77106019D01*
X66328066Y-77058400D01*
X66232828Y-77010780D01*
X65470923Y-77915542D02*
X65423304Y-77963161D01*
X65470923Y-78010780D01*
X65518542Y-77963161D01*
X65470923Y-77915542D01*
X65470923Y-78010780D01*
X64470923Y-78010780D02*
X65042352Y-78010780D01*
X64756638Y-78010780D02*
X64756638Y-77010780D01*
X64851876Y-77153638D01*
X64947114Y-77248876D01*
X65042352Y-77296495D01*
D12*
%TO.C,JP12*%
X60380600Y-61335700D02*
G75*
G03*
X59680600Y-62035700I0J-700000D01*
G01*
X61680600Y-62035700D02*
G75*
G03*
X60980600Y-61335700I-700000J0D01*
G01*
X60980600Y-64135700D02*
G75*
G03*
X61680600Y-63435700I0J700000D01*
G01*
X59680600Y-63435700D02*
G75*
G03*
X60380600Y-64135700I700000J0D01*
G01*
X60980600Y-61335700D02*
X60380600Y-61335700D01*
X61680600Y-63435700D02*
X61680600Y-62035700D01*
X60380600Y-64135700D02*
X60980600Y-64135700D01*
X59680600Y-62035700D02*
X59680600Y-63435700D01*
%TO.C,JP14*%
X67886800Y-70312000D02*
G75*
G03*
X67186800Y-69612000I-700000J0D01*
G01*
X67186800Y-71612000D02*
G75*
G03*
X67886800Y-70912000I0J700000D01*
G01*
X65086800Y-70912000D02*
G75*
G03*
X65786800Y-71612000I700000J0D01*
G01*
X65786800Y-69612000D02*
G75*
G03*
X65086800Y-70312000I0J-700000D01*
G01*
X67886800Y-70912000D02*
X67886800Y-70312000D01*
X65786800Y-71612000D02*
X67186800Y-71612000D01*
X65086800Y-70312000D02*
X65086800Y-70912000D01*
X67186800Y-69612000D02*
X65786800Y-69612000D01*
%TO.C,JP13*%
X78046800Y-70312000D02*
G75*
G03*
X77346800Y-69612000I-700000J0D01*
G01*
X77346800Y-71612000D02*
G75*
G03*
X78046800Y-70912000I0J700000D01*
G01*
X75246800Y-70912000D02*
G75*
G03*
X75946800Y-71612000I700000J0D01*
G01*
X75946800Y-69612000D02*
G75*
G03*
X75246800Y-70312000I0J-700000D01*
G01*
X78046800Y-70912000D02*
X78046800Y-70312000D01*
X75946800Y-71612000D02*
X77346800Y-71612000D01*
X75246800Y-70312000D02*
X75246800Y-70912000D01*
X77346800Y-69612000D02*
X75946800Y-69612000D01*
%TO.C,JP8*%
X48868800Y-64677800D02*
G75*
G03*
X49568800Y-63977800I0J700000D01*
G01*
X46768800Y-63977800D02*
G75*
G03*
X47468800Y-64677800I700000J0D01*
G01*
X47468800Y-62677800D02*
G75*
G03*
X46768800Y-63377800I0J-700000D01*
G01*
X49568800Y-63377800D02*
G75*
G03*
X48868800Y-62677800I-700000J0D01*
G01*
X49568800Y-63977800D02*
X49568800Y-63377800D01*
X47468800Y-64677800D02*
X48868800Y-64677800D01*
X46768800Y-63377800D02*
X46768800Y-63977800D01*
X48868800Y-62677800D02*
X47468800Y-62677800D01*
%TO.C,JP9*%
X57064400Y-58952600D02*
G75*
G03*
X57764400Y-59652600I700000J0D01*
G01*
X57764400Y-56852600D02*
G75*
G03*
X57064400Y-57552600I0J-700000D01*
G01*
X59064400Y-57552600D02*
G75*
G03*
X58364400Y-56852600I-700000J0D01*
G01*
X58364400Y-59652600D02*
G75*
G03*
X59064400Y-58952600I0J700000D01*
G01*
X57764400Y-59652600D02*
X58364400Y-59652600D01*
X57064400Y-57552600D02*
X57064400Y-58952600D01*
X58364400Y-56852600D02*
X57764400Y-56852600D01*
X59064400Y-58952600D02*
X59064400Y-57552600D01*
%TO.C,JP11*%
X51095400Y-62599800D02*
G75*
G03*
X51795400Y-63299800I700000J0D01*
G01*
X51795400Y-60499800D02*
G75*
G03*
X51095400Y-61199800I0J-700000D01*
G01*
X53095400Y-61199800D02*
G75*
G03*
X52395400Y-60499800I-700000J0D01*
G01*
X52395400Y-63299800D02*
G75*
G03*
X53095400Y-62599800I0J700000D01*
G01*
X51795400Y-63299800D02*
X52395400Y-63299800D01*
X51095400Y-61199800D02*
X51095400Y-62599800D01*
X52395400Y-60499800D02*
X51795400Y-60499800D01*
X53095400Y-62599800D02*
X53095400Y-61199800D01*
%TO.C,D8*%
X84250800Y-64375800D02*
X80365800Y-64375800D01*
X80365800Y-61455800D02*
X84250800Y-61455800D01*
X84250800Y-61455800D02*
X84250800Y-64375800D01*
%TO.C,D7*%
X75538600Y-53936400D02*
X71653600Y-53936400D01*
X71653600Y-51016400D02*
X75538600Y-51016400D01*
X75538600Y-51016400D02*
X75538600Y-53936400D01*
%TO.C,D6*%
X75564000Y-64375800D02*
X71679000Y-64375800D01*
X71679000Y-61455800D02*
X75564000Y-61455800D01*
X75564000Y-61455800D02*
X75564000Y-64375800D01*
%TO.C,D5*%
X66801600Y-53936400D02*
X62916600Y-53936400D01*
X62916600Y-51016400D02*
X66801600Y-51016400D01*
X66801600Y-51016400D02*
X66801600Y-53936400D01*
%TO.C,D4*%
X66826400Y-64375800D02*
X62941400Y-64375800D01*
X62941400Y-61455800D02*
X66826400Y-61455800D01*
X66826400Y-61455800D02*
X66826400Y-64375800D01*
%TO.C,D3*%
X58114200Y-64375800D02*
X54229200Y-64375800D01*
X54229200Y-61455800D02*
X58114200Y-61455800D01*
X58114200Y-61455800D02*
X58114200Y-64375800D01*
%TO.C,D2*%
X84263500Y-53936400D02*
X80378500Y-53936400D01*
X80378500Y-51016400D02*
X84263500Y-51016400D01*
X84263500Y-51016400D02*
X84263500Y-53936400D01*
%TO.C,D1*%
X58114200Y-53987200D02*
X54229200Y-53987200D01*
X54229200Y-51067200D02*
X58114200Y-51067200D01*
X58114200Y-51067200D02*
X58114200Y-53987200D01*
%TO.C,JP10*%
X37193200Y-59230800D02*
X38303200Y-59230800D01*
X37193200Y-58470800D02*
X37193200Y-59230800D01*
X38866671Y-57710800D02*
X39413200Y-57710800D01*
X37193200Y-57710800D02*
X37739729Y-57710800D01*
X39413200Y-57710800D02*
X39413200Y-55235800D01*
X37193200Y-57710800D02*
X37193200Y-55235800D01*
X38610730Y-55235800D02*
X39413200Y-55235800D01*
X37193200Y-55235800D02*
X37995670Y-55235800D01*
%TO.C,R22*%
X55340800Y-59351800D02*
X55340800Y-58351800D01*
X53980800Y-58351800D02*
X53980800Y-59351800D01*
%TO.C,R19*%
X79265400Y-49459600D02*
X78265400Y-49459600D01*
X78265400Y-50819600D02*
X79265400Y-50819600D01*
%TO.C,R17*%
X88716400Y-59047000D02*
X88716400Y-58047000D01*
X87356400Y-58047000D02*
X87356400Y-59047000D01*
%TO.C,R16*%
X79278800Y-47986400D02*
X78278800Y-47986400D01*
X78278800Y-49346400D02*
X79278800Y-49346400D01*
%TO.C,R14*%
X80142800Y-58351800D02*
X80142800Y-59351800D01*
X81502800Y-59351800D02*
X81502800Y-58351800D01*
%TO.C,R13*%
X71405200Y-47937800D02*
X71405200Y-48937800D01*
X72765200Y-48937800D02*
X72765200Y-47937800D01*
%TO.C,R12*%
X79316200Y-59899000D02*
X78316200Y-59899000D01*
X78316200Y-61259000D02*
X79316200Y-61259000D01*
%TO.C,R11*%
X70553200Y-49485000D02*
X69553200Y-49485000D01*
X69553200Y-50845000D02*
X70553200Y-50845000D01*
%TO.C,R10*%
X69578600Y-61259000D02*
X70578600Y-61259000D01*
X70578600Y-59899000D02*
X69578600Y-59899000D01*
%TO.C,R9*%
X60866400Y-50819600D02*
X61866400Y-50819600D01*
X61866400Y-49459600D02*
X60866400Y-49459600D01*
%TO.C,R8*%
X79316200Y-58451200D02*
X78316200Y-58451200D01*
X78316200Y-59811200D02*
X79316200Y-59811200D01*
%TO.C,R7*%
X70553200Y-48011800D02*
X69553200Y-48011800D01*
X69553200Y-49371800D02*
X70553200Y-49371800D01*
%TO.C,R6*%
X70578600Y-58425800D02*
X69578600Y-58425800D01*
X69578600Y-59785800D02*
X70578600Y-59785800D01*
%TO.C,R5*%
X61866400Y-47986400D02*
X60866400Y-47986400D01*
X60866400Y-49346400D02*
X61866400Y-49346400D01*
%TO.C,R4*%
X71405200Y-58377200D02*
X71405200Y-59377200D01*
X72765200Y-59377200D02*
X72765200Y-58377200D01*
%TO.C,R3*%
X62693000Y-47963200D02*
X62693000Y-48963200D01*
X64053000Y-48963200D02*
X64053000Y-47963200D01*
%TO.C,R2*%
X62693000Y-58326400D02*
X62693000Y-59326400D01*
X64053000Y-59326400D02*
X64053000Y-58326400D01*
%TO.C,R1*%
X54006200Y-47949800D02*
X54006200Y-48949800D01*
X55366200Y-48949800D02*
X55366200Y-47949800D01*
%TO.C,R21*%
X87028400Y-50794200D02*
X88028400Y-50794200D01*
X88028400Y-49434200D02*
X87028400Y-49434200D01*
%TO.C,R20*%
X87003000Y-61233600D02*
X88003000Y-61233600D01*
X88003000Y-59873600D02*
X87003000Y-59873600D01*
%TO.C,R18*%
X88028400Y-47973000D02*
X87028400Y-47973000D01*
X87028400Y-49333000D02*
X88028400Y-49333000D01*
%TO.C,R15*%
X80117400Y-47937800D02*
X80117400Y-48937800D01*
X81477400Y-48937800D02*
X81477400Y-47937800D01*
%TO.C,Q7*%
X85638100Y-54208800D02*
X87098100Y-54208800D01*
X85638100Y-51048800D02*
X87798100Y-51048800D01*
X85638100Y-51048800D02*
X85638100Y-51978800D01*
X85638100Y-54208800D02*
X85638100Y-53278800D01*
%TO.C,Q1*%
X59488800Y-54234200D02*
X60948800Y-54234200D01*
X59488800Y-51074200D02*
X61648800Y-51074200D01*
X59488800Y-51074200D02*
X59488800Y-52004200D01*
X59488800Y-54234200D02*
X59488800Y-53304200D01*
%TO.C,Q6*%
X85638100Y-64660900D02*
X85638100Y-63730900D01*
X85638100Y-61500900D02*
X85638100Y-62430900D01*
X85638100Y-61500900D02*
X87798100Y-61500900D01*
X85638100Y-64660900D02*
X87098100Y-64660900D01*
%TO.C,Q5*%
X76913200Y-54234200D02*
X76913200Y-53304200D01*
X76913200Y-51074200D02*
X76913200Y-52004200D01*
X76913200Y-51074200D02*
X79073200Y-51074200D01*
X76913200Y-54234200D02*
X78373200Y-54234200D01*
%TO.C,Q4*%
X76938600Y-64660900D02*
X76938600Y-63730900D01*
X76938600Y-61500900D02*
X76938600Y-62430900D01*
X76938600Y-61500900D02*
X79098600Y-61500900D01*
X76938600Y-64660900D02*
X78398600Y-64660900D01*
%TO.C,Q3*%
X68188300Y-54234200D02*
X68188300Y-53304200D01*
X68188300Y-51074200D02*
X68188300Y-52004200D01*
X68188300Y-51074200D02*
X70348300Y-51074200D01*
X68188300Y-54234200D02*
X69648300Y-54234200D01*
%TO.C,Q2*%
X68188300Y-64660900D02*
X68188300Y-63730900D01*
X68188300Y-61500900D02*
X68188300Y-62430900D01*
X68188300Y-61500900D02*
X70348300Y-61500900D01*
X68188300Y-64660900D02*
X69648300Y-64660900D01*
%TO.C,JP12*%
D11*
X58481980Y-62088876D02*
X59196266Y-62088876D01*
X59339123Y-62041257D01*
X59434361Y-61946019D01*
X59481980Y-61803161D01*
X59481980Y-61707923D01*
X59481980Y-62565066D02*
X58481980Y-62565066D01*
X58481980Y-62946019D01*
X58529600Y-63041257D01*
X58577219Y-63088876D01*
X58672457Y-63136495D01*
X58815314Y-63136495D01*
X58910552Y-63088876D01*
X58958171Y-63041257D01*
X59005790Y-62946019D01*
X59005790Y-62565066D01*
X59481980Y-64088876D02*
X59481980Y-63517447D01*
X59481980Y-63803161D02*
X58481980Y-63803161D01*
X58624838Y-63707923D01*
X58720076Y-63612685D01*
X58767695Y-63517447D01*
X58577219Y-64469828D02*
X58529600Y-64517447D01*
X58481980Y-64612685D01*
X58481980Y-64850780D01*
X58529600Y-64946019D01*
X58577219Y-64993638D01*
X58672457Y-65041257D01*
X58767695Y-65041257D01*
X58910552Y-64993638D01*
X59481980Y-64422209D01*
X59481980Y-65041257D01*
%TO.C,JP14*%
X67796323Y-68264380D02*
X67796323Y-68978666D01*
X67843942Y-69121523D01*
X67939180Y-69216761D01*
X68082038Y-69264380D01*
X68177276Y-69264380D01*
X67320133Y-69264380D02*
X67320133Y-68264380D01*
X66939180Y-68264380D01*
X66843942Y-68312000D01*
X66796323Y-68359619D01*
X66748704Y-68454857D01*
X66748704Y-68597714D01*
X66796323Y-68692952D01*
X66843942Y-68740571D01*
X66939180Y-68788190D01*
X67320133Y-68788190D01*
X65796323Y-69264380D02*
X66367752Y-69264380D01*
X66082038Y-69264380D02*
X66082038Y-68264380D01*
X66177276Y-68407238D01*
X66272514Y-68502476D01*
X66367752Y-68550095D01*
X64939180Y-68597714D02*
X64939180Y-69264380D01*
X65177276Y-68216761D02*
X65415371Y-68931047D01*
X64796323Y-68931047D01*
%TO.C,JP13*%
X77956323Y-68264380D02*
X77956323Y-68978666D01*
X78003942Y-69121523D01*
X78099180Y-69216761D01*
X78242038Y-69264380D01*
X78337276Y-69264380D01*
X77480133Y-69264380D02*
X77480133Y-68264380D01*
X77099180Y-68264380D01*
X77003942Y-68312000D01*
X76956323Y-68359619D01*
X76908704Y-68454857D01*
X76908704Y-68597714D01*
X76956323Y-68692952D01*
X77003942Y-68740571D01*
X77099180Y-68788190D01*
X77480133Y-68788190D01*
X75956323Y-69264380D02*
X76527752Y-69264380D01*
X76242038Y-69264380D02*
X76242038Y-68264380D01*
X76337276Y-68407238D01*
X76432514Y-68502476D01*
X76527752Y-68550095D01*
X75622990Y-68264380D02*
X75003942Y-68264380D01*
X75337276Y-68645333D01*
X75194419Y-68645333D01*
X75099180Y-68692952D01*
X75051561Y-68740571D01*
X75003942Y-68835809D01*
X75003942Y-69073904D01*
X75051561Y-69169142D01*
X75099180Y-69216761D01*
X75194419Y-69264380D01*
X75480133Y-69264380D01*
X75575371Y-69216761D01*
X75622990Y-69169142D01*
%TO.C,JP8*%
X51861933Y-63612780D02*
X51861933Y-64327066D01*
X51909552Y-64469923D01*
X52004790Y-64565161D01*
X52147647Y-64612780D01*
X52242885Y-64612780D01*
X51385742Y-64612780D02*
X51385742Y-63612780D01*
X51004790Y-63612780D01*
X50909552Y-63660400D01*
X50861933Y-63708019D01*
X50814314Y-63803257D01*
X50814314Y-63946114D01*
X50861933Y-64041352D01*
X50909552Y-64088971D01*
X51004790Y-64136590D01*
X51385742Y-64136590D01*
X50242885Y-64041352D02*
X50338123Y-63993733D01*
X50385742Y-63946114D01*
X50433361Y-63850876D01*
X50433361Y-63803257D01*
X50385742Y-63708019D01*
X50338123Y-63660400D01*
X50242885Y-63612780D01*
X50052409Y-63612780D01*
X49957171Y-63660400D01*
X49909552Y-63708019D01*
X49861933Y-63803257D01*
X49861933Y-63850876D01*
X49909552Y-63946114D01*
X49957171Y-63993733D01*
X50052409Y-64041352D01*
X50242885Y-64041352D01*
X50338123Y-64088971D01*
X50385742Y-64136590D01*
X50433361Y-64231828D01*
X50433361Y-64422304D01*
X50385742Y-64517542D01*
X50338123Y-64565161D01*
X50242885Y-64612780D01*
X50052409Y-64612780D01*
X49957171Y-64565161D01*
X49909552Y-64517542D01*
X49861933Y-64422304D01*
X49861933Y-64231828D01*
X49909552Y-64136590D01*
X49957171Y-64088971D01*
X50052409Y-64041352D01*
%TO.C,JP9*%
X59396380Y-57378866D02*
X60110666Y-57378866D01*
X60253523Y-57331247D01*
X60348761Y-57236009D01*
X60396380Y-57093152D01*
X60396380Y-56997914D01*
X60396380Y-57855057D02*
X59396380Y-57855057D01*
X59396380Y-58236009D01*
X59444000Y-58331247D01*
X59491619Y-58378866D01*
X59586857Y-58426485D01*
X59729714Y-58426485D01*
X59824952Y-58378866D01*
X59872571Y-58331247D01*
X59920190Y-58236009D01*
X59920190Y-57855057D01*
X60396380Y-58902676D02*
X60396380Y-59093152D01*
X60348761Y-59188390D01*
X60301142Y-59236009D01*
X60158285Y-59331247D01*
X59967809Y-59378866D01*
X59586857Y-59378866D01*
X59491619Y-59331247D01*
X59444000Y-59283628D01*
X59396380Y-59188390D01*
X59396380Y-58997914D01*
X59444000Y-58902676D01*
X59491619Y-58855057D01*
X59586857Y-58807438D01*
X59824952Y-58807438D01*
X59920190Y-58855057D01*
X59967809Y-58902676D01*
X60015428Y-58997914D01*
X60015428Y-59188390D01*
X59967809Y-59283628D01*
X59920190Y-59331247D01*
X59824952Y-59378866D01*
%TO.C,JP11*%
X51954180Y-57389876D02*
X52668466Y-57389876D01*
X52811323Y-57342257D01*
X52906561Y-57247019D01*
X52954180Y-57104161D01*
X52954180Y-57008923D01*
X52954180Y-57866066D02*
X51954180Y-57866066D01*
X51954180Y-58247019D01*
X52001800Y-58342257D01*
X52049419Y-58389876D01*
X52144657Y-58437495D01*
X52287514Y-58437495D01*
X52382752Y-58389876D01*
X52430371Y-58342257D01*
X52477990Y-58247019D01*
X52477990Y-57866066D01*
X52954180Y-59389876D02*
X52954180Y-58818447D01*
X52954180Y-59104161D02*
X51954180Y-59104161D01*
X52097038Y-59008923D01*
X52192276Y-58913685D01*
X52239895Y-58818447D01*
X52954180Y-60342257D02*
X52954180Y-59770828D01*
X52954180Y-60056542D02*
X51954180Y-60056542D01*
X52097038Y-59961304D01*
X52192276Y-59866066D01*
X52239895Y-59770828D01*
%TO.C,D8*%
X80487780Y-64565304D02*
X79487780Y-64565304D01*
X79487780Y-64803400D01*
X79535400Y-64946257D01*
X79630638Y-65041495D01*
X79725876Y-65089114D01*
X79916352Y-65136733D01*
X80059209Y-65136733D01*
X80249685Y-65089114D01*
X80344923Y-65041495D01*
X80440161Y-64946257D01*
X80487780Y-64803400D01*
X80487780Y-64565304D01*
X79916352Y-65708161D02*
X79868733Y-65612923D01*
X79821114Y-65565304D01*
X79725876Y-65517685D01*
X79678257Y-65517685D01*
X79583019Y-65565304D01*
X79535400Y-65612923D01*
X79487780Y-65708161D01*
X79487780Y-65898638D01*
X79535400Y-65993876D01*
X79583019Y-66041495D01*
X79678257Y-66089114D01*
X79725876Y-66089114D01*
X79821114Y-66041495D01*
X79868733Y-65993876D01*
X79916352Y-65898638D01*
X79916352Y-65708161D01*
X79963971Y-65612923D01*
X80011590Y-65565304D01*
X80106828Y-65517685D01*
X80297304Y-65517685D01*
X80392542Y-65565304D01*
X80440161Y-65612923D01*
X80487780Y-65708161D01*
X80487780Y-65898638D01*
X80440161Y-65993876D01*
X80392542Y-66041495D01*
X80297304Y-66089114D01*
X80106828Y-66089114D01*
X80011590Y-66041495D01*
X79963971Y-65993876D01*
X79916352Y-65898638D01*
%TO.C,D7*%
X71673980Y-54202104D02*
X70673980Y-54202104D01*
X70673980Y-54440200D01*
X70721600Y-54583057D01*
X70816838Y-54678295D01*
X70912076Y-54725914D01*
X71102552Y-54773533D01*
X71245409Y-54773533D01*
X71435885Y-54725914D01*
X71531123Y-54678295D01*
X71626361Y-54583057D01*
X71673980Y-54440200D01*
X71673980Y-54202104D01*
X70673980Y-55106866D02*
X70673980Y-55773533D01*
X71673980Y-55344961D01*
%TO.C,D6*%
X71572380Y-64616104D02*
X70572380Y-64616104D01*
X70572380Y-64854200D01*
X70620000Y-64997057D01*
X70715238Y-65092295D01*
X70810476Y-65139914D01*
X71000952Y-65187533D01*
X71143809Y-65187533D01*
X71334285Y-65139914D01*
X71429523Y-65092295D01*
X71524761Y-64997057D01*
X71572380Y-64854200D01*
X71572380Y-64616104D01*
X70572380Y-66044676D02*
X70572380Y-65854200D01*
X70620000Y-65758961D01*
X70667619Y-65711342D01*
X70810476Y-65616104D01*
X71000952Y-65568485D01*
X71381904Y-65568485D01*
X71477142Y-65616104D01*
X71524761Y-65663723D01*
X71572380Y-65758961D01*
X71572380Y-65949438D01*
X71524761Y-66044676D01*
X71477142Y-66092295D01*
X71381904Y-66139914D01*
X71143809Y-66139914D01*
X71048571Y-66092295D01*
X71000952Y-66044676D01*
X70953333Y-65949438D01*
X70953333Y-65758961D01*
X71000952Y-65663723D01*
X71048571Y-65616104D01*
X71143809Y-65568485D01*
%TO.C,D5*%
X62834780Y-54151304D02*
X61834780Y-54151304D01*
X61834780Y-54389400D01*
X61882400Y-54532257D01*
X61977638Y-54627495D01*
X62072876Y-54675114D01*
X62263352Y-54722733D01*
X62406209Y-54722733D01*
X62596685Y-54675114D01*
X62691923Y-54627495D01*
X62787161Y-54532257D01*
X62834780Y-54389400D01*
X62834780Y-54151304D01*
X61834780Y-55627495D02*
X61834780Y-55151304D01*
X62310971Y-55103685D01*
X62263352Y-55151304D01*
X62215733Y-55246542D01*
X62215733Y-55484638D01*
X62263352Y-55579876D01*
X62310971Y-55627495D01*
X62406209Y-55675114D01*
X62644304Y-55675114D01*
X62739542Y-55627495D01*
X62787161Y-55579876D01*
X62834780Y-55484638D01*
X62834780Y-55246542D01*
X62787161Y-55151304D01*
X62739542Y-55103685D01*
%TO.C,D4*%
X62987180Y-64590704D02*
X61987180Y-64590704D01*
X61987180Y-64828800D01*
X62034800Y-64971657D01*
X62130038Y-65066895D01*
X62225276Y-65114514D01*
X62415752Y-65162133D01*
X62558609Y-65162133D01*
X62749085Y-65114514D01*
X62844323Y-65066895D01*
X62939561Y-64971657D01*
X62987180Y-64828800D01*
X62987180Y-64590704D01*
X62320514Y-66019276D02*
X62987180Y-66019276D01*
X61939561Y-65781180D02*
X62653847Y-65543085D01*
X62653847Y-66162133D01*
%TO.C,D3*%
X54071780Y-64387504D02*
X53071780Y-64387504D01*
X53071780Y-64625600D01*
X53119400Y-64768457D01*
X53214638Y-64863695D01*
X53309876Y-64911314D01*
X53500352Y-64958933D01*
X53643209Y-64958933D01*
X53833685Y-64911314D01*
X53928923Y-64863695D01*
X54024161Y-64768457D01*
X54071780Y-64625600D01*
X54071780Y-64387504D01*
X53071780Y-65292266D02*
X53071780Y-65911314D01*
X53452733Y-65577980D01*
X53452733Y-65720838D01*
X53500352Y-65816076D01*
X53547971Y-65863695D01*
X53643209Y-65911314D01*
X53881304Y-65911314D01*
X53976542Y-65863695D01*
X54024161Y-65816076D01*
X54071780Y-65720838D01*
X54071780Y-65435123D01*
X54024161Y-65339885D01*
X53976542Y-65292266D01*
%TO.C,D2*%
X80360780Y-54176704D02*
X79360780Y-54176704D01*
X79360780Y-54414800D01*
X79408400Y-54557657D01*
X79503638Y-54652895D01*
X79598876Y-54700514D01*
X79789352Y-54748133D01*
X79932209Y-54748133D01*
X80122685Y-54700514D01*
X80217923Y-54652895D01*
X80313161Y-54557657D01*
X80360780Y-54414800D01*
X80360780Y-54176704D01*
X79456019Y-55129085D02*
X79408400Y-55176704D01*
X79360780Y-55271942D01*
X79360780Y-55510038D01*
X79408400Y-55605276D01*
X79456019Y-55652895D01*
X79551257Y-55700514D01*
X79646495Y-55700514D01*
X79789352Y-55652895D01*
X80360780Y-55081466D01*
X80360780Y-55700514D01*
%TO.C,D1*%
X54071780Y-54100504D02*
X53071780Y-54100504D01*
X53071780Y-54338600D01*
X53119400Y-54481457D01*
X53214638Y-54576695D01*
X53309876Y-54624314D01*
X53500352Y-54671933D01*
X53643209Y-54671933D01*
X53833685Y-54624314D01*
X53928923Y-54576695D01*
X54024161Y-54481457D01*
X54071780Y-54338600D01*
X54071780Y-54100504D01*
X54071780Y-55624314D02*
X54071780Y-55052885D01*
X54071780Y-55338600D02*
X53071780Y-55338600D01*
X53214638Y-55243361D01*
X53309876Y-55148123D01*
X53357495Y-55052885D01*
%TO.C,FID3*%
X80954571Y-74569771D02*
X80954571Y-74236438D01*
X81478380Y-74236438D02*
X80478380Y-74236438D01*
X80478380Y-74712628D01*
X81478380Y-75093580D02*
X80478380Y-75093580D01*
X81478380Y-75569771D02*
X80478380Y-75569771D01*
X80478380Y-75807866D01*
X80526000Y-75950723D01*
X80621238Y-76045961D01*
X80716476Y-76093580D01*
X80906952Y-76141200D01*
X81049809Y-76141200D01*
X81240285Y-76093580D01*
X81335523Y-76045961D01*
X81430761Y-75950723D01*
X81478380Y-75807866D01*
X81478380Y-75569771D01*
X80478380Y-76474533D02*
X80478380Y-77093580D01*
X80859333Y-76760247D01*
X80859333Y-76903104D01*
X80906952Y-76998342D01*
X80954571Y-77045961D01*
X81049809Y-77093580D01*
X81287904Y-77093580D01*
X81383142Y-77045961D01*
X81430761Y-76998342D01*
X81478380Y-76903104D01*
X81478380Y-76617390D01*
X81430761Y-76522152D01*
X81383142Y-76474533D01*
%TO.C,FID2*%
X42702028Y-65231971D02*
X43035361Y-65231971D01*
X43035361Y-65755780D02*
X43035361Y-64755780D01*
X42559171Y-64755780D01*
X42178219Y-65755780D02*
X42178219Y-64755780D01*
X41702028Y-65755780D02*
X41702028Y-64755780D01*
X41463933Y-64755780D01*
X41321076Y-64803400D01*
X41225838Y-64898638D01*
X41178219Y-64993876D01*
X41130600Y-65184352D01*
X41130600Y-65327209D01*
X41178219Y-65517685D01*
X41225838Y-65612923D01*
X41321076Y-65708161D01*
X41463933Y-65755780D01*
X41702028Y-65755780D01*
X40749647Y-64851019D02*
X40702028Y-64803400D01*
X40606790Y-64755780D01*
X40368695Y-64755780D01*
X40273457Y-64803400D01*
X40225838Y-64851019D01*
X40178219Y-64946257D01*
X40178219Y-65041495D01*
X40225838Y-65184352D01*
X40797266Y-65755780D01*
X40178219Y-65755780D01*
%TO.C,FID1*%
X42524228Y-49077571D02*
X42857561Y-49077571D01*
X42857561Y-49601380D02*
X42857561Y-48601380D01*
X42381371Y-48601380D01*
X42000419Y-49601380D02*
X42000419Y-48601380D01*
X41524228Y-49601380D02*
X41524228Y-48601380D01*
X41286133Y-48601380D01*
X41143276Y-48649000D01*
X41048038Y-48744238D01*
X41000419Y-48839476D01*
X40952800Y-49029952D01*
X40952800Y-49172809D01*
X41000419Y-49363285D01*
X41048038Y-49458523D01*
X41143276Y-49553761D01*
X41286133Y-49601380D01*
X41524228Y-49601380D01*
X40000419Y-49601380D02*
X40571847Y-49601380D01*
X40286133Y-49601380D02*
X40286133Y-48601380D01*
X40381371Y-48744238D01*
X40476609Y-48839476D01*
X40571847Y-48887095D01*
%TO.C,JP10*%
X37755580Y-60056876D02*
X38469866Y-60056876D01*
X38612723Y-60009257D01*
X38707961Y-59914019D01*
X38755580Y-59771161D01*
X38755580Y-59675923D01*
X38755580Y-60533066D02*
X37755580Y-60533066D01*
X37755580Y-60914019D01*
X37803200Y-61009257D01*
X37850819Y-61056876D01*
X37946057Y-61104495D01*
X38088914Y-61104495D01*
X38184152Y-61056876D01*
X38231771Y-61009257D01*
X38279390Y-60914019D01*
X38279390Y-60533066D01*
X38755580Y-62056876D02*
X38755580Y-61485447D01*
X38755580Y-61771161D02*
X37755580Y-61771161D01*
X37898438Y-61675923D01*
X37993676Y-61580685D01*
X38041295Y-61485447D01*
X37755580Y-62675923D02*
X37755580Y-62771161D01*
X37803200Y-62866400D01*
X37850819Y-62914019D01*
X37946057Y-62961638D01*
X38136533Y-63009257D01*
X38374628Y-63009257D01*
X38565104Y-62961638D01*
X38660342Y-62914019D01*
X38707961Y-62866400D01*
X38755580Y-62771161D01*
X38755580Y-62675923D01*
X38707961Y-62580685D01*
X38660342Y-62533066D01*
X38565104Y-62485447D01*
X38374628Y-62437828D01*
X38136533Y-62437828D01*
X37946057Y-62485447D01*
X37850819Y-62533066D01*
X37803200Y-62580685D01*
X37755580Y-62675923D01*
%TO.C,R22*%
X56510180Y-57548542D02*
X56033990Y-57215209D01*
X56510180Y-56977114D02*
X55510180Y-56977114D01*
X55510180Y-57358066D01*
X55557800Y-57453304D01*
X55605419Y-57500923D01*
X55700657Y-57548542D01*
X55843514Y-57548542D01*
X55938752Y-57500923D01*
X55986371Y-57453304D01*
X56033990Y-57358066D01*
X56033990Y-56977114D01*
X55605419Y-57929495D02*
X55557800Y-57977114D01*
X55510180Y-58072352D01*
X55510180Y-58310447D01*
X55557800Y-58405685D01*
X55605419Y-58453304D01*
X55700657Y-58500923D01*
X55795895Y-58500923D01*
X55938752Y-58453304D01*
X56510180Y-57881876D01*
X56510180Y-58500923D01*
X55605419Y-58881876D02*
X55557800Y-58929495D01*
X55510180Y-59024733D01*
X55510180Y-59262828D01*
X55557800Y-59358066D01*
X55605419Y-59405685D01*
X55700657Y-59453304D01*
X55795895Y-59453304D01*
X55938752Y-59405685D01*
X56510180Y-58834257D01*
X56510180Y-59453304D01*
%TO.C,R19*%
X81516457Y-50820580D02*
X81849790Y-50344390D01*
X82087885Y-50820580D02*
X82087885Y-49820580D01*
X81706933Y-49820580D01*
X81611695Y-49868200D01*
X81564076Y-49915819D01*
X81516457Y-50011057D01*
X81516457Y-50153914D01*
X81564076Y-50249152D01*
X81611695Y-50296771D01*
X81706933Y-50344390D01*
X82087885Y-50344390D01*
X80564076Y-50820580D02*
X81135504Y-50820580D01*
X80849790Y-50820580D02*
X80849790Y-49820580D01*
X80945028Y-49963438D01*
X81040266Y-50058676D01*
X81135504Y-50106295D01*
X80087885Y-50820580D02*
X79897409Y-50820580D01*
X79802171Y-50772961D01*
X79754552Y-50725342D01*
X79659314Y-50582485D01*
X79611695Y-50392009D01*
X79611695Y-50011057D01*
X79659314Y-49915819D01*
X79706933Y-49868200D01*
X79802171Y-49820580D01*
X79992647Y-49820580D01*
X80087885Y-49868200D01*
X80135504Y-49915819D01*
X80183123Y-50011057D01*
X80183123Y-50249152D01*
X80135504Y-50344390D01*
X80087885Y-50392009D01*
X79992647Y-50439628D01*
X79802171Y-50439628D01*
X79706933Y-50392009D01*
X79659314Y-50344390D01*
X79611695Y-50249152D01*
%TO.C,R17*%
X86469457Y-57780180D02*
X86802790Y-57303990D01*
X87040885Y-57780180D02*
X87040885Y-56780180D01*
X86659933Y-56780180D01*
X86564695Y-56827800D01*
X86517076Y-56875419D01*
X86469457Y-56970657D01*
X86469457Y-57113514D01*
X86517076Y-57208752D01*
X86564695Y-57256371D01*
X86659933Y-57303990D01*
X87040885Y-57303990D01*
X85517076Y-57780180D02*
X86088504Y-57780180D01*
X85802790Y-57780180D02*
X85802790Y-56780180D01*
X85898028Y-56923038D01*
X85993266Y-57018276D01*
X86088504Y-57065895D01*
X85183742Y-56780180D02*
X84517076Y-56780180D01*
X84945647Y-57780180D01*
%TO.C,R16*%
X77554057Y-48255180D02*
X77887390Y-47778990D01*
X78125485Y-48255180D02*
X78125485Y-47255180D01*
X77744533Y-47255180D01*
X77649295Y-47302800D01*
X77601676Y-47350419D01*
X77554057Y-47445657D01*
X77554057Y-47588514D01*
X77601676Y-47683752D01*
X77649295Y-47731371D01*
X77744533Y-47778990D01*
X78125485Y-47778990D01*
X76601676Y-48255180D02*
X77173104Y-48255180D01*
X76887390Y-48255180D02*
X76887390Y-47255180D01*
X76982628Y-47398038D01*
X77077866Y-47493276D01*
X77173104Y-47540895D01*
X75744533Y-47255180D02*
X75935009Y-47255180D01*
X76030247Y-47302800D01*
X76077866Y-47350419D01*
X76173104Y-47493276D01*
X76220723Y-47683752D01*
X76220723Y-48064704D01*
X76173104Y-48159942D01*
X76125485Y-48207561D01*
X76030247Y-48255180D01*
X75839771Y-48255180D01*
X75744533Y-48207561D01*
X75696914Y-48159942D01*
X75649295Y-48064704D01*
X75649295Y-47826609D01*
X75696914Y-47731371D01*
X75744533Y-47683752D01*
X75839771Y-47636133D01*
X76030247Y-47636133D01*
X76125485Y-47683752D01*
X76173104Y-47731371D01*
X76220723Y-47826609D01*
%TO.C,R14*%
X82672180Y-57650142D02*
X82195990Y-57316809D01*
X82672180Y-57078714D02*
X81672180Y-57078714D01*
X81672180Y-57459666D01*
X81719800Y-57554904D01*
X81767419Y-57602523D01*
X81862657Y-57650142D01*
X82005514Y-57650142D01*
X82100752Y-57602523D01*
X82148371Y-57554904D01*
X82195990Y-57459666D01*
X82195990Y-57078714D01*
X82672180Y-58602523D02*
X82672180Y-58031095D01*
X82672180Y-58316809D02*
X81672180Y-58316809D01*
X81815038Y-58221571D01*
X81910276Y-58126333D01*
X81957895Y-58031095D01*
X82005514Y-59459666D02*
X82672180Y-59459666D01*
X81624561Y-59221571D02*
X82338847Y-58983476D01*
X82338847Y-59602523D01*
%TO.C,R13*%
X74836257Y-48864780D02*
X75169590Y-48388590D01*
X75407685Y-48864780D02*
X75407685Y-47864780D01*
X75026733Y-47864780D01*
X74931495Y-47912400D01*
X74883876Y-47960019D01*
X74836257Y-48055257D01*
X74836257Y-48198114D01*
X74883876Y-48293352D01*
X74931495Y-48340971D01*
X75026733Y-48388590D01*
X75407685Y-48388590D01*
X73883876Y-48864780D02*
X74455304Y-48864780D01*
X74169590Y-48864780D02*
X74169590Y-47864780D01*
X74264828Y-48007638D01*
X74360066Y-48102876D01*
X74455304Y-48150495D01*
X73550542Y-47864780D02*
X72931495Y-47864780D01*
X73264828Y-48245733D01*
X73121971Y-48245733D01*
X73026733Y-48293352D01*
X72979114Y-48340971D01*
X72931495Y-48436209D01*
X72931495Y-48674304D01*
X72979114Y-48769542D01*
X73026733Y-48817161D01*
X73121971Y-48864780D01*
X73407685Y-48864780D01*
X73502923Y-48817161D01*
X73550542Y-48769542D01*
%TO.C,R12*%
X81668857Y-61209180D02*
X82002190Y-60732990D01*
X82240285Y-61209180D02*
X82240285Y-60209180D01*
X81859333Y-60209180D01*
X81764095Y-60256800D01*
X81716476Y-60304419D01*
X81668857Y-60399657D01*
X81668857Y-60542514D01*
X81716476Y-60637752D01*
X81764095Y-60685371D01*
X81859333Y-60732990D01*
X82240285Y-60732990D01*
X80716476Y-61209180D02*
X81287904Y-61209180D01*
X81002190Y-61209180D02*
X81002190Y-60209180D01*
X81097428Y-60352038D01*
X81192666Y-60447276D01*
X81287904Y-60494895D01*
X80335523Y-60304419D02*
X80287904Y-60256800D01*
X80192666Y-60209180D01*
X79954571Y-60209180D01*
X79859333Y-60256800D01*
X79811714Y-60304419D01*
X79764095Y-60399657D01*
X79764095Y-60494895D01*
X79811714Y-60637752D01*
X80383142Y-61209180D01*
X79764095Y-61209180D01*
%TO.C,R11*%
X72677257Y-50845980D02*
X73010590Y-50369790D01*
X73248685Y-50845980D02*
X73248685Y-49845980D01*
X72867733Y-49845980D01*
X72772495Y-49893600D01*
X72724876Y-49941219D01*
X72677257Y-50036457D01*
X72677257Y-50179314D01*
X72724876Y-50274552D01*
X72772495Y-50322171D01*
X72867733Y-50369790D01*
X73248685Y-50369790D01*
X71724876Y-50845980D02*
X72296304Y-50845980D01*
X72010590Y-50845980D02*
X72010590Y-49845980D01*
X72105828Y-49988838D01*
X72201066Y-50084076D01*
X72296304Y-50131695D01*
X70772495Y-50845980D02*
X71343923Y-50845980D01*
X71058209Y-50845980D02*
X71058209Y-49845980D01*
X71153447Y-49988838D01*
X71248685Y-50084076D01*
X71343923Y-50131695D01*
%TO.C,R10*%
X73058257Y-61234580D02*
X73391590Y-60758390D01*
X73629685Y-61234580D02*
X73629685Y-60234580D01*
X73248733Y-60234580D01*
X73153495Y-60282200D01*
X73105876Y-60329819D01*
X73058257Y-60425057D01*
X73058257Y-60567914D01*
X73105876Y-60663152D01*
X73153495Y-60710771D01*
X73248733Y-60758390D01*
X73629685Y-60758390D01*
X72105876Y-61234580D02*
X72677304Y-61234580D01*
X72391590Y-61234580D02*
X72391590Y-60234580D01*
X72486828Y-60377438D01*
X72582066Y-60472676D01*
X72677304Y-60520295D01*
X71486828Y-60234580D02*
X71391590Y-60234580D01*
X71296352Y-60282200D01*
X71248733Y-60329819D01*
X71201114Y-60425057D01*
X71153495Y-60615533D01*
X71153495Y-60853628D01*
X71201114Y-61044104D01*
X71248733Y-61139342D01*
X71296352Y-61186961D01*
X71391590Y-61234580D01*
X71486828Y-61234580D01*
X71582066Y-61186961D01*
X71629685Y-61139342D01*
X71677304Y-61044104D01*
X71724923Y-60853628D01*
X71724923Y-60615533D01*
X71677304Y-60425057D01*
X71629685Y-60329819D01*
X71582066Y-60282200D01*
X71486828Y-60234580D01*
%TO.C,R9*%
X63488866Y-50820580D02*
X63822200Y-50344390D01*
X64060295Y-50820580D02*
X64060295Y-49820580D01*
X63679342Y-49820580D01*
X63584104Y-49868200D01*
X63536485Y-49915819D01*
X63488866Y-50011057D01*
X63488866Y-50153914D01*
X63536485Y-50249152D01*
X63584104Y-50296771D01*
X63679342Y-50344390D01*
X64060295Y-50344390D01*
X63012676Y-50820580D02*
X62822200Y-50820580D01*
X62726961Y-50772961D01*
X62679342Y-50725342D01*
X62584104Y-50582485D01*
X62536485Y-50392009D01*
X62536485Y-50011057D01*
X62584104Y-49915819D01*
X62631723Y-49868200D01*
X62726961Y-49820580D01*
X62917438Y-49820580D01*
X63012676Y-49868200D01*
X63060295Y-49915819D01*
X63107914Y-50011057D01*
X63107914Y-50249152D01*
X63060295Y-50344390D01*
X63012676Y-50392009D01*
X62917438Y-50439628D01*
X62726961Y-50439628D01*
X62631723Y-50392009D01*
X62584104Y-50344390D01*
X62536485Y-50249152D01*
%TO.C,R8*%
X76874666Y-58694580D02*
X77208000Y-58218390D01*
X77446095Y-58694580D02*
X77446095Y-57694580D01*
X77065142Y-57694580D01*
X76969904Y-57742200D01*
X76922285Y-57789819D01*
X76874666Y-57885057D01*
X76874666Y-58027914D01*
X76922285Y-58123152D01*
X76969904Y-58170771D01*
X77065142Y-58218390D01*
X77446095Y-58218390D01*
X76303238Y-58123152D02*
X76398476Y-58075533D01*
X76446095Y-58027914D01*
X76493714Y-57932676D01*
X76493714Y-57885057D01*
X76446095Y-57789819D01*
X76398476Y-57742200D01*
X76303238Y-57694580D01*
X76112761Y-57694580D01*
X76017523Y-57742200D01*
X75969904Y-57789819D01*
X75922285Y-57885057D01*
X75922285Y-57932676D01*
X75969904Y-58027914D01*
X76017523Y-58075533D01*
X76112761Y-58123152D01*
X76303238Y-58123152D01*
X76398476Y-58170771D01*
X76446095Y-58218390D01*
X76493714Y-58313628D01*
X76493714Y-58504104D01*
X76446095Y-58599342D01*
X76398476Y-58646961D01*
X76303238Y-58694580D01*
X76112761Y-58694580D01*
X76017523Y-58646961D01*
X75969904Y-58599342D01*
X75922285Y-58504104D01*
X75922285Y-58313628D01*
X75969904Y-58218390D01*
X76017523Y-58170771D01*
X76112761Y-58123152D01*
%TO.C,R7*%
X68035466Y-48432980D02*
X68368800Y-47956790D01*
X68606895Y-48432980D02*
X68606895Y-47432980D01*
X68225942Y-47432980D01*
X68130704Y-47480600D01*
X68083085Y-47528219D01*
X68035466Y-47623457D01*
X68035466Y-47766314D01*
X68083085Y-47861552D01*
X68130704Y-47909171D01*
X68225942Y-47956790D01*
X68606895Y-47956790D01*
X67702133Y-47432980D02*
X67035466Y-47432980D01*
X67464038Y-48432980D01*
%TO.C,R6*%
X68162466Y-58745380D02*
X68495800Y-58269190D01*
X68733895Y-58745380D02*
X68733895Y-57745380D01*
X68352942Y-57745380D01*
X68257704Y-57793000D01*
X68210085Y-57840619D01*
X68162466Y-57935857D01*
X68162466Y-58078714D01*
X68210085Y-58173952D01*
X68257704Y-58221571D01*
X68352942Y-58269190D01*
X68733895Y-58269190D01*
X67305323Y-57745380D02*
X67495800Y-57745380D01*
X67591038Y-57793000D01*
X67638657Y-57840619D01*
X67733895Y-57983476D01*
X67781514Y-58173952D01*
X67781514Y-58554904D01*
X67733895Y-58650142D01*
X67686276Y-58697761D01*
X67591038Y-58745380D01*
X67400561Y-58745380D01*
X67305323Y-58697761D01*
X67257704Y-58650142D01*
X67210085Y-58554904D01*
X67210085Y-58316809D01*
X67257704Y-58221571D01*
X67305323Y-58173952D01*
X67400561Y-58126333D01*
X67591038Y-58126333D01*
X67686276Y-58173952D01*
X67733895Y-58221571D01*
X67781514Y-58316809D01*
%TO.C,R5*%
X59424866Y-48763180D02*
X59758200Y-48286990D01*
X59996295Y-48763180D02*
X59996295Y-47763180D01*
X59615342Y-47763180D01*
X59520104Y-47810800D01*
X59472485Y-47858419D01*
X59424866Y-47953657D01*
X59424866Y-48096514D01*
X59472485Y-48191752D01*
X59520104Y-48239371D01*
X59615342Y-48286990D01*
X59996295Y-48286990D01*
X58520104Y-47763180D02*
X58996295Y-47763180D01*
X59043914Y-48239371D01*
X58996295Y-48191752D01*
X58901057Y-48144133D01*
X58662961Y-48144133D01*
X58567723Y-48191752D01*
X58520104Y-48239371D01*
X58472485Y-48334609D01*
X58472485Y-48572704D01*
X58520104Y-48667942D01*
X58567723Y-48715561D01*
X58662961Y-48763180D01*
X58901057Y-48763180D01*
X58996295Y-48715561D01*
X59043914Y-48667942D01*
%TO.C,R4*%
X74004466Y-59278780D02*
X74337800Y-58802590D01*
X74575895Y-59278780D02*
X74575895Y-58278780D01*
X74194942Y-58278780D01*
X74099704Y-58326400D01*
X74052085Y-58374019D01*
X74004466Y-58469257D01*
X74004466Y-58612114D01*
X74052085Y-58707352D01*
X74099704Y-58754971D01*
X74194942Y-58802590D01*
X74575895Y-58802590D01*
X73147323Y-58612114D02*
X73147323Y-59278780D01*
X73385419Y-58231161D02*
X73623514Y-58945447D01*
X73004466Y-58945447D01*
%TO.C,R3*%
X65222380Y-47940933D02*
X64746190Y-47607600D01*
X65222380Y-47369504D02*
X64222380Y-47369504D01*
X64222380Y-47750457D01*
X64270000Y-47845695D01*
X64317619Y-47893314D01*
X64412857Y-47940933D01*
X64555714Y-47940933D01*
X64650952Y-47893314D01*
X64698571Y-47845695D01*
X64746190Y-47750457D01*
X64746190Y-47369504D01*
X64222380Y-48274266D02*
X64222380Y-48893314D01*
X64603333Y-48559980D01*
X64603333Y-48702838D01*
X64650952Y-48798076D01*
X64698571Y-48845695D01*
X64793809Y-48893314D01*
X65031904Y-48893314D01*
X65127142Y-48845695D01*
X65174761Y-48798076D01*
X65222380Y-48702838D01*
X65222380Y-48417123D01*
X65174761Y-48321885D01*
X65127142Y-48274266D01*
%TO.C,R2*%
X65196980Y-58227933D02*
X64720790Y-57894600D01*
X65196980Y-57656504D02*
X64196980Y-57656504D01*
X64196980Y-58037457D01*
X64244600Y-58132695D01*
X64292219Y-58180314D01*
X64387457Y-58227933D01*
X64530314Y-58227933D01*
X64625552Y-58180314D01*
X64673171Y-58132695D01*
X64720790Y-58037457D01*
X64720790Y-57656504D01*
X64292219Y-58608885D02*
X64244600Y-58656504D01*
X64196980Y-58751742D01*
X64196980Y-58989838D01*
X64244600Y-59085076D01*
X64292219Y-59132695D01*
X64387457Y-59180314D01*
X64482695Y-59180314D01*
X64625552Y-59132695D01*
X65196980Y-58561266D01*
X65196980Y-59180314D01*
%TO.C,R1*%
X56586380Y-47927533D02*
X56110190Y-47594200D01*
X56586380Y-47356104D02*
X55586380Y-47356104D01*
X55586380Y-47737057D01*
X55634000Y-47832295D01*
X55681619Y-47879914D01*
X55776857Y-47927533D01*
X55919714Y-47927533D01*
X56014952Y-47879914D01*
X56062571Y-47832295D01*
X56110190Y-47737057D01*
X56110190Y-47356104D01*
X56586380Y-48879914D02*
X56586380Y-48308485D01*
X56586380Y-48594200D02*
X55586380Y-48594200D01*
X55729238Y-48498961D01*
X55824476Y-48403723D01*
X55872095Y-48308485D01*
%TO.C,R21*%
X88793580Y-51681142D02*
X88317390Y-51347809D01*
X88793580Y-51109714D02*
X87793580Y-51109714D01*
X87793580Y-51490666D01*
X87841200Y-51585904D01*
X87888819Y-51633523D01*
X87984057Y-51681142D01*
X88126914Y-51681142D01*
X88222152Y-51633523D01*
X88269771Y-51585904D01*
X88317390Y-51490666D01*
X88317390Y-51109714D01*
X87888819Y-52062095D02*
X87841200Y-52109714D01*
X87793580Y-52204952D01*
X87793580Y-52443047D01*
X87841200Y-52538285D01*
X87888819Y-52585904D01*
X87984057Y-52633523D01*
X88079295Y-52633523D01*
X88222152Y-52585904D01*
X88793580Y-52014476D01*
X88793580Y-52633523D01*
X88793580Y-53585904D02*
X88793580Y-53014476D01*
X88793580Y-53300190D02*
X87793580Y-53300190D01*
X87936438Y-53204952D01*
X88031676Y-53109714D01*
X88079295Y-53014476D01*
%TO.C,R20*%
X86596457Y-59380380D02*
X86929790Y-58904190D01*
X87167885Y-59380380D02*
X87167885Y-58380380D01*
X86786933Y-58380380D01*
X86691695Y-58428000D01*
X86644076Y-58475619D01*
X86596457Y-58570857D01*
X86596457Y-58713714D01*
X86644076Y-58808952D01*
X86691695Y-58856571D01*
X86786933Y-58904190D01*
X87167885Y-58904190D01*
X86215504Y-58475619D02*
X86167885Y-58428000D01*
X86072647Y-58380380D01*
X85834552Y-58380380D01*
X85739314Y-58428000D01*
X85691695Y-58475619D01*
X85644076Y-58570857D01*
X85644076Y-58666095D01*
X85691695Y-58808952D01*
X86263123Y-59380380D01*
X85644076Y-59380380D01*
X85025028Y-58380380D02*
X84929790Y-58380380D01*
X84834552Y-58428000D01*
X84786933Y-58475619D01*
X84739314Y-58570857D01*
X84691695Y-58761333D01*
X84691695Y-58999428D01*
X84739314Y-59189904D01*
X84786933Y-59285142D01*
X84834552Y-59332761D01*
X84929790Y-59380380D01*
X85025028Y-59380380D01*
X85120266Y-59332761D01*
X85167885Y-59285142D01*
X85215504Y-59189904D01*
X85263123Y-58999428D01*
X85263123Y-58761333D01*
X85215504Y-58570857D01*
X85167885Y-58475619D01*
X85120266Y-58428000D01*
X85025028Y-58380380D01*
%TO.C,R18*%
X86291657Y-48255180D02*
X86624990Y-47778990D01*
X86863085Y-48255180D02*
X86863085Y-47255180D01*
X86482133Y-47255180D01*
X86386895Y-47302800D01*
X86339276Y-47350419D01*
X86291657Y-47445657D01*
X86291657Y-47588514D01*
X86339276Y-47683752D01*
X86386895Y-47731371D01*
X86482133Y-47778990D01*
X86863085Y-47778990D01*
X85339276Y-48255180D02*
X85910704Y-48255180D01*
X85624990Y-48255180D02*
X85624990Y-47255180D01*
X85720228Y-47398038D01*
X85815466Y-47493276D01*
X85910704Y-47540895D01*
X84767847Y-47683752D02*
X84863085Y-47636133D01*
X84910704Y-47588514D01*
X84958323Y-47493276D01*
X84958323Y-47445657D01*
X84910704Y-47350419D01*
X84863085Y-47302800D01*
X84767847Y-47255180D01*
X84577371Y-47255180D01*
X84482133Y-47302800D01*
X84434514Y-47350419D01*
X84386895Y-47445657D01*
X84386895Y-47493276D01*
X84434514Y-47588514D01*
X84482133Y-47636133D01*
X84577371Y-47683752D01*
X84767847Y-47683752D01*
X84863085Y-47731371D01*
X84910704Y-47778990D01*
X84958323Y-47874228D01*
X84958323Y-48064704D01*
X84910704Y-48159942D01*
X84863085Y-48207561D01*
X84767847Y-48255180D01*
X84577371Y-48255180D01*
X84482133Y-48207561D01*
X84434514Y-48159942D01*
X84386895Y-48064704D01*
X84386895Y-47874228D01*
X84434514Y-47778990D01*
X84482133Y-47731371D01*
X84577371Y-47683752D01*
%TO.C,R15*%
X83573857Y-48864780D02*
X83907190Y-48388590D01*
X84145285Y-48864780D02*
X84145285Y-47864780D01*
X83764333Y-47864780D01*
X83669095Y-47912400D01*
X83621476Y-47960019D01*
X83573857Y-48055257D01*
X83573857Y-48198114D01*
X83621476Y-48293352D01*
X83669095Y-48340971D01*
X83764333Y-48388590D01*
X84145285Y-48388590D01*
X82621476Y-48864780D02*
X83192904Y-48864780D01*
X82907190Y-48864780D02*
X82907190Y-47864780D01*
X83002428Y-48007638D01*
X83097666Y-48102876D01*
X83192904Y-48150495D01*
X81716714Y-47864780D02*
X82192904Y-47864780D01*
X82240523Y-48340971D01*
X82192904Y-48293352D01*
X82097666Y-48245733D01*
X81859571Y-48245733D01*
X81764333Y-48293352D01*
X81716714Y-48340971D01*
X81669095Y-48436209D01*
X81669095Y-48674304D01*
X81716714Y-48769542D01*
X81764333Y-48817161D01*
X81859571Y-48864780D01*
X82097666Y-48864780D01*
X82192904Y-48817161D01*
X82240523Y-48769542D01*
%TO.C,Q7*%
X85488519Y-54006761D02*
X85440900Y-53911523D01*
X85345661Y-53816285D01*
X85202804Y-53673428D01*
X85155185Y-53578190D01*
X85155185Y-53482952D01*
X85393280Y-53530571D02*
X85345661Y-53435333D01*
X85250423Y-53340095D01*
X85059947Y-53292476D01*
X84726614Y-53292476D01*
X84536138Y-53340095D01*
X84440900Y-53435333D01*
X84393280Y-53530571D01*
X84393280Y-53721047D01*
X84440900Y-53816285D01*
X84536138Y-53911523D01*
X84726614Y-53959142D01*
X85059947Y-53959142D01*
X85250423Y-53911523D01*
X85345661Y-53816285D01*
X85393280Y-53721047D01*
X85393280Y-53530571D01*
X84393280Y-54292476D02*
X84393280Y-54959142D01*
X85393280Y-54530571D01*
%TO.C,Q1*%
X59374019Y-54032161D02*
X59326400Y-53936923D01*
X59231161Y-53841685D01*
X59088304Y-53698828D01*
X59040685Y-53603590D01*
X59040685Y-53508352D01*
X59278780Y-53555971D02*
X59231161Y-53460733D01*
X59135923Y-53365495D01*
X58945447Y-53317876D01*
X58612114Y-53317876D01*
X58421638Y-53365495D01*
X58326400Y-53460733D01*
X58278780Y-53555971D01*
X58278780Y-53746447D01*
X58326400Y-53841685D01*
X58421638Y-53936923D01*
X58612114Y-53984542D01*
X58945447Y-53984542D01*
X59135923Y-53936923D01*
X59231161Y-53841685D01*
X59278780Y-53746447D01*
X59278780Y-53555971D01*
X59278780Y-54936923D02*
X59278780Y-54365495D01*
X59278780Y-54651209D02*
X58278780Y-54651209D01*
X58421638Y-54555971D01*
X58516876Y-54460733D01*
X58564495Y-54365495D01*
%TO.C,Q6*%
X85472519Y-64509661D02*
X85424900Y-64414423D01*
X85329661Y-64319185D01*
X85186804Y-64176328D01*
X85139185Y-64081090D01*
X85139185Y-63985852D01*
X85377280Y-64033471D02*
X85329661Y-63938233D01*
X85234423Y-63842995D01*
X85043947Y-63795376D01*
X84710614Y-63795376D01*
X84520138Y-63842995D01*
X84424900Y-63938233D01*
X84377280Y-64033471D01*
X84377280Y-64223947D01*
X84424900Y-64319185D01*
X84520138Y-64414423D01*
X84710614Y-64462042D01*
X85043947Y-64462042D01*
X85234423Y-64414423D01*
X85329661Y-64319185D01*
X85377280Y-64223947D01*
X85377280Y-64033471D01*
X84377280Y-65319185D02*
X84377280Y-65128709D01*
X84424900Y-65033471D01*
X84472519Y-64985852D01*
X84615376Y-64890614D01*
X84805852Y-64842995D01*
X85186804Y-64842995D01*
X85282042Y-64890614D01*
X85329661Y-64938233D01*
X85377280Y-65033471D01*
X85377280Y-65223947D01*
X85329661Y-65319185D01*
X85282042Y-65366804D01*
X85186804Y-65414423D01*
X84948709Y-65414423D01*
X84853471Y-65366804D01*
X84805852Y-65319185D01*
X84758233Y-65223947D01*
X84758233Y-65033471D01*
X84805852Y-64938233D01*
X84853471Y-64890614D01*
X84948709Y-64842995D01*
%TO.C,Q5*%
X76747619Y-53955961D02*
X76700000Y-53860723D01*
X76604761Y-53765485D01*
X76461904Y-53622628D01*
X76414285Y-53527390D01*
X76414285Y-53432152D01*
X76652380Y-53479771D02*
X76604761Y-53384533D01*
X76509523Y-53289295D01*
X76319047Y-53241676D01*
X75985714Y-53241676D01*
X75795238Y-53289295D01*
X75700000Y-53384533D01*
X75652380Y-53479771D01*
X75652380Y-53670247D01*
X75700000Y-53765485D01*
X75795238Y-53860723D01*
X75985714Y-53908342D01*
X76319047Y-53908342D01*
X76509523Y-53860723D01*
X76604761Y-53765485D01*
X76652380Y-53670247D01*
X76652380Y-53479771D01*
X75652380Y-54813104D02*
X75652380Y-54336914D01*
X76128571Y-54289295D01*
X76080952Y-54336914D01*
X76033333Y-54432152D01*
X76033333Y-54670247D01*
X76080952Y-54765485D01*
X76128571Y-54813104D01*
X76223809Y-54860723D01*
X76461904Y-54860723D01*
X76557142Y-54813104D01*
X76604761Y-54765485D01*
X76652380Y-54670247D01*
X76652380Y-54432152D01*
X76604761Y-54336914D01*
X76557142Y-54289295D01*
%TO.C,Q4*%
X76747619Y-64484261D02*
X76700000Y-64389023D01*
X76604761Y-64293785D01*
X76461904Y-64150928D01*
X76414285Y-64055690D01*
X76414285Y-63960452D01*
X76652380Y-64008071D02*
X76604761Y-63912833D01*
X76509523Y-63817595D01*
X76319047Y-63769976D01*
X75985714Y-63769976D01*
X75795238Y-63817595D01*
X75700000Y-63912833D01*
X75652380Y-64008071D01*
X75652380Y-64198547D01*
X75700000Y-64293785D01*
X75795238Y-64389023D01*
X75985714Y-64436642D01*
X76319047Y-64436642D01*
X76509523Y-64389023D01*
X76604761Y-64293785D01*
X76652380Y-64198547D01*
X76652380Y-64008071D01*
X75985714Y-65293785D02*
X76652380Y-65293785D01*
X75604761Y-65055690D02*
X76319047Y-64817595D01*
X76319047Y-65436642D01*
%TO.C,Q3*%
X67997319Y-53930561D02*
X67949700Y-53835323D01*
X67854461Y-53740085D01*
X67711604Y-53597228D01*
X67663985Y-53501990D01*
X67663985Y-53406752D01*
X67902080Y-53454371D02*
X67854461Y-53359133D01*
X67759223Y-53263895D01*
X67568747Y-53216276D01*
X67235414Y-53216276D01*
X67044938Y-53263895D01*
X66949700Y-53359133D01*
X66902080Y-53454371D01*
X66902080Y-53644847D01*
X66949700Y-53740085D01*
X67044938Y-53835323D01*
X67235414Y-53882942D01*
X67568747Y-53882942D01*
X67759223Y-53835323D01*
X67854461Y-53740085D01*
X67902080Y-53644847D01*
X67902080Y-53454371D01*
X66902080Y-54216276D02*
X66902080Y-54835323D01*
X67283033Y-54501990D01*
X67283033Y-54644847D01*
X67330652Y-54740085D01*
X67378271Y-54787704D01*
X67473509Y-54835323D01*
X67711604Y-54835323D01*
X67806842Y-54787704D01*
X67854461Y-54740085D01*
X67902080Y-54644847D01*
X67902080Y-54359133D01*
X67854461Y-54263895D01*
X67806842Y-54216276D01*
%TO.C,Q2*%
X68022719Y-64281061D02*
X67975100Y-64185823D01*
X67879861Y-64090585D01*
X67737004Y-63947728D01*
X67689385Y-63852490D01*
X67689385Y-63757252D01*
X67927480Y-63804871D02*
X67879861Y-63709633D01*
X67784623Y-63614395D01*
X67594147Y-63566776D01*
X67260814Y-63566776D01*
X67070338Y-63614395D01*
X66975100Y-63709633D01*
X66927480Y-63804871D01*
X66927480Y-63995347D01*
X66975100Y-64090585D01*
X67070338Y-64185823D01*
X67260814Y-64233442D01*
X67594147Y-64233442D01*
X67784623Y-64185823D01*
X67879861Y-64090585D01*
X67927480Y-63995347D01*
X67927480Y-63804871D01*
X67022719Y-64614395D02*
X66975100Y-64662014D01*
X66927480Y-64757252D01*
X66927480Y-64995347D01*
X66975100Y-65090585D01*
X67022719Y-65138204D01*
X67117957Y-65185823D01*
X67213195Y-65185823D01*
X67356052Y-65138204D01*
X67927480Y-64566776D01*
X67927480Y-65185823D01*
%TD*%
M02*
