%TF.GenerationSoftware,KiCad,Pcbnew,(5.1.10-1-10_14)*%
%TF.CreationDate,2022-01-16T00:04:22-08:00*%
%TF.ProjectId,FanExpander-kicad,46616e45-7870-4616-9e64-65722d6b6963,rev?*%
%TF.SameCoordinates,Original*%
%TF.FileFunction,Legend,Top*%
%TF.FilePolarity,Positive*%
%FSLAX46Y46*%
G04 Gerber Fmt 4.6, Leading zero omitted, Abs format (unit mm)*
G04 Created by KiCad (PCBNEW (5.1.10-1-10_14)) date 2022-01-16 00:04:22*
%MOMM*%
%LPD*%
G01*
G04 APERTURE LIST*
%ADD10C,0.120000*%
%ADD11C,0.150000*%
G04 APERTURE END LIST*
D10*
%TO.C,J12*%
X73892200Y-73710800D02*
G75*
G03*
X73892200Y-73710800I-1680000J0D01*
G01*
X78972200Y-73710800D02*
G75*
G03*
X78972200Y-73710800I-1680000J0D01*
G01*
X64532200Y-77810800D02*
X79892200Y-77810800D01*
X64532200Y-76310800D02*
X79892200Y-76310800D01*
X64532200Y-71409800D02*
X79892200Y-71409800D01*
X64532200Y-68449800D02*
X79892200Y-68449800D01*
X64532200Y-78370800D02*
X79892200Y-78370800D01*
X64532200Y-68449800D02*
X64532200Y-78370800D01*
X79892200Y-68449800D02*
X79892200Y-78370800D01*
X73487200Y-72641800D02*
X73440200Y-72687800D01*
X71178200Y-74949800D02*
X71143200Y-74984800D01*
X73282200Y-72435800D02*
X73247200Y-72471800D01*
X70985200Y-74733800D02*
X70938200Y-74779800D01*
X78567200Y-72641800D02*
X78520200Y-72687800D01*
X76258200Y-74949800D02*
X76223200Y-74984800D01*
X78362200Y-72435800D02*
X78327200Y-72471800D01*
X76065200Y-74733800D02*
X76018200Y-74779800D01*
X64292200Y-77870800D02*
X64292200Y-78610800D01*
X64292200Y-78610800D02*
X64792200Y-78610800D01*
X67161005Y-75391053D02*
G75*
G02*
X66448200Y-75245800I-28805J1680253D01*
G01*
X65596774Y-74393842D02*
G75*
G02*
X65597200Y-73026800I1535426J683042D01*
G01*
X66449158Y-72175374D02*
G75*
G02*
X67816200Y-72175800I683042J-1535426D01*
G01*
X68667626Y-73027758D02*
G75*
G02*
X68667200Y-74394800I-1535426J-683042D01*
G01*
X67815518Y-75245556D02*
G75*
G02*
X67132200Y-75390800I-683318J1534756D01*
G01*
D11*
%TO.C,F1*%
X61754400Y-73314400D02*
X61754400Y-68214400D01*
X61754400Y-68214400D02*
X46754400Y-68214400D01*
X46754400Y-68214400D02*
X46754400Y-73314400D01*
X46754400Y-73314400D02*
X61754400Y-73314400D01*
%TO.C,F2*%
X61754400Y-78775400D02*
X61754400Y-73675400D01*
X61754400Y-73675400D02*
X46754400Y-73675400D01*
X46754400Y-73675400D02*
X46754400Y-78775400D01*
X46754400Y-78775400D02*
X61754400Y-78775400D01*
%TO.C,J8*%
X37084400Y-47088900D02*
X46024400Y-47088900D01*
X46024400Y-47088900D02*
X46024400Y-67388900D01*
X46024400Y-67388900D02*
X37084400Y-67388900D01*
X37084400Y-67388900D02*
X37084400Y-47088900D01*
X37084400Y-55013900D02*
X38384400Y-55013900D01*
X38384400Y-55013900D02*
X38384400Y-48288900D01*
X38384400Y-48288900D02*
X44724400Y-48288900D01*
X44724400Y-48288900D02*
X44724400Y-66188900D01*
X44724400Y-66188900D02*
X38384400Y-66188900D01*
X38384400Y-66188900D02*
X38384400Y-59463900D01*
X38384400Y-59463900D02*
X37084400Y-59463900D01*
X46024400Y-56988900D02*
X46224400Y-56988900D01*
X46224400Y-56988900D02*
X46224400Y-57488900D01*
X46224400Y-57488900D02*
X46024400Y-57488900D01*
X46124400Y-56988900D02*
X46124400Y-57488900D01*
X46024400Y-64468900D02*
X46224400Y-64468900D01*
X46224400Y-64468900D02*
X46224400Y-64968900D01*
X46224400Y-64968900D02*
X46024400Y-64968900D01*
X46124400Y-64468900D02*
X46124400Y-64968900D01*
X46024400Y-49508900D02*
X46224400Y-49508900D01*
X46224400Y-49508900D02*
X46224400Y-50008900D01*
X46224400Y-50008900D02*
X46024400Y-50008900D01*
X46124400Y-49508900D02*
X46124400Y-50008900D01*
X39684400Y-49958900D02*
X40884400Y-49958900D01*
X40884400Y-49958900D02*
X40284400Y-50558900D01*
X40284400Y-50558900D02*
X39684400Y-49958900D01*
D10*
%TO.C,J3*%
X62639100Y-47588000D02*
X62639100Y-53538000D01*
X62639100Y-53538000D02*
X70239100Y-53538000D01*
X70239100Y-53538000D02*
X70239100Y-47588000D01*
X70239100Y-47588000D02*
X62639100Y-47588000D01*
X65939100Y-47588000D02*
X65939100Y-48338000D01*
X65939100Y-48338000D02*
X66939100Y-48338000D01*
X66939100Y-48338000D02*
X66939100Y-47588000D01*
X66939100Y-47588000D02*
X65939100Y-47588000D01*
X62639100Y-47588000D02*
X62639100Y-48338000D01*
X62639100Y-48338000D02*
X64439100Y-48338000D01*
X64439100Y-48338000D02*
X64439100Y-47588000D01*
X64439100Y-47588000D02*
X62639100Y-47588000D01*
X68439100Y-47588000D02*
X68439100Y-48338000D01*
X68439100Y-48338000D02*
X70239100Y-48338000D01*
X70239100Y-48338000D02*
X70239100Y-47588000D01*
X70239100Y-47588000D02*
X68439100Y-47588000D01*
X62639100Y-49838000D02*
X63389100Y-49838000D01*
X63389100Y-49838000D02*
X63389100Y-52788000D01*
X63389100Y-52788000D02*
X66439100Y-52788000D01*
X70239100Y-49838000D02*
X69489100Y-49838000D01*
X69489100Y-49838000D02*
X69489100Y-52788000D01*
X69489100Y-52788000D02*
X66439100Y-52788000D01*
X64839100Y-47288000D02*
X62339100Y-47288000D01*
X62339100Y-47288000D02*
X62339100Y-49788000D01*
%TO.C,J9*%
X52333200Y-64735400D02*
X52333200Y-66065400D01*
X51003200Y-64735400D02*
X52333200Y-64735400D01*
X49733200Y-64735400D02*
X49733200Y-67395400D01*
X49733200Y-67395400D02*
X47133200Y-67395400D01*
X49733200Y-64735400D02*
X47133200Y-64735400D01*
X47133200Y-64735400D02*
X47133200Y-67395400D01*
%TO.C,JP0*%
X61756600Y-67522400D02*
X61756600Y-64862400D01*
X56616600Y-67522400D02*
X61756600Y-67522400D01*
X56616600Y-64862400D02*
X61756600Y-64862400D01*
X56616600Y-67522400D02*
X56616600Y-64862400D01*
X55346600Y-67522400D02*
X54016600Y-67522400D01*
X54016600Y-67522400D02*
X54016600Y-66192400D01*
%TO.C,J10*%
X47029200Y-63789400D02*
X52979200Y-63789400D01*
X52979200Y-63789400D02*
X52979200Y-56189400D01*
X52979200Y-56189400D02*
X47029200Y-56189400D01*
X47029200Y-56189400D02*
X47029200Y-63789400D01*
X47029200Y-60489400D02*
X47779200Y-60489400D01*
X47779200Y-60489400D02*
X47779200Y-59489400D01*
X47779200Y-59489400D02*
X47029200Y-59489400D01*
X47029200Y-59489400D02*
X47029200Y-60489400D01*
X47029200Y-63789400D02*
X47779200Y-63789400D01*
X47779200Y-63789400D02*
X47779200Y-61989400D01*
X47779200Y-61989400D02*
X47029200Y-61989400D01*
X47029200Y-61989400D02*
X47029200Y-63789400D01*
X47029200Y-57989400D02*
X47779200Y-57989400D01*
X47779200Y-57989400D02*
X47779200Y-56189400D01*
X47779200Y-56189400D02*
X47029200Y-56189400D01*
X47029200Y-56189400D02*
X47029200Y-57989400D01*
X49279200Y-63789400D02*
X49279200Y-63039400D01*
X49279200Y-63039400D02*
X52229200Y-63039400D01*
X52229200Y-63039400D02*
X52229200Y-59989400D01*
X49279200Y-56189400D02*
X49279200Y-56939400D01*
X49279200Y-56939400D02*
X52229200Y-56939400D01*
X52229200Y-56939400D02*
X52229200Y-59989400D01*
X46729200Y-61589400D02*
X46729200Y-64089400D01*
X46729200Y-64089400D02*
X49229200Y-64089400D01*
%TO.C,J0*%
X53939600Y-58014700D02*
X53939600Y-63964700D01*
X53939600Y-63964700D02*
X61539600Y-63964700D01*
X61539600Y-63964700D02*
X61539600Y-58014700D01*
X61539600Y-58014700D02*
X53939600Y-58014700D01*
X57239600Y-58014700D02*
X57239600Y-58764700D01*
X57239600Y-58764700D02*
X58239600Y-58764700D01*
X58239600Y-58764700D02*
X58239600Y-58014700D01*
X58239600Y-58014700D02*
X57239600Y-58014700D01*
X53939600Y-58014700D02*
X53939600Y-58764700D01*
X53939600Y-58764700D02*
X55739600Y-58764700D01*
X55739600Y-58764700D02*
X55739600Y-58014700D01*
X55739600Y-58014700D02*
X53939600Y-58014700D01*
X59739600Y-58014700D02*
X59739600Y-58764700D01*
X59739600Y-58764700D02*
X61539600Y-58764700D01*
X61539600Y-58764700D02*
X61539600Y-58014700D01*
X61539600Y-58014700D02*
X59739600Y-58014700D01*
X53939600Y-60264700D02*
X54689600Y-60264700D01*
X54689600Y-60264700D02*
X54689600Y-63214700D01*
X54689600Y-63214700D02*
X57739600Y-63214700D01*
X61539600Y-60264700D02*
X60789600Y-60264700D01*
X60789600Y-60264700D02*
X60789600Y-63214700D01*
X60789600Y-63214700D02*
X57739600Y-63214700D01*
X56139600Y-57714700D02*
X53639600Y-57714700D01*
X53639600Y-57714700D02*
X53639600Y-60214700D01*
%TO.C,JP7*%
X80153200Y-57108400D02*
X80153200Y-55778400D01*
X81483200Y-57108400D02*
X80153200Y-57108400D01*
X82753200Y-57108400D02*
X82753200Y-54448400D01*
X82753200Y-54448400D02*
X87893200Y-54448400D01*
X82753200Y-57108400D02*
X87893200Y-57108400D01*
X87893200Y-57108400D02*
X87893200Y-54448400D01*
%TO.C,JP1*%
X54016600Y-57108400D02*
X54016600Y-55778400D01*
X55346600Y-57108400D02*
X54016600Y-57108400D01*
X56616600Y-57108400D02*
X56616600Y-54448400D01*
X56616600Y-54448400D02*
X61756600Y-54448400D01*
X56616600Y-57108400D02*
X61756600Y-57108400D01*
X61756600Y-57108400D02*
X61756600Y-54448400D01*
%TO.C,J7*%
X79814300Y-47288000D02*
X79814300Y-49788000D01*
X82314300Y-47288000D02*
X79814300Y-47288000D01*
X86964300Y-52788000D02*
X83914300Y-52788000D01*
X86964300Y-49838000D02*
X86964300Y-52788000D01*
X87714300Y-49838000D02*
X86964300Y-49838000D01*
X80864300Y-52788000D02*
X83914300Y-52788000D01*
X80864300Y-49838000D02*
X80864300Y-52788000D01*
X80114300Y-49838000D02*
X80864300Y-49838000D01*
X87714300Y-47588000D02*
X85914300Y-47588000D01*
X87714300Y-48338000D02*
X87714300Y-47588000D01*
X85914300Y-48338000D02*
X87714300Y-48338000D01*
X85914300Y-47588000D02*
X85914300Y-48338000D01*
X81914300Y-47588000D02*
X80114300Y-47588000D01*
X81914300Y-48338000D02*
X81914300Y-47588000D01*
X80114300Y-48338000D02*
X81914300Y-48338000D01*
X80114300Y-47588000D02*
X80114300Y-48338000D01*
X84414300Y-47588000D02*
X83414300Y-47588000D01*
X84414300Y-48338000D02*
X84414300Y-47588000D01*
X83414300Y-48338000D02*
X84414300Y-48338000D01*
X83414300Y-47588000D02*
X83414300Y-48338000D01*
X87714300Y-47588000D02*
X80114300Y-47588000D01*
X87714300Y-53538000D02*
X87714300Y-47588000D01*
X80114300Y-53538000D02*
X87714300Y-53538000D01*
X80114300Y-47588000D02*
X80114300Y-53538000D01*
%TO.C,J1*%
X53665000Y-47288000D02*
X53665000Y-49788000D01*
X56165000Y-47288000D02*
X53665000Y-47288000D01*
X60815000Y-52788000D02*
X57765000Y-52788000D01*
X60815000Y-49838000D02*
X60815000Y-52788000D01*
X61565000Y-49838000D02*
X60815000Y-49838000D01*
X54715000Y-52788000D02*
X57765000Y-52788000D01*
X54715000Y-49838000D02*
X54715000Y-52788000D01*
X53965000Y-49838000D02*
X54715000Y-49838000D01*
X61565000Y-47588000D02*
X59765000Y-47588000D01*
X61565000Y-48338000D02*
X61565000Y-47588000D01*
X59765000Y-48338000D02*
X61565000Y-48338000D01*
X59765000Y-47588000D02*
X59765000Y-48338000D01*
X55765000Y-47588000D02*
X53965000Y-47588000D01*
X55765000Y-48338000D02*
X55765000Y-47588000D01*
X53965000Y-48338000D02*
X55765000Y-48338000D01*
X53965000Y-47588000D02*
X53965000Y-48338000D01*
X58265000Y-47588000D02*
X57265000Y-47588000D01*
X58265000Y-48338000D02*
X58265000Y-47588000D01*
X57265000Y-48338000D02*
X58265000Y-48338000D01*
X57265000Y-47588000D02*
X57265000Y-48338000D01*
X61565000Y-47588000D02*
X53965000Y-47588000D01*
X61565000Y-53538000D02*
X61565000Y-47588000D01*
X53965000Y-53538000D02*
X61565000Y-53538000D01*
X53965000Y-47588000D02*
X53965000Y-53538000D01*
%TO.C,J6*%
X80088900Y-58014700D02*
X80088900Y-63964700D01*
X80088900Y-63964700D02*
X87688900Y-63964700D01*
X87688900Y-63964700D02*
X87688900Y-58014700D01*
X87688900Y-58014700D02*
X80088900Y-58014700D01*
X83388900Y-58014700D02*
X83388900Y-58764700D01*
X83388900Y-58764700D02*
X84388900Y-58764700D01*
X84388900Y-58764700D02*
X84388900Y-58014700D01*
X84388900Y-58014700D02*
X83388900Y-58014700D01*
X80088900Y-58014700D02*
X80088900Y-58764700D01*
X80088900Y-58764700D02*
X81888900Y-58764700D01*
X81888900Y-58764700D02*
X81888900Y-58014700D01*
X81888900Y-58014700D02*
X80088900Y-58014700D01*
X85888900Y-58014700D02*
X85888900Y-58764700D01*
X85888900Y-58764700D02*
X87688900Y-58764700D01*
X87688900Y-58764700D02*
X87688900Y-58014700D01*
X87688900Y-58014700D02*
X85888900Y-58014700D01*
X80088900Y-60264700D02*
X80838900Y-60264700D01*
X80838900Y-60264700D02*
X80838900Y-63214700D01*
X80838900Y-63214700D02*
X83888900Y-63214700D01*
X87688900Y-60264700D02*
X86938900Y-60264700D01*
X86938900Y-60264700D02*
X86938900Y-63214700D01*
X86938900Y-63214700D02*
X83888900Y-63214700D01*
X82288900Y-57714700D02*
X79788900Y-57714700D01*
X79788900Y-57714700D02*
X79788900Y-60214700D01*
%TO.C,J5*%
X71364000Y-47588000D02*
X71364000Y-53538000D01*
X71364000Y-53538000D02*
X78964000Y-53538000D01*
X78964000Y-53538000D02*
X78964000Y-47588000D01*
X78964000Y-47588000D02*
X71364000Y-47588000D01*
X74664000Y-47588000D02*
X74664000Y-48338000D01*
X74664000Y-48338000D02*
X75664000Y-48338000D01*
X75664000Y-48338000D02*
X75664000Y-47588000D01*
X75664000Y-47588000D02*
X74664000Y-47588000D01*
X71364000Y-47588000D02*
X71364000Y-48338000D01*
X71364000Y-48338000D02*
X73164000Y-48338000D01*
X73164000Y-48338000D02*
X73164000Y-47588000D01*
X73164000Y-47588000D02*
X71364000Y-47588000D01*
X77164000Y-47588000D02*
X77164000Y-48338000D01*
X77164000Y-48338000D02*
X78964000Y-48338000D01*
X78964000Y-48338000D02*
X78964000Y-47588000D01*
X78964000Y-47588000D02*
X77164000Y-47588000D01*
X71364000Y-49838000D02*
X72114000Y-49838000D01*
X72114000Y-49838000D02*
X72114000Y-52788000D01*
X72114000Y-52788000D02*
X75164000Y-52788000D01*
X78964000Y-49838000D02*
X78214000Y-49838000D01*
X78214000Y-49838000D02*
X78214000Y-52788000D01*
X78214000Y-52788000D02*
X75164000Y-52788000D01*
X73564000Y-47288000D02*
X71064000Y-47288000D01*
X71064000Y-47288000D02*
X71064000Y-49788000D01*
%TO.C,JP6*%
X87893200Y-67522400D02*
X87893200Y-64862400D01*
X82753200Y-67522400D02*
X87893200Y-67522400D01*
X82753200Y-64862400D02*
X87893200Y-64862400D01*
X82753200Y-67522400D02*
X82753200Y-64862400D01*
X81483200Y-67522400D02*
X80153200Y-67522400D01*
X80153200Y-67522400D02*
X80153200Y-66192400D01*
%TO.C,JP5*%
X79181000Y-57108400D02*
X79181000Y-54448400D01*
X74041000Y-57108400D02*
X79181000Y-57108400D01*
X74041000Y-54448400D02*
X79181000Y-54448400D01*
X74041000Y-57108400D02*
X74041000Y-54448400D01*
X72771000Y-57108400D02*
X71441000Y-57108400D01*
X71441000Y-57108400D02*
X71441000Y-55778400D01*
%TO.C,J4*%
X71389400Y-58014700D02*
X71389400Y-63964700D01*
X71389400Y-63964700D02*
X78989400Y-63964700D01*
X78989400Y-63964700D02*
X78989400Y-58014700D01*
X78989400Y-58014700D02*
X71389400Y-58014700D01*
X74689400Y-58014700D02*
X74689400Y-58764700D01*
X74689400Y-58764700D02*
X75689400Y-58764700D01*
X75689400Y-58764700D02*
X75689400Y-58014700D01*
X75689400Y-58014700D02*
X74689400Y-58014700D01*
X71389400Y-58014700D02*
X71389400Y-58764700D01*
X71389400Y-58764700D02*
X73189400Y-58764700D01*
X73189400Y-58764700D02*
X73189400Y-58014700D01*
X73189400Y-58014700D02*
X71389400Y-58014700D01*
X77189400Y-58014700D02*
X77189400Y-58764700D01*
X77189400Y-58764700D02*
X78989400Y-58764700D01*
X78989400Y-58764700D02*
X78989400Y-58014700D01*
X78989400Y-58014700D02*
X77189400Y-58014700D01*
X71389400Y-60264700D02*
X72139400Y-60264700D01*
X72139400Y-60264700D02*
X72139400Y-63214700D01*
X72139400Y-63214700D02*
X75189400Y-63214700D01*
X78989400Y-60264700D02*
X78239400Y-60264700D01*
X78239400Y-60264700D02*
X78239400Y-63214700D01*
X78239400Y-63214700D02*
X75189400Y-63214700D01*
X73589400Y-57714700D02*
X71089400Y-57714700D01*
X71089400Y-57714700D02*
X71089400Y-60214700D01*
%TO.C,JP4*%
X79181000Y-67522400D02*
X79181000Y-64862400D01*
X74041000Y-67522400D02*
X79181000Y-67522400D01*
X74041000Y-64862400D02*
X79181000Y-64862400D01*
X74041000Y-67522400D02*
X74041000Y-64862400D01*
X72771000Y-67522400D02*
X71441000Y-67522400D01*
X71441000Y-67522400D02*
X71441000Y-66192400D01*
%TO.C,JP3*%
X70468800Y-57108400D02*
X70468800Y-54448400D01*
X65328800Y-57108400D02*
X70468800Y-57108400D01*
X65328800Y-54448400D02*
X70468800Y-54448400D01*
X65328800Y-57108400D02*
X65328800Y-54448400D01*
X64058800Y-57108400D02*
X62728800Y-57108400D01*
X62728800Y-57108400D02*
X62728800Y-55778400D01*
%TO.C,J2*%
X62664500Y-58014700D02*
X62664500Y-63964700D01*
X62664500Y-63964700D02*
X70264500Y-63964700D01*
X70264500Y-63964700D02*
X70264500Y-58014700D01*
X70264500Y-58014700D02*
X62664500Y-58014700D01*
X65964500Y-58014700D02*
X65964500Y-58764700D01*
X65964500Y-58764700D02*
X66964500Y-58764700D01*
X66964500Y-58764700D02*
X66964500Y-58014700D01*
X66964500Y-58014700D02*
X65964500Y-58014700D01*
X62664500Y-58014700D02*
X62664500Y-58764700D01*
X62664500Y-58764700D02*
X64464500Y-58764700D01*
X64464500Y-58764700D02*
X64464500Y-58014700D01*
X64464500Y-58014700D02*
X62664500Y-58014700D01*
X68464500Y-58014700D02*
X68464500Y-58764700D01*
X68464500Y-58764700D02*
X70264500Y-58764700D01*
X70264500Y-58764700D02*
X70264500Y-58014700D01*
X70264500Y-58014700D02*
X68464500Y-58014700D01*
X62664500Y-60264700D02*
X63414500Y-60264700D01*
X63414500Y-60264700D02*
X63414500Y-63214700D01*
X63414500Y-63214700D02*
X66464500Y-63214700D01*
X70264500Y-60264700D02*
X69514500Y-60264700D01*
X69514500Y-60264700D02*
X69514500Y-63214700D01*
X69514500Y-63214700D02*
X66464500Y-63214700D01*
X64864500Y-57714700D02*
X62364500Y-57714700D01*
X62364500Y-57714700D02*
X62364500Y-60214700D01*
%TO.C,JP2*%
X70468800Y-67522400D02*
X70468800Y-64862400D01*
X65328800Y-67522400D02*
X70468800Y-67522400D01*
X65328800Y-64862400D02*
X70468800Y-64862400D01*
X65328800Y-67522400D02*
X65328800Y-64862400D01*
X64058800Y-67522400D02*
X62728800Y-67522400D01*
X62728800Y-67522400D02*
X62728800Y-66192400D01*
%TO.C,J12*%
D11*
X71402676Y-66903180D02*
X71402676Y-67617466D01*
X71355057Y-67760323D01*
X71259819Y-67855561D01*
X71116961Y-67903180D01*
X71021723Y-67903180D01*
X72402676Y-67903180D02*
X71831247Y-67903180D01*
X72116961Y-67903180D02*
X72116961Y-66903180D01*
X72021723Y-67046038D01*
X71926485Y-67141276D01*
X71831247Y-67188895D01*
X72783628Y-66998419D02*
X72831247Y-66950800D01*
X72926485Y-66903180D01*
X73164580Y-66903180D01*
X73259819Y-66950800D01*
X73307438Y-66998419D01*
X73355057Y-67093657D01*
X73355057Y-67188895D01*
X73307438Y-67331752D01*
X72736009Y-67903180D01*
X73355057Y-67903180D01*
%TO.C,F1*%
X62379266Y-68711771D02*
X62045933Y-68711771D01*
X62045933Y-69235580D02*
X62045933Y-68235580D01*
X62522123Y-68235580D01*
X63426885Y-69235580D02*
X62855457Y-69235580D01*
X63141171Y-69235580D02*
X63141171Y-68235580D01*
X63045933Y-68378438D01*
X62950695Y-68473676D01*
X62855457Y-68521295D01*
%TO.C,F2*%
X62404666Y-74121971D02*
X62071333Y-74121971D01*
X62071333Y-74645780D02*
X62071333Y-73645780D01*
X62547523Y-73645780D01*
X62880857Y-73741019D02*
X62928476Y-73693400D01*
X63023714Y-73645780D01*
X63261809Y-73645780D01*
X63357047Y-73693400D01*
X63404666Y-73741019D01*
X63452285Y-73836257D01*
X63452285Y-73931495D01*
X63404666Y-74074352D01*
X62833238Y-74645780D01*
X63452285Y-74645780D01*
%TO.C,J8*%
X46391580Y-48313933D02*
X47105866Y-48313933D01*
X47248723Y-48361552D01*
X47343961Y-48456790D01*
X47391580Y-48599647D01*
X47391580Y-48694885D01*
X46820152Y-47694885D02*
X46772533Y-47790123D01*
X46724914Y-47837742D01*
X46629676Y-47885361D01*
X46582057Y-47885361D01*
X46486819Y-47837742D01*
X46439200Y-47790123D01*
X46391580Y-47694885D01*
X46391580Y-47504409D01*
X46439200Y-47409171D01*
X46486819Y-47361552D01*
X46582057Y-47313933D01*
X46629676Y-47313933D01*
X46724914Y-47361552D01*
X46772533Y-47409171D01*
X46820152Y-47504409D01*
X46820152Y-47694885D01*
X46867771Y-47790123D01*
X46915390Y-47837742D01*
X47010628Y-47885361D01*
X47201104Y-47885361D01*
X47296342Y-47837742D01*
X47343961Y-47790123D01*
X47391580Y-47694885D01*
X47391580Y-47504409D01*
X47343961Y-47409171D01*
X47296342Y-47361552D01*
X47201104Y-47313933D01*
X47010628Y-47313933D01*
X46915390Y-47361552D01*
X46867771Y-47409171D01*
X46820152Y-47504409D01*
%TO.C,J3*%
X66176566Y-51496980D02*
X66176566Y-52211266D01*
X66128947Y-52354123D01*
X66033709Y-52449361D01*
X65890852Y-52496980D01*
X65795614Y-52496980D01*
X66557519Y-51496980D02*
X67176566Y-51496980D01*
X66843233Y-51877933D01*
X66986090Y-51877933D01*
X67081328Y-51925552D01*
X67128947Y-51973171D01*
X67176566Y-52068409D01*
X67176566Y-52306504D01*
X67128947Y-52401742D01*
X67081328Y-52449361D01*
X66986090Y-52496980D01*
X66700376Y-52496980D01*
X66605138Y-52449361D01*
X66557519Y-52401742D01*
%TO.C,MH1*%
X48679266Y-48398580D02*
X48679266Y-47398580D01*
X49012600Y-48112866D01*
X49345933Y-47398580D01*
X49345933Y-48398580D01*
X49822123Y-48398580D02*
X49822123Y-47398580D01*
X49822123Y-47874771D02*
X50393552Y-47874771D01*
X50393552Y-48398580D02*
X50393552Y-47398580D01*
X51393552Y-48398580D02*
X50822123Y-48398580D01*
X51107838Y-48398580D02*
X51107838Y-47398580D01*
X51012600Y-47541438D01*
X50917361Y-47636676D01*
X50822123Y-47684295D01*
%TO.C,J9*%
X50898466Y-63206380D02*
X50898466Y-63920666D01*
X50850847Y-64063523D01*
X50755609Y-64158761D01*
X50612752Y-64206380D01*
X50517514Y-64206380D01*
X51422276Y-64206380D02*
X51612752Y-64206380D01*
X51707990Y-64158761D01*
X51755609Y-64111142D01*
X51850847Y-63968285D01*
X51898466Y-63777809D01*
X51898466Y-63396857D01*
X51850847Y-63301619D01*
X51803228Y-63254000D01*
X51707990Y-63206380D01*
X51517514Y-63206380D01*
X51422276Y-63254000D01*
X51374657Y-63301619D01*
X51327038Y-63396857D01*
X51327038Y-63634952D01*
X51374657Y-63730190D01*
X51422276Y-63777809D01*
X51517514Y-63825428D01*
X51707990Y-63825428D01*
X51803228Y-63777809D01*
X51850847Y-63730190D01*
X51898466Y-63634952D01*
%TO.C,MH2*%
X81505466Y-71165980D02*
X81505466Y-70165980D01*
X81838800Y-70880266D01*
X82172133Y-70165980D01*
X82172133Y-71165980D01*
X82648323Y-71165980D02*
X82648323Y-70165980D01*
X82648323Y-70642171D02*
X83219752Y-70642171D01*
X83219752Y-71165980D02*
X83219752Y-70165980D01*
X83648323Y-70261219D02*
X83695942Y-70213600D01*
X83791180Y-70165980D01*
X84029276Y-70165980D01*
X84124514Y-70213600D01*
X84172133Y-70261219D01*
X84219752Y-70356457D01*
X84219752Y-70451695D01*
X84172133Y-70594552D01*
X83600704Y-71165980D01*
X84219752Y-71165980D01*
%TO.C,JP0*%
X53300380Y-66009733D02*
X54014666Y-66009733D01*
X54157523Y-66057352D01*
X54252761Y-66152590D01*
X54300380Y-66295447D01*
X54300380Y-66390685D01*
X54300380Y-65533542D02*
X53300380Y-65533542D01*
X53300380Y-65152590D01*
X53348000Y-65057352D01*
X53395619Y-65009733D01*
X53490857Y-64962114D01*
X53633714Y-64962114D01*
X53728952Y-65009733D01*
X53776571Y-65057352D01*
X53824190Y-65152590D01*
X53824190Y-65533542D01*
X53300380Y-64343066D02*
X53300380Y-64247828D01*
X53348000Y-64152590D01*
X53395619Y-64104971D01*
X53490857Y-64057352D01*
X53681333Y-64009733D01*
X53919428Y-64009733D01*
X54109904Y-64057352D01*
X54205142Y-64104971D01*
X54252761Y-64152590D01*
X54300380Y-64247828D01*
X54300380Y-64343066D01*
X54252761Y-64438304D01*
X54205142Y-64485923D01*
X54109904Y-64533542D01*
X53919428Y-64581161D01*
X53681333Y-64581161D01*
X53490857Y-64533542D01*
X53395619Y-64485923D01*
X53348000Y-64438304D01*
X53300380Y-64343066D01*
%TO.C,J10*%
X51158876Y-63942980D02*
X51158876Y-64657266D01*
X51111257Y-64800123D01*
X51016019Y-64895361D01*
X50873161Y-64942980D01*
X50777923Y-64942980D01*
X52158876Y-64942980D02*
X51587447Y-64942980D01*
X51873161Y-64942980D02*
X51873161Y-63942980D01*
X51777923Y-64085838D01*
X51682685Y-64181076D01*
X51587447Y-64228695D01*
X52777923Y-63942980D02*
X52873161Y-63942980D01*
X52968400Y-63990600D01*
X53016019Y-64038219D01*
X53063638Y-64133457D01*
X53111257Y-64323933D01*
X53111257Y-64562028D01*
X53063638Y-64752504D01*
X53016019Y-64847742D01*
X52968400Y-64895361D01*
X52873161Y-64942980D01*
X52777923Y-64942980D01*
X52682685Y-64895361D01*
X52635066Y-64847742D01*
X52587447Y-64752504D01*
X52539828Y-64562028D01*
X52539828Y-64323933D01*
X52587447Y-64133457D01*
X52635066Y-64038219D01*
X52682685Y-63990600D01*
X52777923Y-63942980D01*
%TO.C,J0*%
X57781866Y-62025280D02*
X57781866Y-62739566D01*
X57734247Y-62882423D01*
X57639009Y-62977661D01*
X57496152Y-63025280D01*
X57400914Y-63025280D01*
X58448533Y-62025280D02*
X58543771Y-62025280D01*
X58639009Y-62072900D01*
X58686628Y-62120519D01*
X58734247Y-62215757D01*
X58781866Y-62406233D01*
X58781866Y-62644328D01*
X58734247Y-62834804D01*
X58686628Y-62930042D01*
X58639009Y-62977661D01*
X58543771Y-63025280D01*
X58448533Y-63025280D01*
X58353295Y-62977661D01*
X58305676Y-62930042D01*
X58258057Y-62834804D01*
X58210438Y-62644328D01*
X58210438Y-62406233D01*
X58258057Y-62215757D01*
X58305676Y-62120519D01*
X58353295Y-62072900D01*
X58448533Y-62025280D01*
%TO.C,JP7*%
X79513180Y-55494133D02*
X80227466Y-55494133D01*
X80370323Y-55541752D01*
X80465561Y-55636990D01*
X80513180Y-55779847D01*
X80513180Y-55875085D01*
X80513180Y-55017942D02*
X79513180Y-55017942D01*
X79513180Y-54636990D01*
X79560800Y-54541752D01*
X79608419Y-54494133D01*
X79703657Y-54446514D01*
X79846514Y-54446514D01*
X79941752Y-54494133D01*
X79989371Y-54541752D01*
X80036990Y-54636990D01*
X80036990Y-55017942D01*
X79513180Y-54113180D02*
X79513180Y-53446514D01*
X80513180Y-53875085D01*
%TO.C,JP1*%
X53351180Y-55646533D02*
X54065466Y-55646533D01*
X54208323Y-55694152D01*
X54303561Y-55789390D01*
X54351180Y-55932247D01*
X54351180Y-56027485D01*
X54351180Y-55170342D02*
X53351180Y-55170342D01*
X53351180Y-54789390D01*
X53398800Y-54694152D01*
X53446419Y-54646533D01*
X53541657Y-54598914D01*
X53684514Y-54598914D01*
X53779752Y-54646533D01*
X53827371Y-54694152D01*
X53874990Y-54789390D01*
X53874990Y-55170342D01*
X54351180Y-53646533D02*
X54351180Y-54217961D01*
X54351180Y-53932247D02*
X53351180Y-53932247D01*
X53494038Y-54027485D01*
X53589276Y-54122723D01*
X53636895Y-54217961D01*
%TO.C,J7*%
X83956566Y-51585880D02*
X83956566Y-52300166D01*
X83908947Y-52443023D01*
X83813709Y-52538261D01*
X83670852Y-52585880D01*
X83575614Y-52585880D01*
X84337519Y-51585880D02*
X85004185Y-51585880D01*
X84575614Y-52585880D01*
%TO.C,J1*%
X57807266Y-51598580D02*
X57807266Y-52312866D01*
X57759647Y-52455723D01*
X57664409Y-52550961D01*
X57521552Y-52598580D01*
X57426314Y-52598580D01*
X58807266Y-52598580D02*
X58235838Y-52598580D01*
X58521552Y-52598580D02*
X58521552Y-51598580D01*
X58426314Y-51741438D01*
X58331076Y-51836676D01*
X58235838Y-51884295D01*
%TO.C,J6*%
X83677166Y-61999880D02*
X83677166Y-62714166D01*
X83629547Y-62857023D01*
X83534309Y-62952261D01*
X83391452Y-62999880D01*
X83296214Y-62999880D01*
X84581928Y-61999880D02*
X84391452Y-61999880D01*
X84296214Y-62047500D01*
X84248595Y-62095119D01*
X84153357Y-62237976D01*
X84105738Y-62428452D01*
X84105738Y-62809404D01*
X84153357Y-62904642D01*
X84200976Y-62952261D01*
X84296214Y-62999880D01*
X84486690Y-62999880D01*
X84581928Y-62952261D01*
X84629547Y-62904642D01*
X84677166Y-62809404D01*
X84677166Y-62571309D01*
X84629547Y-62476071D01*
X84581928Y-62428452D01*
X84486690Y-62380833D01*
X84296214Y-62380833D01*
X84200976Y-62428452D01*
X84153357Y-62476071D01*
X84105738Y-62571309D01*
%TO.C,J5*%
X74901466Y-51573180D02*
X74901466Y-52287466D01*
X74853847Y-52430323D01*
X74758609Y-52525561D01*
X74615752Y-52573180D01*
X74520514Y-52573180D01*
X75853847Y-51573180D02*
X75377657Y-51573180D01*
X75330038Y-52049371D01*
X75377657Y-52001752D01*
X75472895Y-51954133D01*
X75710990Y-51954133D01*
X75806228Y-52001752D01*
X75853847Y-52049371D01*
X75901466Y-52144609D01*
X75901466Y-52382704D01*
X75853847Y-52477942D01*
X75806228Y-52525561D01*
X75710990Y-52573180D01*
X75472895Y-52573180D01*
X75377657Y-52525561D01*
X75330038Y-52477942D01*
%TO.C,JP6*%
X79487780Y-66085933D02*
X80202066Y-66085933D01*
X80344923Y-66133552D01*
X80440161Y-66228790D01*
X80487780Y-66371647D01*
X80487780Y-66466885D01*
X80487780Y-65609742D02*
X79487780Y-65609742D01*
X79487780Y-65228790D01*
X79535400Y-65133552D01*
X79583019Y-65085933D01*
X79678257Y-65038314D01*
X79821114Y-65038314D01*
X79916352Y-65085933D01*
X79963971Y-65133552D01*
X80011590Y-65228790D01*
X80011590Y-65609742D01*
X79487780Y-64181171D02*
X79487780Y-64371647D01*
X79535400Y-64466885D01*
X79583019Y-64514504D01*
X79725876Y-64609742D01*
X79916352Y-64657361D01*
X80297304Y-64657361D01*
X80392542Y-64609742D01*
X80440161Y-64562123D01*
X80487780Y-64466885D01*
X80487780Y-64276409D01*
X80440161Y-64181171D01*
X80392542Y-64133552D01*
X80297304Y-64085933D01*
X80059209Y-64085933D01*
X79963971Y-64133552D01*
X79916352Y-64181171D01*
X79868733Y-64276409D01*
X79868733Y-64466885D01*
X79916352Y-64562123D01*
X79963971Y-64609742D01*
X80059209Y-64657361D01*
%TO.C,JP5*%
X70826380Y-55290933D02*
X71540666Y-55290933D01*
X71683523Y-55338552D01*
X71778761Y-55433790D01*
X71826380Y-55576647D01*
X71826380Y-55671885D01*
X71826380Y-54814742D02*
X70826380Y-54814742D01*
X70826380Y-54433790D01*
X70874000Y-54338552D01*
X70921619Y-54290933D01*
X71016857Y-54243314D01*
X71159714Y-54243314D01*
X71254952Y-54290933D01*
X71302571Y-54338552D01*
X71350190Y-54433790D01*
X71350190Y-54814742D01*
X70826380Y-53338552D02*
X70826380Y-53814742D01*
X71302571Y-53862361D01*
X71254952Y-53814742D01*
X71207333Y-53719504D01*
X71207333Y-53481409D01*
X71254952Y-53386171D01*
X71302571Y-53338552D01*
X71397809Y-53290933D01*
X71635904Y-53290933D01*
X71731142Y-53338552D01*
X71778761Y-53386171D01*
X71826380Y-53481409D01*
X71826380Y-53719504D01*
X71778761Y-53814742D01*
X71731142Y-53862361D01*
%TO.C,J4*%
X74977666Y-61999880D02*
X74977666Y-62714166D01*
X74930047Y-62857023D01*
X74834809Y-62952261D01*
X74691952Y-62999880D01*
X74596714Y-62999880D01*
X75882428Y-62333214D02*
X75882428Y-62999880D01*
X75644333Y-61952261D02*
X75406238Y-62666547D01*
X76025285Y-62666547D01*
%TO.C,JP4*%
X70877180Y-65831933D02*
X71591466Y-65831933D01*
X71734323Y-65879552D01*
X71829561Y-65974790D01*
X71877180Y-66117647D01*
X71877180Y-66212885D01*
X71877180Y-65355742D02*
X70877180Y-65355742D01*
X70877180Y-64974790D01*
X70924800Y-64879552D01*
X70972419Y-64831933D01*
X71067657Y-64784314D01*
X71210514Y-64784314D01*
X71305752Y-64831933D01*
X71353371Y-64879552D01*
X71400990Y-64974790D01*
X71400990Y-65355742D01*
X71210514Y-63927171D02*
X71877180Y-63927171D01*
X70829561Y-64165266D02*
X71543847Y-64403361D01*
X71543847Y-63784314D01*
%TO.C,JP3*%
X62012580Y-55646533D02*
X62726866Y-55646533D01*
X62869723Y-55694152D01*
X62964961Y-55789390D01*
X63012580Y-55932247D01*
X63012580Y-56027485D01*
X63012580Y-55170342D02*
X62012580Y-55170342D01*
X62012580Y-54789390D01*
X62060200Y-54694152D01*
X62107819Y-54646533D01*
X62203057Y-54598914D01*
X62345914Y-54598914D01*
X62441152Y-54646533D01*
X62488771Y-54694152D01*
X62536390Y-54789390D01*
X62536390Y-55170342D01*
X62012580Y-54265580D02*
X62012580Y-53646533D01*
X62393533Y-53979866D01*
X62393533Y-53837009D01*
X62441152Y-53741771D01*
X62488771Y-53694152D01*
X62584009Y-53646533D01*
X62822104Y-53646533D01*
X62917342Y-53694152D01*
X62964961Y-53741771D01*
X63012580Y-53837009D01*
X63012580Y-54122723D01*
X62964961Y-54217961D01*
X62917342Y-54265580D01*
%TO.C,J2*%
X66252766Y-61974480D02*
X66252766Y-62688766D01*
X66205147Y-62831623D01*
X66109909Y-62926861D01*
X65967052Y-62974480D01*
X65871814Y-62974480D01*
X66681338Y-62069719D02*
X66728957Y-62022100D01*
X66824195Y-61974480D01*
X67062290Y-61974480D01*
X67157528Y-62022100D01*
X67205147Y-62069719D01*
X67252766Y-62164957D01*
X67252766Y-62260195D01*
X67205147Y-62403052D01*
X66633719Y-62974480D01*
X67252766Y-62974480D01*
%TO.C,JP2*%
X62012580Y-66111333D02*
X62726866Y-66111333D01*
X62869723Y-66158952D01*
X62964961Y-66254190D01*
X63012580Y-66397047D01*
X63012580Y-66492285D01*
X63012580Y-65635142D02*
X62012580Y-65635142D01*
X62012580Y-65254190D01*
X62060200Y-65158952D01*
X62107819Y-65111333D01*
X62203057Y-65063714D01*
X62345914Y-65063714D01*
X62441152Y-65111333D01*
X62488771Y-65158952D01*
X62536390Y-65254190D01*
X62536390Y-65635142D01*
X62107819Y-64682761D02*
X62060200Y-64635142D01*
X62012580Y-64539904D01*
X62012580Y-64301809D01*
X62060200Y-64206571D01*
X62107819Y-64158952D01*
X62203057Y-64111333D01*
X62298295Y-64111333D01*
X62441152Y-64158952D01*
X63012580Y-64730380D01*
X63012580Y-64111333D01*
%TD*%
M02*
