M48
; DRILL file {KiCad (5.1.10-1-10_14)} date Sunday, January 16, 2022 at 12:04:31 AM
; FORMAT={-:-/ absolute / inch / decimal}
; #@! TF.CreationDate,2022-01-16T00:04:31-08:00
; #@! TF.GenerationSoftware,Kicad,Pcbnew,(5.1.10-1-10_14)
; #@! TF.FileFunction,NonPlated,1,2,NPTH
FMAT,2
INCH
T1C0.0394
T2C0.0827
%
G90
G05
T1
G00X2.1763Y-2.0897
M15
G01X2.1763Y-2.0463
M16
G05
G00X2.1763Y-2.4987
M15
G01X2.1763Y-2.4553
M16
G05
G00X2.2197Y-2.0463
M15
G01X2.1763Y-2.0463
M16
G05
G00X2.2197Y-2.0897
M15
G01X2.1763Y-2.0897
M16
G05
G00X2.2197Y-2.4553
M15
G01X2.1763Y-2.4553
M16
G05
G00X2.2197Y-2.4987
M15
G01X2.1763Y-2.4987
M16
G05
G00X2.2197Y-2.0897
M15
G01X2.2197Y-2.0463
M16
G05
G00X2.2197Y-2.4987
M15
G01X2.2197Y-2.4553
M16
G05
G00X2.5184Y-2.0877
M15
G01X2.5184Y-2.0443
M16
G05
G00X2.5193Y-2.4987
M15
G01X2.5193Y-2.4553
M16
G05
G00X2.5617Y-2.0443
M15
G01X2.5184Y-2.0443
M16
G05
G00X2.5617Y-2.0877
M15
G01X2.5184Y-2.0877
M16
G05
G00X2.5627Y-2.4553
M15
G01X2.5193Y-2.4553
M16
G05
G00X2.5627Y-2.4987
M15
G01X2.5193Y-2.4987
M16
G05
G00X2.5617Y-2.0877
M15
G01X2.5617Y-2.0443
M16
G05
G00X2.5627Y-2.4987
M15
G01X2.5627Y-2.4553
M16
G05
G00X2.8623Y-2.0877
M15
G01X2.8623Y-2.0443
M16
G05
G00X2.8633Y-2.4987
M15
G01X2.8633Y-2.4553
M16
G05
G00X2.9057Y-2.0443
M15
G01X2.8623Y-2.0443
M16
G05
G00X2.9057Y-2.0877
M15
G01X2.8623Y-2.0877
M16
G05
G00X2.9067Y-2.4553
M15
G01X2.8633Y-2.4553
M16
G05
G00X2.9067Y-2.4987
M15
G01X2.8633Y-2.4987
M16
G05
G00X2.9057Y-2.0877
M15
G01X2.9057Y-2.0443
M16
G05
G00X2.9067Y-2.4987
M15
G01X2.9067Y-2.4553
M16
G05
G00X3.2053Y-2.4987
M15
G01X3.2053Y-2.4553
M16
G05
G00X3.2058Y-2.0877
M15
G01X3.2058Y-2.0443
M16
G05
G00X3.2487Y-2.4553
M15
G01X3.2053Y-2.4553
M16
G05
G00X3.2487Y-2.4987
M15
G01X3.2053Y-2.4987
M16
G05
G00X3.2492Y-2.0443
M15
G01X3.2058Y-2.0443
M16
G05
G00X3.2492Y-2.0877
M15
G01X3.2058Y-2.0877
M16
G05
G00X3.2487Y-2.4987
M15
G01X3.2487Y-2.4553
M16
G05
G00X3.2492Y-2.0877
M15
G01X3.2492Y-2.0443
M16
G05
T2
G00X2.198Y-2.068
M15
G01X2.198Y-2.068
M16
G05
G00X2.198Y-2.477
M15
G01X2.198Y-2.477
M16
G05
G00X2.54Y-2.066
M15
G01X2.54Y-2.066
M16
G05
G00X2.541Y-2.477
M15
G01X2.541Y-2.477
M16
G05
G00X2.884Y-2.066
M15
G01X2.884Y-2.066
M16
G05
G00X2.885Y-2.477
M15
G01X2.885Y-2.477
M16
G05
G00X3.227Y-2.477
M15
G01X3.227Y-2.477
M16
G05
G00X3.2275Y-2.066
M15
G01X3.2275Y-2.066
M16
G05
T0
M30
