%TF.GenerationSoftware,KiCad,Pcbnew,(5.1.10-1-10_14)*%
%TF.CreationDate,2022-01-16T00:04:22-08:00*%
%TF.ProjectId,FanExpander-kicad,46616e45-7870-4616-9e64-65722d6b6963,rev?*%
%TF.SameCoordinates,Original*%
%TF.FileFunction,Copper,L2,Bot*%
%TF.FilePolarity,Positive*%
%FSLAX46Y46*%
G04 Gerber Fmt 4.6, Leading zero omitted, Abs format (unit mm)*
G04 Created by KiCad (PCBNEW (5.1.10-1-10_14)) date 2022-01-16 00:04:22*
%MOMM*%
%LPD*%
G01*
G04 APERTURE LIST*
%TA.AperFunction,SMDPad,CuDef*%
%ADD10C,0.100000*%
%TD*%
%TA.AperFunction,SMDPad,CuDef*%
%ADD11C,0.500000*%
%TD*%
%TA.AperFunction,ComponentPad*%
%ADD12C,2.600000*%
%TD*%
%TA.AperFunction,ComponentPad*%
%ADD13R,2.600000X2.600000*%
%TD*%
%TA.AperFunction,ComponentPad*%
%ADD14R,1.000000X1.000000*%
%TD*%
%TA.AperFunction,ComponentPad*%
%ADD15O,1.000000X1.000000*%
%TD*%
%TA.AperFunction,ComponentPad*%
%ADD16C,3.000000*%
%TD*%
%TA.AperFunction,ComponentPad*%
%ADD17R,1.700000X1.700000*%
%TD*%
%TA.AperFunction,ComponentPad*%
%ADD18C,1.700000*%
%TD*%
%TA.AperFunction,ComponentPad*%
%ADD19R,1.750000X1.750000*%
%TD*%
%TA.AperFunction,ComponentPad*%
%ADD20C,1.750000*%
%TD*%
%TA.AperFunction,ComponentPad*%
%ADD21C,6.400000*%
%TD*%
%TA.AperFunction,ComponentPad*%
%ADD22O,1.700000X1.700000*%
%TD*%
%TA.AperFunction,SMDPad,CuDef*%
%ADD23R,0.900000X0.500000*%
%TD*%
%TA.AperFunction,SMDPad,CuDef*%
%ADD24R,0.500000X0.900000*%
%TD*%
%TA.AperFunction,SMDPad,CuDef*%
%ADD25R,0.900000X0.800000*%
%TD*%
%TA.AperFunction,ViaPad*%
%ADD26C,0.800000*%
%TD*%
%TA.AperFunction,Conductor*%
%ADD27C,0.500000*%
%TD*%
%TA.AperFunction,Conductor*%
%ADD28C,0.250000*%
%TD*%
%TA.AperFunction,Conductor*%
%ADD29C,0.200000*%
%TD*%
%TA.AperFunction,Conductor*%
%ADD30C,0.254000*%
%TD*%
%TA.AperFunction,Conductor*%
%ADD31C,0.100000*%
%TD*%
G04 APERTURE END LIST*
%TA.AperFunction,SMDPad,CuDef*%
D10*
%TO.P,JP12,2*%
%TO.N,GND*%
G36*
X61429998Y-63385700D02*
G01*
X61429998Y-63410234D01*
X61425188Y-63459065D01*
X61415616Y-63507190D01*
X61401372Y-63554145D01*
X61382595Y-63599478D01*
X61359464Y-63642751D01*
X61332204Y-63683550D01*
X61301076Y-63721479D01*
X61266379Y-63756176D01*
X61228450Y-63787304D01*
X61187651Y-63814564D01*
X61144378Y-63837695D01*
X61099045Y-63856472D01*
X61052090Y-63870716D01*
X61003965Y-63880288D01*
X60955134Y-63885098D01*
X60930600Y-63885098D01*
X60930600Y-63885700D01*
X60430600Y-63885700D01*
X60430600Y-63885098D01*
X60406066Y-63885098D01*
X60357235Y-63880288D01*
X60309110Y-63870716D01*
X60262155Y-63856472D01*
X60216822Y-63837695D01*
X60173549Y-63814564D01*
X60132750Y-63787304D01*
X60094821Y-63756176D01*
X60060124Y-63721479D01*
X60028996Y-63683550D01*
X60001736Y-63642751D01*
X59978605Y-63599478D01*
X59959828Y-63554145D01*
X59945584Y-63507190D01*
X59936012Y-63459065D01*
X59931202Y-63410234D01*
X59931202Y-63385700D01*
X59930600Y-63385700D01*
X59930600Y-62885700D01*
X61430600Y-62885700D01*
X61430600Y-63385700D01*
X61429998Y-63385700D01*
G37*
%TD.AperFunction*%
%TA.AperFunction,SMDPad,CuDef*%
%TO.P,JP12,1*%
%TO.N,/FAN0_Dr*%
G36*
X59930600Y-62585700D02*
G01*
X59930600Y-62085700D01*
X59931202Y-62085700D01*
X59931202Y-62061166D01*
X59936012Y-62012335D01*
X59945584Y-61964210D01*
X59959828Y-61917255D01*
X59978605Y-61871922D01*
X60001736Y-61828649D01*
X60028996Y-61787850D01*
X60060124Y-61749921D01*
X60094821Y-61715224D01*
X60132750Y-61684096D01*
X60173549Y-61656836D01*
X60216822Y-61633705D01*
X60262155Y-61614928D01*
X60309110Y-61600684D01*
X60357235Y-61591112D01*
X60406066Y-61586302D01*
X60430600Y-61586302D01*
X60430600Y-61585700D01*
X60930600Y-61585700D01*
X60930600Y-61586302D01*
X60955134Y-61586302D01*
X61003965Y-61591112D01*
X61052090Y-61600684D01*
X61099045Y-61614928D01*
X61144378Y-61633705D01*
X61187651Y-61656836D01*
X61228450Y-61684096D01*
X61266379Y-61715224D01*
X61301076Y-61749921D01*
X61332204Y-61787850D01*
X61359464Y-61828649D01*
X61382595Y-61871922D01*
X61401372Y-61917255D01*
X61415616Y-61964210D01*
X61425188Y-62012335D01*
X61429998Y-62061166D01*
X61429998Y-62085700D01*
X61430600Y-62085700D01*
X61430600Y-62585700D01*
X59930600Y-62585700D01*
G37*
%TD.AperFunction*%
%TD*%
%TA.AperFunction,SMDPad,CuDef*%
%TO.P,JP14,2*%
%TO.N,/24V_unFused*%
G36*
X65836800Y-71361398D02*
G01*
X65812266Y-71361398D01*
X65763435Y-71356588D01*
X65715310Y-71347016D01*
X65668355Y-71332772D01*
X65623022Y-71313995D01*
X65579749Y-71290864D01*
X65538950Y-71263604D01*
X65501021Y-71232476D01*
X65466324Y-71197779D01*
X65435196Y-71159850D01*
X65407936Y-71119051D01*
X65384805Y-71075778D01*
X65366028Y-71030445D01*
X65351784Y-70983490D01*
X65342212Y-70935365D01*
X65337402Y-70886534D01*
X65337402Y-70862000D01*
X65336800Y-70862000D01*
X65336800Y-70362000D01*
X65337402Y-70362000D01*
X65337402Y-70337466D01*
X65342212Y-70288635D01*
X65351784Y-70240510D01*
X65366028Y-70193555D01*
X65384805Y-70148222D01*
X65407936Y-70104949D01*
X65435196Y-70064150D01*
X65466324Y-70026221D01*
X65501021Y-69991524D01*
X65538950Y-69960396D01*
X65579749Y-69933136D01*
X65623022Y-69910005D01*
X65668355Y-69891228D01*
X65715310Y-69876984D01*
X65763435Y-69867412D01*
X65812266Y-69862602D01*
X65836800Y-69862602D01*
X65836800Y-69862000D01*
X66336800Y-69862000D01*
X66336800Y-71362000D01*
X65836800Y-71362000D01*
X65836800Y-71361398D01*
G37*
%TD.AperFunction*%
%TA.AperFunction,SMDPad,CuDef*%
%TO.P,JP14,1*%
%TO.N,/24v_Screw*%
G36*
X66636800Y-69862000D02*
G01*
X67136800Y-69862000D01*
X67136800Y-69862602D01*
X67161334Y-69862602D01*
X67210165Y-69867412D01*
X67258290Y-69876984D01*
X67305245Y-69891228D01*
X67350578Y-69910005D01*
X67393851Y-69933136D01*
X67434650Y-69960396D01*
X67472579Y-69991524D01*
X67507276Y-70026221D01*
X67538404Y-70064150D01*
X67565664Y-70104949D01*
X67588795Y-70148222D01*
X67607572Y-70193555D01*
X67621816Y-70240510D01*
X67631388Y-70288635D01*
X67636198Y-70337466D01*
X67636198Y-70362000D01*
X67636800Y-70362000D01*
X67636800Y-70862000D01*
X67636198Y-70862000D01*
X67636198Y-70886534D01*
X67631388Y-70935365D01*
X67621816Y-70983490D01*
X67607572Y-71030445D01*
X67588795Y-71075778D01*
X67565664Y-71119051D01*
X67538404Y-71159850D01*
X67507276Y-71197779D01*
X67472579Y-71232476D01*
X67434650Y-71263604D01*
X67393851Y-71290864D01*
X67350578Y-71313995D01*
X67305245Y-71332772D01*
X67258290Y-71347016D01*
X67210165Y-71356588D01*
X67161334Y-71361398D01*
X67136800Y-71361398D01*
X67136800Y-71362000D01*
X66636800Y-71362000D01*
X66636800Y-69862000D01*
G37*
%TD.AperFunction*%
%TD*%
%TA.AperFunction,SMDPad,CuDef*%
%TO.P,JP13,2*%
%TO.N,/5V_unFused*%
G36*
X75996800Y-71361398D02*
G01*
X75972266Y-71361398D01*
X75923435Y-71356588D01*
X75875310Y-71347016D01*
X75828355Y-71332772D01*
X75783022Y-71313995D01*
X75739749Y-71290864D01*
X75698950Y-71263604D01*
X75661021Y-71232476D01*
X75626324Y-71197779D01*
X75595196Y-71159850D01*
X75567936Y-71119051D01*
X75544805Y-71075778D01*
X75526028Y-71030445D01*
X75511784Y-70983490D01*
X75502212Y-70935365D01*
X75497402Y-70886534D01*
X75497402Y-70862000D01*
X75496800Y-70862000D01*
X75496800Y-70362000D01*
X75497402Y-70362000D01*
X75497402Y-70337466D01*
X75502212Y-70288635D01*
X75511784Y-70240510D01*
X75526028Y-70193555D01*
X75544805Y-70148222D01*
X75567936Y-70104949D01*
X75595196Y-70064150D01*
X75626324Y-70026221D01*
X75661021Y-69991524D01*
X75698950Y-69960396D01*
X75739749Y-69933136D01*
X75783022Y-69910005D01*
X75828355Y-69891228D01*
X75875310Y-69876984D01*
X75923435Y-69867412D01*
X75972266Y-69862602D01*
X75996800Y-69862602D01*
X75996800Y-69862000D01*
X76496800Y-69862000D01*
X76496800Y-71362000D01*
X75996800Y-71362000D01*
X75996800Y-71361398D01*
G37*
%TD.AperFunction*%
%TA.AperFunction,SMDPad,CuDef*%
%TO.P,JP13,1*%
%TO.N,/5V_Screw*%
G36*
X76796800Y-69862000D02*
G01*
X77296800Y-69862000D01*
X77296800Y-69862602D01*
X77321334Y-69862602D01*
X77370165Y-69867412D01*
X77418290Y-69876984D01*
X77465245Y-69891228D01*
X77510578Y-69910005D01*
X77553851Y-69933136D01*
X77594650Y-69960396D01*
X77632579Y-69991524D01*
X77667276Y-70026221D01*
X77698404Y-70064150D01*
X77725664Y-70104949D01*
X77748795Y-70148222D01*
X77767572Y-70193555D01*
X77781816Y-70240510D01*
X77791388Y-70288635D01*
X77796198Y-70337466D01*
X77796198Y-70362000D01*
X77796800Y-70362000D01*
X77796800Y-70862000D01*
X77796198Y-70862000D01*
X77796198Y-70886534D01*
X77791388Y-70935365D01*
X77781816Y-70983490D01*
X77767572Y-71030445D01*
X77748795Y-71075778D01*
X77725664Y-71119051D01*
X77698404Y-71159850D01*
X77667276Y-71197779D01*
X77632579Y-71232476D01*
X77594650Y-71263604D01*
X77553851Y-71290864D01*
X77510578Y-71313995D01*
X77465245Y-71332772D01*
X77418290Y-71347016D01*
X77370165Y-71356588D01*
X77321334Y-71361398D01*
X77296800Y-71361398D01*
X77296800Y-71362000D01*
X76796800Y-71362000D01*
X76796800Y-69862000D01*
G37*
%TD.AperFunction*%
%TD*%
%TA.AperFunction,SMDPad,CuDef*%
%TO.P,JP8,1*%
%TO.N,/5V_EXP*%
G36*
X48018800Y-64427800D02*
G01*
X47518800Y-64427800D01*
X47518800Y-64427198D01*
X47494266Y-64427198D01*
X47445435Y-64422388D01*
X47397310Y-64412816D01*
X47350355Y-64398572D01*
X47305022Y-64379795D01*
X47261749Y-64356664D01*
X47220950Y-64329404D01*
X47183021Y-64298276D01*
X47148324Y-64263579D01*
X47117196Y-64225650D01*
X47089936Y-64184851D01*
X47066805Y-64141578D01*
X47048028Y-64096245D01*
X47033784Y-64049290D01*
X47024212Y-64001165D01*
X47019402Y-63952334D01*
X47019402Y-63927800D01*
X47018800Y-63927800D01*
X47018800Y-63427800D01*
X47019402Y-63427800D01*
X47019402Y-63403266D01*
X47024212Y-63354435D01*
X47033784Y-63306310D01*
X47048028Y-63259355D01*
X47066805Y-63214022D01*
X47089936Y-63170749D01*
X47117196Y-63129950D01*
X47148324Y-63092021D01*
X47183021Y-63057324D01*
X47220950Y-63026196D01*
X47261749Y-62998936D01*
X47305022Y-62975805D01*
X47350355Y-62957028D01*
X47397310Y-62942784D01*
X47445435Y-62933212D01*
X47494266Y-62928402D01*
X47518800Y-62928402D01*
X47518800Y-62927800D01*
X48018800Y-62927800D01*
X48018800Y-64427800D01*
G37*
%TD.AperFunction*%
%TA.AperFunction,SMDPad,CuDef*%
%TO.P,JP8,2*%
%TO.N,/5V_unFused*%
G36*
X48818800Y-62928402D02*
G01*
X48843334Y-62928402D01*
X48892165Y-62933212D01*
X48940290Y-62942784D01*
X48987245Y-62957028D01*
X49032578Y-62975805D01*
X49075851Y-62998936D01*
X49116650Y-63026196D01*
X49154579Y-63057324D01*
X49189276Y-63092021D01*
X49220404Y-63129950D01*
X49247664Y-63170749D01*
X49270795Y-63214022D01*
X49289572Y-63259355D01*
X49303816Y-63306310D01*
X49313388Y-63354435D01*
X49318198Y-63403266D01*
X49318198Y-63427800D01*
X49318800Y-63427800D01*
X49318800Y-63927800D01*
X49318198Y-63927800D01*
X49318198Y-63952334D01*
X49313388Y-64001165D01*
X49303816Y-64049290D01*
X49289572Y-64096245D01*
X49270795Y-64141578D01*
X49247664Y-64184851D01*
X49220404Y-64225650D01*
X49189276Y-64263579D01*
X49154579Y-64298276D01*
X49116650Y-64329404D01*
X49075851Y-64356664D01*
X49032578Y-64379795D01*
X48987245Y-64398572D01*
X48940290Y-64412816D01*
X48892165Y-64422388D01*
X48843334Y-64427198D01*
X48818800Y-64427198D01*
X48818800Y-64427800D01*
X48318800Y-64427800D01*
X48318800Y-62927800D01*
X48818800Y-62927800D01*
X48818800Y-62928402D01*
G37*
%TD.AperFunction*%
%TD*%
%TA.AperFunction,SMDPad,CuDef*%
%TO.P,JP9,1*%
%TO.N,+5V*%
G36*
X57314400Y-58102600D02*
G01*
X57314400Y-57602600D01*
X57315002Y-57602600D01*
X57315002Y-57578066D01*
X57319812Y-57529235D01*
X57329384Y-57481110D01*
X57343628Y-57434155D01*
X57362405Y-57388822D01*
X57385536Y-57345549D01*
X57412796Y-57304750D01*
X57443924Y-57266821D01*
X57478621Y-57232124D01*
X57516550Y-57200996D01*
X57557349Y-57173736D01*
X57600622Y-57150605D01*
X57645955Y-57131828D01*
X57692910Y-57117584D01*
X57741035Y-57108012D01*
X57789866Y-57103202D01*
X57814400Y-57103202D01*
X57814400Y-57102600D01*
X58314400Y-57102600D01*
X58314400Y-57103202D01*
X58338934Y-57103202D01*
X58387765Y-57108012D01*
X58435890Y-57117584D01*
X58482845Y-57131828D01*
X58528178Y-57150605D01*
X58571451Y-57173736D01*
X58612250Y-57200996D01*
X58650179Y-57232124D01*
X58684876Y-57266821D01*
X58716004Y-57304750D01*
X58743264Y-57345549D01*
X58766395Y-57388822D01*
X58785172Y-57434155D01*
X58799416Y-57481110D01*
X58808988Y-57529235D01*
X58813798Y-57578066D01*
X58813798Y-57602600D01*
X58814400Y-57602600D01*
X58814400Y-58102600D01*
X57314400Y-58102600D01*
G37*
%TD.AperFunction*%
%TA.AperFunction,SMDPad,CuDef*%
%TO.P,JP9,2*%
%TO.N,/LED_Drive*%
G36*
X58813798Y-58902600D02*
G01*
X58813798Y-58927134D01*
X58808988Y-58975965D01*
X58799416Y-59024090D01*
X58785172Y-59071045D01*
X58766395Y-59116378D01*
X58743264Y-59159651D01*
X58716004Y-59200450D01*
X58684876Y-59238379D01*
X58650179Y-59273076D01*
X58612250Y-59304204D01*
X58571451Y-59331464D01*
X58528178Y-59354595D01*
X58482845Y-59373372D01*
X58435890Y-59387616D01*
X58387765Y-59397188D01*
X58338934Y-59401998D01*
X58314400Y-59401998D01*
X58314400Y-59402600D01*
X57814400Y-59402600D01*
X57814400Y-59401998D01*
X57789866Y-59401998D01*
X57741035Y-59397188D01*
X57692910Y-59387616D01*
X57645955Y-59373372D01*
X57600622Y-59354595D01*
X57557349Y-59331464D01*
X57516550Y-59304204D01*
X57478621Y-59273076D01*
X57443924Y-59238379D01*
X57412796Y-59200450D01*
X57385536Y-59159651D01*
X57362405Y-59116378D01*
X57343628Y-59071045D01*
X57329384Y-59024090D01*
X57319812Y-58975965D01*
X57315002Y-58927134D01*
X57315002Y-58902600D01*
X57314400Y-58902600D01*
X57314400Y-58402600D01*
X58814400Y-58402600D01*
X58814400Y-58902600D01*
X58813798Y-58902600D01*
G37*
%TD.AperFunction*%
%TD*%
%TA.AperFunction,SMDPad,CuDef*%
%TO.P,JP11,1*%
%TO.N,/24V_F0*%
G36*
X51345400Y-61749800D02*
G01*
X51345400Y-61249800D01*
X51346002Y-61249800D01*
X51346002Y-61225266D01*
X51350812Y-61176435D01*
X51360384Y-61128310D01*
X51374628Y-61081355D01*
X51393405Y-61036022D01*
X51416536Y-60992749D01*
X51443796Y-60951950D01*
X51474924Y-60914021D01*
X51509621Y-60879324D01*
X51547550Y-60848196D01*
X51588349Y-60820936D01*
X51631622Y-60797805D01*
X51676955Y-60779028D01*
X51723910Y-60764784D01*
X51772035Y-60755212D01*
X51820866Y-60750402D01*
X51845400Y-60750402D01*
X51845400Y-60749800D01*
X52345400Y-60749800D01*
X52345400Y-60750402D01*
X52369934Y-60750402D01*
X52418765Y-60755212D01*
X52466890Y-60764784D01*
X52513845Y-60779028D01*
X52559178Y-60797805D01*
X52602451Y-60820936D01*
X52643250Y-60848196D01*
X52681179Y-60879324D01*
X52715876Y-60914021D01*
X52747004Y-60951950D01*
X52774264Y-60992749D01*
X52797395Y-61036022D01*
X52816172Y-61081355D01*
X52830416Y-61128310D01*
X52839988Y-61176435D01*
X52844798Y-61225266D01*
X52844798Y-61249800D01*
X52845400Y-61249800D01*
X52845400Y-61749800D01*
X51345400Y-61749800D01*
G37*
%TD.AperFunction*%
%TA.AperFunction,SMDPad,CuDef*%
%TO.P,JP11,2*%
%TO.N,/24V_unFused*%
G36*
X52844798Y-62549800D02*
G01*
X52844798Y-62574334D01*
X52839988Y-62623165D01*
X52830416Y-62671290D01*
X52816172Y-62718245D01*
X52797395Y-62763578D01*
X52774264Y-62806851D01*
X52747004Y-62847650D01*
X52715876Y-62885579D01*
X52681179Y-62920276D01*
X52643250Y-62951404D01*
X52602451Y-62978664D01*
X52559178Y-63001795D01*
X52513845Y-63020572D01*
X52466890Y-63034816D01*
X52418765Y-63044388D01*
X52369934Y-63049198D01*
X52345400Y-63049198D01*
X52345400Y-63049800D01*
X51845400Y-63049800D01*
X51845400Y-63049198D01*
X51820866Y-63049198D01*
X51772035Y-63044388D01*
X51723910Y-63034816D01*
X51676955Y-63020572D01*
X51631622Y-63001795D01*
X51588349Y-62978664D01*
X51547550Y-62951404D01*
X51509621Y-62920276D01*
X51474924Y-62885579D01*
X51443796Y-62847650D01*
X51416536Y-62806851D01*
X51393405Y-62763578D01*
X51374628Y-62718245D01*
X51360384Y-62671290D01*
X51350812Y-62623165D01*
X51346002Y-62574334D01*
X51346002Y-62549800D01*
X51345400Y-62549800D01*
X51345400Y-62049800D01*
X52845400Y-62049800D01*
X52845400Y-62549800D01*
X52844798Y-62549800D01*
G37*
%TD.AperFunction*%
%TD*%
%TO.P,D8,2*%
%TO.N,Net-(D8-Pad2)*%
%TA.AperFunction,SMDPad,CuDef*%
G36*
G01*
X80890800Y-62230800D02*
X80890800Y-63600800D01*
G75*
G02*
X80700800Y-63790800I-190000J0D01*
G01*
X80130800Y-63790800D01*
G75*
G02*
X79940800Y-63600800I0J190000D01*
G01*
X79940800Y-62230800D01*
G75*
G02*
X80130800Y-62040800I190000J0D01*
G01*
X80700800Y-62040800D01*
G75*
G02*
X80890800Y-62230800I0J-190000D01*
G01*
G37*
%TD.AperFunction*%
%TO.P,D8,1*%
%TO.N,/FAN6_Dr*%
%TA.AperFunction,SMDPad,CuDef*%
G36*
G01*
X83990800Y-62230800D02*
X83990800Y-63600800D01*
G75*
G02*
X83800800Y-63790800I-190000J0D01*
G01*
X83230800Y-63790800D01*
G75*
G02*
X83040800Y-63600800I0J190000D01*
G01*
X83040800Y-62230800D01*
G75*
G02*
X83230800Y-62040800I190000J0D01*
G01*
X83800800Y-62040800D01*
G75*
G02*
X83990800Y-62230800I0J-190000D01*
G01*
G37*
%TD.AperFunction*%
%TD*%
%TO.P,D7,2*%
%TO.N,Net-(D7-Pad2)*%
%TA.AperFunction,SMDPad,CuDef*%
G36*
G01*
X72178600Y-51791400D02*
X72178600Y-53161400D01*
G75*
G02*
X71988600Y-53351400I-190000J0D01*
G01*
X71418600Y-53351400D01*
G75*
G02*
X71228600Y-53161400I0J190000D01*
G01*
X71228600Y-51791400D01*
G75*
G02*
X71418600Y-51601400I190000J0D01*
G01*
X71988600Y-51601400D01*
G75*
G02*
X72178600Y-51791400I0J-190000D01*
G01*
G37*
%TD.AperFunction*%
%TO.P,D7,1*%
%TO.N,/FAN5_Dr*%
%TA.AperFunction,SMDPad,CuDef*%
G36*
G01*
X75278600Y-51791400D02*
X75278600Y-53161400D01*
G75*
G02*
X75088600Y-53351400I-190000J0D01*
G01*
X74518600Y-53351400D01*
G75*
G02*
X74328600Y-53161400I0J190000D01*
G01*
X74328600Y-51791400D01*
G75*
G02*
X74518600Y-51601400I190000J0D01*
G01*
X75088600Y-51601400D01*
G75*
G02*
X75278600Y-51791400I0J-190000D01*
G01*
G37*
%TD.AperFunction*%
%TD*%
%TO.P,D6,2*%
%TO.N,Net-(D6-Pad2)*%
%TA.AperFunction,SMDPad,CuDef*%
G36*
G01*
X72204000Y-62230800D02*
X72204000Y-63600800D01*
G75*
G02*
X72014000Y-63790800I-190000J0D01*
G01*
X71444000Y-63790800D01*
G75*
G02*
X71254000Y-63600800I0J190000D01*
G01*
X71254000Y-62230800D01*
G75*
G02*
X71444000Y-62040800I190000J0D01*
G01*
X72014000Y-62040800D01*
G75*
G02*
X72204000Y-62230800I0J-190000D01*
G01*
G37*
%TD.AperFunction*%
%TO.P,D6,1*%
%TO.N,/FAN4_Dr*%
%TA.AperFunction,SMDPad,CuDef*%
G36*
G01*
X75304000Y-62230800D02*
X75304000Y-63600800D01*
G75*
G02*
X75114000Y-63790800I-190000J0D01*
G01*
X74544000Y-63790800D01*
G75*
G02*
X74354000Y-63600800I0J190000D01*
G01*
X74354000Y-62230800D01*
G75*
G02*
X74544000Y-62040800I190000J0D01*
G01*
X75114000Y-62040800D01*
G75*
G02*
X75304000Y-62230800I0J-190000D01*
G01*
G37*
%TD.AperFunction*%
%TD*%
%TO.P,D5,2*%
%TO.N,Net-(D5-Pad2)*%
%TA.AperFunction,SMDPad,CuDef*%
G36*
G01*
X63441600Y-51791400D02*
X63441600Y-53161400D01*
G75*
G02*
X63251600Y-53351400I-190000J0D01*
G01*
X62681600Y-53351400D01*
G75*
G02*
X62491600Y-53161400I0J190000D01*
G01*
X62491600Y-51791400D01*
G75*
G02*
X62681600Y-51601400I190000J0D01*
G01*
X63251600Y-51601400D01*
G75*
G02*
X63441600Y-51791400I0J-190000D01*
G01*
G37*
%TD.AperFunction*%
%TO.P,D5,1*%
%TO.N,/FAN3_Dr*%
%TA.AperFunction,SMDPad,CuDef*%
G36*
G01*
X66541600Y-51791400D02*
X66541600Y-53161400D01*
G75*
G02*
X66351600Y-53351400I-190000J0D01*
G01*
X65781600Y-53351400D01*
G75*
G02*
X65591600Y-53161400I0J190000D01*
G01*
X65591600Y-51791400D01*
G75*
G02*
X65781600Y-51601400I190000J0D01*
G01*
X66351600Y-51601400D01*
G75*
G02*
X66541600Y-51791400I0J-190000D01*
G01*
G37*
%TD.AperFunction*%
%TD*%
%TO.P,D4,2*%
%TO.N,Net-(D4-Pad2)*%
%TA.AperFunction,SMDPad,CuDef*%
G36*
G01*
X63466400Y-62230800D02*
X63466400Y-63600800D01*
G75*
G02*
X63276400Y-63790800I-190000J0D01*
G01*
X62706400Y-63790800D01*
G75*
G02*
X62516400Y-63600800I0J190000D01*
G01*
X62516400Y-62230800D01*
G75*
G02*
X62706400Y-62040800I190000J0D01*
G01*
X63276400Y-62040800D01*
G75*
G02*
X63466400Y-62230800I0J-190000D01*
G01*
G37*
%TD.AperFunction*%
%TO.P,D4,1*%
%TO.N,/FAN2_Dr*%
%TA.AperFunction,SMDPad,CuDef*%
G36*
G01*
X66566400Y-62230800D02*
X66566400Y-63600800D01*
G75*
G02*
X66376400Y-63790800I-190000J0D01*
G01*
X65806400Y-63790800D01*
G75*
G02*
X65616400Y-63600800I0J190000D01*
G01*
X65616400Y-62230800D01*
G75*
G02*
X65806400Y-62040800I190000J0D01*
G01*
X66376400Y-62040800D01*
G75*
G02*
X66566400Y-62230800I0J-190000D01*
G01*
G37*
%TD.AperFunction*%
%TD*%
%TO.P,D3,2*%
%TO.N,Net-(D3-Pad2)*%
%TA.AperFunction,SMDPad,CuDef*%
G36*
G01*
X54754200Y-62230800D02*
X54754200Y-63600800D01*
G75*
G02*
X54564200Y-63790800I-190000J0D01*
G01*
X53994200Y-63790800D01*
G75*
G02*
X53804200Y-63600800I0J190000D01*
G01*
X53804200Y-62230800D01*
G75*
G02*
X53994200Y-62040800I190000J0D01*
G01*
X54564200Y-62040800D01*
G75*
G02*
X54754200Y-62230800I0J-190000D01*
G01*
G37*
%TD.AperFunction*%
%TO.P,D3,1*%
%TO.N,/FAN0_Dr*%
%TA.AperFunction,SMDPad,CuDef*%
G36*
G01*
X57854200Y-62230800D02*
X57854200Y-63600800D01*
G75*
G02*
X57664200Y-63790800I-190000J0D01*
G01*
X57094200Y-63790800D01*
G75*
G02*
X56904200Y-63600800I0J190000D01*
G01*
X56904200Y-62230800D01*
G75*
G02*
X57094200Y-62040800I190000J0D01*
G01*
X57664200Y-62040800D01*
G75*
G02*
X57854200Y-62230800I0J-190000D01*
G01*
G37*
%TD.AperFunction*%
%TD*%
%TO.P,D2,2*%
%TO.N,Net-(D2-Pad2)*%
%TA.AperFunction,SMDPad,CuDef*%
G36*
G01*
X80903500Y-51791400D02*
X80903500Y-53161400D01*
G75*
G02*
X80713500Y-53351400I-190000J0D01*
G01*
X80143500Y-53351400D01*
G75*
G02*
X79953500Y-53161400I0J190000D01*
G01*
X79953500Y-51791400D01*
G75*
G02*
X80143500Y-51601400I190000J0D01*
G01*
X80713500Y-51601400D01*
G75*
G02*
X80903500Y-51791400I0J-190000D01*
G01*
G37*
%TD.AperFunction*%
%TO.P,D2,1*%
%TO.N,/FAN7_Dr*%
%TA.AperFunction,SMDPad,CuDef*%
G36*
G01*
X84003500Y-51791400D02*
X84003500Y-53161400D01*
G75*
G02*
X83813500Y-53351400I-190000J0D01*
G01*
X83243500Y-53351400D01*
G75*
G02*
X83053500Y-53161400I0J190000D01*
G01*
X83053500Y-51791400D01*
G75*
G02*
X83243500Y-51601400I190000J0D01*
G01*
X83813500Y-51601400D01*
G75*
G02*
X84003500Y-51791400I0J-190000D01*
G01*
G37*
%TD.AperFunction*%
%TD*%
%TO.P,D1,2*%
%TO.N,Net-(D1-Pad2)*%
%TA.AperFunction,SMDPad,CuDef*%
G36*
G01*
X54754200Y-51842200D02*
X54754200Y-53212200D01*
G75*
G02*
X54564200Y-53402200I-190000J0D01*
G01*
X53994200Y-53402200D01*
G75*
G02*
X53804200Y-53212200I0J190000D01*
G01*
X53804200Y-51842200D01*
G75*
G02*
X53994200Y-51652200I190000J0D01*
G01*
X54564200Y-51652200D01*
G75*
G02*
X54754200Y-51842200I0J-190000D01*
G01*
G37*
%TD.AperFunction*%
%TO.P,D1,1*%
%TO.N,/FAN1_Dr*%
%TA.AperFunction,SMDPad,CuDef*%
G36*
G01*
X57854200Y-51842200D02*
X57854200Y-53212200D01*
G75*
G02*
X57664200Y-53402200I-190000J0D01*
G01*
X57094200Y-53402200D01*
G75*
G02*
X56904200Y-53212200I0J190000D01*
G01*
X56904200Y-51842200D01*
G75*
G02*
X57094200Y-51652200I190000J0D01*
G01*
X57664200Y-51652200D01*
G75*
G02*
X57854200Y-51842200I0J-190000D01*
G01*
G37*
%TD.AperFunction*%
%TD*%
D11*
%TO.P,FID3,~*%
%TO.N,N/C*%
X82092800Y-77800200D03*
%TD*%
%TO.P,FID2,~*%
%TO.N,N/C*%
X39268400Y-65303400D03*
%TD*%
%TO.P,FID1,~*%
%TO.N,N/C*%
X39243000Y-49149000D03*
%TD*%
D12*
%TO.P,J12,3*%
%TO.N,/5V_Screw*%
X77292200Y-73710800D03*
%TO.P,J12,2*%
%TO.N,GND*%
X72212200Y-73710800D03*
D13*
%TO.P,J12,1*%
%TO.N,/24v_Screw*%
X67132200Y-73710800D03*
%TD*%
D14*
%TO.P,JP10,1*%
%TO.N,Net-(J8-Pad8)*%
X38303200Y-58470800D03*
D15*
%TO.P,JP10,2*%
%TO.N,/FAN7*%
X38303200Y-57200800D03*
%TO.P,JP10,3*%
%TO.N,Net-(J8-Pad4)*%
X38303200Y-55930800D03*
%TD*%
D16*
%TO.P,F1,2*%
%TO.N,/5V_unFused*%
X48304400Y-70764400D03*
X52004400Y-70764400D03*
%TO.P,F1,1*%
%TO.N,+5V*%
X56504400Y-70764400D03*
X60204400Y-70764400D03*
%TD*%
%TO.P,F2,2*%
%TO.N,/24V_unFused*%
X48304400Y-76225400D03*
X52004400Y-76225400D03*
%TO.P,F2,1*%
%TO.N,+24V*%
X56504400Y-76225400D03*
X60204400Y-76225400D03*
%TD*%
D17*
%TO.P,J8,1*%
%TO.N,/FAN1*%
X40284400Y-52158900D03*
D18*
%TO.P,J8,2*%
%TO.N,/FAN3*%
X42824400Y-52158900D03*
%TO.P,J8,3*%
%TO.N,/FAN5*%
X40284400Y-54698900D03*
%TO.P,J8,4*%
%TO.N,Net-(J8-Pad4)*%
X42824400Y-54698900D03*
%TO.P,J8,5*%
%TO.N,/FAN4*%
X40284400Y-57238900D03*
%TO.P,J8,6*%
%TO.N,/FAN2*%
X42824400Y-57238900D03*
%TO.P,J8,7*%
%TO.N,/FAN6*%
X40284400Y-59778900D03*
%TO.P,J8,8*%
%TO.N,Net-(J8-Pad8)*%
X42824400Y-59778900D03*
%TO.P,J8,9*%
%TO.N,GND*%
X40284400Y-62318900D03*
%TO.P,J8,10*%
%TO.N,/5V_EXP*%
X42824400Y-62318900D03*
%TD*%
D19*
%TO.P,J3,1*%
%TO.N,/F3V*%
X65189100Y-50038000D03*
D20*
%TO.P,J3,2*%
%TO.N,/FAN3_Dr*%
X67689100Y-50038000D03*
%TD*%
D21*
%TO.P,MH1,1*%
%TO.N,GND*%
X50012600Y-52146200D03*
%TD*%
D17*
%TO.P,J9,1*%
%TO.N,GND*%
X51003200Y-66065400D03*
D22*
%TO.P,J9,2*%
%TO.N,/5V_unFused*%
X48463200Y-66065400D03*
%TD*%
D23*
%TO.P,R22,2*%
%TO.N,/LED_Drive*%
X54660800Y-58101800D03*
%TO.P,R22,1*%
%TO.N,Net-(D3-Pad2)*%
X54660800Y-59601800D03*
%TD*%
D24*
%TO.P,R19,1*%
%TO.N,GND*%
X78015400Y-50139600D03*
%TO.P,R19,2*%
%TO.N,/FAN5*%
X79515400Y-50139600D03*
%TD*%
D23*
%TO.P,R17,1*%
%TO.N,Net-(Q6-Pad1)*%
X88036400Y-57797000D03*
%TO.P,R17,2*%
%TO.N,/FAN6*%
X88036400Y-59297000D03*
%TD*%
D24*
%TO.P,R16,1*%
%TO.N,Net-(Q5-Pad1)*%
X78028800Y-48666400D03*
%TO.P,R16,2*%
%TO.N,/FAN5*%
X79528800Y-48666400D03*
%TD*%
D23*
%TO.P,R14,1*%
%TO.N,Net-(D8-Pad2)*%
X80822800Y-59601800D03*
%TO.P,R14,2*%
%TO.N,/LED_Drive*%
X80822800Y-58101800D03*
%TD*%
%TO.P,R13,1*%
%TO.N,Net-(D7-Pad2)*%
X72085200Y-49187800D03*
%TO.P,R13,2*%
%TO.N,/LED_Drive*%
X72085200Y-47687800D03*
%TD*%
D24*
%TO.P,R12,1*%
%TO.N,GND*%
X78066200Y-60579000D03*
%TO.P,R12,2*%
%TO.N,/FAN4*%
X79566200Y-60579000D03*
%TD*%
%TO.P,R11,1*%
%TO.N,GND*%
X69303200Y-50165000D03*
%TO.P,R11,2*%
%TO.N,/FAN3*%
X70803200Y-50165000D03*
%TD*%
%TO.P,R10,1*%
%TO.N,/FAN2*%
X70828600Y-60579000D03*
%TO.P,R10,2*%
%TO.N,GND*%
X69328600Y-60579000D03*
%TD*%
%TO.P,R9,1*%
%TO.N,/FAN1*%
X62116400Y-50139600D03*
%TO.P,R9,2*%
%TO.N,GND*%
X60616400Y-50139600D03*
%TD*%
%TO.P,R8,1*%
%TO.N,Net-(Q4-Pad1)*%
X78066200Y-59131200D03*
%TO.P,R8,2*%
%TO.N,/FAN4*%
X79566200Y-59131200D03*
%TD*%
%TO.P,R7,1*%
%TO.N,Net-(Q3-Pad1)*%
X69303200Y-48691800D03*
%TO.P,R7,2*%
%TO.N,/FAN3*%
X70803200Y-48691800D03*
%TD*%
%TO.P,R6,1*%
%TO.N,Net-(Q2-Pad1)*%
X69328600Y-59105800D03*
%TO.P,R6,2*%
%TO.N,/FAN2*%
X70828600Y-59105800D03*
%TD*%
%TO.P,R5,1*%
%TO.N,Net-(Q1-Pad1)*%
X60616400Y-48666400D03*
%TO.P,R5,2*%
%TO.N,/FAN1*%
X62116400Y-48666400D03*
%TD*%
D23*
%TO.P,R4,1*%
%TO.N,Net-(D6-Pad2)*%
X72085200Y-59627200D03*
%TO.P,R4,2*%
%TO.N,/LED_Drive*%
X72085200Y-58127200D03*
%TD*%
%TO.P,R3,1*%
%TO.N,Net-(D5-Pad2)*%
X63373000Y-49213200D03*
%TO.P,R3,2*%
%TO.N,/LED_Drive*%
X63373000Y-47713200D03*
%TD*%
%TO.P,R2,1*%
%TO.N,Net-(D4-Pad2)*%
X63373000Y-59576400D03*
%TO.P,R2,2*%
%TO.N,/LED_Drive*%
X63373000Y-58076400D03*
%TD*%
%TO.P,R1,1*%
%TO.N,Net-(D1-Pad2)*%
X54686200Y-49199800D03*
%TO.P,R1,2*%
%TO.N,/LED_Drive*%
X54686200Y-47699800D03*
%TD*%
D24*
%TO.P,R21,1*%
%TO.N,/FAN7*%
X88278400Y-50114200D03*
%TO.P,R21,2*%
%TO.N,GND*%
X86778400Y-50114200D03*
%TD*%
%TO.P,R20,1*%
%TO.N,/FAN6*%
X88253000Y-60553600D03*
%TO.P,R20,2*%
%TO.N,GND*%
X86753000Y-60553600D03*
%TD*%
%TO.P,R18,1*%
%TO.N,Net-(Q7-Pad1)*%
X86778400Y-48653000D03*
%TO.P,R18,2*%
%TO.N,/FAN7*%
X88278400Y-48653000D03*
%TD*%
D23*
%TO.P,R15,1*%
%TO.N,Net-(D2-Pad2)*%
X80797400Y-49187800D03*
%TO.P,R15,2*%
%TO.N,/LED_Drive*%
X80797400Y-47687800D03*
%TD*%
D21*
%TO.P,MH2,1*%
%TO.N,GND*%
X85012600Y-74646200D03*
%TD*%
D17*
%TO.P,JP0,1*%
%TO.N,+5V*%
X55346600Y-66192400D03*
D22*
%TO.P,JP0,2*%
%TO.N,/F0V*%
X57886600Y-66192400D03*
%TO.P,JP0,3*%
%TO.N,+24V*%
X60426600Y-66192400D03*
%TD*%
D19*
%TO.P,J10,1*%
%TO.N,/24V_F0*%
X49479200Y-61239400D03*
D20*
%TO.P,J10,2*%
%TO.N,/FAN0_Dr*%
X49479200Y-58739400D03*
%TD*%
D19*
%TO.P,J0,1*%
%TO.N,/F0V*%
X56489600Y-60464700D03*
D20*
%TO.P,J0,2*%
%TO.N,/FAN0_Dr*%
X58989600Y-60464700D03*
%TD*%
D25*
%TO.P,Q7,1*%
%TO.N,Net-(Q7-Pad1)*%
X87398100Y-51678800D03*
%TO.P,Q7,2*%
%TO.N,GND*%
X87398100Y-53578800D03*
%TO.P,Q7,3*%
%TO.N,/FAN7_Dr*%
X85398100Y-52628800D03*
%TD*%
%TO.P,Q1,1*%
%TO.N,Net-(Q1-Pad1)*%
X61248800Y-51704200D03*
%TO.P,Q1,2*%
%TO.N,GND*%
X61248800Y-53604200D03*
%TO.P,Q1,3*%
%TO.N,/FAN1_Dr*%
X59248800Y-52654200D03*
%TD*%
D17*
%TO.P,JP7,1*%
%TO.N,+5V*%
X81483200Y-55778400D03*
D22*
%TO.P,JP7,2*%
%TO.N,/F7V*%
X84023200Y-55778400D03*
%TO.P,JP7,3*%
%TO.N,+24V*%
X86563200Y-55778400D03*
%TD*%
D17*
%TO.P,JP1,1*%
%TO.N,+5V*%
X55346600Y-55778400D03*
D22*
%TO.P,JP1,2*%
%TO.N,/F1V*%
X57886600Y-55778400D03*
%TO.P,JP1,3*%
%TO.N,+24V*%
X60426600Y-55778400D03*
%TD*%
D19*
%TO.P,J7,1*%
%TO.N,/F7V*%
X82664300Y-50038000D03*
D20*
%TO.P,J7,2*%
%TO.N,/FAN7_Dr*%
X85164300Y-50038000D03*
%TD*%
D19*
%TO.P,J1,1*%
%TO.N,/F1V*%
X56515000Y-50038000D03*
D20*
%TO.P,J1,2*%
%TO.N,/FAN1_Dr*%
X59015000Y-50038000D03*
%TD*%
D25*
%TO.P,Q6,1*%
%TO.N,Net-(Q6-Pad1)*%
X87398100Y-62130900D03*
%TO.P,Q6,2*%
%TO.N,GND*%
X87398100Y-64030900D03*
%TO.P,Q6,3*%
%TO.N,/FAN6_Dr*%
X85398100Y-63080900D03*
%TD*%
%TO.P,Q5,1*%
%TO.N,Net-(Q5-Pad1)*%
X78673200Y-51704200D03*
%TO.P,Q5,2*%
%TO.N,GND*%
X78673200Y-53604200D03*
%TO.P,Q5,3*%
%TO.N,/FAN5_Dr*%
X76673200Y-52654200D03*
%TD*%
%TO.P,Q4,1*%
%TO.N,Net-(Q4-Pad1)*%
X78698600Y-62130900D03*
%TO.P,Q4,2*%
%TO.N,GND*%
X78698600Y-64030900D03*
%TO.P,Q4,3*%
%TO.N,/FAN4_Dr*%
X76698600Y-63080900D03*
%TD*%
%TO.P,Q3,1*%
%TO.N,Net-(Q3-Pad1)*%
X69948300Y-51704200D03*
%TO.P,Q3,2*%
%TO.N,GND*%
X69948300Y-53604200D03*
%TO.P,Q3,3*%
%TO.N,/FAN3_Dr*%
X67948300Y-52654200D03*
%TD*%
%TO.P,Q2,1*%
%TO.N,Net-(Q2-Pad1)*%
X69948300Y-62130900D03*
%TO.P,Q2,2*%
%TO.N,GND*%
X69948300Y-64030900D03*
%TO.P,Q2,3*%
%TO.N,/FAN2_Dr*%
X67948300Y-63080900D03*
%TD*%
D19*
%TO.P,J6,1*%
%TO.N,/F6V*%
X82638900Y-60464700D03*
D20*
%TO.P,J6,2*%
%TO.N,/FAN6_Dr*%
X85138900Y-60464700D03*
%TD*%
D19*
%TO.P,J5,1*%
%TO.N,/F5V*%
X73914000Y-50038000D03*
D20*
%TO.P,J5,2*%
%TO.N,/FAN5_Dr*%
X76414000Y-50038000D03*
%TD*%
D17*
%TO.P,JP6,1*%
%TO.N,+5V*%
X81483200Y-66192400D03*
D22*
%TO.P,JP6,2*%
%TO.N,/F6V*%
X84023200Y-66192400D03*
%TO.P,JP6,3*%
%TO.N,+24V*%
X86563200Y-66192400D03*
%TD*%
D17*
%TO.P,JP5,1*%
%TO.N,+5V*%
X72771000Y-55778400D03*
D22*
%TO.P,JP5,2*%
%TO.N,/F5V*%
X75311000Y-55778400D03*
%TO.P,JP5,3*%
%TO.N,+24V*%
X77851000Y-55778400D03*
%TD*%
D19*
%TO.P,J4,1*%
%TO.N,/F4V*%
X73939400Y-60464700D03*
D20*
%TO.P,J4,2*%
%TO.N,/FAN4_Dr*%
X76439400Y-60464700D03*
%TD*%
D17*
%TO.P,JP4,1*%
%TO.N,+5V*%
X72771000Y-66192400D03*
D22*
%TO.P,JP4,2*%
%TO.N,/F4V*%
X75311000Y-66192400D03*
%TO.P,JP4,3*%
%TO.N,+24V*%
X77851000Y-66192400D03*
%TD*%
D17*
%TO.P,JP3,1*%
%TO.N,+5V*%
X64058800Y-55778400D03*
D22*
%TO.P,JP3,2*%
%TO.N,/F3V*%
X66598800Y-55778400D03*
%TO.P,JP3,3*%
%TO.N,+24V*%
X69138800Y-55778400D03*
%TD*%
D19*
%TO.P,J2,1*%
%TO.N,/F2V*%
X65214500Y-60464700D03*
D20*
%TO.P,J2,2*%
%TO.N,/FAN2_Dr*%
X67714500Y-60464700D03*
%TD*%
D17*
%TO.P,JP2,1*%
%TO.N,+5V*%
X64058800Y-66192400D03*
D22*
%TO.P,JP2,2*%
%TO.N,/F2V*%
X66598800Y-66192400D03*
%TO.P,JP2,3*%
%TO.N,+24V*%
X69138800Y-66192400D03*
%TD*%
D26*
%TO.N,GND*%
X58496200Y-68478400D03*
%TO.N,/FAN2*%
X70178602Y-58877200D03*
%TO.N,/FAN4*%
X78916202Y-58877200D03*
%TO.N,/FAN5*%
X78928354Y-48540648D03*
%TO.N,/FAN3*%
X70153202Y-48514000D03*
%TO.N,/FAN6*%
X87600390Y-58647002D03*
%TO.N,/FAN7*%
X87646554Y-48495848D03*
%TO.N,/5V_unFused*%
X75260200Y-72466200D03*
%TO.N,/LED_Drive*%
X82924470Y-54826410D03*
X81838800Y-48336200D03*
%TO.N,/FAN1*%
X61466402Y-48438200D03*
%TD*%
D27*
%TO.N,GND*%
X69048299Y-63130899D02*
X69948300Y-64030900D01*
X69048299Y-60859301D02*
X69048299Y-63130899D01*
X69328600Y-60579000D02*
X69048299Y-60859301D01*
X77798599Y-61036401D02*
X77798599Y-63130899D01*
X77798599Y-63130899D02*
X78698600Y-64030900D01*
X78066200Y-60768800D02*
X77798599Y-61036401D01*
X78066200Y-60579000D02*
X78066200Y-60768800D01*
X86498099Y-63130899D02*
X87398100Y-64030900D01*
X86498099Y-60808501D02*
X86498099Y-63130899D01*
X86753000Y-60553600D02*
X86498099Y-60808501D01*
X79083510Y-64415810D02*
X78698600Y-64030900D01*
X83890902Y-64415810D02*
X79083510Y-64415810D01*
X84275812Y-64030900D02*
X83890902Y-64415810D01*
X87398100Y-64030900D02*
X84275812Y-64030900D01*
X78313690Y-64415810D02*
X70333210Y-64415810D01*
X70333210Y-64415810D02*
X69948300Y-64030900D01*
X78698600Y-64030900D02*
X78313690Y-64415810D01*
X61710710Y-64415810D02*
X60680600Y-63385700D01*
X66466502Y-64415810D02*
X61710710Y-64415810D01*
X66851412Y-64030900D02*
X66466502Y-64415810D01*
X69948300Y-64030900D02*
X66851412Y-64030900D01*
X86498099Y-52678799D02*
X87398100Y-53578800D01*
X86498099Y-50394501D02*
X86498099Y-52678799D01*
X86778400Y-50114200D02*
X86498099Y-50394501D01*
X77773199Y-52704199D02*
X78673200Y-53604200D01*
X77773199Y-50381801D02*
X77773199Y-52704199D01*
X78015400Y-50139600D02*
X77773199Y-50381801D01*
X69048299Y-52704199D02*
X69948300Y-53604200D01*
X69048299Y-50419901D02*
X69048299Y-52704199D01*
X69303200Y-50165000D02*
X69048299Y-50419901D01*
X60348799Y-52704199D02*
X61248800Y-53604200D01*
X60348799Y-50407201D02*
X60348799Y-52704199D01*
X60616400Y-50139600D02*
X60348799Y-50407201D01*
X69576090Y-53976410D02*
X69948300Y-53604200D01*
X62219288Y-53604200D02*
X62591498Y-53976410D01*
X62591498Y-53976410D02*
X69576090Y-53976410D01*
X61248800Y-53604200D02*
X62219288Y-53604200D01*
X78300990Y-53976410D02*
X78673200Y-53604200D01*
X70320510Y-53976410D02*
X78300990Y-53976410D01*
X69948300Y-53604200D02*
X70320510Y-53976410D01*
X87000490Y-53976410D02*
X87398100Y-53578800D01*
X80053398Y-53976410D02*
X87000490Y-53976410D01*
X79681188Y-53604200D02*
X80053398Y-53976410D01*
X78673200Y-53604200D02*
X79681188Y-53604200D01*
X86686389Y-60486989D02*
X86753000Y-60553600D01*
X87863201Y-55154399D02*
X87863201Y-56460197D01*
X87398100Y-54689298D02*
X87863201Y-55154399D01*
X87398100Y-53578800D02*
X87398100Y-54689298D01*
X84197999Y-75460801D02*
X85012600Y-74646200D01*
X73962201Y-75460801D02*
X84197999Y-75460801D01*
X72212200Y-73710800D02*
X73962201Y-75460801D01*
X88212599Y-71446201D02*
X88212599Y-64845399D01*
X88212599Y-64845399D02*
X87398100Y-64030900D01*
X85012600Y-74646200D02*
X88212599Y-71446201D01*
X86300379Y-58023019D02*
X87863201Y-56460197D01*
X86300379Y-59554565D02*
X86300379Y-58023019D01*
X86463901Y-59718087D02*
X86300379Y-59554565D01*
X86463901Y-60301901D02*
X86463901Y-59718087D01*
X86715600Y-60553600D02*
X86463901Y-60301901D01*
X86753000Y-60553600D02*
X86715600Y-60553600D01*
X51739800Y-52146200D02*
X50012600Y-52146200D01*
X53111400Y-53416200D02*
X53009800Y-53416200D01*
X53470888Y-53594000D02*
X53289200Y-53594000D01*
X53289200Y-53594000D02*
X53111400Y-53416200D01*
X57754302Y-54027210D02*
X53904098Y-54027210D01*
X53009800Y-53416200D02*
X51739800Y-52146200D01*
X58177312Y-53604200D02*
X57754302Y-54027210D01*
X53904098Y-54027210D02*
X53470888Y-53594000D01*
X61248800Y-53604200D02*
X58177312Y-53604200D01*
X66979800Y-68478400D02*
X72212200Y-73710800D01*
X58496200Y-68478400D02*
X66979800Y-68478400D01*
D28*
%TO.N,Net-(D4-Pad2)*%
X62991400Y-59958000D02*
X62991400Y-62915800D01*
X63373000Y-59576400D02*
X62991400Y-59958000D01*
%TO.N,Net-(D5-Pad2)*%
X62966600Y-49619600D02*
X62966600Y-52476400D01*
X63373000Y-49213200D02*
X62966600Y-49619600D01*
%TO.N,Net-(D6-Pad2)*%
X71729000Y-59983400D02*
X71729000Y-62915800D01*
X72085200Y-59627200D02*
X71729000Y-59983400D01*
%TO.N,Net-(D7-Pad2)*%
X71703600Y-49569400D02*
X71703600Y-52476400D01*
X72085200Y-49187800D02*
X71703600Y-49569400D01*
%TO.N,Net-(D8-Pad2)*%
X80415800Y-62199060D02*
X80415800Y-62915800D01*
X80822800Y-61792060D02*
X80415800Y-62199060D01*
X80822800Y-59601800D02*
X80822800Y-61792060D01*
D27*
%TO.N,+24V*%
X56504400Y-76123800D02*
X60204400Y-76123800D01*
%TO.N,+5V*%
X62758799Y-67492401D02*
X64058800Y-66192400D01*
X56646601Y-67492401D02*
X62758799Y-67492401D01*
X55346600Y-66192400D02*
X56646601Y-67492401D01*
X65358801Y-67492401D02*
X71470999Y-67492401D01*
X71470999Y-67492401D02*
X72771000Y-66192400D01*
X64058800Y-66192400D02*
X65358801Y-67492401D01*
X57170800Y-57602600D02*
X58064400Y-57602600D01*
X55346600Y-55778400D02*
X57170800Y-57602600D01*
X62688664Y-57148536D02*
X64058800Y-55778400D01*
X58518464Y-57148536D02*
X62688664Y-57148536D01*
X58064400Y-57602600D02*
X58518464Y-57148536D01*
X71470999Y-57078401D02*
X72771000Y-55778400D01*
X65358801Y-57078401D02*
X71470999Y-57078401D01*
X64058800Y-55778400D02*
X65358801Y-57078401D01*
X80183199Y-57078401D02*
X81483200Y-55778400D01*
X74071001Y-57078401D02*
X80183199Y-57078401D01*
X72771000Y-55778400D02*
X74071001Y-57078401D01*
X80183199Y-67492401D02*
X81483200Y-66192400D01*
X74071001Y-67492401D02*
X80183199Y-67492401D01*
X72771000Y-66192400D02*
X74071001Y-67492401D01*
X56504400Y-67350200D02*
X55346600Y-66192400D01*
X56504400Y-70662800D02*
X56504400Y-67350200D01*
X56504400Y-70662800D02*
X60204400Y-70662800D01*
X53354190Y-64199990D02*
X55346600Y-66192400D01*
X53354190Y-57770810D02*
X53354190Y-64199990D01*
X55346600Y-55778400D02*
X53354190Y-57770810D01*
D29*
%TO.N,/FAN2*%
X70828600Y-60579000D02*
X70828600Y-59105800D01*
X70407202Y-59105800D02*
X70178602Y-58877200D01*
X70828600Y-59105800D02*
X70407202Y-59105800D01*
%TO.N,/FAN4*%
X79566200Y-59131200D02*
X79566200Y-60579000D01*
X79170202Y-59131200D02*
X78916202Y-58877200D01*
X79566200Y-59131200D02*
X79170202Y-59131200D01*
%TO.N,/FAN5*%
X79515400Y-48679800D02*
X79528800Y-48666400D01*
X79515400Y-50139600D02*
X79515400Y-48679800D01*
X79054106Y-48666400D02*
X78928354Y-48540648D01*
X79528800Y-48666400D02*
X79054106Y-48666400D01*
%TO.N,/FAN3*%
X70803200Y-48691800D02*
X70803200Y-50165000D01*
X70331002Y-48691800D02*
X70153202Y-48514000D01*
X70803200Y-48691800D02*
X70331002Y-48691800D01*
%TO.N,/FAN6*%
X88253000Y-59513600D02*
X88036400Y-59297000D01*
X88253000Y-60553600D02*
X88253000Y-59513600D01*
X88036400Y-59083012D02*
X87600390Y-58647002D01*
X88036400Y-59297000D02*
X88036400Y-59083012D01*
D28*
%TO.N,Net-(Q1-Pad1)*%
X61248800Y-49298800D02*
X61248800Y-51704200D01*
X60616400Y-48666400D02*
X61248800Y-49298800D01*
%TO.N,Net-(Q2-Pad1)*%
X69948300Y-59725500D02*
X69948300Y-62130900D01*
X69328600Y-59105800D02*
X69948300Y-59725500D01*
%TO.N,Net-(Q3-Pad1)*%
X69878201Y-51634101D02*
X69948300Y-51704200D01*
X69878201Y-49266801D02*
X69878201Y-51634101D01*
X69303200Y-48691800D02*
X69878201Y-49266801D01*
%TO.N,Net-(Q4-Pad1)*%
X78698600Y-59763600D02*
X78698600Y-62130900D01*
X78066200Y-59131200D02*
X78698600Y-59763600D01*
%TO.N,Net-(Q5-Pad1)*%
X78590401Y-51621401D02*
X78673200Y-51704200D01*
X78590401Y-49228001D02*
X78590401Y-51621401D01*
X78028800Y-48666400D02*
X78590401Y-49228001D01*
D27*
%TO.N,/24V_unFused*%
X52004400Y-76123800D02*
X48304400Y-76123800D01*
X52549464Y-63003864D02*
X52549464Y-68024336D01*
X52095400Y-62549800D02*
X52549464Y-63003864D01*
X53954401Y-74173799D02*
X52004400Y-76123800D01*
X53954401Y-69429273D02*
X53954401Y-74173799D01*
X52549464Y-68024336D02*
X53954401Y-69429273D01*
X63734399Y-72714401D02*
X55515399Y-72714401D01*
X55515399Y-72714401D02*
X52004400Y-76225400D01*
X65836800Y-70612000D02*
X63734399Y-72714401D01*
D29*
%TO.N,/FAN7*%
X88278400Y-50114200D02*
X88278400Y-48653000D01*
X87803706Y-48653000D02*
X87646554Y-48495848D01*
X88278400Y-48653000D02*
X87803706Y-48653000D01*
D27*
%TO.N,/5V_unFused*%
X52004400Y-70662800D02*
X48304400Y-70662800D01*
X48818800Y-65709800D02*
X48463200Y-66065400D01*
X48818800Y-63677800D02*
X48818800Y-65709800D01*
X48463200Y-70504000D02*
X48304400Y-70662800D01*
X48463200Y-66065400D02*
X48463200Y-70504000D01*
X75996800Y-71729600D02*
X75260200Y-72466200D01*
X75996800Y-70612000D02*
X75996800Y-71729600D01*
D28*
%TO.N,/LED_Drive*%
X55461600Y-58902600D02*
X54660800Y-58101800D01*
X58064400Y-58902600D02*
X55461600Y-58902600D01*
X62546800Y-58902600D02*
X63373000Y-58076400D01*
X58064400Y-58902600D02*
X62546800Y-58902600D01*
X72034400Y-58076400D02*
X72085200Y-58127200D01*
X63373000Y-58076400D02*
X72034400Y-58076400D01*
X72110600Y-58101800D02*
X72085200Y-58127200D01*
X80822800Y-58101800D02*
X72110600Y-58101800D01*
X63359600Y-47699800D02*
X63373000Y-47713200D01*
X72085200Y-47687800D02*
X80797400Y-47687800D01*
X63398400Y-47687800D02*
X63373000Y-47713200D01*
X72085200Y-47687800D02*
X63398400Y-47687800D01*
X54699600Y-47713200D02*
X54686200Y-47699800D01*
X63373000Y-47713200D02*
X54699600Y-47713200D01*
X82848199Y-54902681D02*
X82924470Y-54826410D01*
X82848199Y-56776401D02*
X82848199Y-54902681D01*
X81522800Y-58101800D02*
X82848199Y-56776401D01*
X80822800Y-58101800D02*
X81522800Y-58101800D01*
X81445800Y-48336200D02*
X80797400Y-47687800D01*
X81838800Y-48336200D02*
X81445800Y-48336200D01*
D27*
%TO.N,/FAN1_Dr*%
X59121800Y-52527200D02*
X59248800Y-52654200D01*
X57379200Y-52527200D02*
X59121800Y-52527200D01*
X59248800Y-50271800D02*
X59015000Y-50038000D01*
X59248800Y-52654200D02*
X59248800Y-50271800D01*
D28*
%TO.N,Net-(D1-Pad2)*%
X54279200Y-49606800D02*
X54279200Y-52527200D01*
X54686200Y-49199800D02*
X54279200Y-49606800D01*
D27*
%TO.N,/FAN7_Dr*%
X85398100Y-50271800D02*
X85164300Y-50038000D01*
X85398100Y-52628800D02*
X85398100Y-50271800D01*
X85245700Y-52476400D02*
X85398100Y-52628800D01*
X83528500Y-52476400D02*
X85245700Y-52476400D01*
D28*
%TO.N,Net-(D2-Pad2)*%
X80428500Y-49556700D02*
X80428500Y-52476400D01*
X80797400Y-49187800D02*
X80428500Y-49556700D01*
D27*
%TO.N,/FAN2_Dr*%
X67783200Y-62915800D02*
X67948300Y-63080900D01*
X66091400Y-62915800D02*
X67783200Y-62915800D01*
X67948300Y-60698500D02*
X67714500Y-60464700D01*
X67948300Y-63080900D02*
X67948300Y-60698500D01*
%TO.N,/FAN3_Dr*%
X67770500Y-52476400D02*
X67948300Y-52654200D01*
X66066600Y-52476400D02*
X67770500Y-52476400D01*
X67948300Y-50297200D02*
X67689100Y-50038000D01*
X67948300Y-52654200D02*
X67948300Y-50297200D01*
%TO.N,/FAN4_Dr*%
X76533500Y-62915800D02*
X76698600Y-63080900D01*
X74829000Y-62915800D02*
X76533500Y-62915800D01*
X76698600Y-60723900D02*
X76439400Y-60464700D01*
X76698600Y-63080900D02*
X76698600Y-60723900D01*
%TO.N,/FAN5_Dr*%
X76495400Y-52476400D02*
X76673200Y-52654200D01*
X74803600Y-52476400D02*
X76495400Y-52476400D01*
X76673200Y-50297200D02*
X76414000Y-50038000D01*
X76673200Y-52654200D02*
X76673200Y-50297200D01*
%TO.N,/FAN6_Dr*%
X85233000Y-62915800D02*
X85398100Y-63080900D01*
X83515800Y-62915800D02*
X85233000Y-62915800D01*
X85398100Y-60723900D02*
X85138900Y-60464700D01*
X85398100Y-63080900D02*
X85398100Y-60723900D01*
D29*
%TO.N,/FAN1*%
X62116400Y-48666400D02*
X62116400Y-50139600D01*
X61694602Y-48666400D02*
X61466402Y-48438200D01*
X62116400Y-48666400D02*
X61694602Y-48666400D01*
D27*
%TO.N,/5V_EXP*%
X46159900Y-62318900D02*
X47518800Y-63677800D01*
X42824400Y-62318900D02*
X46159900Y-62318900D01*
D28*
%TO.N,Net-(Q6-Pad1)*%
X86875389Y-58299001D02*
X86875389Y-59316389D01*
X87377390Y-57797000D02*
X86875389Y-58299001D01*
X88036400Y-57797000D02*
X87377390Y-57797000D01*
X87398100Y-59839100D02*
X87398100Y-62130900D01*
X86875389Y-59316389D02*
X87398100Y-59839100D01*
%TO.N,Net-(Q7-Pad1)*%
X87398100Y-49272700D02*
X87398100Y-51678800D01*
X86778400Y-48653000D02*
X87398100Y-49272700D01*
D27*
%TO.N,/FAN0_Dr*%
X57379200Y-62075100D02*
X58989600Y-60464700D01*
X57379200Y-62915800D02*
X57379200Y-62075100D01*
X60610600Y-62085700D02*
X58989600Y-60464700D01*
X60680600Y-62085700D02*
X60610600Y-62085700D01*
D28*
%TO.N,Net-(D3-Pad2)*%
X54279200Y-59983400D02*
X54279200Y-62915800D01*
X54660800Y-59601800D02*
X54279200Y-59983400D01*
%TO.N,Net-(J8-Pad4)*%
X41592500Y-55930800D02*
X42824400Y-54698900D01*
X38303200Y-55930800D02*
X41592500Y-55930800D01*
%TO.N,Net-(J8-Pad8)*%
X41516300Y-58470800D02*
X42824400Y-59778900D01*
X38303200Y-58470800D02*
X41516300Y-58470800D01*
D27*
%TO.N,/24V_F0*%
X52085000Y-61239400D02*
X52095400Y-61249800D01*
X49479200Y-61239400D02*
X52085000Y-61239400D01*
%TO.N,/5V_Screw*%
X77296800Y-73706200D02*
X77292200Y-73710800D01*
X77296800Y-70612000D02*
X77296800Y-73706200D01*
%TO.N,/24v_Screw*%
X67136800Y-73706200D02*
X67132200Y-73710800D01*
X67136800Y-70612000D02*
X67136800Y-73706200D01*
%TD*%
D30*
%TO.N,GND*%
X87683850Y-65065900D02*
X87848100Y-65068972D01*
X87972582Y-65056712D01*
X88092280Y-65020402D01*
X88202594Y-64961437D01*
X88265400Y-64909893D01*
X88265400Y-72592482D01*
X88230155Y-72525530D01*
X88203148Y-72485112D01*
X87713481Y-72124924D01*
X85192205Y-74646200D01*
X87713481Y-77167476D01*
X88203148Y-76807288D01*
X88265400Y-76692569D01*
X88265400Y-77945719D01*
X88255515Y-78046531D01*
X88235611Y-78112458D01*
X88203285Y-78173255D01*
X88159762Y-78226618D01*
X88106700Y-78270515D01*
X88046127Y-78303266D01*
X87980347Y-78323628D01*
X87881669Y-78334000D01*
X86065621Y-78334000D01*
X86464808Y-78215652D01*
X87133270Y-77863755D01*
X87173688Y-77836748D01*
X87533876Y-77347081D01*
X85012600Y-74825805D01*
X84998458Y-74839948D01*
X84818853Y-74660343D01*
X84832995Y-74646200D01*
X82311719Y-72124924D01*
X81822052Y-72485112D01*
X81461751Y-73149082D01*
X81237906Y-73870585D01*
X81159120Y-74621895D01*
X81228422Y-75374138D01*
X81443148Y-76098408D01*
X81795045Y-76766870D01*
X81822052Y-76807288D01*
X81976606Y-76920974D01*
X81834655Y-76949210D01*
X81673595Y-77015923D01*
X81528645Y-77112776D01*
X81405376Y-77236045D01*
X81308523Y-77380995D01*
X81241810Y-77542055D01*
X81207800Y-77713035D01*
X81207800Y-77887365D01*
X81241810Y-78058345D01*
X81308523Y-78219405D01*
X81385093Y-78334000D01*
X60547400Y-78334000D01*
X60827156Y-78278353D01*
X61215702Y-78117412D01*
X61565383Y-77883763D01*
X61862763Y-77586383D01*
X62096412Y-77236702D01*
X62257353Y-76848156D01*
X62339400Y-76435679D01*
X62339400Y-76015121D01*
X62257353Y-75602644D01*
X62096412Y-75214098D01*
X61862763Y-74864417D01*
X61565383Y-74567037D01*
X61215702Y-74333388D01*
X60827156Y-74172447D01*
X60414679Y-74090400D01*
X59994121Y-74090400D01*
X59581644Y-74172447D01*
X59193098Y-74333388D01*
X58843417Y-74567037D01*
X58546037Y-74864417D01*
X58354400Y-75151222D01*
X58162763Y-74864417D01*
X57865383Y-74567037D01*
X57515702Y-74333388D01*
X57127156Y-74172447D01*
X56714679Y-74090400D01*
X56294121Y-74090400D01*
X55881644Y-74172447D01*
X55493098Y-74333388D01*
X55143417Y-74567037D01*
X54846037Y-74864417D01*
X54612388Y-75214098D01*
X54451447Y-75602644D01*
X54369400Y-76015121D01*
X54369400Y-76435679D01*
X54451447Y-76848156D01*
X54612388Y-77236702D01*
X54846037Y-77586383D01*
X55143417Y-77883763D01*
X55493098Y-78117412D01*
X55881644Y-78278353D01*
X56161400Y-78334000D01*
X52347400Y-78334000D01*
X52627156Y-78278353D01*
X53015702Y-78117412D01*
X53365383Y-77883763D01*
X53662763Y-77586383D01*
X53896412Y-77236702D01*
X54057353Y-76848156D01*
X54139400Y-76435679D01*
X54139400Y-76015121D01*
X54057353Y-75602644D01*
X54005037Y-75476342D01*
X55881978Y-73599401D01*
X63690930Y-73599401D01*
X63734399Y-73603682D01*
X63777868Y-73599401D01*
X63777876Y-73599401D01*
X63907889Y-73586596D01*
X64074712Y-73535990D01*
X64228458Y-73453812D01*
X64363216Y-73343218D01*
X64390933Y-73309445D01*
X65194128Y-72506250D01*
X65194128Y-75010800D01*
X65206388Y-75135282D01*
X65242698Y-75254980D01*
X65301663Y-75365294D01*
X65381015Y-75461985D01*
X65477706Y-75541337D01*
X65588020Y-75600302D01*
X65707718Y-75636612D01*
X65832200Y-75648872D01*
X68432200Y-75648872D01*
X68556682Y-75636612D01*
X68676380Y-75600302D01*
X68786694Y-75541337D01*
X68883385Y-75461985D01*
X68962737Y-75365294D01*
X69021702Y-75254980D01*
X69058012Y-75135282D01*
X69065424Y-75060024D01*
X71042581Y-75060024D01*
X71174517Y-75355112D01*
X71515245Y-75525959D01*
X71882757Y-75627050D01*
X72262929Y-75654501D01*
X72641151Y-75607257D01*
X73002890Y-75487133D01*
X73249883Y-75355112D01*
X73381819Y-75060024D01*
X72212200Y-73890405D01*
X71042581Y-75060024D01*
X69065424Y-75060024D01*
X69070272Y-75010800D01*
X69070272Y-73761529D01*
X70268499Y-73761529D01*
X70315743Y-74139751D01*
X70435867Y-74501490D01*
X70567888Y-74748483D01*
X70862976Y-74880419D01*
X72032595Y-73710800D01*
X72391805Y-73710800D01*
X73561424Y-74880419D01*
X73856512Y-74748483D01*
X74027359Y-74407755D01*
X74128450Y-74040243D01*
X74155901Y-73660071D01*
X74108657Y-73281849D01*
X73988533Y-72920110D01*
X73856512Y-72673117D01*
X73561424Y-72541181D01*
X72391805Y-73710800D01*
X72032595Y-73710800D01*
X70862976Y-72541181D01*
X70567888Y-72673117D01*
X70397041Y-73013845D01*
X70295950Y-73381357D01*
X70268499Y-73761529D01*
X69070272Y-73761529D01*
X69070272Y-72410800D01*
X69065425Y-72361576D01*
X71042581Y-72361576D01*
X72212200Y-73531195D01*
X73379134Y-72364261D01*
X74225200Y-72364261D01*
X74225200Y-72568139D01*
X74264974Y-72768098D01*
X74342995Y-72956456D01*
X74456263Y-73125974D01*
X74600426Y-73270137D01*
X74769944Y-73383405D01*
X74958302Y-73461426D01*
X75158261Y-73501200D01*
X75360983Y-73501200D01*
X75357200Y-73520219D01*
X75357200Y-73901381D01*
X75431561Y-74275219D01*
X75577425Y-74627366D01*
X75789187Y-74944291D01*
X76058709Y-75213813D01*
X76375634Y-75425575D01*
X76727781Y-75571439D01*
X77101619Y-75645800D01*
X77482781Y-75645800D01*
X77856619Y-75571439D01*
X78208766Y-75425575D01*
X78525691Y-75213813D01*
X78795213Y-74944291D01*
X79006975Y-74627366D01*
X79152839Y-74275219D01*
X79227200Y-73901381D01*
X79227200Y-73520219D01*
X79152839Y-73146381D01*
X79006975Y-72794234D01*
X78795213Y-72477309D01*
X78525691Y-72207787D01*
X78208766Y-71996025D01*
X78181800Y-71984855D01*
X78181800Y-71945319D01*
X82491324Y-71945319D01*
X85012600Y-74466595D01*
X87533876Y-71945319D01*
X87173688Y-71455652D01*
X86509718Y-71095351D01*
X85788215Y-70871506D01*
X85036905Y-70792720D01*
X84284662Y-70862022D01*
X83560392Y-71076748D01*
X82891930Y-71428645D01*
X82851512Y-71455652D01*
X82491324Y-71945319D01*
X78181800Y-71945319D01*
X78181800Y-71572734D01*
X78213842Y-71533691D01*
X78268298Y-71452192D01*
X78327264Y-71341875D01*
X78364773Y-71251319D01*
X78401082Y-71131623D01*
X78420204Y-71035490D01*
X78432464Y-70911009D01*
X78432464Y-70886450D01*
X78434872Y-70862000D01*
X78434872Y-70362000D01*
X78432464Y-70337550D01*
X78432464Y-70312991D01*
X78420204Y-70188510D01*
X78401082Y-70092377D01*
X78364773Y-69972681D01*
X78327264Y-69882125D01*
X78268298Y-69771808D01*
X78213842Y-69690309D01*
X78134490Y-69593618D01*
X78065182Y-69524310D01*
X77968491Y-69444958D01*
X77886992Y-69390502D01*
X77776675Y-69331536D01*
X77686119Y-69294027D01*
X77566423Y-69257718D01*
X77470290Y-69238596D01*
X77345809Y-69226336D01*
X77321250Y-69226336D01*
X77296800Y-69223928D01*
X76796800Y-69223928D01*
X76672318Y-69236188D01*
X76646800Y-69243929D01*
X76621282Y-69236188D01*
X76496800Y-69223928D01*
X75996800Y-69223928D01*
X75972350Y-69226336D01*
X75947791Y-69226336D01*
X75823310Y-69238596D01*
X75727177Y-69257718D01*
X75607481Y-69294027D01*
X75516925Y-69331536D01*
X75406608Y-69390502D01*
X75325109Y-69444958D01*
X75228418Y-69524310D01*
X75159110Y-69593618D01*
X75079758Y-69690309D01*
X75025302Y-69771808D01*
X74966336Y-69882125D01*
X74928827Y-69972681D01*
X74892518Y-70092377D01*
X74873396Y-70188510D01*
X74861136Y-70312991D01*
X74861136Y-70337550D01*
X74858728Y-70362000D01*
X74858728Y-70862000D01*
X74861136Y-70886450D01*
X74861136Y-70911009D01*
X74873396Y-71035490D01*
X74892518Y-71131623D01*
X74928827Y-71251319D01*
X74966336Y-71341875D01*
X75024371Y-71450450D01*
X75015156Y-71459665D01*
X74958302Y-71470974D01*
X74769944Y-71548995D01*
X74600426Y-71662263D01*
X74456263Y-71806426D01*
X74342995Y-71975944D01*
X74264974Y-72164302D01*
X74225200Y-72364261D01*
X73379134Y-72364261D01*
X73381819Y-72361576D01*
X73249883Y-72066488D01*
X72909155Y-71895641D01*
X72541643Y-71794550D01*
X72161471Y-71767099D01*
X71783249Y-71814343D01*
X71421510Y-71934467D01*
X71174517Y-72066488D01*
X71042581Y-72361576D01*
X69065425Y-72361576D01*
X69058012Y-72286318D01*
X69021702Y-72166620D01*
X68962737Y-72056306D01*
X68883385Y-71959615D01*
X68786694Y-71880263D01*
X68676380Y-71821298D01*
X68556682Y-71784988D01*
X68432200Y-71772728D01*
X68021800Y-71772728D01*
X68021800Y-71572734D01*
X68053842Y-71533691D01*
X68108298Y-71452192D01*
X68167264Y-71341875D01*
X68204773Y-71251319D01*
X68241082Y-71131623D01*
X68260204Y-71035490D01*
X68272464Y-70911009D01*
X68272464Y-70886450D01*
X68274872Y-70862000D01*
X68274872Y-70362000D01*
X68272464Y-70337550D01*
X68272464Y-70312991D01*
X68260204Y-70188510D01*
X68241082Y-70092377D01*
X68204773Y-69972681D01*
X68167264Y-69882125D01*
X68108298Y-69771808D01*
X68053842Y-69690309D01*
X67974490Y-69593618D01*
X67905182Y-69524310D01*
X67808491Y-69444958D01*
X67726992Y-69390502D01*
X67616675Y-69331536D01*
X67526119Y-69294027D01*
X67406423Y-69257718D01*
X67310290Y-69238596D01*
X67185809Y-69226336D01*
X67161250Y-69226336D01*
X67136800Y-69223928D01*
X66636800Y-69223928D01*
X66512318Y-69236188D01*
X66486800Y-69243929D01*
X66461282Y-69236188D01*
X66336800Y-69223928D01*
X65836800Y-69223928D01*
X65812350Y-69226336D01*
X65787791Y-69226336D01*
X65663310Y-69238596D01*
X65567177Y-69257718D01*
X65447481Y-69294027D01*
X65356925Y-69331536D01*
X65246608Y-69390502D01*
X65165109Y-69444958D01*
X65068418Y-69524310D01*
X64999110Y-69593618D01*
X64919758Y-69690309D01*
X64865302Y-69771808D01*
X64806336Y-69882125D01*
X64768827Y-69972681D01*
X64732518Y-70092377D01*
X64713396Y-70188510D01*
X64701136Y-70312991D01*
X64701136Y-70337550D01*
X64698728Y-70362000D01*
X64698728Y-70498493D01*
X63367821Y-71829401D01*
X62060532Y-71829401D01*
X62096412Y-71775702D01*
X62257353Y-71387156D01*
X62339400Y-70974679D01*
X62339400Y-70554121D01*
X62257353Y-70141644D01*
X62096412Y-69753098D01*
X61862763Y-69403417D01*
X61565383Y-69106037D01*
X61215702Y-68872388D01*
X60827156Y-68711447D01*
X60414679Y-68629400D01*
X59994121Y-68629400D01*
X59581644Y-68711447D01*
X59193098Y-68872388D01*
X58843417Y-69106037D01*
X58546037Y-69403417D01*
X58354400Y-69690222D01*
X58162763Y-69403417D01*
X57865383Y-69106037D01*
X57515702Y-68872388D01*
X57389400Y-68820072D01*
X57389400Y-68377401D01*
X62715330Y-68377401D01*
X62758799Y-68381682D01*
X62802268Y-68377401D01*
X62802276Y-68377401D01*
X62932289Y-68364596D01*
X63099112Y-68313990D01*
X63252858Y-68231812D01*
X63387616Y-68121218D01*
X63415333Y-68087445D01*
X63822306Y-67680472D01*
X64295293Y-67680472D01*
X64702271Y-68087450D01*
X64729984Y-68121218D01*
X64763752Y-68148931D01*
X64763754Y-68148933D01*
X64779679Y-68162002D01*
X64864742Y-68231812D01*
X65018488Y-68313990D01*
X65185311Y-68364596D01*
X65315324Y-68377401D01*
X65315334Y-68377401D01*
X65358800Y-68381682D01*
X65402267Y-68377401D01*
X71427530Y-68377401D01*
X71470999Y-68381682D01*
X71514468Y-68377401D01*
X71514476Y-68377401D01*
X71644489Y-68364596D01*
X71811312Y-68313990D01*
X71965058Y-68231812D01*
X72099816Y-68121218D01*
X72127533Y-68087445D01*
X72534506Y-67680472D01*
X73007493Y-67680472D01*
X73414471Y-68087450D01*
X73442184Y-68121218D01*
X73475952Y-68148931D01*
X73475954Y-68148933D01*
X73491879Y-68162002D01*
X73576942Y-68231812D01*
X73730688Y-68313990D01*
X73897511Y-68364596D01*
X74027524Y-68377401D01*
X74027534Y-68377401D01*
X74071000Y-68381682D01*
X74114467Y-68377401D01*
X80139730Y-68377401D01*
X80183199Y-68381682D01*
X80226668Y-68377401D01*
X80226676Y-68377401D01*
X80356689Y-68364596D01*
X80523512Y-68313990D01*
X80677258Y-68231812D01*
X80812016Y-68121218D01*
X80839733Y-68087445D01*
X81246706Y-67680472D01*
X82333200Y-67680472D01*
X82457682Y-67668212D01*
X82577380Y-67631902D01*
X82687694Y-67572937D01*
X82784385Y-67493585D01*
X82863737Y-67396894D01*
X82922702Y-67286580D01*
X82944713Y-67214020D01*
X83076568Y-67345875D01*
X83319789Y-67508390D01*
X83590042Y-67620332D01*
X83876940Y-67677400D01*
X84169460Y-67677400D01*
X84456358Y-67620332D01*
X84726611Y-67508390D01*
X84969832Y-67345875D01*
X85176675Y-67139032D01*
X85293200Y-66964640D01*
X85409725Y-67139032D01*
X85616568Y-67345875D01*
X85859789Y-67508390D01*
X86130042Y-67620332D01*
X86416940Y-67677400D01*
X86709460Y-67677400D01*
X86996358Y-67620332D01*
X87266611Y-67508390D01*
X87509832Y-67345875D01*
X87716675Y-67139032D01*
X87879190Y-66895811D01*
X87991132Y-66625558D01*
X88048200Y-66338660D01*
X88048200Y-66046140D01*
X87991132Y-65759242D01*
X87879190Y-65488989D01*
X87716675Y-65245768D01*
X87525102Y-65054195D01*
X87525102Y-64907152D01*
X87683850Y-65065900D01*
%TA.AperFunction,Conductor*%
D31*
G36*
X87683850Y-65065900D02*
G01*
X87848100Y-65068972D01*
X87972582Y-65056712D01*
X88092280Y-65020402D01*
X88202594Y-64961437D01*
X88265400Y-64909893D01*
X88265400Y-72592482D01*
X88230155Y-72525530D01*
X88203148Y-72485112D01*
X87713481Y-72124924D01*
X85192205Y-74646200D01*
X87713481Y-77167476D01*
X88203148Y-76807288D01*
X88265400Y-76692569D01*
X88265400Y-77945719D01*
X88255515Y-78046531D01*
X88235611Y-78112458D01*
X88203285Y-78173255D01*
X88159762Y-78226618D01*
X88106700Y-78270515D01*
X88046127Y-78303266D01*
X87980347Y-78323628D01*
X87881669Y-78334000D01*
X86065621Y-78334000D01*
X86464808Y-78215652D01*
X87133270Y-77863755D01*
X87173688Y-77836748D01*
X87533876Y-77347081D01*
X85012600Y-74825805D01*
X84998458Y-74839948D01*
X84818853Y-74660343D01*
X84832995Y-74646200D01*
X82311719Y-72124924D01*
X81822052Y-72485112D01*
X81461751Y-73149082D01*
X81237906Y-73870585D01*
X81159120Y-74621895D01*
X81228422Y-75374138D01*
X81443148Y-76098408D01*
X81795045Y-76766870D01*
X81822052Y-76807288D01*
X81976606Y-76920974D01*
X81834655Y-76949210D01*
X81673595Y-77015923D01*
X81528645Y-77112776D01*
X81405376Y-77236045D01*
X81308523Y-77380995D01*
X81241810Y-77542055D01*
X81207800Y-77713035D01*
X81207800Y-77887365D01*
X81241810Y-78058345D01*
X81308523Y-78219405D01*
X81385093Y-78334000D01*
X60547400Y-78334000D01*
X60827156Y-78278353D01*
X61215702Y-78117412D01*
X61565383Y-77883763D01*
X61862763Y-77586383D01*
X62096412Y-77236702D01*
X62257353Y-76848156D01*
X62339400Y-76435679D01*
X62339400Y-76015121D01*
X62257353Y-75602644D01*
X62096412Y-75214098D01*
X61862763Y-74864417D01*
X61565383Y-74567037D01*
X61215702Y-74333388D01*
X60827156Y-74172447D01*
X60414679Y-74090400D01*
X59994121Y-74090400D01*
X59581644Y-74172447D01*
X59193098Y-74333388D01*
X58843417Y-74567037D01*
X58546037Y-74864417D01*
X58354400Y-75151222D01*
X58162763Y-74864417D01*
X57865383Y-74567037D01*
X57515702Y-74333388D01*
X57127156Y-74172447D01*
X56714679Y-74090400D01*
X56294121Y-74090400D01*
X55881644Y-74172447D01*
X55493098Y-74333388D01*
X55143417Y-74567037D01*
X54846037Y-74864417D01*
X54612388Y-75214098D01*
X54451447Y-75602644D01*
X54369400Y-76015121D01*
X54369400Y-76435679D01*
X54451447Y-76848156D01*
X54612388Y-77236702D01*
X54846037Y-77586383D01*
X55143417Y-77883763D01*
X55493098Y-78117412D01*
X55881644Y-78278353D01*
X56161400Y-78334000D01*
X52347400Y-78334000D01*
X52627156Y-78278353D01*
X53015702Y-78117412D01*
X53365383Y-77883763D01*
X53662763Y-77586383D01*
X53896412Y-77236702D01*
X54057353Y-76848156D01*
X54139400Y-76435679D01*
X54139400Y-76015121D01*
X54057353Y-75602644D01*
X54005037Y-75476342D01*
X55881978Y-73599401D01*
X63690930Y-73599401D01*
X63734399Y-73603682D01*
X63777868Y-73599401D01*
X63777876Y-73599401D01*
X63907889Y-73586596D01*
X64074712Y-73535990D01*
X64228458Y-73453812D01*
X64363216Y-73343218D01*
X64390933Y-73309445D01*
X65194128Y-72506250D01*
X65194128Y-75010800D01*
X65206388Y-75135282D01*
X65242698Y-75254980D01*
X65301663Y-75365294D01*
X65381015Y-75461985D01*
X65477706Y-75541337D01*
X65588020Y-75600302D01*
X65707718Y-75636612D01*
X65832200Y-75648872D01*
X68432200Y-75648872D01*
X68556682Y-75636612D01*
X68676380Y-75600302D01*
X68786694Y-75541337D01*
X68883385Y-75461985D01*
X68962737Y-75365294D01*
X69021702Y-75254980D01*
X69058012Y-75135282D01*
X69065424Y-75060024D01*
X71042581Y-75060024D01*
X71174517Y-75355112D01*
X71515245Y-75525959D01*
X71882757Y-75627050D01*
X72262929Y-75654501D01*
X72641151Y-75607257D01*
X73002890Y-75487133D01*
X73249883Y-75355112D01*
X73381819Y-75060024D01*
X72212200Y-73890405D01*
X71042581Y-75060024D01*
X69065424Y-75060024D01*
X69070272Y-75010800D01*
X69070272Y-73761529D01*
X70268499Y-73761529D01*
X70315743Y-74139751D01*
X70435867Y-74501490D01*
X70567888Y-74748483D01*
X70862976Y-74880419D01*
X72032595Y-73710800D01*
X72391805Y-73710800D01*
X73561424Y-74880419D01*
X73856512Y-74748483D01*
X74027359Y-74407755D01*
X74128450Y-74040243D01*
X74155901Y-73660071D01*
X74108657Y-73281849D01*
X73988533Y-72920110D01*
X73856512Y-72673117D01*
X73561424Y-72541181D01*
X72391805Y-73710800D01*
X72032595Y-73710800D01*
X70862976Y-72541181D01*
X70567888Y-72673117D01*
X70397041Y-73013845D01*
X70295950Y-73381357D01*
X70268499Y-73761529D01*
X69070272Y-73761529D01*
X69070272Y-72410800D01*
X69065425Y-72361576D01*
X71042581Y-72361576D01*
X72212200Y-73531195D01*
X73379134Y-72364261D01*
X74225200Y-72364261D01*
X74225200Y-72568139D01*
X74264974Y-72768098D01*
X74342995Y-72956456D01*
X74456263Y-73125974D01*
X74600426Y-73270137D01*
X74769944Y-73383405D01*
X74958302Y-73461426D01*
X75158261Y-73501200D01*
X75360983Y-73501200D01*
X75357200Y-73520219D01*
X75357200Y-73901381D01*
X75431561Y-74275219D01*
X75577425Y-74627366D01*
X75789187Y-74944291D01*
X76058709Y-75213813D01*
X76375634Y-75425575D01*
X76727781Y-75571439D01*
X77101619Y-75645800D01*
X77482781Y-75645800D01*
X77856619Y-75571439D01*
X78208766Y-75425575D01*
X78525691Y-75213813D01*
X78795213Y-74944291D01*
X79006975Y-74627366D01*
X79152839Y-74275219D01*
X79227200Y-73901381D01*
X79227200Y-73520219D01*
X79152839Y-73146381D01*
X79006975Y-72794234D01*
X78795213Y-72477309D01*
X78525691Y-72207787D01*
X78208766Y-71996025D01*
X78181800Y-71984855D01*
X78181800Y-71945319D01*
X82491324Y-71945319D01*
X85012600Y-74466595D01*
X87533876Y-71945319D01*
X87173688Y-71455652D01*
X86509718Y-71095351D01*
X85788215Y-70871506D01*
X85036905Y-70792720D01*
X84284662Y-70862022D01*
X83560392Y-71076748D01*
X82891930Y-71428645D01*
X82851512Y-71455652D01*
X82491324Y-71945319D01*
X78181800Y-71945319D01*
X78181800Y-71572734D01*
X78213842Y-71533691D01*
X78268298Y-71452192D01*
X78327264Y-71341875D01*
X78364773Y-71251319D01*
X78401082Y-71131623D01*
X78420204Y-71035490D01*
X78432464Y-70911009D01*
X78432464Y-70886450D01*
X78434872Y-70862000D01*
X78434872Y-70362000D01*
X78432464Y-70337550D01*
X78432464Y-70312991D01*
X78420204Y-70188510D01*
X78401082Y-70092377D01*
X78364773Y-69972681D01*
X78327264Y-69882125D01*
X78268298Y-69771808D01*
X78213842Y-69690309D01*
X78134490Y-69593618D01*
X78065182Y-69524310D01*
X77968491Y-69444958D01*
X77886992Y-69390502D01*
X77776675Y-69331536D01*
X77686119Y-69294027D01*
X77566423Y-69257718D01*
X77470290Y-69238596D01*
X77345809Y-69226336D01*
X77321250Y-69226336D01*
X77296800Y-69223928D01*
X76796800Y-69223928D01*
X76672318Y-69236188D01*
X76646800Y-69243929D01*
X76621282Y-69236188D01*
X76496800Y-69223928D01*
X75996800Y-69223928D01*
X75972350Y-69226336D01*
X75947791Y-69226336D01*
X75823310Y-69238596D01*
X75727177Y-69257718D01*
X75607481Y-69294027D01*
X75516925Y-69331536D01*
X75406608Y-69390502D01*
X75325109Y-69444958D01*
X75228418Y-69524310D01*
X75159110Y-69593618D01*
X75079758Y-69690309D01*
X75025302Y-69771808D01*
X74966336Y-69882125D01*
X74928827Y-69972681D01*
X74892518Y-70092377D01*
X74873396Y-70188510D01*
X74861136Y-70312991D01*
X74861136Y-70337550D01*
X74858728Y-70362000D01*
X74858728Y-70862000D01*
X74861136Y-70886450D01*
X74861136Y-70911009D01*
X74873396Y-71035490D01*
X74892518Y-71131623D01*
X74928827Y-71251319D01*
X74966336Y-71341875D01*
X75024371Y-71450450D01*
X75015156Y-71459665D01*
X74958302Y-71470974D01*
X74769944Y-71548995D01*
X74600426Y-71662263D01*
X74456263Y-71806426D01*
X74342995Y-71975944D01*
X74264974Y-72164302D01*
X74225200Y-72364261D01*
X73379134Y-72364261D01*
X73381819Y-72361576D01*
X73249883Y-72066488D01*
X72909155Y-71895641D01*
X72541643Y-71794550D01*
X72161471Y-71767099D01*
X71783249Y-71814343D01*
X71421510Y-71934467D01*
X71174517Y-72066488D01*
X71042581Y-72361576D01*
X69065425Y-72361576D01*
X69058012Y-72286318D01*
X69021702Y-72166620D01*
X68962737Y-72056306D01*
X68883385Y-71959615D01*
X68786694Y-71880263D01*
X68676380Y-71821298D01*
X68556682Y-71784988D01*
X68432200Y-71772728D01*
X68021800Y-71772728D01*
X68021800Y-71572734D01*
X68053842Y-71533691D01*
X68108298Y-71452192D01*
X68167264Y-71341875D01*
X68204773Y-71251319D01*
X68241082Y-71131623D01*
X68260204Y-71035490D01*
X68272464Y-70911009D01*
X68272464Y-70886450D01*
X68274872Y-70862000D01*
X68274872Y-70362000D01*
X68272464Y-70337550D01*
X68272464Y-70312991D01*
X68260204Y-70188510D01*
X68241082Y-70092377D01*
X68204773Y-69972681D01*
X68167264Y-69882125D01*
X68108298Y-69771808D01*
X68053842Y-69690309D01*
X67974490Y-69593618D01*
X67905182Y-69524310D01*
X67808491Y-69444958D01*
X67726992Y-69390502D01*
X67616675Y-69331536D01*
X67526119Y-69294027D01*
X67406423Y-69257718D01*
X67310290Y-69238596D01*
X67185809Y-69226336D01*
X67161250Y-69226336D01*
X67136800Y-69223928D01*
X66636800Y-69223928D01*
X66512318Y-69236188D01*
X66486800Y-69243929D01*
X66461282Y-69236188D01*
X66336800Y-69223928D01*
X65836800Y-69223928D01*
X65812350Y-69226336D01*
X65787791Y-69226336D01*
X65663310Y-69238596D01*
X65567177Y-69257718D01*
X65447481Y-69294027D01*
X65356925Y-69331536D01*
X65246608Y-69390502D01*
X65165109Y-69444958D01*
X65068418Y-69524310D01*
X64999110Y-69593618D01*
X64919758Y-69690309D01*
X64865302Y-69771808D01*
X64806336Y-69882125D01*
X64768827Y-69972681D01*
X64732518Y-70092377D01*
X64713396Y-70188510D01*
X64701136Y-70312991D01*
X64701136Y-70337550D01*
X64698728Y-70362000D01*
X64698728Y-70498493D01*
X63367821Y-71829401D01*
X62060532Y-71829401D01*
X62096412Y-71775702D01*
X62257353Y-71387156D01*
X62339400Y-70974679D01*
X62339400Y-70554121D01*
X62257353Y-70141644D01*
X62096412Y-69753098D01*
X61862763Y-69403417D01*
X61565383Y-69106037D01*
X61215702Y-68872388D01*
X60827156Y-68711447D01*
X60414679Y-68629400D01*
X59994121Y-68629400D01*
X59581644Y-68711447D01*
X59193098Y-68872388D01*
X58843417Y-69106037D01*
X58546037Y-69403417D01*
X58354400Y-69690222D01*
X58162763Y-69403417D01*
X57865383Y-69106037D01*
X57515702Y-68872388D01*
X57389400Y-68820072D01*
X57389400Y-68377401D01*
X62715330Y-68377401D01*
X62758799Y-68381682D01*
X62802268Y-68377401D01*
X62802276Y-68377401D01*
X62932289Y-68364596D01*
X63099112Y-68313990D01*
X63252858Y-68231812D01*
X63387616Y-68121218D01*
X63415333Y-68087445D01*
X63822306Y-67680472D01*
X64295293Y-67680472D01*
X64702271Y-68087450D01*
X64729984Y-68121218D01*
X64763752Y-68148931D01*
X64763754Y-68148933D01*
X64779679Y-68162002D01*
X64864742Y-68231812D01*
X65018488Y-68313990D01*
X65185311Y-68364596D01*
X65315324Y-68377401D01*
X65315334Y-68377401D01*
X65358800Y-68381682D01*
X65402267Y-68377401D01*
X71427530Y-68377401D01*
X71470999Y-68381682D01*
X71514468Y-68377401D01*
X71514476Y-68377401D01*
X71644489Y-68364596D01*
X71811312Y-68313990D01*
X71965058Y-68231812D01*
X72099816Y-68121218D01*
X72127533Y-68087445D01*
X72534506Y-67680472D01*
X73007493Y-67680472D01*
X73414471Y-68087450D01*
X73442184Y-68121218D01*
X73475952Y-68148931D01*
X73475954Y-68148933D01*
X73491879Y-68162002D01*
X73576942Y-68231812D01*
X73730688Y-68313990D01*
X73897511Y-68364596D01*
X74027524Y-68377401D01*
X74027534Y-68377401D01*
X74071000Y-68381682D01*
X74114467Y-68377401D01*
X80139730Y-68377401D01*
X80183199Y-68381682D01*
X80226668Y-68377401D01*
X80226676Y-68377401D01*
X80356689Y-68364596D01*
X80523512Y-68313990D01*
X80677258Y-68231812D01*
X80812016Y-68121218D01*
X80839733Y-68087445D01*
X81246706Y-67680472D01*
X82333200Y-67680472D01*
X82457682Y-67668212D01*
X82577380Y-67631902D01*
X82687694Y-67572937D01*
X82784385Y-67493585D01*
X82863737Y-67396894D01*
X82922702Y-67286580D01*
X82944713Y-67214020D01*
X83076568Y-67345875D01*
X83319789Y-67508390D01*
X83590042Y-67620332D01*
X83876940Y-67677400D01*
X84169460Y-67677400D01*
X84456358Y-67620332D01*
X84726611Y-67508390D01*
X84969832Y-67345875D01*
X85176675Y-67139032D01*
X85293200Y-66964640D01*
X85409725Y-67139032D01*
X85616568Y-67345875D01*
X85859789Y-67508390D01*
X86130042Y-67620332D01*
X86416940Y-67677400D01*
X86709460Y-67677400D01*
X86996358Y-67620332D01*
X87266611Y-67508390D01*
X87509832Y-67345875D01*
X87716675Y-67139032D01*
X87879190Y-66895811D01*
X87991132Y-66625558D01*
X88048200Y-66338660D01*
X88048200Y-66046140D01*
X87991132Y-65759242D01*
X87879190Y-65488989D01*
X87716675Y-65245768D01*
X87525102Y-65054195D01*
X87525102Y-64907152D01*
X87683850Y-65065900D01*
G37*
%TD.AperFunction*%
D30*
X50721996Y-62723290D02*
X50741118Y-62819423D01*
X50777427Y-62939119D01*
X50814936Y-63029675D01*
X50873902Y-63139992D01*
X50928358Y-63221491D01*
X51007710Y-63318182D01*
X51077018Y-63387490D01*
X51173709Y-63466842D01*
X51255208Y-63521298D01*
X51365525Y-63580264D01*
X51456081Y-63617773D01*
X51575777Y-63654082D01*
X51664464Y-63671723D01*
X51664464Y-64578356D01*
X51288950Y-64580400D01*
X51130200Y-64739150D01*
X51130200Y-65938400D01*
X51150200Y-65938400D01*
X51150200Y-66192400D01*
X51130200Y-66192400D01*
X51130200Y-67391650D01*
X51288950Y-67550400D01*
X51664465Y-67552444D01*
X51664465Y-67980857D01*
X51660183Y-68024336D01*
X51677269Y-68197826D01*
X51727876Y-68364649D01*
X51810054Y-68518395D01*
X51892932Y-68619382D01*
X51892935Y-68619385D01*
X51901154Y-68629400D01*
X51794121Y-68629400D01*
X51381644Y-68711447D01*
X50993098Y-68872388D01*
X50643417Y-69106037D01*
X50346037Y-69403417D01*
X50154400Y-69690222D01*
X49962763Y-69403417D01*
X49665383Y-69106037D01*
X49348200Y-68894102D01*
X49348200Y-67260056D01*
X49409832Y-67218875D01*
X49541687Y-67087020D01*
X49563698Y-67159580D01*
X49622663Y-67269894D01*
X49702015Y-67366585D01*
X49798706Y-67445937D01*
X49909020Y-67504902D01*
X50028718Y-67541212D01*
X50153200Y-67553472D01*
X50717450Y-67550400D01*
X50876200Y-67391650D01*
X50876200Y-66192400D01*
X50856200Y-66192400D01*
X50856200Y-65938400D01*
X50876200Y-65938400D01*
X50876200Y-64739150D01*
X50717450Y-64580400D01*
X50153200Y-64577328D01*
X50028718Y-64589588D01*
X49909020Y-64625898D01*
X49798706Y-64684863D01*
X49703800Y-64762750D01*
X49703800Y-64638534D01*
X49735842Y-64599491D01*
X49790298Y-64517992D01*
X49849264Y-64407675D01*
X49886773Y-64317119D01*
X49923082Y-64197423D01*
X49942204Y-64101290D01*
X49954464Y-63976809D01*
X49954464Y-63952250D01*
X49956872Y-63927800D01*
X49956872Y-63427800D01*
X49954464Y-63403350D01*
X49954464Y-63378791D01*
X49942204Y-63254310D01*
X49923082Y-63158177D01*
X49886773Y-63038481D01*
X49849264Y-62947925D01*
X49790298Y-62837608D01*
X49735842Y-62756109D01*
X49732857Y-62752472D01*
X50354200Y-62752472D01*
X50478682Y-62740212D01*
X50598380Y-62703902D01*
X50708694Y-62644937D01*
X50713861Y-62640696D01*
X50721996Y-62723290D01*
%TA.AperFunction,Conductor*%
D31*
G36*
X50721996Y-62723290D02*
G01*
X50741118Y-62819423D01*
X50777427Y-62939119D01*
X50814936Y-63029675D01*
X50873902Y-63139992D01*
X50928358Y-63221491D01*
X51007710Y-63318182D01*
X51077018Y-63387490D01*
X51173709Y-63466842D01*
X51255208Y-63521298D01*
X51365525Y-63580264D01*
X51456081Y-63617773D01*
X51575777Y-63654082D01*
X51664464Y-63671723D01*
X51664464Y-64578356D01*
X51288950Y-64580400D01*
X51130200Y-64739150D01*
X51130200Y-65938400D01*
X51150200Y-65938400D01*
X51150200Y-66192400D01*
X51130200Y-66192400D01*
X51130200Y-67391650D01*
X51288950Y-67550400D01*
X51664465Y-67552444D01*
X51664465Y-67980857D01*
X51660183Y-68024336D01*
X51677269Y-68197826D01*
X51727876Y-68364649D01*
X51810054Y-68518395D01*
X51892932Y-68619382D01*
X51892935Y-68619385D01*
X51901154Y-68629400D01*
X51794121Y-68629400D01*
X51381644Y-68711447D01*
X50993098Y-68872388D01*
X50643417Y-69106037D01*
X50346037Y-69403417D01*
X50154400Y-69690222D01*
X49962763Y-69403417D01*
X49665383Y-69106037D01*
X49348200Y-68894102D01*
X49348200Y-67260056D01*
X49409832Y-67218875D01*
X49541687Y-67087020D01*
X49563698Y-67159580D01*
X49622663Y-67269894D01*
X49702015Y-67366585D01*
X49798706Y-67445937D01*
X49909020Y-67504902D01*
X50028718Y-67541212D01*
X50153200Y-67553472D01*
X50717450Y-67550400D01*
X50876200Y-67391650D01*
X50876200Y-66192400D01*
X50856200Y-66192400D01*
X50856200Y-65938400D01*
X50876200Y-65938400D01*
X50876200Y-64739150D01*
X50717450Y-64580400D01*
X50153200Y-64577328D01*
X50028718Y-64589588D01*
X49909020Y-64625898D01*
X49798706Y-64684863D01*
X49703800Y-64762750D01*
X49703800Y-64638534D01*
X49735842Y-64599491D01*
X49790298Y-64517992D01*
X49849264Y-64407675D01*
X49886773Y-64317119D01*
X49923082Y-64197423D01*
X49942204Y-64101290D01*
X49954464Y-63976809D01*
X49954464Y-63952250D01*
X49956872Y-63927800D01*
X49956872Y-63427800D01*
X49954464Y-63403350D01*
X49954464Y-63378791D01*
X49942204Y-63254310D01*
X49923082Y-63158177D01*
X49886773Y-63038481D01*
X49849264Y-62947925D01*
X49790298Y-62837608D01*
X49735842Y-62756109D01*
X49732857Y-62752472D01*
X50354200Y-62752472D01*
X50478682Y-62740212D01*
X50598380Y-62703902D01*
X50708694Y-62644937D01*
X50713861Y-62640696D01*
X50721996Y-62723290D01*
G37*
%TD.AperFunction*%
D30*
X37803200Y-59608872D02*
X38803200Y-59608872D01*
X38804146Y-59608779D01*
X38799400Y-59632640D01*
X38799400Y-59925160D01*
X38856468Y-60212058D01*
X38968410Y-60482311D01*
X39130925Y-60725532D01*
X39337768Y-60932375D01*
X39511129Y-61048211D01*
X39435608Y-61290503D01*
X40284400Y-62139295D01*
X41133192Y-61290503D01*
X41057671Y-61048211D01*
X41231032Y-60932375D01*
X41437875Y-60725532D01*
X41554400Y-60551140D01*
X41670925Y-60725532D01*
X41877768Y-60932375D01*
X42052160Y-61048900D01*
X41877768Y-61165425D01*
X41670925Y-61372268D01*
X41555089Y-61545629D01*
X41312797Y-61470108D01*
X40464005Y-62318900D01*
X41312797Y-63167692D01*
X41555089Y-63092171D01*
X41670925Y-63265532D01*
X41877768Y-63472375D01*
X42120989Y-63634890D01*
X42391242Y-63746832D01*
X42678140Y-63803900D01*
X42970660Y-63803900D01*
X43257558Y-63746832D01*
X43527811Y-63634890D01*
X43771032Y-63472375D01*
X43977875Y-63265532D01*
X44019056Y-63203900D01*
X45793322Y-63203900D01*
X46380728Y-63791307D01*
X46380728Y-63927800D01*
X46383136Y-63952250D01*
X46383136Y-63976809D01*
X46395396Y-64101290D01*
X46414518Y-64197423D01*
X46450827Y-64317119D01*
X46488336Y-64407675D01*
X46547302Y-64517992D01*
X46601758Y-64599491D01*
X46681110Y-64696182D01*
X46750418Y-64765490D01*
X46847109Y-64844842D01*
X46928608Y-64899298D01*
X47038925Y-64958264D01*
X47129481Y-64995773D01*
X47249177Y-65032082D01*
X47345310Y-65051204D01*
X47374422Y-65054071D01*
X47309725Y-65118768D01*
X47147210Y-65361989D01*
X47035268Y-65632242D01*
X46978200Y-65919140D01*
X46978200Y-66211660D01*
X47035268Y-66498558D01*
X47147210Y-66768811D01*
X47309725Y-67012032D01*
X47516568Y-67218875D01*
X47578200Y-67260056D01*
X47578201Y-68754295D01*
X47293098Y-68872388D01*
X47192800Y-68939405D01*
X47192800Y-68318981D01*
X47190016Y-68290709D01*
X47190059Y-68284488D01*
X47189159Y-68275317D01*
X47168432Y-68078115D01*
X47156410Y-68019551D01*
X47145196Y-67960762D01*
X47142532Y-67951940D01*
X47083897Y-67762518D01*
X47060729Y-67707405D01*
X47038307Y-67651907D01*
X47033980Y-67643771D01*
X46939670Y-67469347D01*
X46906203Y-67419731D01*
X46873465Y-67369701D01*
X46867641Y-67362560D01*
X46741247Y-67209776D01*
X46698812Y-67167637D01*
X46656949Y-67124887D01*
X46649848Y-67119013D01*
X46496186Y-66993689D01*
X46446344Y-66960574D01*
X46397004Y-66926790D01*
X46388898Y-66922407D01*
X46213820Y-66829316D01*
X46158525Y-66806525D01*
X46103530Y-66782954D01*
X46094727Y-66780229D01*
X45904900Y-66722918D01*
X45846220Y-66711300D01*
X45787713Y-66698863D01*
X45778548Y-66697900D01*
X45581206Y-66678550D01*
X45581202Y-66678550D01*
X45549219Y-66675400D01*
X38183081Y-66675400D01*
X38082269Y-66665515D01*
X38016342Y-66645611D01*
X37955545Y-66613285D01*
X37902182Y-66569762D01*
X37858285Y-66516700D01*
X37825534Y-66456127D01*
X37805172Y-66390347D01*
X37794800Y-66291669D01*
X37794800Y-65216235D01*
X38383400Y-65216235D01*
X38383400Y-65390565D01*
X38417410Y-65561545D01*
X38484123Y-65722605D01*
X38580976Y-65867555D01*
X38704245Y-65990824D01*
X38849195Y-66087677D01*
X39010255Y-66154390D01*
X39181235Y-66188400D01*
X39355565Y-66188400D01*
X39526545Y-66154390D01*
X39687605Y-66087677D01*
X39832555Y-65990824D01*
X39955824Y-65867555D01*
X40052677Y-65722605D01*
X40119390Y-65561545D01*
X40153400Y-65390565D01*
X40153400Y-65216235D01*
X40119390Y-65045255D01*
X40052677Y-64884195D01*
X39955824Y-64739245D01*
X39832555Y-64615976D01*
X39687605Y-64519123D01*
X39526545Y-64452410D01*
X39355565Y-64418400D01*
X39181235Y-64418400D01*
X39010255Y-64452410D01*
X38849195Y-64519123D01*
X38704245Y-64615976D01*
X38580976Y-64739245D01*
X38484123Y-64884195D01*
X38417410Y-65045255D01*
X38383400Y-65216235D01*
X37794800Y-65216235D01*
X37794800Y-63347297D01*
X39435608Y-63347297D01*
X39513243Y-63596372D01*
X39777283Y-63722271D01*
X40060811Y-63794239D01*
X40352931Y-63809511D01*
X40642419Y-63767499D01*
X40918147Y-63669819D01*
X41055557Y-63596372D01*
X41133192Y-63347297D01*
X40284400Y-62498505D01*
X39435608Y-63347297D01*
X37794800Y-63347297D01*
X37794800Y-62387431D01*
X38793789Y-62387431D01*
X38835801Y-62676919D01*
X38933481Y-62952647D01*
X39006928Y-63090057D01*
X39256003Y-63167692D01*
X40104795Y-62318900D01*
X39256003Y-61470108D01*
X39006928Y-61547743D01*
X38881029Y-61811783D01*
X38809061Y-62095311D01*
X38793789Y-62387431D01*
X37794800Y-62387431D01*
X37794800Y-59608045D01*
X37803200Y-59608872D01*
%TA.AperFunction,Conductor*%
D31*
G36*
X37803200Y-59608872D02*
G01*
X38803200Y-59608872D01*
X38804146Y-59608779D01*
X38799400Y-59632640D01*
X38799400Y-59925160D01*
X38856468Y-60212058D01*
X38968410Y-60482311D01*
X39130925Y-60725532D01*
X39337768Y-60932375D01*
X39511129Y-61048211D01*
X39435608Y-61290503D01*
X40284400Y-62139295D01*
X41133192Y-61290503D01*
X41057671Y-61048211D01*
X41231032Y-60932375D01*
X41437875Y-60725532D01*
X41554400Y-60551140D01*
X41670925Y-60725532D01*
X41877768Y-60932375D01*
X42052160Y-61048900D01*
X41877768Y-61165425D01*
X41670925Y-61372268D01*
X41555089Y-61545629D01*
X41312797Y-61470108D01*
X40464005Y-62318900D01*
X41312797Y-63167692D01*
X41555089Y-63092171D01*
X41670925Y-63265532D01*
X41877768Y-63472375D01*
X42120989Y-63634890D01*
X42391242Y-63746832D01*
X42678140Y-63803900D01*
X42970660Y-63803900D01*
X43257558Y-63746832D01*
X43527811Y-63634890D01*
X43771032Y-63472375D01*
X43977875Y-63265532D01*
X44019056Y-63203900D01*
X45793322Y-63203900D01*
X46380728Y-63791307D01*
X46380728Y-63927800D01*
X46383136Y-63952250D01*
X46383136Y-63976809D01*
X46395396Y-64101290D01*
X46414518Y-64197423D01*
X46450827Y-64317119D01*
X46488336Y-64407675D01*
X46547302Y-64517992D01*
X46601758Y-64599491D01*
X46681110Y-64696182D01*
X46750418Y-64765490D01*
X46847109Y-64844842D01*
X46928608Y-64899298D01*
X47038925Y-64958264D01*
X47129481Y-64995773D01*
X47249177Y-65032082D01*
X47345310Y-65051204D01*
X47374422Y-65054071D01*
X47309725Y-65118768D01*
X47147210Y-65361989D01*
X47035268Y-65632242D01*
X46978200Y-65919140D01*
X46978200Y-66211660D01*
X47035268Y-66498558D01*
X47147210Y-66768811D01*
X47309725Y-67012032D01*
X47516568Y-67218875D01*
X47578200Y-67260056D01*
X47578201Y-68754295D01*
X47293098Y-68872388D01*
X47192800Y-68939405D01*
X47192800Y-68318981D01*
X47190016Y-68290709D01*
X47190059Y-68284488D01*
X47189159Y-68275317D01*
X47168432Y-68078115D01*
X47156410Y-68019551D01*
X47145196Y-67960762D01*
X47142532Y-67951940D01*
X47083897Y-67762518D01*
X47060729Y-67707405D01*
X47038307Y-67651907D01*
X47033980Y-67643771D01*
X46939670Y-67469347D01*
X46906203Y-67419731D01*
X46873465Y-67369701D01*
X46867641Y-67362560D01*
X46741247Y-67209776D01*
X46698812Y-67167637D01*
X46656949Y-67124887D01*
X46649848Y-67119013D01*
X46496186Y-66993689D01*
X46446344Y-66960574D01*
X46397004Y-66926790D01*
X46388898Y-66922407D01*
X46213820Y-66829316D01*
X46158525Y-66806525D01*
X46103530Y-66782954D01*
X46094727Y-66780229D01*
X45904900Y-66722918D01*
X45846220Y-66711300D01*
X45787713Y-66698863D01*
X45778548Y-66697900D01*
X45581206Y-66678550D01*
X45581202Y-66678550D01*
X45549219Y-66675400D01*
X38183081Y-66675400D01*
X38082269Y-66665515D01*
X38016342Y-66645611D01*
X37955545Y-66613285D01*
X37902182Y-66569762D01*
X37858285Y-66516700D01*
X37825534Y-66456127D01*
X37805172Y-66390347D01*
X37794800Y-66291669D01*
X37794800Y-65216235D01*
X38383400Y-65216235D01*
X38383400Y-65390565D01*
X38417410Y-65561545D01*
X38484123Y-65722605D01*
X38580976Y-65867555D01*
X38704245Y-65990824D01*
X38849195Y-66087677D01*
X39010255Y-66154390D01*
X39181235Y-66188400D01*
X39355565Y-66188400D01*
X39526545Y-66154390D01*
X39687605Y-66087677D01*
X39832555Y-65990824D01*
X39955824Y-65867555D01*
X40052677Y-65722605D01*
X40119390Y-65561545D01*
X40153400Y-65390565D01*
X40153400Y-65216235D01*
X40119390Y-65045255D01*
X40052677Y-64884195D01*
X39955824Y-64739245D01*
X39832555Y-64615976D01*
X39687605Y-64519123D01*
X39526545Y-64452410D01*
X39355565Y-64418400D01*
X39181235Y-64418400D01*
X39010255Y-64452410D01*
X38849195Y-64519123D01*
X38704245Y-64615976D01*
X38580976Y-64739245D01*
X38484123Y-64884195D01*
X38417410Y-65045255D01*
X38383400Y-65216235D01*
X37794800Y-65216235D01*
X37794800Y-63347297D01*
X39435608Y-63347297D01*
X39513243Y-63596372D01*
X39777283Y-63722271D01*
X40060811Y-63794239D01*
X40352931Y-63809511D01*
X40642419Y-63767499D01*
X40918147Y-63669819D01*
X41055557Y-63596372D01*
X41133192Y-63347297D01*
X40284400Y-62498505D01*
X39435608Y-63347297D01*
X37794800Y-63347297D01*
X37794800Y-62387431D01*
X38793789Y-62387431D01*
X38835801Y-62676919D01*
X38933481Y-62952647D01*
X39006928Y-63090057D01*
X39256003Y-63167692D01*
X40104795Y-62318900D01*
X39256003Y-61470108D01*
X39006928Y-61547743D01*
X38881029Y-61811783D01*
X38809061Y-62095311D01*
X38793789Y-62387431D01*
X37794800Y-62387431D01*
X37794800Y-59608045D01*
X37803200Y-59608872D01*
G37*
%TD.AperFunction*%
D30*
X86471850Y-63903900D02*
X87271100Y-63903900D01*
X87271100Y-63883900D01*
X87525100Y-63883900D01*
X87525100Y-63903900D01*
X87545100Y-63903900D01*
X87545100Y-64157900D01*
X87525100Y-64157900D01*
X87525100Y-64177900D01*
X87271100Y-64177900D01*
X87271100Y-64157900D01*
X86471850Y-64157900D01*
X86313100Y-64316650D01*
X86310028Y-64430900D01*
X86322288Y-64555382D01*
X86358598Y-64675080D01*
X86379820Y-64714784D01*
X86130042Y-64764468D01*
X85859789Y-64876410D01*
X85616568Y-65038925D01*
X85409725Y-65245768D01*
X85293200Y-65420160D01*
X85176675Y-65245768D01*
X84969832Y-65038925D01*
X84726611Y-64876410D01*
X84456358Y-64764468D01*
X84169460Y-64707400D01*
X83876940Y-64707400D01*
X83590042Y-64764468D01*
X83319789Y-64876410D01*
X83076568Y-65038925D01*
X82944713Y-65170780D01*
X82922702Y-65098220D01*
X82863737Y-64987906D01*
X82784385Y-64891215D01*
X82687694Y-64811863D01*
X82577380Y-64752898D01*
X82457682Y-64716588D01*
X82333200Y-64704328D01*
X80633200Y-64704328D01*
X80508718Y-64716588D01*
X80389020Y-64752898D01*
X80278706Y-64811863D01*
X80182015Y-64891215D01*
X80102663Y-64987906D01*
X80043698Y-65098220D01*
X80007388Y-65217918D01*
X79995128Y-65342400D01*
X79995128Y-66428894D01*
X79816621Y-66607401D01*
X79282544Y-66607401D01*
X79336000Y-66338660D01*
X79336000Y-66046140D01*
X79278932Y-65759242D01*
X79166990Y-65488989D01*
X79004475Y-65245768D01*
X78824607Y-65065900D01*
X78825602Y-65065900D01*
X78825602Y-64907152D01*
X78984350Y-65065900D01*
X79148600Y-65068972D01*
X79273082Y-65056712D01*
X79392780Y-65020402D01*
X79503094Y-64961437D01*
X79599785Y-64882085D01*
X79679137Y-64785394D01*
X79738102Y-64675080D01*
X79774412Y-64555382D01*
X79786672Y-64430900D01*
X79784500Y-64350118D01*
X79813911Y-64365839D01*
X79969251Y-64412961D01*
X80130800Y-64428872D01*
X80700800Y-64428872D01*
X80792877Y-64419803D01*
X80979353Y-64519476D01*
X81193301Y-64584377D01*
X81346758Y-64599491D01*
X81415800Y-64606291D01*
X81471551Y-64600800D01*
X82460048Y-64600800D01*
X82515800Y-64606291D01*
X82571551Y-64600800D01*
X82571552Y-64600800D01*
X82738299Y-64584377D01*
X82952247Y-64519476D01*
X83138723Y-64419803D01*
X83230800Y-64428872D01*
X83800800Y-64428872D01*
X83962349Y-64412961D01*
X84117689Y-64365839D01*
X84260852Y-64289317D01*
X84386335Y-64186335D01*
X84489317Y-64060852D01*
X84539475Y-63967013D01*
X84593606Y-64011437D01*
X84703920Y-64070402D01*
X84823618Y-64106712D01*
X84948100Y-64118972D01*
X85848100Y-64118972D01*
X85972582Y-64106712D01*
X86092280Y-64070402D01*
X86202594Y-64011437D01*
X86299285Y-63932085D01*
X86378637Y-63835394D01*
X86387243Y-63819293D01*
X86471850Y-63903900D01*
%TA.AperFunction,Conductor*%
D31*
G36*
X86471850Y-63903900D02*
G01*
X87271100Y-63903900D01*
X87271100Y-63883900D01*
X87525100Y-63883900D01*
X87525100Y-63903900D01*
X87545100Y-63903900D01*
X87545100Y-64157900D01*
X87525100Y-64157900D01*
X87525100Y-64177900D01*
X87271100Y-64177900D01*
X87271100Y-64157900D01*
X86471850Y-64157900D01*
X86313100Y-64316650D01*
X86310028Y-64430900D01*
X86322288Y-64555382D01*
X86358598Y-64675080D01*
X86379820Y-64714784D01*
X86130042Y-64764468D01*
X85859789Y-64876410D01*
X85616568Y-65038925D01*
X85409725Y-65245768D01*
X85293200Y-65420160D01*
X85176675Y-65245768D01*
X84969832Y-65038925D01*
X84726611Y-64876410D01*
X84456358Y-64764468D01*
X84169460Y-64707400D01*
X83876940Y-64707400D01*
X83590042Y-64764468D01*
X83319789Y-64876410D01*
X83076568Y-65038925D01*
X82944713Y-65170780D01*
X82922702Y-65098220D01*
X82863737Y-64987906D01*
X82784385Y-64891215D01*
X82687694Y-64811863D01*
X82577380Y-64752898D01*
X82457682Y-64716588D01*
X82333200Y-64704328D01*
X80633200Y-64704328D01*
X80508718Y-64716588D01*
X80389020Y-64752898D01*
X80278706Y-64811863D01*
X80182015Y-64891215D01*
X80102663Y-64987906D01*
X80043698Y-65098220D01*
X80007388Y-65217918D01*
X79995128Y-65342400D01*
X79995128Y-66428894D01*
X79816621Y-66607401D01*
X79282544Y-66607401D01*
X79336000Y-66338660D01*
X79336000Y-66046140D01*
X79278932Y-65759242D01*
X79166990Y-65488989D01*
X79004475Y-65245768D01*
X78824607Y-65065900D01*
X78825602Y-65065900D01*
X78825602Y-64907152D01*
X78984350Y-65065900D01*
X79148600Y-65068972D01*
X79273082Y-65056712D01*
X79392780Y-65020402D01*
X79503094Y-64961437D01*
X79599785Y-64882085D01*
X79679137Y-64785394D01*
X79738102Y-64675080D01*
X79774412Y-64555382D01*
X79786672Y-64430900D01*
X79784500Y-64350118D01*
X79813911Y-64365839D01*
X79969251Y-64412961D01*
X80130800Y-64428872D01*
X80700800Y-64428872D01*
X80792877Y-64419803D01*
X80979353Y-64519476D01*
X81193301Y-64584377D01*
X81346758Y-64599491D01*
X81415800Y-64606291D01*
X81471551Y-64600800D01*
X82460048Y-64600800D01*
X82515800Y-64606291D01*
X82571551Y-64600800D01*
X82571552Y-64600800D01*
X82738299Y-64584377D01*
X82952247Y-64519476D01*
X83138723Y-64419803D01*
X83230800Y-64428872D01*
X83800800Y-64428872D01*
X83962349Y-64412961D01*
X84117689Y-64365839D01*
X84260852Y-64289317D01*
X84386335Y-64186335D01*
X84489317Y-64060852D01*
X84539475Y-63967013D01*
X84593606Y-64011437D01*
X84703920Y-64070402D01*
X84823618Y-64106712D01*
X84948100Y-64118972D01*
X85848100Y-64118972D01*
X85972582Y-64106712D01*
X86092280Y-64070402D01*
X86202594Y-64011437D01*
X86299285Y-63932085D01*
X86378637Y-63835394D01*
X86387243Y-63819293D01*
X86471850Y-63903900D01*
G37*
%TD.AperFunction*%
D30*
X59296288Y-62022966D02*
X59294936Y-62036691D01*
X59294936Y-62061250D01*
X59292528Y-62085700D01*
X59292528Y-62585700D01*
X59304788Y-62710182D01*
X59312529Y-62735700D01*
X59304788Y-62761218D01*
X59292528Y-62885700D01*
X59292528Y-63385700D01*
X59294936Y-63410150D01*
X59294936Y-63434709D01*
X59307196Y-63559190D01*
X59326318Y-63655323D01*
X59362627Y-63775019D01*
X59400136Y-63865575D01*
X59459102Y-63975892D01*
X59513558Y-64057391D01*
X59592910Y-64154082D01*
X59662218Y-64223390D01*
X59758909Y-64302742D01*
X59840408Y-64357198D01*
X59950725Y-64416164D01*
X60041281Y-64453673D01*
X60160977Y-64489982D01*
X60257110Y-64509104D01*
X60381591Y-64521364D01*
X60406150Y-64521364D01*
X60430600Y-64523772D01*
X60930600Y-64523772D01*
X60955050Y-64521364D01*
X60979609Y-64521364D01*
X61104090Y-64509104D01*
X61200223Y-64489982D01*
X61319919Y-64453673D01*
X61410475Y-64416164D01*
X61520792Y-64357198D01*
X61602291Y-64302742D01*
X61698982Y-64223390D01*
X61768290Y-64154082D01*
X61847642Y-64057391D01*
X61902098Y-63975892D01*
X61938409Y-63907959D01*
X61941361Y-63917689D01*
X62017883Y-64060852D01*
X62120865Y-64186335D01*
X62246348Y-64289317D01*
X62389511Y-64365839D01*
X62544851Y-64412961D01*
X62706400Y-64428872D01*
X63276400Y-64428872D01*
X63368477Y-64419803D01*
X63554953Y-64519476D01*
X63768901Y-64584377D01*
X63922358Y-64599491D01*
X63991400Y-64606291D01*
X64047151Y-64600800D01*
X65035648Y-64600800D01*
X65091400Y-64606291D01*
X65147151Y-64600800D01*
X65147152Y-64600800D01*
X65313899Y-64584377D01*
X65527847Y-64519476D01*
X65714323Y-64419803D01*
X65806400Y-64428872D01*
X66376400Y-64428872D01*
X66537949Y-64412961D01*
X66693289Y-64365839D01*
X66836452Y-64289317D01*
X66961935Y-64186335D01*
X67064917Y-64060852D01*
X67107330Y-63981502D01*
X67143806Y-64011437D01*
X67254120Y-64070402D01*
X67373818Y-64106712D01*
X67498300Y-64118972D01*
X68398300Y-64118972D01*
X68522782Y-64106712D01*
X68642480Y-64070402D01*
X68752794Y-64011437D01*
X68849485Y-63932085D01*
X68928837Y-63835394D01*
X68937443Y-63819293D01*
X69022050Y-63903900D01*
X69821300Y-63903900D01*
X69821300Y-63883900D01*
X70075300Y-63883900D01*
X70075300Y-63903900D01*
X70095300Y-63903900D01*
X70095300Y-64157900D01*
X70075300Y-64157900D01*
X70075300Y-64177900D01*
X69821300Y-64177900D01*
X69821300Y-64157900D01*
X69022050Y-64157900D01*
X68863300Y-64316650D01*
X68860228Y-64430900D01*
X68872488Y-64555382D01*
X68908798Y-64675080D01*
X68932461Y-64719350D01*
X68705642Y-64764468D01*
X68435389Y-64876410D01*
X68192168Y-65038925D01*
X67985325Y-65245768D01*
X67868800Y-65420160D01*
X67752275Y-65245768D01*
X67545432Y-65038925D01*
X67302211Y-64876410D01*
X67031958Y-64764468D01*
X66745060Y-64707400D01*
X66452540Y-64707400D01*
X66165642Y-64764468D01*
X65895389Y-64876410D01*
X65652168Y-65038925D01*
X65520313Y-65170780D01*
X65498302Y-65098220D01*
X65439337Y-64987906D01*
X65359985Y-64891215D01*
X65263294Y-64811863D01*
X65152980Y-64752898D01*
X65033282Y-64716588D01*
X64908800Y-64704328D01*
X63208800Y-64704328D01*
X63084318Y-64716588D01*
X62964620Y-64752898D01*
X62854306Y-64811863D01*
X62757615Y-64891215D01*
X62678263Y-64987906D01*
X62619298Y-65098220D01*
X62582988Y-65217918D01*
X62570728Y-65342400D01*
X62570728Y-66428894D01*
X62392221Y-66607401D01*
X61858144Y-66607401D01*
X61911600Y-66338660D01*
X61911600Y-66046140D01*
X61854532Y-65759242D01*
X61742590Y-65488989D01*
X61580075Y-65245768D01*
X61373232Y-65038925D01*
X61130011Y-64876410D01*
X60859758Y-64764468D01*
X60572860Y-64707400D01*
X60280340Y-64707400D01*
X59993442Y-64764468D01*
X59723189Y-64876410D01*
X59479968Y-65038925D01*
X59273125Y-65245768D01*
X59156600Y-65420160D01*
X59040075Y-65245768D01*
X58833232Y-65038925D01*
X58590011Y-64876410D01*
X58319758Y-64764468D01*
X58032860Y-64707400D01*
X57740340Y-64707400D01*
X57453442Y-64764468D01*
X57183189Y-64876410D01*
X56939968Y-65038925D01*
X56808113Y-65170780D01*
X56786102Y-65098220D01*
X56727137Y-64987906D01*
X56647785Y-64891215D01*
X56551094Y-64811863D01*
X56440780Y-64752898D01*
X56321082Y-64716588D01*
X56196600Y-64704328D01*
X55110107Y-64704328D01*
X54961179Y-64555400D01*
X55056701Y-64584377D01*
X55210158Y-64599491D01*
X55279200Y-64606291D01*
X55334951Y-64600800D01*
X56323448Y-64600800D01*
X56379200Y-64606291D01*
X56434951Y-64600800D01*
X56434952Y-64600800D01*
X56601699Y-64584377D01*
X56815647Y-64519476D01*
X57002123Y-64419803D01*
X57094200Y-64428872D01*
X57664200Y-64428872D01*
X57825749Y-64412961D01*
X57981089Y-64365839D01*
X58124252Y-64289317D01*
X58249735Y-64186335D01*
X58352717Y-64060852D01*
X58429239Y-63917689D01*
X58476361Y-63762349D01*
X58492272Y-63600800D01*
X58492272Y-62230800D01*
X58490730Y-62215148D01*
X58749379Y-61956500D01*
X58840878Y-61974700D01*
X59138322Y-61974700D01*
X59229821Y-61956500D01*
X59296288Y-62022966D01*
%TA.AperFunction,Conductor*%
D31*
G36*
X59296288Y-62022966D02*
G01*
X59294936Y-62036691D01*
X59294936Y-62061250D01*
X59292528Y-62085700D01*
X59292528Y-62585700D01*
X59304788Y-62710182D01*
X59312529Y-62735700D01*
X59304788Y-62761218D01*
X59292528Y-62885700D01*
X59292528Y-63385700D01*
X59294936Y-63410150D01*
X59294936Y-63434709D01*
X59307196Y-63559190D01*
X59326318Y-63655323D01*
X59362627Y-63775019D01*
X59400136Y-63865575D01*
X59459102Y-63975892D01*
X59513558Y-64057391D01*
X59592910Y-64154082D01*
X59662218Y-64223390D01*
X59758909Y-64302742D01*
X59840408Y-64357198D01*
X59950725Y-64416164D01*
X60041281Y-64453673D01*
X60160977Y-64489982D01*
X60257110Y-64509104D01*
X60381591Y-64521364D01*
X60406150Y-64521364D01*
X60430600Y-64523772D01*
X60930600Y-64523772D01*
X60955050Y-64521364D01*
X60979609Y-64521364D01*
X61104090Y-64509104D01*
X61200223Y-64489982D01*
X61319919Y-64453673D01*
X61410475Y-64416164D01*
X61520792Y-64357198D01*
X61602291Y-64302742D01*
X61698982Y-64223390D01*
X61768290Y-64154082D01*
X61847642Y-64057391D01*
X61902098Y-63975892D01*
X61938409Y-63907959D01*
X61941361Y-63917689D01*
X62017883Y-64060852D01*
X62120865Y-64186335D01*
X62246348Y-64289317D01*
X62389511Y-64365839D01*
X62544851Y-64412961D01*
X62706400Y-64428872D01*
X63276400Y-64428872D01*
X63368477Y-64419803D01*
X63554953Y-64519476D01*
X63768901Y-64584377D01*
X63922358Y-64599491D01*
X63991400Y-64606291D01*
X64047151Y-64600800D01*
X65035648Y-64600800D01*
X65091400Y-64606291D01*
X65147151Y-64600800D01*
X65147152Y-64600800D01*
X65313899Y-64584377D01*
X65527847Y-64519476D01*
X65714323Y-64419803D01*
X65806400Y-64428872D01*
X66376400Y-64428872D01*
X66537949Y-64412961D01*
X66693289Y-64365839D01*
X66836452Y-64289317D01*
X66961935Y-64186335D01*
X67064917Y-64060852D01*
X67107330Y-63981502D01*
X67143806Y-64011437D01*
X67254120Y-64070402D01*
X67373818Y-64106712D01*
X67498300Y-64118972D01*
X68398300Y-64118972D01*
X68522782Y-64106712D01*
X68642480Y-64070402D01*
X68752794Y-64011437D01*
X68849485Y-63932085D01*
X68928837Y-63835394D01*
X68937443Y-63819293D01*
X69022050Y-63903900D01*
X69821300Y-63903900D01*
X69821300Y-63883900D01*
X70075300Y-63883900D01*
X70075300Y-63903900D01*
X70095300Y-63903900D01*
X70095300Y-64157900D01*
X70075300Y-64157900D01*
X70075300Y-64177900D01*
X69821300Y-64177900D01*
X69821300Y-64157900D01*
X69022050Y-64157900D01*
X68863300Y-64316650D01*
X68860228Y-64430900D01*
X68872488Y-64555382D01*
X68908798Y-64675080D01*
X68932461Y-64719350D01*
X68705642Y-64764468D01*
X68435389Y-64876410D01*
X68192168Y-65038925D01*
X67985325Y-65245768D01*
X67868800Y-65420160D01*
X67752275Y-65245768D01*
X67545432Y-65038925D01*
X67302211Y-64876410D01*
X67031958Y-64764468D01*
X66745060Y-64707400D01*
X66452540Y-64707400D01*
X66165642Y-64764468D01*
X65895389Y-64876410D01*
X65652168Y-65038925D01*
X65520313Y-65170780D01*
X65498302Y-65098220D01*
X65439337Y-64987906D01*
X65359985Y-64891215D01*
X65263294Y-64811863D01*
X65152980Y-64752898D01*
X65033282Y-64716588D01*
X64908800Y-64704328D01*
X63208800Y-64704328D01*
X63084318Y-64716588D01*
X62964620Y-64752898D01*
X62854306Y-64811863D01*
X62757615Y-64891215D01*
X62678263Y-64987906D01*
X62619298Y-65098220D01*
X62582988Y-65217918D01*
X62570728Y-65342400D01*
X62570728Y-66428894D01*
X62392221Y-66607401D01*
X61858144Y-66607401D01*
X61911600Y-66338660D01*
X61911600Y-66046140D01*
X61854532Y-65759242D01*
X61742590Y-65488989D01*
X61580075Y-65245768D01*
X61373232Y-65038925D01*
X61130011Y-64876410D01*
X60859758Y-64764468D01*
X60572860Y-64707400D01*
X60280340Y-64707400D01*
X59993442Y-64764468D01*
X59723189Y-64876410D01*
X59479968Y-65038925D01*
X59273125Y-65245768D01*
X59156600Y-65420160D01*
X59040075Y-65245768D01*
X58833232Y-65038925D01*
X58590011Y-64876410D01*
X58319758Y-64764468D01*
X58032860Y-64707400D01*
X57740340Y-64707400D01*
X57453442Y-64764468D01*
X57183189Y-64876410D01*
X56939968Y-65038925D01*
X56808113Y-65170780D01*
X56786102Y-65098220D01*
X56727137Y-64987906D01*
X56647785Y-64891215D01*
X56551094Y-64811863D01*
X56440780Y-64752898D01*
X56321082Y-64716588D01*
X56196600Y-64704328D01*
X55110107Y-64704328D01*
X54961179Y-64555400D01*
X55056701Y-64584377D01*
X55210158Y-64599491D01*
X55279200Y-64606291D01*
X55334951Y-64600800D01*
X56323448Y-64600800D01*
X56379200Y-64606291D01*
X56434951Y-64600800D01*
X56434952Y-64600800D01*
X56601699Y-64584377D01*
X56815647Y-64519476D01*
X57002123Y-64419803D01*
X57094200Y-64428872D01*
X57664200Y-64428872D01*
X57825749Y-64412961D01*
X57981089Y-64365839D01*
X58124252Y-64289317D01*
X58249735Y-64186335D01*
X58352717Y-64060852D01*
X58429239Y-63917689D01*
X58476361Y-63762349D01*
X58492272Y-63600800D01*
X58492272Y-62230800D01*
X58490730Y-62215148D01*
X58749379Y-61956500D01*
X58840878Y-61974700D01*
X59138322Y-61974700D01*
X59229821Y-61956500D01*
X59296288Y-62022966D01*
G37*
%TD.AperFunction*%
D30*
X77772350Y-63903900D02*
X78571600Y-63903900D01*
X78571600Y-63883900D01*
X78825600Y-63883900D01*
X78825600Y-63903900D01*
X78845600Y-63903900D01*
X78845600Y-64157900D01*
X78825600Y-64157900D01*
X78825600Y-64177900D01*
X78571600Y-64177900D01*
X78571600Y-64157900D01*
X77772350Y-64157900D01*
X77613600Y-64316650D01*
X77610528Y-64430900D01*
X77622788Y-64555382D01*
X77659098Y-64675080D01*
X77679100Y-64712500D01*
X77417842Y-64764468D01*
X77147589Y-64876410D01*
X76904368Y-65038925D01*
X76697525Y-65245768D01*
X76581000Y-65420160D01*
X76464475Y-65245768D01*
X76257632Y-65038925D01*
X76014411Y-64876410D01*
X75744158Y-64764468D01*
X75457260Y-64707400D01*
X75164740Y-64707400D01*
X74877842Y-64764468D01*
X74607589Y-64876410D01*
X74364368Y-65038925D01*
X74232513Y-65170780D01*
X74210502Y-65098220D01*
X74151537Y-64987906D01*
X74072185Y-64891215D01*
X73975494Y-64811863D01*
X73865180Y-64752898D01*
X73745482Y-64716588D01*
X73621000Y-64704328D01*
X71921000Y-64704328D01*
X71796518Y-64716588D01*
X71676820Y-64752898D01*
X71566506Y-64811863D01*
X71469815Y-64891215D01*
X71390463Y-64987906D01*
X71331498Y-65098220D01*
X71295188Y-65217918D01*
X71282928Y-65342400D01*
X71282928Y-66428894D01*
X71104421Y-66607401D01*
X70570344Y-66607401D01*
X70623800Y-66338660D01*
X70623800Y-66046140D01*
X70566732Y-65759242D01*
X70454790Y-65488989D01*
X70292275Y-65245768D01*
X70085432Y-65038925D01*
X70075302Y-65032156D01*
X70075302Y-64907152D01*
X70234050Y-65065900D01*
X70398300Y-65068972D01*
X70522782Y-65056712D01*
X70642480Y-65020402D01*
X70752794Y-64961437D01*
X70849485Y-64882085D01*
X70928837Y-64785394D01*
X70987802Y-64675080D01*
X71024112Y-64555382D01*
X71036372Y-64430900D01*
X71033300Y-64316650D01*
X71031251Y-64314601D01*
X71127111Y-64365839D01*
X71282451Y-64412961D01*
X71444000Y-64428872D01*
X72014000Y-64428872D01*
X72106077Y-64419803D01*
X72292553Y-64519476D01*
X72506501Y-64584377D01*
X72659958Y-64599491D01*
X72729000Y-64606291D01*
X72784751Y-64600800D01*
X73773248Y-64600800D01*
X73829000Y-64606291D01*
X73884751Y-64600800D01*
X73884752Y-64600800D01*
X74051499Y-64584377D01*
X74265447Y-64519476D01*
X74451923Y-64419803D01*
X74544000Y-64428872D01*
X75114000Y-64428872D01*
X75275549Y-64412961D01*
X75430889Y-64365839D01*
X75574052Y-64289317D01*
X75699535Y-64186335D01*
X75802517Y-64060852D01*
X75848803Y-63974258D01*
X75894106Y-64011437D01*
X76004420Y-64070402D01*
X76124118Y-64106712D01*
X76248600Y-64118972D01*
X77148600Y-64118972D01*
X77273082Y-64106712D01*
X77392780Y-64070402D01*
X77503094Y-64011437D01*
X77599785Y-63932085D01*
X77679137Y-63835394D01*
X77687743Y-63819293D01*
X77772350Y-63903900D01*
%TA.AperFunction,Conductor*%
D31*
G36*
X77772350Y-63903900D02*
G01*
X78571600Y-63903900D01*
X78571600Y-63883900D01*
X78825600Y-63883900D01*
X78825600Y-63903900D01*
X78845600Y-63903900D01*
X78845600Y-64157900D01*
X78825600Y-64157900D01*
X78825600Y-64177900D01*
X78571600Y-64177900D01*
X78571600Y-64157900D01*
X77772350Y-64157900D01*
X77613600Y-64316650D01*
X77610528Y-64430900D01*
X77622788Y-64555382D01*
X77659098Y-64675080D01*
X77679100Y-64712500D01*
X77417842Y-64764468D01*
X77147589Y-64876410D01*
X76904368Y-65038925D01*
X76697525Y-65245768D01*
X76581000Y-65420160D01*
X76464475Y-65245768D01*
X76257632Y-65038925D01*
X76014411Y-64876410D01*
X75744158Y-64764468D01*
X75457260Y-64707400D01*
X75164740Y-64707400D01*
X74877842Y-64764468D01*
X74607589Y-64876410D01*
X74364368Y-65038925D01*
X74232513Y-65170780D01*
X74210502Y-65098220D01*
X74151537Y-64987906D01*
X74072185Y-64891215D01*
X73975494Y-64811863D01*
X73865180Y-64752898D01*
X73745482Y-64716588D01*
X73621000Y-64704328D01*
X71921000Y-64704328D01*
X71796518Y-64716588D01*
X71676820Y-64752898D01*
X71566506Y-64811863D01*
X71469815Y-64891215D01*
X71390463Y-64987906D01*
X71331498Y-65098220D01*
X71295188Y-65217918D01*
X71282928Y-65342400D01*
X71282928Y-66428894D01*
X71104421Y-66607401D01*
X70570344Y-66607401D01*
X70623800Y-66338660D01*
X70623800Y-66046140D01*
X70566732Y-65759242D01*
X70454790Y-65488989D01*
X70292275Y-65245768D01*
X70085432Y-65038925D01*
X70075302Y-65032156D01*
X70075302Y-64907152D01*
X70234050Y-65065900D01*
X70398300Y-65068972D01*
X70522782Y-65056712D01*
X70642480Y-65020402D01*
X70752794Y-64961437D01*
X70849485Y-64882085D01*
X70928837Y-64785394D01*
X70987802Y-64675080D01*
X71024112Y-64555382D01*
X71036372Y-64430900D01*
X71033300Y-64316650D01*
X71031251Y-64314601D01*
X71127111Y-64365839D01*
X71282451Y-64412961D01*
X71444000Y-64428872D01*
X72014000Y-64428872D01*
X72106077Y-64419803D01*
X72292553Y-64519476D01*
X72506501Y-64584377D01*
X72659958Y-64599491D01*
X72729000Y-64606291D01*
X72784751Y-64600800D01*
X73773248Y-64600800D01*
X73829000Y-64606291D01*
X73884751Y-64600800D01*
X73884752Y-64600800D01*
X74051499Y-64584377D01*
X74265447Y-64519476D01*
X74451923Y-64419803D01*
X74544000Y-64428872D01*
X75114000Y-64428872D01*
X75275549Y-64412961D01*
X75430889Y-64365839D01*
X75574052Y-64289317D01*
X75699535Y-64186335D01*
X75802517Y-64060852D01*
X75848803Y-63974258D01*
X75894106Y-64011437D01*
X76004420Y-64070402D01*
X76124118Y-64106712D01*
X76248600Y-64118972D01*
X77148600Y-64118972D01*
X77273082Y-64106712D01*
X77392780Y-64070402D01*
X77503094Y-64011437D01*
X77599785Y-63932085D01*
X77679137Y-63835394D01*
X77687743Y-63819293D01*
X77772350Y-63903900D01*
G37*
%TD.AperFunction*%
D30*
X69047115Y-62982085D02*
X69143806Y-63061437D01*
X69180218Y-63080900D01*
X69143806Y-63100363D01*
X69047115Y-63179715D01*
X69036372Y-63192805D01*
X69036372Y-62968995D01*
X69047115Y-62982085D01*
%TA.AperFunction,Conductor*%
D31*
G36*
X69047115Y-62982085D02*
G01*
X69143806Y-63061437D01*
X69180218Y-63080900D01*
X69143806Y-63100363D01*
X69047115Y-63179715D01*
X69036372Y-63192805D01*
X69036372Y-62968995D01*
X69047115Y-62982085D01*
G37*
%TD.AperFunction*%
D30*
X77797415Y-62982085D02*
X77894106Y-63061437D01*
X77930518Y-63080900D01*
X77894106Y-63100363D01*
X77797415Y-63179715D01*
X77786672Y-63192805D01*
X77786672Y-62968995D01*
X77797415Y-62982085D01*
%TA.AperFunction,Conductor*%
D31*
G36*
X77797415Y-62982085D02*
G01*
X77894106Y-63061437D01*
X77930518Y-63080900D01*
X77894106Y-63100363D01*
X77797415Y-63179715D01*
X77786672Y-63192805D01*
X77786672Y-62968995D01*
X77797415Y-62982085D01*
G37*
%TD.AperFunction*%
D30*
X86496915Y-62982085D02*
X86593606Y-63061437D01*
X86630018Y-63080900D01*
X86593606Y-63100363D01*
X86496915Y-63179715D01*
X86486172Y-63192805D01*
X86486172Y-62968995D01*
X86496915Y-62982085D01*
%TA.AperFunction,Conductor*%
D31*
G36*
X86496915Y-62982085D02*
G01*
X86593606Y-63061437D01*
X86630018Y-63080900D01*
X86593606Y-63100363D01*
X86496915Y-63179715D01*
X86486172Y-63192805D01*
X86486172Y-62968995D01*
X86496915Y-62982085D01*
G37*
%TD.AperFunction*%
D30*
X53598128Y-47949800D02*
X53610388Y-48074282D01*
X53646698Y-48193980D01*
X53705663Y-48304294D01*
X53785015Y-48400985D01*
X53844496Y-48449800D01*
X53785015Y-48498615D01*
X53705663Y-48595306D01*
X53646698Y-48705620D01*
X53610388Y-48825318D01*
X53598128Y-48949800D01*
X53598128Y-49268767D01*
X53593645Y-49277154D01*
X53573654Y-49314554D01*
X53530197Y-49457815D01*
X53519200Y-49569468D01*
X53519200Y-49569478D01*
X53515524Y-49606800D01*
X53519200Y-49644123D01*
X53519200Y-50574599D01*
X53230155Y-50025530D01*
X53203148Y-49985112D01*
X52713481Y-49624924D01*
X50192205Y-52146200D01*
X52713481Y-54667476D01*
X53203148Y-54307288D01*
X53457782Y-53838044D01*
X53534148Y-53900717D01*
X53677311Y-53977239D01*
X53832651Y-54024361D01*
X53994200Y-54040272D01*
X54564200Y-54040272D01*
X54656277Y-54031203D01*
X54842753Y-54130876D01*
X55056701Y-54195777D01*
X55279200Y-54217691D01*
X55334951Y-54212200D01*
X56323448Y-54212200D01*
X56379200Y-54217691D01*
X56434951Y-54212200D01*
X56434952Y-54212200D01*
X56601699Y-54195777D01*
X56815647Y-54130876D01*
X57002123Y-54031203D01*
X57094200Y-54040272D01*
X57664200Y-54040272D01*
X57825749Y-54024361D01*
X57981089Y-53977239D01*
X58124252Y-53900717D01*
X58249735Y-53797735D01*
X58352717Y-53672252D01*
X58413158Y-53559175D01*
X58444306Y-53584737D01*
X58554620Y-53643702D01*
X58674318Y-53680012D01*
X58798800Y-53692272D01*
X59698800Y-53692272D01*
X59823282Y-53680012D01*
X59942980Y-53643702D01*
X60053294Y-53584737D01*
X60149985Y-53505385D01*
X60229337Y-53408694D01*
X60237943Y-53392593D01*
X60322550Y-53477200D01*
X61121800Y-53477200D01*
X61121800Y-53457200D01*
X61375800Y-53457200D01*
X61375800Y-53477200D01*
X61395800Y-53477200D01*
X61395800Y-53731200D01*
X61375800Y-53731200D01*
X61375800Y-53751200D01*
X61121800Y-53751200D01*
X61121800Y-53731200D01*
X60322550Y-53731200D01*
X60163800Y-53889950D01*
X60160728Y-54004200D01*
X60172988Y-54128682D01*
X60209298Y-54248380D01*
X60237877Y-54301847D01*
X59993442Y-54350468D01*
X59723189Y-54462410D01*
X59479968Y-54624925D01*
X59273125Y-54831768D01*
X59156600Y-55006160D01*
X59040075Y-54831768D01*
X58833232Y-54624925D01*
X58590011Y-54462410D01*
X58319758Y-54350468D01*
X58032860Y-54293400D01*
X57740340Y-54293400D01*
X57453442Y-54350468D01*
X57183189Y-54462410D01*
X56939968Y-54624925D01*
X56808113Y-54756780D01*
X56786102Y-54684220D01*
X56727137Y-54573906D01*
X56647785Y-54477215D01*
X56551094Y-54397863D01*
X56440780Y-54338898D01*
X56321082Y-54302588D01*
X56196600Y-54290328D01*
X54496600Y-54290328D01*
X54372118Y-54302588D01*
X54252420Y-54338898D01*
X54142106Y-54397863D01*
X54045415Y-54477215D01*
X53966063Y-54573906D01*
X53907098Y-54684220D01*
X53870788Y-54803918D01*
X53858528Y-54928400D01*
X53858528Y-56014893D01*
X52759146Y-57114276D01*
X52725373Y-57141993D01*
X52614779Y-57276752D01*
X52532601Y-57430498D01*
X52507695Y-57512601D01*
X52483168Y-57593455D01*
X52481995Y-57597321D01*
X52469190Y-57727334D01*
X52469190Y-57727341D01*
X52464909Y-57770810D01*
X52469190Y-57814279D01*
X52469190Y-60121501D01*
X52394409Y-60114136D01*
X52369850Y-60114136D01*
X52345400Y-60111728D01*
X51845400Y-60111728D01*
X51820950Y-60114136D01*
X51796391Y-60114136D01*
X51671910Y-60126396D01*
X51575777Y-60145518D01*
X51456081Y-60181827D01*
X51365525Y-60219336D01*
X51255208Y-60278302D01*
X51173709Y-60332758D01*
X51147338Y-60354400D01*
X50991287Y-60354400D01*
X50980012Y-60239918D01*
X50943702Y-60120220D01*
X50884737Y-60009906D01*
X50805385Y-59913215D01*
X50708694Y-59833863D01*
X50598380Y-59774898D01*
X50583636Y-59770426D01*
X50652093Y-59701969D01*
X50817344Y-59454653D01*
X50931171Y-59179851D01*
X50989200Y-58888122D01*
X50989200Y-58590678D01*
X50931171Y-58298949D01*
X50817344Y-58024147D01*
X50652093Y-57776831D01*
X50441769Y-57566507D01*
X50194453Y-57401256D01*
X49919651Y-57287429D01*
X49627922Y-57229400D01*
X49330478Y-57229400D01*
X49038749Y-57287429D01*
X48763947Y-57401256D01*
X48516631Y-57566507D01*
X48306307Y-57776831D01*
X48141056Y-58024147D01*
X48027229Y-58298949D01*
X47969200Y-58590678D01*
X47969200Y-58888122D01*
X48027229Y-59179851D01*
X48141056Y-59454653D01*
X48306307Y-59701969D01*
X48374764Y-59770426D01*
X48360020Y-59774898D01*
X48249706Y-59833863D01*
X48153015Y-59913215D01*
X48073663Y-60009906D01*
X48014698Y-60120220D01*
X47978388Y-60239918D01*
X47966128Y-60364400D01*
X47966128Y-62114400D01*
X47978388Y-62238882D01*
X47993812Y-62289728D01*
X47518800Y-62289728D01*
X47494350Y-62292136D01*
X47469791Y-62292136D01*
X47392342Y-62299764D01*
X46816434Y-61723856D01*
X46788717Y-61690083D01*
X46653959Y-61579489D01*
X46500213Y-61497311D01*
X46333390Y-61446705D01*
X46203377Y-61433900D01*
X46203369Y-61433900D01*
X46159900Y-61429619D01*
X46116431Y-61433900D01*
X44019056Y-61433900D01*
X43977875Y-61372268D01*
X43771032Y-61165425D01*
X43596640Y-61048900D01*
X43771032Y-60932375D01*
X43977875Y-60725532D01*
X44140390Y-60482311D01*
X44252332Y-60212058D01*
X44309400Y-59925160D01*
X44309400Y-59632640D01*
X44252332Y-59345742D01*
X44140390Y-59075489D01*
X43977875Y-58832268D01*
X43771032Y-58625425D01*
X43596640Y-58508900D01*
X43771032Y-58392375D01*
X43977875Y-58185532D01*
X44140390Y-57942311D01*
X44252332Y-57672058D01*
X44309400Y-57385160D01*
X44309400Y-57092640D01*
X44252332Y-56805742D01*
X44140390Y-56535489D01*
X43977875Y-56292268D01*
X43771032Y-56085425D01*
X43596640Y-55968900D01*
X43771032Y-55852375D01*
X43977875Y-55645532D01*
X44140390Y-55402311D01*
X44252332Y-55132058D01*
X44309017Y-54847081D01*
X47491324Y-54847081D01*
X47851512Y-55336748D01*
X48515482Y-55697049D01*
X49236985Y-55920894D01*
X49988295Y-55999680D01*
X50740538Y-55930378D01*
X51464808Y-55715652D01*
X52133270Y-55363755D01*
X52173688Y-55336748D01*
X52533876Y-54847081D01*
X50012600Y-52325805D01*
X47491324Y-54847081D01*
X44309017Y-54847081D01*
X44309400Y-54845160D01*
X44309400Y-54552640D01*
X44252332Y-54265742D01*
X44140390Y-53995489D01*
X43977875Y-53752268D01*
X43771032Y-53545425D01*
X43596640Y-53428900D01*
X43771032Y-53312375D01*
X43977875Y-53105532D01*
X44140390Y-52862311D01*
X44252332Y-52592058D01*
X44309400Y-52305160D01*
X44309400Y-52121895D01*
X46159120Y-52121895D01*
X46228422Y-52874138D01*
X46443148Y-53598408D01*
X46795045Y-54266870D01*
X46822052Y-54307288D01*
X47311719Y-54667476D01*
X49832995Y-52146200D01*
X47311719Y-49624924D01*
X46822052Y-49985112D01*
X46461751Y-50649082D01*
X46237906Y-51370585D01*
X46159120Y-52121895D01*
X44309400Y-52121895D01*
X44309400Y-52012640D01*
X44252332Y-51725742D01*
X44140390Y-51455489D01*
X43977875Y-51212268D01*
X43771032Y-51005425D01*
X43527811Y-50842910D01*
X43257558Y-50730968D01*
X42970660Y-50673900D01*
X42678140Y-50673900D01*
X42391242Y-50730968D01*
X42120989Y-50842910D01*
X41877768Y-51005425D01*
X41745913Y-51137280D01*
X41723902Y-51064720D01*
X41664937Y-50954406D01*
X41585585Y-50857715D01*
X41488894Y-50778363D01*
X41378580Y-50719398D01*
X41258882Y-50683088D01*
X41134400Y-50670828D01*
X39434400Y-50670828D01*
X39309918Y-50683088D01*
X39190220Y-50719398D01*
X39079906Y-50778363D01*
X38983215Y-50857715D01*
X38903863Y-50954406D01*
X38844898Y-51064720D01*
X38808588Y-51184418D01*
X38796328Y-51308900D01*
X38796328Y-53008900D01*
X38808588Y-53133382D01*
X38844898Y-53253080D01*
X38903863Y-53363394D01*
X38983215Y-53460085D01*
X39079906Y-53539437D01*
X39190220Y-53598402D01*
X39262780Y-53620413D01*
X39130925Y-53752268D01*
X38968410Y-53995489D01*
X38856468Y-54265742D01*
X38799400Y-54552640D01*
X38799400Y-54845160D01*
X38812983Y-54913444D01*
X38634267Y-54839417D01*
X38414988Y-54795800D01*
X38191412Y-54795800D01*
X37972133Y-54839417D01*
X37794800Y-54912871D01*
X37794800Y-49061835D01*
X38358000Y-49061835D01*
X38358000Y-49236165D01*
X38392010Y-49407145D01*
X38458723Y-49568205D01*
X38555576Y-49713155D01*
X38678845Y-49836424D01*
X38823795Y-49933277D01*
X38984855Y-49999990D01*
X39155835Y-50034000D01*
X39330165Y-50034000D01*
X39501145Y-49999990D01*
X39662205Y-49933277D01*
X39807155Y-49836424D01*
X39930424Y-49713155D01*
X40027277Y-49568205D01*
X40078177Y-49445319D01*
X47491324Y-49445319D01*
X50012600Y-51966595D01*
X52533876Y-49445319D01*
X52173688Y-48955652D01*
X51509718Y-48595351D01*
X50788215Y-48371506D01*
X50036905Y-48292720D01*
X49284662Y-48362022D01*
X48560392Y-48576748D01*
X47891930Y-48928645D01*
X47851512Y-48955652D01*
X47491324Y-49445319D01*
X40078177Y-49445319D01*
X40093990Y-49407145D01*
X40128000Y-49236165D01*
X40128000Y-49061835D01*
X40093990Y-48890855D01*
X40027277Y-48729795D01*
X39930424Y-48584845D01*
X39807155Y-48461576D01*
X39662205Y-48364723D01*
X39501145Y-48298010D01*
X39330165Y-48264000D01*
X39155835Y-48264000D01*
X38984855Y-48298010D01*
X38823795Y-48364723D01*
X38678845Y-48461576D01*
X38555576Y-48584845D01*
X38458723Y-48729795D01*
X38392010Y-48890855D01*
X38358000Y-49061835D01*
X37794800Y-49061835D01*
X37794800Y-48190681D01*
X37804685Y-48089867D01*
X37824589Y-48023943D01*
X37856915Y-47963145D01*
X37900439Y-47909781D01*
X37953496Y-47865888D01*
X38014071Y-47833134D01*
X38079853Y-47812772D01*
X38178530Y-47802400D01*
X53598128Y-47802400D01*
X53598128Y-47949800D01*
%TA.AperFunction,Conductor*%
D31*
G36*
X53598128Y-47949800D02*
G01*
X53610388Y-48074282D01*
X53646698Y-48193980D01*
X53705663Y-48304294D01*
X53785015Y-48400985D01*
X53844496Y-48449800D01*
X53785015Y-48498615D01*
X53705663Y-48595306D01*
X53646698Y-48705620D01*
X53610388Y-48825318D01*
X53598128Y-48949800D01*
X53598128Y-49268767D01*
X53593645Y-49277154D01*
X53573654Y-49314554D01*
X53530197Y-49457815D01*
X53519200Y-49569468D01*
X53519200Y-49569478D01*
X53515524Y-49606800D01*
X53519200Y-49644123D01*
X53519200Y-50574599D01*
X53230155Y-50025530D01*
X53203148Y-49985112D01*
X52713481Y-49624924D01*
X50192205Y-52146200D01*
X52713481Y-54667476D01*
X53203148Y-54307288D01*
X53457782Y-53838044D01*
X53534148Y-53900717D01*
X53677311Y-53977239D01*
X53832651Y-54024361D01*
X53994200Y-54040272D01*
X54564200Y-54040272D01*
X54656277Y-54031203D01*
X54842753Y-54130876D01*
X55056701Y-54195777D01*
X55279200Y-54217691D01*
X55334951Y-54212200D01*
X56323448Y-54212200D01*
X56379200Y-54217691D01*
X56434951Y-54212200D01*
X56434952Y-54212200D01*
X56601699Y-54195777D01*
X56815647Y-54130876D01*
X57002123Y-54031203D01*
X57094200Y-54040272D01*
X57664200Y-54040272D01*
X57825749Y-54024361D01*
X57981089Y-53977239D01*
X58124252Y-53900717D01*
X58249735Y-53797735D01*
X58352717Y-53672252D01*
X58413158Y-53559175D01*
X58444306Y-53584737D01*
X58554620Y-53643702D01*
X58674318Y-53680012D01*
X58798800Y-53692272D01*
X59698800Y-53692272D01*
X59823282Y-53680012D01*
X59942980Y-53643702D01*
X60053294Y-53584737D01*
X60149985Y-53505385D01*
X60229337Y-53408694D01*
X60237943Y-53392593D01*
X60322550Y-53477200D01*
X61121800Y-53477200D01*
X61121800Y-53457200D01*
X61375800Y-53457200D01*
X61375800Y-53477200D01*
X61395800Y-53477200D01*
X61395800Y-53731200D01*
X61375800Y-53731200D01*
X61375800Y-53751200D01*
X61121800Y-53751200D01*
X61121800Y-53731200D01*
X60322550Y-53731200D01*
X60163800Y-53889950D01*
X60160728Y-54004200D01*
X60172988Y-54128682D01*
X60209298Y-54248380D01*
X60237877Y-54301847D01*
X59993442Y-54350468D01*
X59723189Y-54462410D01*
X59479968Y-54624925D01*
X59273125Y-54831768D01*
X59156600Y-55006160D01*
X59040075Y-54831768D01*
X58833232Y-54624925D01*
X58590011Y-54462410D01*
X58319758Y-54350468D01*
X58032860Y-54293400D01*
X57740340Y-54293400D01*
X57453442Y-54350468D01*
X57183189Y-54462410D01*
X56939968Y-54624925D01*
X56808113Y-54756780D01*
X56786102Y-54684220D01*
X56727137Y-54573906D01*
X56647785Y-54477215D01*
X56551094Y-54397863D01*
X56440780Y-54338898D01*
X56321082Y-54302588D01*
X56196600Y-54290328D01*
X54496600Y-54290328D01*
X54372118Y-54302588D01*
X54252420Y-54338898D01*
X54142106Y-54397863D01*
X54045415Y-54477215D01*
X53966063Y-54573906D01*
X53907098Y-54684220D01*
X53870788Y-54803918D01*
X53858528Y-54928400D01*
X53858528Y-56014893D01*
X52759146Y-57114276D01*
X52725373Y-57141993D01*
X52614779Y-57276752D01*
X52532601Y-57430498D01*
X52507695Y-57512601D01*
X52483168Y-57593455D01*
X52481995Y-57597321D01*
X52469190Y-57727334D01*
X52469190Y-57727341D01*
X52464909Y-57770810D01*
X52469190Y-57814279D01*
X52469190Y-60121501D01*
X52394409Y-60114136D01*
X52369850Y-60114136D01*
X52345400Y-60111728D01*
X51845400Y-60111728D01*
X51820950Y-60114136D01*
X51796391Y-60114136D01*
X51671910Y-60126396D01*
X51575777Y-60145518D01*
X51456081Y-60181827D01*
X51365525Y-60219336D01*
X51255208Y-60278302D01*
X51173709Y-60332758D01*
X51147338Y-60354400D01*
X50991287Y-60354400D01*
X50980012Y-60239918D01*
X50943702Y-60120220D01*
X50884737Y-60009906D01*
X50805385Y-59913215D01*
X50708694Y-59833863D01*
X50598380Y-59774898D01*
X50583636Y-59770426D01*
X50652093Y-59701969D01*
X50817344Y-59454653D01*
X50931171Y-59179851D01*
X50989200Y-58888122D01*
X50989200Y-58590678D01*
X50931171Y-58298949D01*
X50817344Y-58024147D01*
X50652093Y-57776831D01*
X50441769Y-57566507D01*
X50194453Y-57401256D01*
X49919651Y-57287429D01*
X49627922Y-57229400D01*
X49330478Y-57229400D01*
X49038749Y-57287429D01*
X48763947Y-57401256D01*
X48516631Y-57566507D01*
X48306307Y-57776831D01*
X48141056Y-58024147D01*
X48027229Y-58298949D01*
X47969200Y-58590678D01*
X47969200Y-58888122D01*
X48027229Y-59179851D01*
X48141056Y-59454653D01*
X48306307Y-59701969D01*
X48374764Y-59770426D01*
X48360020Y-59774898D01*
X48249706Y-59833863D01*
X48153015Y-59913215D01*
X48073663Y-60009906D01*
X48014698Y-60120220D01*
X47978388Y-60239918D01*
X47966128Y-60364400D01*
X47966128Y-62114400D01*
X47978388Y-62238882D01*
X47993812Y-62289728D01*
X47518800Y-62289728D01*
X47494350Y-62292136D01*
X47469791Y-62292136D01*
X47392342Y-62299764D01*
X46816434Y-61723856D01*
X46788717Y-61690083D01*
X46653959Y-61579489D01*
X46500213Y-61497311D01*
X46333390Y-61446705D01*
X46203377Y-61433900D01*
X46203369Y-61433900D01*
X46159900Y-61429619D01*
X46116431Y-61433900D01*
X44019056Y-61433900D01*
X43977875Y-61372268D01*
X43771032Y-61165425D01*
X43596640Y-61048900D01*
X43771032Y-60932375D01*
X43977875Y-60725532D01*
X44140390Y-60482311D01*
X44252332Y-60212058D01*
X44309400Y-59925160D01*
X44309400Y-59632640D01*
X44252332Y-59345742D01*
X44140390Y-59075489D01*
X43977875Y-58832268D01*
X43771032Y-58625425D01*
X43596640Y-58508900D01*
X43771032Y-58392375D01*
X43977875Y-58185532D01*
X44140390Y-57942311D01*
X44252332Y-57672058D01*
X44309400Y-57385160D01*
X44309400Y-57092640D01*
X44252332Y-56805742D01*
X44140390Y-56535489D01*
X43977875Y-56292268D01*
X43771032Y-56085425D01*
X43596640Y-55968900D01*
X43771032Y-55852375D01*
X43977875Y-55645532D01*
X44140390Y-55402311D01*
X44252332Y-55132058D01*
X44309017Y-54847081D01*
X47491324Y-54847081D01*
X47851512Y-55336748D01*
X48515482Y-55697049D01*
X49236985Y-55920894D01*
X49988295Y-55999680D01*
X50740538Y-55930378D01*
X51464808Y-55715652D01*
X52133270Y-55363755D01*
X52173688Y-55336748D01*
X52533876Y-54847081D01*
X50012600Y-52325805D01*
X47491324Y-54847081D01*
X44309017Y-54847081D01*
X44309400Y-54845160D01*
X44309400Y-54552640D01*
X44252332Y-54265742D01*
X44140390Y-53995489D01*
X43977875Y-53752268D01*
X43771032Y-53545425D01*
X43596640Y-53428900D01*
X43771032Y-53312375D01*
X43977875Y-53105532D01*
X44140390Y-52862311D01*
X44252332Y-52592058D01*
X44309400Y-52305160D01*
X44309400Y-52121895D01*
X46159120Y-52121895D01*
X46228422Y-52874138D01*
X46443148Y-53598408D01*
X46795045Y-54266870D01*
X46822052Y-54307288D01*
X47311719Y-54667476D01*
X49832995Y-52146200D01*
X47311719Y-49624924D01*
X46822052Y-49985112D01*
X46461751Y-50649082D01*
X46237906Y-51370585D01*
X46159120Y-52121895D01*
X44309400Y-52121895D01*
X44309400Y-52012640D01*
X44252332Y-51725742D01*
X44140390Y-51455489D01*
X43977875Y-51212268D01*
X43771032Y-51005425D01*
X43527811Y-50842910D01*
X43257558Y-50730968D01*
X42970660Y-50673900D01*
X42678140Y-50673900D01*
X42391242Y-50730968D01*
X42120989Y-50842910D01*
X41877768Y-51005425D01*
X41745913Y-51137280D01*
X41723902Y-51064720D01*
X41664937Y-50954406D01*
X41585585Y-50857715D01*
X41488894Y-50778363D01*
X41378580Y-50719398D01*
X41258882Y-50683088D01*
X41134400Y-50670828D01*
X39434400Y-50670828D01*
X39309918Y-50683088D01*
X39190220Y-50719398D01*
X39079906Y-50778363D01*
X38983215Y-50857715D01*
X38903863Y-50954406D01*
X38844898Y-51064720D01*
X38808588Y-51184418D01*
X38796328Y-51308900D01*
X38796328Y-53008900D01*
X38808588Y-53133382D01*
X38844898Y-53253080D01*
X38903863Y-53363394D01*
X38983215Y-53460085D01*
X39079906Y-53539437D01*
X39190220Y-53598402D01*
X39262780Y-53620413D01*
X39130925Y-53752268D01*
X38968410Y-53995489D01*
X38856468Y-54265742D01*
X38799400Y-54552640D01*
X38799400Y-54845160D01*
X38812983Y-54913444D01*
X38634267Y-54839417D01*
X38414988Y-54795800D01*
X38191412Y-54795800D01*
X37972133Y-54839417D01*
X37794800Y-54912871D01*
X37794800Y-49061835D01*
X38358000Y-49061835D01*
X38358000Y-49236165D01*
X38392010Y-49407145D01*
X38458723Y-49568205D01*
X38555576Y-49713155D01*
X38678845Y-49836424D01*
X38823795Y-49933277D01*
X38984855Y-49999990D01*
X39155835Y-50034000D01*
X39330165Y-50034000D01*
X39501145Y-49999990D01*
X39662205Y-49933277D01*
X39807155Y-49836424D01*
X39930424Y-49713155D01*
X40027277Y-49568205D01*
X40078177Y-49445319D01*
X47491324Y-49445319D01*
X50012600Y-51966595D01*
X52533876Y-49445319D01*
X52173688Y-48955652D01*
X51509718Y-48595351D01*
X50788215Y-48371506D01*
X50036905Y-48292720D01*
X49284662Y-48362022D01*
X48560392Y-48576748D01*
X47891930Y-48928645D01*
X47851512Y-48955652D01*
X47491324Y-49445319D01*
X40078177Y-49445319D01*
X40093990Y-49407145D01*
X40128000Y-49236165D01*
X40128000Y-49061835D01*
X40093990Y-48890855D01*
X40027277Y-48729795D01*
X39930424Y-48584845D01*
X39807155Y-48461576D01*
X39662205Y-48364723D01*
X39501145Y-48298010D01*
X39330165Y-48264000D01*
X39155835Y-48264000D01*
X38984855Y-48298010D01*
X38823795Y-48364723D01*
X38678845Y-48461576D01*
X38555576Y-48584845D01*
X38458723Y-48729795D01*
X38392010Y-48890855D01*
X38358000Y-49061835D01*
X37794800Y-49061835D01*
X37794800Y-48190681D01*
X37804685Y-48089867D01*
X37824589Y-48023943D01*
X37856915Y-47963145D01*
X37900439Y-47909781D01*
X37953496Y-47865888D01*
X38014071Y-47833134D01*
X38079853Y-47812772D01*
X38178530Y-47802400D01*
X53598128Y-47802400D01*
X53598128Y-47949800D01*
G37*
%TD.AperFunction*%
D30*
X85409725Y-56725032D02*
X85616568Y-56931875D01*
X85859789Y-57094390D01*
X86130042Y-57206332D01*
X86416940Y-57263400D01*
X86709460Y-57263400D01*
X86868021Y-57231860D01*
X86837389Y-57256999D01*
X86813586Y-57286003D01*
X86364392Y-57735197D01*
X86335388Y-57759000D01*
X86287124Y-57817811D01*
X86240415Y-57874725D01*
X86169844Y-58006754D01*
X86169843Y-58006755D01*
X86126386Y-58150016D01*
X86115389Y-58261669D01*
X86115389Y-58261679D01*
X86111713Y-58299001D01*
X86115389Y-58336324D01*
X86115390Y-59279057D01*
X86112999Y-59303337D01*
X86101469Y-59291807D01*
X85854153Y-59126556D01*
X85579351Y-59012729D01*
X85287622Y-58954700D01*
X84990178Y-58954700D01*
X84698449Y-59012729D01*
X84423647Y-59126556D01*
X84176331Y-59291807D01*
X84107874Y-59360264D01*
X84103402Y-59345520D01*
X84044437Y-59235206D01*
X83965085Y-59138515D01*
X83868394Y-59059163D01*
X83758080Y-59000198D01*
X83638382Y-58963888D01*
X83513900Y-58951628D01*
X81765850Y-58951628D01*
X81723985Y-58900615D01*
X81664504Y-58851800D01*
X81664891Y-58851482D01*
X81671786Y-58850803D01*
X81815047Y-58807346D01*
X81947076Y-58736774D01*
X82062801Y-58641801D01*
X82086604Y-58612797D01*
X83359203Y-57340199D01*
X83388200Y-57316402D01*
X83483173Y-57200677D01*
X83500070Y-57169065D01*
X83590042Y-57206332D01*
X83876940Y-57263400D01*
X84169460Y-57263400D01*
X84456358Y-57206332D01*
X84726611Y-57094390D01*
X84969832Y-56931875D01*
X85176675Y-56725032D01*
X85293200Y-56550640D01*
X85409725Y-56725032D01*
%TA.AperFunction,Conductor*%
D31*
G36*
X85409725Y-56725032D02*
G01*
X85616568Y-56931875D01*
X85859789Y-57094390D01*
X86130042Y-57206332D01*
X86416940Y-57263400D01*
X86709460Y-57263400D01*
X86868021Y-57231860D01*
X86837389Y-57256999D01*
X86813586Y-57286003D01*
X86364392Y-57735197D01*
X86335388Y-57759000D01*
X86287124Y-57817811D01*
X86240415Y-57874725D01*
X86169844Y-58006754D01*
X86169843Y-58006755D01*
X86126386Y-58150016D01*
X86115389Y-58261669D01*
X86115389Y-58261679D01*
X86111713Y-58299001D01*
X86115389Y-58336324D01*
X86115390Y-59279057D01*
X86112999Y-59303337D01*
X86101469Y-59291807D01*
X85854153Y-59126556D01*
X85579351Y-59012729D01*
X85287622Y-58954700D01*
X84990178Y-58954700D01*
X84698449Y-59012729D01*
X84423647Y-59126556D01*
X84176331Y-59291807D01*
X84107874Y-59360264D01*
X84103402Y-59345520D01*
X84044437Y-59235206D01*
X83965085Y-59138515D01*
X83868394Y-59059163D01*
X83758080Y-59000198D01*
X83638382Y-58963888D01*
X83513900Y-58951628D01*
X81765850Y-58951628D01*
X81723985Y-58900615D01*
X81664504Y-58851800D01*
X81664891Y-58851482D01*
X81671786Y-58850803D01*
X81815047Y-58807346D01*
X81947076Y-58736774D01*
X82062801Y-58641801D01*
X82086604Y-58612797D01*
X83359203Y-57340199D01*
X83388200Y-57316402D01*
X83483173Y-57200677D01*
X83500070Y-57169065D01*
X83590042Y-57206332D01*
X83876940Y-57263400D01*
X84169460Y-57263400D01*
X84456358Y-57206332D01*
X84726611Y-57094390D01*
X84969832Y-56931875D01*
X85176675Y-56725032D01*
X85293200Y-56550640D01*
X85409725Y-56725032D01*
G37*
%TD.AperFunction*%
D30*
X87683850Y-54613800D02*
X87848100Y-54616872D01*
X87972582Y-54604612D01*
X88092280Y-54568302D01*
X88202594Y-54509337D01*
X88265401Y-54457793D01*
X88265401Y-56908928D01*
X87586400Y-56908928D01*
X87526921Y-56914786D01*
X87716675Y-56725032D01*
X87879190Y-56481811D01*
X87991132Y-56211558D01*
X88048200Y-55924660D01*
X88048200Y-55632140D01*
X87991132Y-55345242D01*
X87879190Y-55074989D01*
X87716675Y-54831768D01*
X87509832Y-54624925D01*
X87493182Y-54613800D01*
X87525102Y-54613800D01*
X87525102Y-54455052D01*
X87683850Y-54613800D01*
%TA.AperFunction,Conductor*%
D31*
G36*
X87683850Y-54613800D02*
G01*
X87848100Y-54616872D01*
X87972582Y-54604612D01*
X88092280Y-54568302D01*
X88202594Y-54509337D01*
X88265401Y-54457793D01*
X88265401Y-56908928D01*
X87586400Y-56908928D01*
X87526921Y-56914786D01*
X87716675Y-56725032D01*
X87879190Y-56481811D01*
X87991132Y-56211558D01*
X88048200Y-55924660D01*
X88048200Y-55632140D01*
X87991132Y-55345242D01*
X87879190Y-55074989D01*
X87716675Y-54831768D01*
X87509832Y-54624925D01*
X87493182Y-54613800D01*
X87525102Y-54613800D01*
X87525102Y-54455052D01*
X87683850Y-54613800D01*
G37*
%TD.AperFunction*%
D30*
X69022050Y-53477200D02*
X69821300Y-53477200D01*
X69821300Y-53457200D01*
X70075300Y-53457200D01*
X70075300Y-53477200D01*
X70095300Y-53477200D01*
X70095300Y-53731200D01*
X70075300Y-53731200D01*
X70075300Y-53751200D01*
X69821300Y-53751200D01*
X69821300Y-53731200D01*
X69022050Y-53731200D01*
X68863300Y-53889950D01*
X68860228Y-54004200D01*
X68872488Y-54128682D01*
X68908798Y-54248380D01*
X68938597Y-54304130D01*
X68705642Y-54350468D01*
X68435389Y-54462410D01*
X68192168Y-54624925D01*
X67985325Y-54831768D01*
X67868800Y-55006160D01*
X67752275Y-54831768D01*
X67545432Y-54624925D01*
X67302211Y-54462410D01*
X67031958Y-54350468D01*
X66745060Y-54293400D01*
X66452540Y-54293400D01*
X66165642Y-54350468D01*
X65895389Y-54462410D01*
X65652168Y-54624925D01*
X65520313Y-54756780D01*
X65498302Y-54684220D01*
X65439337Y-54573906D01*
X65359985Y-54477215D01*
X65263294Y-54397863D01*
X65152980Y-54338898D01*
X65033282Y-54302588D01*
X64908800Y-54290328D01*
X63208800Y-54290328D01*
X63084318Y-54302588D01*
X62964620Y-54338898D01*
X62854306Y-54397863D01*
X62757615Y-54477215D01*
X62678263Y-54573906D01*
X62619298Y-54684220D01*
X62582988Y-54803918D01*
X62570728Y-54928400D01*
X62570728Y-56014894D01*
X62322086Y-56263536D01*
X61833002Y-56263536D01*
X61854532Y-56211558D01*
X61911600Y-55924660D01*
X61911600Y-55632140D01*
X61854532Y-55345242D01*
X61742590Y-55074989D01*
X61580075Y-54831768D01*
X61375802Y-54627495D01*
X61375802Y-54480452D01*
X61534550Y-54639200D01*
X61698800Y-54642272D01*
X61823282Y-54630012D01*
X61942980Y-54593702D01*
X62053294Y-54534737D01*
X62149985Y-54455385D01*
X62229337Y-54358694D01*
X62288302Y-54248380D01*
X62324612Y-54128682D01*
X62336872Y-54004200D01*
X62334345Y-53910208D01*
X62364711Y-53926439D01*
X62520051Y-53973561D01*
X62681600Y-53989472D01*
X63251600Y-53989472D01*
X63343677Y-53980403D01*
X63530153Y-54080076D01*
X63744101Y-54144977D01*
X63966600Y-54166891D01*
X64022351Y-54161400D01*
X65010848Y-54161400D01*
X65066600Y-54166891D01*
X65122351Y-54161400D01*
X65122352Y-54161400D01*
X65289099Y-54144977D01*
X65503047Y-54080076D01*
X65689523Y-53980403D01*
X65781600Y-53989472D01*
X66351600Y-53989472D01*
X66513149Y-53973561D01*
X66668489Y-53926439D01*
X66811652Y-53849917D01*
X66937135Y-53746935D01*
X67040117Y-53621452D01*
X67085373Y-53536783D01*
X67143806Y-53584737D01*
X67254120Y-53643702D01*
X67373818Y-53680012D01*
X67498300Y-53692272D01*
X68398300Y-53692272D01*
X68522782Y-53680012D01*
X68642480Y-53643702D01*
X68752794Y-53584737D01*
X68849485Y-53505385D01*
X68928837Y-53408694D01*
X68937443Y-53392593D01*
X69022050Y-53477200D01*
%TA.AperFunction,Conductor*%
D31*
G36*
X69022050Y-53477200D02*
G01*
X69821300Y-53477200D01*
X69821300Y-53457200D01*
X70075300Y-53457200D01*
X70075300Y-53477200D01*
X70095300Y-53477200D01*
X70095300Y-53731200D01*
X70075300Y-53731200D01*
X70075300Y-53751200D01*
X69821300Y-53751200D01*
X69821300Y-53731200D01*
X69022050Y-53731200D01*
X68863300Y-53889950D01*
X68860228Y-54004200D01*
X68872488Y-54128682D01*
X68908798Y-54248380D01*
X68938597Y-54304130D01*
X68705642Y-54350468D01*
X68435389Y-54462410D01*
X68192168Y-54624925D01*
X67985325Y-54831768D01*
X67868800Y-55006160D01*
X67752275Y-54831768D01*
X67545432Y-54624925D01*
X67302211Y-54462410D01*
X67031958Y-54350468D01*
X66745060Y-54293400D01*
X66452540Y-54293400D01*
X66165642Y-54350468D01*
X65895389Y-54462410D01*
X65652168Y-54624925D01*
X65520313Y-54756780D01*
X65498302Y-54684220D01*
X65439337Y-54573906D01*
X65359985Y-54477215D01*
X65263294Y-54397863D01*
X65152980Y-54338898D01*
X65033282Y-54302588D01*
X64908800Y-54290328D01*
X63208800Y-54290328D01*
X63084318Y-54302588D01*
X62964620Y-54338898D01*
X62854306Y-54397863D01*
X62757615Y-54477215D01*
X62678263Y-54573906D01*
X62619298Y-54684220D01*
X62582988Y-54803918D01*
X62570728Y-54928400D01*
X62570728Y-56014894D01*
X62322086Y-56263536D01*
X61833002Y-56263536D01*
X61854532Y-56211558D01*
X61911600Y-55924660D01*
X61911600Y-55632140D01*
X61854532Y-55345242D01*
X61742590Y-55074989D01*
X61580075Y-54831768D01*
X61375802Y-54627495D01*
X61375802Y-54480452D01*
X61534550Y-54639200D01*
X61698800Y-54642272D01*
X61823282Y-54630012D01*
X61942980Y-54593702D01*
X62053294Y-54534737D01*
X62149985Y-54455385D01*
X62229337Y-54358694D01*
X62288302Y-54248380D01*
X62324612Y-54128682D01*
X62336872Y-54004200D01*
X62334345Y-53910208D01*
X62364711Y-53926439D01*
X62520051Y-53973561D01*
X62681600Y-53989472D01*
X63251600Y-53989472D01*
X63343677Y-53980403D01*
X63530153Y-54080076D01*
X63744101Y-54144977D01*
X63966600Y-54166891D01*
X64022351Y-54161400D01*
X65010848Y-54161400D01*
X65066600Y-54166891D01*
X65122351Y-54161400D01*
X65122352Y-54161400D01*
X65289099Y-54144977D01*
X65503047Y-54080076D01*
X65689523Y-53980403D01*
X65781600Y-53989472D01*
X66351600Y-53989472D01*
X66513149Y-53973561D01*
X66668489Y-53926439D01*
X66811652Y-53849917D01*
X66937135Y-53746935D01*
X67040117Y-53621452D01*
X67085373Y-53536783D01*
X67143806Y-53584737D01*
X67254120Y-53643702D01*
X67373818Y-53680012D01*
X67498300Y-53692272D01*
X68398300Y-53692272D01*
X68522782Y-53680012D01*
X68642480Y-53643702D01*
X68752794Y-53584737D01*
X68849485Y-53505385D01*
X68928837Y-53408694D01*
X68937443Y-53392593D01*
X69022050Y-53477200D01*
G37*
%TD.AperFunction*%
D30*
X77746950Y-53477200D02*
X78546200Y-53477200D01*
X78546200Y-53457200D01*
X78800200Y-53457200D01*
X78800200Y-53477200D01*
X78820200Y-53477200D01*
X78820200Y-53731200D01*
X78800200Y-53731200D01*
X78800200Y-53751200D01*
X78546200Y-53751200D01*
X78546200Y-53731200D01*
X77746950Y-53731200D01*
X77588200Y-53889950D01*
X77585128Y-54004200D01*
X77597388Y-54128682D01*
X77633698Y-54248380D01*
X77662277Y-54301847D01*
X77417842Y-54350468D01*
X77147589Y-54462410D01*
X76904368Y-54624925D01*
X76697525Y-54831768D01*
X76581000Y-55006160D01*
X76464475Y-54831768D01*
X76257632Y-54624925D01*
X76014411Y-54462410D01*
X75744158Y-54350468D01*
X75457260Y-54293400D01*
X75164740Y-54293400D01*
X74877842Y-54350468D01*
X74607589Y-54462410D01*
X74364368Y-54624925D01*
X74232513Y-54756780D01*
X74210502Y-54684220D01*
X74151537Y-54573906D01*
X74072185Y-54477215D01*
X73975494Y-54397863D01*
X73865180Y-54338898D01*
X73745482Y-54302588D01*
X73621000Y-54290328D01*
X71921000Y-54290328D01*
X71796518Y-54302588D01*
X71676820Y-54338898D01*
X71566506Y-54397863D01*
X71469815Y-54477215D01*
X71390463Y-54573906D01*
X71331498Y-54684220D01*
X71295188Y-54803918D01*
X71282928Y-54928400D01*
X71282928Y-56014894D01*
X71104421Y-56193401D01*
X70570344Y-56193401D01*
X70623800Y-55924660D01*
X70623800Y-55632140D01*
X70566732Y-55345242D01*
X70454790Y-55074989D01*
X70292275Y-54831768D01*
X70085432Y-54624925D01*
X70075302Y-54618156D01*
X70075302Y-54480452D01*
X70234050Y-54639200D01*
X70398300Y-54642272D01*
X70522782Y-54630012D01*
X70642480Y-54593702D01*
X70752794Y-54534737D01*
X70849485Y-54455385D01*
X70928837Y-54358694D01*
X70987802Y-54248380D01*
X71024112Y-54128682D01*
X71036372Y-54004200D01*
X71033300Y-53889950D01*
X71033134Y-53889784D01*
X71101711Y-53926439D01*
X71257051Y-53973561D01*
X71418600Y-53989472D01*
X71988600Y-53989472D01*
X72080677Y-53980403D01*
X72267153Y-54080076D01*
X72481101Y-54144977D01*
X72703600Y-54166891D01*
X72759351Y-54161400D01*
X73747848Y-54161400D01*
X73803600Y-54166891D01*
X73859351Y-54161400D01*
X73859352Y-54161400D01*
X74026099Y-54144977D01*
X74240047Y-54080076D01*
X74426523Y-53980403D01*
X74518600Y-53989472D01*
X75088600Y-53989472D01*
X75250149Y-53973561D01*
X75405489Y-53926439D01*
X75548652Y-53849917D01*
X75674135Y-53746935D01*
X75777117Y-53621452D01*
X75818684Y-53543685D01*
X75868706Y-53584737D01*
X75979020Y-53643702D01*
X76098718Y-53680012D01*
X76223200Y-53692272D01*
X77123200Y-53692272D01*
X77247682Y-53680012D01*
X77367380Y-53643702D01*
X77477694Y-53584737D01*
X77574385Y-53505385D01*
X77653737Y-53408694D01*
X77662343Y-53392593D01*
X77746950Y-53477200D01*
%TA.AperFunction,Conductor*%
D31*
G36*
X77746950Y-53477200D02*
G01*
X78546200Y-53477200D01*
X78546200Y-53457200D01*
X78800200Y-53457200D01*
X78800200Y-53477200D01*
X78820200Y-53477200D01*
X78820200Y-53731200D01*
X78800200Y-53731200D01*
X78800200Y-53751200D01*
X78546200Y-53751200D01*
X78546200Y-53731200D01*
X77746950Y-53731200D01*
X77588200Y-53889950D01*
X77585128Y-54004200D01*
X77597388Y-54128682D01*
X77633698Y-54248380D01*
X77662277Y-54301847D01*
X77417842Y-54350468D01*
X77147589Y-54462410D01*
X76904368Y-54624925D01*
X76697525Y-54831768D01*
X76581000Y-55006160D01*
X76464475Y-54831768D01*
X76257632Y-54624925D01*
X76014411Y-54462410D01*
X75744158Y-54350468D01*
X75457260Y-54293400D01*
X75164740Y-54293400D01*
X74877842Y-54350468D01*
X74607589Y-54462410D01*
X74364368Y-54624925D01*
X74232513Y-54756780D01*
X74210502Y-54684220D01*
X74151537Y-54573906D01*
X74072185Y-54477215D01*
X73975494Y-54397863D01*
X73865180Y-54338898D01*
X73745482Y-54302588D01*
X73621000Y-54290328D01*
X71921000Y-54290328D01*
X71796518Y-54302588D01*
X71676820Y-54338898D01*
X71566506Y-54397863D01*
X71469815Y-54477215D01*
X71390463Y-54573906D01*
X71331498Y-54684220D01*
X71295188Y-54803918D01*
X71282928Y-54928400D01*
X71282928Y-56014894D01*
X71104421Y-56193401D01*
X70570344Y-56193401D01*
X70623800Y-55924660D01*
X70623800Y-55632140D01*
X70566732Y-55345242D01*
X70454790Y-55074989D01*
X70292275Y-54831768D01*
X70085432Y-54624925D01*
X70075302Y-54618156D01*
X70075302Y-54480452D01*
X70234050Y-54639200D01*
X70398300Y-54642272D01*
X70522782Y-54630012D01*
X70642480Y-54593702D01*
X70752794Y-54534737D01*
X70849485Y-54455385D01*
X70928837Y-54358694D01*
X70987802Y-54248380D01*
X71024112Y-54128682D01*
X71036372Y-54004200D01*
X71033300Y-53889950D01*
X71033134Y-53889784D01*
X71101711Y-53926439D01*
X71257051Y-53973561D01*
X71418600Y-53989472D01*
X71988600Y-53989472D01*
X72080677Y-53980403D01*
X72267153Y-54080076D01*
X72481101Y-54144977D01*
X72703600Y-54166891D01*
X72759351Y-54161400D01*
X73747848Y-54161400D01*
X73803600Y-54166891D01*
X73859351Y-54161400D01*
X73859352Y-54161400D01*
X74026099Y-54144977D01*
X74240047Y-54080076D01*
X74426523Y-53980403D01*
X74518600Y-53989472D01*
X75088600Y-53989472D01*
X75250149Y-53973561D01*
X75405489Y-53926439D01*
X75548652Y-53849917D01*
X75674135Y-53746935D01*
X75777117Y-53621452D01*
X75818684Y-53543685D01*
X75868706Y-53584737D01*
X75979020Y-53643702D01*
X76098718Y-53680012D01*
X76223200Y-53692272D01*
X77123200Y-53692272D01*
X77247682Y-53680012D01*
X77367380Y-53643702D01*
X77477694Y-53584737D01*
X77574385Y-53505385D01*
X77653737Y-53408694D01*
X77662343Y-53392593D01*
X77746950Y-53477200D01*
G37*
%TD.AperFunction*%
D30*
X79826611Y-53926439D02*
X79981951Y-53973561D01*
X80143500Y-53989472D01*
X80713500Y-53989472D01*
X80805577Y-53980403D01*
X80992053Y-54080076D01*
X81206001Y-54144977D01*
X81428500Y-54166891D01*
X81484251Y-54161400D01*
X82125769Y-54161400D01*
X82120533Y-54166636D01*
X82037885Y-54290328D01*
X80633200Y-54290328D01*
X80508718Y-54302588D01*
X80389020Y-54338898D01*
X80278706Y-54397863D01*
X80182015Y-54477215D01*
X80102663Y-54573906D01*
X80043698Y-54684220D01*
X80007388Y-54803918D01*
X79995128Y-54928400D01*
X79995128Y-56014894D01*
X79816621Y-56193401D01*
X79282544Y-56193401D01*
X79336000Y-55924660D01*
X79336000Y-55632140D01*
X79278932Y-55345242D01*
X79166990Y-55074989D01*
X79004475Y-54831768D01*
X78800202Y-54627495D01*
X78800202Y-54480452D01*
X78958950Y-54639200D01*
X79123200Y-54642272D01*
X79247682Y-54630012D01*
X79367380Y-54593702D01*
X79477694Y-54534737D01*
X79574385Y-54455385D01*
X79653737Y-54358694D01*
X79712702Y-54248380D01*
X79749012Y-54128682D01*
X79761272Y-54004200D01*
X79758200Y-53889950D01*
X79758034Y-53889784D01*
X79826611Y-53926439D01*
%TA.AperFunction,Conductor*%
D31*
G36*
X79826611Y-53926439D02*
G01*
X79981951Y-53973561D01*
X80143500Y-53989472D01*
X80713500Y-53989472D01*
X80805577Y-53980403D01*
X80992053Y-54080076D01*
X81206001Y-54144977D01*
X81428500Y-54166891D01*
X81484251Y-54161400D01*
X82125769Y-54161400D01*
X82120533Y-54166636D01*
X82037885Y-54290328D01*
X80633200Y-54290328D01*
X80508718Y-54302588D01*
X80389020Y-54338898D01*
X80278706Y-54397863D01*
X80182015Y-54477215D01*
X80102663Y-54573906D01*
X80043698Y-54684220D01*
X80007388Y-54803918D01*
X79995128Y-54928400D01*
X79995128Y-56014894D01*
X79816621Y-56193401D01*
X79282544Y-56193401D01*
X79336000Y-55924660D01*
X79336000Y-55632140D01*
X79278932Y-55345242D01*
X79166990Y-55074989D01*
X79004475Y-54831768D01*
X78800202Y-54627495D01*
X78800202Y-54480452D01*
X78958950Y-54639200D01*
X79123200Y-54642272D01*
X79247682Y-54630012D01*
X79367380Y-54593702D01*
X79477694Y-54534737D01*
X79574385Y-54455385D01*
X79653737Y-54358694D01*
X79712702Y-54248380D01*
X79749012Y-54128682D01*
X79761272Y-54004200D01*
X79758200Y-53889950D01*
X79758034Y-53889784D01*
X79826611Y-53926439D01*
G37*
%TD.AperFunction*%
D30*
X86471850Y-53451800D02*
X87271100Y-53451800D01*
X87271100Y-53431800D01*
X87525100Y-53431800D01*
X87525100Y-53451800D01*
X87545100Y-53451800D01*
X87545100Y-53705800D01*
X87525100Y-53705800D01*
X87525100Y-53725800D01*
X87271100Y-53725800D01*
X87271100Y-53705800D01*
X86471850Y-53705800D01*
X86313100Y-53864550D01*
X86310028Y-53978800D01*
X86322288Y-54103282D01*
X86358598Y-54222980D01*
X86398228Y-54297122D01*
X86130042Y-54350468D01*
X85859789Y-54462410D01*
X85616568Y-54624925D01*
X85409725Y-54831768D01*
X85293200Y-55006160D01*
X85176675Y-54831768D01*
X84969832Y-54624925D01*
X84726611Y-54462410D01*
X84456358Y-54350468D01*
X84169460Y-54293400D01*
X83876940Y-54293400D01*
X83820596Y-54304608D01*
X83728407Y-54166636D01*
X83584244Y-54022473D01*
X83534854Y-53989472D01*
X83813500Y-53989472D01*
X83975049Y-53973561D01*
X84130389Y-53926439D01*
X84273552Y-53849917D01*
X84399035Y-53746935D01*
X84502017Y-53621452D01*
X84553021Y-53526030D01*
X84593606Y-53559337D01*
X84703920Y-53618302D01*
X84823618Y-53654612D01*
X84948100Y-53666872D01*
X85848100Y-53666872D01*
X85972582Y-53654612D01*
X86092280Y-53618302D01*
X86202594Y-53559337D01*
X86299285Y-53479985D01*
X86378637Y-53383294D01*
X86387243Y-53367193D01*
X86471850Y-53451800D01*
%TA.AperFunction,Conductor*%
D31*
G36*
X86471850Y-53451800D02*
G01*
X87271100Y-53451800D01*
X87271100Y-53431800D01*
X87525100Y-53431800D01*
X87525100Y-53451800D01*
X87545100Y-53451800D01*
X87545100Y-53705800D01*
X87525100Y-53705800D01*
X87525100Y-53725800D01*
X87271100Y-53725800D01*
X87271100Y-53705800D01*
X86471850Y-53705800D01*
X86313100Y-53864550D01*
X86310028Y-53978800D01*
X86322288Y-54103282D01*
X86358598Y-54222980D01*
X86398228Y-54297122D01*
X86130042Y-54350468D01*
X85859789Y-54462410D01*
X85616568Y-54624925D01*
X85409725Y-54831768D01*
X85293200Y-55006160D01*
X85176675Y-54831768D01*
X84969832Y-54624925D01*
X84726611Y-54462410D01*
X84456358Y-54350468D01*
X84169460Y-54293400D01*
X83876940Y-54293400D01*
X83820596Y-54304608D01*
X83728407Y-54166636D01*
X83584244Y-54022473D01*
X83534854Y-53989472D01*
X83813500Y-53989472D01*
X83975049Y-53973561D01*
X84130389Y-53926439D01*
X84273552Y-53849917D01*
X84399035Y-53746935D01*
X84502017Y-53621452D01*
X84553021Y-53526030D01*
X84593606Y-53559337D01*
X84703920Y-53618302D01*
X84823618Y-53654612D01*
X84948100Y-53666872D01*
X85848100Y-53666872D01*
X85972582Y-53654612D01*
X86092280Y-53618302D01*
X86202594Y-53559337D01*
X86299285Y-53479985D01*
X86378637Y-53383294D01*
X86387243Y-53367193D01*
X86471850Y-53451800D01*
G37*
%TD.AperFunction*%
D30*
X77772015Y-52555385D02*
X77868706Y-52634737D01*
X77905118Y-52654200D01*
X77868706Y-52673663D01*
X77772015Y-52753015D01*
X77761272Y-52766105D01*
X77761272Y-52542295D01*
X77772015Y-52555385D01*
%TA.AperFunction,Conductor*%
D31*
G36*
X77772015Y-52555385D02*
G01*
X77868706Y-52634737D01*
X77905118Y-52654200D01*
X77868706Y-52673663D01*
X77772015Y-52753015D01*
X77761272Y-52766105D01*
X77761272Y-52542295D01*
X77772015Y-52555385D01*
G37*
%TD.AperFunction*%
D30*
X69047115Y-52555385D02*
X69143806Y-52634737D01*
X69180218Y-52654200D01*
X69143806Y-52673663D01*
X69047115Y-52753015D01*
X69036372Y-52766105D01*
X69036372Y-52542295D01*
X69047115Y-52555385D01*
%TA.AperFunction,Conductor*%
D31*
G36*
X69047115Y-52555385D02*
G01*
X69143806Y-52634737D01*
X69180218Y-52654200D01*
X69143806Y-52673663D01*
X69047115Y-52753015D01*
X69036372Y-52766105D01*
X69036372Y-52542295D01*
X69047115Y-52555385D01*
G37*
%TD.AperFunction*%
D30*
X60347615Y-52555385D02*
X60444306Y-52634737D01*
X60480718Y-52654200D01*
X60444306Y-52673663D01*
X60347615Y-52753015D01*
X60336872Y-52766105D01*
X60336872Y-52542295D01*
X60347615Y-52555385D01*
%TA.AperFunction,Conductor*%
D31*
G36*
X60347615Y-52555385D02*
G01*
X60444306Y-52634737D01*
X60480718Y-52654200D01*
X60444306Y-52673663D01*
X60347615Y-52753015D01*
X60336872Y-52766105D01*
X60336872Y-52542295D01*
X60347615Y-52555385D01*
G37*
%TD.AperFunction*%
D30*
X86496915Y-52529985D02*
X86593606Y-52609337D01*
X86630018Y-52628800D01*
X86593606Y-52648263D01*
X86496915Y-52727615D01*
X86486172Y-52740705D01*
X86486172Y-52516895D01*
X86496915Y-52529985D01*
%TA.AperFunction,Conductor*%
D31*
G36*
X86496915Y-52529985D02*
G01*
X86593606Y-52609337D01*
X86630018Y-52628800D01*
X86593606Y-52648263D01*
X86496915Y-52727615D01*
X86486172Y-52740705D01*
X86486172Y-52516895D01*
X86496915Y-52529985D01*
G37*
%TD.AperFunction*%
%TD*%
M02*
