%TF.GenerationSoftware,KiCad,Pcbnew,(5.1.10-1-10_14)*%
%TF.CreationDate,2022-01-16T00:04:22-08:00*%
%TF.ProjectId,FanExpander-kicad,46616e45-7870-4616-9e64-65722d6b6963,rev?*%
%TF.SameCoordinates,Original*%
%TF.FileFunction,Soldermask,Top*%
%TF.FilePolarity,Negative*%
%FSLAX46Y46*%
G04 Gerber Fmt 4.6, Leading zero omitted, Abs format (unit mm)*
G04 Created by KiCad (PCBNEW (5.1.10-1-10_14)) date 2022-01-16 00:04:22*
%MOMM*%
%LPD*%
G01*
G04 APERTURE LIST*
%ADD10O,2.100000X1.000000*%
%ADD11O,1.000000X2.100000*%
%ADD12O,2.100000X2.100000*%
%ADD13C,2.600000*%
%ADD14R,2.600000X2.600000*%
%ADD15R,1.000000X1.000000*%
%ADD16O,1.000000X1.000000*%
%ADD17C,3.000000*%
%ADD18R,1.700000X1.700000*%
%ADD19C,1.700000*%
%ADD20R,1.750000X1.750000*%
%ADD21C,1.750000*%
%ADD22C,6.400000*%
%ADD23O,1.700000X1.700000*%
G04 APERTURE END LIST*
D10*
%TO.C,D8*%
X81965800Y-62365800D03*
X81965800Y-63465800D03*
D11*
X81415800Y-62915800D03*
X82515800Y-62915800D03*
D12*
X81965800Y-62915800D03*
%TD*%
D10*
%TO.C,D7*%
X73253600Y-51926400D03*
X73253600Y-53026400D03*
D11*
X72703600Y-52476400D03*
X73803600Y-52476400D03*
D12*
X73253600Y-52476400D03*
%TD*%
D10*
%TO.C,D6*%
X73279000Y-62365800D03*
X73279000Y-63465800D03*
D11*
X72729000Y-62915800D03*
X73829000Y-62915800D03*
D12*
X73279000Y-62915800D03*
%TD*%
D10*
%TO.C,D5*%
X64516600Y-51926400D03*
X64516600Y-53026400D03*
D11*
X63966600Y-52476400D03*
X65066600Y-52476400D03*
D12*
X64516600Y-52476400D03*
%TD*%
D10*
%TO.C,D4*%
X64541400Y-62365800D03*
X64541400Y-63465800D03*
D11*
X63991400Y-62915800D03*
X65091400Y-62915800D03*
D12*
X64541400Y-62915800D03*
%TD*%
D10*
%TO.C,D3*%
X55829200Y-62365800D03*
X55829200Y-63465800D03*
D11*
X55279200Y-62915800D03*
X56379200Y-62915800D03*
D12*
X55829200Y-62915800D03*
%TD*%
D10*
%TO.C,D2*%
X81978500Y-51926400D03*
X81978500Y-53026400D03*
D11*
X81428500Y-52476400D03*
X82528500Y-52476400D03*
D12*
X81978500Y-52476400D03*
%TD*%
D10*
%TO.C,D1*%
X55829200Y-51977200D03*
X55829200Y-53077200D03*
D11*
X55279200Y-52527200D03*
X56379200Y-52527200D03*
D12*
X55829200Y-52527200D03*
%TD*%
D13*
%TO.C,J12*%
X77292200Y-73710800D03*
X72212200Y-73710800D03*
D14*
X67132200Y-73710800D03*
%TD*%
D15*
%TO.C,JP10*%
X38303200Y-58470800D03*
D16*
X38303200Y-57200800D03*
X38303200Y-55930800D03*
%TD*%
D17*
%TO.C,F1*%
X48304400Y-70764400D03*
X52004400Y-70764400D03*
X56504400Y-70764400D03*
X60204400Y-70764400D03*
%TD*%
%TO.C,F2*%
X48304400Y-76225400D03*
X52004400Y-76225400D03*
X56504400Y-76225400D03*
X60204400Y-76225400D03*
%TD*%
D18*
%TO.C,J8*%
X40284400Y-52158900D03*
D19*
X42824400Y-52158900D03*
X40284400Y-54698900D03*
X42824400Y-54698900D03*
X40284400Y-57238900D03*
X42824400Y-57238900D03*
X40284400Y-59778900D03*
X42824400Y-59778900D03*
X40284400Y-62318900D03*
X42824400Y-62318900D03*
%TD*%
D20*
%TO.C,J3*%
X65189100Y-50038000D03*
D21*
X67689100Y-50038000D03*
%TD*%
D22*
%TO.C,MH1*%
X50012600Y-52146200D03*
%TD*%
D18*
%TO.C,J9*%
X51003200Y-66065400D03*
D23*
X48463200Y-66065400D03*
%TD*%
D22*
%TO.C,MH2*%
X85012600Y-74646200D03*
%TD*%
D18*
%TO.C,JP0*%
X55346600Y-66192400D03*
D23*
X57886600Y-66192400D03*
X60426600Y-66192400D03*
%TD*%
D20*
%TO.C,J10*%
X49479200Y-61239400D03*
D21*
X49479200Y-58739400D03*
%TD*%
D20*
%TO.C,J0*%
X56489600Y-60464700D03*
D21*
X58989600Y-60464700D03*
%TD*%
D18*
%TO.C,JP7*%
X81483200Y-55778400D03*
D23*
X84023200Y-55778400D03*
X86563200Y-55778400D03*
%TD*%
D18*
%TO.C,JP1*%
X55346600Y-55778400D03*
D23*
X57886600Y-55778400D03*
X60426600Y-55778400D03*
%TD*%
D20*
%TO.C,J7*%
X82664300Y-50038000D03*
D21*
X85164300Y-50038000D03*
%TD*%
D20*
%TO.C,J1*%
X56515000Y-50038000D03*
D21*
X59015000Y-50038000D03*
%TD*%
D20*
%TO.C,J6*%
X82638900Y-60464700D03*
D21*
X85138900Y-60464700D03*
%TD*%
D20*
%TO.C,J5*%
X73914000Y-50038000D03*
D21*
X76414000Y-50038000D03*
%TD*%
D18*
%TO.C,JP6*%
X81483200Y-66192400D03*
D23*
X84023200Y-66192400D03*
X86563200Y-66192400D03*
%TD*%
D18*
%TO.C,JP5*%
X72771000Y-55778400D03*
D23*
X75311000Y-55778400D03*
X77851000Y-55778400D03*
%TD*%
D20*
%TO.C,J4*%
X73939400Y-60464700D03*
D21*
X76439400Y-60464700D03*
%TD*%
D18*
%TO.C,JP4*%
X72771000Y-66192400D03*
D23*
X75311000Y-66192400D03*
X77851000Y-66192400D03*
%TD*%
D18*
%TO.C,JP3*%
X64058800Y-55778400D03*
D23*
X66598800Y-55778400D03*
X69138800Y-55778400D03*
%TD*%
D20*
%TO.C,J2*%
X65214500Y-60464700D03*
D21*
X67714500Y-60464700D03*
%TD*%
D18*
%TO.C,JP2*%
X64058800Y-66192400D03*
D23*
X66598800Y-66192400D03*
X69138800Y-66192400D03*
%TD*%
M02*
