M48
; DRILL file {KiCad (5.1.10-1-10_14)} date Sunday, January 16, 2022 at 12:04:31 AM
; FORMAT={-:-/ absolute / inch / decimal}
; #@! TF.CreationDate,2022-01-16T00:04:31-08:00
; #@! TF.GenerationSoftware,Kicad,Pcbnew,(5.1.10-1-10_14)
; #@! TF.FileFunction,Plated,1,2,PTH
FMAT,2
INCH
T1C0.0157
T2C0.0256
T3C0.0394
T4C0.0413
T5C0.0512
T6C0.0650
T7C0.1260
%
G90
G05
T1
X2.303Y-2.696
X2.4199Y-1.907
X2.7619Y-1.91
X2.7629Y-2.318
X2.963Y-2.853
X3.1069Y-2.318
X3.1074Y-1.911
X3.222Y-1.903
X3.2647Y-2.1585
X3.4488Y-2.3089
X3.4507Y-1.9093
T2
X1.508Y-2.202
X1.508Y-2.252
X1.508Y-2.302
T3
X1.586Y-2.0535
X1.586Y-2.1535
X1.586Y-2.2535
X1.586Y-2.3535
X1.586Y-2.4535
X1.686Y-2.0535
X1.686Y-2.1535
X1.686Y-2.2535
X1.686Y-2.3535
X1.686Y-2.4535
X1.908Y-2.601
X2.008Y-2.601
X2.179Y-2.196
X2.179Y-2.606
X2.279Y-2.196
X2.279Y-2.606
X2.379Y-2.196
X2.379Y-2.606
X2.522Y-2.196
X2.522Y-2.606
X2.622Y-2.196
X2.622Y-2.606
X2.722Y-2.196
X2.722Y-2.606
X2.865Y-2.196
X2.865Y-2.606
X2.965Y-2.196
X2.965Y-2.606
X3.065Y-2.196
X3.065Y-2.606
X3.208Y-2.196
X3.208Y-2.606
X3.308Y-2.196
X3.308Y-2.606
X3.408Y-2.196
X3.408Y-2.606
T4
X1.948Y-2.3126
X1.948Y-2.411
X2.224Y-2.3805
X2.225Y-1.97
X2.3224Y-2.3805
X2.3234Y-1.97
X2.5665Y-1.97
X2.5675Y-2.3805
X2.6649Y-1.97
X2.6659Y-2.3805
X2.91Y-1.97
X2.911Y-2.3805
X3.0084Y-1.97
X3.0094Y-2.3805
X3.2535Y-2.3805
X3.2545Y-1.97
X3.3519Y-2.3805
X3.3529Y-1.97
T5
X2.643Y-2.902
X2.843Y-2.902
X3.043Y-2.902
T6
X1.9017Y-2.786
X1.9017Y-3.001
X2.0474Y-2.786
X2.0474Y-3.001
X2.2246Y-2.786
X2.2246Y-3.001
X2.3703Y-2.786
X2.3703Y-3.001
T7
X1.969Y-2.053
X3.347Y-2.9388
T0
M30
