  0
SECTION
  2
HEADER
  9
$ANGBASE
  50
0.0
  9
$ANGDIR
  70
1
  9
$MEASUREMENT
  70
0
  0
ENDSEC
  0
SECTION
  2
TABLES
  0
TABLE
  2
LTYPE
  70
4
  0
LTYPE
  5
40F
  2
CONTINUOUS
  70
0
  3
Solid line
  72
65
  73
0
  40
0.0
  0
LTYPE
  5
410
  2
DASHDOT
 70
0
  3
Dash Dot ____ _ ____ _
 72
65
 73
4
 40
2.0
 49
1.25
 49
-0.25
 49
0.25
 49
-0.25
  0
LTYPE
  5
411
  2
DASHED
 70
0
  3
Dashed __ __ __ __ __
 72
65
 73
2
 40
0.75
 49
0.5
 49
-0.25
  0
LTYPE
  5
43B
  2
DOTTED
 70
0
  3
Dotted .  .  .  .
 72
65
 73
2
 40
0.2
 49
0.0
 49
-0.2
  0
ENDTAB
  0
TABLE
  2
STYLE
  70
4
  0
STYLE
  2
KICAD
  70
0
  40
0
  41
1
  42
1
  50
0
  71
0
  3
isocp.shx
  0
STYLE
  2
KICADB
  70
0
  40
0
  41
1
  42
1
  50
0
  71
0
  3
isocp.shx
  0
STYLE
  2
KICADI
  70
0
  40
0
  41
1
  42
1
  50
15
  71
0
  3
isocp.shx
  0
STYLE
  2
KICADBI
  70
0
  40
0
  41
1
  42
1
  50
15
  71
0
  3
isocp.shx
  0
ENDTAB
  0
TABLE
  2
LAYER
  70
1
  0
LAYER
  2
BLACK
  70
0
  62
7
  6
CONTINUOUS
  0
ENDTAB
  0
ENDSEC
  0
SECTION
  2
ENTITIES
0
LINE
8
BLACK
6
CONTINUOUS
10
2.77159
20
-2.53665
11
2.73615
21
-2.53665
0
LINE
8
BLACK
6
CONTINUOUS
10
2.73615
20
-2.53665
11
2.73615
21
-2.50515
0
LINE
8
BLACK
6
CONTINUOUS
10
2.73615
20
-2.50515
11
2.77159
21
-2.50515
0
LINE
8
BLACK
6
CONTINUOUS
10
2.77159
20
-2.50515
11
2.77159
21
-2.53665
0
LINE
8
BLACK
6
CONTINUOUS
10
3.11609
20
-2.53665
11
3.08065
21
-2.53665
0
LINE
8
BLACK
6
CONTINUOUS
10
3.08065
20
-2.53665
11
3.08065
21
-2.50515
0
LINE
8
BLACK
6
CONTINUOUS
10
3.08065
20
-2.50515
11
3.11609
21
-2.50515
0
LINE
8
BLACK
6
CONTINUOUS
10
3.11609
20
-2.50515
11
3.11609
21
-2.53665
0
LINE
8
BLACK
6
CONTINUOUS
10
3.45859
20
-2.53665
11
3.42315
21
-2.53665
0
LINE
8
BLACK
6
CONTINUOUS
10
3.42315
20
-2.53665
11
3.42315
21
-2.50515
0
LINE
8
BLACK
6
CONTINUOUS
10
3.42315
20
-2.50515
11
3.45859
21
-2.50515
0
LINE
8
BLACK
6
CONTINUOUS
10
3.45859
20
-2.50515
11
3.45859
21
-2.53665
0
LINE
8
BLACK
6
CONTINUOUS
10
1.87082
20
-2.53643
11
1.86889
21
-2.53643
0
LINE
8
BLACK
6
CONTINUOUS
10
1.86889
20
-2.53643
11
1.8651
21
-2.53568
0
LINE
8
BLACK
6
CONTINUOUS
10
1.8651
20
-2.53568
11
1.86154
21
-2.5342
0
LINE
8
BLACK
6
CONTINUOUS
10
1.86154
20
-2.5342
11
1.85833
21
-2.53206
0
LINE
8
BLACK
6
CONTINUOUS
10
1.85833
20
-2.53206
11
1.8556
21
-2.52933
0
LINE
8
BLACK
6
CONTINUOUS
10
1.8556
20
-2.52933
11
1.85346
21
-2.52612
0
LINE
8
BLACK
6
CONTINUOUS
10
1.85346
20
-2.52612
11
1.85198
21
-2.52256
0
LINE
8
BLACK
6
CONTINUOUS
10
1.85198
20
-2.52256
11
1.85123
21
-2.51877
0
LINE
8
BLACK
6
CONTINUOUS
10
1.85123
20
-2.51877
11
1.85123
21
-2.51684
0
LINE
8
BLACK
6
CONTINUOUS
10
1.85123
20
-2.51684
11
1.85113
21
-2.51684
0
LINE
8
BLACK
6
CONTINUOUS
10
1.85113
20
-2.51684
11
1.85113
21
-2.49716
0
LINE
8
BLACK
6
CONTINUOUS
10
1.85113
20
-2.49716
11
1.85123
21
-2.49716
0
LINE
8
BLACK
6
CONTINUOUS
10
1.85123
20
-2.49716
11
1.85123
21
-2.49523
0
LINE
8
BLACK
6
CONTINUOUS
10
1.85123
20
-2.49523
11
1.85198
21
-2.49144
0
LINE
8
BLACK
6
CONTINUOUS
10
1.85198
20
-2.49144
11
1.85346
21
-2.48788
0
LINE
8
BLACK
6
CONTINUOUS
10
1.85346
20
-2.48788
11
1.8556
21
-2.48467
0
LINE
8
BLACK
6
CONTINUOUS
10
1.8556
20
-2.48467
11
1.85833
21
-2.48194
0
LINE
8
BLACK
6
CONTINUOUS
10
1.85833
20
-2.48194
11
1.86154
21
-2.4798
0
LINE
8
BLACK
6
CONTINUOUS
10
1.86154
20
-2.4798
11
1.8651
21
-2.47832
0
LINE
8
BLACK
6
CONTINUOUS
10
1.8651
20
-2.47832
11
1.86889
21
-2.47757
0
LINE
8
BLACK
6
CONTINUOUS
10
1.86889
20
-2.47757
11
1.87082
21
-2.47757
0
LINE
8
BLACK
6
CONTINUOUS
10
1.87082
20
-2.47757
11
1.87082
21
-2.47747
0
LINE
8
BLACK
6
CONTINUOUS
10
1.87082
20
-2.47747
11
1.922
21
-2.47747
0
LINE
8
BLACK
6
CONTINUOUS
10
1.922
20
-2.47747
11
1.922
21
-2.47757
0
LINE
8
BLACK
6
CONTINUOUS
10
1.922
20
-2.47757
11
1.92393
21
-2.47757
0
LINE
8
BLACK
6
CONTINUOUS
10
1.92393
20
-2.47757
11
1.92771
21
-2.47832
0
LINE
8
BLACK
6
CONTINUOUS
10
1.92771
20
-2.47832
11
1.93128
21
-2.4798
0
LINE
8
BLACK
6
CONTINUOUS
10
1.93128
20
-2.4798
11
1.93449
21
-2.48194
0
LINE
8
BLACK
6
CONTINUOUS
10
1.93449
20
-2.48194
11
1.93722
21
-2.48467
0
LINE
8
BLACK
6
CONTINUOUS
10
1.93722
20
-2.48467
11
1.93936
21
-2.48788
0
LINE
8
BLACK
6
CONTINUOUS
10
1.93936
20
-2.48788
11
1.94084
21
-2.49144
0
LINE
8
BLACK
6
CONTINUOUS
10
1.94084
20
-2.49144
11
1.94159
21
-2.49523
0
LINE
8
BLACK
6
CONTINUOUS
10
1.94159
20
-2.49523
11
1.94159
21
-2.49716
0
LINE
8
BLACK
6
CONTINUOUS
10
1.94159
20
-2.49716
11
1.94169
21
-2.49716
0
LINE
8
BLACK
6
CONTINUOUS
10
1.94169
20
-2.49716
11
1.94169
21
-2.51684
0
LINE
8
BLACK
6
CONTINUOUS
10
1.94169
20
-2.51684
11
1.94159
21
-2.51684
0
LINE
8
BLACK
6
CONTINUOUS
10
1.94159
20
-2.51684
11
1.94159
21
-2.51877
0
LINE
8
BLACK
6
CONTINUOUS
10
1.94159
20
-2.51877
11
1.94084
21
-2.52256
0
LINE
8
BLACK
6
CONTINUOUS
10
1.94084
20
-2.52256
11
1.93936
21
-2.52612
0
LINE
8
BLACK
6
CONTINUOUS
10
1.93936
20
-2.52612
11
1.93722
21
-2.52933
0
LINE
8
BLACK
6
CONTINUOUS
10
1.93722
20
-2.52933
11
1.93449
21
-2.53206
0
LINE
8
BLACK
6
CONTINUOUS
10
1.93449
20
-2.53206
11
1.93128
21
-2.5342
0
LINE
8
BLACK
6
CONTINUOUS
10
1.93128
20
-2.5342
11
1.92771
21
-2.53568
0
LINE
8
BLACK
6
CONTINUOUS
10
1.92771
20
-2.53568
11
1.92393
21
-2.53643
0
LINE
8
BLACK
6
CONTINUOUS
10
1.92393
20
-2.53643
11
1.922
21
-2.53643
0
LINE
8
BLACK
6
CONTINUOUS
10
1.922
20
-2.53643
11
1.922
21
-2.53653
0
LINE
8
BLACK
6
CONTINUOUS
10
1.922
20
-2.53653
11
1.87082
21
-2.53653
0
LINE
8
BLACK
6
CONTINUOUS
10
1.87082
20
-2.53653
11
1.87082
21
-2.53643
0
LINE
8
BLACK
6
CONTINUOUS
10
2.14966
20
-2.44269
11
2.15106
21
-2.44312
0
LINE
8
BLACK
6
CONTINUOUS
10
2.15106
20
-2.44312
11
2.15235
21
-2.44381
0
LINE
8
BLACK
6
CONTINUOUS
10
2.15235
20
-2.44381
11
2.15349
21
-2.44474
0
LINE
8
BLACK
6
CONTINUOUS
10
2.15349
20
-2.44474
11
2.15442
21
-2.44588
0
LINE
8
BLACK
6
CONTINUOUS
10
2.15442
20
-2.44588
11
2.15511
21
-2.44717
0
LINE
8
BLACK
6
CONTINUOUS
10
2.15511
20
-2.44717
11
2.15553
21
-2.44857
0
LINE
8
BLACK
6
CONTINUOUS
10
2.15553
20
-2.44857
11
2.15568
21
-2.45003
0
LINE
8
BLACK
6
CONTINUOUS
10
2.15568
20
-2.45003
11
2.15568
21
-2.50397
0
LINE
8
BLACK
6
CONTINUOUS
10
2.15568
20
-2.50397
11
2.15553
21
-2.50543
0
LINE
8
BLACK
6
CONTINUOUS
10
2.15553
20
-2.50543
11
2.15511
21
-2.50683
0
LINE
8
BLACK
6
CONTINUOUS
10
2.15511
20
-2.50683
11
2.15442
21
-2.50812
0
LINE
8
BLACK
6
CONTINUOUS
10
2.15442
20
-2.50812
11
2.15349
21
-2.50926
0
LINE
8
BLACK
6
CONTINUOUS
10
2.15349
20
-2.50926
11
2.15235
21
-2.51019
0
LINE
8
BLACK
6
CONTINUOUS
10
2.15235
20
-2.51019
11
2.15106
21
-2.51088
0
LINE
8
BLACK
6
CONTINUOUS
10
2.15106
20
-2.51088
11
2.14966
21
-2.51131
0
LINE
8
BLACK
6
CONTINUOUS
10
2.14966
20
-2.51131
11
2.1482
21
-2.51145
0
LINE
8
BLACK
6
CONTINUOUS
10
2.1482
20
-2.51145
11
2.12576
21
-2.51145
0
LINE
8
BLACK
6
CONTINUOUS
10
2.12576
20
-2.51145
11
2.1243
21
-2.51131
0
LINE
8
BLACK
6
CONTINUOUS
10
2.1243
20
-2.51131
11
2.12289
21
-2.51088
0
LINE
8
BLACK
6
CONTINUOUS
10
2.12289
20
-2.51088
11
2.1216
21
-2.51019
0
LINE
8
BLACK
6
CONTINUOUS
10
2.1216
20
-2.51019
11
2.12047
21
-2.50926
0
LINE
8
BLACK
6
CONTINUOUS
10
2.12047
20
-2.50926
11
2.11954
21
-2.50812
0
LINE
8
BLACK
6
CONTINUOUS
10
2.11954
20
-2.50812
11
2.11884
21
-2.50683
0
LINE
8
BLACK
6
CONTINUOUS
10
2.11884
20
-2.50683
11
2.11842
21
-2.50543
0
LINE
8
BLACK
6
CONTINUOUS
10
2.11842
20
-2.50543
11
2.11828
21
-2.50397
0
LINE
8
BLACK
6
CONTINUOUS
10
2.11828
20
-2.50397
11
2.11828
21
-2.45003
0
LINE
8
BLACK
6
CONTINUOUS
10
2.11828
20
-2.45003
11
2.11842
21
-2.44857
0
LINE
8
BLACK
6
CONTINUOUS
10
2.11842
20
-2.44857
11
2.11884
21
-2.44717
0
LINE
8
BLACK
6
CONTINUOUS
10
2.11884
20
-2.44717
11
2.11954
21
-2.44588
0
LINE
8
BLACK
6
CONTINUOUS
10
2.11954
20
-2.44588
11
2.12047
21
-2.44474
0
LINE
8
BLACK
6
CONTINUOUS
10
2.12047
20
-2.44474
11
2.1216
21
-2.44381
0
LINE
8
BLACK
6
CONTINUOUS
10
2.1216
20
-2.44381
11
2.12289
21
-2.44312
0
LINE
8
BLACK
6
CONTINUOUS
10
2.12289
20
-2.44312
11
2.1243
21
-2.44269
0
LINE
8
BLACK
6
CONTINUOUS
10
2.1243
20
-2.44269
11
2.12576
21
-2.44255
0
LINE
8
BLACK
6
CONTINUOUS
10
2.12576
20
-2.44255
11
2.1482
21
-2.44255
0
LINE
8
BLACK
6
CONTINUOUS
10
2.1482
20
-2.44255
11
2.14966
21
-2.44269
0
LINE
8
BLACK
6
CONTINUOUS
10
2.2717
20
-2.44269
11
2.27311
21
-2.44312
0
LINE
8
BLACK
6
CONTINUOUS
10
2.27311
20
-2.44312
11
2.2744
21
-2.44381
0
LINE
8
BLACK
6
CONTINUOUS
10
2.2744
20
-2.44381
11
2.27553
21
-2.44474
0
LINE
8
BLACK
6
CONTINUOUS
10
2.27553
20
-2.44474
11
2.27646
21
-2.44588
0
LINE
8
BLACK
6
CONTINUOUS
10
2.27646
20
-2.44588
11
2.27716
21
-2.44717
0
LINE
8
BLACK
6
CONTINUOUS
10
2.27716
20
-2.44717
11
2.27758
21
-2.44857
0
LINE
8
BLACK
6
CONTINUOUS
10
2.27758
20
-2.44857
11
2.27772
21
-2.45003
0
LINE
8
BLACK
6
CONTINUOUS
10
2.27772
20
-2.45003
11
2.27772
21
-2.50397
0
LINE
8
BLACK
6
CONTINUOUS
10
2.27772
20
-2.50397
11
2.27758
21
-2.50543
0
LINE
8
BLACK
6
CONTINUOUS
10
2.27758
20
-2.50543
11
2.27716
21
-2.50683
0
LINE
8
BLACK
6
CONTINUOUS
10
2.27716
20
-2.50683
11
2.27646
21
-2.50812
0
LINE
8
BLACK
6
CONTINUOUS
10
2.27646
20
-2.50812
11
2.27553
21
-2.50926
0
LINE
8
BLACK
6
CONTINUOUS
10
2.27553
20
-2.50926
11
2.2744
21
-2.51019
0
LINE
8
BLACK
6
CONTINUOUS
10
2.2744
20
-2.51019
11
2.27311
21
-2.51088
0
LINE
8
BLACK
6
CONTINUOUS
10
2.27311
20
-2.51088
11
2.2717
21
-2.51131
0
LINE
8
BLACK
6
CONTINUOUS
10
2.2717
20
-2.51131
11
2.27024
21
-2.51145
0
LINE
8
BLACK
6
CONTINUOUS
10
2.27024
20
-2.51145
11
2.2478
21
-2.51145
0
LINE
8
BLACK
6
CONTINUOUS
10
2.2478
20
-2.51145
11
2.24634
21
-2.51131
0
LINE
8
BLACK
6
CONTINUOUS
10
2.24634
20
-2.51131
11
2.24494
21
-2.51088
0
LINE
8
BLACK
6
CONTINUOUS
10
2.24494
20
-2.51088
11
2.24365
21
-2.51019
0
LINE
8
BLACK
6
CONTINUOUS
10
2.24365
20
-2.51019
11
2.24251
21
-2.50926
0
LINE
8
BLACK
6
CONTINUOUS
10
2.24251
20
-2.50926
11
2.24158
21
-2.50812
0
LINE
8
BLACK
6
CONTINUOUS
10
2.24158
20
-2.50812
11
2.24089
21
-2.50683
0
LINE
8
BLACK
6
CONTINUOUS
10
2.24089
20
-2.50683
11
2.24047
21
-2.50543
0
LINE
8
BLACK
6
CONTINUOUS
10
2.24047
20
-2.50543
11
2.24032
21
-2.50397
0
LINE
8
BLACK
6
CONTINUOUS
10
2.24032
20
-2.50397
11
2.24032
21
-2.45003
0
LINE
8
BLACK
6
CONTINUOUS
10
2.24032
20
-2.45003
11
2.24047
21
-2.44857
0
LINE
8
BLACK
6
CONTINUOUS
10
2.24047
20
-2.44857
11
2.24089
21
-2.44717
0
LINE
8
BLACK
6
CONTINUOUS
10
2.24089
20
-2.44717
11
2.24158
21
-2.44588
0
LINE
8
BLACK
6
CONTINUOUS
10
2.24158
20
-2.44588
11
2.24251
21
-2.44474
0
LINE
8
BLACK
6
CONTINUOUS
10
2.24251
20
-2.44474
11
2.24365
21
-2.44381
0
LINE
8
BLACK
6
CONTINUOUS
10
2.24365
20
-2.44381
11
2.24494
21
-2.44312
0
LINE
8
BLACK
6
CONTINUOUS
10
2.24494
20
-2.44312
11
2.24634
21
-2.44269
0
LINE
8
BLACK
6
CONTINUOUS
10
2.24634
20
-2.44269
11
2.2478
21
-2.44255
0
LINE
8
BLACK
6
CONTINUOUS
10
2.2478
20
-2.44255
11
2.27024
21
-2.44255
0
LINE
8
BLACK
6
CONTINUOUS
10
2.27024
20
-2.44255
11
2.2717
21
-2.44269
0
LINE
8
BLACK
6
CONTINUOUS
10
2.49266
20
-2.44269
11
2.49406
21
-2.44312
0
LINE
8
BLACK
6
CONTINUOUS
10
2.49406
20
-2.44312
11
2.49535
21
-2.44381
0
LINE
8
BLACK
6
CONTINUOUS
10
2.49535
20
-2.44381
11
2.49649
21
-2.44474
0
LINE
8
BLACK
6
CONTINUOUS
10
2.49649
20
-2.44474
11
2.49742
21
-2.44588
0
LINE
8
BLACK
6
CONTINUOUS
10
2.49742
20
-2.44588
11
2.49811
21
-2.44717
0
LINE
8
BLACK
6
CONTINUOUS
10
2.49811
20
-2.44717
11
2.49853
21
-2.44857
0
LINE
8
BLACK
6
CONTINUOUS
10
2.49853
20
-2.44857
11
2.49868
21
-2.45003
0
LINE
8
BLACK
6
CONTINUOUS
10
2.49868
20
-2.45003
11
2.49868
21
-2.50397
0
LINE
8
BLACK
6
CONTINUOUS
10
2.49868
20
-2.50397
11
2.49853
21
-2.50543
0
LINE
8
BLACK
6
CONTINUOUS
10
2.49853
20
-2.50543
11
2.49811
21
-2.50683
0
LINE
8
BLACK
6
CONTINUOUS
10
2.49811
20
-2.50683
11
2.49742
21
-2.50812
0
LINE
8
BLACK
6
CONTINUOUS
10
2.49742
20
-2.50812
11
2.49649
21
-2.50926
0
LINE
8
BLACK
6
CONTINUOUS
10
2.49649
20
-2.50926
11
2.49535
21
-2.51019
0
LINE
8
BLACK
6
CONTINUOUS
10
2.49535
20
-2.51019
11
2.49406
21
-2.51088
0
LINE
8
BLACK
6
CONTINUOUS
10
2.49406
20
-2.51088
11
2.49266
21
-2.51131
0
LINE
8
BLACK
6
CONTINUOUS
10
2.49266
20
-2.51131
11
2.4912
21
-2.51145
0
LINE
8
BLACK
6
CONTINUOUS
10
2.4912
20
-2.51145
11
2.46876
21
-2.51145
0
LINE
8
BLACK
6
CONTINUOUS
10
2.46876
20
-2.51145
11
2.4673
21
-2.51131
0
LINE
8
BLACK
6
CONTINUOUS
10
2.4673
20
-2.51131
11
2.46589
21
-2.51088
0
LINE
8
BLACK
6
CONTINUOUS
10
2.46589
20
-2.51088
11
2.4646
21
-2.51019
0
LINE
8
BLACK
6
CONTINUOUS
10
2.4646
20
-2.51019
11
2.46347
21
-2.50926
0
LINE
8
BLACK
6
CONTINUOUS
10
2.46347
20
-2.50926
11
2.46254
21
-2.50812
0
LINE
8
BLACK
6
CONTINUOUS
10
2.46254
20
-2.50812
11
2.46184
21
-2.50683
0
LINE
8
BLACK
6
CONTINUOUS
10
2.46184
20
-2.50683
11
2.46142
21
-2.50543
0
LINE
8
BLACK
6
CONTINUOUS
10
2.46142
20
-2.50543
11
2.46128
21
-2.50397
0
LINE
8
BLACK
6
CONTINUOUS
10
2.46128
20
-2.50397
11
2.46128
21
-2.45003
0
LINE
8
BLACK
6
CONTINUOUS
10
2.46128
20
-2.45003
11
2.46142
21
-2.44857
0
LINE
8
BLACK
6
CONTINUOUS
10
2.46142
20
-2.44857
11
2.46184
21
-2.44717
0
LINE
8
BLACK
6
CONTINUOUS
10
2.46184
20
-2.44717
11
2.46254
21
-2.44588
0
LINE
8
BLACK
6
CONTINUOUS
10
2.46254
20
-2.44588
11
2.46347
21
-2.44474
0
LINE
8
BLACK
6
CONTINUOUS
10
2.46347
20
-2.44474
11
2.4646
21
-2.44381
0
LINE
8
BLACK
6
CONTINUOUS
10
2.4646
20
-2.44381
11
2.46589
21
-2.44312
0
LINE
8
BLACK
6
CONTINUOUS
10
2.46589
20
-2.44312
11
2.4673
21
-2.44269
0
LINE
8
BLACK
6
CONTINUOUS
10
2.4673
20
-2.44269
11
2.46876
21
-2.44255
0
LINE
8
BLACK
6
CONTINUOUS
10
2.46876
20
-2.44255
11
2.4912
21
-2.44255
0
LINE
8
BLACK
6
CONTINUOUS
10
2.4912
20
-2.44255
11
2.49266
21
-2.44269
0
LINE
8
BLACK
6
CONTINUOUS
10
2.6147
20
-2.44269
11
2.61611
21
-2.44312
0
LINE
8
BLACK
6
CONTINUOUS
10
2.61611
20
-2.44312
11
2.6174
21
-2.44381
0
LINE
8
BLACK
6
CONTINUOUS
10
2.6174
20
-2.44381
11
2.61853
21
-2.44474
0
LINE
8
BLACK
6
CONTINUOUS
10
2.61853
20
-2.44474
11
2.61946
21
-2.44588
0
LINE
8
BLACK
6
CONTINUOUS
10
2.61946
20
-2.44588
11
2.62016
21
-2.44717
0
LINE
8
BLACK
6
CONTINUOUS
10
2.62016
20
-2.44717
11
2.62058
21
-2.44857
0
LINE
8
BLACK
6
CONTINUOUS
10
2.62058
20
-2.44857
11
2.62072
21
-2.45003
0
LINE
8
BLACK
6
CONTINUOUS
10
2.62072
20
-2.45003
11
2.62072
21
-2.50397
0
LINE
8
BLACK
6
CONTINUOUS
10
2.62072
20
-2.50397
11
2.62058
21
-2.50543
0
LINE
8
BLACK
6
CONTINUOUS
10
2.62058
20
-2.50543
11
2.62016
21
-2.50683
0
LINE
8
BLACK
6
CONTINUOUS
10
2.62016
20
-2.50683
11
2.61946
21
-2.50812
0
LINE
8
BLACK
6
CONTINUOUS
10
2.61946
20
-2.50812
11
2.61853
21
-2.50926
0
LINE
8
BLACK
6
CONTINUOUS
10
2.61853
20
-2.50926
11
2.6174
21
-2.51019
0
LINE
8
BLACK
6
CONTINUOUS
10
2.6174
20
-2.51019
11
2.61611
21
-2.51088
0
LINE
8
BLACK
6
CONTINUOUS
10
2.61611
20
-2.51088
11
2.6147
21
-2.51131
0
LINE
8
BLACK
6
CONTINUOUS
10
2.6147
20
-2.51131
11
2.61324
21
-2.51145
0
LINE
8
BLACK
6
CONTINUOUS
10
2.61324
20
-2.51145
11
2.5908
21
-2.51145
0
LINE
8
BLACK
6
CONTINUOUS
10
2.5908
20
-2.51145
11
2.58934
21
-2.51131
0
LINE
8
BLACK
6
CONTINUOUS
10
2.58934
20
-2.51131
11
2.58794
21
-2.51088
0
LINE
8
BLACK
6
CONTINUOUS
10
2.58794
20
-2.51088
11
2.58665
21
-2.51019
0
LINE
8
BLACK
6
CONTINUOUS
10
2.58665
20
-2.51019
11
2.58551
21
-2.50926
0
LINE
8
BLACK
6
CONTINUOUS
10
2.58551
20
-2.50926
11
2.58458
21
-2.50812
0
LINE
8
BLACK
6
CONTINUOUS
10
2.58458
20
-2.50812
11
2.58389
21
-2.50683
0
LINE
8
BLACK
6
CONTINUOUS
10
2.58389
20
-2.50683
11
2.58347
21
-2.50543
0
LINE
8
BLACK
6
CONTINUOUS
10
2.58347
20
-2.50543
11
2.58332
21
-2.50397
0
LINE
8
BLACK
6
CONTINUOUS
10
2.58332
20
-2.50397
11
2.58332
21
-2.45003
0
LINE
8
BLACK
6
CONTINUOUS
10
2.58332
20
-2.45003
11
2.58347
21
-2.44857
0
LINE
8
BLACK
6
CONTINUOUS
10
2.58347
20
-2.44857
11
2.58389
21
-2.44717
0
LINE
8
BLACK
6
CONTINUOUS
10
2.58389
20
-2.44717
11
2.58458
21
-2.44588
0
LINE
8
BLACK
6
CONTINUOUS
10
2.58458
20
-2.44588
11
2.58551
21
-2.44474
0
LINE
8
BLACK
6
CONTINUOUS
10
2.58551
20
-2.44474
11
2.58665
21
-2.44381
0
LINE
8
BLACK
6
CONTINUOUS
10
2.58665
20
-2.44381
11
2.58794
21
-2.44312
0
LINE
8
BLACK
6
CONTINUOUS
10
2.58794
20
-2.44312
11
2.58934
21
-2.44269
0
LINE
8
BLACK
6
CONTINUOUS
10
2.58934
20
-2.44269
11
2.5908
21
-2.44255
0
LINE
8
BLACK
6
CONTINUOUS
10
2.5908
20
-2.44255
11
2.61324
21
-2.44255
0
LINE
8
BLACK
6
CONTINUOUS
10
2.61324
20
-2.44255
11
2.6147
21
-2.44269
0
LINE
8
BLACK
6
CONTINUOUS
10
2.83666
20
-2.44269
11
2.83806
21
-2.44312
0
LINE
8
BLACK
6
CONTINUOUS
10
2.83806
20
-2.44312
11
2.83935
21
-2.44381
0
LINE
8
BLACK
6
CONTINUOUS
10
2.83935
20
-2.44381
11
2.84049
21
-2.44474
0
LINE
8
BLACK
6
CONTINUOUS
10
2.84049
20
-2.44474
11
2.84142
21
-2.44588
0
LINE
8
BLACK
6
CONTINUOUS
10
2.84142
20
-2.44588
11
2.84211
21
-2.44717
0
LINE
8
BLACK
6
CONTINUOUS
10
2.84211
20
-2.44717
11
2.84253
21
-2.44857
0
LINE
8
BLACK
6
CONTINUOUS
10
2.84253
20
-2.44857
11
2.84268
21
-2.45003
0
LINE
8
BLACK
6
CONTINUOUS
10
2.84268
20
-2.45003
11
2.84268
21
-2.50397
0
LINE
8
BLACK
6
CONTINUOUS
10
2.84268
20
-2.50397
11
2.84253
21
-2.50543
0
LINE
8
BLACK
6
CONTINUOUS
10
2.84253
20
-2.50543
11
2.84211
21
-2.50683
0
LINE
8
BLACK
6
CONTINUOUS
10
2.84211
20
-2.50683
11
2.84142
21
-2.50812
0
LINE
8
BLACK
6
CONTINUOUS
10
2.84142
20
-2.50812
11
2.84049
21
-2.50926
0
LINE
8
BLACK
6
CONTINUOUS
10
2.84049
20
-2.50926
11
2.83935
21
-2.51019
0
LINE
8
BLACK
6
CONTINUOUS
10
2.83935
20
-2.51019
11
2.83806
21
-2.51088
0
LINE
8
BLACK
6
CONTINUOUS
10
2.83806
20
-2.51088
11
2.83666
21
-2.51131
0
LINE
8
BLACK
6
CONTINUOUS
10
2.83666
20
-2.51131
11
2.8352
21
-2.51145
0
LINE
8
BLACK
6
CONTINUOUS
10
2.8352
20
-2.51145
11
2.81276
21
-2.51145
0
LINE
8
BLACK
6
CONTINUOUS
10
2.81276
20
-2.51145
11
2.8113
21
-2.51131
0
LINE
8
BLACK
6
CONTINUOUS
10
2.8113
20
-2.51131
11
2.80989
21
-2.51088
0
LINE
8
BLACK
6
CONTINUOUS
10
2.80989
20
-2.51088
11
2.8086
21
-2.51019
0
LINE
8
BLACK
6
CONTINUOUS
10
2.8086
20
-2.51019
11
2.80747
21
-2.50926
0
LINE
8
BLACK
6
CONTINUOUS
10
2.80747
20
-2.50926
11
2.80654
21
-2.50812
0
LINE
8
BLACK
6
CONTINUOUS
10
2.80654
20
-2.50812
11
2.80585
21
-2.50683
0
LINE
8
BLACK
6
CONTINUOUS
10
2.80585
20
-2.50683
11
2.80542
21
-2.50543
0
LINE
8
BLACK
6
CONTINUOUS
10
2.80542
20
-2.50543
11
2.80528
21
-2.50397
0
LINE
8
BLACK
6
CONTINUOUS
10
2.80528
20
-2.50397
11
2.80528
21
-2.45003
0
LINE
8
BLACK
6
CONTINUOUS
10
2.80528
20
-2.45003
11
2.80542
21
-2.44857
0
LINE
8
BLACK
6
CONTINUOUS
10
2.80542
20
-2.44857
11
2.80585
21
-2.44717
0
LINE
8
BLACK
6
CONTINUOUS
10
2.80585
20
-2.44717
11
2.80654
21
-2.44588
0
LINE
8
BLACK
6
CONTINUOUS
10
2.80654
20
-2.44588
11
2.80747
21
-2.44474
0
LINE
8
BLACK
6
CONTINUOUS
10
2.80747
20
-2.44474
11
2.8086
21
-2.44381
0
LINE
8
BLACK
6
CONTINUOUS
10
2.8086
20
-2.44381
11
2.80989
21
-2.44312
0
LINE
8
BLACK
6
CONTINUOUS
10
2.80989
20
-2.44312
11
2.8113
21
-2.44269
0
LINE
8
BLACK
6
CONTINUOUS
10
2.8113
20
-2.44269
11
2.81276
21
-2.44255
0
LINE
8
BLACK
6
CONTINUOUS
10
2.81276
20
-2.44255
11
2.8352
21
-2.44255
0
LINE
8
BLACK
6
CONTINUOUS
10
2.8352
20
-2.44255
11
2.83666
21
-2.44269
0
LINE
8
BLACK
6
CONTINUOUS
10
2.9587
20
-2.44269
11
2.96011
21
-2.44312
0
LINE
8
BLACK
6
CONTINUOUS
10
2.96011
20
-2.44312
11
2.9614
21
-2.44381
0
LINE
8
BLACK
6
CONTINUOUS
10
2.9614
20
-2.44381
11
2.96253
21
-2.44474
0
LINE
8
BLACK
6
CONTINUOUS
10
2.96253
20
-2.44474
11
2.96346
21
-2.44588
0
LINE
8
BLACK
6
CONTINUOUS
10
2.96346
20
-2.44588
11
2.96415
21
-2.44717
0
LINE
8
BLACK
6
CONTINUOUS
10
2.96415
20
-2.44717
11
2.96458
21
-2.44857
0
LINE
8
BLACK
6
CONTINUOUS
10
2.96458
20
-2.44857
11
2.96472
21
-2.45003
0
LINE
8
BLACK
6
CONTINUOUS
10
2.96472
20
-2.45003
11
2.96472
21
-2.50397
0
LINE
8
BLACK
6
CONTINUOUS
10
2.96472
20
-2.50397
11
2.96458
21
-2.50543
0
LINE
8
BLACK
6
CONTINUOUS
10
2.96458
20
-2.50543
11
2.96415
21
-2.50683
0
LINE
8
BLACK
6
CONTINUOUS
10
2.96415
20
-2.50683
11
2.96346
21
-2.50812
0
LINE
8
BLACK
6
CONTINUOUS
10
2.96346
20
-2.50812
11
2.96253
21
-2.50926
0
LINE
8
BLACK
6
CONTINUOUS
10
2.96253
20
-2.50926
11
2.9614
21
-2.51019
0
LINE
8
BLACK
6
CONTINUOUS
10
2.9614
20
-2.51019
11
2.96011
21
-2.51088
0
LINE
8
BLACK
6
CONTINUOUS
10
2.96011
20
-2.51088
11
2.9587
21
-2.51131
0
LINE
8
BLACK
6
CONTINUOUS
10
2.9587
20
-2.51131
11
2.95724
21
-2.51145
0
LINE
8
BLACK
6
CONTINUOUS
10
2.95724
20
-2.51145
11
2.9348
21
-2.51145
0
LINE
8
BLACK
6
CONTINUOUS
10
2.9348
20
-2.51145
11
2.93334
21
-2.51131
0
LINE
8
BLACK
6
CONTINUOUS
10
2.93334
20
-2.51131
11
2.93194
21
-2.51088
0
LINE
8
BLACK
6
CONTINUOUS
10
2.93194
20
-2.51088
11
2.93065
21
-2.51019
0
LINE
8
BLACK
6
CONTINUOUS
10
2.93065
20
-2.51019
11
2.92951
21
-2.50926
0
LINE
8
BLACK
6
CONTINUOUS
10
2.92951
20
-2.50926
11
2.92858
21
-2.50812
0
LINE
8
BLACK
6
CONTINUOUS
10
2.92858
20
-2.50812
11
2.92789
21
-2.50683
0
LINE
8
BLACK
6
CONTINUOUS
10
2.92789
20
-2.50683
11
2.92747
21
-2.50543
0
LINE
8
BLACK
6
CONTINUOUS
10
2.92747
20
-2.50543
11
2.92732
21
-2.50397
0
LINE
8
BLACK
6
CONTINUOUS
10
2.92732
20
-2.50397
11
2.92732
21
-2.45003
0
LINE
8
BLACK
6
CONTINUOUS
10
2.92732
20
-2.45003
11
2.92747
21
-2.44857
0
LINE
8
BLACK
6
CONTINUOUS
10
2.92747
20
-2.44857
11
2.92789
21
-2.44717
0
LINE
8
BLACK
6
CONTINUOUS
10
2.92789
20
-2.44717
11
2.92858
21
-2.44588
0
LINE
8
BLACK
6
CONTINUOUS
10
2.92858
20
-2.44588
11
2.92951
21
-2.44474
0
LINE
8
BLACK
6
CONTINUOUS
10
2.92951
20
-2.44474
11
2.93065
21
-2.44381
0
LINE
8
BLACK
6
CONTINUOUS
10
2.93065
20
-2.44381
11
2.93194
21
-2.44312
0
LINE
8
BLACK
6
CONTINUOUS
10
2.93194
20
-2.44312
11
2.93334
21
-2.44269
0
LINE
8
BLACK
6
CONTINUOUS
10
2.93334
20
-2.44269
11
2.9348
21
-2.44255
0
LINE
8
BLACK
6
CONTINUOUS
10
2.9348
20
-2.44255
11
2.95724
21
-2.44255
0
LINE
8
BLACK
6
CONTINUOUS
10
2.95724
20
-2.44255
11
2.9587
21
-2.44269
0
LINE
8
BLACK
6
CONTINUOUS
10
3.3007
20
-2.44269
11
3.30211
21
-2.44312
0
LINE
8
BLACK
6
CONTINUOUS
10
3.30211
20
-2.44312
11
3.3034
21
-2.44381
0
LINE
8
BLACK
6
CONTINUOUS
10
3.3034
20
-2.44381
11
3.30453
21
-2.44474
0
LINE
8
BLACK
6
CONTINUOUS
10
3.30453
20
-2.44474
11
3.30546
21
-2.44588
0
LINE
8
BLACK
6
CONTINUOUS
10
3.30546
20
-2.44588
11
3.30615
21
-2.44717
0
LINE
8
BLACK
6
CONTINUOUS
10
3.30615
20
-2.44717
11
3.30658
21
-2.44857
0
LINE
8
BLACK
6
CONTINUOUS
10
3.30658
20
-2.44857
11
3.30672
21
-2.45003
0
LINE
8
BLACK
6
CONTINUOUS
10
3.30672
20
-2.45003
11
3.30672
21
-2.50397
0
LINE
8
BLACK
6
CONTINUOUS
10
3.30672
20
-2.50397
11
3.30658
21
-2.50543
0
LINE
8
BLACK
6
CONTINUOUS
10
3.30658
20
-2.50543
11
3.30615
21
-2.50683
0
LINE
8
BLACK
6
CONTINUOUS
10
3.30615
20
-2.50683
11
3.30546
21
-2.50812
0
LINE
8
BLACK
6
CONTINUOUS
10
3.30546
20
-2.50812
11
3.30453
21
-2.50926
0
LINE
8
BLACK
6
CONTINUOUS
10
3.30453
20
-2.50926
11
3.3034
21
-2.51019
0
LINE
8
BLACK
6
CONTINUOUS
10
3.3034
20
-2.51019
11
3.30211
21
-2.51088
0
LINE
8
BLACK
6
CONTINUOUS
10
3.30211
20
-2.51088
11
3.3007
21
-2.51131
0
LINE
8
BLACK
6
CONTINUOUS
10
3.3007
20
-2.51131
11
3.29924
21
-2.51145
0
LINE
8
BLACK
6
CONTINUOUS
10
3.29924
20
-2.51145
11
3.2768
21
-2.51145
0
LINE
8
BLACK
6
CONTINUOUS
10
3.2768
20
-2.51145
11
3.27534
21
-2.51131
0
LINE
8
BLACK
6
CONTINUOUS
10
3.27534
20
-2.51131
11
3.27394
21
-2.51088
0
LINE
8
BLACK
6
CONTINUOUS
10
3.27394
20
-2.51088
11
3.27265
21
-2.51019
0
LINE
8
BLACK
6
CONTINUOUS
10
3.27265
20
-2.51019
11
3.27151
21
-2.50926
0
LINE
8
BLACK
6
CONTINUOUS
10
3.27151
20
-2.50926
11
3.27058
21
-2.50812
0
LINE
8
BLACK
6
CONTINUOUS
10
3.27058
20
-2.50812
11
3.26989
21
-2.50683
0
LINE
8
BLACK
6
CONTINUOUS
10
3.26989
20
-2.50683
11
3.26947
21
-2.50543
0
LINE
8
BLACK
6
CONTINUOUS
10
3.26947
20
-2.50543
11
3.26932
21
-2.50397
0
LINE
8
BLACK
6
CONTINUOUS
10
3.26932
20
-2.50397
11
3.26932
21
-2.45003
0
LINE
8
BLACK
6
CONTINUOUS
10
3.26932
20
-2.45003
11
3.26947
21
-2.44857
0
LINE
8
BLACK
6
CONTINUOUS
10
3.26947
20
-2.44857
11
3.26989
21
-2.44717
0
LINE
8
BLACK
6
CONTINUOUS
10
3.26989
20
-2.44717
11
3.27058
21
-2.44588
0
LINE
8
BLACK
6
CONTINUOUS
10
3.27058
20
-2.44588
11
3.27151
21
-2.44474
0
LINE
8
BLACK
6
CONTINUOUS
10
3.27151
20
-2.44474
11
3.27265
21
-2.44381
0
LINE
8
BLACK
6
CONTINUOUS
10
3.27265
20
-2.44381
11
3.27394
21
-2.44312
0
LINE
8
BLACK
6
CONTINUOUS
10
3.27394
20
-2.44312
11
3.27534
21
-2.44269
0
LINE
8
BLACK
6
CONTINUOUS
10
3.27534
20
-2.44269
11
3.2768
21
-2.44255
0
LINE
8
BLACK
6
CONTINUOUS
10
3.2768
20
-2.44255
11
3.29924
21
-2.44255
0
LINE
8
BLACK
6
CONTINUOUS
10
3.29924
20
-2.44255
11
3.3007
21
-2.44269
0
LINE
8
BLACK
6
CONTINUOUS
10
3.17866
20
-2.44269
11
3.18006
21
-2.44312
0
LINE
8
BLACK
6
CONTINUOUS
10
3.18006
20
-2.44312
11
3.18135
21
-2.44381
0
LINE
8
BLACK
6
CONTINUOUS
10
3.18135
20
-2.44381
11
3.18249
21
-2.44474
0
LINE
8
BLACK
6
CONTINUOUS
10
3.18249
20
-2.44474
11
3.18342
21
-2.44588
0
LINE
8
BLACK
6
CONTINUOUS
10
3.18342
20
-2.44588
11
3.18411
21
-2.44717
0
LINE
8
BLACK
6
CONTINUOUS
10
3.18411
20
-2.44717
11
3.18453
21
-2.44857
0
LINE
8
BLACK
6
CONTINUOUS
10
3.18453
20
-2.44857
11
3.18468
21
-2.45003
0
LINE
8
BLACK
6
CONTINUOUS
10
3.18468
20
-2.45003
11
3.18468
21
-2.50397
0
LINE
8
BLACK
6
CONTINUOUS
10
3.18468
20
-2.50397
11
3.18453
21
-2.50543
0
LINE
8
BLACK
6
CONTINUOUS
10
3.18453
20
-2.50543
11
3.18411
21
-2.50683
0
LINE
8
BLACK
6
CONTINUOUS
10
3.18411
20
-2.50683
11
3.18342
21
-2.50812
0
LINE
8
BLACK
6
CONTINUOUS
10
3.18342
20
-2.50812
11
3.18249
21
-2.50926
0
LINE
8
BLACK
6
CONTINUOUS
10
3.18249
20
-2.50926
11
3.18135
21
-2.51019
0
LINE
8
BLACK
6
CONTINUOUS
10
3.18135
20
-2.51019
11
3.18006
21
-2.51088
0
LINE
8
BLACK
6
CONTINUOUS
10
3.18006
20
-2.51088
11
3.17866
21
-2.51131
0
LINE
8
BLACK
6
CONTINUOUS
10
3.17866
20
-2.51131
11
3.1772
21
-2.51145
0
LINE
8
BLACK
6
CONTINUOUS
10
3.1772
20
-2.51145
11
3.15476
21
-2.51145
0
LINE
8
BLACK
6
CONTINUOUS
10
3.15476
20
-2.51145
11
3.1533
21
-2.51131
0
LINE
8
BLACK
6
CONTINUOUS
10
3.1533
20
-2.51131
11
3.15189
21
-2.51088
0
LINE
8
BLACK
6
CONTINUOUS
10
3.15189
20
-2.51088
11
3.1506
21
-2.51019
0
LINE
8
BLACK
6
CONTINUOUS
10
3.1506
20
-2.51019
11
3.14947
21
-2.50926
0
LINE
8
BLACK
6
CONTINUOUS
10
3.14947
20
-2.50926
11
3.14854
21
-2.50812
0
LINE
8
BLACK
6
CONTINUOUS
10
3.14854
20
-2.50812
11
3.14784
21
-2.50683
0
LINE
8
BLACK
6
CONTINUOUS
10
3.14784
20
-2.50683
11
3.14742
21
-2.50543
0
LINE
8
BLACK
6
CONTINUOUS
10
3.14742
20
-2.50543
11
3.14728
21
-2.50397
0
LINE
8
BLACK
6
CONTINUOUS
10
3.14728
20
-2.50397
11
3.14728
21
-2.45003
0
LINE
8
BLACK
6
CONTINUOUS
10
3.14728
20
-2.45003
11
3.14742
21
-2.44857
0
LINE
8
BLACK
6
CONTINUOUS
10
3.14742
20
-2.44857
11
3.14784
21
-2.44717
0
LINE
8
BLACK
6
CONTINUOUS
10
3.14784
20
-2.44717
11
3.14854
21
-2.44588
0
LINE
8
BLACK
6
CONTINUOUS
10
3.14854
20
-2.44588
11
3.14947
21
-2.44474
0
LINE
8
BLACK
6
CONTINUOUS
10
3.14947
20
-2.44474
11
3.1506
21
-2.44381
0
LINE
8
BLACK
6
CONTINUOUS
10
3.1506
20
-2.44381
11
3.15189
21
-2.44312
0
LINE
8
BLACK
6
CONTINUOUS
10
3.15189
20
-2.44312
11
3.1533
21
-2.44269
0
LINE
8
BLACK
6
CONTINUOUS
10
3.1533
20
-2.44269
11
3.15476
21
-2.44255
0
LINE
8
BLACK
6
CONTINUOUS
10
3.15476
20
-2.44255
11
3.1772
21
-2.44255
0
LINE
8
BLACK
6
CONTINUOUS
10
3.1772
20
-2.44255
11
3.17866
21
-2.44269
0
LINE
8
BLACK
6
CONTINUOUS
10
3.37985
20
-2.49925
11
3.34441
21
-2.49925
0
LINE
8
BLACK
6
CONTINUOUS
10
3.34441
20
-2.49925
11
3.34441
21
-2.46775
0
LINE
8
BLACK
6
CONTINUOUS
10
3.34441
20
-2.46775
11
3.37985
21
-2.46775
0
LINE
8
BLACK
6
CONTINUOUS
10
3.37985
20
-2.46775
11
3.37985
21
-2.49925
0
LINE
8
BLACK
6
CONTINUOUS
10
3.03735
20
-2.49925
11
3.00191
21
-2.49925
0
LINE
8
BLACK
6
CONTINUOUS
10
3.00191
20
-2.49925
11
3.00191
21
-2.46775
0
LINE
8
BLACK
6
CONTINUOUS
10
3.00191
20
-2.46775
11
3.03735
21
-2.46775
0
LINE
8
BLACK
6
CONTINUOUS
10
3.03735
20
-2.46775
11
3.03735
21
-2.49925
0
LINE
8
BLACK
6
CONTINUOUS
10
2.69285
20
-2.49925
11
2.65741
21
-2.49925
0
LINE
8
BLACK
6
CONTINUOUS
10
2.65741
20
-2.49925
11
2.65741
21
-2.46775
0
LINE
8
BLACK
6
CONTINUOUS
10
2.65741
20
-2.46775
11
2.69285
21
-2.46775
0
LINE
8
BLACK
6
CONTINUOUS
10
2.69285
20
-2.46775
11
2.69285
21
-2.49925
0
LINE
8
BLACK
6
CONTINUOUS
10
2.08043
20
-2.46259
11
2.08043
21
-2.46452
0
LINE
8
BLACK
6
CONTINUOUS
10
2.08043
20
-2.46452
11
2.07968
21
-2.4683
0
LINE
8
BLACK
6
CONTINUOUS
10
2.07968
20
-2.4683
11
2.0782
21
-2.47187
0
LINE
8
BLACK
6
CONTINUOUS
10
2.0782
20
-2.47187
11
2.07606
21
-2.47508
0
LINE
8
BLACK
6
CONTINUOUS
10
2.07606
20
-2.47508
11
2.07333
21
-2.47781
0
LINE
8
BLACK
6
CONTINUOUS
10
2.07333
20
-2.47781
11
2.07012
21
-2.47995
0
LINE
8
BLACK
6
CONTINUOUS
10
2.07012
20
-2.47995
11
2.06656
21
-2.48143
0
LINE
8
BLACK
6
CONTINUOUS
10
2.06656
20
-2.48143
11
2.06277
21
-2.48218
0
LINE
8
BLACK
6
CONTINUOUS
10
2.06277
20
-2.48218
11
2.06084
21
-2.48218
0
LINE
8
BLACK
6
CONTINUOUS
10
2.06084
20
-2.48218
11
2.06084
21
-2.48228
0
LINE
8
BLACK
6
CONTINUOUS
10
2.06084
20
-2.48228
11
2.04116
21
-2.48228
0
LINE
8
BLACK
6
CONTINUOUS
10
2.04116
20
-2.48228
11
2.04116
21
-2.48218
0
LINE
8
BLACK
6
CONTINUOUS
10
2.04116
20
-2.48218
11
2.03923
21
-2.48218
0
LINE
8
BLACK
6
CONTINUOUS
10
2.03923
20
-2.48218
11
2.03544
21
-2.48143
0
LINE
8
BLACK
6
CONTINUOUS
10
2.03544
20
-2.48143
11
2.03188
21
-2.47995
0
LINE
8
BLACK
6
CONTINUOUS
10
2.03188
20
-2.47995
11
2.02867
21
-2.47781
0
LINE
8
BLACK
6
CONTINUOUS
10
2.02867
20
-2.47781
11
2.02594
21
-2.47508
0
LINE
8
BLACK
6
CONTINUOUS
10
2.02594
20
-2.47508
11
2.0238
21
-2.47187
0
LINE
8
BLACK
6
CONTINUOUS
10
2.0238
20
-2.47187
11
2.02232
21
-2.4683
0
LINE
8
BLACK
6
CONTINUOUS
10
2.02232
20
-2.4683
11
2.02157
21
-2.46452
0
LINE
8
BLACK
6
CONTINUOUS
10
2.02157
20
-2.46452
11
2.02157
21
-2.46259
0
LINE
8
BLACK
6
CONTINUOUS
10
2.02157
20
-2.46259
11
2.02147
21
-2.46259
0
LINE
8
BLACK
6
CONTINUOUS
10
2.02147
20
-2.46259
11
2.02147
21
-2.41141
0
LINE
8
BLACK
6
CONTINUOUS
10
2.02147
20
-2.41141
11
2.02157
21
-2.41141
0
LINE
8
BLACK
6
CONTINUOUS
10
2.02157
20
-2.41141
11
2.02157
21
-2.40948
0
LINE
8
BLACK
6
CONTINUOUS
10
2.02157
20
-2.40948
11
2.02232
21
-2.4057
0
LINE
8
BLACK
6
CONTINUOUS
10
2.02232
20
-2.4057
11
2.0238
21
-2.40213
0
LINE
8
BLACK
6
CONTINUOUS
10
2.0238
20
-2.40213
11
2.02594
21
-2.39892
0
LINE
8
BLACK
6
CONTINUOUS
10
2.02594
20
-2.39892
11
2.02867
21
-2.39619
0
LINE
8
BLACK
6
CONTINUOUS
10
2.02867
20
-2.39619
11
2.03188
21
-2.39405
0
LINE
8
BLACK
6
CONTINUOUS
10
2.03188
20
-2.39405
11
2.03544
21
-2.39257
0
LINE
8
BLACK
6
CONTINUOUS
10
2.03544
20
-2.39257
11
2.03923
21
-2.39182
0
LINE
8
BLACK
6
CONTINUOUS
10
2.03923
20
-2.39182
11
2.04116
21
-2.39182
0
LINE
8
BLACK
6
CONTINUOUS
10
2.04116
20
-2.39182
11
2.04116
21
-2.39172
0
LINE
8
BLACK
6
CONTINUOUS
10
2.04116
20
-2.39172
11
2.06084
21
-2.39172
0
LINE
8
BLACK
6
CONTINUOUS
10
2.06084
20
-2.39172
11
2.06084
21
-2.39182
0
LINE
8
BLACK
6
CONTINUOUS
10
2.06084
20
-2.39182
11
2.06277
21
-2.39182
0
LINE
8
BLACK
6
CONTINUOUS
10
2.06277
20
-2.39182
11
2.06656
21
-2.39257
0
LINE
8
BLACK
6
CONTINUOUS
10
2.06656
20
-2.39257
11
2.07012
21
-2.39405
0
LINE
8
BLACK
6
CONTINUOUS
10
2.07012
20
-2.39405
11
2.07333
21
-2.39619
0
LINE
8
BLACK
6
CONTINUOUS
10
2.07333
20
-2.39619
11
2.07606
21
-2.39892
0
LINE
8
BLACK
6
CONTINUOUS
10
2.07606
20
-2.39892
11
2.0782
21
-2.40213
0
LINE
8
BLACK
6
CONTINUOUS
10
2.0782
20
-2.40213
11
2.07968
21
-2.4057
0
LINE
8
BLACK
6
CONTINUOUS
10
2.07968
20
-2.4057
11
2.08043
21
-2.40948
0
LINE
8
BLACK
6
CONTINUOUS
10
2.08043
20
-2.40948
11
2.08043
21
-2.41141
0
LINE
8
BLACK
6
CONTINUOUS
10
2.08043
20
-2.41141
11
2.08053
21
-2.41141
0
LINE
8
BLACK
6
CONTINUOUS
10
2.08053
20
-2.41141
11
2.08053
21
-2.46259
0
LINE
8
BLACK
6
CONTINUOUS
10
2.08053
20
-2.46259
11
2.08043
21
-2.46259
0
LINE
8
BLACK
6
CONTINUOUS
10
3.45859
20
-2.46185
11
3.42315
21
-2.46185
0
LINE
8
BLACK
6
CONTINUOUS
10
3.42315
20
-2.46185
11
3.42315
21
-2.43035
0
LINE
8
BLACK
6
CONTINUOUS
10
3.42315
20
-2.43035
11
3.45859
21
-2.43035
0
LINE
8
BLACK
6
CONTINUOUS
10
3.45859
20
-2.43035
11
3.45859
21
-2.46185
0
LINE
8
BLACK
6
CONTINUOUS
10
3.11609
20
-2.46185
11
3.08065
21
-2.46185
0
LINE
8
BLACK
6
CONTINUOUS
10
3.08065
20
-2.46185
11
3.08065
21
-2.43035
0
LINE
8
BLACK
6
CONTINUOUS
10
3.08065
20
-2.43035
11
3.11609
21
-2.43035
0
LINE
8
BLACK
6
CONTINUOUS
10
3.11609
20
-2.43035
11
3.11609
21
-2.46185
0
LINE
8
BLACK
6
CONTINUOUS
10
2.77159
20
-2.46185
11
2.73615
21
-2.46185
0
LINE
8
BLACK
6
CONTINUOUS
10
2.73615
20
-2.46185
11
2.73615
21
-2.43035
0
LINE
8
BLACK
6
CONTINUOUS
10
2.73615
20
-2.43035
11
2.77159
21
-2.43035
0
LINE
8
BLACK
6
CONTINUOUS
10
2.77159
20
-2.43035
11
2.77159
21
-2.46185
0
LINE
8
BLACK
6
CONTINUOUS
10
3.14237
20
-2.40272
11
3.12269
21
-2.40272
0
LINE
8
BLACK
6
CONTINUOUS
10
3.12269
20
-2.40272
11
3.12269
21
-2.36728
0
LINE
8
BLACK
6
CONTINUOUS
10
3.12269
20
-2.36728
11
3.14237
21
-2.36728
0
LINE
8
BLACK
6
CONTINUOUS
10
3.14237
20
-2.36728
11
3.14237
21
-2.40272
0
LINE
8
BLACK
6
CONTINUOUS
10
3.08331
20
-2.40272
11
3.06363
21
-2.40272
0
LINE
8
BLACK
6
CONTINUOUS
10
3.06363
20
-2.40272
11
3.06363
21
-2.36728
0
LINE
8
BLACK
6
CONTINUOUS
10
3.06363
20
-2.36728
11
3.08331
21
-2.36728
0
LINE
8
BLACK
6
CONTINUOUS
10
3.08331
20
-2.36728
11
3.08331
21
-2.40272
0
LINE
8
BLACK
6
CONTINUOUS
10
2.73931
20
-2.40272
11
2.71963
21
-2.40272
0
LINE
8
BLACK
6
CONTINUOUS
10
2.71963
20
-2.40272
11
2.71963
21
-2.36728
0
LINE
8
BLACK
6
CONTINUOUS
10
2.71963
20
-2.36728
11
2.73931
21
-2.36728
0
LINE
8
BLACK
6
CONTINUOUS
10
2.73931
20
-2.36728
11
2.73931
21
-2.40272
0
LINE
8
BLACK
6
CONTINUOUS
10
2.79837
20
-2.40272
11
2.77869
21
-2.40272
0
LINE
8
BLACK
6
CONTINUOUS
10
2.77869
20
-2.40272
11
2.77869
21
-2.36728
0
LINE
8
BLACK
6
CONTINUOUS
10
2.77869
20
-2.36728
11
2.79837
21
-2.36728
0
LINE
8
BLACK
6
CONTINUOUS
10
2.79837
20
-2.36728
11
2.79837
21
-2.40272
0
LINE
8
BLACK
6
CONTINUOUS
10
3.48437
20
-2.40172
11
3.46469
21
-2.40172
0
LINE
8
BLACK
6
CONTINUOUS
10
3.46469
20
-2.40172
11
3.46469
21
-2.36628
0
LINE
8
BLACK
6
CONTINUOUS
10
3.46469
20
-2.36628
11
3.48437
21
-2.36628
0
LINE
8
BLACK
6
CONTINUOUS
10
3.48437
20
-2.36628
11
3.48437
21
-2.40172
0
LINE
8
BLACK
6
CONTINUOUS
10
3.42531
20
-2.40172
11
3.40563
21
-2.40172
0
LINE
8
BLACK
6
CONTINUOUS
10
3.40563
20
-2.40172
11
3.40563
21
-2.36628
0
LINE
8
BLACK
6
CONTINUOUS
10
3.40563
20
-2.36628
11
3.42531
21
-2.36628
0
LINE
8
BLACK
6
CONTINUOUS
10
3.42531
20
-2.36628
11
3.42531
21
-2.40172
0
LINE
8
BLACK
6
CONTINUOUS
10
2.85572
20
-2.35737
11
2.82028
21
-2.35737
0
LINE
8
BLACK
6
CONTINUOUS
10
2.82028
20
-2.35737
11
2.82028
21
-2.33769
0
LINE
8
BLACK
6
CONTINUOUS
10
2.82028
20
-2.33769
11
2.85572
21
-2.33769
0
LINE
8
BLACK
6
CONTINUOUS
10
2.85572
20
-2.33769
11
2.85572
21
-2.35737
0
LINE
8
BLACK
6
CONTINUOUS
10
2.16972
20
-2.35637
11
2.13428
21
-2.35637
0
LINE
8
BLACK
6
CONTINUOUS
10
2.13428
20
-2.35637
11
2.13428
21
-2.33669
0
LINE
8
BLACK
6
CONTINUOUS
10
2.13428
20
-2.33669
11
2.16972
21
-2.33669
0
LINE
8
BLACK
6
CONTINUOUS
10
2.16972
20
-2.33669
11
2.16972
21
-2.35637
0
LINE
8
BLACK
6
CONTINUOUS
10
3.19972
20
-2.35637
11
3.16428
21
-2.35637
0
LINE
8
BLACK
6
CONTINUOUS
10
3.16428
20
-2.35637
11
3.16428
21
-2.33669
0
LINE
8
BLACK
6
CONTINUOUS
10
3.16428
20
-2.33669
11
3.19972
21
-2.33669
0
LINE
8
BLACK
6
CONTINUOUS
10
3.19972
20
-2.33669
11
3.19972
21
-2.35637
0
LINE
8
BLACK
6
CONTINUOUS
10
2.51272
20
-2.35537
11
2.47728
21
-2.35537
0
LINE
8
BLACK
6
CONTINUOUS
10
2.47728
20
-2.35537
11
2.47728
21
-2.33569
0
LINE
8
BLACK
6
CONTINUOUS
10
2.47728
20
-2.33569
11
2.51272
21
-2.33569
0
LINE
8
BLACK
6
CONTINUOUS
10
2.51272
20
-2.33569
11
2.51272
21
-2.35537
0
LINE
8
BLACK
6
CONTINUOUS
10
3.08331
20
-2.34572
11
3.06363
21
-2.34572
0
LINE
8
BLACK
6
CONTINUOUS
10
3.06363
20
-2.34572
11
3.06363
21
-2.31028
0
LINE
8
BLACK
6
CONTINUOUS
10
3.06363
20
-2.31028
11
3.08331
21
-2.31028
0
LINE
8
BLACK
6
CONTINUOUS
10
3.08331
20
-2.31028
11
3.08331
21
-2.34572
0
LINE
8
BLACK
6
CONTINUOUS
10
3.14237
20
-2.34572
11
3.12269
21
-2.34572
0
LINE
8
BLACK
6
CONTINUOUS
10
3.12269
20
-2.34572
11
3.12269
21
-2.31028
0
LINE
8
BLACK
6
CONTINUOUS
10
3.12269
20
-2.31028
11
3.14237
21
-2.31028
0
LINE
8
BLACK
6
CONTINUOUS
10
3.14237
20
-2.31028
11
3.14237
21
-2.34572
0
LINE
8
BLACK
6
CONTINUOUS
10
2.73931
20
-2.34472
11
2.71963
21
-2.34472
0
LINE
8
BLACK
6
CONTINUOUS
10
2.71963
20
-2.34472
11
2.71963
21
-2.30928
0
LINE
8
BLACK
6
CONTINUOUS
10
2.71963
20
-2.30928
11
2.73931
21
-2.30928
0
LINE
8
BLACK
6
CONTINUOUS
10
2.73931
20
-2.30928
11
2.73931
21
-2.34472
0
LINE
8
BLACK
6
CONTINUOUS
10
2.79837
20
-2.34472
11
2.77869
21
-2.34472
0
LINE
8
BLACK
6
CONTINUOUS
10
2.77869
20
-2.34472
11
2.77869
21
-2.30928
0
LINE
8
BLACK
6
CONTINUOUS
10
2.77869
20
-2.30928
11
2.79837
21
-2.30928
0
LINE
8
BLACK
6
CONTINUOUS
10
2.79837
20
-2.30928
11
2.79837
21
-2.34472
0
LINE
8
BLACK
6
CONTINUOUS
10
3.48372
20
-2.34437
11
3.44828
21
-2.34437
0
LINE
8
BLACK
6
CONTINUOUS
10
3.44828
20
-2.34437
11
3.44828
21
-2.32469
0
LINE
8
BLACK
6
CONTINUOUS
10
3.44828
20
-2.32469
11
3.48372
21
-2.32469
0
LINE
8
BLACK
6
CONTINUOUS
10
3.48372
20
-2.32469
11
3.48372
21
-2.34437
0
LINE
8
BLACK
6
CONTINUOUS
10
2.31543
20
-2.319
11
2.31543
21
-2.32093
0
LINE
8
BLACK
6
CONTINUOUS
10
2.31543
20
-2.32093
11
2.31468
21
-2.32471
0
LINE
8
BLACK
6
CONTINUOUS
10
2.31468
20
-2.32471
11
2.3132
21
-2.32828
0
LINE
8
BLACK
6
CONTINUOUS
10
2.3132
20
-2.32828
11
2.31106
21
-2.33149
0
LINE
8
BLACK
6
CONTINUOUS
10
2.31106
20
-2.33149
11
2.30833
21
-2.33422
0
LINE
8
BLACK
6
CONTINUOUS
10
2.30833
20
-2.33422
11
2.30512
21
-2.33636
0
LINE
8
BLACK
6
CONTINUOUS
10
2.30512
20
-2.33636
11
2.30156
21
-2.33784
0
LINE
8
BLACK
6
CONTINUOUS
10
2.30156
20
-2.33784
11
2.29777
21
-2.33859
0
LINE
8
BLACK
6
CONTINUOUS
10
2.29777
20
-2.33859
11
2.29584
21
-2.33859
0
LINE
8
BLACK
6
CONTINUOUS
10
2.29584
20
-2.33859
11
2.29584
21
-2.33869
0
LINE
8
BLACK
6
CONTINUOUS
10
2.29584
20
-2.33869
11
2.27616
21
-2.33869
0
LINE
8
BLACK
6
CONTINUOUS
10
2.27616
20
-2.33869
11
2.27616
21
-2.33859
0
LINE
8
BLACK
6
CONTINUOUS
10
2.27616
20
-2.33859
11
2.27423
21
-2.33859
0
LINE
8
BLACK
6
CONTINUOUS
10
2.27423
20
-2.33859
11
2.27044
21
-2.33784
0
LINE
8
BLACK
6
CONTINUOUS
10
2.27044
20
-2.33784
11
2.26688
21
-2.33636
0
LINE
8
BLACK
6
CONTINUOUS
10
2.26688
20
-2.33636
11
2.26367
21
-2.33422
0
LINE
8
BLACK
6
CONTINUOUS
10
2.26367
20
-2.33422
11
2.26094
21
-2.33149
0
LINE
8
BLACK
6
CONTINUOUS
10
2.26094
20
-2.33149
11
2.2588
21
-2.32828
0
LINE
8
BLACK
6
CONTINUOUS
10
2.2588
20
-2.32828
11
2.25732
21
-2.32471
0
LINE
8
BLACK
6
CONTINUOUS
10
2.25732
20
-2.32471
11
2.25657
21
-2.32093
0
LINE
8
BLACK
6
CONTINUOUS
10
2.25657
20
-2.32093
11
2.25657
21
-2.319
0
LINE
8
BLACK
6
CONTINUOUS
10
2.25657
20
-2.319
11
2.25647
21
-2.319
0
LINE
8
BLACK
6
CONTINUOUS
10
2.25647
20
-2.319
11
2.25647
21
-2.26782
0
LINE
8
BLACK
6
CONTINUOUS
10
2.25647
20
-2.26782
11
2.25657
21
-2.26782
0
LINE
8
BLACK
6
CONTINUOUS
10
2.25657
20
-2.26782
11
2.25657
21
-2.26589
0
LINE
8
BLACK
6
CONTINUOUS
10
2.25657
20
-2.26589
11
2.25732
21
-2.2621
0
LINE
8
BLACK
6
CONTINUOUS
10
2.25732
20
-2.2621
11
2.2588
21
-2.25854
0
LINE
8
BLACK
6
CONTINUOUS
10
2.2588
20
-2.25854
11
2.26094
21
-2.25533
0
LINE
8
BLACK
6
CONTINUOUS
10
2.26094
20
-2.25533
11
2.26367
21
-2.2526
0
LINE
8
BLACK
6
CONTINUOUS
10
2.26367
20
-2.2526
11
2.26688
21
-2.25046
0
LINE
8
BLACK
6
CONTINUOUS
10
2.26688
20
-2.25046
11
2.27044
21
-2.24898
0
LINE
8
BLACK
6
CONTINUOUS
10
2.27044
20
-2.24898
11
2.27423
21
-2.24823
0
LINE
8
BLACK
6
CONTINUOUS
10
2.27423
20
-2.24823
11
2.27616
21
-2.24823
0
LINE
8
BLACK
6
CONTINUOUS
10
2.27616
20
-2.24823
11
2.27616
21
-2.24813
0
LINE
8
BLACK
6
CONTINUOUS
10
2.27616
20
-2.24813
11
2.29584
21
-2.24813
0
LINE
8
BLACK
6
CONTINUOUS
10
2.29584
20
-2.24813
11
2.29584
21
-2.24823
0
LINE
8
BLACK
6
CONTINUOUS
10
2.29584
20
-2.24823
11
2.29777
21
-2.24823
0
LINE
8
BLACK
6
CONTINUOUS
10
2.29777
20
-2.24823
11
2.30156
21
-2.24898
0
LINE
8
BLACK
6
CONTINUOUS
10
2.30156
20
-2.24898
11
2.30512
21
-2.25046
0
LINE
8
BLACK
6
CONTINUOUS
10
2.30512
20
-2.25046
11
2.30833
21
-2.2526
0
LINE
8
BLACK
6
CONTINUOUS
10
2.30833
20
-2.2526
11
2.31106
21
-2.25533
0
LINE
8
BLACK
6
CONTINUOUS
10
2.31106
20
-2.25533
11
2.3132
21
-2.25854
0
LINE
8
BLACK
6
CONTINUOUS
10
2.3132
20
-2.25854
11
2.31468
21
-2.2621
0
LINE
8
BLACK
6
CONTINUOUS
10
2.31468
20
-2.2621
11
2.31543
21
-2.26589
0
LINE
8
BLACK
6
CONTINUOUS
10
2.31543
20
-2.26589
11
2.31543
21
-2.26782
0
LINE
8
BLACK
6
CONTINUOUS
10
2.31543
20
-2.26782
11
2.31553
21
-2.26782
0
LINE
8
BLACK
6
CONTINUOUS
10
2.31553
20
-2.26782
11
2.31553
21
-2.319
0
LINE
8
BLACK
6
CONTINUOUS
10
2.31553
20
-2.319
11
2.31543
21
-2.319
0
LINE
8
BLACK
6
CONTINUOUS
10
2.85572
20
-2.29831
11
2.82028
21
-2.29831
0
LINE
8
BLACK
6
CONTINUOUS
10
2.82028
20
-2.29831
11
2.82028
21
-2.27863
0
LINE
8
BLACK
6
CONTINUOUS
10
2.82028
20
-2.27863
11
2.85572
21
-2.27863
0
LINE
8
BLACK
6
CONTINUOUS
10
2.85572
20
-2.27863
11
2.85572
21
-2.29831
0
LINE
8
BLACK
6
CONTINUOUS
10
2.16972
20
-2.29731
11
2.13428
21
-2.29731
0
LINE
8
BLACK
6
CONTINUOUS
10
2.13428
20
-2.29731
11
2.13428
21
-2.27763
0
LINE
8
BLACK
6
CONTINUOUS
10
2.13428
20
-2.27763
11
2.16972
21
-2.27763
0
LINE
8
BLACK
6
CONTINUOUS
10
2.16972
20
-2.27763
11
2.16972
21
-2.29731
0
LINE
8
BLACK
6
CONTINUOUS
10
3.19972
20
-2.29731
11
3.16428
21
-2.29731
0
LINE
8
BLACK
6
CONTINUOUS
10
3.16428
20
-2.29731
11
3.16428
21
-2.27763
0
LINE
8
BLACK
6
CONTINUOUS
10
3.16428
20
-2.27763
11
3.19972
21
-2.27763
0
LINE
8
BLACK
6
CONTINUOUS
10
3.19972
20
-2.27763
11
3.19972
21
-2.29731
0
LINE
8
BLACK
6
CONTINUOUS
10
2.51272
20
-2.29631
11
2.47728
21
-2.29631
0
LINE
8
BLACK
6
CONTINUOUS
10
2.47728
20
-2.29631
11
2.47728
21
-2.27663
0
LINE
8
BLACK
6
CONTINUOUS
10
2.47728
20
-2.27663
11
2.51272
21
-2.27663
0
LINE
8
BLACK
6
CONTINUOUS
10
2.51272
20
-2.27663
11
2.51272
21
-2.29631
0
LINE
8
BLACK
6
CONTINUOUS
10
3.48372
20
-2.28531
11
3.44828
21
-2.28531
0
LINE
8
BLACK
6
CONTINUOUS
10
3.44828
20
-2.28531
11
3.44828
21
-2.26563
0
LINE
8
BLACK
6
CONTINUOUS
10
3.44828
20
-2.26563
11
3.48372
21
-2.26563
0
LINE
8
BLACK
6
CONTINUOUS
10
3.48372
20
-2.26563
11
3.48372
21
-2.28531
0
LINE
8
BLACK
6
CONTINUOUS
10
2.77159
20
-2.12615
11
2.73615
21
-2.12615
0
LINE
8
BLACK
6
CONTINUOUS
10
2.73615
20
-2.12615
11
2.73615
21
-2.09465
0
LINE
8
BLACK
6
CONTINUOUS
10
2.73615
20
-2.09465
11
2.77159
21
-2.09465
0
LINE
8
BLACK
6
CONTINUOUS
10
2.77159
20
-2.09465
11
2.77159
21
-2.12615
0
LINE
8
BLACK
6
CONTINUOUS
10
3.11509
20
-2.12615
11
3.07965
21
-2.12615
0
LINE
8
BLACK
6
CONTINUOUS
10
3.07965
20
-2.12615
11
3.07965
21
-2.09465
0
LINE
8
BLACK
6
CONTINUOUS
10
3.07965
20
-2.09465
11
3.11509
21
-2.09465
0
LINE
8
BLACK
6
CONTINUOUS
10
3.11509
20
-2.09465
11
3.11509
21
-2.12615
0
LINE
8
BLACK
6
CONTINUOUS
10
2.42909
20
-2.12615
11
2.39365
21
-2.12615
0
LINE
8
BLACK
6
CONTINUOUS
10
2.39365
20
-2.12615
11
2.39365
21
-2.09465
0
LINE
8
BLACK
6
CONTINUOUS
10
2.39365
20
-2.09465
11
2.42909
21
-2.09465
0
LINE
8
BLACK
6
CONTINUOUS
10
2.42909
20
-2.09465
11
2.42909
21
-2.12615
0
LINE
8
BLACK
6
CONTINUOUS
10
3.45859
20
-2.12515
11
3.42315
21
-2.12515
0
LINE
8
BLACK
6
CONTINUOUS
10
3.42315
20
-2.12515
11
3.42315
21
-2.09365
0
LINE
8
BLACK
6
CONTINUOUS
10
3.42315
20
-2.09365
11
3.45859
21
-2.09365
0
LINE
8
BLACK
6
CONTINUOUS
10
3.45859
20
-2.09365
11
3.45859
21
-2.12515
0
LINE
8
BLACK
6
CONTINUOUS
10
2.14966
20
-2.03369
11
2.15106
21
-2.03412
0
LINE
8
BLACK
6
CONTINUOUS
10
2.15106
20
-2.03412
11
2.15235
21
-2.03481
0
LINE
8
BLACK
6
CONTINUOUS
10
2.15235
20
-2.03481
11
2.15349
21
-2.03574
0
LINE
8
BLACK
6
CONTINUOUS
10
2.15349
20
-2.03574
11
2.15442
21
-2.03688
0
LINE
8
BLACK
6
CONTINUOUS
10
2.15442
20
-2.03688
11
2.15511
21
-2.03817
0
LINE
8
BLACK
6
CONTINUOUS
10
2.15511
20
-2.03817
11
2.15553
21
-2.03957
0
LINE
8
BLACK
6
CONTINUOUS
10
2.15553
20
-2.03957
11
2.15568
21
-2.04103
0
LINE
8
BLACK
6
CONTINUOUS
10
2.15568
20
-2.04103
11
2.15568
21
-2.09497
0
LINE
8
BLACK
6
CONTINUOUS
10
2.15568
20
-2.09497
11
2.15553
21
-2.09643
0
LINE
8
BLACK
6
CONTINUOUS
10
2.15553
20
-2.09643
11
2.15511
21
-2.09783
0
LINE
8
BLACK
6
CONTINUOUS
10
2.15511
20
-2.09783
11
2.15442
21
-2.09912
0
LINE
8
BLACK
6
CONTINUOUS
10
2.15442
20
-2.09912
11
2.15349
21
-2.10026
0
LINE
8
BLACK
6
CONTINUOUS
10
2.15349
20
-2.10026
11
2.15235
21
-2.10119
0
LINE
8
BLACK
6
CONTINUOUS
10
2.15235
20
-2.10119
11
2.15106
21
-2.10188
0
LINE
8
BLACK
6
CONTINUOUS
10
2.15106
20
-2.10188
11
2.14966
21
-2.10231
0
LINE
8
BLACK
6
CONTINUOUS
10
2.14966
20
-2.10231
11
2.1482
21
-2.10245
0
LINE
8
BLACK
6
CONTINUOUS
10
2.1482
20
-2.10245
11
2.12576
21
-2.10245
0
LINE
8
BLACK
6
CONTINUOUS
10
2.12576
20
-2.10245
11
2.1243
21
-2.10231
0
LINE
8
BLACK
6
CONTINUOUS
10
2.1243
20
-2.10231
11
2.12289
21
-2.10188
0
LINE
8
BLACK
6
CONTINUOUS
10
2.12289
20
-2.10188
11
2.1216
21
-2.10119
0
LINE
8
BLACK
6
CONTINUOUS
10
2.1216
20
-2.10119
11
2.12047
21
-2.10026
0
LINE
8
BLACK
6
CONTINUOUS
10
2.12047
20
-2.10026
11
2.11954
21
-2.09912
0
LINE
8
BLACK
6
CONTINUOUS
10
2.11954
20
-2.09912
11
2.11884
21
-2.09783
0
LINE
8
BLACK
6
CONTINUOUS
10
2.11884
20
-2.09783
11
2.11842
21
-2.09643
0
LINE
8
BLACK
6
CONTINUOUS
10
2.11842
20
-2.09643
11
2.11828
21
-2.09497
0
LINE
8
BLACK
6
CONTINUOUS
10
2.11828
20
-2.09497
11
2.11828
21
-2.04103
0
LINE
8
BLACK
6
CONTINUOUS
10
2.11828
20
-2.04103
11
2.11842
21
-2.03957
0
LINE
8
BLACK
6
CONTINUOUS
10
2.11842
20
-2.03957
11
2.11884
21
-2.03817
0
LINE
8
BLACK
6
CONTINUOUS
10
2.11884
20
-2.03817
11
2.11954
21
-2.03688
0
LINE
8
BLACK
6
CONTINUOUS
10
2.11954
20
-2.03688
11
2.12047
21
-2.03574
0
LINE
8
BLACK
6
CONTINUOUS
10
2.12047
20
-2.03574
11
2.1216
21
-2.03481
0
LINE
8
BLACK
6
CONTINUOUS
10
2.1216
20
-2.03481
11
2.12289
21
-2.03412
0
LINE
8
BLACK
6
CONTINUOUS
10
2.12289
20
-2.03412
11
2.1243
21
-2.03369
0
LINE
8
BLACK
6
CONTINUOUS
10
2.1243
20
-2.03369
11
2.12576
21
-2.03355
0
LINE
8
BLACK
6
CONTINUOUS
10
2.12576
20
-2.03355
11
2.1482
21
-2.03355
0
LINE
8
BLACK
6
CONTINUOUS
10
2.1482
20
-2.03355
11
2.14966
21
-2.03369
0
LINE
8
BLACK
6
CONTINUOUS
10
2.2717
20
-2.03369
11
2.27311
21
-2.03412
0
LINE
8
BLACK
6
CONTINUOUS
10
2.27311
20
-2.03412
11
2.2744
21
-2.03481
0
LINE
8
BLACK
6
CONTINUOUS
10
2.2744
20
-2.03481
11
2.27553
21
-2.03574
0
LINE
8
BLACK
6
CONTINUOUS
10
2.27553
20
-2.03574
11
2.27646
21
-2.03688
0
LINE
8
BLACK
6
CONTINUOUS
10
2.27646
20
-2.03688
11
2.27716
21
-2.03817
0
LINE
8
BLACK
6
CONTINUOUS
10
2.27716
20
-2.03817
11
2.27758
21
-2.03957
0
LINE
8
BLACK
6
CONTINUOUS
10
2.27758
20
-2.03957
11
2.27772
21
-2.04103
0
LINE
8
BLACK
6
CONTINUOUS
10
2.27772
20
-2.04103
11
2.27772
21
-2.09497
0
LINE
8
BLACK
6
CONTINUOUS
10
2.27772
20
-2.09497
11
2.27758
21
-2.09643
0
LINE
8
BLACK
6
CONTINUOUS
10
2.27758
20
-2.09643
11
2.27716
21
-2.09783
0
LINE
8
BLACK
6
CONTINUOUS
10
2.27716
20
-2.09783
11
2.27646
21
-2.09912
0
LINE
8
BLACK
6
CONTINUOUS
10
2.27646
20
-2.09912
11
2.27553
21
-2.10026
0
LINE
8
BLACK
6
CONTINUOUS
10
2.27553
20
-2.10026
11
2.2744
21
-2.10119
0
LINE
8
BLACK
6
CONTINUOUS
10
2.2744
20
-2.10119
11
2.27311
21
-2.10188
0
LINE
8
BLACK
6
CONTINUOUS
10
2.27311
20
-2.10188
11
2.2717
21
-2.10231
0
LINE
8
BLACK
6
CONTINUOUS
10
2.2717
20
-2.10231
11
2.27024
21
-2.10245
0
LINE
8
BLACK
6
CONTINUOUS
10
2.27024
20
-2.10245
11
2.2478
21
-2.10245
0
LINE
8
BLACK
6
CONTINUOUS
10
2.2478
20
-2.10245
11
2.24634
21
-2.10231
0
LINE
8
BLACK
6
CONTINUOUS
10
2.24634
20
-2.10231
11
2.24494
21
-2.10188
0
LINE
8
BLACK
6
CONTINUOUS
10
2.24494
20
-2.10188
11
2.24365
21
-2.10119
0
LINE
8
BLACK
6
CONTINUOUS
10
2.24365
20
-2.10119
11
2.24251
21
-2.10026
0
LINE
8
BLACK
6
CONTINUOUS
10
2.24251
20
-2.10026
11
2.24158
21
-2.09912
0
LINE
8
BLACK
6
CONTINUOUS
10
2.24158
20
-2.09912
11
2.24089
21
-2.09783
0
LINE
8
BLACK
6
CONTINUOUS
10
2.24089
20
-2.09783
11
2.24047
21
-2.09643
0
LINE
8
BLACK
6
CONTINUOUS
10
2.24047
20
-2.09643
11
2.24032
21
-2.09497
0
LINE
8
BLACK
6
CONTINUOUS
10
2.24032
20
-2.09497
11
2.24032
21
-2.04103
0
LINE
8
BLACK
6
CONTINUOUS
10
2.24032
20
-2.04103
11
2.24047
21
-2.03957
0
LINE
8
BLACK
6
CONTINUOUS
10
2.24047
20
-2.03957
11
2.24089
21
-2.03817
0
LINE
8
BLACK
6
CONTINUOUS
10
2.24089
20
-2.03817
11
2.24158
21
-2.03688
0
LINE
8
BLACK
6
CONTINUOUS
10
2.24158
20
-2.03688
11
2.24251
21
-2.03574
0
LINE
8
BLACK
6
CONTINUOUS
10
2.24251
20
-2.03574
11
2.24365
21
-2.03481
0
LINE
8
BLACK
6
CONTINUOUS
10
2.24365
20
-2.03481
11
2.24494
21
-2.03412
0
LINE
8
BLACK
6
CONTINUOUS
10
2.24494
20
-2.03412
11
2.24634
21
-2.03369
0
LINE
8
BLACK
6
CONTINUOUS
10
2.24634
20
-2.03369
11
2.2478
21
-2.03355
0
LINE
8
BLACK
6
CONTINUOUS
10
2.2478
20
-2.03355
11
2.27024
21
-2.03355
0
LINE
8
BLACK
6
CONTINUOUS
10
2.27024
20
-2.03355
11
2.2717
21
-2.03369
0
LINE
8
BLACK
6
CONTINUOUS
10
3.17916
20
-2.03169
11
3.18056
21
-2.03212
0
LINE
8
BLACK
6
CONTINUOUS
10
3.18056
20
-2.03212
11
3.18185
21
-2.03281
0
LINE
8
BLACK
6
CONTINUOUS
10
3.18185
20
-2.03281
11
3.18299
21
-2.03374
0
LINE
8
BLACK
6
CONTINUOUS
10
3.18299
20
-2.03374
11
3.18392
21
-2.03488
0
LINE
8
BLACK
6
CONTINUOUS
10
3.18392
20
-2.03488
11
3.18461
21
-2.03617
0
LINE
8
BLACK
6
CONTINUOUS
10
3.18461
20
-2.03617
11
3.18503
21
-2.03757
0
LINE
8
BLACK
6
CONTINUOUS
10
3.18503
20
-2.03757
11
3.18518
21
-2.03903
0
LINE
8
BLACK
6
CONTINUOUS
10
3.18518
20
-2.03903
11
3.18518
21
-2.09297
0
LINE
8
BLACK
6
CONTINUOUS
10
3.18518
20
-2.09297
11
3.18503
21
-2.09443
0
LINE
8
BLACK
6
CONTINUOUS
10
3.18503
20
-2.09443
11
3.18461
21
-2.09583
0
LINE
8
BLACK
6
CONTINUOUS
10
3.18461
20
-2.09583
11
3.18392
21
-2.09712
0
LINE
8
BLACK
6
CONTINUOUS
10
3.18392
20
-2.09712
11
3.18299
21
-2.09826
0
LINE
8
BLACK
6
CONTINUOUS
10
3.18299
20
-2.09826
11
3.18185
21
-2.09919
0
LINE
8
BLACK
6
CONTINUOUS
10
3.18185
20
-2.09919
11
3.18056
21
-2.09988
0
LINE
8
BLACK
6
CONTINUOUS
10
3.18056
20
-2.09988
11
3.17916
21
-2.10031
0
LINE
8
BLACK
6
CONTINUOUS
10
3.17916
20
-2.10031
11
3.1777
21
-2.10045
0
LINE
8
BLACK
6
CONTINUOUS
10
3.1777
20
-2.10045
11
3.15526
21
-2.10045
0
LINE
8
BLACK
6
CONTINUOUS
10
3.15526
20
-2.10045
11
3.1538
21
-2.10031
0
LINE
8
BLACK
6
CONTINUOUS
10
3.1538
20
-2.10031
11
3.15239
21
-2.09988
0
LINE
8
BLACK
6
CONTINUOUS
10
3.15239
20
-2.09988
11
3.1511
21
-2.09919
0
LINE
8
BLACK
6
CONTINUOUS
10
3.1511
20
-2.09919
11
3.14997
21
-2.09826
0
LINE
8
BLACK
6
CONTINUOUS
10
3.14997
20
-2.09826
11
3.14904
21
-2.09712
0
LINE
8
BLACK
6
CONTINUOUS
10
3.14904
20
-2.09712
11
3.14834
21
-2.09583
0
LINE
8
BLACK
6
CONTINUOUS
10
3.14834
20
-2.09583
11
3.14792
21
-2.09443
0
LINE
8
BLACK
6
CONTINUOUS
10
3.14792
20
-2.09443
11
3.14778
21
-2.09297
0
LINE
8
BLACK
6
CONTINUOUS
10
3.14778
20
-2.09297
11
3.14778
21
-2.03903
0
LINE
8
BLACK
6
CONTINUOUS
10
3.14778
20
-2.03903
11
3.14792
21
-2.03757
0
LINE
8
BLACK
6
CONTINUOUS
10
3.14792
20
-2.03757
11
3.14834
21
-2.03617
0
LINE
8
BLACK
6
CONTINUOUS
10
3.14834
20
-2.03617
11
3.14904
21
-2.03488
0
LINE
8
BLACK
6
CONTINUOUS
10
3.14904
20
-2.03488
11
3.14997
21
-2.03374
0
LINE
8
BLACK
6
CONTINUOUS
10
3.14997
20
-2.03374
11
3.1511
21
-2.03281
0
LINE
8
BLACK
6
CONTINUOUS
10
3.1511
20
-2.03281
11
3.15239
21
-2.03212
0
LINE
8
BLACK
6
CONTINUOUS
10
3.15239
20
-2.03212
11
3.1538
21
-2.03169
0
LINE
8
BLACK
6
CONTINUOUS
10
3.1538
20
-2.03169
11
3.15526
21
-2.03155
0
LINE
8
BLACK
6
CONTINUOUS
10
3.15526
20
-2.03155
11
3.1777
21
-2.03155
0
LINE
8
BLACK
6
CONTINUOUS
10
3.1777
20
-2.03155
11
3.17916
21
-2.03169
0
LINE
8
BLACK
6
CONTINUOUS
10
3.3012
20
-2.03169
11
3.30261
21
-2.03212
0
LINE
8
BLACK
6
CONTINUOUS
10
3.30261
20
-2.03212
11
3.3039
21
-2.03281
0
LINE
8
BLACK
6
CONTINUOUS
10
3.3039
20
-2.03281
11
3.30503
21
-2.03374
0
LINE
8
BLACK
6
CONTINUOUS
10
3.30503
20
-2.03374
11
3.30596
21
-2.03488
0
LINE
8
BLACK
6
CONTINUOUS
10
3.30596
20
-2.03488
11
3.30666
21
-2.03617
0
LINE
8
BLACK
6
CONTINUOUS
10
3.30666
20
-2.03617
11
3.30708
21
-2.03757
0
LINE
8
BLACK
6
CONTINUOUS
10
3.30708
20
-2.03757
11
3.30722
21
-2.03903
0
LINE
8
BLACK
6
CONTINUOUS
10
3.30722
20
-2.03903
11
3.30722
21
-2.09297
0
LINE
8
BLACK
6
CONTINUOUS
10
3.30722
20
-2.09297
11
3.30708
21
-2.09443
0
LINE
8
BLACK
6
CONTINUOUS
10
3.30708
20
-2.09443
11
3.30666
21
-2.09583
0
LINE
8
BLACK
6
CONTINUOUS
10
3.30666
20
-2.09583
11
3.30596
21
-2.09712
0
LINE
8
BLACK
6
CONTINUOUS
10
3.30596
20
-2.09712
11
3.30503
21
-2.09826
0
LINE
8
BLACK
6
CONTINUOUS
10
3.30503
20
-2.09826
11
3.3039
21
-2.09919
0
LINE
8
BLACK
6
CONTINUOUS
10
3.3039
20
-2.09919
11
3.30261
21
-2.09988
0
LINE
8
BLACK
6
CONTINUOUS
10
3.30261
20
-2.09988
11
3.3012
21
-2.10031
0
LINE
8
BLACK
6
CONTINUOUS
10
3.3012
20
-2.10031
11
3.29974
21
-2.10045
0
LINE
8
BLACK
6
CONTINUOUS
10
3.29974
20
-2.10045
11
3.2773
21
-2.10045
0
LINE
8
BLACK
6
CONTINUOUS
10
3.2773
20
-2.10045
11
3.27584
21
-2.10031
0
LINE
8
BLACK
6
CONTINUOUS
10
3.27584
20
-2.10031
11
3.27444
21
-2.09988
0
LINE
8
BLACK
6
CONTINUOUS
10
3.27444
20
-2.09988
11
3.27315
21
-2.09919
0
LINE
8
BLACK
6
CONTINUOUS
10
3.27315
20
-2.09919
11
3.27201
21
-2.09826
0
LINE
8
BLACK
6
CONTINUOUS
10
3.27201
20
-2.09826
11
3.27108
21
-2.09712
0
LINE
8
BLACK
6
CONTINUOUS
10
3.27108
20
-2.09712
11
3.27039
21
-2.09583
0
LINE
8
BLACK
6
CONTINUOUS
10
3.27039
20
-2.09583
11
3.26997
21
-2.09443
0
LINE
8
BLACK
6
CONTINUOUS
10
3.26997
20
-2.09443
11
3.26982
21
-2.09297
0
LINE
8
BLACK
6
CONTINUOUS
10
3.26982
20
-2.09297
11
3.26982
21
-2.03903
0
LINE
8
BLACK
6
CONTINUOUS
10
3.26982
20
-2.03903
11
3.26997
21
-2.03757
0
LINE
8
BLACK
6
CONTINUOUS
10
3.26997
20
-2.03757
11
3.27039
21
-2.03617
0
LINE
8
BLACK
6
CONTINUOUS
10
3.27039
20
-2.03617
11
3.27108
21
-2.03488
0
LINE
8
BLACK
6
CONTINUOUS
10
3.27108
20
-2.03488
11
3.27201
21
-2.03374
0
LINE
8
BLACK
6
CONTINUOUS
10
3.27201
20
-2.03374
11
3.27315
21
-2.03281
0
LINE
8
BLACK
6
CONTINUOUS
10
3.27315
20
-2.03281
11
3.27444
21
-2.03212
0
LINE
8
BLACK
6
CONTINUOUS
10
3.27444
20
-2.03212
11
3.27584
21
-2.03169
0
LINE
8
BLACK
6
CONTINUOUS
10
3.27584
20
-2.03169
11
3.2773
21
-2.03155
0
LINE
8
BLACK
6
CONTINUOUS
10
3.2773
20
-2.03155
11
3.29974
21
-2.03155
0
LINE
8
BLACK
6
CONTINUOUS
10
3.29974
20
-2.03155
11
3.3012
21
-2.03169
0
LINE
8
BLACK
6
CONTINUOUS
10
2.9577
20
-2.03169
11
2.95911
21
-2.03212
0
LINE
8
BLACK
6
CONTINUOUS
10
2.95911
20
-2.03212
11
2.9604
21
-2.03281
0
LINE
8
BLACK
6
CONTINUOUS
10
2.9604
20
-2.03281
11
2.96153
21
-2.03374
0
LINE
8
BLACK
6
CONTINUOUS
10
2.96153
20
-2.03374
11
2.96246
21
-2.03488
0
LINE
8
BLACK
6
CONTINUOUS
10
2.96246
20
-2.03488
11
2.96315
21
-2.03617
0
LINE
8
BLACK
6
CONTINUOUS
10
2.96315
20
-2.03617
11
2.96358
21
-2.03757
0
LINE
8
BLACK
6
CONTINUOUS
10
2.96358
20
-2.03757
11
2.96372
21
-2.03903
0
LINE
8
BLACK
6
CONTINUOUS
10
2.96372
20
-2.03903
11
2.96372
21
-2.09297
0
LINE
8
BLACK
6
CONTINUOUS
10
2.96372
20
-2.09297
11
2.96358
21
-2.09443
0
LINE
8
BLACK
6
CONTINUOUS
10
2.96358
20
-2.09443
11
2.96315
21
-2.09583
0
LINE
8
BLACK
6
CONTINUOUS
10
2.96315
20
-2.09583
11
2.96246
21
-2.09712
0
LINE
8
BLACK
6
CONTINUOUS
10
2.96246
20
-2.09712
11
2.96153
21
-2.09826
0
LINE
8
BLACK
6
CONTINUOUS
10
2.96153
20
-2.09826
11
2.9604
21
-2.09919
0
LINE
8
BLACK
6
CONTINUOUS
10
2.9604
20
-2.09919
11
2.95911
21
-2.09988
0
LINE
8
BLACK
6
CONTINUOUS
10
2.95911
20
-2.09988
11
2.9577
21
-2.10031
0
LINE
8
BLACK
6
CONTINUOUS
10
2.9577
20
-2.10031
11
2.95624
21
-2.10045
0
LINE
8
BLACK
6
CONTINUOUS
10
2.95624
20
-2.10045
11
2.9338
21
-2.10045
0
LINE
8
BLACK
6
CONTINUOUS
10
2.9338
20
-2.10045
11
2.93234
21
-2.10031
0
LINE
8
BLACK
6
CONTINUOUS
10
2.93234
20
-2.10031
11
2.93094
21
-2.09988
0
LINE
8
BLACK
6
CONTINUOUS
10
2.93094
20
-2.09988
11
2.92965
21
-2.09919
0
LINE
8
BLACK
6
CONTINUOUS
10
2.92965
20
-2.09919
11
2.92851
21
-2.09826
0
LINE
8
BLACK
6
CONTINUOUS
10
2.92851
20
-2.09826
11
2.92758
21
-2.09712
0
LINE
8
BLACK
6
CONTINUOUS
10
2.92758
20
-2.09712
11
2.92689
21
-2.09583
0
LINE
8
BLACK
6
CONTINUOUS
10
2.92689
20
-2.09583
11
2.92647
21
-2.09443
0
LINE
8
BLACK
6
CONTINUOUS
10
2.92647
20
-2.09443
11
2.92632
21
-2.09297
0
LINE
8
BLACK
6
CONTINUOUS
10
2.92632
20
-2.09297
11
2.92632
21
-2.03903
0
LINE
8
BLACK
6
CONTINUOUS
10
2.92632
20
-2.03903
11
2.92647
21
-2.03757
0
LINE
8
BLACK
6
CONTINUOUS
10
2.92647
20
-2.03757
11
2.92689
21
-2.03617
0
LINE
8
BLACK
6
CONTINUOUS
10
2.92689
20
-2.03617
11
2.92758
21
-2.03488
0
LINE
8
BLACK
6
CONTINUOUS
10
2.92758
20
-2.03488
11
2.92851
21
-2.03374
0
LINE
8
BLACK
6
CONTINUOUS
10
2.92851
20
-2.03374
11
2.92965
21
-2.03281
0
LINE
8
BLACK
6
CONTINUOUS
10
2.92965
20
-2.03281
11
2.93094
21
-2.03212
0
LINE
8
BLACK
6
CONTINUOUS
10
2.93094
20
-2.03212
11
2.93234
21
-2.03169
0
LINE
8
BLACK
6
CONTINUOUS
10
2.93234
20
-2.03169
11
2.9338
21
-2.03155
0
LINE
8
BLACK
6
CONTINUOUS
10
2.9338
20
-2.03155
11
2.95624
21
-2.03155
0
LINE
8
BLACK
6
CONTINUOUS
10
2.95624
20
-2.03155
11
2.9577
21
-2.03169
0
LINE
8
BLACK
6
CONTINUOUS
10
2.49168
20
-2.03169
11
2.49308
21
-2.03212
0
LINE
8
BLACK
6
CONTINUOUS
10
2.49308
20
-2.03212
11
2.49438
21
-2.03281
0
LINE
8
BLACK
6
CONTINUOUS
10
2.49438
20
-2.03281
11
2.49551
21
-2.03374
0
LINE
8
BLACK
6
CONTINUOUS
10
2.49551
20
-2.03374
11
2.49644
21
-2.03488
0
LINE
8
BLACK
6
CONTINUOUS
10
2.49644
20
-2.03488
11
2.49713
21
-2.03617
0
LINE
8
BLACK
6
CONTINUOUS
10
2.49713
20
-2.03617
11
2.49756
21
-2.03757
0
LINE
8
BLACK
6
CONTINUOUS
10
2.49756
20
-2.03757
11
2.4977
21
-2.03903
0
LINE
8
BLACK
6
CONTINUOUS
10
2.4977
20
-2.03903
11
2.4977
21
-2.09297
0
LINE
8
BLACK
6
CONTINUOUS
10
2.4977
20
-2.09297
11
2.49756
21
-2.09443
0
LINE
8
BLACK
6
CONTINUOUS
10
2.49756
20
-2.09443
11
2.49713
21
-2.09583
0
LINE
8
BLACK
6
CONTINUOUS
10
2.49713
20
-2.09583
11
2.49644
21
-2.09712
0
LINE
8
BLACK
6
CONTINUOUS
10
2.49644
20
-2.09712
11
2.49551
21
-2.09826
0
LINE
8
BLACK
6
CONTINUOUS
10
2.49551
20
-2.09826
11
2.49438
21
-2.09919
0
LINE
8
BLACK
6
CONTINUOUS
10
2.49438
20
-2.09919
11
2.49308
21
-2.09988
0
LINE
8
BLACK
6
CONTINUOUS
10
2.49308
20
-2.09988
11
2.49168
21
-2.10031
0
LINE
8
BLACK
6
CONTINUOUS
10
2.49168
20
-2.10031
11
2.49022
21
-2.10045
0
LINE
8
BLACK
6
CONTINUOUS
10
2.49022
20
-2.10045
11
2.46778
21
-2.10045
0
LINE
8
BLACK
6
CONTINUOUS
10
2.46778
20
-2.10045
11
2.46632
21
-2.10031
0
LINE
8
BLACK
6
CONTINUOUS
10
2.46632
20
-2.10031
11
2.46492
21
-2.09988
0
LINE
8
BLACK
6
CONTINUOUS
10
2.46492
20
-2.09988
11
2.46362
21
-2.09919
0
LINE
8
BLACK
6
CONTINUOUS
10
2.46362
20
-2.09919
11
2.46249
21
-2.09826
0
LINE
8
BLACK
6
CONTINUOUS
10
2.46249
20
-2.09826
11
2.46156
21
-2.09712
0
LINE
8
BLACK
6
CONTINUOUS
10
2.46156
20
-2.09712
11
2.46087
21
-2.09583
0
LINE
8
BLACK
6
CONTINUOUS
10
2.46087
20
-2.09583
11
2.46044
21
-2.09443
0
LINE
8
BLACK
6
CONTINUOUS
10
2.46044
20
-2.09443
11
2.4603
21
-2.09297
0
LINE
8
BLACK
6
CONTINUOUS
10
2.4603
20
-2.09297
11
2.4603
21
-2.03903
0
LINE
8
BLACK
6
CONTINUOUS
10
2.4603
20
-2.03903
11
2.46044
21
-2.03757
0
LINE
8
BLACK
6
CONTINUOUS
10
2.46044
20
-2.03757
11
2.46087
21
-2.03617
0
LINE
8
BLACK
6
CONTINUOUS
10
2.46087
20
-2.03617
11
2.46156
21
-2.03488
0
LINE
8
BLACK
6
CONTINUOUS
10
2.46156
20
-2.03488
11
2.46249
21
-2.03374
0
LINE
8
BLACK
6
CONTINUOUS
10
2.46249
20
-2.03374
11
2.46362
21
-2.03281
0
LINE
8
BLACK
6
CONTINUOUS
10
2.46362
20
-2.03281
11
2.46492
21
-2.03212
0
LINE
8
BLACK
6
CONTINUOUS
10
2.46492
20
-2.03212
11
2.46632
21
-2.03169
0
LINE
8
BLACK
6
CONTINUOUS
10
2.46632
20
-2.03169
11
2.46778
21
-2.03155
0
LINE
8
BLACK
6
CONTINUOUS
10
2.46778
20
-2.03155
11
2.49022
21
-2.03155
0
LINE
8
BLACK
6
CONTINUOUS
10
2.49022
20
-2.03155
11
2.49168
21
-2.03169
0
LINE
8
BLACK
6
CONTINUOUS
10
2.61373
20
-2.03169
11
2.61513
21
-2.03212
0
LINE
8
BLACK
6
CONTINUOUS
10
2.61513
20
-2.03212
11
2.61642
21
-2.03281
0
LINE
8
BLACK
6
CONTINUOUS
10
2.61642
20
-2.03281
11
2.61756
21
-2.03374
0
LINE
8
BLACK
6
CONTINUOUS
10
2.61756
20
-2.03374
11
2.61849
21
-2.03488
0
LINE
8
BLACK
6
CONTINUOUS
10
2.61849
20
-2.03488
11
2.61918
21
-2.03617
0
LINE
8
BLACK
6
CONTINUOUS
10
2.61918
20
-2.03617
11
2.6196
21
-2.03757
0
LINE
8
BLACK
6
CONTINUOUS
10
2.6196
20
-2.03757
11
2.61975
21
-2.03903
0
LINE
8
BLACK
6
CONTINUOUS
10
2.61975
20
-2.03903
11
2.61975
21
-2.09297
0
LINE
8
BLACK
6
CONTINUOUS
10
2.61975
20
-2.09297
11
2.6196
21
-2.09443
0
LINE
8
BLACK
6
CONTINUOUS
10
2.6196
20
-2.09443
11
2.61918
21
-2.09583
0
LINE
8
BLACK
6
CONTINUOUS
10
2.61918
20
-2.09583
11
2.61849
21
-2.09712
0
LINE
8
BLACK
6
CONTINUOUS
10
2.61849
20
-2.09712
11
2.61756
21
-2.09826
0
LINE
8
BLACK
6
CONTINUOUS
10
2.61756
20
-2.09826
11
2.61642
21
-2.09919
0
LINE
8
BLACK
6
CONTINUOUS
10
2.61642
20
-2.09919
11
2.61513
21
-2.09988
0
LINE
8
BLACK
6
CONTINUOUS
10
2.61513
20
-2.09988
11
2.61373
21
-2.10031
0
LINE
8
BLACK
6
CONTINUOUS
10
2.61373
20
-2.10031
11
2.61227
21
-2.10045
0
LINE
8
BLACK
6
CONTINUOUS
10
2.61227
20
-2.10045
11
2.58983
21
-2.10045
0
LINE
8
BLACK
6
CONTINUOUS
10
2.58983
20
-2.10045
11
2.58837
21
-2.10031
0
LINE
8
BLACK
6
CONTINUOUS
10
2.58837
20
-2.10031
11
2.58696
21
-2.09988
0
LINE
8
BLACK
6
CONTINUOUS
10
2.58696
20
-2.09988
11
2.58567
21
-2.09919
0
LINE
8
BLACK
6
CONTINUOUS
10
2.58567
20
-2.09919
11
2.58454
21
-2.09826
0
LINE
8
BLACK
6
CONTINUOUS
10
2.58454
20
-2.09826
11
2.58361
21
-2.09712
0
LINE
8
BLACK
6
CONTINUOUS
10
2.58361
20
-2.09712
11
2.58292
21
-2.09583
0
LINE
8
BLACK
6
CONTINUOUS
10
2.58292
20
-2.09583
11
2.58249
21
-2.09443
0
LINE
8
BLACK
6
CONTINUOUS
10
2.58249
20
-2.09443
11
2.58235
21
-2.09297
0
LINE
8
BLACK
6
CONTINUOUS
10
2.58235
20
-2.09297
11
2.58235
21
-2.03903
0
LINE
8
BLACK
6
CONTINUOUS
10
2.58235
20
-2.03903
11
2.58249
21
-2.03757
0
LINE
8
BLACK
6
CONTINUOUS
10
2.58249
20
-2.03757
11
2.58292
21
-2.03617
0
LINE
8
BLACK
6
CONTINUOUS
10
2.58292
20
-2.03617
11
2.58361
21
-2.03488
0
LINE
8
BLACK
6
CONTINUOUS
10
2.58361
20
-2.03488
11
2.58454
21
-2.03374
0
LINE
8
BLACK
6
CONTINUOUS
10
2.58454
20
-2.03374
11
2.58567
21
-2.03281
0
LINE
8
BLACK
6
CONTINUOUS
10
2.58567
20
-2.03281
11
2.58696
21
-2.03212
0
LINE
8
BLACK
6
CONTINUOUS
10
2.58696
20
-2.03212
11
2.58837
21
-2.03169
0
LINE
8
BLACK
6
CONTINUOUS
10
2.58837
20
-2.03169
11
2.58983
21
-2.03155
0
LINE
8
BLACK
6
CONTINUOUS
10
2.58983
20
-2.03155
11
2.61227
21
-2.03155
0
LINE
8
BLACK
6
CONTINUOUS
10
2.61227
20
-2.03155
11
2.61373
21
-2.03169
0
LINE
8
BLACK
6
CONTINUOUS
10
2.83566
20
-2.03169
11
2.83706
21
-2.03212
0
LINE
8
BLACK
6
CONTINUOUS
10
2.83706
20
-2.03212
11
2.83835
21
-2.03281
0
LINE
8
BLACK
6
CONTINUOUS
10
2.83835
20
-2.03281
11
2.83949
21
-2.03374
0
LINE
8
BLACK
6
CONTINUOUS
10
2.83949
20
-2.03374
11
2.84042
21
-2.03488
0
LINE
8
BLACK
6
CONTINUOUS
10
2.84042
20
-2.03488
11
2.84111
21
-2.03617
0
LINE
8
BLACK
6
CONTINUOUS
10
2.84111
20
-2.03617
11
2.84153
21
-2.03757
0
LINE
8
BLACK
6
CONTINUOUS
10
2.84153
20
-2.03757
11
2.84168
21
-2.03903
0
LINE
8
BLACK
6
CONTINUOUS
10
2.84168
20
-2.03903
11
2.84168
21
-2.09297
0
LINE
8
BLACK
6
CONTINUOUS
10
2.84168
20
-2.09297
11
2.84153
21
-2.09443
0
LINE
8
BLACK
6
CONTINUOUS
10
2.84153
20
-2.09443
11
2.84111
21
-2.09583
0
LINE
8
BLACK
6
CONTINUOUS
10
2.84111
20
-2.09583
11
2.84042
21
-2.09712
0
LINE
8
BLACK
6
CONTINUOUS
10
2.84042
20
-2.09712
11
2.83949
21
-2.09826
0
LINE
8
BLACK
6
CONTINUOUS
10
2.83949
20
-2.09826
11
2.83835
21
-2.09919
0
LINE
8
BLACK
6
CONTINUOUS
10
2.83835
20
-2.09919
11
2.83706
21
-2.09988
0
LINE
8
BLACK
6
CONTINUOUS
10
2.83706
20
-2.09988
11
2.83566
21
-2.10031
0
LINE
8
BLACK
6
CONTINUOUS
10
2.83566
20
-2.10031
11
2.8342
21
-2.10045
0
LINE
8
BLACK
6
CONTINUOUS
10
2.8342
20
-2.10045
11
2.81176
21
-2.10045
0
LINE
8
BLACK
6
CONTINUOUS
10
2.81176
20
-2.10045
11
2.8103
21
-2.10031
0
LINE
8
BLACK
6
CONTINUOUS
10
2.8103
20
-2.10031
11
2.80889
21
-2.09988
0
LINE
8
BLACK
6
CONTINUOUS
10
2.80889
20
-2.09988
11
2.8076
21
-2.09919
0
LINE
8
BLACK
6
CONTINUOUS
10
2.8076
20
-2.09919
11
2.80647
21
-2.09826
0
LINE
8
BLACK
6
CONTINUOUS
10
2.80647
20
-2.09826
11
2.80554
21
-2.09712
0
LINE
8
BLACK
6
CONTINUOUS
10
2.80554
20
-2.09712
11
2.80484
21
-2.09583
0
LINE
8
BLACK
6
CONTINUOUS
10
2.80484
20
-2.09583
11
2.80442
21
-2.09443
0
LINE
8
BLACK
6
CONTINUOUS
10
2.80442
20
-2.09443
11
2.80428
21
-2.09297
0
LINE
8
BLACK
6
CONTINUOUS
10
2.80428
20
-2.09297
11
2.80428
21
-2.03903
0
LINE
8
BLACK
6
CONTINUOUS
10
2.80428
20
-2.03903
11
2.80442
21
-2.03757
0
LINE
8
BLACK
6
CONTINUOUS
10
2.80442
20
-2.03757
11
2.80484
21
-2.03617
0
LINE
8
BLACK
6
CONTINUOUS
10
2.80484
20
-2.03617
11
2.80554
21
-2.03488
0
LINE
8
BLACK
6
CONTINUOUS
10
2.80554
20
-2.03488
11
2.80647
21
-2.03374
0
LINE
8
BLACK
6
CONTINUOUS
10
2.80647
20
-2.03374
11
2.8076
21
-2.03281
0
LINE
8
BLACK
6
CONTINUOUS
10
2.8076
20
-2.03281
11
2.80889
21
-2.03212
0
LINE
8
BLACK
6
CONTINUOUS
10
2.80889
20
-2.03212
11
2.8103
21
-2.03169
0
LINE
8
BLACK
6
CONTINUOUS
10
2.8103
20
-2.03169
11
2.81176
21
-2.03155
0
LINE
8
BLACK
6
CONTINUOUS
10
2.81176
20
-2.03155
11
2.8342
21
-2.03155
0
LINE
8
BLACK
6
CONTINUOUS
10
2.8342
20
-2.03155
11
2.83566
21
-2.03169
0
LINE
8
BLACK
6
CONTINUOUS
10
2.69285
20
-2.08875
11
2.65741
21
-2.08875
0
LINE
8
BLACK
6
CONTINUOUS
10
2.65741
20
-2.08875
11
2.65741
21
-2.05725
0
LINE
8
BLACK
6
CONTINUOUS
10
2.65741
20
-2.05725
11
2.69285
21
-2.05725
0
LINE
8
BLACK
6
CONTINUOUS
10
2.69285
20
-2.05725
11
2.69285
21
-2.08875
0
LINE
8
BLACK
6
CONTINUOUS
10
3.03635
20
-2.08875
11
3.00091
21
-2.08875
0
LINE
8
BLACK
6
CONTINUOUS
10
3.00091
20
-2.08875
11
3.00091
21
-2.05725
0
LINE
8
BLACK
6
CONTINUOUS
10
3.00091
20
-2.05725
11
3.03635
21
-2.05725
0
LINE
8
BLACK
6
CONTINUOUS
10
3.03635
20
-2.05725
11
3.03635
21
-2.08875
0
LINE
8
BLACK
6
CONTINUOUS
10
2.35035
20
-2.08875
11
2.31491
21
-2.08875
0
LINE
8
BLACK
6
CONTINUOUS
10
2.31491
20
-2.08875
11
2.31491
21
-2.05725
0
LINE
8
BLACK
6
CONTINUOUS
10
2.31491
20
-2.05725
11
2.35035
21
-2.05725
0
LINE
8
BLACK
6
CONTINUOUS
10
2.35035
20
-2.05725
11
2.35035
21
-2.08875
0
LINE
8
BLACK
6
CONTINUOUS
10
3.37985
20
-2.08775
11
3.34441
21
-2.08775
0
LINE
8
BLACK
6
CONTINUOUS
10
3.34441
20
-2.08775
11
3.34441
21
-2.05625
0
LINE
8
BLACK
6
CONTINUOUS
10
3.34441
20
-2.05625
11
3.37985
21
-2.05625
0
LINE
8
BLACK
6
CONTINUOUS
10
3.37985
20
-2.05625
11
3.37985
21
-2.08775
0
LINE
8
BLACK
6
CONTINUOUS
10
2.77159
20
-2.05135
11
2.73615
21
-2.05135
0
LINE
8
BLACK
6
CONTINUOUS
10
2.73615
20
-2.05135
11
2.73615
21
-2.01985
0
LINE
8
BLACK
6
CONTINUOUS
10
2.73615
20
-2.01985
11
2.77159
21
-2.01985
0
LINE
8
BLACK
6
CONTINUOUS
10
2.77159
20
-2.01985
11
2.77159
21
-2.05135
0
LINE
8
BLACK
6
CONTINUOUS
10
3.11509
20
-2.05135
11
3.07965
21
-2.05135
0
LINE
8
BLACK
6
CONTINUOUS
10
3.07965
20
-2.05135
11
3.07965
21
-2.01985
0
LINE
8
BLACK
6
CONTINUOUS
10
3.07965
20
-2.01985
11
3.11509
21
-2.01985
0
LINE
8
BLACK
6
CONTINUOUS
10
3.11509
20
-2.01985
11
3.11509
21
-2.05135
0
LINE
8
BLACK
6
CONTINUOUS
10
2.42909
20
-2.05135
11
2.39365
21
-2.05135
0
LINE
8
BLACK
6
CONTINUOUS
10
2.39365
20
-2.05135
11
2.39365
21
-2.01985
0
LINE
8
BLACK
6
CONTINUOUS
10
2.39365
20
-2.01985
11
2.42909
21
-2.01985
0
LINE
8
BLACK
6
CONTINUOUS
10
2.42909
20
-2.01985
11
2.42909
21
-2.05135
0
LINE
8
BLACK
6
CONTINUOUS
10
3.45859
20
-2.05035
11
3.42315
21
-2.05035
0
LINE
8
BLACK
6
CONTINUOUS
10
3.42315
20
-2.05035
11
3.42315
21
-2.01885
0
LINE
8
BLACK
6
CONTINUOUS
10
3.42315
20
-2.01885
11
3.45859
21
-2.01885
0
LINE
8
BLACK
6
CONTINUOUS
10
3.45859
20
-2.01885
11
3.45859
21
-2.05035
0
LINE
8
BLACK
6
CONTINUOUS
10
2.73831
20
-1.99272
11
2.71863
21
-1.99272
0
LINE
8
BLACK
6
CONTINUOUS
10
2.71863
20
-1.99272
11
2.71863
21
-1.95728
0
LINE
8
BLACK
6
CONTINUOUS
10
2.71863
20
-1.95728
11
2.73831
21
-1.95728
0
LINE
8
BLACK
6
CONTINUOUS
10
2.73831
20
-1.95728
11
2.73831
21
-1.99272
0
LINE
8
BLACK
6
CONTINUOUS
10
2.79737
20
-1.99272
11
2.77769
21
-1.99272
0
LINE
8
BLACK
6
CONTINUOUS
10
2.77769
20
-1.99272
11
2.77769
21
-1.95728
0
LINE
8
BLACK
6
CONTINUOUS
10
2.77769
20
-1.95728
11
2.79737
21
-1.95728
0
LINE
8
BLACK
6
CONTINUOUS
10
2.79737
20
-1.95728
11
2.79737
21
-1.99272
0
LINE
8
BLACK
6
CONTINUOUS
10
2.45537
20
-1.99172
11
2.43569
21
-1.99172
0
LINE
8
BLACK
6
CONTINUOUS
10
2.43569
20
-1.99172
11
2.43569
21
-1.95628
0
LINE
8
BLACK
6
CONTINUOUS
10
2.43569
20
-1.95628
11
2.45537
21
-1.95628
0
LINE
8
BLACK
6
CONTINUOUS
10
2.45537
20
-1.95628
11
2.45537
21
-1.99172
0
LINE
8
BLACK
6
CONTINUOUS
10
2.39631
20
-1.99172
11
2.37663
21
-1.99172
0
LINE
8
BLACK
6
CONTINUOUS
10
2.37663
20
-1.99172
11
2.37663
21
-1.95628
0
LINE
8
BLACK
6
CONTINUOUS
10
2.37663
20
-1.95628
11
2.39631
21
-1.95628
0
LINE
8
BLACK
6
CONTINUOUS
10
2.39631
20
-1.95628
11
2.39631
21
-1.99172
0
LINE
8
BLACK
6
CONTINUOUS
10
3.08131
20
-1.99172
11
3.06163
21
-1.99172
0
LINE
8
BLACK
6
CONTINUOUS
10
3.06163
20
-1.99172
11
3.06163
21
-1.95628
0
LINE
8
BLACK
6
CONTINUOUS
10
3.06163
20
-1.95628
11
3.08131
21
-1.95628
0
LINE
8
BLACK
6
CONTINUOUS
10
3.08131
20
-1.95628
11
3.08131
21
-1.99172
0
LINE
8
BLACK
6
CONTINUOUS
10
3.14037
20
-1.99172
11
3.12069
21
-1.99172
0
LINE
8
BLACK
6
CONTINUOUS
10
3.12069
20
-1.99172
11
3.12069
21
-1.95628
0
LINE
8
BLACK
6
CONTINUOUS
10
3.12069
20
-1.95628
11
3.14037
21
-1.95628
0
LINE
8
BLACK
6
CONTINUOUS
10
3.14037
20
-1.95628
11
3.14037
21
-1.99172
0
LINE
8
BLACK
6
CONTINUOUS
10
3.48537
20
-1.99072
11
3.46569
21
-1.99072
0
LINE
8
BLACK
6
CONTINUOUS
10
3.46569
20
-1.99072
11
3.46569
21
-1.95528
0
LINE
8
BLACK
6
CONTINUOUS
10
3.46569
20
-1.95528
11
3.48537
21
-1.95528
0
LINE
8
BLACK
6
CONTINUOUS
10
3.48537
20
-1.95528
11
3.48537
21
-1.99072
0
LINE
8
BLACK
6
CONTINUOUS
10
3.42631
20
-1.99072
11
3.40663
21
-1.99072
0
LINE
8
BLACK
6
CONTINUOUS
10
3.40663
20
-1.99072
11
3.40663
21
-1.95528
0
LINE
8
BLACK
6
CONTINUOUS
10
3.40663
20
-1.95528
11
3.42631
21
-1.95528
0
LINE
8
BLACK
6
CONTINUOUS
10
3.42631
20
-1.95528
11
3.42631
21
-1.99072
0
LINE
8
BLACK
6
CONTINUOUS
10
2.51272
20
-1.94737
11
2.47728
21
-1.94737
0
LINE
8
BLACK
6
CONTINUOUS
10
2.47728
20
-1.94737
11
2.47728
21
-1.92769
0
LINE
8
BLACK
6
CONTINUOUS
10
2.47728
20
-1.92769
11
2.51272
21
-1.92769
0
LINE
8
BLACK
6
CONTINUOUS
10
2.51272
20
-1.92769
11
2.51272
21
-1.94737
0
LINE
8
BLACK
6
CONTINUOUS
10
2.17072
20
-1.94684
11
2.13528
21
-1.94684
0
LINE
8
BLACK
6
CONTINUOUS
10
2.13528
20
-1.94684
11
2.13528
21
-1.92716
0
LINE
8
BLACK
6
CONTINUOUS
10
2.13528
20
-1.92716
11
2.17072
21
-1.92716
0
LINE
8
BLACK
6
CONTINUOUS
10
2.17072
20
-1.92716
11
2.17072
21
-1.94684
0
LINE
8
BLACK
6
CONTINUOUS
10
2.85572
20
-1.94637
11
2.82028
21
-1.94637
0
LINE
8
BLACK
6
CONTINUOUS
10
2.82028
20
-1.94637
11
2.82028
21
-1.92669
0
LINE
8
BLACK
6
CONTINUOUS
10
2.82028
20
-1.92669
11
2.85572
21
-1.92669
0
LINE
8
BLACK
6
CONTINUOUS
10
2.85572
20
-1.92669
11
2.85572
21
-1.94637
0
LINE
8
BLACK
6
CONTINUOUS
10
3.19872
20
-1.94637
11
3.16328
21
-1.94637
0
LINE
8
BLACK
6
CONTINUOUS
10
3.16328
20
-1.94637
11
3.16328
21
-1.92669
0
LINE
8
BLACK
6
CONTINUOUS
10
3.16328
20
-1.92669
11
3.19872
21
-1.92669
0
LINE
8
BLACK
6
CONTINUOUS
10
3.19872
20
-1.92669
11
3.19872
21
-1.94637
0
LINE
8
BLACK
6
CONTINUOUS
10
2.79737
20
-1.93472
11
2.77769
21
-1.93472
0
LINE
8
BLACK
6
CONTINUOUS
10
2.77769
20
-1.93472
11
2.77769
21
-1.89928
0
LINE
8
BLACK
6
CONTINUOUS
10
2.77769
20
-1.89928
11
2.79737
21
-1.89928
0
LINE
8
BLACK
6
CONTINUOUS
10
2.79737
20
-1.89928
11
2.79737
21
-1.93472
0
LINE
8
BLACK
6
CONTINUOUS
10
2.73831
20
-1.93472
11
2.71863
21
-1.93472
0
LINE
8
BLACK
6
CONTINUOUS
10
2.71863
20
-1.93472
11
2.71863
21
-1.89928
0
LINE
8
BLACK
6
CONTINUOUS
10
2.71863
20
-1.89928
11
2.73831
21
-1.89928
0
LINE
8
BLACK
6
CONTINUOUS
10
2.73831
20
-1.89928
11
2.73831
21
-1.93472
0
LINE
8
BLACK
6
CONTINUOUS
10
3.1409
20
-1.93372
11
3.12121
21
-1.93372
0
LINE
8
BLACK
6
CONTINUOUS
10
3.12121
20
-1.93372
11
3.12121
21
-1.89828
0
LINE
8
BLACK
6
CONTINUOUS
10
3.12121
20
-1.89828
11
3.1409
21
-1.89828
0
LINE
8
BLACK
6
CONTINUOUS
10
3.1409
20
-1.89828
11
3.1409
21
-1.93372
0
LINE
8
BLACK
6
CONTINUOUS
10
3.08184
20
-1.93372
11
3.06216
21
-1.93372
0
LINE
8
BLACK
6
CONTINUOUS
10
3.06216
20
-1.93372
11
3.06216
21
-1.89828
0
LINE
8
BLACK
6
CONTINUOUS
10
3.06216
20
-1.89828
11
3.08184
21
-1.89828
0
LINE
8
BLACK
6
CONTINUOUS
10
3.08184
20
-1.89828
11
3.08184
21
-1.93372
0
LINE
8
BLACK
6
CONTINUOUS
10
2.39631
20
-1.93372
11
2.37663
21
-1.93372
0
LINE
8
BLACK
6
CONTINUOUS
10
2.37663
20
-1.93372
11
2.37663
21
-1.89828
0
LINE
8
BLACK
6
CONTINUOUS
10
2.37663
20
-1.89828
11
2.39631
21
-1.89828
0
LINE
8
BLACK
6
CONTINUOUS
10
2.39631
20
-1.89828
11
2.39631
21
-1.93372
0
LINE
8
BLACK
6
CONTINUOUS
10
2.45537
20
-1.93372
11
2.43569
21
-1.93372
0
LINE
8
BLACK
6
CONTINUOUS
10
2.43569
20
-1.93372
11
2.43569
21
-1.89828
0
LINE
8
BLACK
6
CONTINUOUS
10
2.43569
20
-1.89828
11
2.45537
21
-1.89828
0
LINE
8
BLACK
6
CONTINUOUS
10
2.45537
20
-1.89828
11
2.45537
21
-1.93372
0
LINE
8
BLACK
6
CONTINUOUS
10
3.42631
20
-1.93319
11
3.40663
21
-1.93319
0
LINE
8
BLACK
6
CONTINUOUS
10
3.40663
20
-1.93319
11
3.40663
21
-1.89776
0
LINE
8
BLACK
6
CONTINUOUS
10
3.40663
20
-1.89776
11
3.42631
21
-1.89776
0
LINE
8
BLACK
6
CONTINUOUS
10
3.42631
20
-1.89776
11
3.42631
21
-1.93319
0
LINE
8
BLACK
6
CONTINUOUS
10
3.48537
20
-1.93319
11
3.46569
21
-1.93319
0
LINE
8
BLACK
6
CONTINUOUS
10
3.46569
20
-1.93319
11
3.46569
21
-1.89776
0
LINE
8
BLACK
6
CONTINUOUS
10
3.46569
20
-1.89776
11
3.48537
21
-1.89776
0
LINE
8
BLACK
6
CONTINUOUS
10
3.48537
20
-1.89776
11
3.48537
21
-1.93319
0
LINE
8
BLACK
6
CONTINUOUS
10
2.51272
20
-1.88831
11
2.47728
21
-1.88831
0
LINE
8
BLACK
6
CONTINUOUS
10
2.47728
20
-1.88831
11
2.47728
21
-1.86863
0
LINE
8
BLACK
6
CONTINUOUS
10
2.47728
20
-1.86863
11
2.51272
21
-1.86863
0
LINE
8
BLACK
6
CONTINUOUS
10
2.51272
20
-1.86863
11
2.51272
21
-1.88831
0
LINE
8
BLACK
6
CONTINUOUS
10
2.17072
20
-1.88779
11
2.13528
21
-1.88779
0
LINE
8
BLACK
6
CONTINUOUS
10
2.13528
20
-1.88779
11
2.13528
21
-1.8681
0
LINE
8
BLACK
6
CONTINUOUS
10
2.13528
20
-1.8681
11
2.17072
21
-1.8681
0
LINE
8
BLACK
6
CONTINUOUS
10
2.17072
20
-1.8681
11
2.17072
21
-1.88779
0
LINE
8
BLACK
6
CONTINUOUS
10
3.19872
20
-1.88731
11
3.16328
21
-1.88731
0
LINE
8
BLACK
6
CONTINUOUS
10
3.16328
20
-1.88731
11
3.16328
21
-1.86763
0
LINE
8
BLACK
6
CONTINUOUS
10
3.16328
20
-1.86763
11
3.19872
21
-1.86763
0
LINE
8
BLACK
6
CONTINUOUS
10
3.19872
20
-1.86763
11
3.19872
21
-1.88731
0
LINE
8
BLACK
6
CONTINUOUS
10
2.85572
20
-1.88731
11
2.82028
21
-1.88731
0
LINE
8
BLACK
6
CONTINUOUS
10
2.82028
20
-1.88731
11
2.82028
21
-1.86763
0
LINE
8
BLACK
6
CONTINUOUS
10
2.82028
20
-1.86763
11
2.85572
21
-1.86763
0
LINE
8
BLACK
6
CONTINUOUS
10
2.85572
20
-1.86763
11
2.85572
21
-1.88731
  0
ENDSEC
  0
EOF
