  0
SECTION
  2
HEADER
  9
$ANGBASE
  50
0.0
  9
$ANGDIR
  70
1
  9
$MEASUREMENT
  70
0
  0
ENDSEC
  0
SECTION
  2
TABLES
  0
TABLE
  2
LTYPE
  70
4
  0
LTYPE
  5
40F
  2
CONTINUOUS
  70
0
  3
Solid line
  72
65
  73
0
  40
0.0
  0
LTYPE
  5
410
  2
DASHDOT
 70
0
  3
Dash Dot ____ _ ____ _
 72
65
 73
4
 40
2.0
 49
1.25
 49
-0.25
 49
0.25
 49
-0.25
  0
LTYPE
  5
411
  2
DASHED
 70
0
  3
Dashed __ __ __ __ __
 72
65
 73
2
 40
0.75
 49
0.5
 49
-0.25
  0
LTYPE
  5
43B
  2
DOTTED
 70
0
  3
Dotted .  .  .  .
 72
65
 73
2
 40
0.2
 49
0.0
 49
-0.2
  0
ENDTAB
  0
TABLE
  2
STYLE
  70
4
  0
STYLE
  2
KICAD
  70
0
  40
0
  41
1
  42
1
  50
0
  71
0
  3
isocp.shx
  0
STYLE
  2
KICADB
  70
0
  40
0
  41
1
  42
1
  50
0
  71
0
  3
isocp.shx
  0
STYLE
  2
KICADI
  70
0
  40
0
  41
1
  42
1
  50
15
  71
0
  3
isocp.shx
  0
STYLE
  2
KICADBI
  70
0
  40
0
  41
1
  42
1
  50
15
  71
0
  3
isocp.shx
  0
ENDTAB
  0
TABLE
  2
LAYER
  70
1
  0
LAYER
  2
BLACK
  70
0
  62
7
  6
CONTINUOUS
  0
ENDTAB
  0
ENDSEC
  0
SECTION
  2
ENTITIES
0
LINE
8
BLACK
6
CONTINUOUS
10
1.8719
20
-3.11098
11
1.8719
21
-3.11098
0
LINE
8
BLACK
6
CONTINUOUS
10
1.8719
20
-3.11098
11
1.86413
21
-3.11022
0
LINE
8
BLACK
6
CONTINUOUS
10
1.86413
20
-3.11022
11
1.86412
21
-3.11022
0
LINE
8
BLACK
6
CONTINUOUS
10
1.86412
20
-3.11022
11
1.86403
21
-3.1102
0
LINE
8
BLACK
6
CONTINUOUS
10
1.86403
20
-3.1102
11
1.86395
21
-3.11018
0
LINE
8
BLACK
6
CONTINUOUS
10
1.86395
20
-3.11018
11
1.85647
21
-3.10792
0
LINE
8
BLACK
6
CONTINUOUS
10
1.85647
20
-3.10792
11
1.85646
21
-3.10792
0
LINE
8
BLACK
6
CONTINUOUS
10
1.85646
20
-3.10792
11
1.85638
21
-3.10788
0
LINE
8
BLACK
6
CONTINUOUS
10
1.85638
20
-3.10788
11
1.8563
21
-3.10785
0
LINE
8
BLACK
6
CONTINUOUS
10
1.8563
20
-3.10785
11
1.8494
21
-3.10419
0
LINE
8
BLACK
6
CONTINUOUS
10
1.8494
20
-3.10419
11
1.84939
21
-3.10418
0
LINE
8
BLACK
6
CONTINUOUS
10
1.84939
20
-3.10418
11
1.84932
21
-3.10413
0
LINE
8
BLACK
6
CONTINUOUS
10
1.84932
20
-3.10413
11
1.84924
21
-3.10408
0
LINE
8
BLACK
6
CONTINUOUS
10
1.84924
20
-3.10408
11
1.84319
21
-3.09915
0
LINE
8
BLACK
6
CONTINUOUS
10
1.84319
20
-3.09915
11
1.84318
21
-3.09914
0
LINE
8
BLACK
6
CONTINUOUS
10
1.84318
20
-3.09914
11
1.84312
21
-3.09907
0
LINE
8
BLACK
6
CONTINUOUS
10
1.84312
20
-3.09907
11
1.84306
21
-3.09901
0
LINE
8
BLACK
6
CONTINUOUS
10
1.84306
20
-3.09901
11
1.83808
21
-3.093
0
LINE
8
BLACK
6
CONTINUOUS
10
1.83808
20
-3.093
11
1.83807
21
-3.09298
0
LINE
8
BLACK
6
CONTINUOUS
10
1.83807
20
-3.09298
11
1.83802
21
-3.09291
0
LINE
8
BLACK
6
CONTINUOUS
10
1.83802
20
-3.09291
11
1.83797
21
-3.09284
0
LINE
8
BLACK
6
CONTINUOUS
10
1.83797
20
-3.09284
11
1.83426
21
-3.08597
0
LINE
8
BLACK
6
CONTINUOUS
10
1.83426
20
-3.08597
11
1.83425
21
-3.08596
0
LINE
8
BLACK
6
CONTINUOUS
10
1.83425
20
-3.08596
11
1.83422
21
-3.08587
0
LINE
8
BLACK
6
CONTINUOUS
10
1.83422
20
-3.08587
11
1.83419
21
-3.08579
0
LINE
8
BLACK
6
CONTINUOUS
10
1.83419
20
-3.08579
11
1.83188
21
-3.07833
0
LINE
8
BLACK
6
CONTINUOUS
10
1.83188
20
-3.07833
11
1.83187
21
-3.07832
0
LINE
8
BLACK
6
CONTINUOUS
10
1.83187
20
-3.07832
11
1.83186
21
-3.07823
0
LINE
8
BLACK
6
CONTINUOUS
10
1.83186
20
-3.07823
11
1.83184
21
-3.07815
0
LINE
8
BLACK
6
CONTINUOUS
10
1.83184
20
-3.07815
11
1.83102
21
-3.07038
0
LINE
8
BLACK
6
CONTINUOUS
10
1.83102
20
-3.07038
11
1.83102
21
-3.07037
0
LINE
8
BLACK
6
CONTINUOUS
10
1.83102
20
-3.07037
11
1.83102
21
-3.07033
0
LINE
8
BLACK
6
CONTINUOUS
10
1.83102
20
-3.07033
11
1.83102
21
-3.07028
0
LINE
8
BLACK
6
CONTINUOUS
10
1.83102
20
-3.07028
11
1.83102
21
-3.07005
0
LINE
8
BLACK
6
CONTINUOUS
10
1.83102
20
-3.07005
11
1.83102
21
-3.07005
0
LINE
8
BLACK
6
CONTINUOUS
10
1.83102
20
-3.07005
11
1.83102
21
-2.691
0
LINE
8
BLACK
6
CONTINUOUS
10
1.83102
20
-2.691
11
1.83102
21
-2.691
0
LINE
8
BLACK
6
CONTINUOUS
10
1.83102
20
-2.691
11
1.83101
21
-2.69077
0
LINE
8
BLACK
6
CONTINUOUS
10
1.83101
20
-2.69077
11
1.83021
21
-2.68316
0
LINE
8
BLACK
6
CONTINUOUS
10
1.83021
20
-2.68316
11
1.82796
21
-2.67588
0
LINE
8
BLACK
6
CONTINUOUS
10
1.82796
20
-2.67588
11
1.82434
21
-2.66919
0
LINE
8
BLACK
6
CONTINUOUS
10
1.82434
20
-2.66919
11
1.81949
21
-2.66332
0
LINE
8
BLACK
6
CONTINUOUS
10
1.81949
20
-2.66332
11
1.81359
21
-2.65851
0
LINE
8
BLACK
6
CONTINUOUS
10
1.81359
20
-2.65851
11
1.80687
21
-2.65493
0
LINE
8
BLACK
6
CONTINUOUS
10
1.80687
20
-2.65493
11
1.79958
21
-2.65273
0
LINE
8
BLACK
6
CONTINUOUS
10
1.79958
20
-2.65273
11
1.79195
21
-2.65198
0
LINE
8
BLACK
6
CONTINUOUS
10
1.79195
20
-2.65198
11
1.50195
21
-2.65198
0
LINE
8
BLACK
6
CONTINUOUS
10
1.50195
20
-2.65198
11
1.5019
21
-2.65198
0
LINE
8
BLACK
6
CONTINUOUS
10
1.5019
20
-2.65198
11
1.5019
21
-2.65198
0
LINE
8
BLACK
6
CONTINUOUS
10
1.5019
20
-2.65198
11
1.49413
21
-2.65122
0
LINE
8
BLACK
6
CONTINUOUS
10
1.49413
20
-2.65122
11
1.49412
21
-2.65122
0
LINE
8
BLACK
6
CONTINUOUS
10
1.49412
20
-2.65122
11
1.49403
21
-2.6512
0
LINE
8
BLACK
6
CONTINUOUS
10
1.49403
20
-2.6512
11
1.49395
21
-2.65118
0
LINE
8
BLACK
6
CONTINUOUS
10
1.49395
20
-2.65118
11
1.48647
21
-2.64892
0
LINE
8
BLACK
6
CONTINUOUS
10
1.48647
20
-2.64892
11
1.48646
21
-2.64892
0
LINE
8
BLACK
6
CONTINUOUS
10
1.48646
20
-2.64892
11
1.48638
21
-2.64888
0
LINE
8
BLACK
6
CONTINUOUS
10
1.48638
20
-2.64888
11
1.4863
21
-2.64885
0
LINE
8
BLACK
6
CONTINUOUS
10
1.4863
20
-2.64885
11
1.4794
21
-2.64519
0
LINE
8
BLACK
6
CONTINUOUS
10
1.4794
20
-2.64519
11
1.47939
21
-2.64518
0
LINE
8
BLACK
6
CONTINUOUS
10
1.47939
20
-2.64518
11
1.47932
21
-2.64513
0
LINE
8
BLACK
6
CONTINUOUS
10
1.47932
20
-2.64513
11
1.47924
21
-2.64508
0
LINE
8
BLACK
6
CONTINUOUS
10
1.47924
20
-2.64508
11
1.47319
21
-2.64015
0
LINE
8
BLACK
6
CONTINUOUS
10
1.47319
20
-2.64015
11
1.47318
21
-2.64014
0
LINE
8
BLACK
6
CONTINUOUS
10
1.47318
20
-2.64014
11
1.47312
21
-2.64007
0
LINE
8
BLACK
6
CONTINUOUS
10
1.47312
20
-2.64007
11
1.47306
21
-2.64001
0
LINE
8
BLACK
6
CONTINUOUS
10
1.47306
20
-2.64001
11
1.46808
21
-2.634
0
LINE
8
BLACK
6
CONTINUOUS
10
1.46808
20
-2.634
11
1.46807
21
-2.63398
0
LINE
8
BLACK
6
CONTINUOUS
10
1.46807
20
-2.63398
11
1.46802
21
-2.63391
0
LINE
8
BLACK
6
CONTINUOUS
10
1.46802
20
-2.63391
11
1.46797
21
-2.63384
0
LINE
8
BLACK
6
CONTINUOUS
10
1.46797
20
-2.63384
11
1.46426
21
-2.62697
0
LINE
8
BLACK
6
CONTINUOUS
10
1.46426
20
-2.62697
11
1.46425
21
-2.62696
0
LINE
8
BLACK
6
CONTINUOUS
10
1.46425
20
-2.62696
11
1.46422
21
-2.62687
0
LINE
8
BLACK
6
CONTINUOUS
10
1.46422
20
-2.62687
11
1.46419
21
-2.62679
0
LINE
8
BLACK
6
CONTINUOUS
10
1.46419
20
-2.62679
11
1.46188
21
-2.61933
0
LINE
8
BLACK
6
CONTINUOUS
10
1.46188
20
-2.61933
11
1.46187
21
-2.61932
0
LINE
8
BLACK
6
CONTINUOUS
10
1.46187
20
-2.61932
11
1.46186
21
-2.61923
0
LINE
8
BLACK
6
CONTINUOUS
10
1.46186
20
-2.61923
11
1.46184
21
-2.61915
0
LINE
8
BLACK
6
CONTINUOUS
10
1.46184
20
-2.61915
11
1.46102
21
-2.61138
0
LINE
8
BLACK
6
CONTINUOUS
10
1.46102
20
-2.61138
11
1.46102
21
-2.61137
0
LINE
8
BLACK
6
CONTINUOUS
10
1.46102
20
-2.61137
11
1.46102
21
-2.61133
0
LINE
8
BLACK
6
CONTINUOUS
10
1.46102
20
-2.61133
11
1.46102
21
-2.61128
0
LINE
8
BLACK
6
CONTINUOUS
10
1.46102
20
-2.61128
11
1.46102
21
-2.61105
0
LINE
8
BLACK
6
CONTINUOUS
10
1.46102
20
-2.61105
11
1.46102
21
-2.61105
0
LINE
8
BLACK
6
CONTINUOUS
10
1.46102
20
-2.61105
11
1.46102
21
-2.61101
0
LINE
8
BLACK
6
CONTINUOUS
10
1.46102
20
-2.61101
11
1.46102
21
-2.611
0
LINE
8
BLACK
6
CONTINUOUS
10
1.46102
20
-2.611
11
1.46102
21
-2.61099
0
LINE
8
BLACK
6
CONTINUOUS
10
1.46102
20
-2.61099
11
1.46102
21
-1.89595
0
LINE
8
BLACK
6
CONTINUOUS
10
1.46102
20
-1.89595
11
1.46102
21
-1.8959
0
LINE
8
BLACK
6
CONTINUOUS
10
1.46102
20
-1.8959
11
1.46102
21
-1.8959
0
LINE
8
BLACK
6
CONTINUOUS
10
1.46102
20
-1.8959
11
1.46178
21
-1.88813
0
LINE
8
BLACK
6
CONTINUOUS
10
1.46178
20
-1.88813
11
1.46178
21
-1.88812
0
LINE
8
BLACK
6
CONTINUOUS
10
1.46178
20
-1.88812
11
1.4618
21
-1.88803
0
LINE
8
BLACK
6
CONTINUOUS
10
1.4618
20
-1.88803
11
1.46182
21
-1.88795
0
LINE
8
BLACK
6
CONTINUOUS
10
1.46182
20
-1.88795
11
1.46408
21
-1.88047
0
LINE
8
BLACK
6
CONTINUOUS
10
1.46408
20
-1.88047
11
1.46408
21
-1.88046
0
LINE
8
BLACK
6
CONTINUOUS
10
1.46408
20
-1.88046
11
1.46412
21
-1.88038
0
LINE
8
BLACK
6
CONTINUOUS
10
1.46412
20
-1.88038
11
1.46415
21
-1.8803
0
LINE
8
BLACK
6
CONTINUOUS
10
1.46415
20
-1.8803
11
1.46781
21
-1.8734
0
LINE
8
BLACK
6
CONTINUOUS
10
1.46781
20
-1.8734
11
1.46782
21
-1.87339
0
LINE
8
BLACK
6
CONTINUOUS
10
1.46782
20
-1.87339
11
1.46787
21
-1.87332
0
LINE
8
BLACK
6
CONTINUOUS
10
1.46787
20
-1.87332
11
1.46792
21
-1.87324
0
LINE
8
BLACK
6
CONTINUOUS
10
1.46792
20
-1.87324
11
1.47285
21
-1.86719
0
LINE
8
BLACK
6
CONTINUOUS
10
1.47285
20
-1.86719
11
1.47286
21
-1.86718
0
LINE
8
BLACK
6
CONTINUOUS
10
1.47286
20
-1.86718
11
1.47293
21
-1.86712
0
LINE
8
BLACK
6
CONTINUOUS
10
1.47293
20
-1.86712
11
1.47299
21
-1.86706
0
LINE
8
BLACK
6
CONTINUOUS
10
1.47299
20
-1.86706
11
1.479
21
-1.86208
0
LINE
8
BLACK
6
CONTINUOUS
10
1.479
20
-1.86208
11
1.479
21
-1.86208
0
LINE
8
BLACK
6
CONTINUOUS
10
1.479
20
-1.86208
11
1.47901
21
-1.86208
0
LINE
8
BLACK
6
CONTINUOUS
10
1.47901
20
-1.86208
11
1.47902
21
-1.86207
0
LINE
8
BLACK
6
CONTINUOUS
10
1.47902
20
-1.86207
11
1.47909
21
-1.86202
0
LINE
8
BLACK
6
CONTINUOUS
10
1.47909
20
-1.86202
11
1.47916
21
-1.86197
0
LINE
8
BLACK
6
CONTINUOUS
10
1.47916
20
-1.86197
11
1.48603
21
-1.85826
0
LINE
8
BLACK
6
CONTINUOUS
10
1.48603
20
-1.85826
11
1.48604
21
-1.85825
0
LINE
8
BLACK
6
CONTINUOUS
10
1.48604
20
-1.85825
11
1.48613
21
-1.85822
0
LINE
8
BLACK
6
CONTINUOUS
10
1.48613
20
-1.85822
11
1.48621
21
-1.85819
0
LINE
8
BLACK
6
CONTINUOUS
10
1.48621
20
-1.85819
11
1.49367
21
-1.85588
0
LINE
8
BLACK
6
CONTINUOUS
10
1.49367
20
-1.85588
11
1.49367
21
-1.85588
0
LINE
8
BLACK
6
CONTINUOUS
10
1.49367
20
-1.85588
11
1.49368
21
-1.85587
0
LINE
8
BLACK
6
CONTINUOUS
10
1.49368
20
-1.85587
11
1.49377
21
-1.85586
0
LINE
8
BLACK
6
CONTINUOUS
10
1.49377
20
-1.85586
11
1.49385
21
-1.85584
0
LINE
8
BLACK
6
CONTINUOUS
10
1.49385
20
-1.85584
11
1.50162
21
-1.85502
0
LINE
8
BLACK
6
CONTINUOUS
10
1.50162
20
-1.85502
11
1.50163
21
-1.85502
0
LINE
8
BLACK
6
CONTINUOUS
10
1.50163
20
-1.85502
11
1.50167
21
-1.85502
0
LINE
8
BLACK
6
CONTINUOUS
10
1.50167
20
-1.85502
11
1.50172
21
-1.85502
0
LINE
8
BLACK
6
CONTINUOUS
10
1.50172
20
-1.85502
11
1.50195
21
-1.85502
0
LINE
8
BLACK
6
CONTINUOUS
10
1.50195
20
-1.85502
11
1.50195
21
-1.85502
0
LINE
8
BLACK
6
CONTINUOUS
10
1.50195
20
-1.85502
11
3.46105
21
-1.85502
0
LINE
8
BLACK
6
CONTINUOUS
10
3.46105
20
-1.85502
11
3.4611
21
-1.85502
0
LINE
8
BLACK
6
CONTINUOUS
10
3.4611
20
-1.85502
11
3.4611
21
-1.85502
0
LINE
8
BLACK
6
CONTINUOUS
10
3.4611
20
-1.85502
11
3.46887
21
-1.85578
0
LINE
8
BLACK
6
CONTINUOUS
10
3.46887
20
-1.85578
11
3.46888
21
-1.85578
0
LINE
8
BLACK
6
CONTINUOUS
10
3.46888
20
-1.85578
11
3.46897
21
-1.8558
0
LINE
8
BLACK
6
CONTINUOUS
10
3.46897
20
-1.8558
11
3.46905
21
-1.85582
0
LINE
8
BLACK
6
CONTINUOUS
10
3.46905
20
-1.85582
11
3.47653
21
-1.85808
0
LINE
8
BLACK
6
CONTINUOUS
10
3.47653
20
-1.85808
11
3.47654
21
-1.85808
0
LINE
8
BLACK
6
CONTINUOUS
10
3.47654
20
-1.85808
11
3.47662
21
-1.85812
0
LINE
8
BLACK
6
CONTINUOUS
10
3.47662
20
-1.85812
11
3.4767
21
-1.85815
0
LINE
8
BLACK
6
CONTINUOUS
10
3.4767
20
-1.85815
11
3.4836
21
-1.86181
0
LINE
8
BLACK
6
CONTINUOUS
10
3.4836
20
-1.86181
11
3.48361
21
-1.86182
0
LINE
8
BLACK
6
CONTINUOUS
10
3.48361
20
-1.86182
11
3.48368
21
-1.86187
0
LINE
8
BLACK
6
CONTINUOUS
10
3.48368
20
-1.86187
11
3.48376
21
-1.86192
0
LINE
8
BLACK
6
CONTINUOUS
10
3.48376
20
-1.86192
11
3.48981
21
-1.86685
0
LINE
8
BLACK
6
CONTINUOUS
10
3.48981
20
-1.86685
11
3.48982
21
-1.86686
0
LINE
8
BLACK
6
CONTINUOUS
10
3.48982
20
-1.86686
11
3.48988
21
-1.86693
0
LINE
8
BLACK
6
CONTINUOUS
10
3.48988
20
-1.86693
11
3.48994
21
-1.86699
0
LINE
8
BLACK
6
CONTINUOUS
10
3.48994
20
-1.86699
11
3.49492
21
-1.873
0
LINE
8
BLACK
6
CONTINUOUS
10
3.49492
20
-1.873
11
3.49492
21
-1.873
0
LINE
8
BLACK
6
CONTINUOUS
10
3.49492
20
-1.873
11
3.49492
21
-1.87301
0
LINE
8
BLACK
6
CONTINUOUS
10
3.49492
20
-1.87301
11
3.49493
21
-1.87302
0
LINE
8
BLACK
6
CONTINUOUS
10
3.49493
20
-1.87302
11
3.49498
21
-1.87309
0
LINE
8
BLACK
6
CONTINUOUS
10
3.49498
20
-1.87309
11
3.49503
21
-1.87316
0
LINE
8
BLACK
6
CONTINUOUS
10
3.49503
20
-1.87316
11
3.49874
21
-1.88003
0
LINE
8
BLACK
6
CONTINUOUS
10
3.49874
20
-1.88003
11
3.49875
21
-1.88004
0
LINE
8
BLACK
6
CONTINUOUS
10
3.49875
20
-1.88004
11
3.49878
21
-1.88013
0
LINE
8
BLACK
6
CONTINUOUS
10
3.49878
20
-1.88013
11
3.49881
21
-1.88021
0
LINE
8
BLACK
6
CONTINUOUS
10
3.49881
20
-1.88021
11
3.50112
21
-1.88767
0
LINE
8
BLACK
6
CONTINUOUS
10
3.50112
20
-1.88767
11
3.50113
21
-1.88768
0
LINE
8
BLACK
6
CONTINUOUS
10
3.50113
20
-1.88768
11
3.50114
21
-1.88777
0
LINE
8
BLACK
6
CONTINUOUS
10
3.50114
20
-1.88777
11
3.50116
21
-1.88785
0
LINE
8
BLACK
6
CONTINUOUS
10
3.50116
20
-1.88785
11
3.50198
21
-1.89562
0
LINE
8
BLACK
6
CONTINUOUS
10
3.50198
20
-1.89562
11
3.50198
21
-1.89563
0
LINE
8
BLACK
6
CONTINUOUS
10
3.50198
20
-1.89563
11
3.50198
21
-1.89567
0
LINE
8
BLACK
6
CONTINUOUS
10
3.50198
20
-1.89567
11
3.50198
21
-1.89572
0
LINE
8
BLACK
6
CONTINUOUS
10
3.50198
20
-1.89572
11
3.50198
21
-1.89595
0
LINE
8
BLACK
6
CONTINUOUS
10
3.50198
20
-1.89595
11
3.50198
21
-1.89595
0
LINE
8
BLACK
6
CONTINUOUS
10
3.50198
20
-1.89595
11
3.50198
21
-3.07005
0
LINE
8
BLACK
6
CONTINUOUS
10
3.50198
20
-3.07005
11
3.50198
21
-3.0701
0
LINE
8
BLACK
6
CONTINUOUS
10
3.50198
20
-3.0701
11
3.50198
21
-3.0701
0
LINE
8
BLACK
6
CONTINUOUS
10
3.50198
20
-3.0701
11
3.50122
21
-3.07787
0
LINE
8
BLACK
6
CONTINUOUS
10
3.50122
20
-3.07787
11
3.50122
21
-3.07788
0
LINE
8
BLACK
6
CONTINUOUS
10
3.50122
20
-3.07788
11
3.5012
21
-3.07797
0
LINE
8
BLACK
6
CONTINUOUS
10
3.5012
20
-3.07797
11
3.50118
21
-3.07805
0
LINE
8
BLACK
6
CONTINUOUS
10
3.50118
20
-3.07805
11
3.49892
21
-3.08553
0
LINE
8
BLACK
6
CONTINUOUS
10
3.49892
20
-3.08553
11
3.49892
21
-3.08554
0
LINE
8
BLACK
6
CONTINUOUS
10
3.49892
20
-3.08554
11
3.49888
21
-3.08562
0
LINE
8
BLACK
6
CONTINUOUS
10
3.49888
20
-3.08562
11
3.49885
21
-3.0857
0
LINE
8
BLACK
6
CONTINUOUS
10
3.49885
20
-3.0857
11
3.49519
21
-3.0926
0
LINE
8
BLACK
6
CONTINUOUS
10
3.49519
20
-3.0926
11
3.49518
21
-3.09261
0
LINE
8
BLACK
6
CONTINUOUS
10
3.49518
20
-3.09261
11
3.49513
21
-3.09268
0
LINE
8
BLACK
6
CONTINUOUS
10
3.49513
20
-3.09268
11
3.49508
21
-3.09276
0
LINE
8
BLACK
6
CONTINUOUS
10
3.49508
20
-3.09276
11
3.49015
21
-3.09881
0
LINE
8
BLACK
6
CONTINUOUS
10
3.49015
20
-3.09881
11
3.49014
21
-3.09882
0
LINE
8
BLACK
6
CONTINUOUS
10
3.49014
20
-3.09882
11
3.49007
21
-3.09888
0
LINE
8
BLACK
6
CONTINUOUS
10
3.49007
20
-3.09888
11
3.49001
21
-3.09894
0
LINE
8
BLACK
6
CONTINUOUS
10
3.49001
20
-3.09894
11
3.484
21
-3.10392
0
LINE
8
BLACK
6
CONTINUOUS
10
3.484
20
-3.10392
11
3.48398
21
-3.10393
0
LINE
8
BLACK
6
CONTINUOUS
10
3.48398
20
-3.10393
11
3.48391
21
-3.10398
0
LINE
8
BLACK
6
CONTINUOUS
10
3.48391
20
-3.10398
11
3.48384
21
-3.10403
0
LINE
8
BLACK
6
CONTINUOUS
10
3.48384
20
-3.10403
11
3.47697
21
-3.10774
0
LINE
8
BLACK
6
CONTINUOUS
10
3.47697
20
-3.10774
11
3.47696
21
-3.10775
0
LINE
8
BLACK
6
CONTINUOUS
10
3.47696
20
-3.10775
11
3.47687
21
-3.10778
0
LINE
8
BLACK
6
CONTINUOUS
10
3.47687
20
-3.10778
11
3.47679
21
-3.10781
0
LINE
8
BLACK
6
CONTINUOUS
10
3.47679
20
-3.10781
11
3.46933
21
-3.11012
0
LINE
8
BLACK
6
CONTINUOUS
10
3.46933
20
-3.11012
11
3.46932
21
-3.11013
0
LINE
8
BLACK
6
CONTINUOUS
10
3.46932
20
-3.11013
11
3.46923
21
-3.11014
0
LINE
8
BLACK
6
CONTINUOUS
10
3.46923
20
-3.11014
11
3.46915
21
-3.11016
0
LINE
8
BLACK
6
CONTINUOUS
10
3.46915
20
-3.11016
11
3.46138
21
-3.11098
0
LINE
8
BLACK
6
CONTINUOUS
10
3.46138
20
-3.11098
11
3.46137
21
-3.11098
0
LINE
8
BLACK
6
CONTINUOUS
10
3.46137
20
-3.11098
11
3.46133
21
-3.11098
0
LINE
8
BLACK
6
CONTINUOUS
10
3.46133
20
-3.11098
11
3.46128
21
-3.11098
0
LINE
8
BLACK
6
CONTINUOUS
10
3.46128
20
-3.11098
11
3.46105
21
-3.11098
0
LINE
8
BLACK
6
CONTINUOUS
10
3.46105
20
-3.11098
11
3.46105
21
-3.11098
0
LINE
8
BLACK
6
CONTINUOUS
10
3.46105
20
-3.11098
11
1.87195
21
-3.11098
0
LINE
8
BLACK
6
CONTINUOUS
10
1.87195
20
-3.11098
11
1.8719
21
-3.11098
0
LINE
8
BLACK
6
CONTINUOUS
10
1.502
20
-1.85698
11
1.50177
21
-1.85699
0
LINE
8
BLACK
6
CONTINUOUS
10
1.50177
20
-1.85699
11
1.49416
21
-1.85779
0
LINE
8
BLACK
6
CONTINUOUS
10
1.49416
20
-1.85779
11
1.48688
21
-1.86004
0
LINE
8
BLACK
6
CONTINUOUS
10
1.48688
20
-1.86004
11
1.48019
21
-1.86366
0
LINE
8
BLACK
6
CONTINUOUS
10
1.48019
20
-1.86366
11
1.47432
21
-1.86851
0
LINE
8
BLACK
6
CONTINUOUS
10
1.47432
20
-1.86851
11
1.46951
21
-1.87441
0
LINE
8
BLACK
6
CONTINUOUS
10
1.46951
20
-1.87441
11
1.46593
21
-1.88113
0
LINE
8
BLACK
6
CONTINUOUS
10
1.46593
20
-1.88113
11
1.46373
21
-1.88842
0
LINE
8
BLACK
6
CONTINUOUS
10
1.46373
20
-1.88842
11
1.46298
21
-1.89605
0
LINE
8
BLACK
6
CONTINUOUS
10
1.46298
20
-1.89605
11
1.46298
21
-2.611
0
LINE
8
BLACK
6
CONTINUOUS
10
1.46298
20
-2.611
11
1.46299
21
-2.61123
0
LINE
8
BLACK
6
CONTINUOUS
10
1.46299
20
-2.61123
11
1.46379
21
-2.61884
0
LINE
8
BLACK
6
CONTINUOUS
10
1.46379
20
-2.61884
11
1.46604
21
-2.62612
0
LINE
8
BLACK
6
CONTINUOUS
10
1.46604
20
-2.62612
11
1.46966
21
-2.63281
0
LINE
8
BLACK
6
CONTINUOUS
10
1.46966
20
-2.63281
11
1.47451
21
-2.63868
0
LINE
8
BLACK
6
CONTINUOUS
10
1.47451
20
-2.63868
11
1.48041
21
-2.64349
0
LINE
8
BLACK
6
CONTINUOUS
10
1.48041
20
-2.64349
11
1.48713
21
-2.64707
0
LINE
8
BLACK
6
CONTINUOUS
10
1.48713
20
-2.64707
11
1.49442
21
-2.64927
0
LINE
8
BLACK
6
CONTINUOUS
10
1.49442
20
-2.64927
11
1.50205
21
-2.65002
0
LINE
8
BLACK
6
CONTINUOUS
10
1.50205
20
-2.65002
11
1.79205
21
-2.65002
0
LINE
8
BLACK
6
CONTINUOUS
10
1.79205
20
-2.65002
11
1.7921
21
-2.65002
0
LINE
8
BLACK
6
CONTINUOUS
10
1.7921
20
-2.65002
11
1.7921
21
-2.65002
0
LINE
8
BLACK
6
CONTINUOUS
10
1.7921
20
-2.65002
11
1.79987
21
-2.65078
0
LINE
8
BLACK
6
CONTINUOUS
10
1.79987
20
-2.65078
11
1.79988
21
-2.65078
0
LINE
8
BLACK
6
CONTINUOUS
10
1.79988
20
-2.65078
11
1.79997
21
-2.6508
0
LINE
8
BLACK
6
CONTINUOUS
10
1.79997
20
-2.6508
11
1.80005
21
-2.65082
0
LINE
8
BLACK
6
CONTINUOUS
10
1.80005
20
-2.65082
11
1.80753
21
-2.65308
0
LINE
8
BLACK
6
CONTINUOUS
10
1.80753
20
-2.65308
11
1.80754
21
-2.65308
0
LINE
8
BLACK
6
CONTINUOUS
10
1.80754
20
-2.65308
11
1.80762
21
-2.65312
0
LINE
8
BLACK
6
CONTINUOUS
10
1.80762
20
-2.65312
11
1.8077
21
-2.65315
0
LINE
8
BLACK
6
CONTINUOUS
10
1.8077
20
-2.65315
11
1.8146
21
-2.65681
0
LINE
8
BLACK
6
CONTINUOUS
10
1.8146
20
-2.65681
11
1.81461
21
-2.65682
0
LINE
8
BLACK
6
CONTINUOUS
10
1.81461
20
-2.65682
11
1.81468
21
-2.65687
0
LINE
8
BLACK
6
CONTINUOUS
10
1.81468
20
-2.65687
11
1.81476
21
-2.65692
0
LINE
8
BLACK
6
CONTINUOUS
10
1.81476
20
-2.65692
11
1.82081
21
-2.66185
0
LINE
8
BLACK
6
CONTINUOUS
10
1.82081
20
-2.66185
11
1.82082
21
-2.66186
0
LINE
8
BLACK
6
CONTINUOUS
10
1.82082
20
-2.66186
11
1.82088
21
-2.66193
0
LINE
8
BLACK
6
CONTINUOUS
10
1.82088
20
-2.66193
11
1.82094
21
-2.66199
0
LINE
8
BLACK
6
CONTINUOUS
10
1.82094
20
-2.66199
11
1.82592
21
-2.668
0
LINE
8
BLACK
6
CONTINUOUS
10
1.82592
20
-2.668
11
1.82592
21
-2.668
0
LINE
8
BLACK
6
CONTINUOUS
10
1.82592
20
-2.668
11
1.82592
21
-2.66801
0
LINE
8
BLACK
6
CONTINUOUS
10
1.82592
20
-2.66801
11
1.82593
21
-2.66802
0
LINE
8
BLACK
6
CONTINUOUS
10
1.82593
20
-2.66802
11
1.82598
21
-2.66809
0
LINE
8
BLACK
6
CONTINUOUS
10
1.82598
20
-2.66809
11
1.82603
21
-2.66816
0
LINE
8
BLACK
6
CONTINUOUS
10
1.82603
20
-2.66816
11
1.82974
21
-2.67503
0
LINE
8
BLACK
6
CONTINUOUS
10
1.82974
20
-2.67503
11
1.82975
21
-2.67504
0
LINE
8
BLACK
6
CONTINUOUS
10
1.82975
20
-2.67504
11
1.82978
21
-2.67513
0
LINE
8
BLACK
6
CONTINUOUS
10
1.82978
20
-2.67513
11
1.82981
21
-2.67521
0
LINE
8
BLACK
6
CONTINUOUS
10
1.82981
20
-2.67521
11
1.83212
21
-2.68267
0
LINE
8
BLACK
6
CONTINUOUS
10
1.83212
20
-2.68267
11
1.83213
21
-2.68268
0
LINE
8
BLACK
6
CONTINUOUS
10
1.83213
20
-2.68268
11
1.83214
21
-2.68277
0
LINE
8
BLACK
6
CONTINUOUS
10
1.83214
20
-2.68277
11
1.83216
21
-2.68285
0
LINE
8
BLACK
6
CONTINUOUS
10
1.83216
20
-2.68285
11
1.83298
21
-2.69062
0
LINE
8
BLACK
6
CONTINUOUS
10
1.83298
20
-2.69062
11
1.83298
21
-2.69063
0
LINE
8
BLACK
6
CONTINUOUS
10
1.83298
20
-2.69063
11
1.83298
21
-2.69067
0
LINE
8
BLACK
6
CONTINUOUS
10
1.83298
20
-2.69067
11
1.83298
21
-2.69072
0
LINE
8
BLACK
6
CONTINUOUS
10
1.83298
20
-2.69072
11
1.83298
21
-2.69095
0
LINE
8
BLACK
6
CONTINUOUS
10
1.83298
20
-2.69095
11
1.83298
21
-2.69095
0
LINE
8
BLACK
6
CONTINUOUS
10
1.83298
20
-2.69095
11
1.83298
21
-3.07
0
LINE
8
BLACK
6
CONTINUOUS
10
1.83298
20
-3.07
11
1.83299
21
-3.07023
0
LINE
8
BLACK
6
CONTINUOUS
10
1.83299
20
-3.07023
11
1.83379
21
-3.07784
0
LINE
8
BLACK
6
CONTINUOUS
10
1.83379
20
-3.07784
11
1.83604
21
-3.08512
0
LINE
8
BLACK
6
CONTINUOUS
10
1.83604
20
-3.08512
11
1.83966
21
-3.09181
0
LINE
8
BLACK
6
CONTINUOUS
10
1.83966
20
-3.09181
11
1.84451
21
-3.09768
0
LINE
8
BLACK
6
CONTINUOUS
10
1.84451
20
-3.09768
11
1.85041
21
-3.10249
0
LINE
8
BLACK
6
CONTINUOUS
10
1.85041
20
-3.10249
11
1.85713
21
-3.10607
0
LINE
8
BLACK
6
CONTINUOUS
10
1.85713
20
-3.10607
11
1.86442
21
-3.10827
0
LINE
8
BLACK
6
CONTINUOUS
10
1.86442
20
-3.10827
11
1.87205
21
-3.10902
0
LINE
8
BLACK
6
CONTINUOUS
10
1.87205
20
-3.10902
11
3.461
21
-3.10902
0
LINE
8
BLACK
6
CONTINUOUS
10
3.461
20
-3.10902
11
3.46123
21
-3.10901
0
LINE
8
BLACK
6
CONTINUOUS
10
3.46123
20
-3.10901
11
3.46884
21
-3.10821
0
LINE
8
BLACK
6
CONTINUOUS
10
3.46884
20
-3.10821
11
3.47612
21
-3.10596
0
LINE
8
BLACK
6
CONTINUOUS
10
3.47612
20
-3.10596
11
3.48281
21
-3.10234
0
LINE
8
BLACK
6
CONTINUOUS
10
3.48281
20
-3.10234
11
3.48868
21
-3.09749
0
LINE
8
BLACK
6
CONTINUOUS
10
3.48868
20
-3.09749
11
3.49349
21
-3.09159
0
LINE
8
BLACK
6
CONTINUOUS
10
3.49349
20
-3.09159
11
3.49707
21
-3.08487
0
LINE
8
BLACK
6
CONTINUOUS
10
3.49707
20
-3.08487
11
3.49927
21
-3.07758
0
LINE
8
BLACK
6
CONTINUOUS
10
3.49927
20
-3.07758
11
3.50002
21
-3.06995
0
LINE
8
BLACK
6
CONTINUOUS
10
3.50002
20
-3.06995
11
3.50002
21
-1.896
0
LINE
8
BLACK
6
CONTINUOUS
10
3.50002
20
-1.896
11
3.50002
21
-1.896
0
LINE
8
BLACK
6
CONTINUOUS
10
3.50002
20
-1.896
11
3.50001
21
-1.89577
0
LINE
8
BLACK
6
CONTINUOUS
10
3.50001
20
-1.89577
11
3.49921
21
-1.88816
0
LINE
8
BLACK
6
CONTINUOUS
10
3.49921
20
-1.88816
11
3.49696
21
-1.88088
0
LINE
8
BLACK
6
CONTINUOUS
10
3.49696
20
-1.88088
11
3.49334
21
-1.87419
0
LINE
8
BLACK
6
CONTINUOUS
10
3.49334
20
-1.87419
11
3.48849
21
-1.86832
0
LINE
8
BLACK
6
CONTINUOUS
10
3.48849
20
-1.86832
11
3.48259
21
-1.86351
0
LINE
8
BLACK
6
CONTINUOUS
10
3.48259
20
-1.86351
11
3.47587
21
-1.85993
0
LINE
8
BLACK
6
CONTINUOUS
10
3.47587
20
-1.85993
11
3.46858
21
-1.85773
0
LINE
8
BLACK
6
CONTINUOUS
10
3.46858
20
-1.85773
11
3.46095
21
-1.85698
0
LINE
8
BLACK
6
CONTINUOUS
10
3.46095
20
-1.85698
11
1.502
21
-1.85698
  0
ENDSEC
  0
EOF
