<?xml version="1.0" standalone="no"?>
 <!DOCTYPE svg PUBLIC "-//W3C//DTD SVG 1.1//EN" 
 "http://www.w3.org/Graphics/SVG/1.1/DTD/svg11.dtd"> 
<svg
  xmlns:svg="http://www.w3.org/2000/svg"
  xmlns="http://www.w3.org/2000/svg"
  xmlns:xlink="http://www.w3.org/1999/xlink"
  version="1.1"
  width="29.700220cm" height="21.000720cm" viewBox="0 0 116930 82680">
<title>SVG Picture created as FanExpander-kicad-B_Paste.svg date 2022/01/28 14:18:49 </title>
  <desc>Picture generated by PCBNEW </desc>
<g style="fill:#000000; fill-opacity:1;stroke:#000000; stroke-opacity:1;
stroke-linecap:round; stroke-linejoin:round;"
 transform="translate(0 0) scale(1 1)">
</g>
<g style="fill:#000000; fill-opacity:0.0; 
stroke:#000000; stroke-width:-0.000393701; stroke-opacity:1; 
stroke-linecap:round; stroke-linejoin:round;">
<g >
</g>
<g style="fill:#000000; fill-opacity:0.0; 
stroke:#000000; stroke-width:0; stroke-opacity:1; 
stroke-linecap:round; stroke-linejoin:round;">
</g>
<g style="fill:#000000; fill-opacity:1.0; 
stroke:#000000; stroke-width:0; stroke-opacity:1; 
stroke-linecap:round; stroke-linejoin:round;">
<path style="fill:#000000; fill-opacity:1.0; 
stroke:#000000; stroke-width:0; stroke-opacity:1; 
stroke-linecap:round; stroke-linejoin:round;fill-rule:evenodd;"
d="M 21489.3,20335.9
21496.6,20336.9
21503.7,20338.7
21510.6,20341.2
21517.2,20344.3
21523.5,20348.1
21529.4,20352.5
21534.9,20357.4
21539.8,20362.9
21544.2,20368.8
21547.9,20375.1
21551.1,20381.7
21553.6,20388.6
21555.3,20395.7
21556.4,20403
21556.8,20410.3
21556.8,20949.7
21556.4,20957
21555.3,20964.3
21553.6,20971.4
21551.1,20978.3
21547.9,20984.9
21544.2,20991.2
21539.8,20997.1
21534.9,21002.6
21529.4,21007.5
21523.5,21011.9
21517.2,21015.7
21510.6,21018.8
21503.7,21021.3
21496.6,21023.1
21489.3,21024.1
21482,21024.5
21257.6,21024.5
21250.2,21024.1
21243,21023.1
21235.8,21021.3
21228.9,21018.8
21222.3,21015.7
21216,21011.9
21210.1,21007.5
21204.7,21002.6
21199.7,20997.1
21195.4,20991.2
21191.6,20984.9
21188.5,20978.3
21186,20971.4
21184.2,20964.3
21183.1,20957
21182.8,20949.7
21182.8,20410.3
21183.1,20403
21184.2,20395.7
21186,20388.6
21188.5,20381.7
21191.6,20375.1
21195.4,20368.8
21199.7,20362.9
21204.7,20357.4
21210.1,20352.5
21216,20348.1
21222.3,20344.3
21228.9,20341.2
21235.8,20338.7
21243,20336.9
21250.2,20335.9
21257.6,20335.5
21482,20335.5
Z" /> 
<path style="fill:#000000; fill-opacity:1.0; 
stroke:#000000; stroke-width:0; stroke-opacity:1; 
stroke-linecap:round; stroke-linejoin:round;fill-rule:evenodd;"
d="M 22709.8,20335.9
22717,20336.9
22724.2,20338.7
22731.1,20341.2
22737.7,20344.3
22744,20348.1
22749.9,20352.5
22755.3,20357.4
22760.3,20362.9
22764.6,20368.8
22768.4,20375.1
22771.5,20381.7
22774,20388.6
22775.8,20395.7
22776.9,20403
22777.2,20410.3
22777.2,20949.7
22776.9,20957
22775.8,20964.3
22774,20971.4
22771.5,20978.3
22768.4,20984.9
22764.6,20991.2
22760.3,20997.1
22755.3,21002.6
22749.9,21007.5
22744,21011.9
22737.7,21015.7
22731.1,21018.8
22724.2,21021.3
22717,21023.1
22709.8,21024.1
22702.4,21024.5
22478,21024.5
22470.7,21024.1
22463.4,21023.1
22456.3,21021.3
22449.4,21018.8
22442.8,21015.7
22436.5,21011.9
22430.6,21007.5
22425.1,21002.6
22420.2,20997.1
22415.8,20991.2
22412.1,20984.9
22408.9,20978.3
22406.4,20971.4
22404.7,20964.3
22403.6,20957
22403.2,20949.7
22403.2,20410.3
22403.6,20403
22404.7,20395.7
22406.4,20388.6
22408.9,20381.7
22412.1,20375.1
22415.8,20368.8
22420.2,20362.9
22425.1,20357.4
22430.6,20352.5
22436.5,20348.1
22442.8,20344.3
22449.4,20341.2
22456.3,20338.7
22463.4,20336.9
22470.7,20335.9
22478,20335.5
22702.4,20335.5
Z" /> 
</g>
<g >
</g>
<g >
</g>
<g >
</g>
<g >
</g>
<g >
</g>
<g >
</g>
<g >
</g>
<g >
</g>
<g >
</g>
<g >
</g>
<g style="fill:#000000; fill-opacity:1.0; 
stroke:#000000; stroke-width:0; stroke-opacity:1; 
stroke-linecap:round; stroke-linejoin:round;">
<path style="fill:#000000; fill-opacity:1.0; 
stroke:#000000; stroke-width:0; stroke-opacity:1; 
stroke-linecap:round; stroke-linejoin:round;fill-rule:evenodd;"
d="M 27715.9,24303.5
27715.9,24618.5
27361.5,24618.5
27361.5,24303.5
Z" /> 
<path style="fill:#000000; fill-opacity:1.0; 
stroke:#000000; stroke-width:0; stroke-opacity:1; 
stroke-linecap:round; stroke-linejoin:round;fill-rule:evenodd;"
d="M 27715.9,25051.5
27715.9,25366.5
27361.5,25366.5
27361.5,25051.5
Z" /> 
<path style="fill:#000000; fill-opacity:1.0; 
stroke:#000000; stroke-width:0; stroke-opacity:1; 
stroke-linecap:round; stroke-linejoin:round;fill-rule:evenodd;"
d="M 26928.5,24677.5
26928.5,24992.5
26574.1,24992.5
26574.1,24677.5
Z" /> 
</g>
<g >
</g>
<g style="fill:#000000; fill-opacity:1.0; 
stroke:#000000; stroke-width:0; stroke-opacity:1; 
stroke-linecap:round; stroke-linejoin:round;">
<path style="fill:#000000; fill-opacity:1.0; 
stroke:#000000; stroke-width:0; stroke-opacity:1; 
stroke-linecap:round; stroke-linejoin:round;fill-rule:evenodd;"
d="M 27715.9,20198.5
27715.9,20513.5
27361.5,20513.5
27361.5,20198.5
Z" /> 
<path style="fill:#000000; fill-opacity:1.0; 
stroke:#000000; stroke-width:0; stroke-opacity:1; 
stroke-linecap:round; stroke-linejoin:round;fill-rule:evenodd;"
d="M 27715.9,20946.5
27715.9,21261.5
27361.5,21261.5
27361.5,20946.5
Z" /> 
<path style="fill:#000000; fill-opacity:1.0; 
stroke:#000000; stroke-width:0; stroke-opacity:1; 
stroke-linecap:round; stroke-linejoin:round;fill-rule:evenodd;"
d="M 26928.5,20572.5
26928.5,20887.5
26574.1,20887.5
26574.1,20572.5
Z" /> 
</g>
<g >
</g>
<g style="fill:#000000; fill-opacity:1.0; 
stroke:#000000; stroke-width:0; stroke-opacity:1; 
stroke-linecap:round; stroke-linejoin:round;">
<path style="fill:#000000; fill-opacity:1.0; 
stroke:#000000; stroke-width:0; stroke-opacity:1; 
stroke-linecap:round; stroke-linejoin:round;fill-rule:evenodd;"
d="M 31160.9,24303.5
31160.9,24618.5
30806.5,24618.5
30806.5,24303.5
Z" /> 
<path style="fill:#000000; fill-opacity:1.0; 
stroke:#000000; stroke-width:0; stroke-opacity:1; 
stroke-linecap:round; stroke-linejoin:round;fill-rule:evenodd;"
d="M 31160.9,25051.5
31160.9,25366.5
30806.5,25366.5
30806.5,25051.5
Z" /> 
<path style="fill:#000000; fill-opacity:1.0; 
stroke:#000000; stroke-width:0; stroke-opacity:1; 
stroke-linecap:round; stroke-linejoin:round;fill-rule:evenodd;"
d="M 30373.5,24677.5
30373.5,24992.5
30019.1,24992.5
30019.1,24677.5
Z" /> 
</g>
<g >
</g>
<g style="fill:#000000; fill-opacity:1.0; 
stroke:#000000; stroke-width:0; stroke-opacity:1; 
stroke-linecap:round; stroke-linejoin:round;">
<path style="fill:#000000; fill-opacity:1.0; 
stroke:#000000; stroke-width:0; stroke-opacity:1; 
stroke-linecap:round; stroke-linejoin:round;fill-rule:evenodd;"
d="M 31150.9,20198.5
31150.9,20513.5
30796.5,20513.5
30796.5,20198.5
Z" /> 
<path style="fill:#000000; fill-opacity:1.0; 
stroke:#000000; stroke-width:0; stroke-opacity:1; 
stroke-linecap:round; stroke-linejoin:round;fill-rule:evenodd;"
d="M 31150.9,20946.5
31150.9,21261.5
30796.5,21261.5
30796.5,20946.5
Z" /> 
<path style="fill:#000000; fill-opacity:1.0; 
stroke:#000000; stroke-width:0; stroke-opacity:1; 
stroke-linecap:round; stroke-linejoin:round;fill-rule:evenodd;"
d="M 30363.5,20572.5
30363.5,20887.5
30009.1,20887.5
30009.1,20572.5
Z" /> 
</g>
<g >
</g>
<g style="fill:#000000; fill-opacity:1.0; 
stroke:#000000; stroke-width:0; stroke-opacity:1; 
stroke-linecap:round; stroke-linejoin:round;">
<path style="fill:#000000; fill-opacity:1.0; 
stroke:#000000; stroke-width:0; stroke-opacity:1; 
stroke-linecap:round; stroke-linejoin:round;fill-rule:evenodd;"
d="M 34585.9,24303.5
34585.9,24618.5
34231.5,24618.5
34231.5,24303.5
Z" /> 
<path style="fill:#000000; fill-opacity:1.0; 
stroke:#000000; stroke-width:0; stroke-opacity:1; 
stroke-linecap:round; stroke-linejoin:round;fill-rule:evenodd;"
d="M 34585.9,25051.5
34585.9,25366.5
34231.5,25366.5
34231.5,25051.5
Z" /> 
<path style="fill:#000000; fill-opacity:1.0; 
stroke:#000000; stroke-width:0; stroke-opacity:1; 
stroke-linecap:round; stroke-linejoin:round;fill-rule:evenodd;"
d="M 33798.5,24677.5
33798.5,24992.5
33444.1,24992.5
33444.1,24677.5
Z" /> 
</g>
<g >
</g>
<g >
</g>
<g >
</g>
<g >
</g>
<g >
</g>
<g style="fill:#000000; fill-opacity:1.0; 
stroke:#000000; stroke-width:0; stroke-opacity:1; 
stroke-linecap:round; stroke-linejoin:round;">
<path style="fill:#000000; fill-opacity:1.0; 
stroke:#000000; stroke-width:0; stroke-opacity:1; 
stroke-linecap:round; stroke-linejoin:round;fill-rule:evenodd;"
d="M 24290.9,20198.5
24290.9,20513.5
23936.5,20513.5
23936.5,20198.5
Z" /> 
<path style="fill:#000000; fill-opacity:1.0; 
stroke:#000000; stroke-width:0; stroke-opacity:1; 
stroke-linecap:round; stroke-linejoin:round;fill-rule:evenodd;"
d="M 24290.9,20946.5
24290.9,21261.5
23936.5,21261.5
23936.5,20946.5
Z" /> 
<path style="fill:#000000; fill-opacity:1.0; 
stroke:#000000; stroke-width:0; stroke-opacity:1; 
stroke-linecap:round; stroke-linejoin:round;fill-rule:evenodd;"
d="M 23503.5,20572.5
23503.5,20887.5
23149.1,20887.5
23149.1,20572.5
Z" /> 
</g>
<g >
</g>
<g style="fill:#000000; fill-opacity:1.0; 
stroke:#000000; stroke-width:0; stroke-opacity:1; 
stroke-linecap:round; stroke-linejoin:round;">
<path style="fill:#000000; fill-opacity:1.0; 
stroke:#000000; stroke-width:0; stroke-opacity:1; 
stroke-linecap:round; stroke-linejoin:round;fill-rule:evenodd;"
d="M 34585.9,20188.5
34585.9,20503.5
34231.5,20503.5
34231.5,20188.5
Z" /> 
<path style="fill:#000000; fill-opacity:1.0; 
stroke:#000000; stroke-width:0; stroke-opacity:1; 
stroke-linecap:round; stroke-linejoin:round;fill-rule:evenodd;"
d="M 34585.9,20936.5
34585.9,21251.5
34231.5,21251.5
34231.5,20936.5
Z" /> 
<path style="fill:#000000; fill-opacity:1.0; 
stroke:#000000; stroke-width:0; stroke-opacity:1; 
stroke-linecap:round; stroke-linejoin:round;fill-rule:evenodd;"
d="M 33798.5,20562.5
33798.5,20877.5
33444.1,20877.5
33444.1,20562.5
Z" /> 
</g>
<g >
</g>
<g >
</g>
<g >
</g>
<g >
</g>
<g >
</g>
<g style="fill:#000000; fill-opacity:1.0; 
stroke:#000000; stroke-width:0; stroke-opacity:1; 
stroke-linecap:round; stroke-linejoin:round;">
<path style="fill:#000000; fill-opacity:1.0; 
stroke:#000000; stroke-width:0; stroke-opacity:1; 
stroke-linecap:round; stroke-linejoin:round;fill-rule:evenodd;"
d="M 31987.2,19463.7
31632.8,19463.7
31632.8,19266.9
31987.2,19266.9
Z" /> 
<path style="fill:#000000; fill-opacity:1.0; 
stroke:#000000; stroke-width:0; stroke-opacity:1; 
stroke-linecap:round; stroke-linejoin:round;fill-rule:evenodd;"
d="M 31987.2,18873.1
31632.8,18873.1
31632.8,18676.3
31987.2,18676.3
Z" /> 
</g>
<g >
</g>
<g style="fill:#000000; fill-opacity:1.0; 
stroke:#000000; stroke-width:0; stroke-opacity:1; 
stroke-linecap:round; stroke-linejoin:round;">
<path style="fill:#000000; fill-opacity:1.0; 
stroke:#000000; stroke-width:0; stroke-opacity:1; 
stroke-linecap:round; stroke-linejoin:round;fill-rule:evenodd;"
d="M 34066.3,19331.9
34066.3,18977.6
34263.1,18977.6
34263.1,19331.9
Z" /> 
<path style="fill:#000000; fill-opacity:1.0; 
stroke:#000000; stroke-width:0; stroke-opacity:1; 
stroke-linecap:round; stroke-linejoin:round;fill-rule:evenodd;"
d="M 34656.9,19331.9
34656.9,18977.6
34853.7,18977.6
34853.7,19331.9
Z" /> 
</g>
<g >
</g>
<g style="fill:#000000; fill-opacity:1.0; 
stroke:#000000; stroke-width:0; stroke-opacity:1; 
stroke-linecap:round; stroke-linejoin:round;">
<path style="fill:#000000; fill-opacity:1.0; 
stroke:#000000; stroke-width:0; stroke-opacity:1; 
stroke-linecap:round; stroke-linejoin:round;fill-rule:evenodd;"
d="M 34843.7,23662.8
34843.7,24017.2
34646.9,24017.2
34646.9,23662.8
Z" /> 
<path style="fill:#000000; fill-opacity:1.0; 
stroke:#000000; stroke-width:0; stroke-opacity:1; 
stroke-linecap:round; stroke-linejoin:round;fill-rule:evenodd;"
d="M 34253.1,23662.8
34253.1,24017.2
34056.3,24017.2
34056.3,23662.8
Z" /> 
</g>
<g >
</g>
<g style="fill:#000000; fill-opacity:1.0; 
stroke:#000000; stroke-width:0; stroke-opacity:1; 
stroke-linecap:round; stroke-linejoin:round;">
<path style="fill:#000000; fill-opacity:1.0; 
stroke:#000000; stroke-width:0; stroke-opacity:1; 
stroke-linecap:round; stroke-linejoin:round;fill-rule:evenodd;"
d="M 34853.7,19552.8
34853.7,19907.2
34656.9,19907.2
34656.9,19552.8
Z" /> 
<path style="fill:#000000; fill-opacity:1.0; 
stroke:#000000; stroke-width:0; stroke-opacity:1; 
stroke-linecap:round; stroke-linejoin:round;fill-rule:evenodd;"
d="M 34263.1,19552.8
34263.1,19907.2
34066.3,19907.2
34066.3,19552.8
Z" /> 
</g>
<g >
</g>
<g style="fill:#000000; fill-opacity:1.0; 
stroke:#000000; stroke-width:0; stroke-opacity:1; 
stroke-linecap:round; stroke-linejoin:round;">
<path style="fill:#000000; fill-opacity:1.0; 
stroke:#000000; stroke-width:0; stroke-opacity:1; 
stroke-linecap:round; stroke-linejoin:round;fill-rule:evenodd;"
d="M 21707.2,19468.4
21352.8,19468.4
21352.8,19271.6
21707.2,19271.6
Z" /> 
<path style="fill:#000000; fill-opacity:1.0; 
stroke:#000000; stroke-width:0; stroke-opacity:1; 
stroke-linecap:round; stroke-linejoin:round;fill-rule:evenodd;"
d="M 21707.2,18877.9
21352.8,18877.9
21352.8,18681
21707.2,18681
Z" /> 
</g>
<g >
</g>
<g style="fill:#000000; fill-opacity:1.0; 
stroke:#000000; stroke-width:0; stroke-opacity:1; 
stroke-linecap:round; stroke-linejoin:round;">
<path style="fill:#000000; fill-opacity:1.0; 
stroke:#000000; stroke-width:0; stroke-opacity:1; 
stroke-linecap:round; stroke-linejoin:round;fill-rule:evenodd;"
d="M 25127.2,23553.7
24772.8,23553.7
24772.8,23356.9
25127.2,23356.9
Z" /> 
<path style="fill:#000000; fill-opacity:1.0; 
stroke:#000000; stroke-width:0; stroke-opacity:1; 
stroke-linecap:round; stroke-linejoin:round;fill-rule:evenodd;"
d="M 25127.2,22963.1
24772.8,22963.1
24772.8,22766.3
25127.2,22766.3
Z" /> 
</g>
<g >
</g>
<g style="fill:#000000; fill-opacity:1.0; 
stroke:#000000; stroke-width:0; stroke-opacity:1; 
stroke-linecap:round; stroke-linejoin:round;">
<path style="fill:#000000; fill-opacity:1.0; 
stroke:#000000; stroke-width:0; stroke-opacity:1; 
stroke-linecap:round; stroke-linejoin:round;fill-rule:evenodd;"
d="M 25127.2,19473.7
24772.8,19473.7
24772.8,19276.9
25127.2,19276.9
Z" /> 
<path style="fill:#000000; fill-opacity:1.0; 
stroke:#000000; stroke-width:0; stroke-opacity:1; 
stroke-linecap:round; stroke-linejoin:round;fill-rule:evenodd;"
d="M 25127.2,18883.1
24772.8,18883.1
24772.8,18686.3
25127.2,18686.3
Z" /> 
</g>
<g >
</g>
<g style="fill:#000000; fill-opacity:1.0; 
stroke:#000000; stroke-width:0; stroke-opacity:1; 
stroke-linecap:round; stroke-linejoin:round;">
<path style="fill:#000000; fill-opacity:1.0; 
stroke:#000000; stroke-width:0; stroke-opacity:1; 
stroke-linecap:round; stroke-linejoin:round;fill-rule:evenodd;"
d="M 28557.2,23573.7
28202.8,23573.7
28202.8,23376.9
28557.2,23376.9
Z" /> 
<path style="fill:#000000; fill-opacity:1.0; 
stroke:#000000; stroke-width:0; stroke-opacity:1; 
stroke-linecap:round; stroke-linejoin:round;fill-rule:evenodd;"
d="M 28557.2,22983.1
28202.8,22983.1
28202.8,22786.3
28557.2,22786.3
Z" /> 
</g>
<g >
</g>
<g style="fill:#000000; fill-opacity:1.0; 
stroke:#000000; stroke-width:0; stroke-opacity:1; 
stroke-linecap:round; stroke-linejoin:round;">
<path style="fill:#000000; fill-opacity:1.0; 
stroke:#000000; stroke-width:0; stroke-opacity:1; 
stroke-linecap:round; stroke-linejoin:round;fill-rule:evenodd;"
d="M 23766.3,19337.2
23766.3,18982.8
23963.1,18982.8
23963.1,19337.2
Z" /> 
<path style="fill:#000000; fill-opacity:1.0; 
stroke:#000000; stroke-width:0; stroke-opacity:1; 
stroke-linecap:round; stroke-linejoin:round;fill-rule:evenodd;"
d="M 24356.9,19337.2
24356.9,18982.8
24553.7,18982.8
24553.7,19337.2
Z" /> 
</g>
<g >
</g>
<g style="fill:#000000; fill-opacity:1.0; 
stroke:#000000; stroke-width:0; stroke-opacity:1; 
stroke-linecap:round; stroke-linejoin:round;">
<path style="fill:#000000; fill-opacity:1.0; 
stroke:#000000; stroke-width:0; stroke-opacity:1; 
stroke-linecap:round; stroke-linejoin:round;fill-rule:evenodd;"
d="M 27196.3,23447.2
27196.3,23092.8
27393.1,23092.8
27393.1,23447.2
Z" /> 
<path style="fill:#000000; fill-opacity:1.0; 
stroke:#000000; stroke-width:0; stroke-opacity:1; 
stroke-linecap:round; stroke-linejoin:round;fill-rule:evenodd;"
d="M 27786.9,23447.2
27786.9,23092.8
27983.7,23092.8
27983.7,23447.2
Z" /> 
</g>
<g >
</g>
<g style="fill:#000000; fill-opacity:1.0; 
stroke:#000000; stroke-width:0; stroke-opacity:1; 
stroke-linecap:round; stroke-linejoin:round;">
<path style="fill:#000000; fill-opacity:1.0; 
stroke:#000000; stroke-width:0; stroke-opacity:1; 
stroke-linecap:round; stroke-linejoin:round;fill-rule:evenodd;"
d="M 27186.3,19347.2
27186.3,18992.8
27383.1,18992.8
27383.1,19347.2
Z" /> 
<path style="fill:#000000; fill-opacity:1.0; 
stroke:#000000; stroke-width:0; stroke-opacity:1; 
stroke-linecap:round; stroke-linejoin:round;fill-rule:evenodd;"
d="M 27776.9,19347.2
27776.9,18992.8
27973.7,18992.8
27973.7,19347.2
Z" /> 
</g>
<g >
</g>
<g style="fill:#000000; fill-opacity:1.0; 
stroke:#000000; stroke-width:0; stroke-opacity:1; 
stroke-linecap:round; stroke-linejoin:round;">
<path style="fill:#000000; fill-opacity:1.0; 
stroke:#000000; stroke-width:0; stroke-opacity:1; 
stroke-linecap:round; stroke-linejoin:round;fill-rule:evenodd;"
d="M 30636.3,23457.2
30636.3,23102.8
30833.1,23102.8
30833.1,23457.2
Z" /> 
<path style="fill:#000000; fill-opacity:1.0; 
stroke:#000000; stroke-width:0; stroke-opacity:1; 
stroke-linecap:round; stroke-linejoin:round;fill-rule:evenodd;"
d="M 31226.9,23457.2
31226.9,23102.8
31423.7,23102.8
31423.7,23457.2
Z" /> 
</g>
<g >
</g>
<g style="fill:#000000; fill-opacity:1.0; 
stroke:#000000; stroke-width:0; stroke-opacity:1; 
stroke-linecap:round; stroke-linejoin:round;">
<path style="fill:#000000; fill-opacity:1.0; 
stroke:#000000; stroke-width:0; stroke-opacity:1; 
stroke-linecap:round; stroke-linejoin:round;fill-rule:evenodd;"
d="M 24553.7,19562.8
24553.7,19917.2
24356.9,19917.2
24356.9,19562.8
Z" /> 
<path style="fill:#000000; fill-opacity:1.0; 
stroke:#000000; stroke-width:0; stroke-opacity:1; 
stroke-linecap:round; stroke-linejoin:round;fill-rule:evenodd;"
d="M 23963.1,19562.8
23963.1,19917.2
23766.3,19917.2
23766.3,19562.8
Z" /> 
</g>
<g >
</g>
<g style="fill:#000000; fill-opacity:1.0; 
stroke:#000000; stroke-width:0; stroke-opacity:1; 
stroke-linecap:round; stroke-linejoin:round;">
<path style="fill:#000000; fill-opacity:1.0; 
stroke:#000000; stroke-width:0; stroke-opacity:1; 
stroke-linecap:round; stroke-linejoin:round;fill-rule:evenodd;"
d="M 27983.7,23672.8
27983.7,24027.2
27786.9,24027.2
27786.9,23672.8
Z" /> 
<path style="fill:#000000; fill-opacity:1.0; 
stroke:#000000; stroke-width:0; stroke-opacity:1; 
stroke-linecap:round; stroke-linejoin:round;fill-rule:evenodd;"
d="M 27393.1,23672.8
27393.1,24027.2
27196.3,24027.2
27196.3,23672.8
Z" /> 
</g>
<g >
</g>
<g style="fill:#000000; fill-opacity:1.0; 
stroke:#000000; stroke-width:0; stroke-opacity:1; 
stroke-linecap:round; stroke-linejoin:round;">
<path style="fill:#000000; fill-opacity:1.0; 
stroke:#000000; stroke-width:0; stroke-opacity:1; 
stroke-linecap:round; stroke-linejoin:round;fill-rule:evenodd;"
d="M 27186.3,19927.2
27186.3,19572.8
27383.1,19572.8
27383.1,19927.2
Z" /> 
<path style="fill:#000000; fill-opacity:1.0; 
stroke:#000000; stroke-width:0; stroke-opacity:1; 
stroke-linecap:round; stroke-linejoin:round;fill-rule:evenodd;"
d="M 27776.9,19927.2
27776.9,19572.8
27973.7,19572.8
27973.7,19927.2
Z" /> 
</g>
<g >
</g>
<g style="fill:#000000; fill-opacity:1.0; 
stroke:#000000; stroke-width:0; stroke-opacity:1; 
stroke-linecap:round; stroke-linejoin:round;">
<path style="fill:#000000; fill-opacity:1.0; 
stroke:#000000; stroke-width:0; stroke-opacity:1; 
stroke-linecap:round; stroke-linejoin:round;fill-rule:evenodd;"
d="M 30636.3,24027.2
30636.3,23672.8
30833.1,23672.8
30833.1,24027.2
Z" /> 
<path style="fill:#000000; fill-opacity:1.0; 
stroke:#000000; stroke-width:0; stroke-opacity:1; 
stroke-linecap:round; stroke-linejoin:round;fill-rule:evenodd;"
d="M 31226.9,24027.2
31226.9,23672.8
31423.7,23672.8
31423.7,24027.2
Z" /> 
</g>
<g >
</g>
<g style="fill:#000000; fill-opacity:1.0; 
stroke:#000000; stroke-width:0; stroke-opacity:1; 
stroke-linecap:round; stroke-linejoin:round;">
<path style="fill:#000000; fill-opacity:1.0; 
stroke:#000000; stroke-width:0; stroke-opacity:1; 
stroke-linecap:round; stroke-linejoin:round;fill-rule:evenodd;"
d="M 28557.2,19463.7
28202.8,19463.7
28202.8,19266.9
28557.2,19266.9
Z" /> 
<path style="fill:#000000; fill-opacity:1.0; 
stroke:#000000; stroke-width:0; stroke-opacity:1; 
stroke-linecap:round; stroke-linejoin:round;fill-rule:evenodd;"
d="M 28557.2,18873.1
28202.8,18873.1
28202.8,18676.3
28557.2,18676.3
Z" /> 
</g>
<g >
</g>
<g style="fill:#000000; fill-opacity:1.0; 
stroke:#000000; stroke-width:0; stroke-opacity:1; 
stroke-linecap:round; stroke-linejoin:round;">
<path style="fill:#000000; fill-opacity:1.0; 
stroke:#000000; stroke-width:0; stroke-opacity:1; 
stroke-linecap:round; stroke-linejoin:round;fill-rule:evenodd;"
d="M 31997.2,23563.7
31642.8,23563.7
31642.8,23366.9
31997.2,23366.9
Z" /> 
<path style="fill:#000000; fill-opacity:1.0; 
stroke:#000000; stroke-width:0; stroke-opacity:1; 
stroke-linecap:round; stroke-linejoin:round;fill-rule:evenodd;"
d="M 31997.2,22973.1
31642.8,22973.1
31642.8,22776.3
31997.2,22776.3
Z" /> 
</g>
<g >
</g>
<g style="fill:#000000; fill-opacity:1.0; 
stroke:#000000; stroke-width:0; stroke-opacity:1; 
stroke-linecap:round; stroke-linejoin:round;">
<path style="fill:#000000; fill-opacity:1.0; 
stroke:#000000; stroke-width:0; stroke-opacity:1; 
stroke-linecap:round; stroke-linejoin:round;fill-rule:evenodd;"
d="M 30621.6,19337.2
30621.6,18982.8
30818.4,18982.8
30818.4,19337.2
Z" /> 
<path style="fill:#000000; fill-opacity:1.0; 
stroke:#000000; stroke-width:0; stroke-opacity:1; 
stroke-linecap:round; stroke-linejoin:round;fill-rule:evenodd;"
d="M 31212.1,19337.2
31212.1,18982.8
31409,18982.8
31409,19337.2
Z" /> 
</g>
<g >
</g>
<g style="fill:#000000; fill-opacity:1.0; 
stroke:#000000; stroke-width:0; stroke-opacity:1; 
stroke-linecap:round; stroke-linejoin:round;">
<path style="fill:#000000; fill-opacity:1.0; 
stroke:#000000; stroke-width:0; stroke-opacity:1; 
stroke-linecap:round; stroke-linejoin:round;fill-rule:evenodd;"
d="M 34482.8,22656.3
34837.2,22656.3
34837.2,22853.1
34482.8,22853.1
Z" /> 
<path style="fill:#000000; fill-opacity:1.0; 
stroke:#000000; stroke-width:0; stroke-opacity:1; 
stroke-linecap:round; stroke-linejoin:round;fill-rule:evenodd;"
d="M 34482.8,23246.9
34837.2,23246.9
34837.2,23443.7
34482.8,23443.7
Z" /> 
</g>
<g >
</g>
<g style="fill:#000000; fill-opacity:1.0; 
stroke:#000000; stroke-width:0; stroke-opacity:1; 
stroke-linecap:round; stroke-linejoin:round;">
<path style="fill:#000000; fill-opacity:1.0; 
stroke:#000000; stroke-width:0; stroke-opacity:1; 
stroke-linecap:round; stroke-linejoin:round;fill-rule:evenodd;"
d="M 30616.3,19917.2
30616.3,19562.8
30813.1,19562.8
30813.1,19917.2
Z" /> 
<path style="fill:#000000; fill-opacity:1.0; 
stroke:#000000; stroke-width:0; stroke-opacity:1; 
stroke-linecap:round; stroke-linejoin:round;fill-rule:evenodd;"
d="M 31206.9,19917.2
31206.9,19562.8
31403.7,19562.8
31403.7,19917.2
Z" /> 
</g>
<g >
</g>
<g style="fill:#000000; fill-opacity:1.0; 
stroke:#000000; stroke-width:0; stroke-opacity:1; 
stroke-linecap:round; stroke-linejoin:round;">
<path style="fill:#000000; fill-opacity:1.0; 
stroke:#000000; stroke-width:0; stroke-opacity:1; 
stroke-linecap:round; stroke-linejoin:round;fill-rule:evenodd;"
d="M 21697.2,22973.1
21342.8,22973.1
21342.8,22776.3
21697.2,22776.3
Z" /> 
<path style="fill:#000000; fill-opacity:1.0; 
stroke:#000000; stroke-width:0; stroke-opacity:1; 
stroke-linecap:round; stroke-linejoin:round;fill-rule:evenodd;"
d="M 21697.2,23563.7
21342.8,23563.7
21342.8,23366.9
21697.2,23366.9
Z" /> 
</g>
<g >
</g>
<g >
</g>
<g >
</g>
<g >
</g>
<g >
</g>
<g >
</g>
<g >
</g>
<g >
</g>
<g >
</g>
<g >
</g>
<g >
</g>
<g >
</g>
<g style="fill:#000000; fill-opacity:1.0; 
stroke:#000000; stroke-width:0; stroke-opacity:1; 
stroke-linecap:round; stroke-linejoin:round;">
<path style="fill:#000000; fill-opacity:1.0; 
stroke:#000000; stroke-width:0; stroke-opacity:1; 
stroke-linecap:round; stroke-linejoin:round;fill-rule:evenodd;"
d="M 31784.3,20315.9
31791.6,20316.9
31798.7,20318.7
31805.6,20321.2
31812.2,20324.3
31818.5,20328.1
31824.4,20332.5
31829.9,20337.4
31834.8,20342.9
31839.2,20348.8
31842.9,20355.1
31846.1,20361.7
31848.6,20368.6
31850.3,20375.7
31851.4,20383
31851.8,20390.3
31851.8,20929.7
31851.4,20937
31850.3,20944.3
31848.6,20951.4
31846.1,20958.3
31842.9,20964.9
31839.2,20971.2
31834.8,20977.1
31829.9,20982.6
31824.4,20987.5
31818.5,20991.9
31812.2,20995.7
31805.6,20998.8
31798.7,21001.3
31791.6,21003.1
31784.3,21004.1
31777,21004.5
31552.6,21004.5
31545.2,21004.1
31538,21003.1
31530.8,21001.3
31523.9,20998.8
31517.3,20995.7
31511,20991.9
31505.1,20987.5
31499.7,20982.6
31494.7,20977.1
31490.4,20971.2
31486.6,20964.9
31483.5,20958.3
31481,20951.4
31479.2,20944.3
31478.1,20937
31477.8,20929.7
31477.8,20390.3
31478.1,20383
31479.2,20375.7
31481,20368.6
31483.5,20361.7
31486.6,20355.1
31490.4,20348.8
31494.7,20342.9
31499.7,20337.4
31505.1,20332.5
31511,20328.1
31517.3,20324.3
31523.9,20321.2
31530.8,20318.7
31538,20316.9
31545.2,20315.9
31552.6,20315.5
31777,20315.5
Z" /> 
<path style="fill:#000000; fill-opacity:1.0; 
stroke:#000000; stroke-width:0; stroke-opacity:1; 
stroke-linecap:round; stroke-linejoin:round;fill-rule:evenodd;"
d="M 33004.8,20315.9
33012,20316.9
33019.2,20318.7
33026.1,20321.2
33032.7,20324.3
33039,20328.1
33044.9,20332.5
33050.3,20337.4
33055.3,20342.9
33059.6,20348.8
33063.4,20355.1
33066.6,20361.7
33069,20368.6
33070.8,20375.7
33071.9,20383
33072.2,20390.3
33072.2,20929.7
33071.9,20937
33070.8,20944.3
33069,20951.4
33066.6,20958.3
33063.4,20964.9
33059.6,20971.2
33055.3,20977.1
33050.3,20982.6
33044.9,20987.5
33039,20991.9
33032.7,20995.7
33026.1,20998.8
33019.2,21001.3
33012,21003.1
33004.8,21004.1
32997.4,21004.5
32773,21004.5
32765.7,21004.1
32758.4,21003.1
32751.3,21001.3
32744.4,20998.8
32737.8,20995.7
32731.5,20991.9
32725.6,20987.5
32720.1,20982.6
32715.2,20977.1
32710.8,20971.2
32707.1,20964.9
32703.9,20958.3
32701.4,20951.4
32699.7,20944.3
32698.6,20937
32698.2,20929.7
32698.2,20390.3
32698.6,20383
32699.7,20375.7
32701.4,20368.6
32703.9,20361.7
32707.1,20355.1
32710.8,20348.8
32715.2,20342.9
32720.1,20337.4
32725.6,20332.5
32731.5,20328.1
32737.8,20324.3
32744.4,20321.2
32751.3,20318.7
32758.4,20316.9
32765.7,20315.9
32773,20315.5
32997.4,20315.5
Z" /> 
</g>
<g >
</g>
<g style="fill:#000000; fill-opacity:1.0; 
stroke:#000000; stroke-width:0; stroke-opacity:1; 
stroke-linecap:round; stroke-linejoin:round;">
<path style="fill:#000000; fill-opacity:1.0; 
stroke:#000000; stroke-width:0; stroke-opacity:1; 
stroke-linecap:round; stroke-linejoin:round;fill-rule:evenodd;"
d="M 21489.3,24425.9
21496.6,24426.9
21503.7,24428.7
21510.6,24431.2
21517.2,24434.3
21523.5,24438.1
21529.4,24442.5
21534.9,24447.4
21539.8,24452.9
21544.2,24458.8
21547.9,24465.1
21551.1,24471.7
21553.6,24478.6
21555.3,24485.7
21556.4,24493
21556.8,24500.3
21556.8,25039.7
21556.4,25047
21555.3,25054.3
21553.6,25061.4
21551.1,25068.3
21547.9,25074.9
21544.2,25081.2
21539.8,25087.1
21534.9,25092.6
21529.4,25097.5
21523.5,25101.9
21517.2,25105.7
21510.6,25108.8
21503.7,25111.3
21496.6,25113.1
21489.3,25114.1
21482,25114.5
21257.6,25114.5
21250.2,25114.1
21243,25113.1
21235.8,25111.3
21228.9,25108.8
21222.3,25105.7
21216,25101.9
21210.1,25097.5
21204.7,25092.6
21199.7,25087.1
21195.4,25081.2
21191.6,25074.9
21188.5,25068.3
21186,25061.4
21184.2,25054.3
21183.1,25047
21182.8,25039.7
21182.8,24500.3
21183.1,24493
21184.2,24485.7
21186,24478.6
21188.5,24471.7
21191.6,24465.1
21195.4,24458.8
21199.7,24452.9
21204.7,24447.4
21210.1,24442.5
21216,24438.1
21222.3,24434.3
21228.9,24431.2
21235.8,24428.7
21243,24426.9
21250.2,24425.9
21257.6,24425.5
21482,24425.5
Z" /> 
<path style="fill:#000000; fill-opacity:1.0; 
stroke:#000000; stroke-width:0; stroke-opacity:1; 
stroke-linecap:round; stroke-linejoin:round;fill-rule:evenodd;"
d="M 22709.8,24425.9
22717,24426.9
22724.2,24428.7
22731.1,24431.2
22737.7,24434.3
22744,24438.1
22749.9,24442.5
22755.3,24447.4
22760.3,24452.9
22764.6,24458.8
22768.4,24465.1
22771.5,24471.7
22774,24478.6
22775.8,24485.7
22776.9,24493
22777.2,24500.3
22777.2,25039.7
22776.9,25047
22775.8,25054.3
22774,25061.4
22771.5,25068.3
22768.4,25074.9
22764.6,25081.2
22760.3,25087.1
22755.3,25092.6
22749.9,25097.5
22744,25101.9
22737.7,25105.7
22731.1,25108.8
22724.2,25111.3
22717,25113.1
22709.8,25114.1
22702.4,25114.5
22478,25114.5
22470.7,25114.1
22463.4,25113.1
22456.3,25111.3
22449.4,25108.8
22442.8,25105.7
22436.5,25101.9
22430.6,25097.5
22425.1,25092.6
22420.2,25087.1
22415.8,25081.2
22412.1,25074.9
22408.9,25068.3
22406.4,25061.4
22404.7,25054.3
22403.6,25047
22403.2,25039.7
22403.2,24500.3
22403.6,24493
22404.7,24485.7
22406.4,24478.6
22408.9,24471.7
22412.1,24465.1
22415.8,24458.8
22420.2,24452.9
22425.1,24447.4
22430.6,24442.5
22436.5,24438.1
22442.8,24434.3
22449.4,24431.2
22456.3,24428.7
22463.4,24426.9
22470.7,24425.9
22478,24425.5
22702.4,24425.5
Z" /> 
</g>
<g >
</g>
<g style="fill:#000000; fill-opacity:1.0; 
stroke:#000000; stroke-width:0; stroke-opacity:1; 
stroke-linecap:round; stroke-linejoin:round;">
<path style="fill:#000000; fill-opacity:1.0; 
stroke:#000000; stroke-width:0; stroke-opacity:1; 
stroke-linecap:round; stroke-linejoin:round;fill-rule:evenodd;"
d="M 24919.3,24425.9
24926.6,24426.9
24933.7,24428.7
24940.6,24431.2
24947.2,24434.3
24953.5,24438.1
24959.4,24442.5
24964.9,24447.4
24969.8,24452.9
24974.2,24458.8
24977.9,24465.1
24981.1,24471.7
24983.6,24478.6
24985.3,24485.7
24986.4,24493
24986.8,24500.3
24986.8,25039.7
24986.4,25047
24985.3,25054.3
24983.6,25061.4
24981.1,25068.3
24977.9,25074.9
24974.2,25081.2
24969.8,25087.1
24964.9,25092.6
24959.4,25097.5
24953.5,25101.9
24947.2,25105.7
24940.6,25108.8
24933.7,25111.3
24926.6,25113.1
24919.3,25114.1
24912,25114.5
24687.6,25114.5
24680.2,25114.1
24673,25113.1
24665.8,25111.3
24658.9,25108.8
24652.3,25105.7
24646,25101.9
24640.1,25097.5
24634.7,25092.6
24629.7,25087.1
24625.4,25081.2
24621.6,25074.9
24618.5,25068.3
24616,25061.4
24614.2,25054.3
24613.1,25047
24612.8,25039.7
24612.8,24500.3
24613.1,24493
24614.2,24485.7
24616,24478.6
24618.5,24471.7
24621.6,24465.1
24625.4,24458.8
24629.7,24452.9
24634.7,24447.4
24640.1,24442.5
24646,24438.1
24652.3,24434.3
24658.9,24431.2
24665.8,24428.7
24673,24426.9
24680.2,24425.9
24687.6,24425.5
24912,24425.5
Z" /> 
<path style="fill:#000000; fill-opacity:1.0; 
stroke:#000000; stroke-width:0; stroke-opacity:1; 
stroke-linecap:round; stroke-linejoin:round;fill-rule:evenodd;"
d="M 26139.8,24425.9
26147,24426.9
26154.2,24428.7
26161.1,24431.2
26167.7,24434.3
26174,24438.1
26179.9,24442.5
26185.3,24447.4
26190.3,24452.9
26194.6,24458.8
26198.4,24465.1
26201.5,24471.7
26204,24478.6
26205.8,24485.7
26206.9,24493
26207.2,24500.3
26207.2,25039.7
26206.9,25047
26205.8,25054.3
26204,25061.4
26201.5,25068.3
26198.4,25074.9
26194.6,25081.2
26190.3,25087.1
26185.3,25092.6
26179.9,25097.5
26174,25101.9
26167.7,25105.7
26161.1,25108.8
26154.2,25111.3
26147,25113.1
26139.8,25114.1
26132.4,25114.5
25908,25114.5
25900.7,25114.1
25893.4,25113.1
25886.3,25111.3
25879.4,25108.8
25872.8,25105.7
25866.5,25101.9
25860.6,25097.5
25855.1,25092.6
25850.2,25087.1
25845.8,25081.2
25842.1,25074.9
25838.9,25068.3
25836.4,25061.4
25834.7,25054.3
25833.6,25047
25833.2,25039.7
25833.2,24500.3
25833.6,24493
25834.7,24485.7
25836.4,24478.6
25838.9,24471.7
25842.1,24465.1
25845.8,24458.8
25850.2,24452.9
25855.1,24447.4
25860.6,24442.5
25866.5,24438.1
25872.8,24434.3
25879.4,24431.2
25886.3,24428.7
25893.4,24426.9
25900.7,24425.9
25908,24425.5
26132.4,24425.5
Z" /> 
</g>
<g >
</g>
<g style="fill:#000000; fill-opacity:1.0; 
stroke:#000000; stroke-width:0; stroke-opacity:1; 
stroke-linecap:round; stroke-linejoin:round;">
<path style="fill:#000000; fill-opacity:1.0; 
stroke:#000000; stroke-width:0; stroke-opacity:1; 
stroke-linecap:round; stroke-linejoin:round;fill-rule:evenodd;"
d="M 24909.5,20315.9
24916.8,20316.9
24923.9,20318.7
24930.8,20321.2
24937.5,20324.3
24943.8,20328.1
24949.7,20332.5
24955.1,20337.4
24960,20342.9
24964.4,20348.8
24968.2,20355.1
24971.3,20361.7
24973.8,20368.6
24975.6,20375.7
24976.6,20383
24977,20390.3
24977,20929.7
24976.6,20937
24975.6,20944.3
24973.8,20951.4
24971.3,20958.3
24968.2,20964.9
24964.4,20971.2
24960,20977.1
24955.1,20982.6
24949.7,20987.5
24943.8,20991.9
24937.5,20995.7
24930.8,20998.8
24923.9,21001.3
24916.8,21003.1
24909.5,21004.1
24902.2,21004.5
24677.8,21004.5
24670.5,21004.1
24663.2,21003.1
24656.1,21001.3
24649.2,20998.8
24642.5,20995.7
24636.2,20991.9
24630.3,20987.5
24624.9,20982.6
24620,20977.1
24615.6,20971.2
24611.8,20964.9
24608.7,20958.3
24606.2,20951.4
24604.4,20944.3
24603.4,20937
24603,20929.7
24603,20390.3
24603.4,20383
24604.4,20375.7
24606.2,20368.6
24608.7,20361.7
24611.8,20355.1
24615.6,20348.8
24620,20342.9
24624.9,20337.4
24630.3,20332.5
24636.2,20328.1
24642.5,20324.3
24649.2,20321.2
24656.1,20318.7
24663.2,20316.9
24670.5,20315.9
24677.8,20315.5
24902.2,20315.5
Z" /> 
<path style="fill:#000000; fill-opacity:1.0; 
stroke:#000000; stroke-width:0; stroke-opacity:1; 
stroke-linecap:round; stroke-linejoin:round;fill-rule:evenodd;"
d="M 26130,20315.9
26137.3,20316.9
26144.4,20318.7
26151.3,20321.2
26157.9,20324.3
26164.2,20328.1
26170.1,20332.5
26175.6,20337.4
26180.5,20342.9
26184.9,20348.8
26188.6,20355.1
26191.8,20361.7
26194.3,20368.6
26196,20375.7
26197.1,20383
26197.5,20390.3
26197.5,20929.7
26197.1,20937
26196,20944.3
26194.3,20951.4
26191.8,20958.3
26188.6,20964.9
26184.9,20971.2
26180.5,20977.1
26175.6,20982.6
26170.1,20987.5
26164.2,20991.9
26157.9,20995.7
26151.3,20998.8
26144.4,21001.3
26137.3,21003.1
26130,21004.1
26122.7,21004.5
25898.3,21004.5
25890.9,21004.1
25883.7,21003.1
25876.6,21001.3
25869.6,20998.8
25863,20995.7
25856.7,20991.9
25850.8,20987.5
25845.4,20982.6
25840.4,20977.1
25836.1,20971.2
25832.3,20964.9
25829.2,20958.3
25826.7,20951.4
25824.9,20944.3
25823.8,20937
25823.5,20929.7
25823.5,20390.3
25823.8,20383
25824.9,20375.7
25826.7,20368.6
25829.2,20361.7
25832.3,20355.1
25836.1,20348.8
25840.4,20342.9
25845.4,20337.4
25850.8,20332.5
25856.7,20328.1
25863,20324.3
25869.6,20321.2
25876.6,20318.7
25883.7,20316.9
25890.9,20315.9
25898.3,20315.5
26122.7,20315.5
Z" /> 
</g>
<g >
</g>
<g style="fill:#000000; fill-opacity:1.0; 
stroke:#000000; stroke-width:0; stroke-opacity:1; 
stroke-linecap:round; stroke-linejoin:round;">
<path style="fill:#000000; fill-opacity:1.0; 
stroke:#000000; stroke-width:0; stroke-opacity:1; 
stroke-linecap:round; stroke-linejoin:round;fill-rule:evenodd;"
d="M 28359.3,24425.9
28366.6,24426.9
28373.7,24428.7
28380.6,24431.2
28387.2,24434.3
28393.5,24438.1
28399.4,24442.5
28404.9,24447.4
28409.8,24452.9
28414.2,24458.8
28417.9,24465.1
28421.1,24471.7
28423.6,24478.6
28425.3,24485.7
28426.4,24493
28426.8,24500.3
28426.8,25039.7
28426.4,25047
28425.3,25054.3
28423.6,25061.4
28421.1,25068.3
28417.9,25074.9
28414.2,25081.2
28409.8,25087.1
28404.9,25092.6
28399.4,25097.5
28393.5,25101.9
28387.2,25105.7
28380.6,25108.8
28373.7,25111.3
28366.6,25113.1
28359.3,25114.1
28352,25114.5
28127.6,25114.5
28120.2,25114.1
28113,25113.1
28105.8,25111.3
28098.9,25108.8
28092.3,25105.7
28086,25101.9
28080.1,25097.5
28074.7,25092.6
28069.7,25087.1
28065.4,25081.2
28061.6,25074.9
28058.5,25068.3
28056,25061.4
28054.2,25054.3
28053.1,25047
28052.8,25039.7
28052.8,24500.3
28053.1,24493
28054.2,24485.7
28056,24478.6
28058.5,24471.7
28061.6,24465.1
28065.4,24458.8
28069.7,24452.9
28074.7,24447.4
28080.1,24442.5
28086,24438.1
28092.3,24434.3
28098.9,24431.2
28105.8,24428.7
28113,24426.9
28120.2,24425.9
28127.6,24425.5
28352,24425.5
Z" /> 
<path style="fill:#000000; fill-opacity:1.0; 
stroke:#000000; stroke-width:0; stroke-opacity:1; 
stroke-linecap:round; stroke-linejoin:round;fill-rule:evenodd;"
d="M 29579.8,24425.9
29587,24426.9
29594.2,24428.7
29601.1,24431.2
29607.7,24434.3
29614,24438.1
29619.9,24442.5
29625.3,24447.4
29630.3,24452.9
29634.6,24458.8
29638.4,24465.1
29641.5,24471.7
29644,24478.6
29645.8,24485.7
29646.9,24493
29647.2,24500.3
29647.2,25039.7
29646.9,25047
29645.8,25054.3
29644,25061.4
29641.5,25068.3
29638.4,25074.9
29634.6,25081.2
29630.3,25087.1
29625.3,25092.6
29619.9,25097.5
29614,25101.9
29607.7,25105.7
29601.1,25108.8
29594.2,25111.3
29587,25113.1
29579.8,25114.1
29572.4,25114.5
29348,25114.5
29340.7,25114.1
29333.4,25113.1
29326.3,25111.3
29319.4,25108.8
29312.8,25105.7
29306.5,25101.9
29300.6,25097.5
29295.1,25092.6
29290.2,25087.1
29285.8,25081.2
29282.1,25074.9
29278.9,25068.3
29276.4,25061.4
29274.7,25054.3
29273.6,25047
29273.2,25039.7
29273.2,24500.3
29273.6,24493
29274.7,24485.7
29276.4,24478.6
29278.9,24471.7
29282.1,24465.1
29285.8,24458.8
29290.2,24452.9
29295.1,24447.4
29300.6,24442.5
29306.5,24438.1
29312.8,24434.3
29319.4,24431.2
29326.3,24428.7
29333.4,24426.9
29340.7,24425.9
29348,24425.5
29572.4,24425.5
Z" /> 
</g>
<g >
</g>
<g style="fill:#000000; fill-opacity:1.0; 
stroke:#000000; stroke-width:0; stroke-opacity:1; 
stroke-linecap:round; stroke-linejoin:round;">
<path style="fill:#000000; fill-opacity:1.0; 
stroke:#000000; stroke-width:0; stroke-opacity:1; 
stroke-linecap:round; stroke-linejoin:round;fill-rule:evenodd;"
d="M 28349.3,20315.9
28356.6,20316.9
28363.7,20318.7
28370.6,20321.2
28377.2,20324.3
28383.5,20328.1
28389.4,20332.5
28394.9,20337.4
28399.8,20342.9
28404.2,20348.8
28407.9,20355.1
28411.1,20361.7
28413.6,20368.6
28415.3,20375.7
28416.4,20383
28416.8,20390.3
28416.8,20929.7
28416.4,20937
28415.3,20944.3
28413.6,20951.4
28411.1,20958.3
28407.9,20964.9
28404.2,20971.2
28399.8,20977.1
28394.9,20982.6
28389.4,20987.5
28383.5,20991.9
28377.2,20995.7
28370.6,20998.8
28363.7,21001.3
28356.6,21003.1
28349.3,21004.1
28342,21004.5
28117.6,21004.5
28110.2,21004.1
28103,21003.1
28095.8,21001.3
28088.9,20998.8
28082.3,20995.7
28076,20991.9
28070.1,20987.5
28064.7,20982.6
28059.7,20977.1
28055.4,20971.2
28051.6,20964.9
28048.5,20958.3
28046,20951.4
28044.2,20944.3
28043.1,20937
28042.8,20929.7
28042.8,20390.3
28043.1,20383
28044.2,20375.7
28046,20368.6
28048.5,20361.7
28051.6,20355.1
28055.4,20348.8
28059.7,20342.9
28064.7,20337.4
28070.1,20332.5
28076,20328.1
28082.3,20324.3
28088.9,20321.2
28095.8,20318.7
28103,20316.9
28110.2,20315.9
28117.6,20315.5
28342,20315.5
Z" /> 
<path style="fill:#000000; fill-opacity:1.0; 
stroke:#000000; stroke-width:0; stroke-opacity:1; 
stroke-linecap:round; stroke-linejoin:round;fill-rule:evenodd;"
d="M 29569.8,20315.9
29577,20316.9
29584.2,20318.7
29591.1,20321.2
29597.7,20324.3
29604,20328.1
29609.9,20332.5
29615.3,20337.4
29620.3,20342.9
29624.6,20348.8
29628.4,20355.1
29631.5,20361.7
29634,20368.6
29635.8,20375.7
29636.9,20383
29637.2,20390.3
29637.2,20929.7
29636.9,20937
29635.8,20944.3
29634,20951.4
29631.5,20958.3
29628.4,20964.9
29624.6,20971.2
29620.3,20977.1
29615.3,20982.6
29609.9,20987.5
29604,20991.9
29597.7,20995.7
29591.1,20998.8
29584.2,21001.3
29577,21003.1
29569.8,21004.1
29562.4,21004.5
29338,21004.5
29330.7,21004.1
29323.4,21003.1
29316.3,21001.3
29309.4,20998.8
29302.8,20995.7
29296.5,20991.9
29290.6,20987.5
29285.1,20982.6
29280.2,20977.1
29275.8,20971.2
29272.1,20964.9
29268.9,20958.3
29266.4,20951.4
29264.7,20944.3
29263.6,20937
29263.2,20929.7
29263.2,20390.3
29263.6,20383
29264.7,20375.7
29266.4,20368.6
29268.9,20361.7
29272.1,20355.1
29275.8,20348.8
29280.2,20342.9
29285.1,20337.4
29290.6,20332.5
29296.5,20328.1
29302.8,20324.3
29309.4,20321.2
29316.3,20318.7
29323.4,20316.9
29330.7,20315.9
29338,20315.5
29562.4,20315.5
Z" /> 
</g>
<g >
</g>
<g style="fill:#000000; fill-opacity:1.0; 
stroke:#000000; stroke-width:0; stroke-opacity:1; 
stroke-linecap:round; stroke-linejoin:round;">
<path style="fill:#000000; fill-opacity:1.0; 
stroke:#000000; stroke-width:0; stroke-opacity:1; 
stroke-linecap:round; stroke-linejoin:round;fill-rule:evenodd;"
d="M 31779.3,24425.9
31786.6,24426.9
31793.7,24428.7
31800.6,24431.2
31807.2,24434.3
31813.5,24438.1
31819.4,24442.5
31824.9,24447.4
31829.8,24452.9
31834.2,24458.8
31837.9,24465.1
31841.1,24471.7
31843.6,24478.6
31845.3,24485.7
31846.4,24493
31846.8,24500.3
31846.8,25039.7
31846.4,25047
31845.3,25054.3
31843.6,25061.4
31841.1,25068.3
31837.9,25074.9
31834.2,25081.2
31829.8,25087.1
31824.9,25092.6
31819.4,25097.5
31813.5,25101.9
31807.2,25105.7
31800.6,25108.8
31793.7,25111.3
31786.6,25113.1
31779.3,25114.1
31772,25114.5
31547.6,25114.5
31540.2,25114.1
31533,25113.1
31525.8,25111.3
31518.9,25108.8
31512.3,25105.7
31506,25101.9
31500.1,25097.5
31494.7,25092.6
31489.7,25087.1
31485.4,25081.2
31481.6,25074.9
31478.5,25068.3
31476,25061.4
31474.2,25054.3
31473.1,25047
31472.8,25039.7
31472.8,24500.3
31473.1,24493
31474.2,24485.7
31476,24478.6
31478.5,24471.7
31481.6,24465.1
31485.4,24458.8
31489.7,24452.9
31494.7,24447.4
31500.1,24442.5
31506,24438.1
31512.3,24434.3
31518.9,24431.2
31525.8,24428.7
31533,24426.9
31540.2,24425.9
31547.6,24425.5
31772,24425.5
Z" /> 
<path style="fill:#000000; fill-opacity:1.0; 
stroke:#000000; stroke-width:0; stroke-opacity:1; 
stroke-linecap:round; stroke-linejoin:round;fill-rule:evenodd;"
d="M 32999.8,24425.9
33007,24426.9
33014.2,24428.7
33021.1,24431.2
33027.7,24434.3
33034,24438.1
33039.9,24442.5
33045.3,24447.4
33050.3,24452.9
33054.6,24458.8
33058.4,24465.1
33061.6,24471.7
33064,24478.6
33065.8,24485.7
33066.9,24493
33067.2,24500.3
33067.2,25039.7
33066.9,25047
33065.8,25054.3
33064,25061.4
33061.6,25068.3
33058.4,25074.9
33054.6,25081.2
33050.3,25087.1
33045.3,25092.6
33039.9,25097.5
33034,25101.9
33027.7,25105.7
33021.1,25108.8
33014.2,25111.3
33007,25113.1
32999.8,25114.1
32992.4,25114.5
32768,25114.5
32760.7,25114.1
32753.4,25113.1
32746.3,25111.3
32739.4,25108.8
32732.8,25105.7
32726.5,25101.9
32720.6,25097.5
32715.1,25092.6
32710.2,25087.1
32705.8,25081.2
32702.1,25074.9
32698.9,25068.3
32696.4,25061.4
32694.7,25054.3
32693.6,25047
32693.2,25039.7
32693.2,24500.3
32693.6,24493
32694.7,24485.7
32696.4,24478.6
32698.9,24471.7
32702.1,24465.1
32705.8,24458.8
32710.2,24452.9
32715.1,24447.4
32720.6,24442.5
32726.5,24438.1
32732.8,24434.3
32739.4,24431.2
32746.3,24428.7
32753.4,24426.9
32760.7,24425.9
32768,24425.5
32992.4,24425.5
Z" /> 
</g>
<g >
</g>
<g style="fill:#000000; fill-opacity:1.0; 
stroke:#000000; stroke-width:0; stroke-opacity:1; 
stroke-linecap:round; stroke-linejoin:round;">
<path style="fill:#000000; fill-opacity:1.0; 
stroke:#000000; stroke-width:0; stroke-opacity:1; 
stroke-linecap:round; stroke-linejoin:round;fill-rule:evenodd;"
d="M 20214.7,24271.6
20805.3,24271.6
20805.3,24468.4
20214.7,24468.4
Z" /> 
<path style="fill:#000000; fill-opacity:1.0; 
stroke:#000000; stroke-width:0; stroke-opacity:1; 
stroke-linecap:round; stroke-linejoin:round;fill-rule:evenodd;"
d="M 20214.7,24310.9
20214.7,24114.1
20215,24114.1
20215,24104.4
20216.9,24085.2
20220.6,24066.3
20226.2,24047.8
20233.6,24029.9
20242.7,24012.9
20253.5,23996.8
20265.7,23981.9
20279.4,23968.2
20294.3,23956
20310.4,23945.3
20327.4,23936.1
20345.3,23928.8
20363.7,23923.1
20382.7,23919.4
20401.9,23917.5
20411.6,23917.5
20411.6,23917.2
20608.4,23917.2
20608.4,23917.5
20618.1,23917.5
20637.3,23919.4
20656.3,23923.1
20674.7,23928.8
20692.6,23936.1
20709.6,23945.3
20725.7,23956
20740.6,23968.2
20754.3,23981.9
20766.5,23996.8
20777.3,24012.9
20786.4,24029.9
20793.8,24047.8
20799.4,24066.3
20803.1,24085.2
20805,24104.4
20805,24114.1
20805.3,24114.1
20805.3,24310.9
Z" /> 
<path style="fill:#000000; fill-opacity:1.0; 
stroke:#000000; stroke-width:0; stroke-opacity:1; 
stroke-linecap:round; stroke-linejoin:round;fill-rule:evenodd;"
d="M 20805,24625.9
20805,24635.6
20803.1,24654.8
20799.4,24673.7
20793.8,24692.2
20786.4,24710.1
20777.3,24727.1
20766.5,24743.2
20754.3,24758.1
20740.6,24771.8
20725.7,24784
20709.6,24794.7
20692.6,24803.9
20674.7,24811.2
20656.3,24816.9
20637.3,24820.6
20618.1,24822.5
20608.4,24822.5
20608.4,24822.8
20411.6,24822.8
20411.6,24822.5
20401.9,24822.5
20382.7,24820.6
20363.7,24816.9
20345.3,24811.2
20327.4,24803.9
20310.4,24794.7
20294.3,24784
20279.4,24771.8
20265.7,24758.1
20253.5,24743.2
20242.7,24727.1
20233.6,24710.1
20226.2,24692.2
20220.6,24673.7
20216.9,24654.8
20215,24635.6
20215,24625.9
20214.7,24625.9
20214.7,24429.1
20805.3,24429.1
20805.3,24625.9
Z" /> 
</g>
<g >
</g>
<g style="fill:#000000; fill-opacity:1.0; 
stroke:#000000; stroke-width:0; stroke-opacity:1; 
stroke-linecap:round; stroke-linejoin:round;">
<path style="fill:#000000; fill-opacity:1.0; 
stroke:#000000; stroke-width:0; stroke-opacity:1; 
stroke-linecap:round; stroke-linejoin:round;fill-rule:evenodd;"
d="M 22564.7,22835.7
23155.3,22835.7
23155.3,23032.5
22564.7,23032.5
Z" /> 
<path style="fill:#000000; fill-opacity:1.0; 
stroke:#000000; stroke-width:0; stroke-opacity:1; 
stroke-linecap:round; stroke-linejoin:round;fill-rule:evenodd;"
d="M 22564.7,22875
22564.7,22678.2
22565,22678.2
22565,22668.5
22566.9,22649.3
22570.6,22630.4
22576.2,22611.9
22583.6,22594
22592.7,22577
22603.5,22560.9
22615.7,22546
22629.4,22532.3
22644.3,22520.1
22660.4,22509.3
22677.4,22500.2
22695.3,22492.8
22713.7,22487.2
22732.7,22483.5
22751.9,22481.6
22761.6,22481.6
22761.6,22481.3
22958.4,22481.3
22958.4,22481.6
22968.1,22481.6
22987.3,22483.5
23006.3,22487.2
23024.7,22492.8
23042.6,22500.2
23059.6,22509.3
23075.7,22520.1
23090.6,22532.3
23104.3,22546
23116.5,22560.9
23127.3,22577
23136.4,22594
23143.8,22611.9
23149.4,22630.4
23153.1,22649.3
23155,22668.5
23155,22678.2
23155.3,22678.2
23155.3,22875
Z" /> 
<path style="fill:#000000; fill-opacity:1.0; 
stroke:#000000; stroke-width:0; stroke-opacity:1; 
stroke-linecap:round; stroke-linejoin:round;fill-rule:evenodd;"
d="M 23155,23190
23155,23199.7
23153.1,23218.9
23149.4,23237.8
23143.8,23256.3
23136.4,23274.2
23127.3,23291.2
23116.5,23307.3
23104.3,23322.2
23090.6,23335.9
23075.7,23348.1
23059.6,23358.8
23042.6,23368
23024.7,23375.3
23006.3,23381
22987.3,23384.7
22968.1,23386.6
22958.4,23386.6
22958.4,23386.9
22761.6,23386.9
22761.6,23386.6
22751.9,23386.6
22732.7,23384.7
22713.7,23381
22695.3,23375.3
22677.4,23368
22660.4,23358.8
22644.3,23348.1
22629.4,23335.9
22615.7,23322.2
22603.5,23307.3
22592.7,23291.2
22583.6,23274.2
22576.2,23256.3
22570.6,23237.8
22566.9,23218.9
22565,23199.7
22565,23190
22564.7,23190
22564.7,22993.1
23155.3,22993.1
23155.3,23190
Z" /> 
</g>
<g >
</g>
<g style="fill:#000000; fill-opacity:1.0; 
stroke:#000000; stroke-width:0; stroke-opacity:1; 
stroke-linecap:round; stroke-linejoin:round;">
<path style="fill:#000000; fill-opacity:1.0; 
stroke:#000000; stroke-width:0; stroke-opacity:1; 
stroke-linecap:round; stroke-linejoin:round;fill-rule:evenodd;"
d="M 18865.7,25365.3
18865.7,24774.7
19062.5,24774.7
19062.5,25365.3
Z" /> 
<path style="fill:#000000; fill-opacity:1.0; 
stroke:#000000; stroke-width:0; stroke-opacity:1; 
stroke-linecap:round; stroke-linejoin:round;fill-rule:evenodd;"
d="M 18905,25365.3
18708.2,25365.3
18708.2,25365
18698.5,25365
18679.3,25363.1
18660.4,25359.4
18641.9,25353.8
18624,25346.4
18607,25337.3
18590.9,25326.5
18576,25314.3
18562.3,25300.6
18550.1,25285.7
18539.3,25269.6
18530.2,25252.6
18522.8,25234.7
18517.2,25216.3
18513.5,25197.3
18511.6,25178.1
18511.6,25168.4
18511.3,25168.4
18511.3,24971.6
18511.6,24971.6
18511.6,24961.9
18513.5,24942.7
18517.2,24923.7
18522.8,24905.3
18530.2,24887.4
18539.3,24870.4
18550.1,24854.3
18562.3,24839.4
18576,24825.7
18590.9,24813.5
18607,24802.7
18624,24793.6
18641.9,24786.2
18660.4,24780.6
18679.3,24776.9
18698.5,24775
18708.2,24775
18708.2,24774.7
18905,24774.7
Z" /> 
<path style="fill:#000000; fill-opacity:1.0; 
stroke:#000000; stroke-width:0; stroke-opacity:1; 
stroke-linecap:round; stroke-linejoin:round;fill-rule:evenodd;"
d="M 19220,24775
19229.7,24775
19248.9,24776.9
19267.8,24780.6
19286.3,24786.2
19304.2,24793.6
19321.2,24802.7
19337.3,24813.5
19352.2,24825.7
19365.9,24839.4
19378.1,24854.3
19388.8,24870.4
19398,24887.4
19405.3,24905.3
19411,24923.7
19414.7,24942.7
19416.6,24961.9
19416.6,24971.6
19416.9,24971.6
19416.9,25168.4
19416.6,25168.4
19416.6,25178.1
19414.7,25197.3
19411,25216.3
19405.3,25234.7
19398,25252.6
19388.8,25269.6
19378.1,25285.7
19365.9,25300.6
19352.2,25314.3
19337.3,25326.5
19321.2,25337.3
19304.2,25346.4
19286.3,25353.8
19267.8,25359.4
19248.9,25363.1
19229.7,25365
19220,25365
19220,25365.3
19023.1,25365.3
19023.1,24774.7
19220,24774.7
Z" /> 
</g>
<g >
</g>
<g >
</g>
<g >
</g>
<g >
</g>
<g >
</g>
<g >
</g>
</g> 
</svg>
