%TF.GenerationSoftware,KiCad,Pcbnew,(5.1.10-1-10_14)*%
%TF.CreationDate,2022-01-09T15:55:39-08:00*%
%TF.ProjectId,ThermistorExpander-kicad,54686572-6d69-4737-946f-72457870616e,rev?*%
%TF.SameCoordinates,Original*%
%TF.FileFunction,Copper,L2,Bot*%
%TF.FilePolarity,Positive*%
%FSLAX46Y46*%
G04 Gerber Fmt 4.6, Leading zero omitted, Abs format (unit mm)*
G04 Created by KiCad (PCBNEW (5.1.10-1-10_14)) date 2022-01-09 15:55:39*
%MOMM*%
%LPD*%
G01*
G04 APERTURE LIST*
%TA.AperFunction,SMDPad,CuDef*%
%ADD10R,1.600000X2.000000*%
%TD*%
%TA.AperFunction,ComponentPad*%
%ADD11R,1.700000X1.700000*%
%TD*%
%TA.AperFunction,ComponentPad*%
%ADD12O,1.700000X1.700000*%
%TD*%
%TA.AperFunction,ComponentPad*%
%ADD13R,1.750000X1.750000*%
%TD*%
%TA.AperFunction,ComponentPad*%
%ADD14C,1.750000*%
%TD*%
%TA.AperFunction,SMDPad,CuDef*%
%ADD15R,1.500000X1.000000*%
%TD*%
%TA.AperFunction,ViaPad*%
%ADD16C,0.800000*%
%TD*%
%TA.AperFunction,Conductor*%
%ADD17C,0.250000*%
%TD*%
%TA.AperFunction,Conductor*%
%ADD18C,0.254000*%
%TD*%
%TA.AperFunction,Conductor*%
%ADD19C,0.100000*%
%TD*%
G04 APERTURE END LIST*
D10*
%TO.P,C4,1*%
%TO.N,/TH4*%
X134442200Y-81508600D03*
%TO.P,C4,2*%
%TO.N,GND*%
X134442200Y-85508600D03*
%TD*%
%TO.P,C3,1*%
%TO.N,/TH3*%
X127609600Y-81515200D03*
%TO.P,C3,2*%
%TO.N,GND*%
X127609600Y-85515200D03*
%TD*%
%TO.P,C2,1*%
%TO.N,/TH2*%
X120827800Y-81515200D03*
%TO.P,C2,2*%
%TO.N,GND*%
X120827800Y-85515200D03*
%TD*%
D11*
%TO.P,J1,1*%
%TO.N,Net-(J1-Pad1)*%
X128270000Y-74930000D03*
D12*
%TO.P,J1,2*%
%TO.N,GND*%
X128270000Y-77470000D03*
%TO.P,J1,3*%
%TO.N,/V2.0*%
X125730000Y-74930000D03*
%TO.P,J1,4*%
%TO.N,/V3.0*%
X125730000Y-77470000D03*
%TO.P,J1,5*%
%TO.N,/TH2*%
X123190000Y-74930000D03*
%TO.P,J1,6*%
%TO.N,/TH3*%
X123190000Y-77470000D03*
%TO.P,J1,7*%
%TO.N,Net-(J1-Pad7)*%
X120650000Y-74930000D03*
%TO.P,J1,8*%
%TO.N,GND*%
X120650000Y-77470000D03*
%TD*%
D13*
%TO.P,J4,1*%
%TO.N,/TH4*%
X136906000Y-82270600D03*
D14*
%TO.P,J4,2*%
%TO.N,GND*%
X136906000Y-84770600D03*
%TD*%
D13*
%TO.P,J3,1*%
%TO.N,/TH3*%
X130098800Y-82270600D03*
D14*
%TO.P,J3,2*%
%TO.N,GND*%
X130098800Y-84770600D03*
%TD*%
D13*
%TO.P,J2,1*%
%TO.N,/TH2*%
X123291600Y-82270600D03*
D14*
%TO.P,J2,2*%
%TO.N,GND*%
X123291600Y-84770600D03*
%TD*%
D15*
%TO.P,JP1,1*%
%TO.N,/V3.0*%
X133070600Y-77449200D03*
%TO.P,JP1,2*%
%TO.N,/TH4*%
X133070600Y-76149200D03*
%TO.P,JP1,3*%
%TO.N,/V2.0*%
X133070600Y-74849200D03*
%TD*%
D16*
%TO.N,GND*%
X137769600Y-75158600D03*
%TD*%
D17*
%TO.N,/TH2*%
X120670000Y-82270600D02*
X120650000Y-82290600D01*
X122536200Y-81515200D02*
X123291600Y-82270600D01*
X120827800Y-81515200D02*
X122536200Y-81515200D01*
%TO.N,GND*%
X122547000Y-85515200D02*
X123291600Y-84770600D01*
X120827800Y-85515200D02*
X122547000Y-85515200D01*
X129354200Y-85515200D02*
X130098800Y-84770600D01*
X127609600Y-85515200D02*
X129354200Y-85515200D01*
X136168000Y-85508600D02*
X136906000Y-84770600D01*
X134442200Y-85508600D02*
X136168000Y-85508600D01*
%TO.N,/TH3*%
X127528000Y-82270600D02*
X127457200Y-82341400D01*
X129343400Y-81515200D02*
X130098800Y-82270600D01*
X127609600Y-81515200D02*
X129343400Y-81515200D01*
%TO.N,/TH4*%
X134264400Y-76343000D02*
X134264400Y-82296000D01*
X134070600Y-76149200D02*
X134264400Y-76343000D01*
X133070600Y-76149200D02*
X134070600Y-76149200D01*
X136144000Y-81508600D02*
X136906000Y-82270600D01*
X134442200Y-81508600D02*
X136144000Y-81508600D01*
%TO.N,/V2.0*%
X132535598Y-74849200D02*
X133070600Y-74849200D01*
X126905001Y-76105001D02*
X131279797Y-76105001D01*
X131279797Y-76105001D02*
X132535598Y-74849200D01*
X125730000Y-74930000D02*
X126905001Y-76105001D01*
%TO.N,/V3.0*%
X127705999Y-78645001D02*
X131874799Y-78645001D01*
X131874799Y-78645001D02*
X133070600Y-77449200D01*
X126530998Y-77470000D02*
X127705999Y-78645001D01*
X125730000Y-77470000D02*
X126530998Y-77470000D01*
%TD*%
D18*
%TO.N,GND*%
X138624069Y-74309322D02*
X138737446Y-74343553D01*
X138842019Y-74399155D01*
X138933796Y-74474007D01*
X139009291Y-74565264D01*
X139065619Y-74669444D01*
X139100640Y-74782576D01*
X139116201Y-74930631D01*
X139116200Y-86429321D01*
X139101478Y-86579469D01*
X139067247Y-86692846D01*
X139011646Y-86797417D01*
X138936794Y-86889195D01*
X138845535Y-86964691D01*
X138741360Y-87021019D01*
X138628224Y-87056040D01*
X138480179Y-87071600D01*
X135535961Y-87071600D01*
X135596694Y-87039137D01*
X135693385Y-86959785D01*
X135772737Y-86863094D01*
X135831702Y-86752780D01*
X135868012Y-86633082D01*
X135880272Y-86508600D01*
X135877599Y-85887125D01*
X135923341Y-85932867D01*
X136039366Y-85816842D01*
X136120025Y-86068468D01*
X136388329Y-86196867D01*
X136676526Y-86270455D01*
X136973543Y-86286404D01*
X137267963Y-86244101D01*
X137548474Y-86145172D01*
X137691975Y-86068468D01*
X137772635Y-85816840D01*
X136906000Y-84950205D01*
X136891858Y-84964348D01*
X136712253Y-84784743D01*
X136726395Y-84770600D01*
X136712253Y-84756458D01*
X136891858Y-84576853D01*
X136906000Y-84590995D01*
X136920143Y-84576853D01*
X137099748Y-84756458D01*
X137085605Y-84770600D01*
X137952240Y-85637235D01*
X138203868Y-85556575D01*
X138332267Y-85288271D01*
X138405855Y-85000074D01*
X138421804Y-84703057D01*
X138379501Y-84408637D01*
X138280572Y-84128126D01*
X138203868Y-83984625D01*
X137952242Y-83903966D01*
X138068267Y-83787941D01*
X138017698Y-83737372D01*
X138025180Y-83735102D01*
X138135494Y-83676137D01*
X138232185Y-83596785D01*
X138311537Y-83500094D01*
X138370502Y-83389780D01*
X138406812Y-83270082D01*
X138419072Y-83145600D01*
X138419072Y-81395600D01*
X138406812Y-81271118D01*
X138370502Y-81151420D01*
X138311537Y-81041106D01*
X138232185Y-80944415D01*
X138135494Y-80865063D01*
X138025180Y-80806098D01*
X137905482Y-80769788D01*
X137781000Y-80757528D01*
X136271979Y-80757528D01*
X136181333Y-80748600D01*
X136181322Y-80748600D01*
X136144000Y-80744924D01*
X136106678Y-80748600D01*
X135880272Y-80748600D01*
X135880272Y-80508600D01*
X135868012Y-80384118D01*
X135831702Y-80264420D01*
X135772737Y-80154106D01*
X135693385Y-80057415D01*
X135596694Y-79978063D01*
X135486380Y-79919098D01*
X135366682Y-79882788D01*
X135242200Y-79870528D01*
X135024400Y-79870528D01*
X135024400Y-76380333D01*
X135028077Y-76343000D01*
X135013403Y-76194014D01*
X134995348Y-76134494D01*
X134969946Y-76050753D01*
X134899374Y-75918724D01*
X134804401Y-75802999D01*
X134775398Y-75779197D01*
X134634404Y-75638203D01*
X134610601Y-75609199D01*
X134494876Y-75514226D01*
X134442591Y-75486279D01*
X134446412Y-75473682D01*
X134458672Y-75349200D01*
X134458672Y-74349200D01*
X134453295Y-74294600D01*
X138473921Y-74294600D01*
X138624069Y-74309322D01*
%TA.AperFunction,Conductor*%
D19*
G36*
X138624069Y-74309322D02*
G01*
X138737446Y-74343553D01*
X138842019Y-74399155D01*
X138933796Y-74474007D01*
X139009291Y-74565264D01*
X139065619Y-74669444D01*
X139100640Y-74782576D01*
X139116201Y-74930631D01*
X139116200Y-86429321D01*
X139101478Y-86579469D01*
X139067247Y-86692846D01*
X139011646Y-86797417D01*
X138936794Y-86889195D01*
X138845535Y-86964691D01*
X138741360Y-87021019D01*
X138628224Y-87056040D01*
X138480179Y-87071600D01*
X135535961Y-87071600D01*
X135596694Y-87039137D01*
X135693385Y-86959785D01*
X135772737Y-86863094D01*
X135831702Y-86752780D01*
X135868012Y-86633082D01*
X135880272Y-86508600D01*
X135877599Y-85887125D01*
X135923341Y-85932867D01*
X136039366Y-85816842D01*
X136120025Y-86068468D01*
X136388329Y-86196867D01*
X136676526Y-86270455D01*
X136973543Y-86286404D01*
X137267963Y-86244101D01*
X137548474Y-86145172D01*
X137691975Y-86068468D01*
X137772635Y-85816840D01*
X136906000Y-84950205D01*
X136891858Y-84964348D01*
X136712253Y-84784743D01*
X136726395Y-84770600D01*
X136712253Y-84756458D01*
X136891858Y-84576853D01*
X136906000Y-84590995D01*
X136920143Y-84576853D01*
X137099748Y-84756458D01*
X137085605Y-84770600D01*
X137952240Y-85637235D01*
X138203868Y-85556575D01*
X138332267Y-85288271D01*
X138405855Y-85000074D01*
X138421804Y-84703057D01*
X138379501Y-84408637D01*
X138280572Y-84128126D01*
X138203868Y-83984625D01*
X137952242Y-83903966D01*
X138068267Y-83787941D01*
X138017698Y-83737372D01*
X138025180Y-83735102D01*
X138135494Y-83676137D01*
X138232185Y-83596785D01*
X138311537Y-83500094D01*
X138370502Y-83389780D01*
X138406812Y-83270082D01*
X138419072Y-83145600D01*
X138419072Y-81395600D01*
X138406812Y-81271118D01*
X138370502Y-81151420D01*
X138311537Y-81041106D01*
X138232185Y-80944415D01*
X138135494Y-80865063D01*
X138025180Y-80806098D01*
X137905482Y-80769788D01*
X137781000Y-80757528D01*
X136271979Y-80757528D01*
X136181333Y-80748600D01*
X136181322Y-80748600D01*
X136144000Y-80744924D01*
X136106678Y-80748600D01*
X135880272Y-80748600D01*
X135880272Y-80508600D01*
X135868012Y-80384118D01*
X135831702Y-80264420D01*
X135772737Y-80154106D01*
X135693385Y-80057415D01*
X135596694Y-79978063D01*
X135486380Y-79919098D01*
X135366682Y-79882788D01*
X135242200Y-79870528D01*
X135024400Y-79870528D01*
X135024400Y-76380333D01*
X135028077Y-76343000D01*
X135013403Y-76194014D01*
X134995348Y-76134494D01*
X134969946Y-76050753D01*
X134899374Y-75918724D01*
X134804401Y-75802999D01*
X134775398Y-75779197D01*
X134634404Y-75638203D01*
X134610601Y-75609199D01*
X134494876Y-75514226D01*
X134442591Y-75486279D01*
X134446412Y-75473682D01*
X134458672Y-75349200D01*
X134458672Y-74349200D01*
X134453295Y-74294600D01*
X138473921Y-74294600D01*
X138624069Y-74309322D01*
G37*
%TD.AperFunction*%
D18*
X120777000Y-77343000D02*
X120797000Y-77343000D01*
X120797000Y-77597000D01*
X120777000Y-77597000D01*
X120777000Y-78790155D01*
X121006890Y-78911476D01*
X121154099Y-78866825D01*
X121416920Y-78741641D01*
X121650269Y-78567588D01*
X121845178Y-78351355D01*
X121914805Y-78234466D01*
X122036525Y-78416632D01*
X122243368Y-78623475D01*
X122486589Y-78785990D01*
X122756842Y-78897932D01*
X123043740Y-78955000D01*
X123336260Y-78955000D01*
X123623158Y-78897932D01*
X123893411Y-78785990D01*
X124136632Y-78623475D01*
X124343475Y-78416632D01*
X124460000Y-78242240D01*
X124576525Y-78416632D01*
X124783368Y-78623475D01*
X125026589Y-78785990D01*
X125296842Y-78897932D01*
X125583740Y-78955000D01*
X125876260Y-78955000D01*
X126163158Y-78897932D01*
X126433411Y-78785990D01*
X126636492Y-78650296D01*
X127142200Y-79156004D01*
X127165998Y-79185002D01*
X127281723Y-79279975D01*
X127413752Y-79350547D01*
X127557013Y-79394004D01*
X127668666Y-79405001D01*
X127668675Y-79405001D01*
X127705998Y-79408677D01*
X127743321Y-79405001D01*
X131837477Y-79405001D01*
X131874799Y-79408677D01*
X131912121Y-79405001D01*
X131912132Y-79405001D01*
X132023785Y-79394004D01*
X132167046Y-79350547D01*
X132299075Y-79279975D01*
X132414800Y-79185002D01*
X132438603Y-79155998D01*
X133007329Y-78587272D01*
X133504400Y-78587272D01*
X133504401Y-79886828D01*
X133398020Y-79919098D01*
X133287706Y-79978063D01*
X133191015Y-80057415D01*
X133111663Y-80154106D01*
X133052698Y-80264420D01*
X133016388Y-80384118D01*
X133004128Y-80508600D01*
X133004128Y-82508600D01*
X133016388Y-82633082D01*
X133052698Y-82752780D01*
X133111663Y-82863094D01*
X133191015Y-82959785D01*
X133287706Y-83039137D01*
X133398020Y-83098102D01*
X133517718Y-83134412D01*
X133642200Y-83146672D01*
X135242200Y-83146672D01*
X135366682Y-83134412D01*
X135392928Y-83126450D01*
X135392928Y-83145600D01*
X135405188Y-83270082D01*
X135441498Y-83389780D01*
X135500463Y-83500094D01*
X135579815Y-83596785D01*
X135676506Y-83676137D01*
X135786820Y-83735102D01*
X135794302Y-83737372D01*
X135743733Y-83787941D01*
X135859758Y-83903966D01*
X135608132Y-83984625D01*
X135607161Y-83986653D01*
X135596694Y-83978063D01*
X135486380Y-83919098D01*
X135366682Y-83882788D01*
X135242200Y-83870528D01*
X134727950Y-83873600D01*
X134569200Y-84032350D01*
X134569200Y-85381600D01*
X134589200Y-85381600D01*
X134589200Y-85635600D01*
X134569200Y-85635600D01*
X134569200Y-85655600D01*
X134315200Y-85655600D01*
X134315200Y-85635600D01*
X133165950Y-85635600D01*
X133007200Y-85794350D01*
X133004128Y-86508600D01*
X133016388Y-86633082D01*
X133052698Y-86752780D01*
X133111663Y-86863094D01*
X133191015Y-86959785D01*
X133287706Y-87039137D01*
X133348439Y-87071600D01*
X128715709Y-87071600D01*
X128764094Y-87045737D01*
X128860785Y-86966385D01*
X128940137Y-86869694D01*
X128999102Y-86759380D01*
X129035412Y-86639682D01*
X129047672Y-86515200D01*
X129044861Y-85861587D01*
X129116141Y-85932867D01*
X129232166Y-85816842D01*
X129312825Y-86068468D01*
X129581129Y-86196867D01*
X129869326Y-86270455D01*
X130166343Y-86286404D01*
X130460763Y-86244101D01*
X130741274Y-86145172D01*
X130884775Y-86068468D01*
X130965435Y-85816840D01*
X130098800Y-84950205D01*
X130084658Y-84964348D01*
X129905053Y-84784743D01*
X129919195Y-84770600D01*
X129905053Y-84756458D01*
X130084658Y-84576853D01*
X130098800Y-84590995D01*
X130112943Y-84576853D01*
X130292548Y-84756458D01*
X130278405Y-84770600D01*
X131145040Y-85637235D01*
X131396668Y-85556575D01*
X131525067Y-85288271D01*
X131598655Y-85000074D01*
X131614604Y-84703057D01*
X131586664Y-84508600D01*
X133004128Y-84508600D01*
X133007200Y-85222850D01*
X133165950Y-85381600D01*
X134315200Y-85381600D01*
X134315200Y-84032350D01*
X134156450Y-83873600D01*
X133642200Y-83870528D01*
X133517718Y-83882788D01*
X133398020Y-83919098D01*
X133287706Y-83978063D01*
X133191015Y-84057415D01*
X133111663Y-84154106D01*
X133052698Y-84264420D01*
X133016388Y-84384118D01*
X133004128Y-84508600D01*
X131586664Y-84508600D01*
X131572301Y-84408637D01*
X131473372Y-84128126D01*
X131396668Y-83984625D01*
X131145042Y-83903966D01*
X131261067Y-83787941D01*
X131210498Y-83737372D01*
X131217980Y-83735102D01*
X131328294Y-83676137D01*
X131424985Y-83596785D01*
X131504337Y-83500094D01*
X131563302Y-83389780D01*
X131599612Y-83270082D01*
X131611872Y-83145600D01*
X131611872Y-81395600D01*
X131599612Y-81271118D01*
X131563302Y-81151420D01*
X131504337Y-81041106D01*
X131424985Y-80944415D01*
X131328294Y-80865063D01*
X131217980Y-80806098D01*
X131098282Y-80769788D01*
X130973800Y-80757528D01*
X129404369Y-80757528D01*
X129380733Y-80755200D01*
X129380722Y-80755200D01*
X129343400Y-80751524D01*
X129306078Y-80755200D01*
X129047672Y-80755200D01*
X129047672Y-80515200D01*
X129035412Y-80390718D01*
X128999102Y-80271020D01*
X128940137Y-80160706D01*
X128860785Y-80064015D01*
X128764094Y-79984663D01*
X128653780Y-79925698D01*
X128534082Y-79889388D01*
X128409600Y-79877128D01*
X126809600Y-79877128D01*
X126685118Y-79889388D01*
X126565420Y-79925698D01*
X126455106Y-79984663D01*
X126358415Y-80064015D01*
X126279063Y-80160706D01*
X126220098Y-80271020D01*
X126183788Y-80390718D01*
X126171528Y-80515200D01*
X126171528Y-82515200D01*
X126183788Y-82639682D01*
X126220098Y-82759380D01*
X126279063Y-82869694D01*
X126358415Y-82966385D01*
X126455106Y-83045737D01*
X126565420Y-83104702D01*
X126685118Y-83141012D01*
X126809600Y-83153272D01*
X128409600Y-83153272D01*
X128534082Y-83141012D01*
X128585728Y-83125345D01*
X128585728Y-83145600D01*
X128597988Y-83270082D01*
X128634298Y-83389780D01*
X128693263Y-83500094D01*
X128772615Y-83596785D01*
X128869306Y-83676137D01*
X128979620Y-83735102D01*
X128987102Y-83737372D01*
X128936533Y-83787941D01*
X129052558Y-83903966D01*
X128800932Y-83984625D01*
X128790531Y-84006359D01*
X128764094Y-83984663D01*
X128653780Y-83925698D01*
X128534082Y-83889388D01*
X128409600Y-83877128D01*
X127895350Y-83880200D01*
X127736600Y-84038950D01*
X127736600Y-85388200D01*
X127756600Y-85388200D01*
X127756600Y-85642200D01*
X127736600Y-85642200D01*
X127736600Y-85662200D01*
X127482600Y-85662200D01*
X127482600Y-85642200D01*
X126333350Y-85642200D01*
X126174600Y-85800950D01*
X126171528Y-86515200D01*
X126183788Y-86639682D01*
X126220098Y-86759380D01*
X126279063Y-86869694D01*
X126358415Y-86966385D01*
X126455106Y-87045737D01*
X126503491Y-87071600D01*
X121933909Y-87071600D01*
X121982294Y-87045737D01*
X122078985Y-86966385D01*
X122158337Y-86869694D01*
X122217302Y-86759380D01*
X122253612Y-86639682D01*
X122265872Y-86515200D01*
X122263171Y-85887097D01*
X122308941Y-85932867D01*
X122424966Y-85816842D01*
X122505625Y-86068468D01*
X122773929Y-86196867D01*
X123062126Y-86270455D01*
X123359143Y-86286404D01*
X123653563Y-86244101D01*
X123934074Y-86145172D01*
X124077575Y-86068468D01*
X124158235Y-85816840D01*
X123291600Y-84950205D01*
X123277458Y-84964348D01*
X123097853Y-84784743D01*
X123111995Y-84770600D01*
X123097853Y-84756458D01*
X123277458Y-84576853D01*
X123291600Y-84590995D01*
X123305743Y-84576853D01*
X123485348Y-84756458D01*
X123471205Y-84770600D01*
X124337840Y-85637235D01*
X124589468Y-85556575D01*
X124717867Y-85288271D01*
X124791455Y-85000074D01*
X124807404Y-84703057D01*
X124780413Y-84515200D01*
X126171528Y-84515200D01*
X126174600Y-85229450D01*
X126333350Y-85388200D01*
X127482600Y-85388200D01*
X127482600Y-84038950D01*
X127323850Y-83880200D01*
X126809600Y-83877128D01*
X126685118Y-83889388D01*
X126565420Y-83925698D01*
X126455106Y-83984663D01*
X126358415Y-84064015D01*
X126279063Y-84160706D01*
X126220098Y-84271020D01*
X126183788Y-84390718D01*
X126171528Y-84515200D01*
X124780413Y-84515200D01*
X124765101Y-84408637D01*
X124666172Y-84128126D01*
X124589468Y-83984625D01*
X124337842Y-83903966D01*
X124453867Y-83787941D01*
X124403298Y-83737372D01*
X124410780Y-83735102D01*
X124521094Y-83676137D01*
X124617785Y-83596785D01*
X124697137Y-83500094D01*
X124756102Y-83389780D01*
X124792412Y-83270082D01*
X124804672Y-83145600D01*
X124804672Y-81395600D01*
X124792412Y-81271118D01*
X124756102Y-81151420D01*
X124697137Y-81041106D01*
X124617785Y-80944415D01*
X124521094Y-80865063D01*
X124410780Y-80806098D01*
X124291082Y-80769788D01*
X124166600Y-80757528D01*
X122597169Y-80757528D01*
X122573533Y-80755200D01*
X122573522Y-80755200D01*
X122536200Y-80751524D01*
X122498878Y-80755200D01*
X122265872Y-80755200D01*
X122265872Y-80515200D01*
X122253612Y-80390718D01*
X122217302Y-80271020D01*
X122158337Y-80160706D01*
X122078985Y-80064015D01*
X121982294Y-79984663D01*
X121871980Y-79925698D01*
X121752282Y-79889388D01*
X121627800Y-79877128D01*
X120027800Y-79877128D01*
X120014600Y-79878428D01*
X120014600Y-78804285D01*
X120145901Y-78866825D01*
X120293110Y-78911476D01*
X120523000Y-78790155D01*
X120523000Y-77597000D01*
X120503000Y-77597000D01*
X120503000Y-77343000D01*
X120523000Y-77343000D01*
X120523000Y-77323000D01*
X120777000Y-77323000D01*
X120777000Y-77343000D01*
%TA.AperFunction,Conductor*%
D19*
G36*
X120777000Y-77343000D02*
G01*
X120797000Y-77343000D01*
X120797000Y-77597000D01*
X120777000Y-77597000D01*
X120777000Y-78790155D01*
X121006890Y-78911476D01*
X121154099Y-78866825D01*
X121416920Y-78741641D01*
X121650269Y-78567588D01*
X121845178Y-78351355D01*
X121914805Y-78234466D01*
X122036525Y-78416632D01*
X122243368Y-78623475D01*
X122486589Y-78785990D01*
X122756842Y-78897932D01*
X123043740Y-78955000D01*
X123336260Y-78955000D01*
X123623158Y-78897932D01*
X123893411Y-78785990D01*
X124136632Y-78623475D01*
X124343475Y-78416632D01*
X124460000Y-78242240D01*
X124576525Y-78416632D01*
X124783368Y-78623475D01*
X125026589Y-78785990D01*
X125296842Y-78897932D01*
X125583740Y-78955000D01*
X125876260Y-78955000D01*
X126163158Y-78897932D01*
X126433411Y-78785990D01*
X126636492Y-78650296D01*
X127142200Y-79156004D01*
X127165998Y-79185002D01*
X127281723Y-79279975D01*
X127413752Y-79350547D01*
X127557013Y-79394004D01*
X127668666Y-79405001D01*
X127668675Y-79405001D01*
X127705998Y-79408677D01*
X127743321Y-79405001D01*
X131837477Y-79405001D01*
X131874799Y-79408677D01*
X131912121Y-79405001D01*
X131912132Y-79405001D01*
X132023785Y-79394004D01*
X132167046Y-79350547D01*
X132299075Y-79279975D01*
X132414800Y-79185002D01*
X132438603Y-79155998D01*
X133007329Y-78587272D01*
X133504400Y-78587272D01*
X133504401Y-79886828D01*
X133398020Y-79919098D01*
X133287706Y-79978063D01*
X133191015Y-80057415D01*
X133111663Y-80154106D01*
X133052698Y-80264420D01*
X133016388Y-80384118D01*
X133004128Y-80508600D01*
X133004128Y-82508600D01*
X133016388Y-82633082D01*
X133052698Y-82752780D01*
X133111663Y-82863094D01*
X133191015Y-82959785D01*
X133287706Y-83039137D01*
X133398020Y-83098102D01*
X133517718Y-83134412D01*
X133642200Y-83146672D01*
X135242200Y-83146672D01*
X135366682Y-83134412D01*
X135392928Y-83126450D01*
X135392928Y-83145600D01*
X135405188Y-83270082D01*
X135441498Y-83389780D01*
X135500463Y-83500094D01*
X135579815Y-83596785D01*
X135676506Y-83676137D01*
X135786820Y-83735102D01*
X135794302Y-83737372D01*
X135743733Y-83787941D01*
X135859758Y-83903966D01*
X135608132Y-83984625D01*
X135607161Y-83986653D01*
X135596694Y-83978063D01*
X135486380Y-83919098D01*
X135366682Y-83882788D01*
X135242200Y-83870528D01*
X134727950Y-83873600D01*
X134569200Y-84032350D01*
X134569200Y-85381600D01*
X134589200Y-85381600D01*
X134589200Y-85635600D01*
X134569200Y-85635600D01*
X134569200Y-85655600D01*
X134315200Y-85655600D01*
X134315200Y-85635600D01*
X133165950Y-85635600D01*
X133007200Y-85794350D01*
X133004128Y-86508600D01*
X133016388Y-86633082D01*
X133052698Y-86752780D01*
X133111663Y-86863094D01*
X133191015Y-86959785D01*
X133287706Y-87039137D01*
X133348439Y-87071600D01*
X128715709Y-87071600D01*
X128764094Y-87045737D01*
X128860785Y-86966385D01*
X128940137Y-86869694D01*
X128999102Y-86759380D01*
X129035412Y-86639682D01*
X129047672Y-86515200D01*
X129044861Y-85861587D01*
X129116141Y-85932867D01*
X129232166Y-85816842D01*
X129312825Y-86068468D01*
X129581129Y-86196867D01*
X129869326Y-86270455D01*
X130166343Y-86286404D01*
X130460763Y-86244101D01*
X130741274Y-86145172D01*
X130884775Y-86068468D01*
X130965435Y-85816840D01*
X130098800Y-84950205D01*
X130084658Y-84964348D01*
X129905053Y-84784743D01*
X129919195Y-84770600D01*
X129905053Y-84756458D01*
X130084658Y-84576853D01*
X130098800Y-84590995D01*
X130112943Y-84576853D01*
X130292548Y-84756458D01*
X130278405Y-84770600D01*
X131145040Y-85637235D01*
X131396668Y-85556575D01*
X131525067Y-85288271D01*
X131598655Y-85000074D01*
X131614604Y-84703057D01*
X131586664Y-84508600D01*
X133004128Y-84508600D01*
X133007200Y-85222850D01*
X133165950Y-85381600D01*
X134315200Y-85381600D01*
X134315200Y-84032350D01*
X134156450Y-83873600D01*
X133642200Y-83870528D01*
X133517718Y-83882788D01*
X133398020Y-83919098D01*
X133287706Y-83978063D01*
X133191015Y-84057415D01*
X133111663Y-84154106D01*
X133052698Y-84264420D01*
X133016388Y-84384118D01*
X133004128Y-84508600D01*
X131586664Y-84508600D01*
X131572301Y-84408637D01*
X131473372Y-84128126D01*
X131396668Y-83984625D01*
X131145042Y-83903966D01*
X131261067Y-83787941D01*
X131210498Y-83737372D01*
X131217980Y-83735102D01*
X131328294Y-83676137D01*
X131424985Y-83596785D01*
X131504337Y-83500094D01*
X131563302Y-83389780D01*
X131599612Y-83270082D01*
X131611872Y-83145600D01*
X131611872Y-81395600D01*
X131599612Y-81271118D01*
X131563302Y-81151420D01*
X131504337Y-81041106D01*
X131424985Y-80944415D01*
X131328294Y-80865063D01*
X131217980Y-80806098D01*
X131098282Y-80769788D01*
X130973800Y-80757528D01*
X129404369Y-80757528D01*
X129380733Y-80755200D01*
X129380722Y-80755200D01*
X129343400Y-80751524D01*
X129306078Y-80755200D01*
X129047672Y-80755200D01*
X129047672Y-80515200D01*
X129035412Y-80390718D01*
X128999102Y-80271020D01*
X128940137Y-80160706D01*
X128860785Y-80064015D01*
X128764094Y-79984663D01*
X128653780Y-79925698D01*
X128534082Y-79889388D01*
X128409600Y-79877128D01*
X126809600Y-79877128D01*
X126685118Y-79889388D01*
X126565420Y-79925698D01*
X126455106Y-79984663D01*
X126358415Y-80064015D01*
X126279063Y-80160706D01*
X126220098Y-80271020D01*
X126183788Y-80390718D01*
X126171528Y-80515200D01*
X126171528Y-82515200D01*
X126183788Y-82639682D01*
X126220098Y-82759380D01*
X126279063Y-82869694D01*
X126358415Y-82966385D01*
X126455106Y-83045737D01*
X126565420Y-83104702D01*
X126685118Y-83141012D01*
X126809600Y-83153272D01*
X128409600Y-83153272D01*
X128534082Y-83141012D01*
X128585728Y-83125345D01*
X128585728Y-83145600D01*
X128597988Y-83270082D01*
X128634298Y-83389780D01*
X128693263Y-83500094D01*
X128772615Y-83596785D01*
X128869306Y-83676137D01*
X128979620Y-83735102D01*
X128987102Y-83737372D01*
X128936533Y-83787941D01*
X129052558Y-83903966D01*
X128800932Y-83984625D01*
X128790531Y-84006359D01*
X128764094Y-83984663D01*
X128653780Y-83925698D01*
X128534082Y-83889388D01*
X128409600Y-83877128D01*
X127895350Y-83880200D01*
X127736600Y-84038950D01*
X127736600Y-85388200D01*
X127756600Y-85388200D01*
X127756600Y-85642200D01*
X127736600Y-85642200D01*
X127736600Y-85662200D01*
X127482600Y-85662200D01*
X127482600Y-85642200D01*
X126333350Y-85642200D01*
X126174600Y-85800950D01*
X126171528Y-86515200D01*
X126183788Y-86639682D01*
X126220098Y-86759380D01*
X126279063Y-86869694D01*
X126358415Y-86966385D01*
X126455106Y-87045737D01*
X126503491Y-87071600D01*
X121933909Y-87071600D01*
X121982294Y-87045737D01*
X122078985Y-86966385D01*
X122158337Y-86869694D01*
X122217302Y-86759380D01*
X122253612Y-86639682D01*
X122265872Y-86515200D01*
X122263171Y-85887097D01*
X122308941Y-85932867D01*
X122424966Y-85816842D01*
X122505625Y-86068468D01*
X122773929Y-86196867D01*
X123062126Y-86270455D01*
X123359143Y-86286404D01*
X123653563Y-86244101D01*
X123934074Y-86145172D01*
X124077575Y-86068468D01*
X124158235Y-85816840D01*
X123291600Y-84950205D01*
X123277458Y-84964348D01*
X123097853Y-84784743D01*
X123111995Y-84770600D01*
X123097853Y-84756458D01*
X123277458Y-84576853D01*
X123291600Y-84590995D01*
X123305743Y-84576853D01*
X123485348Y-84756458D01*
X123471205Y-84770600D01*
X124337840Y-85637235D01*
X124589468Y-85556575D01*
X124717867Y-85288271D01*
X124791455Y-85000074D01*
X124807404Y-84703057D01*
X124780413Y-84515200D01*
X126171528Y-84515200D01*
X126174600Y-85229450D01*
X126333350Y-85388200D01*
X127482600Y-85388200D01*
X127482600Y-84038950D01*
X127323850Y-83880200D01*
X126809600Y-83877128D01*
X126685118Y-83889388D01*
X126565420Y-83925698D01*
X126455106Y-83984663D01*
X126358415Y-84064015D01*
X126279063Y-84160706D01*
X126220098Y-84271020D01*
X126183788Y-84390718D01*
X126171528Y-84515200D01*
X124780413Y-84515200D01*
X124765101Y-84408637D01*
X124666172Y-84128126D01*
X124589468Y-83984625D01*
X124337842Y-83903966D01*
X124453867Y-83787941D01*
X124403298Y-83737372D01*
X124410780Y-83735102D01*
X124521094Y-83676137D01*
X124617785Y-83596785D01*
X124697137Y-83500094D01*
X124756102Y-83389780D01*
X124792412Y-83270082D01*
X124804672Y-83145600D01*
X124804672Y-81395600D01*
X124792412Y-81271118D01*
X124756102Y-81151420D01*
X124697137Y-81041106D01*
X124617785Y-80944415D01*
X124521094Y-80865063D01*
X124410780Y-80806098D01*
X124291082Y-80769788D01*
X124166600Y-80757528D01*
X122597169Y-80757528D01*
X122573533Y-80755200D01*
X122573522Y-80755200D01*
X122536200Y-80751524D01*
X122498878Y-80755200D01*
X122265872Y-80755200D01*
X122265872Y-80515200D01*
X122253612Y-80390718D01*
X122217302Y-80271020D01*
X122158337Y-80160706D01*
X122078985Y-80064015D01*
X121982294Y-79984663D01*
X121871980Y-79925698D01*
X121752282Y-79889388D01*
X121627800Y-79877128D01*
X120027800Y-79877128D01*
X120014600Y-79878428D01*
X120014600Y-78804285D01*
X120145901Y-78866825D01*
X120293110Y-78911476D01*
X120523000Y-78790155D01*
X120523000Y-77597000D01*
X120503000Y-77597000D01*
X120503000Y-77343000D01*
X120523000Y-77343000D01*
X120523000Y-77323000D01*
X120777000Y-77323000D01*
X120777000Y-77343000D01*
G37*
%TD.AperFunction*%
D18*
X121778528Y-83145600D02*
X121790788Y-83270082D01*
X121827098Y-83389780D01*
X121886063Y-83500094D01*
X121965415Y-83596785D01*
X122062106Y-83676137D01*
X122172420Y-83735102D01*
X122179902Y-83737372D01*
X122129333Y-83787941D01*
X122245358Y-83903966D01*
X121993732Y-83984625D01*
X121990494Y-83991392D01*
X121982294Y-83984663D01*
X121871980Y-83925698D01*
X121752282Y-83889388D01*
X121627800Y-83877128D01*
X121113550Y-83880200D01*
X120954800Y-84038950D01*
X120954800Y-85388200D01*
X120974800Y-85388200D01*
X120974800Y-85642200D01*
X120954800Y-85642200D01*
X120954800Y-85662200D01*
X120700800Y-85662200D01*
X120700800Y-85642200D01*
X120680800Y-85642200D01*
X120680800Y-85388200D01*
X120700800Y-85388200D01*
X120700800Y-84038950D01*
X120542050Y-83880200D01*
X120027800Y-83877128D01*
X120014600Y-83878428D01*
X120014600Y-83151972D01*
X120027800Y-83153272D01*
X121627800Y-83153272D01*
X121752282Y-83141012D01*
X121778528Y-83133050D01*
X121778528Y-83145600D01*
%TA.AperFunction,Conductor*%
D19*
G36*
X121778528Y-83145600D02*
G01*
X121790788Y-83270082D01*
X121827098Y-83389780D01*
X121886063Y-83500094D01*
X121965415Y-83596785D01*
X122062106Y-83676137D01*
X122172420Y-83735102D01*
X122179902Y-83737372D01*
X122129333Y-83787941D01*
X122245358Y-83903966D01*
X121993732Y-83984625D01*
X121990494Y-83991392D01*
X121982294Y-83984663D01*
X121871980Y-83925698D01*
X121752282Y-83889388D01*
X121627800Y-83877128D01*
X121113550Y-83880200D01*
X120954800Y-84038950D01*
X120954800Y-85388200D01*
X120974800Y-85388200D01*
X120974800Y-85642200D01*
X120954800Y-85642200D01*
X120954800Y-85662200D01*
X120700800Y-85662200D01*
X120700800Y-85642200D01*
X120680800Y-85642200D01*
X120680800Y-85388200D01*
X120700800Y-85388200D01*
X120700800Y-84038950D01*
X120542050Y-83880200D01*
X120027800Y-83877128D01*
X120014600Y-83878428D01*
X120014600Y-83151972D01*
X120027800Y-83153272D01*
X121627800Y-83153272D01*
X121752282Y-83141012D01*
X121778528Y-83133050D01*
X121778528Y-83145600D01*
G37*
%TD.AperFunction*%
D18*
X131694788Y-76773682D02*
X131702529Y-76799200D01*
X131694788Y-76824718D01*
X131682528Y-76949200D01*
X131682528Y-77762471D01*
X131559998Y-77885001D01*
X129690868Y-77885001D01*
X129711481Y-77826891D01*
X129590814Y-77597000D01*
X128397000Y-77597000D01*
X128397000Y-77617000D01*
X128143000Y-77617000D01*
X128143000Y-77597000D01*
X128123000Y-77597000D01*
X128123000Y-77343000D01*
X128143000Y-77343000D01*
X128143000Y-77323000D01*
X128397000Y-77323000D01*
X128397000Y-77343000D01*
X129590814Y-77343000D01*
X129711481Y-77113109D01*
X129623470Y-76865001D01*
X131242475Y-76865001D01*
X131279797Y-76868677D01*
X131317119Y-76865001D01*
X131317130Y-76865001D01*
X131428783Y-76854004D01*
X131572044Y-76810547D01*
X131692099Y-76746376D01*
X131694788Y-76773682D01*
%TA.AperFunction,Conductor*%
D19*
G36*
X131694788Y-76773682D02*
G01*
X131702529Y-76799200D01*
X131694788Y-76824718D01*
X131682528Y-76949200D01*
X131682528Y-77762471D01*
X131559998Y-77885001D01*
X129690868Y-77885001D01*
X129711481Y-77826891D01*
X129590814Y-77597000D01*
X128397000Y-77597000D01*
X128397000Y-77617000D01*
X128143000Y-77617000D01*
X128143000Y-77597000D01*
X128123000Y-77597000D01*
X128123000Y-77343000D01*
X128143000Y-77343000D01*
X128143000Y-77323000D01*
X128397000Y-77323000D01*
X128397000Y-77343000D01*
X129590814Y-77343000D01*
X129711481Y-77113109D01*
X129623470Y-76865001D01*
X131242475Y-76865001D01*
X131279797Y-76868677D01*
X131317119Y-76865001D01*
X131317130Y-76865001D01*
X131428783Y-76854004D01*
X131572044Y-76810547D01*
X131692099Y-76746376D01*
X131694788Y-76773682D01*
G37*
%TD.AperFunction*%
%TD*%
M02*
