%TF.GenerationSoftware,KiCad,Pcbnew,(5.1.10-1-10_14)*%
%TF.CreationDate,2022-01-09T15:55:39-08:00*%
%TF.ProjectId,ThermistorExpander-kicad,54686572-6d69-4737-946f-72457870616e,rev?*%
%TF.SameCoordinates,Original*%
%TF.FileFunction,Legend,Top*%
%TF.FilePolarity,Positive*%
%FSLAX46Y46*%
G04 Gerber Fmt 4.6, Leading zero omitted, Abs format (unit mm)*
G04 Created by KiCad (PCBNEW (5.1.10-1-10_14)) date 2022-01-09 15:55:39*
%MOMM*%
%LPD*%
G01*
G04 APERTURE LIST*
%ADD10C,0.100000*%
%ADD11C,0.150000*%
%ADD12C,0.120000*%
G04 APERTURE END LIST*
D10*
X130595590Y-76940704D02*
X130862257Y-77740704D01*
X131128923Y-76940704D01*
X131814638Y-77740704D02*
X131357495Y-77740704D01*
X131586066Y-77740704D02*
X131586066Y-76940704D01*
X131509876Y-77054990D01*
X131433685Y-77131180D01*
X131357495Y-77169276D01*
X132157495Y-77664514D02*
X132195590Y-77702609D01*
X132157495Y-77740704D01*
X132119400Y-77702609D01*
X132157495Y-77664514D01*
X132157495Y-77740704D01*
X132690828Y-76940704D02*
X132767019Y-76940704D01*
X132843209Y-76978800D01*
X132881304Y-77016895D01*
X132919400Y-77093085D01*
X132957495Y-77245466D01*
X132957495Y-77435942D01*
X132919400Y-77588323D01*
X132881304Y-77664514D01*
X132843209Y-77702609D01*
X132767019Y-77740704D01*
X132690828Y-77740704D01*
X132614638Y-77702609D01*
X132576542Y-77664514D01*
X132538447Y-77588323D01*
X132500352Y-77435942D01*
X132500352Y-77245466D01*
X132538447Y-77093085D01*
X132576542Y-77016895D01*
X132614638Y-76978800D01*
X132690828Y-76940704D01*
X133909876Y-77740704D02*
X133909876Y-76940704D01*
X133909876Y-77245466D02*
X133986066Y-77207371D01*
X134138447Y-77207371D01*
X134214638Y-77245466D01*
X134252733Y-77283561D01*
X134290828Y-77359752D01*
X134290828Y-77588323D01*
X134252733Y-77664514D01*
X134214638Y-77702609D01*
X134138447Y-77740704D01*
X133986066Y-77740704D01*
X133909876Y-77702609D01*
X134557495Y-77207371D02*
X134747971Y-77740704D01*
X134938447Y-77207371D02*
X134747971Y-77740704D01*
X134671780Y-77931180D01*
X134633685Y-77969276D01*
X134557495Y-78007371D01*
X136081304Y-78045466D02*
X136043209Y-78007371D01*
X135967019Y-77893085D01*
X135928923Y-77816895D01*
X135890828Y-77702609D01*
X135852733Y-77512133D01*
X135852733Y-77359752D01*
X135890828Y-77169276D01*
X135928923Y-77054990D01*
X135967019Y-76978800D01*
X136043209Y-76864514D01*
X136081304Y-76826419D01*
X136614638Y-76940704D02*
X136614638Y-77512133D01*
X136576542Y-77626419D01*
X136500352Y-77702609D01*
X136386066Y-77740704D01*
X136309876Y-77740704D01*
X136995590Y-77740704D02*
X136995590Y-76940704D01*
X137186066Y-76940704D01*
X137300352Y-76978800D01*
X137376542Y-77054990D01*
X137414638Y-77131180D01*
X137452733Y-77283561D01*
X137452733Y-77397847D01*
X137414638Y-77550228D01*
X137376542Y-77626419D01*
X137300352Y-77702609D01*
X137186066Y-77740704D01*
X136995590Y-77740704D01*
X138100352Y-77702609D02*
X138024161Y-77740704D01*
X137871780Y-77740704D01*
X137795590Y-77702609D01*
X137757495Y-77626419D01*
X137757495Y-77321657D01*
X137795590Y-77245466D01*
X137871780Y-77207371D01*
X138024161Y-77207371D01*
X138100352Y-77245466D01*
X138138447Y-77321657D01*
X138138447Y-77397847D01*
X137757495Y-77474038D01*
X138405114Y-76940704D02*
X138595590Y-77740704D01*
X138747971Y-77169276D01*
X138900352Y-77740704D01*
X139090828Y-76940704D01*
X139319400Y-78045466D02*
X139357495Y-78007371D01*
X139433685Y-77893085D01*
X139471780Y-77816895D01*
X139509876Y-77702609D01*
X139547971Y-77512133D01*
X139547971Y-77359752D01*
X139509876Y-77169276D01*
X139471780Y-77054990D01*
X139433685Y-76978800D01*
X139357495Y-76864514D01*
X139319400Y-76826419D01*
X130709876Y-79040704D02*
X130709876Y-78240704D01*
X130900352Y-78240704D01*
X131014638Y-78278800D01*
X131090828Y-78354990D01*
X131128923Y-78431180D01*
X131167019Y-78583561D01*
X131167019Y-78697847D01*
X131128923Y-78850228D01*
X131090828Y-78926419D01*
X131014638Y-79002609D01*
X130900352Y-79040704D01*
X130709876Y-79040704D01*
X131624161Y-79040704D02*
X131547971Y-79002609D01*
X131509876Y-78964514D01*
X131471780Y-78888323D01*
X131471780Y-78659752D01*
X131509876Y-78583561D01*
X131547971Y-78545466D01*
X131624161Y-78507371D01*
X131738447Y-78507371D01*
X131814638Y-78545466D01*
X131852733Y-78583561D01*
X131890828Y-78659752D01*
X131890828Y-78888323D01*
X131852733Y-78964514D01*
X131814638Y-79002609D01*
X131738447Y-79040704D01*
X131624161Y-79040704D01*
X132119400Y-78507371D02*
X132424161Y-78507371D01*
X132233685Y-78240704D02*
X132233685Y-78926419D01*
X132271780Y-79002609D01*
X132347971Y-79040704D01*
X132424161Y-79040704D01*
X133033685Y-79040704D02*
X133033685Y-78240704D01*
X133033685Y-79002609D02*
X132957495Y-79040704D01*
X132805114Y-79040704D01*
X132728923Y-79002609D01*
X132690828Y-78964514D01*
X132652733Y-78888323D01*
X132652733Y-78659752D01*
X132690828Y-78583561D01*
X132728923Y-78545466D01*
X132805114Y-78507371D01*
X132957495Y-78507371D01*
X133033685Y-78545466D01*
X133757495Y-79040704D02*
X133757495Y-78621657D01*
X133719400Y-78545466D01*
X133643209Y-78507371D01*
X133490828Y-78507371D01*
X133414638Y-78545466D01*
X133757495Y-79002609D02*
X133681304Y-79040704D01*
X133490828Y-79040704D01*
X133414638Y-79002609D01*
X133376542Y-78926419D01*
X133376542Y-78850228D01*
X133414638Y-78774038D01*
X133490828Y-78735942D01*
X133681304Y-78735942D01*
X133757495Y-78697847D01*
X134100352Y-79002609D02*
X134176542Y-79040704D01*
X134328923Y-79040704D01*
X134405114Y-79002609D01*
X134443209Y-78926419D01*
X134443209Y-78888323D01*
X134405114Y-78812133D01*
X134328923Y-78774038D01*
X134214638Y-78774038D01*
X134138447Y-78735942D01*
X134100352Y-78659752D01*
X134100352Y-78621657D01*
X134138447Y-78545466D01*
X134214638Y-78507371D01*
X134328923Y-78507371D01*
X134405114Y-78545466D01*
X134786066Y-79040704D02*
X134786066Y-78240704D01*
X135128923Y-79040704D02*
X135128923Y-78621657D01*
X135090828Y-78545466D01*
X135014638Y-78507371D01*
X134900352Y-78507371D01*
X134824161Y-78545466D01*
X134786066Y-78583561D01*
X135433685Y-78240704D02*
X135928923Y-78240704D01*
X135662257Y-78545466D01*
X135776542Y-78545466D01*
X135852733Y-78583561D01*
X135890828Y-78621657D01*
X135928923Y-78697847D01*
X135928923Y-78888323D01*
X135890828Y-78964514D01*
X135852733Y-79002609D01*
X135776542Y-79040704D01*
X135547971Y-79040704D01*
X135471780Y-79002609D01*
X135433685Y-78964514D01*
X136233685Y-78316895D02*
X136271780Y-78278800D01*
X136347971Y-78240704D01*
X136538447Y-78240704D01*
X136614638Y-78278800D01*
X136652733Y-78316895D01*
X136690828Y-78393085D01*
X136690828Y-78469276D01*
X136652733Y-78583561D01*
X136195590Y-79040704D01*
X136690828Y-79040704D01*
D11*
X131021776Y-75004561D02*
X131164633Y-75052180D01*
X131402728Y-75052180D01*
X131497966Y-75004561D01*
X131545585Y-74956942D01*
X131593204Y-74861704D01*
X131593204Y-74766466D01*
X131545585Y-74671228D01*
X131497966Y-74623609D01*
X131402728Y-74575990D01*
X131212252Y-74528371D01*
X131117014Y-74480752D01*
X131069395Y-74433133D01*
X131021776Y-74337895D01*
X131021776Y-74242657D01*
X131069395Y-74147419D01*
X131117014Y-74099800D01*
X131212252Y-74052180D01*
X131450347Y-74052180D01*
X131593204Y-74099800D01*
X132021776Y-75052180D02*
X132021776Y-74052180D01*
X132402728Y-74052180D01*
X132497966Y-74099800D01*
X132545585Y-74147419D01*
X132593204Y-74242657D01*
X132593204Y-74385514D01*
X132545585Y-74480752D01*
X132497966Y-74528371D01*
X132402728Y-74575990D01*
X132021776Y-74575990D01*
X133021776Y-75052180D02*
X133021776Y-74052180D01*
X134117014Y-74052180D02*
X134688442Y-74052180D01*
X134402728Y-75052180D02*
X134402728Y-74052180D01*
X135021776Y-75052180D02*
X135021776Y-74052180D01*
X135021776Y-74528371D02*
X135593204Y-74528371D01*
X135593204Y-75052180D02*
X135593204Y-74052180D01*
X136831300Y-74528371D02*
X137164633Y-74528371D01*
X137307490Y-75052180D02*
X136831300Y-75052180D01*
X136831300Y-74052180D01*
X137307490Y-74052180D01*
X137640823Y-75052180D02*
X138164633Y-74385514D01*
X137640823Y-74385514D02*
X138164633Y-75052180D01*
X138545585Y-74385514D02*
X138545585Y-75385514D01*
X138545585Y-74433133D02*
X138640823Y-74385514D01*
X138831300Y-74385514D01*
X138926538Y-74433133D01*
X138974157Y-74480752D01*
X139021776Y-74575990D01*
X139021776Y-74861704D01*
X138974157Y-74956942D01*
X138926538Y-75004561D01*
X138831300Y-75052180D01*
X138640823Y-75052180D01*
X138545585Y-75004561D01*
D12*
%TO.C,J1*%
X129600000Y-73600000D02*
X129600000Y-74930000D01*
X128270000Y-73600000D02*
X129600000Y-73600000D01*
X129600000Y-76200000D02*
X129600000Y-78800000D01*
X127000000Y-76200000D02*
X129600000Y-76200000D01*
X127000000Y-73600000D02*
X127000000Y-76200000D01*
X129600000Y-78800000D02*
X119320000Y-78800000D01*
X127000000Y-73600000D02*
X119320000Y-73600000D01*
X119320000Y-73600000D02*
X119320000Y-78800000D01*
%TO.C,J4*%
X139356000Y-79720600D02*
X133406000Y-79720600D01*
X133406000Y-79720600D02*
X133406000Y-87320600D01*
X133406000Y-87320600D02*
X139356000Y-87320600D01*
X139356000Y-87320600D02*
X139356000Y-79720600D01*
X139356000Y-83020600D02*
X138606000Y-83020600D01*
X138606000Y-83020600D02*
X138606000Y-84020600D01*
X138606000Y-84020600D02*
X139356000Y-84020600D01*
X139356000Y-84020600D02*
X139356000Y-83020600D01*
X139356000Y-79720600D02*
X138606000Y-79720600D01*
X138606000Y-79720600D02*
X138606000Y-81520600D01*
X138606000Y-81520600D02*
X139356000Y-81520600D01*
X139356000Y-81520600D02*
X139356000Y-79720600D01*
X139356000Y-85520600D02*
X138606000Y-85520600D01*
X138606000Y-85520600D02*
X138606000Y-87320600D01*
X138606000Y-87320600D02*
X139356000Y-87320600D01*
X139356000Y-87320600D02*
X139356000Y-85520600D01*
X137106000Y-79720600D02*
X137106000Y-80470600D01*
X137106000Y-80470600D02*
X134156000Y-80470600D01*
X134156000Y-80470600D02*
X134156000Y-83520600D01*
X137106000Y-87320600D02*
X137106000Y-86570600D01*
X137106000Y-86570600D02*
X134156000Y-86570600D01*
X134156000Y-86570600D02*
X134156000Y-83520600D01*
X139656000Y-81920600D02*
X139656000Y-79420600D01*
X139656000Y-79420600D02*
X137156000Y-79420600D01*
%TO.C,J3*%
X132548800Y-79720600D02*
X126598800Y-79720600D01*
X126598800Y-79720600D02*
X126598800Y-87320600D01*
X126598800Y-87320600D02*
X132548800Y-87320600D01*
X132548800Y-87320600D02*
X132548800Y-79720600D01*
X132548800Y-83020600D02*
X131798800Y-83020600D01*
X131798800Y-83020600D02*
X131798800Y-84020600D01*
X131798800Y-84020600D02*
X132548800Y-84020600D01*
X132548800Y-84020600D02*
X132548800Y-83020600D01*
X132548800Y-79720600D02*
X131798800Y-79720600D01*
X131798800Y-79720600D02*
X131798800Y-81520600D01*
X131798800Y-81520600D02*
X132548800Y-81520600D01*
X132548800Y-81520600D02*
X132548800Y-79720600D01*
X132548800Y-85520600D02*
X131798800Y-85520600D01*
X131798800Y-85520600D02*
X131798800Y-87320600D01*
X131798800Y-87320600D02*
X132548800Y-87320600D01*
X132548800Y-87320600D02*
X132548800Y-85520600D01*
X130298800Y-79720600D02*
X130298800Y-80470600D01*
X130298800Y-80470600D02*
X127348800Y-80470600D01*
X127348800Y-80470600D02*
X127348800Y-83520600D01*
X130298800Y-87320600D02*
X130298800Y-86570600D01*
X130298800Y-86570600D02*
X127348800Y-86570600D01*
X127348800Y-86570600D02*
X127348800Y-83520600D01*
X132848800Y-81920600D02*
X132848800Y-79420600D01*
X132848800Y-79420600D02*
X130348800Y-79420600D01*
%TO.C,J2*%
X125741600Y-79720600D02*
X119791600Y-79720600D01*
X119791600Y-79720600D02*
X119791600Y-87320600D01*
X119791600Y-87320600D02*
X125741600Y-87320600D01*
X125741600Y-87320600D02*
X125741600Y-79720600D01*
X125741600Y-83020600D02*
X124991600Y-83020600D01*
X124991600Y-83020600D02*
X124991600Y-84020600D01*
X124991600Y-84020600D02*
X125741600Y-84020600D01*
X125741600Y-84020600D02*
X125741600Y-83020600D01*
X125741600Y-79720600D02*
X124991600Y-79720600D01*
X124991600Y-79720600D02*
X124991600Y-81520600D01*
X124991600Y-81520600D02*
X125741600Y-81520600D01*
X125741600Y-81520600D02*
X125741600Y-79720600D01*
X125741600Y-85520600D02*
X124991600Y-85520600D01*
X124991600Y-85520600D02*
X124991600Y-87320600D01*
X124991600Y-87320600D02*
X125741600Y-87320600D01*
X125741600Y-87320600D02*
X125741600Y-85520600D01*
X123491600Y-79720600D02*
X123491600Y-80470600D01*
X123491600Y-80470600D02*
X120541600Y-80470600D01*
X120541600Y-80470600D02*
X120541600Y-83520600D01*
X123491600Y-87320600D02*
X123491600Y-86570600D01*
X123491600Y-86570600D02*
X120541600Y-86570600D01*
X120541600Y-86570600D02*
X120541600Y-83520600D01*
X126041600Y-81920600D02*
X126041600Y-79420600D01*
X126041600Y-79420600D02*
X123541600Y-79420600D01*
%TO.C,J1*%
D11*
X129474980Y-75923733D02*
X130189266Y-75923733D01*
X130332123Y-75971352D01*
X130427361Y-76066590D01*
X130474980Y-76209447D01*
X130474980Y-76304685D01*
X130474980Y-74923733D02*
X130474980Y-75495161D01*
X130474980Y-75209447D02*
X129474980Y-75209447D01*
X129617838Y-75304685D01*
X129713076Y-75399923D01*
X129760695Y-75495161D01*
%TO.C,J4*%
X134732780Y-82629333D02*
X135447066Y-82629333D01*
X135589923Y-82676952D01*
X135685161Y-82772190D01*
X135732780Y-82915047D01*
X135732780Y-83010285D01*
X135066114Y-81724571D02*
X135732780Y-81724571D01*
X134685161Y-81962666D02*
X135399447Y-82200761D01*
X135399447Y-81581714D01*
%TO.C,J3*%
X127925580Y-82603933D02*
X128639866Y-82603933D01*
X128782723Y-82651552D01*
X128877961Y-82746790D01*
X128925580Y-82889647D01*
X128925580Y-82984885D01*
X127925580Y-82222980D02*
X127925580Y-81603933D01*
X128306533Y-81937266D01*
X128306533Y-81794409D01*
X128354152Y-81699171D01*
X128401771Y-81651552D01*
X128497009Y-81603933D01*
X128735104Y-81603933D01*
X128830342Y-81651552D01*
X128877961Y-81699171D01*
X128925580Y-81794409D01*
X128925580Y-82080123D01*
X128877961Y-82175361D01*
X128830342Y-82222980D01*
%TO.C,J2*%
X121092980Y-82603933D02*
X121807266Y-82603933D01*
X121950123Y-82651552D01*
X122045361Y-82746790D01*
X122092980Y-82889647D01*
X122092980Y-82984885D01*
X121188219Y-82175361D02*
X121140600Y-82127742D01*
X121092980Y-82032504D01*
X121092980Y-81794409D01*
X121140600Y-81699171D01*
X121188219Y-81651552D01*
X121283457Y-81603933D01*
X121378695Y-81603933D01*
X121521552Y-81651552D01*
X122092980Y-82222980D01*
X122092980Y-81603933D01*
%TD*%
M02*
