%TF.GenerationSoftware,KiCad,Pcbnew,(5.1.10-1-10_14)*%
%TF.CreationDate,2022-01-09T15:55:39-08:00*%
%TF.ProjectId,ThermistorExpander-kicad,54686572-6d69-4737-946f-72457870616e,rev?*%
%TF.SameCoordinates,Original*%
%TF.FileFunction,Legend,Bot*%
%TF.FilePolarity,Positive*%
%FSLAX46Y46*%
G04 Gerber Fmt 4.6, Leading zero omitted, Abs format (unit mm)*
G04 Created by KiCad (PCBNEW (5.1.10-1-10_14)) date 2022-01-09 15:55:39*
%MOMM*%
%LPD*%
G01*
G04 APERTURE LIST*
%ADD10C,0.150000*%
%ADD11C,0.200000*%
%ADD12C,0.120000*%
G04 APERTURE END LIST*
D10*
X129409247Y-78751180D02*
X129409247Y-79465466D01*
X129456866Y-79608323D01*
X129552104Y-79703561D01*
X129694961Y-79751180D01*
X129790200Y-79751180D01*
X128456866Y-79751180D02*
X128933057Y-79751180D01*
X128933057Y-78751180D01*
X127552104Y-79655942D02*
X127599723Y-79703561D01*
X127742580Y-79751180D01*
X127837819Y-79751180D01*
X127980676Y-79703561D01*
X128075914Y-79608323D01*
X128123533Y-79513085D01*
X128171152Y-79322609D01*
X128171152Y-79179752D01*
X128123533Y-78989276D01*
X128075914Y-78894038D01*
X127980676Y-78798800D01*
X127837819Y-78751180D01*
X127742580Y-78751180D01*
X127599723Y-78798800D01*
X127552104Y-78846419D01*
X126837819Y-78751180D02*
X126837819Y-79465466D01*
X126885438Y-79608323D01*
X126980676Y-79703561D01*
X127123533Y-79751180D01*
X127218771Y-79751180D01*
X125885438Y-79751180D02*
X126361628Y-79751180D01*
X126361628Y-78751180D01*
X124980676Y-79655942D02*
X125028295Y-79703561D01*
X125171152Y-79751180D01*
X125266390Y-79751180D01*
X125409247Y-79703561D01*
X125504485Y-79608323D01*
X125552104Y-79513085D01*
X125599723Y-79322609D01*
X125599723Y-79179752D01*
X125552104Y-78989276D01*
X125504485Y-78894038D01*
X125409247Y-78798800D01*
X125266390Y-78751180D01*
X125171152Y-78751180D01*
X125028295Y-78798800D01*
X124980676Y-78846419D01*
X124266390Y-78751180D02*
X124266390Y-79465466D01*
X124314009Y-79608323D01*
X124409247Y-79703561D01*
X124552104Y-79751180D01*
X124647342Y-79751180D01*
X123314009Y-79751180D02*
X123790200Y-79751180D01*
X123790200Y-78751180D01*
X122409247Y-79655942D02*
X122456866Y-79703561D01*
X122599723Y-79751180D01*
X122694961Y-79751180D01*
X122837819Y-79703561D01*
X122933057Y-79608323D01*
X122980676Y-79513085D01*
X123028295Y-79322609D01*
X123028295Y-79179752D01*
X122980676Y-78989276D01*
X122933057Y-78894038D01*
X122837819Y-78798800D01*
X122694961Y-78751180D01*
X122599723Y-78751180D01*
X122456866Y-78798800D01*
X122409247Y-78846419D01*
X121694961Y-78751180D02*
X121694961Y-79465466D01*
X121742580Y-79608323D01*
X121837819Y-79703561D01*
X121980676Y-79751180D01*
X122075914Y-79751180D01*
X120742580Y-79751180D02*
X121218771Y-79751180D01*
X121218771Y-78751180D01*
X119837819Y-79655942D02*
X119885438Y-79703561D01*
X120028295Y-79751180D01*
X120123533Y-79751180D01*
X120266390Y-79703561D01*
X120361628Y-79608323D01*
X120409247Y-79513085D01*
X120456866Y-79322609D01*
X120456866Y-79179752D01*
X120409247Y-78989276D01*
X120361628Y-78894038D01*
X120266390Y-78798800D01*
X120123533Y-78751180D01*
X120028295Y-78751180D01*
X119885438Y-78798800D01*
X119837819Y-78846419D01*
X130871980Y-74730076D02*
X131871980Y-75063409D01*
X130871980Y-75396742D01*
X130967219Y-75682457D02*
X130919600Y-75730076D01*
X130871980Y-75825314D01*
X130871980Y-76063409D01*
X130919600Y-76158647D01*
X130967219Y-76206266D01*
X131062457Y-76253885D01*
X131157695Y-76253885D01*
X131300552Y-76206266D01*
X131871980Y-75634838D01*
X131871980Y-76253885D01*
X134605780Y-76330276D02*
X135605780Y-76663609D01*
X134605780Y-76996942D01*
X134605780Y-77235038D02*
X134605780Y-77854085D01*
X134986733Y-77520752D01*
X134986733Y-77663609D01*
X135034352Y-77758847D01*
X135081971Y-77806466D01*
X135177209Y-77854085D01*
X135415304Y-77854085D01*
X135510542Y-77806466D01*
X135558161Y-77758847D01*
X135605780Y-77663609D01*
X135605780Y-77377895D01*
X135558161Y-77282657D01*
X135510542Y-77235038D01*
D11*
X135544085Y-87110819D02*
X136115514Y-87110819D01*
X135829800Y-86110819D02*
X135829800Y-87110819D01*
X136448847Y-86110819D02*
X136448847Y-87110819D01*
X136448847Y-86634628D02*
X137020276Y-86634628D01*
X137020276Y-86110819D02*
X137020276Y-87110819D01*
X137925038Y-86777485D02*
X137925038Y-86110819D01*
X137686942Y-87158438D02*
X137448847Y-86444152D01*
X138067895Y-86444152D01*
X128736885Y-87136219D02*
X129308314Y-87136219D01*
X129022600Y-86136219D02*
X129022600Y-87136219D01*
X129641647Y-86136219D02*
X129641647Y-87136219D01*
X129641647Y-86660028D02*
X130213076Y-86660028D01*
X130213076Y-86136219D02*
X130213076Y-87136219D01*
X130594028Y-87136219D02*
X131213076Y-87136219D01*
X130879742Y-86755266D01*
X131022600Y-86755266D01*
X131117838Y-86707647D01*
X131165457Y-86660028D01*
X131213076Y-86564790D01*
X131213076Y-86326695D01*
X131165457Y-86231457D01*
X131117838Y-86183838D01*
X131022600Y-86136219D01*
X130736885Y-86136219D01*
X130641647Y-86183838D01*
X130594028Y-86231457D01*
X121955085Y-87161619D02*
X122526514Y-87161619D01*
X122240800Y-86161619D02*
X122240800Y-87161619D01*
X122859847Y-86161619D02*
X122859847Y-87161619D01*
X122859847Y-86685428D02*
X123431276Y-86685428D01*
X123431276Y-86161619D02*
X123431276Y-87161619D01*
X123859847Y-87066380D02*
X123907466Y-87114000D01*
X124002704Y-87161619D01*
X124240800Y-87161619D01*
X124336038Y-87114000D01*
X124383657Y-87066380D01*
X124431276Y-86971142D01*
X124431276Y-86875904D01*
X124383657Y-86733047D01*
X123812228Y-86161619D01*
X124431276Y-86161619D01*
D12*
%TO.C,C4*%
X133422200Y-84508600D02*
X133422200Y-82508600D01*
X135462200Y-82508600D02*
X135462200Y-84508600D01*
%TO.C,C3*%
X126589600Y-84515200D02*
X126589600Y-82515200D01*
X128629600Y-82515200D02*
X128629600Y-84515200D01*
%TO.C,C2*%
X119807800Y-84515200D02*
X119807800Y-82515200D01*
X121847800Y-82515200D02*
X121847800Y-84515200D01*
%TO.C,JP1*%
X134070600Y-78199200D02*
X134070600Y-74099200D01*
X134070600Y-74099200D02*
X132070600Y-74099200D01*
X132070600Y-74099200D02*
X132070600Y-78199200D01*
X132070600Y-78199200D02*
X134070600Y-78199200D01*
X131870600Y-77449200D02*
X131570600Y-77749200D01*
X131570600Y-77749200D02*
X131570600Y-77149200D01*
X131870600Y-77449200D02*
X131570600Y-77149200D01*
%TO.C,C4*%
D10*
X136640866Y-80798942D02*
X136688485Y-80846561D01*
X136831342Y-80894180D01*
X136926580Y-80894180D01*
X137069438Y-80846561D01*
X137164676Y-80751323D01*
X137212295Y-80656085D01*
X137259914Y-80465609D01*
X137259914Y-80322752D01*
X137212295Y-80132276D01*
X137164676Y-80037038D01*
X137069438Y-79941800D01*
X136926580Y-79894180D01*
X136831342Y-79894180D01*
X136688485Y-79941800D01*
X136640866Y-79989419D01*
X135783723Y-80227514D02*
X135783723Y-80894180D01*
X136021819Y-79846561D02*
X136259914Y-80560847D01*
X135640866Y-80560847D01*
%TO.C,C3*%
X129782866Y-80875142D02*
X129830485Y-80922761D01*
X129973342Y-80970380D01*
X130068580Y-80970380D01*
X130211438Y-80922761D01*
X130306676Y-80827523D01*
X130354295Y-80732285D01*
X130401914Y-80541809D01*
X130401914Y-80398952D01*
X130354295Y-80208476D01*
X130306676Y-80113238D01*
X130211438Y-80018000D01*
X130068580Y-79970380D01*
X129973342Y-79970380D01*
X129830485Y-80018000D01*
X129782866Y-80065619D01*
X129449533Y-79970380D02*
X128830485Y-79970380D01*
X129163819Y-80351333D01*
X129020961Y-80351333D01*
X128925723Y-80398952D01*
X128878104Y-80446571D01*
X128830485Y-80541809D01*
X128830485Y-80779904D01*
X128878104Y-80875142D01*
X128925723Y-80922761D01*
X129020961Y-80970380D01*
X129306676Y-80970380D01*
X129401914Y-80922761D01*
X129449533Y-80875142D01*
%TO.C,C2*%
X122950266Y-80925942D02*
X122997885Y-80973561D01*
X123140742Y-81021180D01*
X123235980Y-81021180D01*
X123378838Y-80973561D01*
X123474076Y-80878323D01*
X123521695Y-80783085D01*
X123569314Y-80592609D01*
X123569314Y-80449752D01*
X123521695Y-80259276D01*
X123474076Y-80164038D01*
X123378838Y-80068800D01*
X123235980Y-80021180D01*
X123140742Y-80021180D01*
X122997885Y-80068800D01*
X122950266Y-80116419D01*
X122569314Y-80116419D02*
X122521695Y-80068800D01*
X122426457Y-80021180D01*
X122188361Y-80021180D01*
X122093123Y-80068800D01*
X122045504Y-80116419D01*
X121997885Y-80211657D01*
X121997885Y-80306895D01*
X122045504Y-80449752D01*
X122616933Y-81021180D01*
X121997885Y-81021180D01*
%TO.C,JP1*%
X133929333Y-78425580D02*
X133929333Y-79139866D01*
X133976952Y-79282723D01*
X134072190Y-79377961D01*
X134215047Y-79425580D01*
X134310285Y-79425580D01*
X133453142Y-79425580D02*
X133453142Y-78425580D01*
X133072190Y-78425580D01*
X132976952Y-78473200D01*
X132929333Y-78520819D01*
X132881714Y-78616057D01*
X132881714Y-78758914D01*
X132929333Y-78854152D01*
X132976952Y-78901771D01*
X133072190Y-78949390D01*
X133453142Y-78949390D01*
X131929333Y-79425580D02*
X132500761Y-79425580D01*
X132215047Y-79425580D02*
X132215047Y-78425580D01*
X132310285Y-78568438D01*
X132405523Y-78663676D01*
X132500761Y-78711295D01*
%TD*%
M02*
