%TF.GenerationSoftware,KiCad,Pcbnew,(5.1.10-1-10_14)*%
%TF.CreationDate,2022-01-09T15:55:39-08:00*%
%TF.ProjectId,ThermistorExpander-kicad,54686572-6d69-4737-946f-72457870616e,rev?*%
%TF.SameCoordinates,Original*%
%TF.FileFunction,Copper,L1,Top*%
%TF.FilePolarity,Positive*%
%FSLAX46Y46*%
G04 Gerber Fmt 4.6, Leading zero omitted, Abs format (unit mm)*
G04 Created by KiCad (PCBNEW (5.1.10-1-10_14)) date 2022-01-09 15:55:39*
%MOMM*%
%LPD*%
G01*
G04 APERTURE LIST*
%TA.AperFunction,ComponentPad*%
%ADD10R,1.700000X1.700000*%
%TD*%
%TA.AperFunction,ComponentPad*%
%ADD11O,1.700000X1.700000*%
%TD*%
%TA.AperFunction,ComponentPad*%
%ADD12R,1.750000X1.750000*%
%TD*%
%TA.AperFunction,ComponentPad*%
%ADD13C,1.750000*%
%TD*%
%TA.AperFunction,ViaPad*%
%ADD14C,0.800000*%
%TD*%
%TA.AperFunction,Conductor*%
%ADD15C,0.250000*%
%TD*%
%TA.AperFunction,Conductor*%
%ADD16C,0.254000*%
%TD*%
%TA.AperFunction,Conductor*%
%ADD17C,0.100000*%
%TD*%
G04 APERTURE END LIST*
D10*
%TO.P,J1,1*%
%TO.N,Net-(J1-Pad1)*%
X128270000Y-74930000D03*
D11*
%TO.P,J1,2*%
%TO.N,GND*%
X128270000Y-77470000D03*
%TO.P,J1,3*%
%TO.N,/V2.0*%
X125730000Y-74930000D03*
%TO.P,J1,4*%
%TO.N,/V3.0*%
X125730000Y-77470000D03*
%TO.P,J1,5*%
%TO.N,/TH2*%
X123190000Y-74930000D03*
%TO.P,J1,6*%
%TO.N,/TH3*%
X123190000Y-77470000D03*
%TO.P,J1,7*%
%TO.N,Net-(J1-Pad7)*%
X120650000Y-74930000D03*
%TO.P,J1,8*%
%TO.N,GND*%
X120650000Y-77470000D03*
%TD*%
D12*
%TO.P,J4,1*%
%TO.N,/TH4*%
X136906000Y-82270600D03*
D13*
%TO.P,J4,2*%
%TO.N,GND*%
X136906000Y-84770600D03*
%TD*%
D12*
%TO.P,J3,1*%
%TO.N,/TH3*%
X130098800Y-82270600D03*
D13*
%TO.P,J3,2*%
%TO.N,GND*%
X130098800Y-84770600D03*
%TD*%
D12*
%TO.P,J2,1*%
%TO.N,/TH2*%
X123291600Y-82270600D03*
D13*
%TO.P,J2,2*%
%TO.N,GND*%
X123291600Y-84770600D03*
%TD*%
D14*
%TO.N,GND*%
X137769600Y-75158600D03*
%TD*%
D15*
%TO.N,/TH2*%
X122014999Y-80993999D02*
X123291600Y-82270600D01*
X122014999Y-76105001D02*
X122014999Y-80993999D01*
X123190000Y-74930000D02*
X122014999Y-76105001D01*
%TO.N,/TH3*%
X127990600Y-82270600D02*
X130098800Y-82270600D01*
X123190000Y-77470000D02*
X127990600Y-82270600D01*
%TD*%
D16*
%TO.N,GND*%
X138624069Y-74309322D02*
X138737446Y-74343553D01*
X138842019Y-74399155D01*
X138933796Y-74474007D01*
X139009291Y-74565264D01*
X139065619Y-74669444D01*
X139100640Y-74782576D01*
X139116201Y-74930631D01*
X139116200Y-86429321D01*
X139101478Y-86579469D01*
X139067247Y-86692846D01*
X139011646Y-86797417D01*
X138936794Y-86889195D01*
X138845535Y-86964691D01*
X138741360Y-87021019D01*
X138628224Y-87056040D01*
X138480179Y-87071600D01*
X120656879Y-87071600D01*
X120506731Y-87056878D01*
X120393354Y-87022647D01*
X120288783Y-86967046D01*
X120197005Y-86892194D01*
X120121509Y-86800935D01*
X120065181Y-86696760D01*
X120030160Y-86583624D01*
X120014600Y-86435579D01*
X120014600Y-85816840D01*
X122424965Y-85816840D01*
X122505625Y-86068468D01*
X122773929Y-86196867D01*
X123062126Y-86270455D01*
X123359143Y-86286404D01*
X123653563Y-86244101D01*
X123934074Y-86145172D01*
X124077575Y-86068468D01*
X124158235Y-85816840D01*
X129232165Y-85816840D01*
X129312825Y-86068468D01*
X129581129Y-86196867D01*
X129869326Y-86270455D01*
X130166343Y-86286404D01*
X130460763Y-86244101D01*
X130741274Y-86145172D01*
X130884775Y-86068468D01*
X130965435Y-85816840D01*
X136039365Y-85816840D01*
X136120025Y-86068468D01*
X136388329Y-86196867D01*
X136676526Y-86270455D01*
X136973543Y-86286404D01*
X137267963Y-86244101D01*
X137548474Y-86145172D01*
X137691975Y-86068468D01*
X137772635Y-85816840D01*
X136906000Y-84950205D01*
X136039365Y-85816840D01*
X130965435Y-85816840D01*
X130098800Y-84950205D01*
X129232165Y-85816840D01*
X124158235Y-85816840D01*
X123291600Y-84950205D01*
X122424965Y-85816840D01*
X120014600Y-85816840D01*
X120014600Y-78804285D01*
X120145901Y-78866825D01*
X120293110Y-78911476D01*
X120523000Y-78790155D01*
X120523000Y-77597000D01*
X120503000Y-77597000D01*
X120503000Y-77343000D01*
X120523000Y-77343000D01*
X120523000Y-77323000D01*
X120777000Y-77323000D01*
X120777000Y-77343000D01*
X120797000Y-77343000D01*
X120797000Y-77597000D01*
X120777000Y-77597000D01*
X120777000Y-78790155D01*
X121006890Y-78911476D01*
X121154099Y-78866825D01*
X121255000Y-78818765D01*
X121255000Y-80956667D01*
X121251323Y-80993999D01*
X121265997Y-81142984D01*
X121309453Y-81286245D01*
X121380025Y-81418275D01*
X121451200Y-81505001D01*
X121474999Y-81534000D01*
X121503997Y-81557798D01*
X121778528Y-81832329D01*
X121778528Y-83145600D01*
X121790788Y-83270082D01*
X121827098Y-83389780D01*
X121886063Y-83500094D01*
X121965415Y-83596785D01*
X122062106Y-83676137D01*
X122172420Y-83735102D01*
X122179902Y-83737372D01*
X122129333Y-83787941D01*
X122245358Y-83903966D01*
X121993732Y-83984625D01*
X121865333Y-84252929D01*
X121791745Y-84541126D01*
X121775796Y-84838143D01*
X121818099Y-85132563D01*
X121917028Y-85413074D01*
X121993732Y-85556575D01*
X122245360Y-85637235D01*
X123111995Y-84770600D01*
X123097853Y-84756458D01*
X123277458Y-84576853D01*
X123291600Y-84590995D01*
X123305743Y-84576853D01*
X123485348Y-84756458D01*
X123471205Y-84770600D01*
X124337840Y-85637235D01*
X124589468Y-85556575D01*
X124717867Y-85288271D01*
X124791455Y-85000074D01*
X124807404Y-84703057D01*
X124765101Y-84408637D01*
X124666172Y-84128126D01*
X124589468Y-83984625D01*
X124337842Y-83903966D01*
X124453867Y-83787941D01*
X124403298Y-83737372D01*
X124410780Y-83735102D01*
X124521094Y-83676137D01*
X124617785Y-83596785D01*
X124697137Y-83500094D01*
X124756102Y-83389780D01*
X124792412Y-83270082D01*
X124804672Y-83145600D01*
X124804672Y-81395600D01*
X124792412Y-81271118D01*
X124756102Y-81151420D01*
X124697137Y-81041106D01*
X124617785Y-80944415D01*
X124521094Y-80865063D01*
X124410780Y-80806098D01*
X124291082Y-80769788D01*
X124166600Y-80757528D01*
X122853329Y-80757528D01*
X122774999Y-80679198D01*
X122774999Y-78901544D01*
X123043740Y-78955000D01*
X123336260Y-78955000D01*
X123556408Y-78911209D01*
X127426801Y-82781603D01*
X127450599Y-82810601D01*
X127479597Y-82834399D01*
X127566324Y-82905574D01*
X127698353Y-82976146D01*
X127841614Y-83019603D01*
X127990600Y-83034277D01*
X128027933Y-83030600D01*
X128585728Y-83030600D01*
X128585728Y-83145600D01*
X128597988Y-83270082D01*
X128634298Y-83389780D01*
X128693263Y-83500094D01*
X128772615Y-83596785D01*
X128869306Y-83676137D01*
X128979620Y-83735102D01*
X128987102Y-83737372D01*
X128936533Y-83787941D01*
X129052558Y-83903966D01*
X128800932Y-83984625D01*
X128672533Y-84252929D01*
X128598945Y-84541126D01*
X128582996Y-84838143D01*
X128625299Y-85132563D01*
X128724228Y-85413074D01*
X128800932Y-85556575D01*
X129052560Y-85637235D01*
X129919195Y-84770600D01*
X129905053Y-84756458D01*
X130084658Y-84576853D01*
X130098800Y-84590995D01*
X130112943Y-84576853D01*
X130292548Y-84756458D01*
X130278405Y-84770600D01*
X131145040Y-85637235D01*
X131396668Y-85556575D01*
X131525067Y-85288271D01*
X131598655Y-85000074D01*
X131607350Y-84838143D01*
X135390196Y-84838143D01*
X135432499Y-85132563D01*
X135531428Y-85413074D01*
X135608132Y-85556575D01*
X135859760Y-85637235D01*
X136726395Y-84770600D01*
X136712253Y-84756458D01*
X136891858Y-84576853D01*
X136906000Y-84590995D01*
X136920143Y-84576853D01*
X137099748Y-84756458D01*
X137085605Y-84770600D01*
X137952240Y-85637235D01*
X138203868Y-85556575D01*
X138332267Y-85288271D01*
X138405855Y-85000074D01*
X138421804Y-84703057D01*
X138379501Y-84408637D01*
X138280572Y-84128126D01*
X138203868Y-83984625D01*
X137952242Y-83903966D01*
X138068267Y-83787941D01*
X138017698Y-83737372D01*
X138025180Y-83735102D01*
X138135494Y-83676137D01*
X138232185Y-83596785D01*
X138311537Y-83500094D01*
X138370502Y-83389780D01*
X138406812Y-83270082D01*
X138419072Y-83145600D01*
X138419072Y-81395600D01*
X138406812Y-81271118D01*
X138370502Y-81151420D01*
X138311537Y-81041106D01*
X138232185Y-80944415D01*
X138135494Y-80865063D01*
X138025180Y-80806098D01*
X137905482Y-80769788D01*
X137781000Y-80757528D01*
X136031000Y-80757528D01*
X135906518Y-80769788D01*
X135786820Y-80806098D01*
X135676506Y-80865063D01*
X135579815Y-80944415D01*
X135500463Y-81041106D01*
X135441498Y-81151420D01*
X135405188Y-81271118D01*
X135392928Y-81395600D01*
X135392928Y-83145600D01*
X135405188Y-83270082D01*
X135441498Y-83389780D01*
X135500463Y-83500094D01*
X135579815Y-83596785D01*
X135676506Y-83676137D01*
X135786820Y-83735102D01*
X135794302Y-83737372D01*
X135743733Y-83787941D01*
X135859758Y-83903966D01*
X135608132Y-83984625D01*
X135479733Y-84252929D01*
X135406145Y-84541126D01*
X135390196Y-84838143D01*
X131607350Y-84838143D01*
X131614604Y-84703057D01*
X131572301Y-84408637D01*
X131473372Y-84128126D01*
X131396668Y-83984625D01*
X131145042Y-83903966D01*
X131261067Y-83787941D01*
X131210498Y-83737372D01*
X131217980Y-83735102D01*
X131328294Y-83676137D01*
X131424985Y-83596785D01*
X131504337Y-83500094D01*
X131563302Y-83389780D01*
X131599612Y-83270082D01*
X131611872Y-83145600D01*
X131611872Y-81395600D01*
X131599612Y-81271118D01*
X131563302Y-81151420D01*
X131504337Y-81041106D01*
X131424985Y-80944415D01*
X131328294Y-80865063D01*
X131217980Y-80806098D01*
X131098282Y-80769788D01*
X130973800Y-80757528D01*
X129223800Y-80757528D01*
X129099318Y-80769788D01*
X128979620Y-80806098D01*
X128869306Y-80865063D01*
X128772615Y-80944415D01*
X128693263Y-81041106D01*
X128634298Y-81151420D01*
X128597988Y-81271118D01*
X128585728Y-81395600D01*
X128585728Y-81510600D01*
X128305402Y-81510600D01*
X125749801Y-78955000D01*
X125876260Y-78955000D01*
X126163158Y-78897932D01*
X126433411Y-78785990D01*
X126676632Y-78623475D01*
X126883475Y-78416632D01*
X127005195Y-78234466D01*
X127074822Y-78351355D01*
X127269731Y-78567588D01*
X127503080Y-78741641D01*
X127765901Y-78866825D01*
X127913110Y-78911476D01*
X128143000Y-78790155D01*
X128143000Y-77597000D01*
X128397000Y-77597000D01*
X128397000Y-78790155D01*
X128626890Y-78911476D01*
X128774099Y-78866825D01*
X129036920Y-78741641D01*
X129270269Y-78567588D01*
X129465178Y-78351355D01*
X129614157Y-78101252D01*
X129711481Y-77826891D01*
X129590814Y-77597000D01*
X128397000Y-77597000D01*
X128143000Y-77597000D01*
X128123000Y-77597000D01*
X128123000Y-77343000D01*
X128143000Y-77343000D01*
X128143000Y-77323000D01*
X128397000Y-77323000D01*
X128397000Y-77343000D01*
X129590814Y-77343000D01*
X129711481Y-77113109D01*
X129614157Y-76838748D01*
X129465178Y-76588645D01*
X129288374Y-76392498D01*
X129364180Y-76369502D01*
X129474494Y-76310537D01*
X129571185Y-76231185D01*
X129650537Y-76134494D01*
X129709502Y-76024180D01*
X129745812Y-75904482D01*
X129758072Y-75780000D01*
X129758072Y-74294600D01*
X138473921Y-74294600D01*
X138624069Y-74309322D01*
%TA.AperFunction,Conductor*%
D17*
G36*
X138624069Y-74309322D02*
G01*
X138737446Y-74343553D01*
X138842019Y-74399155D01*
X138933796Y-74474007D01*
X139009291Y-74565264D01*
X139065619Y-74669444D01*
X139100640Y-74782576D01*
X139116201Y-74930631D01*
X139116200Y-86429321D01*
X139101478Y-86579469D01*
X139067247Y-86692846D01*
X139011646Y-86797417D01*
X138936794Y-86889195D01*
X138845535Y-86964691D01*
X138741360Y-87021019D01*
X138628224Y-87056040D01*
X138480179Y-87071600D01*
X120656879Y-87071600D01*
X120506731Y-87056878D01*
X120393354Y-87022647D01*
X120288783Y-86967046D01*
X120197005Y-86892194D01*
X120121509Y-86800935D01*
X120065181Y-86696760D01*
X120030160Y-86583624D01*
X120014600Y-86435579D01*
X120014600Y-85816840D01*
X122424965Y-85816840D01*
X122505625Y-86068468D01*
X122773929Y-86196867D01*
X123062126Y-86270455D01*
X123359143Y-86286404D01*
X123653563Y-86244101D01*
X123934074Y-86145172D01*
X124077575Y-86068468D01*
X124158235Y-85816840D01*
X129232165Y-85816840D01*
X129312825Y-86068468D01*
X129581129Y-86196867D01*
X129869326Y-86270455D01*
X130166343Y-86286404D01*
X130460763Y-86244101D01*
X130741274Y-86145172D01*
X130884775Y-86068468D01*
X130965435Y-85816840D01*
X136039365Y-85816840D01*
X136120025Y-86068468D01*
X136388329Y-86196867D01*
X136676526Y-86270455D01*
X136973543Y-86286404D01*
X137267963Y-86244101D01*
X137548474Y-86145172D01*
X137691975Y-86068468D01*
X137772635Y-85816840D01*
X136906000Y-84950205D01*
X136039365Y-85816840D01*
X130965435Y-85816840D01*
X130098800Y-84950205D01*
X129232165Y-85816840D01*
X124158235Y-85816840D01*
X123291600Y-84950205D01*
X122424965Y-85816840D01*
X120014600Y-85816840D01*
X120014600Y-78804285D01*
X120145901Y-78866825D01*
X120293110Y-78911476D01*
X120523000Y-78790155D01*
X120523000Y-77597000D01*
X120503000Y-77597000D01*
X120503000Y-77343000D01*
X120523000Y-77343000D01*
X120523000Y-77323000D01*
X120777000Y-77323000D01*
X120777000Y-77343000D01*
X120797000Y-77343000D01*
X120797000Y-77597000D01*
X120777000Y-77597000D01*
X120777000Y-78790155D01*
X121006890Y-78911476D01*
X121154099Y-78866825D01*
X121255000Y-78818765D01*
X121255000Y-80956667D01*
X121251323Y-80993999D01*
X121265997Y-81142984D01*
X121309453Y-81286245D01*
X121380025Y-81418275D01*
X121451200Y-81505001D01*
X121474999Y-81534000D01*
X121503997Y-81557798D01*
X121778528Y-81832329D01*
X121778528Y-83145600D01*
X121790788Y-83270082D01*
X121827098Y-83389780D01*
X121886063Y-83500094D01*
X121965415Y-83596785D01*
X122062106Y-83676137D01*
X122172420Y-83735102D01*
X122179902Y-83737372D01*
X122129333Y-83787941D01*
X122245358Y-83903966D01*
X121993732Y-83984625D01*
X121865333Y-84252929D01*
X121791745Y-84541126D01*
X121775796Y-84838143D01*
X121818099Y-85132563D01*
X121917028Y-85413074D01*
X121993732Y-85556575D01*
X122245360Y-85637235D01*
X123111995Y-84770600D01*
X123097853Y-84756458D01*
X123277458Y-84576853D01*
X123291600Y-84590995D01*
X123305743Y-84576853D01*
X123485348Y-84756458D01*
X123471205Y-84770600D01*
X124337840Y-85637235D01*
X124589468Y-85556575D01*
X124717867Y-85288271D01*
X124791455Y-85000074D01*
X124807404Y-84703057D01*
X124765101Y-84408637D01*
X124666172Y-84128126D01*
X124589468Y-83984625D01*
X124337842Y-83903966D01*
X124453867Y-83787941D01*
X124403298Y-83737372D01*
X124410780Y-83735102D01*
X124521094Y-83676137D01*
X124617785Y-83596785D01*
X124697137Y-83500094D01*
X124756102Y-83389780D01*
X124792412Y-83270082D01*
X124804672Y-83145600D01*
X124804672Y-81395600D01*
X124792412Y-81271118D01*
X124756102Y-81151420D01*
X124697137Y-81041106D01*
X124617785Y-80944415D01*
X124521094Y-80865063D01*
X124410780Y-80806098D01*
X124291082Y-80769788D01*
X124166600Y-80757528D01*
X122853329Y-80757528D01*
X122774999Y-80679198D01*
X122774999Y-78901544D01*
X123043740Y-78955000D01*
X123336260Y-78955000D01*
X123556408Y-78911209D01*
X127426801Y-82781603D01*
X127450599Y-82810601D01*
X127479597Y-82834399D01*
X127566324Y-82905574D01*
X127698353Y-82976146D01*
X127841614Y-83019603D01*
X127990600Y-83034277D01*
X128027933Y-83030600D01*
X128585728Y-83030600D01*
X128585728Y-83145600D01*
X128597988Y-83270082D01*
X128634298Y-83389780D01*
X128693263Y-83500094D01*
X128772615Y-83596785D01*
X128869306Y-83676137D01*
X128979620Y-83735102D01*
X128987102Y-83737372D01*
X128936533Y-83787941D01*
X129052558Y-83903966D01*
X128800932Y-83984625D01*
X128672533Y-84252929D01*
X128598945Y-84541126D01*
X128582996Y-84838143D01*
X128625299Y-85132563D01*
X128724228Y-85413074D01*
X128800932Y-85556575D01*
X129052560Y-85637235D01*
X129919195Y-84770600D01*
X129905053Y-84756458D01*
X130084658Y-84576853D01*
X130098800Y-84590995D01*
X130112943Y-84576853D01*
X130292548Y-84756458D01*
X130278405Y-84770600D01*
X131145040Y-85637235D01*
X131396668Y-85556575D01*
X131525067Y-85288271D01*
X131598655Y-85000074D01*
X131607350Y-84838143D01*
X135390196Y-84838143D01*
X135432499Y-85132563D01*
X135531428Y-85413074D01*
X135608132Y-85556575D01*
X135859760Y-85637235D01*
X136726395Y-84770600D01*
X136712253Y-84756458D01*
X136891858Y-84576853D01*
X136906000Y-84590995D01*
X136920143Y-84576853D01*
X137099748Y-84756458D01*
X137085605Y-84770600D01*
X137952240Y-85637235D01*
X138203868Y-85556575D01*
X138332267Y-85288271D01*
X138405855Y-85000074D01*
X138421804Y-84703057D01*
X138379501Y-84408637D01*
X138280572Y-84128126D01*
X138203868Y-83984625D01*
X137952242Y-83903966D01*
X138068267Y-83787941D01*
X138017698Y-83737372D01*
X138025180Y-83735102D01*
X138135494Y-83676137D01*
X138232185Y-83596785D01*
X138311537Y-83500094D01*
X138370502Y-83389780D01*
X138406812Y-83270082D01*
X138419072Y-83145600D01*
X138419072Y-81395600D01*
X138406812Y-81271118D01*
X138370502Y-81151420D01*
X138311537Y-81041106D01*
X138232185Y-80944415D01*
X138135494Y-80865063D01*
X138025180Y-80806098D01*
X137905482Y-80769788D01*
X137781000Y-80757528D01*
X136031000Y-80757528D01*
X135906518Y-80769788D01*
X135786820Y-80806098D01*
X135676506Y-80865063D01*
X135579815Y-80944415D01*
X135500463Y-81041106D01*
X135441498Y-81151420D01*
X135405188Y-81271118D01*
X135392928Y-81395600D01*
X135392928Y-83145600D01*
X135405188Y-83270082D01*
X135441498Y-83389780D01*
X135500463Y-83500094D01*
X135579815Y-83596785D01*
X135676506Y-83676137D01*
X135786820Y-83735102D01*
X135794302Y-83737372D01*
X135743733Y-83787941D01*
X135859758Y-83903966D01*
X135608132Y-83984625D01*
X135479733Y-84252929D01*
X135406145Y-84541126D01*
X135390196Y-84838143D01*
X131607350Y-84838143D01*
X131614604Y-84703057D01*
X131572301Y-84408637D01*
X131473372Y-84128126D01*
X131396668Y-83984625D01*
X131145042Y-83903966D01*
X131261067Y-83787941D01*
X131210498Y-83737372D01*
X131217980Y-83735102D01*
X131328294Y-83676137D01*
X131424985Y-83596785D01*
X131504337Y-83500094D01*
X131563302Y-83389780D01*
X131599612Y-83270082D01*
X131611872Y-83145600D01*
X131611872Y-81395600D01*
X131599612Y-81271118D01*
X131563302Y-81151420D01*
X131504337Y-81041106D01*
X131424985Y-80944415D01*
X131328294Y-80865063D01*
X131217980Y-80806098D01*
X131098282Y-80769788D01*
X130973800Y-80757528D01*
X129223800Y-80757528D01*
X129099318Y-80769788D01*
X128979620Y-80806098D01*
X128869306Y-80865063D01*
X128772615Y-80944415D01*
X128693263Y-81041106D01*
X128634298Y-81151420D01*
X128597988Y-81271118D01*
X128585728Y-81395600D01*
X128585728Y-81510600D01*
X128305402Y-81510600D01*
X125749801Y-78955000D01*
X125876260Y-78955000D01*
X126163158Y-78897932D01*
X126433411Y-78785990D01*
X126676632Y-78623475D01*
X126883475Y-78416632D01*
X127005195Y-78234466D01*
X127074822Y-78351355D01*
X127269731Y-78567588D01*
X127503080Y-78741641D01*
X127765901Y-78866825D01*
X127913110Y-78911476D01*
X128143000Y-78790155D01*
X128143000Y-77597000D01*
X128397000Y-77597000D01*
X128397000Y-78790155D01*
X128626890Y-78911476D01*
X128774099Y-78866825D01*
X129036920Y-78741641D01*
X129270269Y-78567588D01*
X129465178Y-78351355D01*
X129614157Y-78101252D01*
X129711481Y-77826891D01*
X129590814Y-77597000D01*
X128397000Y-77597000D01*
X128143000Y-77597000D01*
X128123000Y-77597000D01*
X128123000Y-77343000D01*
X128143000Y-77343000D01*
X128143000Y-77323000D01*
X128397000Y-77323000D01*
X128397000Y-77343000D01*
X129590814Y-77343000D01*
X129711481Y-77113109D01*
X129614157Y-76838748D01*
X129465178Y-76588645D01*
X129288374Y-76392498D01*
X129364180Y-76369502D01*
X129474494Y-76310537D01*
X129571185Y-76231185D01*
X129650537Y-76134494D01*
X129709502Y-76024180D01*
X129745812Y-75904482D01*
X129758072Y-75780000D01*
X129758072Y-74294600D01*
X138473921Y-74294600D01*
X138624069Y-74309322D01*
G37*
%TD.AperFunction*%
%TD*%
M02*
