%TF.GenerationSoftware,KiCad,Pcbnew,(5.1.10-1-10_14)*%
%TF.CreationDate,2022-01-10T10:47:52-08:00*%
%TF.ProjectId,ThermistorExpander-kicad,54686572-6d69-4737-946f-72457870616e,rev?*%
%TF.SameCoordinates,Original*%
%TF.FileFunction,Copper,L2,Bot*%
%TF.FilePolarity,Positive*%
%FSLAX46Y46*%
G04 Gerber Fmt 4.6, Leading zero omitted, Abs format (unit mm)*
G04 Created by KiCad (PCBNEW (5.1.10-1-10_14)) date 2022-01-10 10:47:52*
%MOMM*%
%LPD*%
G01*
G04 APERTURE LIST*
%TA.AperFunction,SMDPad,CuDef*%
%ADD10C,0.500000*%
%TD*%
%TA.AperFunction,SMDPad,CuDef*%
%ADD11R,1.250000X1.500000*%
%TD*%
%TA.AperFunction,ComponentPad*%
%ADD12R,1.700000X1.700000*%
%TD*%
%TA.AperFunction,ComponentPad*%
%ADD13O,1.700000X1.700000*%
%TD*%
%TA.AperFunction,ComponentPad*%
%ADD14R,1.750000X1.750000*%
%TD*%
%TA.AperFunction,ComponentPad*%
%ADD15C,1.750000*%
%TD*%
%TA.AperFunction,SMDPad,CuDef*%
%ADD16R,1.500000X1.000000*%
%TD*%
%TA.AperFunction,ViaPad*%
%ADD17C,0.800000*%
%TD*%
%TA.AperFunction,Conductor*%
%ADD18C,0.250000*%
%TD*%
%TA.AperFunction,Conductor*%
%ADD19C,0.254000*%
%TD*%
%TA.AperFunction,Conductor*%
%ADD20C,0.100000*%
%TD*%
G04 APERTURE END LIST*
D10*
%TO.P,FID2,~*%
%TO.N,N/C*%
X138658600Y-74752200D03*
%TD*%
%TO.P,FID1,~*%
%TO.N,N/C*%
X125882400Y-86664800D03*
%TD*%
D11*
%TO.P,C4,1*%
%TO.N,/TH4*%
X134442200Y-82258600D03*
%TO.P,C4,2*%
%TO.N,GND*%
X134442200Y-84758600D03*
%TD*%
%TO.P,C3,1*%
%TO.N,/TH3*%
X127609600Y-82265200D03*
%TO.P,C3,2*%
%TO.N,GND*%
X127609600Y-84765200D03*
%TD*%
%TO.P,C2,1*%
%TO.N,/TH2*%
X120827800Y-82265200D03*
%TO.P,C2,2*%
%TO.N,GND*%
X120827800Y-84765200D03*
%TD*%
D12*
%TO.P,J1,1*%
%TO.N,Net-(J1-Pad1)*%
X128270000Y-74930000D03*
D13*
%TO.P,J1,2*%
%TO.N,GND*%
X128270000Y-77470000D03*
%TO.P,J1,3*%
%TO.N,/V2.0*%
X125730000Y-74930000D03*
%TO.P,J1,4*%
%TO.N,/V3.0*%
X125730000Y-77470000D03*
%TO.P,J1,5*%
%TO.N,/TH2*%
X123190000Y-74930000D03*
%TO.P,J1,6*%
%TO.N,/TH3*%
X123190000Y-77470000D03*
%TO.P,J1,7*%
%TO.N,Net-(J1-Pad7)*%
X120650000Y-74930000D03*
%TO.P,J1,8*%
%TO.N,GND*%
X120650000Y-77470000D03*
%TD*%
D14*
%TO.P,J4,1*%
%TO.N,/TH4*%
X136906000Y-82270600D03*
D15*
%TO.P,J4,2*%
%TO.N,GND*%
X136906000Y-84770600D03*
%TD*%
D14*
%TO.P,J3,1*%
%TO.N,/TH3*%
X130098800Y-82270600D03*
D15*
%TO.P,J3,2*%
%TO.N,GND*%
X130098800Y-84770600D03*
%TD*%
D14*
%TO.P,J2,1*%
%TO.N,/TH2*%
X123291600Y-82270600D03*
D15*
%TO.P,J2,2*%
%TO.N,GND*%
X123291600Y-84770600D03*
%TD*%
D16*
%TO.P,JP1,1*%
%TO.N,/V3.0*%
X133070600Y-77449200D03*
%TO.P,JP1,2*%
%TO.N,/TH4*%
X133070600Y-76149200D03*
%TO.P,JP1,3*%
%TO.N,/V2.0*%
X133070600Y-74849200D03*
%TD*%
D17*
%TO.N,GND*%
X136601200Y-76022200D03*
%TD*%
D18*
%TO.N,/TH2*%
X120670000Y-82270600D02*
X120650000Y-82290600D01*
X120833200Y-82270600D02*
X120827800Y-82265200D01*
X123291600Y-82270600D02*
X120833200Y-82270600D01*
%TO.N,GND*%
X136894000Y-84758600D02*
X136906000Y-84770600D01*
X134442200Y-84758600D02*
X136894000Y-84758600D01*
X130093400Y-84765200D02*
X130098800Y-84770600D01*
X127609600Y-84765200D02*
X130093400Y-84765200D01*
X123286200Y-84765200D02*
X123291600Y-84770600D01*
X120827800Y-84765200D02*
X123286200Y-84765200D01*
%TO.N,/TH3*%
X127528000Y-82270600D02*
X127457200Y-82341400D01*
X130093400Y-82265200D02*
X130098800Y-82270600D01*
X127609600Y-82265200D02*
X130093400Y-82265200D01*
%TO.N,/TH4*%
X134264400Y-76343000D02*
X134264400Y-82296000D01*
X134070600Y-76149200D02*
X134264400Y-76343000D01*
X133070600Y-76149200D02*
X134070600Y-76149200D01*
X136894000Y-82258600D02*
X136906000Y-82270600D01*
X134442200Y-82258600D02*
X136894000Y-82258600D01*
%TO.N,/V2.0*%
X132535598Y-74849200D02*
X133070600Y-74849200D01*
X126905001Y-76105001D02*
X131279797Y-76105001D01*
X131279797Y-76105001D02*
X132535598Y-74849200D01*
X125730000Y-74930000D02*
X126905001Y-76105001D01*
%TO.N,/V3.0*%
X127705999Y-78645001D02*
X131874799Y-78645001D01*
X131874799Y-78645001D02*
X133070600Y-77449200D01*
X126530998Y-77470000D02*
X127705999Y-78645001D01*
X125730000Y-77470000D02*
X126530998Y-77470000D01*
%TD*%
D19*
%TO.N,GND*%
X137874323Y-74332995D02*
X137807610Y-74494055D01*
X137773600Y-74665035D01*
X137773600Y-74839365D01*
X137807610Y-75010345D01*
X137874323Y-75171405D01*
X137971176Y-75316355D01*
X138094445Y-75439624D01*
X138239395Y-75536477D01*
X138400455Y-75603190D01*
X138571435Y-75637200D01*
X138745765Y-75637200D01*
X138916745Y-75603190D01*
X139077805Y-75536477D01*
X139116201Y-75510822D01*
X139116200Y-86429321D01*
X139101478Y-86579469D01*
X139067247Y-86692846D01*
X139011646Y-86797417D01*
X138936794Y-86889195D01*
X138845535Y-86964691D01*
X138741360Y-87021019D01*
X138628224Y-87056040D01*
X138480179Y-87071600D01*
X126671815Y-87071600D01*
X126733390Y-86922945D01*
X126767400Y-86751965D01*
X126767400Y-86577635D01*
X126733390Y-86406655D01*
X126666677Y-86245595D01*
X126569824Y-86100645D01*
X126446555Y-85977376D01*
X126301605Y-85880523D01*
X126140545Y-85813810D01*
X125969565Y-85779800D01*
X125795235Y-85779800D01*
X125624255Y-85813810D01*
X125463195Y-85880523D01*
X125318245Y-85977376D01*
X125194976Y-86100645D01*
X125098123Y-86245595D01*
X125031410Y-86406655D01*
X124997400Y-86577635D01*
X124997400Y-86751965D01*
X125031410Y-86922945D01*
X125092985Y-87071600D01*
X120656879Y-87071600D01*
X120506731Y-87056878D01*
X120393354Y-87022647D01*
X120288783Y-86967046D01*
X120197005Y-86892194D01*
X120121509Y-86800935D01*
X120065181Y-86696760D01*
X120030160Y-86583624D01*
X120014600Y-86435579D01*
X120014600Y-86121683D01*
X120078318Y-86141012D01*
X120202800Y-86153272D01*
X120542050Y-86150200D01*
X120700800Y-85991450D01*
X120700800Y-84892200D01*
X120680800Y-84892200D01*
X120680800Y-84638200D01*
X120700800Y-84638200D01*
X120700800Y-84618200D01*
X120954800Y-84618200D01*
X120954800Y-84638200D01*
X120974800Y-84638200D01*
X120974800Y-84892200D01*
X120954800Y-84892200D01*
X120954800Y-85991450D01*
X121113550Y-86150200D01*
X121452800Y-86153272D01*
X121577282Y-86141012D01*
X121696980Y-86104702D01*
X121807294Y-86045737D01*
X121903985Y-85966385D01*
X121983337Y-85869694D01*
X122011588Y-85816840D01*
X122424965Y-85816840D01*
X122505625Y-86068468D01*
X122773929Y-86196867D01*
X123062126Y-86270455D01*
X123359143Y-86286404D01*
X123653563Y-86244101D01*
X123934074Y-86145172D01*
X124077575Y-86068468D01*
X124158235Y-85816840D01*
X123291600Y-84950205D01*
X122424965Y-85816840D01*
X122011588Y-85816840D01*
X122042302Y-85759380D01*
X122078612Y-85639682D01*
X122083949Y-85585494D01*
X122245360Y-85637235D01*
X123111995Y-84770600D01*
X123097853Y-84756458D01*
X123277458Y-84576853D01*
X123291600Y-84590995D01*
X123305743Y-84576853D01*
X123485348Y-84756458D01*
X123471205Y-84770600D01*
X124337840Y-85637235D01*
X124589468Y-85556575D01*
X124609268Y-85515200D01*
X126346528Y-85515200D01*
X126358788Y-85639682D01*
X126395098Y-85759380D01*
X126454063Y-85869694D01*
X126533415Y-85966385D01*
X126630106Y-86045737D01*
X126740420Y-86104702D01*
X126860118Y-86141012D01*
X126984600Y-86153272D01*
X127323850Y-86150200D01*
X127482600Y-85991450D01*
X127482600Y-84892200D01*
X126508350Y-84892200D01*
X126349600Y-85050950D01*
X126346528Y-85515200D01*
X124609268Y-85515200D01*
X124717867Y-85288271D01*
X124791455Y-85000074D01*
X124807404Y-84703057D01*
X124765101Y-84408637D01*
X124666172Y-84128126D01*
X124589468Y-83984625D01*
X124337842Y-83903966D01*
X124453867Y-83787941D01*
X124403298Y-83737372D01*
X124410780Y-83735102D01*
X124521094Y-83676137D01*
X124617785Y-83596785D01*
X124697137Y-83500094D01*
X124756102Y-83389780D01*
X124792412Y-83270082D01*
X124804672Y-83145600D01*
X124804672Y-81515200D01*
X126346528Y-81515200D01*
X126346528Y-83015200D01*
X126358788Y-83139682D01*
X126395098Y-83259380D01*
X126454063Y-83369694D01*
X126533415Y-83466385D01*
X126592896Y-83515200D01*
X126533415Y-83564015D01*
X126454063Y-83660706D01*
X126395098Y-83771020D01*
X126358788Y-83890718D01*
X126346528Y-84015200D01*
X126349600Y-84479450D01*
X126508350Y-84638200D01*
X127482600Y-84638200D01*
X127482600Y-84618200D01*
X127736600Y-84618200D01*
X127736600Y-84638200D01*
X127756600Y-84638200D01*
X127756600Y-84892200D01*
X127736600Y-84892200D01*
X127736600Y-85991450D01*
X127895350Y-86150200D01*
X128234600Y-86153272D01*
X128359082Y-86141012D01*
X128478780Y-86104702D01*
X128589094Y-86045737D01*
X128685785Y-85966385D01*
X128765137Y-85869694D01*
X128793388Y-85816840D01*
X129232165Y-85816840D01*
X129312825Y-86068468D01*
X129581129Y-86196867D01*
X129869326Y-86270455D01*
X130166343Y-86286404D01*
X130460763Y-86244101D01*
X130741274Y-86145172D01*
X130884775Y-86068468D01*
X130965435Y-85816840D01*
X130098800Y-84950205D01*
X129232165Y-85816840D01*
X128793388Y-85816840D01*
X128824102Y-85759380D01*
X128860412Y-85639682D01*
X128866526Y-85577601D01*
X129052560Y-85637235D01*
X129919195Y-84770600D01*
X129905053Y-84756458D01*
X130084658Y-84576853D01*
X130098800Y-84590995D01*
X130112943Y-84576853D01*
X130292548Y-84756458D01*
X130278405Y-84770600D01*
X131145040Y-85637235D01*
X131396668Y-85556575D01*
X131419626Y-85508600D01*
X133179128Y-85508600D01*
X133191388Y-85633082D01*
X133227698Y-85752780D01*
X133286663Y-85863094D01*
X133366015Y-85959785D01*
X133462706Y-86039137D01*
X133573020Y-86098102D01*
X133692718Y-86134412D01*
X133817200Y-86146672D01*
X134156450Y-86143600D01*
X134315200Y-85984850D01*
X134315200Y-84885600D01*
X133340950Y-84885600D01*
X133182200Y-85044350D01*
X133179128Y-85508600D01*
X131419626Y-85508600D01*
X131525067Y-85288271D01*
X131598655Y-85000074D01*
X131614604Y-84703057D01*
X131572301Y-84408637D01*
X131473372Y-84128126D01*
X131396668Y-83984625D01*
X131145042Y-83903966D01*
X131261067Y-83787941D01*
X131210498Y-83737372D01*
X131217980Y-83735102D01*
X131328294Y-83676137D01*
X131424985Y-83596785D01*
X131504337Y-83500094D01*
X131563302Y-83389780D01*
X131599612Y-83270082D01*
X131611872Y-83145600D01*
X131611872Y-81395600D01*
X131599612Y-81271118D01*
X131563302Y-81151420D01*
X131504337Y-81041106D01*
X131424985Y-80944415D01*
X131328294Y-80865063D01*
X131217980Y-80806098D01*
X131098282Y-80769788D01*
X130973800Y-80757528D01*
X129223800Y-80757528D01*
X129099318Y-80769788D01*
X128979620Y-80806098D01*
X128869306Y-80865063D01*
X128772615Y-80944415D01*
X128693263Y-81041106D01*
X128682471Y-81061296D01*
X128589094Y-80984663D01*
X128478780Y-80925698D01*
X128359082Y-80889388D01*
X128234600Y-80877128D01*
X126984600Y-80877128D01*
X126860118Y-80889388D01*
X126740420Y-80925698D01*
X126630106Y-80984663D01*
X126533415Y-81064015D01*
X126454063Y-81160706D01*
X126395098Y-81271020D01*
X126358788Y-81390718D01*
X126346528Y-81515200D01*
X124804672Y-81515200D01*
X124804672Y-81395600D01*
X124792412Y-81271118D01*
X124756102Y-81151420D01*
X124697137Y-81041106D01*
X124617785Y-80944415D01*
X124521094Y-80865063D01*
X124410780Y-80806098D01*
X124291082Y-80769788D01*
X124166600Y-80757528D01*
X122416600Y-80757528D01*
X122292118Y-80769788D01*
X122172420Y-80806098D01*
X122062106Y-80865063D01*
X121965415Y-80944415D01*
X121886063Y-81041106D01*
X121883016Y-81046806D01*
X121807294Y-80984663D01*
X121696980Y-80925698D01*
X121577282Y-80889388D01*
X121452800Y-80877128D01*
X120202800Y-80877128D01*
X120078318Y-80889388D01*
X120014600Y-80908717D01*
X120014600Y-78804285D01*
X120145901Y-78866825D01*
X120293110Y-78911476D01*
X120523000Y-78790155D01*
X120523000Y-77597000D01*
X120503000Y-77597000D01*
X120503000Y-77343000D01*
X120523000Y-77343000D01*
X120523000Y-77323000D01*
X120777000Y-77323000D01*
X120777000Y-77343000D01*
X120797000Y-77343000D01*
X120797000Y-77597000D01*
X120777000Y-77597000D01*
X120777000Y-78790155D01*
X121006890Y-78911476D01*
X121154099Y-78866825D01*
X121416920Y-78741641D01*
X121650269Y-78567588D01*
X121845178Y-78351355D01*
X121914805Y-78234466D01*
X122036525Y-78416632D01*
X122243368Y-78623475D01*
X122486589Y-78785990D01*
X122756842Y-78897932D01*
X123043740Y-78955000D01*
X123336260Y-78955000D01*
X123623158Y-78897932D01*
X123893411Y-78785990D01*
X124136632Y-78623475D01*
X124343475Y-78416632D01*
X124460000Y-78242240D01*
X124576525Y-78416632D01*
X124783368Y-78623475D01*
X125026589Y-78785990D01*
X125296842Y-78897932D01*
X125583740Y-78955000D01*
X125876260Y-78955000D01*
X126163158Y-78897932D01*
X126433411Y-78785990D01*
X126636492Y-78650296D01*
X127142200Y-79156004D01*
X127165998Y-79185002D01*
X127281723Y-79279975D01*
X127413752Y-79350547D01*
X127557013Y-79394004D01*
X127668666Y-79405001D01*
X127668675Y-79405001D01*
X127705998Y-79408677D01*
X127743321Y-79405001D01*
X131837477Y-79405001D01*
X131874799Y-79408677D01*
X131912121Y-79405001D01*
X131912132Y-79405001D01*
X132023785Y-79394004D01*
X132167046Y-79350547D01*
X132299075Y-79279975D01*
X132414800Y-79185002D01*
X132438603Y-79155998D01*
X133007329Y-78587272D01*
X133504400Y-78587272D01*
X133504401Y-80955776D01*
X133462706Y-80978063D01*
X133366015Y-81057415D01*
X133286663Y-81154106D01*
X133227698Y-81264420D01*
X133191388Y-81384118D01*
X133179128Y-81508600D01*
X133179128Y-83008600D01*
X133191388Y-83133082D01*
X133227698Y-83252780D01*
X133286663Y-83363094D01*
X133366015Y-83459785D01*
X133425496Y-83508600D01*
X133366015Y-83557415D01*
X133286663Y-83654106D01*
X133227698Y-83764420D01*
X133191388Y-83884118D01*
X133179128Y-84008600D01*
X133182200Y-84472850D01*
X133340950Y-84631600D01*
X134315200Y-84631600D01*
X134315200Y-84611600D01*
X134569200Y-84611600D01*
X134569200Y-84631600D01*
X134589200Y-84631600D01*
X134589200Y-84885600D01*
X134569200Y-84885600D01*
X134569200Y-85984850D01*
X134727950Y-86143600D01*
X135067200Y-86146672D01*
X135191682Y-86134412D01*
X135311380Y-86098102D01*
X135421694Y-86039137D01*
X135518385Y-85959785D01*
X135597737Y-85863094D01*
X135622460Y-85816840D01*
X136039365Y-85816840D01*
X136120025Y-86068468D01*
X136388329Y-86196867D01*
X136676526Y-86270455D01*
X136973543Y-86286404D01*
X137267963Y-86244101D01*
X137548474Y-86145172D01*
X137691975Y-86068468D01*
X137772635Y-85816840D01*
X136906000Y-84950205D01*
X136039365Y-85816840D01*
X135622460Y-85816840D01*
X135656702Y-85752780D01*
X135693012Y-85633082D01*
X135697719Y-85585292D01*
X135859760Y-85637235D01*
X136726395Y-84770600D01*
X136712253Y-84756458D01*
X136891858Y-84576853D01*
X136906000Y-84590995D01*
X136920143Y-84576853D01*
X137099748Y-84756458D01*
X137085605Y-84770600D01*
X137952240Y-85637235D01*
X138203868Y-85556575D01*
X138332267Y-85288271D01*
X138405855Y-85000074D01*
X138421804Y-84703057D01*
X138379501Y-84408637D01*
X138280572Y-84128126D01*
X138203868Y-83984625D01*
X137952242Y-83903966D01*
X138068267Y-83787941D01*
X138017698Y-83737372D01*
X138025180Y-83735102D01*
X138135494Y-83676137D01*
X138232185Y-83596785D01*
X138311537Y-83500094D01*
X138370502Y-83389780D01*
X138406812Y-83270082D01*
X138419072Y-83145600D01*
X138419072Y-81395600D01*
X138406812Y-81271118D01*
X138370502Y-81151420D01*
X138311537Y-81041106D01*
X138232185Y-80944415D01*
X138135494Y-80865063D01*
X138025180Y-80806098D01*
X137905482Y-80769788D01*
X137781000Y-80757528D01*
X136031000Y-80757528D01*
X135906518Y-80769788D01*
X135786820Y-80806098D01*
X135676506Y-80865063D01*
X135579815Y-80944415D01*
X135500463Y-81041106D01*
X135499868Y-81042219D01*
X135421694Y-80978063D01*
X135311380Y-80919098D01*
X135191682Y-80882788D01*
X135067200Y-80870528D01*
X135024400Y-80870528D01*
X135024400Y-76380333D01*
X135028077Y-76343000D01*
X135013403Y-76194014D01*
X134995348Y-76134494D01*
X134969946Y-76050753D01*
X134899374Y-75918724D01*
X134804401Y-75802999D01*
X134775398Y-75779197D01*
X134634404Y-75638203D01*
X134610601Y-75609199D01*
X134494876Y-75514226D01*
X134442591Y-75486279D01*
X134446412Y-75473682D01*
X134458672Y-75349200D01*
X134458672Y-74349200D01*
X134453295Y-74294600D01*
X137899978Y-74294600D01*
X137874323Y-74332995D01*
%TA.AperFunction,Conductor*%
D20*
G36*
X137874323Y-74332995D02*
G01*
X137807610Y-74494055D01*
X137773600Y-74665035D01*
X137773600Y-74839365D01*
X137807610Y-75010345D01*
X137874323Y-75171405D01*
X137971176Y-75316355D01*
X138094445Y-75439624D01*
X138239395Y-75536477D01*
X138400455Y-75603190D01*
X138571435Y-75637200D01*
X138745765Y-75637200D01*
X138916745Y-75603190D01*
X139077805Y-75536477D01*
X139116201Y-75510822D01*
X139116200Y-86429321D01*
X139101478Y-86579469D01*
X139067247Y-86692846D01*
X139011646Y-86797417D01*
X138936794Y-86889195D01*
X138845535Y-86964691D01*
X138741360Y-87021019D01*
X138628224Y-87056040D01*
X138480179Y-87071600D01*
X126671815Y-87071600D01*
X126733390Y-86922945D01*
X126767400Y-86751965D01*
X126767400Y-86577635D01*
X126733390Y-86406655D01*
X126666677Y-86245595D01*
X126569824Y-86100645D01*
X126446555Y-85977376D01*
X126301605Y-85880523D01*
X126140545Y-85813810D01*
X125969565Y-85779800D01*
X125795235Y-85779800D01*
X125624255Y-85813810D01*
X125463195Y-85880523D01*
X125318245Y-85977376D01*
X125194976Y-86100645D01*
X125098123Y-86245595D01*
X125031410Y-86406655D01*
X124997400Y-86577635D01*
X124997400Y-86751965D01*
X125031410Y-86922945D01*
X125092985Y-87071600D01*
X120656879Y-87071600D01*
X120506731Y-87056878D01*
X120393354Y-87022647D01*
X120288783Y-86967046D01*
X120197005Y-86892194D01*
X120121509Y-86800935D01*
X120065181Y-86696760D01*
X120030160Y-86583624D01*
X120014600Y-86435579D01*
X120014600Y-86121683D01*
X120078318Y-86141012D01*
X120202800Y-86153272D01*
X120542050Y-86150200D01*
X120700800Y-85991450D01*
X120700800Y-84892200D01*
X120680800Y-84892200D01*
X120680800Y-84638200D01*
X120700800Y-84638200D01*
X120700800Y-84618200D01*
X120954800Y-84618200D01*
X120954800Y-84638200D01*
X120974800Y-84638200D01*
X120974800Y-84892200D01*
X120954800Y-84892200D01*
X120954800Y-85991450D01*
X121113550Y-86150200D01*
X121452800Y-86153272D01*
X121577282Y-86141012D01*
X121696980Y-86104702D01*
X121807294Y-86045737D01*
X121903985Y-85966385D01*
X121983337Y-85869694D01*
X122011588Y-85816840D01*
X122424965Y-85816840D01*
X122505625Y-86068468D01*
X122773929Y-86196867D01*
X123062126Y-86270455D01*
X123359143Y-86286404D01*
X123653563Y-86244101D01*
X123934074Y-86145172D01*
X124077575Y-86068468D01*
X124158235Y-85816840D01*
X123291600Y-84950205D01*
X122424965Y-85816840D01*
X122011588Y-85816840D01*
X122042302Y-85759380D01*
X122078612Y-85639682D01*
X122083949Y-85585494D01*
X122245360Y-85637235D01*
X123111995Y-84770600D01*
X123097853Y-84756458D01*
X123277458Y-84576853D01*
X123291600Y-84590995D01*
X123305743Y-84576853D01*
X123485348Y-84756458D01*
X123471205Y-84770600D01*
X124337840Y-85637235D01*
X124589468Y-85556575D01*
X124609268Y-85515200D01*
X126346528Y-85515200D01*
X126358788Y-85639682D01*
X126395098Y-85759380D01*
X126454063Y-85869694D01*
X126533415Y-85966385D01*
X126630106Y-86045737D01*
X126740420Y-86104702D01*
X126860118Y-86141012D01*
X126984600Y-86153272D01*
X127323850Y-86150200D01*
X127482600Y-85991450D01*
X127482600Y-84892200D01*
X126508350Y-84892200D01*
X126349600Y-85050950D01*
X126346528Y-85515200D01*
X124609268Y-85515200D01*
X124717867Y-85288271D01*
X124791455Y-85000074D01*
X124807404Y-84703057D01*
X124765101Y-84408637D01*
X124666172Y-84128126D01*
X124589468Y-83984625D01*
X124337842Y-83903966D01*
X124453867Y-83787941D01*
X124403298Y-83737372D01*
X124410780Y-83735102D01*
X124521094Y-83676137D01*
X124617785Y-83596785D01*
X124697137Y-83500094D01*
X124756102Y-83389780D01*
X124792412Y-83270082D01*
X124804672Y-83145600D01*
X124804672Y-81515200D01*
X126346528Y-81515200D01*
X126346528Y-83015200D01*
X126358788Y-83139682D01*
X126395098Y-83259380D01*
X126454063Y-83369694D01*
X126533415Y-83466385D01*
X126592896Y-83515200D01*
X126533415Y-83564015D01*
X126454063Y-83660706D01*
X126395098Y-83771020D01*
X126358788Y-83890718D01*
X126346528Y-84015200D01*
X126349600Y-84479450D01*
X126508350Y-84638200D01*
X127482600Y-84638200D01*
X127482600Y-84618200D01*
X127736600Y-84618200D01*
X127736600Y-84638200D01*
X127756600Y-84638200D01*
X127756600Y-84892200D01*
X127736600Y-84892200D01*
X127736600Y-85991450D01*
X127895350Y-86150200D01*
X128234600Y-86153272D01*
X128359082Y-86141012D01*
X128478780Y-86104702D01*
X128589094Y-86045737D01*
X128685785Y-85966385D01*
X128765137Y-85869694D01*
X128793388Y-85816840D01*
X129232165Y-85816840D01*
X129312825Y-86068468D01*
X129581129Y-86196867D01*
X129869326Y-86270455D01*
X130166343Y-86286404D01*
X130460763Y-86244101D01*
X130741274Y-86145172D01*
X130884775Y-86068468D01*
X130965435Y-85816840D01*
X130098800Y-84950205D01*
X129232165Y-85816840D01*
X128793388Y-85816840D01*
X128824102Y-85759380D01*
X128860412Y-85639682D01*
X128866526Y-85577601D01*
X129052560Y-85637235D01*
X129919195Y-84770600D01*
X129905053Y-84756458D01*
X130084658Y-84576853D01*
X130098800Y-84590995D01*
X130112943Y-84576853D01*
X130292548Y-84756458D01*
X130278405Y-84770600D01*
X131145040Y-85637235D01*
X131396668Y-85556575D01*
X131419626Y-85508600D01*
X133179128Y-85508600D01*
X133191388Y-85633082D01*
X133227698Y-85752780D01*
X133286663Y-85863094D01*
X133366015Y-85959785D01*
X133462706Y-86039137D01*
X133573020Y-86098102D01*
X133692718Y-86134412D01*
X133817200Y-86146672D01*
X134156450Y-86143600D01*
X134315200Y-85984850D01*
X134315200Y-84885600D01*
X133340950Y-84885600D01*
X133182200Y-85044350D01*
X133179128Y-85508600D01*
X131419626Y-85508600D01*
X131525067Y-85288271D01*
X131598655Y-85000074D01*
X131614604Y-84703057D01*
X131572301Y-84408637D01*
X131473372Y-84128126D01*
X131396668Y-83984625D01*
X131145042Y-83903966D01*
X131261067Y-83787941D01*
X131210498Y-83737372D01*
X131217980Y-83735102D01*
X131328294Y-83676137D01*
X131424985Y-83596785D01*
X131504337Y-83500094D01*
X131563302Y-83389780D01*
X131599612Y-83270082D01*
X131611872Y-83145600D01*
X131611872Y-81395600D01*
X131599612Y-81271118D01*
X131563302Y-81151420D01*
X131504337Y-81041106D01*
X131424985Y-80944415D01*
X131328294Y-80865063D01*
X131217980Y-80806098D01*
X131098282Y-80769788D01*
X130973800Y-80757528D01*
X129223800Y-80757528D01*
X129099318Y-80769788D01*
X128979620Y-80806098D01*
X128869306Y-80865063D01*
X128772615Y-80944415D01*
X128693263Y-81041106D01*
X128682471Y-81061296D01*
X128589094Y-80984663D01*
X128478780Y-80925698D01*
X128359082Y-80889388D01*
X128234600Y-80877128D01*
X126984600Y-80877128D01*
X126860118Y-80889388D01*
X126740420Y-80925698D01*
X126630106Y-80984663D01*
X126533415Y-81064015D01*
X126454063Y-81160706D01*
X126395098Y-81271020D01*
X126358788Y-81390718D01*
X126346528Y-81515200D01*
X124804672Y-81515200D01*
X124804672Y-81395600D01*
X124792412Y-81271118D01*
X124756102Y-81151420D01*
X124697137Y-81041106D01*
X124617785Y-80944415D01*
X124521094Y-80865063D01*
X124410780Y-80806098D01*
X124291082Y-80769788D01*
X124166600Y-80757528D01*
X122416600Y-80757528D01*
X122292118Y-80769788D01*
X122172420Y-80806098D01*
X122062106Y-80865063D01*
X121965415Y-80944415D01*
X121886063Y-81041106D01*
X121883016Y-81046806D01*
X121807294Y-80984663D01*
X121696980Y-80925698D01*
X121577282Y-80889388D01*
X121452800Y-80877128D01*
X120202800Y-80877128D01*
X120078318Y-80889388D01*
X120014600Y-80908717D01*
X120014600Y-78804285D01*
X120145901Y-78866825D01*
X120293110Y-78911476D01*
X120523000Y-78790155D01*
X120523000Y-77597000D01*
X120503000Y-77597000D01*
X120503000Y-77343000D01*
X120523000Y-77343000D01*
X120523000Y-77323000D01*
X120777000Y-77323000D01*
X120777000Y-77343000D01*
X120797000Y-77343000D01*
X120797000Y-77597000D01*
X120777000Y-77597000D01*
X120777000Y-78790155D01*
X121006890Y-78911476D01*
X121154099Y-78866825D01*
X121416920Y-78741641D01*
X121650269Y-78567588D01*
X121845178Y-78351355D01*
X121914805Y-78234466D01*
X122036525Y-78416632D01*
X122243368Y-78623475D01*
X122486589Y-78785990D01*
X122756842Y-78897932D01*
X123043740Y-78955000D01*
X123336260Y-78955000D01*
X123623158Y-78897932D01*
X123893411Y-78785990D01*
X124136632Y-78623475D01*
X124343475Y-78416632D01*
X124460000Y-78242240D01*
X124576525Y-78416632D01*
X124783368Y-78623475D01*
X125026589Y-78785990D01*
X125296842Y-78897932D01*
X125583740Y-78955000D01*
X125876260Y-78955000D01*
X126163158Y-78897932D01*
X126433411Y-78785990D01*
X126636492Y-78650296D01*
X127142200Y-79156004D01*
X127165998Y-79185002D01*
X127281723Y-79279975D01*
X127413752Y-79350547D01*
X127557013Y-79394004D01*
X127668666Y-79405001D01*
X127668675Y-79405001D01*
X127705998Y-79408677D01*
X127743321Y-79405001D01*
X131837477Y-79405001D01*
X131874799Y-79408677D01*
X131912121Y-79405001D01*
X131912132Y-79405001D01*
X132023785Y-79394004D01*
X132167046Y-79350547D01*
X132299075Y-79279975D01*
X132414800Y-79185002D01*
X132438603Y-79155998D01*
X133007329Y-78587272D01*
X133504400Y-78587272D01*
X133504401Y-80955776D01*
X133462706Y-80978063D01*
X133366015Y-81057415D01*
X133286663Y-81154106D01*
X133227698Y-81264420D01*
X133191388Y-81384118D01*
X133179128Y-81508600D01*
X133179128Y-83008600D01*
X133191388Y-83133082D01*
X133227698Y-83252780D01*
X133286663Y-83363094D01*
X133366015Y-83459785D01*
X133425496Y-83508600D01*
X133366015Y-83557415D01*
X133286663Y-83654106D01*
X133227698Y-83764420D01*
X133191388Y-83884118D01*
X133179128Y-84008600D01*
X133182200Y-84472850D01*
X133340950Y-84631600D01*
X134315200Y-84631600D01*
X134315200Y-84611600D01*
X134569200Y-84611600D01*
X134569200Y-84631600D01*
X134589200Y-84631600D01*
X134589200Y-84885600D01*
X134569200Y-84885600D01*
X134569200Y-85984850D01*
X134727950Y-86143600D01*
X135067200Y-86146672D01*
X135191682Y-86134412D01*
X135311380Y-86098102D01*
X135421694Y-86039137D01*
X135518385Y-85959785D01*
X135597737Y-85863094D01*
X135622460Y-85816840D01*
X136039365Y-85816840D01*
X136120025Y-86068468D01*
X136388329Y-86196867D01*
X136676526Y-86270455D01*
X136973543Y-86286404D01*
X137267963Y-86244101D01*
X137548474Y-86145172D01*
X137691975Y-86068468D01*
X137772635Y-85816840D01*
X136906000Y-84950205D01*
X136039365Y-85816840D01*
X135622460Y-85816840D01*
X135656702Y-85752780D01*
X135693012Y-85633082D01*
X135697719Y-85585292D01*
X135859760Y-85637235D01*
X136726395Y-84770600D01*
X136712253Y-84756458D01*
X136891858Y-84576853D01*
X136906000Y-84590995D01*
X136920143Y-84576853D01*
X137099748Y-84756458D01*
X137085605Y-84770600D01*
X137952240Y-85637235D01*
X138203868Y-85556575D01*
X138332267Y-85288271D01*
X138405855Y-85000074D01*
X138421804Y-84703057D01*
X138379501Y-84408637D01*
X138280572Y-84128126D01*
X138203868Y-83984625D01*
X137952242Y-83903966D01*
X138068267Y-83787941D01*
X138017698Y-83737372D01*
X138025180Y-83735102D01*
X138135494Y-83676137D01*
X138232185Y-83596785D01*
X138311537Y-83500094D01*
X138370502Y-83389780D01*
X138406812Y-83270082D01*
X138419072Y-83145600D01*
X138419072Y-81395600D01*
X138406812Y-81271118D01*
X138370502Y-81151420D01*
X138311537Y-81041106D01*
X138232185Y-80944415D01*
X138135494Y-80865063D01*
X138025180Y-80806098D01*
X137905482Y-80769788D01*
X137781000Y-80757528D01*
X136031000Y-80757528D01*
X135906518Y-80769788D01*
X135786820Y-80806098D01*
X135676506Y-80865063D01*
X135579815Y-80944415D01*
X135500463Y-81041106D01*
X135499868Y-81042219D01*
X135421694Y-80978063D01*
X135311380Y-80919098D01*
X135191682Y-80882788D01*
X135067200Y-80870528D01*
X135024400Y-80870528D01*
X135024400Y-76380333D01*
X135028077Y-76343000D01*
X135013403Y-76194014D01*
X134995348Y-76134494D01*
X134969946Y-76050753D01*
X134899374Y-75918724D01*
X134804401Y-75802999D01*
X134775398Y-75779197D01*
X134634404Y-75638203D01*
X134610601Y-75609199D01*
X134494876Y-75514226D01*
X134442591Y-75486279D01*
X134446412Y-75473682D01*
X134458672Y-75349200D01*
X134458672Y-74349200D01*
X134453295Y-74294600D01*
X137899978Y-74294600D01*
X137874323Y-74332995D01*
G37*
%TD.AperFunction*%
D19*
X131694788Y-76773682D02*
X131702529Y-76799200D01*
X131694788Y-76824718D01*
X131682528Y-76949200D01*
X131682528Y-77762471D01*
X131559998Y-77885001D01*
X129690868Y-77885001D01*
X129711481Y-77826891D01*
X129590814Y-77597000D01*
X128397000Y-77597000D01*
X128397000Y-77617000D01*
X128143000Y-77617000D01*
X128143000Y-77597000D01*
X128123000Y-77597000D01*
X128123000Y-77343000D01*
X128143000Y-77343000D01*
X128143000Y-77323000D01*
X128397000Y-77323000D01*
X128397000Y-77343000D01*
X129590814Y-77343000D01*
X129711481Y-77113109D01*
X129623470Y-76865001D01*
X131242475Y-76865001D01*
X131279797Y-76868677D01*
X131317119Y-76865001D01*
X131317130Y-76865001D01*
X131428783Y-76854004D01*
X131572044Y-76810547D01*
X131692099Y-76746376D01*
X131694788Y-76773682D01*
%TA.AperFunction,Conductor*%
D20*
G36*
X131694788Y-76773682D02*
G01*
X131702529Y-76799200D01*
X131694788Y-76824718D01*
X131682528Y-76949200D01*
X131682528Y-77762471D01*
X131559998Y-77885001D01*
X129690868Y-77885001D01*
X129711481Y-77826891D01*
X129590814Y-77597000D01*
X128397000Y-77597000D01*
X128397000Y-77617000D01*
X128143000Y-77617000D01*
X128143000Y-77597000D01*
X128123000Y-77597000D01*
X128123000Y-77343000D01*
X128143000Y-77343000D01*
X128143000Y-77323000D01*
X128397000Y-77323000D01*
X128397000Y-77343000D01*
X129590814Y-77343000D01*
X129711481Y-77113109D01*
X129623470Y-76865001D01*
X131242475Y-76865001D01*
X131279797Y-76868677D01*
X131317119Y-76865001D01*
X131317130Y-76865001D01*
X131428783Y-76854004D01*
X131572044Y-76810547D01*
X131692099Y-76746376D01*
X131694788Y-76773682D01*
G37*
%TD.AperFunction*%
%TD*%
M02*
