%TF.GenerationSoftware,KiCad,Pcbnew,(5.1.10-1-10_14)*%
%TF.CreationDate,2022-01-10T10:47:52-08:00*%
%TF.ProjectId,ThermistorExpander-kicad,54686572-6d69-4737-946f-72457870616e,rev?*%
%TF.SameCoordinates,Original*%
%TF.FileFunction,Legend,Bot*%
%TF.FilePolarity,Positive*%
%FSLAX46Y46*%
G04 Gerber Fmt 4.6, Leading zero omitted, Abs format (unit mm)*
G04 Created by KiCad (PCBNEW (5.1.10-1-10_14)) date 2022-01-10 10:47:52*
%MOMM*%
%LPD*%
G01*
G04 APERTURE LIST*
%ADD10C,0.150000*%
%ADD11C,0.200000*%
%ADD12C,0.120000*%
G04 APERTURE END LIST*
D10*
X129409247Y-78751180D02*
X129409247Y-79465466D01*
X129456866Y-79608323D01*
X129552104Y-79703561D01*
X129694961Y-79751180D01*
X129790200Y-79751180D01*
X128456866Y-79751180D02*
X128933057Y-79751180D01*
X128933057Y-78751180D01*
X127552104Y-79655942D02*
X127599723Y-79703561D01*
X127742580Y-79751180D01*
X127837819Y-79751180D01*
X127980676Y-79703561D01*
X128075914Y-79608323D01*
X128123533Y-79513085D01*
X128171152Y-79322609D01*
X128171152Y-79179752D01*
X128123533Y-78989276D01*
X128075914Y-78894038D01*
X127980676Y-78798800D01*
X127837819Y-78751180D01*
X127742580Y-78751180D01*
X127599723Y-78798800D01*
X127552104Y-78846419D01*
X126837819Y-78751180D02*
X126837819Y-79465466D01*
X126885438Y-79608323D01*
X126980676Y-79703561D01*
X127123533Y-79751180D01*
X127218771Y-79751180D01*
X125885438Y-79751180D02*
X126361628Y-79751180D01*
X126361628Y-78751180D01*
X124980676Y-79655942D02*
X125028295Y-79703561D01*
X125171152Y-79751180D01*
X125266390Y-79751180D01*
X125409247Y-79703561D01*
X125504485Y-79608323D01*
X125552104Y-79513085D01*
X125599723Y-79322609D01*
X125599723Y-79179752D01*
X125552104Y-78989276D01*
X125504485Y-78894038D01*
X125409247Y-78798800D01*
X125266390Y-78751180D01*
X125171152Y-78751180D01*
X125028295Y-78798800D01*
X124980676Y-78846419D01*
X124266390Y-78751180D02*
X124266390Y-79465466D01*
X124314009Y-79608323D01*
X124409247Y-79703561D01*
X124552104Y-79751180D01*
X124647342Y-79751180D01*
X123314009Y-79751180D02*
X123790200Y-79751180D01*
X123790200Y-78751180D01*
X122409247Y-79655942D02*
X122456866Y-79703561D01*
X122599723Y-79751180D01*
X122694961Y-79751180D01*
X122837819Y-79703561D01*
X122933057Y-79608323D01*
X122980676Y-79513085D01*
X123028295Y-79322609D01*
X123028295Y-79179752D01*
X122980676Y-78989276D01*
X122933057Y-78894038D01*
X122837819Y-78798800D01*
X122694961Y-78751180D01*
X122599723Y-78751180D01*
X122456866Y-78798800D01*
X122409247Y-78846419D01*
X121694961Y-78751180D02*
X121694961Y-79465466D01*
X121742580Y-79608323D01*
X121837819Y-79703561D01*
X121980676Y-79751180D01*
X122075914Y-79751180D01*
X120742580Y-79751180D02*
X121218771Y-79751180D01*
X121218771Y-78751180D01*
X119837819Y-79655942D02*
X119885438Y-79703561D01*
X120028295Y-79751180D01*
X120123533Y-79751180D01*
X120266390Y-79703561D01*
X120361628Y-79608323D01*
X120409247Y-79513085D01*
X120456866Y-79322609D01*
X120456866Y-79179752D01*
X120409247Y-78989276D01*
X120361628Y-78894038D01*
X120266390Y-78798800D01*
X120123533Y-78751180D01*
X120028295Y-78751180D01*
X119885438Y-78798800D01*
X119837819Y-78846419D01*
X130871980Y-74730076D02*
X131871980Y-75063409D01*
X130871980Y-75396742D01*
X130967219Y-75682457D02*
X130919600Y-75730076D01*
X130871980Y-75825314D01*
X130871980Y-76063409D01*
X130919600Y-76158647D01*
X130967219Y-76206266D01*
X131062457Y-76253885D01*
X131157695Y-76253885D01*
X131300552Y-76206266D01*
X131871980Y-75634838D01*
X131871980Y-76253885D01*
X134605780Y-76330276D02*
X135605780Y-76663609D01*
X134605780Y-76996942D01*
X134605780Y-77235038D02*
X134605780Y-77854085D01*
X134986733Y-77520752D01*
X134986733Y-77663609D01*
X135034352Y-77758847D01*
X135081971Y-77806466D01*
X135177209Y-77854085D01*
X135415304Y-77854085D01*
X135510542Y-77806466D01*
X135558161Y-77758847D01*
X135605780Y-77663609D01*
X135605780Y-77377895D01*
X135558161Y-77282657D01*
X135510542Y-77235038D01*
D11*
X135544085Y-87110819D02*
X136115514Y-87110819D01*
X135829800Y-86110819D02*
X135829800Y-87110819D01*
X136448847Y-86110819D02*
X136448847Y-87110819D01*
X136448847Y-86634628D02*
X137020276Y-86634628D01*
X137020276Y-86110819D02*
X137020276Y-87110819D01*
X137925038Y-86777485D02*
X137925038Y-86110819D01*
X137686942Y-87158438D02*
X137448847Y-86444152D01*
X138067895Y-86444152D01*
X128736885Y-87136219D02*
X129308314Y-87136219D01*
X129022600Y-86136219D02*
X129022600Y-87136219D01*
X129641647Y-86136219D02*
X129641647Y-87136219D01*
X129641647Y-86660028D02*
X130213076Y-86660028D01*
X130213076Y-86136219D02*
X130213076Y-87136219D01*
X130594028Y-87136219D02*
X131213076Y-87136219D01*
X130879742Y-86755266D01*
X131022600Y-86755266D01*
X131117838Y-86707647D01*
X131165457Y-86660028D01*
X131213076Y-86564790D01*
X131213076Y-86326695D01*
X131165457Y-86231457D01*
X131117838Y-86183838D01*
X131022600Y-86136219D01*
X130736885Y-86136219D01*
X130641647Y-86183838D01*
X130594028Y-86231457D01*
X121955085Y-87161619D02*
X122526514Y-87161619D01*
X122240800Y-86161619D02*
X122240800Y-87161619D01*
X122859847Y-86161619D02*
X122859847Y-87161619D01*
X122859847Y-86685428D02*
X123431276Y-86685428D01*
X123431276Y-86161619D02*
X123431276Y-87161619D01*
X123859847Y-87066380D02*
X123907466Y-87114000D01*
X124002704Y-87161619D01*
X124240800Y-87161619D01*
X124336038Y-87114000D01*
X124383657Y-87066380D01*
X124431276Y-86971142D01*
X124431276Y-86875904D01*
X124383657Y-86733047D01*
X123812228Y-86161619D01*
X124431276Y-86161619D01*
D12*
%TO.C,C4*%
X135292200Y-83008600D02*
X135292200Y-84008600D01*
X133592200Y-84008600D02*
X133592200Y-83008600D01*
%TO.C,C3*%
X128459600Y-83015200D02*
X128459600Y-84015200D01*
X126759600Y-84015200D02*
X126759600Y-83015200D01*
%TO.C,C2*%
X121677800Y-83015200D02*
X121677800Y-84015200D01*
X119977800Y-84015200D02*
X119977800Y-83015200D01*
%TO.C,JP1*%
X134070600Y-78199200D02*
X134070600Y-74099200D01*
X134070600Y-74099200D02*
X132070600Y-74099200D01*
X132070600Y-74099200D02*
X132070600Y-78199200D01*
X132070600Y-78199200D02*
X134070600Y-78199200D01*
X131870600Y-77449200D02*
X131570600Y-77749200D01*
X131570600Y-77749200D02*
X131570600Y-77149200D01*
X131870600Y-77449200D02*
X131570600Y-77149200D01*
%TO.C,FID2*%
D10*
X137317028Y-74655371D02*
X137650361Y-74655371D01*
X137650361Y-75179180D02*
X137650361Y-74179180D01*
X137174171Y-74179180D01*
X136793219Y-75179180D02*
X136793219Y-74179180D01*
X136317028Y-75179180D02*
X136317028Y-74179180D01*
X136078933Y-74179180D01*
X135936076Y-74226800D01*
X135840838Y-74322038D01*
X135793219Y-74417276D01*
X135745600Y-74607752D01*
X135745600Y-74750609D01*
X135793219Y-74941085D01*
X135840838Y-75036323D01*
X135936076Y-75131561D01*
X136078933Y-75179180D01*
X136317028Y-75179180D01*
X135364647Y-74274419D02*
X135317028Y-74226800D01*
X135221790Y-74179180D01*
X134983695Y-74179180D01*
X134888457Y-74226800D01*
X134840838Y-74274419D01*
X134793219Y-74369657D01*
X134793219Y-74464895D01*
X134840838Y-74607752D01*
X135412266Y-75179180D01*
X134793219Y-75179180D01*
%TO.C,FID1*%
X125734771Y-83180371D02*
X125734771Y-82847038D01*
X126258580Y-82847038D02*
X125258580Y-82847038D01*
X125258580Y-83323228D01*
X126258580Y-83704180D02*
X125258580Y-83704180D01*
X126258580Y-84180371D02*
X125258580Y-84180371D01*
X125258580Y-84418466D01*
X125306200Y-84561323D01*
X125401438Y-84656561D01*
X125496676Y-84704180D01*
X125687152Y-84751800D01*
X125830009Y-84751800D01*
X126020485Y-84704180D01*
X126115723Y-84656561D01*
X126210961Y-84561323D01*
X126258580Y-84418466D01*
X126258580Y-84180371D01*
X126258580Y-85704180D02*
X126258580Y-85132752D01*
X126258580Y-85418466D02*
X125258580Y-85418466D01*
X125401438Y-85323228D01*
X125496676Y-85227990D01*
X125544295Y-85132752D01*
%TO.C,C4*%
X134634266Y-81027542D02*
X134681885Y-81075161D01*
X134824742Y-81122780D01*
X134919980Y-81122780D01*
X135062838Y-81075161D01*
X135158076Y-80979923D01*
X135205695Y-80884685D01*
X135253314Y-80694209D01*
X135253314Y-80551352D01*
X135205695Y-80360876D01*
X135158076Y-80265638D01*
X135062838Y-80170400D01*
X134919980Y-80122780D01*
X134824742Y-80122780D01*
X134681885Y-80170400D01*
X134634266Y-80218019D01*
X133777123Y-80456114D02*
X133777123Y-81122780D01*
X134015219Y-80075161D02*
X134253314Y-80789447D01*
X133634266Y-80789447D01*
%TO.C,C3*%
X127801666Y-81002142D02*
X127849285Y-81049761D01*
X127992142Y-81097380D01*
X128087380Y-81097380D01*
X128230238Y-81049761D01*
X128325476Y-80954523D01*
X128373095Y-80859285D01*
X128420714Y-80668809D01*
X128420714Y-80525952D01*
X128373095Y-80335476D01*
X128325476Y-80240238D01*
X128230238Y-80145000D01*
X128087380Y-80097380D01*
X127992142Y-80097380D01*
X127849285Y-80145000D01*
X127801666Y-80192619D01*
X127468333Y-80097380D02*
X126849285Y-80097380D01*
X127182619Y-80478333D01*
X127039761Y-80478333D01*
X126944523Y-80525952D01*
X126896904Y-80573571D01*
X126849285Y-80668809D01*
X126849285Y-80906904D01*
X126896904Y-81002142D01*
X126944523Y-81049761D01*
X127039761Y-81097380D01*
X127325476Y-81097380D01*
X127420714Y-81049761D01*
X127468333Y-81002142D01*
%TO.C,C2*%
X121019866Y-81002142D02*
X121067485Y-81049761D01*
X121210342Y-81097380D01*
X121305580Y-81097380D01*
X121448438Y-81049761D01*
X121543676Y-80954523D01*
X121591295Y-80859285D01*
X121638914Y-80668809D01*
X121638914Y-80525952D01*
X121591295Y-80335476D01*
X121543676Y-80240238D01*
X121448438Y-80145000D01*
X121305580Y-80097380D01*
X121210342Y-80097380D01*
X121067485Y-80145000D01*
X121019866Y-80192619D01*
X120638914Y-80192619D02*
X120591295Y-80145000D01*
X120496057Y-80097380D01*
X120257961Y-80097380D01*
X120162723Y-80145000D01*
X120115104Y-80192619D01*
X120067485Y-80287857D01*
X120067485Y-80383095D01*
X120115104Y-80525952D01*
X120686533Y-81097380D01*
X120067485Y-81097380D01*
%TO.C,JP1*%
X133929333Y-78425580D02*
X133929333Y-79139866D01*
X133976952Y-79282723D01*
X134072190Y-79377961D01*
X134215047Y-79425580D01*
X134310285Y-79425580D01*
X133453142Y-79425580D02*
X133453142Y-78425580D01*
X133072190Y-78425580D01*
X132976952Y-78473200D01*
X132929333Y-78520819D01*
X132881714Y-78616057D01*
X132881714Y-78758914D01*
X132929333Y-78854152D01*
X132976952Y-78901771D01*
X133072190Y-78949390D01*
X133453142Y-78949390D01*
X131929333Y-79425580D02*
X132500761Y-79425580D01*
X132215047Y-79425580D02*
X132215047Y-78425580D01*
X132310285Y-78568438D01*
X132405523Y-78663676D01*
X132500761Y-78711295D01*
%TD*%
M02*
