  0
SECTION
  2
HEADER
  9
$ANGBASE
  50
0.0
  9
$ANGDIR
  70
1
  9
$MEASUREMENT
  70
0
  0
ENDSEC
  0
SECTION
  2
TABLES
  0
TABLE
  2
LTYPE
  70
4
  0
LTYPE
  5
40F
  2
CONTINUOUS
  70
0
  3
Solid line
  72
65
  73
0
  40
0.0
  0
LTYPE
  5
410
  2
DASHDOT
 70
0
  3
Dash Dot ____ _ ____ _
 72
65
 73
4
 40
2.0
 49
1.25
 49
-0.25
 49
0.25
 49
-0.25
  0
LTYPE
  5
411
  2
DASHED
 70
0
  3
Dashed __ __ __ __ __
 72
65
 73
2
 40
0.75
 49
0.5
 49
-0.25
  0
LTYPE
  5
43B
  2
DOTTED
 70
0
  3
Dotted .  .  .  .
 72
65
 73
2
 40
0.2
 49
0.0
 49
-0.2
  0
ENDTAB
  0
TABLE
  2
STYLE
  70
4
  0
STYLE
  2
KICAD
  70
0
  40
0
  41
1
  42
1
  50
0
  71
0
  3
isocp.shx
  0
STYLE
  2
KICADB
  70
0
  40
0
  41
1
  42
1
  50
0
  71
0
  3
isocp.shx
  0
STYLE
  2
KICADI
  70
0
  40
0
  41
1
  42
1
  50
15
  71
0
  3
isocp.shx
  0
STYLE
  2
KICADBI
  70
0
  40
0
  41
1
  42
1
  50
15
  71
0
  3
isocp.shx
  0
ENDTAB
  0
TABLE
  2
LAYER
  70
1
  0
LAYER
  2
BLACK
  70
0
  62
7
  6
CONTINUOUS
  0
ENDTAB
  0
ENDSEC
  0
SECTION
  2
ENTITIES
0
LINE
8
BLACK
6
CONTINUOUS
10
4.7489
20
-3.45498
11
4.7489
21
-3.45498
0
LINE
8
BLACK
6
CONTINUOUS
10
4.7489
20
-3.45498
11
4.73919
21
-3.45403
0
LINE
8
BLACK
6
CONTINUOUS
10
4.73919
20
-3.45403
11
4.73918
21
-3.45403
0
LINE
8
BLACK
6
CONTINUOUS
10
4.73918
20
-3.45403
11
4.73909
21
-3.45401
0
LINE
8
BLACK
6
CONTINUOUS
10
4.73909
20
-3.45401
11
4.739
21
-3.45399
0
LINE
8
BLACK
6
CONTINUOUS
10
4.739
20
-3.45399
11
4.72966
21
-3.45117
0
LINE
8
BLACK
6
CONTINUOUS
10
4.72966
20
-3.45117
11
4.72965
21
-3.45117
0
LINE
8
BLACK
6
CONTINUOUS
10
4.72965
20
-3.45117
11
4.72957
21
-3.45113
0
LINE
8
BLACK
6
CONTINUOUS
10
4.72957
20
-3.45113
11
4.72948
21
-3.4511
0
LINE
8
BLACK
6
CONTINUOUS
10
4.72948
20
-3.4511
11
4.72087
21
-3.44652
0
LINE
8
BLACK
6
CONTINUOUS
10
4.72087
20
-3.44652
11
4.72086
21
-3.44651
0
LINE
8
BLACK
6
CONTINUOUS
10
4.72086
20
-3.44651
11
4.72078
21
-3.44646
0
LINE
8
BLACK
6
CONTINUOUS
10
4.72078
20
-3.44646
11
4.72071
21
-3.44641
0
LINE
8
BLACK
6
CONTINUOUS
10
4.72071
20
-3.44641
11
4.71315
21
-3.44024
0
LINE
8
BLACK
6
CONTINUOUS
10
4.71315
20
-3.44024
11
4.71314
21
-3.44023
0
LINE
8
BLACK
6
CONTINUOUS
10
4.71314
20
-3.44023
11
4.71307
21
-3.44017
0
LINE
8
BLACK
6
CONTINUOUS
10
4.71307
20
-3.44017
11
4.71301
21
-3.44011
0
LINE
8
BLACK
6
CONTINUOUS
10
4.71301
20
-3.44011
11
4.70679
21
-3.43259
0
LINE
8
BLACK
6
CONTINUOUS
10
4.70679
20
-3.43259
11
4.70678
21
-3.43258
0
LINE
8
BLACK
6
CONTINUOUS
10
4.70678
20
-3.43258
11
4.70673
21
-3.4325
0
LINE
8
BLACK
6
CONTINUOUS
10
4.70673
20
-3.4325
11
4.70668
21
-3.43243
0
LINE
8
BLACK
6
CONTINUOUS
10
4.70668
20
-3.43243
11
4.70204
21
-3.42384
0
LINE
8
BLACK
6
CONTINUOUS
10
4.70204
20
-3.42384
11
4.70203
21
-3.42383
0
LINE
8
BLACK
6
CONTINUOUS
10
4.70203
20
-3.42383
11
4.702
21
-3.42375
0
LINE
8
BLACK
6
CONTINUOUS
10
4.702
20
-3.42375
11
4.70197
21
-3.42367
0
LINE
8
BLACK
6
CONTINUOUS
10
4.70197
20
-3.42367
11
4.69908
21
-3.41434
0
LINE
8
BLACK
6
CONTINUOUS
10
4.69908
20
-3.41434
11
4.69908
21
-3.41433
0
LINE
8
BLACK
6
CONTINUOUS
10
4.69908
20
-3.41433
11
4.69906
21
-3.41424
0
LINE
8
BLACK
6
CONTINUOUS
10
4.69906
20
-3.41424
11
4.69904
21
-3.41416
0
LINE
8
BLACK
6
CONTINUOUS
10
4.69904
20
-3.41416
11
4.69802
21
-3.40445
0
LINE
8
BLACK
6
CONTINUOUS
10
4.69802
20
-3.40445
11
4.69802
21
-3.40444
0
LINE
8
BLACK
6
CONTINUOUS
10
4.69802
20
-3.40444
11
4.69802
21
-3.4044
0
LINE
8
BLACK
6
CONTINUOUS
10
4.69802
20
-3.4044
11
4.69802
21
-3.40435
0
LINE
8
BLACK
6
CONTINUOUS
10
4.69802
20
-3.40435
11
4.69802
21
-3.40405
0
LINE
8
BLACK
6
CONTINUOUS
10
4.69802
20
-3.40405
11
4.69802
21
-3.40405
0
LINE
8
BLACK
6
CONTINUOUS
10
4.69802
20
-3.40405
11
4.69802
21
-3.40401
0
LINE
8
BLACK
6
CONTINUOUS
10
4.69802
20
-3.40401
11
4.69802
21
-3.404
0
LINE
8
BLACK
6
CONTINUOUS
10
4.69802
20
-3.404
11
4.69802
21
-3.40399
0
LINE
8
BLACK
6
CONTINUOUS
10
4.69802
20
-3.40399
11
4.69802
21
-2.94895
0
LINE
8
BLACK
6
CONTINUOUS
10
4.69802
20
-2.94895
11
4.69802
21
-2.9489
0
LINE
8
BLACK
6
CONTINUOUS
10
4.69802
20
-2.9489
11
4.69802
21
-2.9489
0
LINE
8
BLACK
6
CONTINUOUS
10
4.69802
20
-2.9489
11
4.69897
21
-2.93919
0
LINE
8
BLACK
6
CONTINUOUS
10
4.69897
20
-2.93919
11
4.69897
21
-2.93918
0
LINE
8
BLACK
6
CONTINUOUS
10
4.69897
20
-2.93918
11
4.69899
21
-2.93909
0
LINE
8
BLACK
6
CONTINUOUS
10
4.69899
20
-2.93909
11
4.69901
21
-2.939
0
LINE
8
BLACK
6
CONTINUOUS
10
4.69901
20
-2.939
11
4.70183
21
-2.92966
0
LINE
8
BLACK
6
CONTINUOUS
10
4.70183
20
-2.92966
11
4.70183
21
-2.92965
0
LINE
8
BLACK
6
CONTINUOUS
10
4.70183
20
-2.92965
11
4.70187
21
-2.92957
0
LINE
8
BLACK
6
CONTINUOUS
10
4.70187
20
-2.92957
11
4.7019
21
-2.92948
0
LINE
8
BLACK
6
CONTINUOUS
10
4.7019
20
-2.92948
11
4.70648
21
-2.92087
0
LINE
8
BLACK
6
CONTINUOUS
10
4.70648
20
-2.92087
11
4.70648
21
-2.92087
0
LINE
8
BLACK
6
CONTINUOUS
10
4.70648
20
-2.92087
11
4.70648
21
-2.92087
0
LINE
8
BLACK
6
CONTINUOUS
10
4.70648
20
-2.92087
11
4.70649
21
-2.92086
0
LINE
8
BLACK
6
CONTINUOUS
10
4.70649
20
-2.92086
11
4.70654
21
-2.92078
0
LINE
8
BLACK
6
CONTINUOUS
10
4.70654
20
-2.92078
11
4.70659
21
-2.92071
0
LINE
8
BLACK
6
CONTINUOUS
10
4.70659
20
-2.92071
11
4.71276
21
-2.91315
0
LINE
8
BLACK
6
CONTINUOUS
10
4.71276
20
-2.91315
11
4.71276
21
-2.91315
0
LINE
8
BLACK
6
CONTINUOUS
10
4.71276
20
-2.91315
11
4.71276
21
-2.91315
0
LINE
8
BLACK
6
CONTINUOUS
10
4.71276
20
-2.91315
11
4.71277
21
-2.91314
0
LINE
8
BLACK
6
CONTINUOUS
10
4.71277
20
-2.91314
11
4.71283
21
-2.91307
0
LINE
8
BLACK
6
CONTINUOUS
10
4.71283
20
-2.91307
11
4.71289
21
-2.91301
0
LINE
8
BLACK
6
CONTINUOUS
10
4.71289
20
-2.91301
11
4.72041
21
-2.90679
0
LINE
8
BLACK
6
CONTINUOUS
10
4.72041
20
-2.90679
11
4.72042
21
-2.90678
0
LINE
8
BLACK
6
CONTINUOUS
10
4.72042
20
-2.90678
11
4.7205
21
-2.90673
0
LINE
8
BLACK
6
CONTINUOUS
10
4.7205
20
-2.90673
11
4.72057
21
-2.90668
0
LINE
8
BLACK
6
CONTINUOUS
10
4.72057
20
-2.90668
11
4.72916
21
-2.90204
0
LINE
8
BLACK
6
CONTINUOUS
10
4.72916
20
-2.90204
11
4.72917
21
-2.90203
0
LINE
8
BLACK
6
CONTINUOUS
10
4.72917
20
-2.90203
11
4.72925
21
-2.902
0
LINE
8
BLACK
6
CONTINUOUS
10
4.72925
20
-2.902
11
4.72933
21
-2.90197
0
LINE
8
BLACK
6
CONTINUOUS
10
4.72933
20
-2.90197
11
4.73866
21
-2.89908
0
LINE
8
BLACK
6
CONTINUOUS
10
4.73866
20
-2.89908
11
4.73867
21
-2.89908
0
LINE
8
BLACK
6
CONTINUOUS
10
4.73867
20
-2.89908
11
4.73876
21
-2.89906
0
LINE
8
BLACK
6
CONTINUOUS
10
4.73876
20
-2.89906
11
4.73884
21
-2.89904
0
LINE
8
BLACK
6
CONTINUOUS
10
4.73884
20
-2.89904
11
4.74855
21
-2.89802
0
LINE
8
BLACK
6
CONTINUOUS
10
4.74855
20
-2.89802
11
4.74856
21
-2.89802
0
LINE
8
BLACK
6
CONTINUOUS
10
4.74856
20
-2.89802
11
4.7486
21
-2.89802
0
LINE
8
BLACK
6
CONTINUOUS
10
4.7486
20
-2.89802
11
4.74865
21
-2.89802
0
LINE
8
BLACK
6
CONTINUOUS
10
4.74865
20
-2.89802
11
4.74895
21
-2.89802
0
LINE
8
BLACK
6
CONTINUOUS
10
4.74895
20
-2.89802
11
4.74895
21
-2.89802
0
LINE
8
BLACK
6
CONTINUOUS
10
4.74895
20
-2.89802
11
5.45305
21
-2.89802
0
LINE
8
BLACK
6
CONTINUOUS
10
5.45305
20
-2.89802
11
5.4531
21
-2.89802
0
LINE
8
BLACK
6
CONTINUOUS
10
5.4531
20
-2.89802
11
5.4531
21
-2.89802
0
LINE
8
BLACK
6
CONTINUOUS
10
5.4531
20
-2.89802
11
5.46281
21
-2.89897
0
LINE
8
BLACK
6
CONTINUOUS
10
5.46281
20
-2.89897
11
5.46282
21
-2.89897
0
LINE
8
BLACK
6
CONTINUOUS
10
5.46282
20
-2.89897
11
5.46291
21
-2.89899
0
LINE
8
BLACK
6
CONTINUOUS
10
5.46291
20
-2.89899
11
5.463
21
-2.89901
0
LINE
8
BLACK
6
CONTINUOUS
10
5.463
20
-2.89901
11
5.47234
21
-2.90183
0
LINE
8
BLACK
6
CONTINUOUS
10
5.47234
20
-2.90183
11
5.47235
21
-2.90183
0
LINE
8
BLACK
6
CONTINUOUS
10
5.47235
20
-2.90183
11
5.47243
21
-2.90187
0
LINE
8
BLACK
6
CONTINUOUS
10
5.47243
20
-2.90187
11
5.47252
21
-2.9019
0
LINE
8
BLACK
6
CONTINUOUS
10
5.47252
20
-2.9019
11
5.48113
21
-2.90648
0
LINE
8
BLACK
6
CONTINUOUS
10
5.48113
20
-2.90648
11
5.48113
21
-2.90648
0
LINE
8
BLACK
6
CONTINUOUS
10
5.48113
20
-2.90648
11
5.48113
21
-2.90648
0
LINE
8
BLACK
6
CONTINUOUS
10
5.48113
20
-2.90648
11
5.48114
21
-2.90649
0
LINE
8
BLACK
6
CONTINUOUS
10
5.48114
20
-2.90649
11
5.48122
21
-2.90654
0
LINE
8
BLACK
6
CONTINUOUS
10
5.48122
20
-2.90654
11
5.48129
21
-2.90659
0
LINE
8
BLACK
6
CONTINUOUS
10
5.48129
20
-2.90659
11
5.48885
21
-2.91276
0
LINE
8
BLACK
6
CONTINUOUS
10
5.48885
20
-2.91276
11
5.48885
21
-2.91276
0
LINE
8
BLACK
6
CONTINUOUS
10
5.48885
20
-2.91276
11
5.48885
21
-2.91276
0
LINE
8
BLACK
6
CONTINUOUS
10
5.48885
20
-2.91276
11
5.48886
21
-2.91277
0
LINE
8
BLACK
6
CONTINUOUS
10
5.48886
20
-2.91277
11
5.48893
21
-2.91283
0
LINE
8
BLACK
6
CONTINUOUS
10
5.48893
20
-2.91283
11
5.48899
21
-2.91289
0
LINE
8
BLACK
6
CONTINUOUS
10
5.48899
20
-2.91289
11
5.49521
21
-2.92041
0
LINE
8
BLACK
6
CONTINUOUS
10
5.49521
20
-2.92041
11
5.49522
21
-2.92042
0
LINE
8
BLACK
6
CONTINUOUS
10
5.49522
20
-2.92042
11
5.49527
21
-2.9205
0
LINE
8
BLACK
6
CONTINUOUS
10
5.49527
20
-2.9205
11
5.49532
21
-2.92057
0
LINE
8
BLACK
6
CONTINUOUS
10
5.49532
20
-2.92057
11
5.49996
21
-2.92916
0
LINE
8
BLACK
6
CONTINUOUS
10
5.49996
20
-2.92916
11
5.49997
21
-2.92917
0
LINE
8
BLACK
6
CONTINUOUS
10
5.49997
20
-2.92917
11
5.5
21
-2.92925
0
LINE
8
BLACK
6
CONTINUOUS
10
5.5
20
-2.92925
11
5.50003
21
-2.92933
0
LINE
8
BLACK
6
CONTINUOUS
10
5.50003
20
-2.92933
11
5.50292
21
-2.93866
0
LINE
8
BLACK
6
CONTINUOUS
10
5.50292
20
-2.93866
11
5.50292
21
-2.93867
0
LINE
8
BLACK
6
CONTINUOUS
10
5.50292
20
-2.93867
11
5.50294
21
-2.93876
0
LINE
8
BLACK
6
CONTINUOUS
10
5.50294
20
-2.93876
11
5.50296
21
-2.93884
0
LINE
8
BLACK
6
CONTINUOUS
10
5.50296
20
-2.93884
11
5.50398
21
-2.94855
0
LINE
8
BLACK
6
CONTINUOUS
10
5.50398
20
-2.94855
11
5.50398
21
-2.94856
0
LINE
8
BLACK
6
CONTINUOUS
10
5.50398
20
-2.94856
11
5.50398
21
-2.9486
0
LINE
8
BLACK
6
CONTINUOUS
10
5.50398
20
-2.9486
11
5.50398
21
-2.94865
0
LINE
8
BLACK
6
CONTINUOUS
10
5.50398
20
-2.94865
11
5.50398
21
-2.94895
0
LINE
8
BLACK
6
CONTINUOUS
10
5.50398
20
-2.94895
11
5.50398
21
-2.94895
0
LINE
8
BLACK
6
CONTINUOUS
10
5.50398
20
-2.94895
11
5.50398
21
-3.40405
0
LINE
8
BLACK
6
CONTINUOUS
10
5.50398
20
-3.40405
11
5.50398
21
-3.4041
0
LINE
8
BLACK
6
CONTINUOUS
10
5.50398
20
-3.4041
11
5.50398
21
-3.4041
0
LINE
8
BLACK
6
CONTINUOUS
10
5.50398
20
-3.4041
11
5.50303
21
-3.41381
0
LINE
8
BLACK
6
CONTINUOUS
10
5.50303
20
-3.41381
11
5.50303
21
-3.41382
0
LINE
8
BLACK
6
CONTINUOUS
10
5.50303
20
-3.41382
11
5.50301
21
-3.41391
0
LINE
8
BLACK
6
CONTINUOUS
10
5.50301
20
-3.41391
11
5.50299
21
-3.414
0
LINE
8
BLACK
6
CONTINUOUS
10
5.50299
20
-3.414
11
5.50017
21
-3.42334
0
LINE
8
BLACK
6
CONTINUOUS
10
5.50017
20
-3.42334
11
5.50017
21
-3.42335
0
LINE
8
BLACK
6
CONTINUOUS
10
5.50017
20
-3.42335
11
5.50013
21
-3.42343
0
LINE
8
BLACK
6
CONTINUOUS
10
5.50013
20
-3.42343
11
5.5001
21
-3.42352
0
LINE
8
BLACK
6
CONTINUOUS
10
5.5001
20
-3.42352
11
5.49552
21
-3.43213
0
LINE
8
BLACK
6
CONTINUOUS
10
5.49552
20
-3.43213
11
5.49551
21
-3.43214
0
LINE
8
BLACK
6
CONTINUOUS
10
5.49551
20
-3.43214
11
5.49546
21
-3.43222
0
LINE
8
BLACK
6
CONTINUOUS
10
5.49546
20
-3.43222
11
5.49541
21
-3.43229
0
LINE
8
BLACK
6
CONTINUOUS
10
5.49541
20
-3.43229
11
5.48924
21
-3.43985
0
LINE
8
BLACK
6
CONTINUOUS
10
5.48924
20
-3.43985
11
5.48923
21
-3.43986
0
LINE
8
BLACK
6
CONTINUOUS
10
5.48923
20
-3.43986
11
5.48917
21
-3.43993
0
LINE
8
BLACK
6
CONTINUOUS
10
5.48917
20
-3.43993
11
5.48911
21
-3.43999
0
LINE
8
BLACK
6
CONTINUOUS
10
5.48911
20
-3.43999
11
5.48159
21
-3.44621
0
LINE
8
BLACK
6
CONTINUOUS
10
5.48159
20
-3.44621
11
5.48158
21
-3.44622
0
LINE
8
BLACK
6
CONTINUOUS
10
5.48158
20
-3.44622
11
5.4815
21
-3.44627
0
LINE
8
BLACK
6
CONTINUOUS
10
5.4815
20
-3.44627
11
5.48143
21
-3.44632
0
LINE
8
BLACK
6
CONTINUOUS
10
5.48143
20
-3.44632
11
5.47284
21
-3.45096
0
LINE
8
BLACK
6
CONTINUOUS
10
5.47284
20
-3.45096
11
5.47283
21
-3.45097
0
LINE
8
BLACK
6
CONTINUOUS
10
5.47283
20
-3.45097
11
5.47275
21
-3.451
0
LINE
8
BLACK
6
CONTINUOUS
10
5.47275
20
-3.451
11
5.47267
21
-3.45103
0
LINE
8
BLACK
6
CONTINUOUS
10
5.47267
20
-3.45103
11
5.46334
21
-3.45392
0
LINE
8
BLACK
6
CONTINUOUS
10
5.46334
20
-3.45392
11
5.46333
21
-3.45392
0
LINE
8
BLACK
6
CONTINUOUS
10
5.46333
20
-3.45392
11
5.46324
21
-3.45394
0
LINE
8
BLACK
6
CONTINUOUS
10
5.46324
20
-3.45394
11
5.46316
21
-3.45396
0
LINE
8
BLACK
6
CONTINUOUS
10
5.46316
20
-3.45396
11
5.45345
21
-3.45498
0
LINE
8
BLACK
6
CONTINUOUS
10
5.45345
20
-3.45498
11
5.45344
21
-3.45498
0
LINE
8
BLACK
6
CONTINUOUS
10
5.45344
20
-3.45498
11
5.4534
21
-3.45498
0
LINE
8
BLACK
6
CONTINUOUS
10
5.4534
20
-3.45498
11
5.45335
21
-3.45498
0
LINE
8
BLACK
6
CONTINUOUS
10
5.45335
20
-3.45498
11
5.45305
21
-3.45498
0
LINE
8
BLACK
6
CONTINUOUS
10
5.45305
20
-3.45498
11
5.45305
21
-3.45498
0
LINE
8
BLACK
6
CONTINUOUS
10
5.45305
20
-3.45498
11
4.74895
21
-3.45498
0
LINE
8
BLACK
6
CONTINUOUS
10
4.74895
20
-3.45498
11
4.7489
21
-3.45498
0
LINE
8
BLACK
6
CONTINUOUS
10
4.749
20
-2.89998
11
4.7487
21
-2.89999
0
LINE
8
BLACK
6
CONTINUOUS
10
4.7487
20
-2.89999
11
4.73914
21
-2.90099
0
LINE
8
BLACK
6
CONTINUOUS
10
4.73914
20
-2.90099
11
4.73001
21
-2.90382
0
LINE
8
BLACK
6
CONTINUOUS
10
4.73001
20
-2.90382
11
4.72159
21
-2.90837
0
LINE
8
BLACK
6
CONTINUOUS
10
4.72159
20
-2.90837
11
4.71422
21
-2.91447
0
LINE
8
BLACK
6
CONTINUOUS
10
4.71422
20
-2.91447
11
4.70818
21
-2.92188
0
LINE
8
BLACK
6
CONTINUOUS
10
4.70818
20
-2.92188
11
4.70369
21
-2.93032
0
LINE
8
BLACK
6
CONTINUOUS
10
4.70369
20
-2.93032
11
4.70092
21
-2.93948
0
LINE
8
BLACK
6
CONTINUOUS
10
4.70092
20
-2.93948
11
4.69998
21
-2.94905
0
LINE
8
BLACK
6
CONTINUOUS
10
4.69998
20
-2.94905
11
4.69998
21
-3.404
0
LINE
8
BLACK
6
CONTINUOUS
10
4.69998
20
-3.404
11
4.69999
21
-3.4043
0
LINE
8
BLACK
6
CONTINUOUS
10
4.69999
20
-3.4043
11
4.70099
21
-3.41385
0
LINE
8
BLACK
6
CONTINUOUS
10
4.70099
20
-3.41385
11
4.70382
21
-3.42299
0
LINE
8
BLACK
6
CONTINUOUS
10
4.70382
20
-3.42299
11
4.70837
21
-3.43141
0
LINE
8
BLACK
6
CONTINUOUS
10
4.70837
20
-3.43141
11
4.71447
21
-3.43878
0
LINE
8
BLACK
6
CONTINUOUS
10
4.71447
20
-3.43878
11
4.72188
21
-3.44482
0
LINE
8
BLACK
6
CONTINUOUS
10
4.72188
20
-3.44482
11
4.73032
21
-3.44931
0
LINE
8
BLACK
6
CONTINUOUS
10
4.73032
20
-3.44931
11
4.73948
21
-3.45208
0
LINE
8
BLACK
6
CONTINUOUS
10
4.73948
20
-3.45208
11
4.74905
21
-3.45302
0
LINE
8
BLACK
6
CONTINUOUS
10
4.74905
20
-3.45302
11
5.453
21
-3.45302
0
LINE
8
BLACK
6
CONTINUOUS
10
5.453
20
-3.45302
11
5.4533
21
-3.45301
0
LINE
8
BLACK
6
CONTINUOUS
10
5.4533
20
-3.45301
11
5.46286
21
-3.45201
0
LINE
8
BLACK
6
CONTINUOUS
10
5.46286
20
-3.45201
11
5.47199
21
-3.44918
0
LINE
8
BLACK
6
CONTINUOUS
10
5.47199
20
-3.44918
11
5.48041
21
-3.44463
0
LINE
8
BLACK
6
CONTINUOUS
10
5.48041
20
-3.44463
11
5.48778
21
-3.43853
0
LINE
8
BLACK
6
CONTINUOUS
10
5.48778
20
-3.43853
11
5.49382
21
-3.43112
0
LINE
8
BLACK
6
CONTINUOUS
10
5.49382
20
-3.43112
11
5.49831
21
-3.42268
0
LINE
8
BLACK
6
CONTINUOUS
10
5.49831
20
-3.42268
11
5.50108
21
-3.41352
0
LINE
8
BLACK
6
CONTINUOUS
10
5.50108
20
-3.41352
11
5.50202
21
-3.40395
0
LINE
8
BLACK
6
CONTINUOUS
10
5.50202
20
-3.40395
11
5.50202
21
-2.949
0
LINE
8
BLACK
6
CONTINUOUS
10
5.50202
20
-2.949
11
5.50202
21
-2.949
0
LINE
8
BLACK
6
CONTINUOUS
10
5.50202
20
-2.949
11
5.50201
21
-2.9487
0
LINE
8
BLACK
6
CONTINUOUS
10
5.50201
20
-2.9487
11
5.50101
21
-2.93914
0
LINE
8
BLACK
6
CONTINUOUS
10
5.50101
20
-2.93914
11
5.49818
21
-2.93001
0
LINE
8
BLACK
6
CONTINUOUS
10
5.49818
20
-2.93001
11
5.49363
21
-2.92159
0
LINE
8
BLACK
6
CONTINUOUS
10
5.49363
20
-2.92159
11
5.48753
21
-2.91422
0
LINE
8
BLACK
6
CONTINUOUS
10
5.48753
20
-2.91422
11
5.48012
21
-2.90818
0
LINE
8
BLACK
6
CONTINUOUS
10
5.48012
20
-2.90818
11
5.47168
21
-2.90369
0
LINE
8
BLACK
6
CONTINUOUS
10
5.47168
20
-2.90369
11
5.46252
21
-2.90092
0
LINE
8
BLACK
6
CONTINUOUS
10
5.46252
20
-2.90092
11
5.45295
21
-2.89998
0
LINE
8
BLACK
6
CONTINUOUS
10
5.45295
20
-2.89998
11
4.749
21
-2.89998
  0
ENDSEC
  0
EOF
